<?xml version="1.0" encoding="UTF-8" standalone="no"?>
<!DOCTYPE svg PUBLIC "-//W3C//DTD SVG 1.1//EN"
 "http://www.w3.org/Graphics/SVG/1.1/DTD/svg11.dtd">
<!-- Generated by graphviz version 2.40.1 (20161225.0304)
 -->
<!-- Title: Modules Pages: 1 -->
<svg width="864pt" height="568pt"
 viewBox="0.00 0.00 864.00 568.05" xmlns="http://www.w3.org/2000/svg" xmlns:xlink="http://www.w3.org/1999/xlink">
<g id="graph0" class="graph" transform="scale(.6242 .6242) rotate(0) translate(4 906)">
<title>Modules</title>
<polygon fill="#ffffff" stroke="transparent" points="-4,4 -4,-906 1380.109,-906 1380.109,4 -4,4"/>
<g id="clust1" class="cluster">
<title>cluster_0</title>
<polygon fill="#000000" fill-opacity="0.058824" stroke="#000000" stroke-opacity="0.058824" points="262.9631,-116.8583 262.9631,-441.8704 1273.9631,-441.8704 1273.9631,-116.8583 262.9631,-116.8583"/>
<text text-anchor="middle" x="768.4631" y="-426.6704" font-family="Times,serif" font-size="14.00" fill="#000000">Components</text>
</g>
<g id="clust2" class="cluster">
<title>cluster_1</title>
<polygon fill="#000000" fill-opacity="0.058824" stroke="#000000" stroke-opacity="0.058824" points="486.9631,-248.3239 486.9631,-385.2672 1179.9631,-385.2672 1179.9631,-248.3239 486.9631,-248.3239"/>
<text text-anchor="middle" x="833.4631" y="-370.0672" font-family="Times,serif" font-size="14.00" fill="#000000">Dialogs</text>
</g>
<g id="clust3" class="cluster">
<title>cluster_2</title>
<polygon fill="#000000" fill-opacity="0.058824" stroke="#000000" stroke-opacity="0.058824" points="682.9631,-679.2389 682.9631,-887.3927 820.9631,-887.3927 820.9631,-679.2389 682.9631,-679.2389"/>
<text text-anchor="middle" x="751.9631" y="-872.1927" font-family="Times,serif" font-size="14.00" fill="#000000">Test</text>
</g>
<g id="clust4" class="cluster">
<title>cluster_3</title>
<polygon fill="#000000" fill-opacity="0.058824" stroke="#000000" stroke-opacity="0.058824" points="690.9631,-693.8462 690.9631,-830.7895 812.9631,-830.7895 812.9631,-693.8462 690.9631,-693.8462"/>
<text text-anchor="middle" x="751.9631" y="-815.5895" font-family="Times,serif" font-size="14.00" fill="#000000">QuickCheck</text>
</g>
<g id="clust5" class="cluster">
<title>cluster_4</title>
<polygon fill="#000000" fill-opacity="0.058824" stroke="#000000" stroke-opacity="0.058824" points="30.9631,-456.4777 30.9631,-664.6316 951.9631,-664.6316 951.9631,-456.4777 30.9631,-456.4777"/>
<text text-anchor="middle" x="491.4631" y="-649.4316" font-family="Times,serif" font-size="14.00" fill="#000000">Timeline</text>
</g>
<g id="clust6" class="cluster">
<title>cluster_5</title>
<polygon fill="#000000" fill-opacity="0.058824" stroke="#000000" stroke-opacity="0.058824" points="38.9631,-471.085 38.9631,-608.0283 943.9631,-608.0283 943.9631,-471.085 38.9631,-471.085"/>
<text text-anchor="middle" x="491.4631" y="-592.8283" font-family="Times,serif" font-size="14.00" fill="#000000">Data</text>
</g>
<!-- u10 -->
<g id="node1" class="node">
<title>u10</title>
<ellipse fill="#bbffbb" stroke="#000000" stroke-width="0" cx="969.9631" cy="-741" rx="38.9931" ry="18"/>
<text text-anchor="middle" x="969.9631" y="-737.3" font-family="Times,serif" font-size="14.00" fill="#000000">Settings</text>
</g>
<!-- u11 -->
<g id="node2" class="node">
<title>u11</title>
<ellipse fill="#bbffbb" stroke="#000000" stroke-width="0" cx="209.9631" cy="-164" rx="45.4919" ry="18"/>
<text text-anchor="middle" x="209.9631" y="-160.3" font-family="Times,serif" font-size="14.00" fill="#000000">Plumbing</text>
</g>
<!-- u10&#45;&gt;u11 -->
<g id="edge23" class="edge">
<title>u10&#45;&gt;u11</title>
<path fill="none" stroke="#000000" d="M935.4891,-732.4961C904.5853,-725.0747 857.9376,-714.3695 816.9631,-707 644.3062,-675.9465 150.2116,-731.2592 34.9631,-599 -77.7795,-469.6168 113.8463,-258.3273 184.9985,-187.7761"/>
<polygon fill="#000000" stroke="#000000" points="187.5894,-190.1374 192.2759,-180.6354 182.6868,-185.1409 187.5894,-190.1374"/>
</g>
<!-- u7 -->
<g id="node6" class="node">
<title>u7</title>
<ellipse fill="#ffffbb" stroke="#000000" stroke-width="0" cx="1227.9631" cy="-296" rx="37.8943" ry="18"/>
<text text-anchor="middle" x="1227.9631" y="-292.3" font-family="Times,serif" font-size="14.00" fill="#000000">TopBar</text>
</g>
<!-- u10&#45;&gt;u7 -->
<g id="edge7" class="edge">
<title>u10&#45;&gt;u7</title>
<path fill="none" stroke="#000000" d="M980.3796,-723.6233C1011.6728,-671.3378 1107.4127,-510.7696 1183.9631,-376 1194.012,-358.3085 1205.0456,-338.2457 1213.5501,-322.6373"/>
<polygon fill="#000000" stroke="#000000" points="1216.786,-324.0129 1218.4872,-313.5556 1210.636,-320.6697 1216.786,-324.0129"/>
</g>
<!-- u2 -->
<g id="node10" class="node">
<title>u2</title>
<ellipse fill="#bbbbff" stroke="#000000" stroke-width="0" cx="1045.9631" cy="-296" rx="53.8905" ry="18"/>
<text text-anchor="middle" x="1045.9631" y="-292.3" font-family="Times,serif" font-size="14.00" fill="#000000">SettingsEdit</text>
</g>
<!-- u10&#45;&gt;u2 -->
<g id="edge2" class="edge">
<title>u10&#45;&gt;u2</title>
<path fill="none" stroke="#000000" d="M974.5616,-722.712C981.2297,-695.7604 993.6884,-643.7289 1001.9631,-599 1020.5533,-498.5103 1036.0369,-378.0649 1042.5952,-324.3128"/>
<polygon fill="#000000" stroke="#000000" points="1046.0945,-324.5294 1043.8217,-314.1812 1039.1452,-323.6881 1046.0945,-324.5294"/>
</g>
<!-- u3 -->
<g id="node11" class="node">
<title>u3</title>
<ellipse fill="#bbbbff" stroke="#000000" stroke-width="0" cx="894.9631" cy="-296" rx="79.0865" ry="18"/>
<text text-anchor="middle" x="894.9631" y="-292.3" font-family="Times,serif" font-size="14.00" fill="#000000">TimelineNameEdit</text>
</g>
<!-- u10&#45;&gt;u3 -->
<g id="edge3" class="edge">
<title>u10&#45;&gt;u3</title>
<path fill="none" stroke="#000000" d="M974.2583,-723.0333C983.6251,-680.8698 1003.5402,-572.5267 983.9631,-485 970.1917,-423.4304 934.0414,-358.2671 912.2844,-322.823"/>
<polygon fill="#000000" stroke="#000000" points="915.0814,-320.6934 906.8227,-314.0567 909.1401,-324.3951 915.0814,-320.6934"/>
</g>
<!-- u4 -->
<g id="node12" class="node">
<title>u4</title>
<ellipse fill="#bbbbff" stroke="#000000" stroke-width="0" cx="733.9631" cy="-296" rx="63.8893" ry="18"/>
<text text-anchor="middle" x="733.9631" y="-292.3" font-family="Times,serif" font-size="14.00" fill="#000000">TimeScaleEdit</text>
</g>
<!-- u10&#45;&gt;u4 -->
<g id="edge5" class="edge">
<title>u10&#45;&gt;u4</title>
<path fill="none" stroke="#000000" d="M973.0991,-722.8484C979.7471,-678.892 991.315,-564.5033 947.9631,-485 910.043,-415.4583 865.2095,-429.678 806.9631,-376 788.4779,-358.9647 769.3902,-337.9033 755.371,-321.6673"/>
<polygon fill="#000000" stroke="#000000" points="757.6892,-318.9924 748.5319,-313.6636 752.3674,-323.5399 757.6892,-318.9924"/>
</g>
<!-- u15 -->
<g id="node17" class="node">
<title>u15</title>
<ellipse fill="#77ff77" stroke="#000000" stroke-width="0" cx="620.9631" cy="-519" rx="48.9926" ry="18"/>
<text text-anchor="middle" x="620.9631" y="-515.3" font-family="Times,serif" font-size="14.00" fill="#000000">TimeScale</text>
</g>
<!-- u10&#45;&gt;u15 -->
<g id="edge28" class="edge">
<title>u10&#45;&gt;u15</title>
<path fill="none" stroke="#000000" d="M937.3151,-730.9554C880.1559,-712.1715 760.3112,-667.3427 678.9631,-599 661.231,-584.1028 646.0714,-562.6702 635.7023,-545.7378"/>
<polygon fill="#000000" stroke="#000000" points="638.5549,-543.6858 630.4486,-536.8639 632.5314,-547.252 638.5549,-543.6858"/>
</g>
<!-- u16 -->
<g id="node18" class="node">
<title>u16</title>
<ellipse fill="#77ff77" stroke="#000000" stroke-width="0" cx="751.9631" cy="-519" rx="64.189" ry="18"/>
<text text-anchor="middle" x="751.9631" y="-515.3" font-family="Times,serif" font-size="14.00" fill="#000000">TimelineName</text>
</g>
<!-- u10&#45;&gt;u16 -->
<g id="edge29" class="edge">
<title>u10&#45;&gt;u16</title>
<path fill="none" stroke="#000000" d="M952.6908,-724.6898C925.1981,-698.5947 869.9904,-645.644 824.9631,-599 807.7267,-581.1448 788.8581,-560.4346 774.6225,-544.5601"/>
<polygon fill="#000000" stroke="#000000" points="776.9072,-541.8642 767.6337,-536.7403 771.6879,-546.5288 776.9072,-541.8642"/>
</g>
<!-- u13 -->
<g id="node3" class="node">
<title>u13</title>
<ellipse fill="#bbffbb" stroke="#000000" stroke-width="0" cx="412.9631" cy="-33" rx="29.795" ry="18"/>
<text text-anchor="middle" x="412.9631" y="-29.3" font-family="Times,serif" font-size="14.00" fill="#000000">Main</text>
</g>
<!-- u11&#45;&gt;u13 -->
<g id="edge27" class="edge">
<title>u11&#45;&gt;u13</title>
<path fill="none" stroke="#000000" d="M234.047,-148.4582C271.4431,-124.3257 343.3578,-77.9177 383.6926,-51.8888"/>
<polygon fill="#000000" stroke="#000000" points="385.7691,-54.7144 392.2737,-46.3513 381.9735,-48.8327 385.7691,-54.7144"/>
</g>
<!-- u8 -->
<g id="node7" class="node">
<title>u8</title>
<ellipse fill="#ffffbb" stroke="#000000" stroke-width="0" cx="674.9631" cy="-164" rx="30.5947" ry="18"/>
<text text-anchor="middle" x="674.9631" y="-160.3" font-family="Times,serif" font-size="14.00" fill="#000000">Index</text>
</g>
<!-- u11&#45;&gt;u8 -->
<g id="edge18" class="edge">
<title>u11&#45;&gt;u8</title>
<path fill="none" stroke="#000000" d="M255.8273,-164C381.8924,-164 507.9575,-164 634.0226,-164"/>
<polygon fill="#000000" stroke="#000000" points="634.2647,-167.5001 644.2646,-164 634.2646,-160.5001 634.2647,-167.5001"/>
</g>
<!-- u22 -->
<g id="node4" class="node">
<title>u22</title>
<ellipse fill="#bbffbb" stroke="#000000" stroke-width="0" cx="1329.9631" cy="-296" rx="46.2923" ry="18"/>
<text text-anchor="middle" x="1329.9631" y="-292.3" font-family="Times,serif" font-size="14.00" fill="#000000">WithRoot</text>
</g>
<!-- u22&#45;&gt;u8 -->
<g id="edge19" class="edge">
<title>u22&#45;&gt;u8</title>
<path fill="none" stroke="#000000" d="M1303.8736,-281.1083C1295.777,-276.9966 1286.6851,-272.8791 1277.9631,-270 1073.2062,-202.4118 814.3171,-175.3797 715.6577,-167.0693"/>
<polygon fill="#000000" stroke="#000000" points="715.7752,-163.5672 705.5216,-166.2344 715.2005,-170.5436 715.7752,-163.5672"/>
</g>
<!-- u0 -->
<g id="node5" class="node">
<title>u0</title>
<ellipse fill="#ffffbb" stroke="#000000" stroke-width="0" cx="426.9631" cy="-296" rx="50.0912" ry="18"/>
<text text-anchor="middle" x="426.9631" y="-292.3" font-family="Times,serif" font-size="14.00" fill="#000000">BottomBar</text>
</g>
<!-- u0&#45;&gt;u8 -->
<g id="edge9" class="edge">
<title>u0&#45;&gt;u8</title>
<path fill="none" stroke="#000000" d="M455.4118,-280.8579C502.0271,-256.0466 594.3549,-206.9043 643.1007,-180.959"/>
<polygon fill="#000000" stroke="#000000" points="644.7756,-184.0325 651.9586,-176.2443 641.4866,-177.8532 644.7756,-184.0325"/>
</g>
<!-- u7&#45;&gt;u8 -->
<g id="edge16" class="edge">
<title>u7&#45;&gt;u8</title>
<path fill="none" stroke="#000000" d="M1205.8472,-281.019C1199.0586,-276.9538 1191.4096,-272.8841 1183.9631,-270 1016.9387,-205.311 803.0243,-177.2191 715.2647,-167.8562"/>
<polygon fill="#000000" stroke="#000000" points="715.5085,-164.3627 705.1993,-166.806 714.7821,-171.3249 715.5085,-164.3627"/>
</g>
<!-- u8&#45;&gt;u13 -->
<g id="edge26" class="edge">
<title>u8&#45;&gt;u13</title>
<path fill="none" stroke="#000000" d="M651.2502,-152.1436C604.0749,-128.5559 498.4186,-75.7278 445.0769,-49.0569"/>
<polygon fill="#000000" stroke="#000000" points="446.5681,-45.8894 436.0585,-44.5477 443.4375,-52.1504 446.5681,-45.8894"/>
</g>
<!-- u9 -->
<g id="node8" class="node">
<title>u9</title>
<ellipse fill="#ffffbb" stroke="#000000" stroke-width="0" cx="314.9631" cy="-296" rx="43.5923" ry="18"/>
<text text-anchor="middle" x="314.9631" y="-292.3" font-family="Times,serif" font-size="14.00" fill="#000000">Snackbar</text>
</g>
<!-- u9&#45;&gt;u11 -->
<g id="edge22" class="edge">
<title>u9&#45;&gt;u11</title>
<path fill="none" stroke="#000000" d="M301.2361,-278.7433C283.0781,-255.9161 250.9388,-215.5123 230.0486,-189.2504"/>
<polygon fill="#000000" stroke="#000000" points="232.6577,-186.9081 223.6933,-181.2609 227.1795,-191.2658 232.6577,-186.9081"/>
</g>
<!-- u9&#45;&gt;u8 -->
<g id="edge17" class="edge">
<title>u9&#45;&gt;u8</title>
<path fill="none" stroke="#000000" d="M342.1745,-281.8505C350.3678,-277.8086 359.4467,-273.5432 367.9631,-270 463.2393,-230.3602 579.1891,-193.2235 637.5614,-175.2695"/>
<polygon fill="#000000" stroke="#000000" points="638.8985,-178.5206 647.436,-172.2467 636.8494,-171.8272 638.8985,-178.5206"/>
</g>
<!-- u1 -->
<g id="node9" class="node">
<title>u1</title>
<ellipse fill="#bbbbff" stroke="#000000" stroke-width="0" cx="616.9631" cy="-296" rx="35.194" ry="18"/>
<text text-anchor="middle" x="616.9631" y="-292.3" font-family="Times,serif" font-size="14.00" fill="#000000">Import</text>
</g>
<!-- u1&#45;&gt;u11 -->
<g id="edge20" class="edge">
<title>u1&#45;&gt;u11</title>
<path fill="none" stroke="#000000" d="M595.0979,-281.9006C587.9214,-277.6757 579.7782,-273.295 571.9631,-270 438.8091,-213.8608 396.4441,-226.5032 258.9631,-182 256.8614,-181.3197 254.7157,-180.6057 252.5534,-179.8707"/>
<polygon fill="#000000" stroke="#000000" points="253.6471,-176.5454 243.0522,-176.5522 251.3389,-183.1539 253.6471,-176.5454"/>
</g>
<!-- u1&#45;&gt;u8 -->
<g id="edge10" class="edge">
<title>u1&#45;&gt;u8</title>
<path fill="none" stroke="#000000" d="M624.7852,-278.1979C634.6557,-255.7339 651.7234,-216.8903 663.1768,-190.8239"/>
<polygon fill="#000000" stroke="#000000" points="666.4464,-192.0832 667.2648,-181.5201 660.0377,-189.2673 666.4464,-192.0832"/>
</g>
<!-- u2&#45;&gt;u8 -->
<g id="edge11" class="edge">
<title>u2&#45;&gt;u8</title>
<path fill="none" stroke="#000000" d="M1012.4351,-281.7267C1002.9525,-277.809 992.5921,-273.6401 982.9631,-270 885.9064,-233.3088 769.7559,-194.7604 711.7404,-175.8655"/>
<polygon fill="#000000" stroke="#000000" points="712.528,-172.4413 701.9358,-172.6793 710.3645,-179.0986 712.528,-172.4413"/>
</g>
<!-- u3&#45;&gt;u8 -->
<g id="edge12" class="edge">
<title>u3&#45;&gt;u8</title>
<path fill="none" stroke="#000000" d="M866.6523,-279.0135C825.1348,-254.103 748.049,-207.8516 705.3701,-182.2442"/>
<polygon fill="#000000" stroke="#000000" points="706.9345,-179.1012 696.5588,-176.9574 703.333,-185.1037 706.9345,-179.1012"/>
</g>
<!-- u4&#45;&gt;u8 -->
<g id="edge13" class="edge">
<title>u4&#45;&gt;u8</title>
<path fill="none" stroke="#000000" d="M725.8831,-277.9227C715.8086,-255.3832 698.5028,-216.6653 686.899,-190.7041"/>
<polygon fill="#000000" stroke="#000000" points="690.0339,-189.1405 682.7578,-181.4392 683.6432,-191.997 690.0339,-189.1405"/>
</g>
<!-- u5 -->
<g id="node13" class="node">
<title>u5</title>
<ellipse fill="#bbbbff" stroke="#000000" stroke-width="0" cx="528.9631" cy="-296" rx="34.394" ry="18"/>
<text text-anchor="middle" x="528.9631" y="-292.3" font-family="Times,serif" font-size="14.00" fill="#000000">Export</text>
</g>
<!-- u5&#45;&gt;u11 -->
<g id="edge21" class="edge">
<title>u5&#45;&gt;u11</title>
<path fill="none" stroke="#000000" d="M509.0123,-281.034C503.3484,-277.1535 497.0595,-273.1769 490.9631,-270 479.9277,-264.2495 329.051,-208.1157 253.0617,-179.9501"/>
<polygon fill="#000000" stroke="#000000" points="253.8918,-176.5252 243.2987,-176.3326 251.4596,-183.0891 253.8918,-176.5252"/>
</g>
<!-- u5&#45;&gt;u8 -->
<g id="edge14" class="edge">
<title>u5&#45;&gt;u8</title>
<path fill="none" stroke="#000000" d="M546.2845,-280.3395C572.1068,-256.9933 620.8132,-212.9574 650.3325,-186.2687"/>
<polygon fill="#000000" stroke="#000000" points="653.0442,-188.5354 658.1148,-179.2327 648.3497,-183.343 653.0442,-188.5354"/>
</g>
<!-- u6 -->
<g id="node14" class="node">
<title>u6</title>
<ellipse fill="#bbbbff" stroke="#000000" stroke-width="0" cx="1144.9631" cy="-296" rx="27.0966" ry="18"/>
<text text-anchor="middle" x="1144.9631" y="-292.3" font-family="Times,serif" font-size="14.00" fill="#000000">New</text>
</g>
<!-- u6&#45;&gt;u8 -->
<g id="edge15" class="edge">
<title>u6&#45;&gt;u8</title>
<path fill="none" stroke="#000000" d="M1127.8644,-281.5914C1122.1442,-277.35 1115.5427,-273.0376 1108.9631,-270 972.4907,-206.9946 793.924,-178.6353 715.2069,-168.5737"/>
<polygon fill="#000000" stroke="#000000" points="715.5773,-165.0929 705.2208,-167.3277 714.7105,-172.039 715.5773,-165.0929"/>
</g>
<!-- u12 -->
<g id="node15" class="node">
<title>u12</title>
<ellipse fill="#bbffff" stroke="#000000" stroke-width="0" cx="751.9631" cy="-741" rx="53.0913" ry="18"/>
<text text-anchor="middle" x="751.9631" y="-737.3" font-family="Times,serif" font-size="14.00" fill="#000000">UTF8String</text>
</g>
<!-- u12&#45;&gt;u16 -->
<g id="edge30" class="edge">
<title>u12&#45;&gt;u16</title>
<path fill="none" stroke="#000000" d="M751.9631,-722.8328C751.9631,-684.1975 751.9631,-593.6353 751.9631,-547.3385"/>
<polygon fill="#000000" stroke="#000000" points="755.4632,-547.1068 751.9631,-537.1069 748.4632,-547.1069 755.4632,-547.1068"/>
</g>
<!-- u14 -->
<g id="node16" class="node">
<title>u14</title>
<ellipse fill="#77ff77" stroke="#000000" stroke-width="0" cx="884.9631" cy="-519" rx="50.8918" ry="18"/>
<text text-anchor="middle" x="884.9631" y="-515.3" font-family="Times,serif" font-size="14.00" fill="#000000">TimeSpace</text>
</g>
<!-- u15&#45;&gt;u11 -->
<g id="edge24" class="edge">
<title>u15&#45;&gt;u11</title>
<path fill="none" stroke="#000000" d="M597.1993,-503.2066C587.2095,-496.9998 575.2942,-490.1447 563.9631,-485 421.3977,-420.2707 326.5359,-498.4512 228.9631,-376 186.5207,-322.736 195.342,-236.284 203.6121,-192.0377"/>
<polygon fill="#000000" stroke="#000000" points="207.0913,-192.4879 205.6175,-181.9961 200.2268,-191.117 207.0913,-192.4879"/>
</g>
<!-- u15&#45;&gt;u0 -->
<g id="edge1" class="edge">
<title>u15&#45;&gt;u0</title>
<path fill="none" stroke="#000000" d="M603.0459,-502.2098C575.7969,-476.2938 522.8925,-424.4619 482.9631,-376 468.773,-358.7777 454.3707,-338.1166 443.7256,-322.1058"/>
<polygon fill="#000000" stroke="#000000" points="446.643,-320.172 438.2235,-313.7407 440.7947,-324.0188 446.643,-320.172"/>
</g>
<!-- u15&#45;&gt;u4 -->
<g id="edge6" class="edge">
<title>u15&#45;&gt;u4</title>
<path fill="none" stroke="#000000" d="M630.0193,-501.1279C649.7726,-462.1458 696.8303,-369.2796 720.2445,-323.0728"/>
<polygon fill="#000000" stroke="#000000" points="723.4656,-324.4594 724.8637,-313.9572 717.2215,-321.2953 723.4656,-324.4594"/>
</g>
<!-- u16&#45;&gt;u11 -->
<g id="edge25" class="edge">
<title>u16&#45;&gt;u11</title>
<path fill="none" stroke="#000000" d="M721.2262,-503.1669C708.3859,-496.954 693.1731,-490.1051 678.9631,-485 497.4696,-419.7969 393.4909,-514.1795 258.9631,-376 246.1167,-362.8049 224.4104,-246.706 214.7954,-192.1269"/>
<polygon fill="#000000" stroke="#000000" points="218.209,-191.3283 213.0398,-182.08 211.3134,-192.5332 218.209,-191.3283"/>
</g>
<!-- u16&#45;&gt;u7 -->
<g id="edge8" class="edge">
<title>u16&#45;&gt;u7</title>
<path fill="none" stroke="#000000" d="M783.5241,-503.1134C796.2267,-497.0336 811.1214,-490.2944 824.9631,-485 980.7067,-425.4287 1054.4477,-481.0267 1183.9631,-376 1200.6358,-362.4798 1211.9816,-340.8771 1218.9708,-323.5265"/>
<polygon fill="#000000" stroke="#000000" points="1222.3486,-324.4875 1222.5898,-313.8954 1215.796,-322.0252 1222.3486,-324.4875"/>
</g>
<!-- u16&#45;&gt;u3 -->
<g id="edge4" class="edge">
<title>u16&#45;&gt;u3</title>
<path fill="none" stroke="#000000" d="M763.4236,-501.1279C788.5257,-461.9827 848.471,-368.5016 877.9728,-322.4953"/>
<polygon fill="#000000" stroke="#000000" points="880.9961,-324.2644 883.4479,-313.9572 875.1036,-320.4858 880.9961,-324.2644"/>
</g>
<!-- u17 -->
<g id="node19" class="node">
<title>u17</title>
<ellipse fill="#77ff77" stroke="#000000" stroke-width="0" cx="523.9631" cy="-519" rx="30.5947" ry="18"/>
<text text-anchor="middle" x="523.9631" y="-515.3" font-family="Times,serif" font-size="14.00" fill="#000000">Index</text>
</g>
<!-- u18 -->
<g id="node20" class="node">
<title>u18</title>
<ellipse fill="#77ff77" stroke="#000000" stroke-width="0" cx="409.9631" cy="-519" rx="65.7887" ry="18"/>
<text text-anchor="middle" x="409.9631" y="-515.3" font-family="Times,serif" font-size="14.00" fill="#000000">StoredTimeline</text>
</g>
<!-- u19 -->
<g id="node21" class="node">
<title>u19</title>
<ellipse fill="#77ff77" stroke="#000000" stroke-width="0" cx="294.9631" cy="-519" rx="31.3957" ry="18"/>
<text text-anchor="middle" x="294.9631" y="-515.3" font-family="Times,serif" font-size="14.00" fill="#000000">Event</text>
</g>
<!-- u20 -->
<g id="node22" class="node">
<title>u20</title>
<ellipse fill="#77ff77" stroke="#000000" stroke-width="0" cx="197.9631" cy="-519" rx="47.3916" ry="18"/>
<text text-anchor="middle" x="197.9631" y="-515.3" font-family="Times,serif" font-size="14.00" fill="#000000">TimeSpan</text>
</g>
<!-- u21 -->
<g id="node23" class="node">
<title>u21</title>
<ellipse fill="#77ff77" stroke="#000000" stroke-width="0" cx="89.9631" cy="-519" rx="42.7926" ry="18"/>
<text text-anchor="middle" x="89.9631" y="-515.3" font-family="Times,serif" font-size="14.00" fill="#000000">Timeline</text>
</g>
</g>
</svg>
