<?xml version="1.0" encoding="UTF-8" standalone="no"?>
<!DOCTYPE svg PUBLIC "-//W3C//DTD SVG 1.1//EN"
 "http://www.w3.org/Graphics/SVG/1.1/DTD/svg11.dtd">
<!-- Generated by graphviz version 2.40.1 (20161225.0304)
 -->
<!-- Title: G Pages: 1 -->
<svg width="864pt" height="568pt"
 viewBox="0.00 0.00 864.00 567.82" xmlns="http://www.w3.org/2000/svg" xmlns:xlink="http://www.w3.org/1999/xlink">
<g id="graph0" class="graph" transform="scale(.475 .475) rotate(0) translate(4 1191.3333)">
<title>G</title>
<polygon fill="#ffffff" stroke="transparent" points="-4,4 -4,-1191.3333 1814.8155,-1191.3333 1814.8155,4 -4,4"/>
<g id="clust1" class="cluster">
<title>cluster_0</title>
<polygon fill="#000000" fill-opacity="0.058824" stroke="#000000" stroke-opacity="0.058824" points="690.6696,-153.8246 690.6696,-581.6491 1710.6696,-581.6491 1710.6696,-153.8246 690.6696,-153.8246"/>
<text text-anchor="middle" x="1200.6696" y="-566.4491" font-family="Times,serif" font-size="14.00" fill="#000000">Components</text>
</g>
<g id="clust2" class="cluster">
<title>cluster_1</title>
<polygon fill="#000000" fill-opacity="0.058824" stroke="#000000" stroke-opacity="0.058824" points="1008.6696,-326.8772 1008.6696,-507.1404 1702.6696,-507.1404 1702.6696,-326.8772 1008.6696,-326.8772"/>
<text text-anchor="middle" x="1355.6696" y="-491.9404" font-family="Times,serif" font-size="14.00" fill="#000000">Dialogs</text>
</g>
<g id="clust3" class="cluster">
<title>cluster_2</title>
<polygon fill="#000000" fill-opacity="0.058824" stroke="#000000" stroke-opacity="0.058824" points="966.6696,-600.8772 966.6696,-874.8772 1378.6696,-874.8772 1378.6696,-600.8772 966.6696,-600.8772"/>
<text text-anchor="middle" x="1172.6696" y="-859.6772" font-family="Times,serif" font-size="14.00" fill="#000000">MaterialUI</text>
</g>
<g id="clust4" class="cluster">
<title>cluster_3</title>
<polygon fill="#000000" fill-opacity="0.058824" stroke="#000000" stroke-opacity="0.058824" points="974.6696,-620.1053 974.6696,-800.3684 1370.6696,-800.3684 1370.6696,-620.1053 974.6696,-620.1053"/>
<text text-anchor="middle" x="1172.6696" y="-785.1684" font-family="Times,serif" font-size="14.00" fill="#000000">Icons</text>
</g>
<g id="clust5" class="cluster">
<title>cluster_4</title>
<polygon fill="#000000" fill-opacity="0.058824" stroke="#000000" stroke-opacity="0.058824" points="574.6696,-894.1053 574.6696,-1168.1053 712.6696,-1168.1053 712.6696,-894.1053 574.6696,-894.1053"/>
<text text-anchor="middle" x="643.6696" y="-1152.9053" font-family="Times,serif" font-size="14.00" fill="#000000">Test</text>
</g>
<g id="clust6" class="cluster">
<title>cluster_5</title>
<polygon fill="#000000" fill-opacity="0.058824" stroke="#000000" stroke-opacity="0.058824" points="582.6696,-913.3333 582.6696,-1093.5965 704.6696,-1093.5965 704.6696,-913.3333 582.6696,-913.3333"/>
<text text-anchor="middle" x="643.6696" y="-1078.3965" font-family="Times,serif" font-size="14.00" fill="#000000">QuickCheck</text>
</g>
<g id="clust7" class="cluster">
<title>cluster_6</title>
<polygon fill="#000000" fill-opacity="0.058824" stroke="#000000" stroke-opacity="0.058824" points="37.6696,-600.8772 37.6696,-874.8772 958.6696,-874.8772 958.6696,-600.8772 37.6696,-600.8772"/>
<text text-anchor="middle" x="498.1696" y="-859.6772" font-family="Times,serif" font-size="14.00" fill="#000000">Timeline</text>
</g>
<g id="clust8" class="cluster">
<title>cluster_7</title>
<polygon fill="#000000" fill-opacity="0.058824" stroke="#000000" stroke-opacity="0.058824" points="45.6696,-620.1053 45.6696,-800.3684 950.6696,-800.3684 950.6696,-620.1053 45.6696,-620.1053"/>
<text text-anchor="middle" x="498.1696" y="-785.1684" font-family="Times,serif" font-size="14.00" fill="#000000">Data</text>
</g>
<!-- u13 -->
<g id="node1" class="node">
<title>u13</title>
<ellipse fill="#bbffbb" stroke="#000000" stroke-width="0" cx="1396.6696" cy="-976" rx="38.9931" ry="18"/>
<text text-anchor="middle" x="1396.6696" y="-972.3" font-family="Times,serif" font-size="14.00" fill="#000000">Settings</text>
</g>
<!-- u14 -->
<g id="node2" class="node">
<title>u14</title>
<ellipse fill="#bbffbb" stroke="#000000" stroke-width="0" cx="637.6696" cy="-216" rx="45.4919" ry="18"/>
<text text-anchor="middle" x="637.6696" y="-212.3" font-family="Times,serif" font-size="14.00" fill="#000000">Plumbing</text>
</g>
<!-- u13&#45;&gt;u14 -->
<g id="edge26" class="edge">
<title>u13&#45;&gt;u14</title>
<path fill="none" stroke="#000000" d="M1357.936,-972.8782C1145.7184,-955.3928 130.3176,-866.6717 41.6696,-763 -159.2382,-528.0433 425.9675,-292.7333 593.9774,-231.3808"/>
<polygon fill="#000000" stroke="#000000" points="595.3043,-234.6227 603.5117,-227.9228 592.9175,-228.0422 595.3043,-234.6227"/>
</g>
<!-- u10 -->
<g id="node6" class="node">
<title>u10</title>
<ellipse fill="#ffffbb" stroke="#000000" stroke-width="0" cx="960.6696" cy="-389" rx="37.8943" ry="18"/>
<text text-anchor="middle" x="960.6696" y="-385.3" font-family="Times,serif" font-size="14.00" fill="#000000">TopBar</text>
</g>
<!-- u13&#45;&gt;u10 -->
<g id="edge10" class="edge">
<title>u13&#45;&gt;u10</title>
<path fill="none" stroke="#000000" d="M1397.763,-957.8553C1401.0937,-896.8103 1408.9116,-699.8553 1374.6696,-649 1272.5327,-497.3094 1137.1753,-595.0326 1004.6696,-469 989.3079,-454.3888 977.9875,-433.2079 970.6788,-416.3105"/>
<polygon fill="#000000" stroke="#000000" points="973.869,-414.865 966.8388,-406.9386 967.3916,-417.519 973.869,-414.865"/>
</g>
<!-- u5 -->
<g id="node10" class="node">
<title>u5</title>
<ellipse fill="#bbbbff" stroke="#000000" stroke-width="0" cx="1640.6696" cy="-389" rx="53.8905" ry="18"/>
<text text-anchor="middle" x="1640.6696" y="-385.3" font-family="Times,serif" font-size="14.00" fill="#000000">SettingsEdit</text>
</g>
<!-- u13&#45;&gt;u5 -->
<g id="edge2" class="edge">
<title>u13&#45;&gt;u5</title>
<path fill="none" stroke="#000000" d="M1404.1052,-958.1117C1439.0422,-874.0627 1586.9581,-518.2156 1629.3014,-416.349"/>
<polygon fill="#000000" stroke="#000000" points="1632.5656,-417.6144 1633.1721,-407.0369 1626.1018,-414.9275 1632.5656,-417.6144"/>
</g>
<!-- u6 -->
<g id="node11" class="node">
<title>u6</title>
<ellipse fill="#bbbbff" stroke="#000000" stroke-width="0" cx="1343.6696" cy="-389" rx="79.0865" ry="18"/>
<text text-anchor="middle" x="1343.6696" y="-385.3" font-family="Times,serif" font-size="14.00" fill="#000000">TimelineNameEdit</text>
</g>
<!-- u13&#45;&gt;u6 -->
<g id="edge3" class="edge">
<title>u13&#45;&gt;u6</title>
<path fill="none" stroke="#000000" d="M1398.2716,-957.7848C1401.4166,-921.0061 1408.2985,-835.2261 1410.6696,-763 1412.332,-712.3606 1417.0419,-699.2644 1410.6696,-649 1399.7144,-562.5863 1369.0533,-463.7929 1353.2921,-416.7365"/>
<polygon fill="#000000" stroke="#000000" points="1356.5093,-415.3245 1349.9867,-406.9754 1349.8791,-417.5697 1356.5093,-415.3245"/>
</g>
<!-- u7 -->
<g id="node12" class="node">
<title>u7</title>
<ellipse fill="#bbbbff" stroke="#000000" stroke-width="0" cx="1504.6696" cy="-389" rx="63.8893" ry="18"/>
<text text-anchor="middle" x="1504.6696" y="-385.3" font-family="Times,serif" font-size="14.00" fill="#000000">TimeScaleEdit</text>
</g>
<!-- u13&#45;&gt;u7 -->
<g id="edge5" class="edge">
<title>u13&#45;&gt;u7</title>
<path fill="none" stroke="#000000" d="M1400.0202,-957.7886C1415.5632,-873.3098 1480.6803,-519.386 1499.5344,-416.9108"/>
<polygon fill="#000000" stroke="#000000" points="1502.9906,-417.4673 1501.358,-406.999 1496.1062,-416.2006 1502.9906,-417.4673"/>
</g>
<!-- u18 -->
<g id="node20" class="node">
<title>u18</title>
<ellipse fill="#7777ff" stroke="#000000" stroke-width="0" cx="774.6696" cy="-683" rx="48.9926" ry="18"/>
<text text-anchor="middle" x="774.6696" y="-679.3" font-family="Times,serif" font-size="14.00" fill="#000000">TimeScale</text>
</g>
<!-- u13&#45;&gt;u18 -->
<g id="edge31" class="edge">
<title>u13&#45;&gt;u18</title>
<path fill="none" stroke="#000000" d="M1359.6626,-969.8105C1263.7243,-952.2427 1002.5714,-894.5791 831.6696,-763 813.3134,-748.8674 798.3883,-727.2071 788.4216,-709.9876"/>
<polygon fill="#000000" stroke="#000000" points="791.3196,-707.9969 783.4044,-700.9541 785.2001,-711.3957 791.3196,-707.9969"/>
</g>
<!-- u19 -->
<g id="node21" class="node">
<title>u19</title>
<ellipse fill="#7777ff" stroke="#000000" stroke-width="0" cx="643.6696" cy="-683" rx="64.189" ry="18"/>
<text text-anchor="middle" x="643.6696" y="-679.3" font-family="Times,serif" font-size="14.00" fill="#000000">TimelineName</text>
</g>
<!-- u13&#45;&gt;u19 -->
<g id="edge32" class="edge">
<title>u13&#45;&gt;u19</title>
<path fill="none" stroke="#000000" d="M1358.7615,-971.2021C1250.7224,-956.1168 934.981,-902.1117 716.6696,-763 694.5943,-748.9333 674.9398,-726.5067 661.6018,-708.9729"/>
<polygon fill="#000000" stroke="#000000" points="664.3346,-706.7817 655.5785,-700.8166 658.7036,-710.9401 664.3346,-706.7817"/>
</g>
<!-- u16 -->
<g id="node3" class="node">
<title>u16</title>
<ellipse fill="#bbffbb" stroke="#000000" stroke-width="0" cx="843.6696" cy="-43" rx="29.795" ry="18"/>
<text text-anchor="middle" x="843.6696" y="-39.3" font-family="Times,serif" font-size="14.00" fill="#000000">Main</text>
</g>
<!-- u14&#45;&gt;u16 -->
<g id="edge30" class="edge">
<title>u14&#45;&gt;u16</title>
<path fill="none" stroke="#000000" d="M657.4217,-199.412C694.9967,-167.8564 776.7199,-99.2247 818.2888,-64.315"/>
<polygon fill="#000000" stroke="#000000" points="820.6352,-66.9149 826.0421,-57.8036 816.1335,-61.5545 820.6352,-66.9149"/>
</g>
<!-- u11 -->
<g id="node7" class="node">
<title>u11</title>
<ellipse fill="#ffffbb" stroke="#000000" stroke-width="0" cx="1094.6696" cy="-216" rx="30.5947" ry="18"/>
<text text-anchor="middle" x="1094.6696" y="-212.3" font-family="Times,serif" font-size="14.00" fill="#000000">Index</text>
</g>
<!-- u14&#45;&gt;u11 -->
<g id="edge21" class="edge">
<title>u14&#45;&gt;u11</title>
<path fill="none" stroke="#000000" d="M683.1911,-216C806.6922,-216 930.1934,-216 1053.6946,-216"/>
<polygon fill="#000000" stroke="#000000" points="1053.7284,-219.5001 1063.7283,-216 1053.7283,-212.5001 1053.7284,-219.5001"/>
</g>
<!-- u25 -->
<g id="node4" class="node">
<title>u25</title>
<ellipse fill="#bbffbb" stroke="#000000" stroke-width="0" cx="1764.6696" cy="-389" rx="46.2923" ry="18"/>
<text text-anchor="middle" x="1764.6696" y="-385.3" font-family="Times,serif" font-size="14.00" fill="#000000">WithRoot</text>
</g>
<!-- u25&#45;&gt;u11 -->
<g id="edge22" class="edge">
<title>u25&#45;&gt;u11</title>
<path fill="none" stroke="#000000" d="M1735.8853,-374.8286C1726.6935,-370.6485 1716.383,-366.3116 1706.6696,-363 1495.8627,-291.1289 1232.7854,-240.5184 1134.304,-222.8735"/>
<polygon fill="#000000" stroke="#000000" points="1134.6634,-219.3826 1124.2049,-221.0766 1133.4371,-226.2744 1134.6634,-219.3826"/>
</g>
<!-- u3 -->
<g id="node5" class="node">
<title>u3</title>
<ellipse fill="#ffffbb" stroke="#000000" stroke-width="0" cx="854.6696" cy="-389" rx="50.0912" ry="18"/>
<text text-anchor="middle" x="854.6696" y="-385.3" font-family="Times,serif" font-size="14.00" fill="#000000">BottomBar</text>
</g>
<!-- u3&#45;&gt;u11 -->
<g id="edge12" class="edge">
<title>u3&#45;&gt;u11</title>
<path fill="none" stroke="#000000" d="M877.2482,-372.7246C921.2987,-340.9715 1018.5879,-270.8422 1066.6616,-236.1891"/>
<polygon fill="#000000" stroke="#000000" points="1068.9758,-238.8355 1075.0413,-230.1487 1064.8825,-233.157 1068.9758,-238.8355"/>
</g>
<!-- u10&#45;&gt;u11 -->
<g id="edge19" class="edge">
<title>u10&#45;&gt;u11</title>
<path fill="none" stroke="#000000" d="M973.762,-372.097C997.6003,-341.3207 1048.1659,-276.0383 1075.7515,-240.4241"/>
<polygon fill="#000000" stroke="#000000" points="1078.5607,-242.5128 1081.9173,-232.4638 1073.0267,-238.2263 1078.5607,-242.5128"/>
</g>
<!-- u11&#45;&gt;u16 -->
<g id="edge29" class="edge">
<title>u11&#45;&gt;u16</title>
<path fill="none" stroke="#000000" d="M1074.5535,-202.1351C1030.0161,-171.438 922.9884,-97.67 871.8283,-62.4082"/>
<polygon fill="#000000" stroke="#000000" points="873.7531,-59.484 863.5331,-56.6908 869.7805,-65.2476 873.7531,-59.484"/>
</g>
<!-- u12 -->
<g id="node8" class="node">
<title>u12</title>
<ellipse fill="#ffffbb" stroke="#000000" stroke-width="0" cx="742.6696" cy="-389" rx="43.5923" ry="18"/>
<text text-anchor="middle" x="742.6696" y="-385.3" font-family="Times,serif" font-size="14.00" fill="#000000">Snackbar</text>
</g>
<!-- u12&#45;&gt;u14 -->
<g id="edge25" class="edge">
<title>u12&#45;&gt;u14</title>
<path fill="none" stroke="#000000" d="M732.0238,-371.4598C713.5498,-341.0218 675.4552,-278.2562 653.7454,-242.4868"/>
<polygon fill="#000000" stroke="#000000" points="656.5241,-240.3193 648.3435,-233.5866 650.54,-243.9513 656.5241,-240.3193"/>
</g>
<!-- u12&#45;&gt;u11 -->
<g id="edge20" class="edge">
<title>u12&#45;&gt;u11</title>
<path fill="none" stroke="#000000" d="M770.8802,-375.1351C835.3866,-343.4317 993.3686,-265.7871 1061.9777,-232.0673"/>
<polygon fill="#000000" stroke="#000000" points="1063.6157,-235.1622 1071.0466,-227.6102 1060.5281,-228.8799 1063.6157,-235.1622"/>
</g>
<!-- u4 -->
<g id="node9" class="node">
<title>u4</title>
<ellipse fill="#bbbbff" stroke="#000000" stroke-width="0" cx="1138.6696" cy="-389" rx="35.194" ry="18"/>
<text text-anchor="middle" x="1138.6696" y="-385.3" font-family="Times,serif" font-size="14.00" fill="#000000">Import</text>
</g>
<!-- u4&#45;&gt;u14 -->
<g id="edge23" class="edge">
<title>u4&#45;&gt;u14</title>
<path fill="none" stroke="#000000" d="M1116.2785,-374.7849C1109.2123,-370.6502 1101.2645,-366.3501 1093.6696,-363 920.0522,-286.4174 866.2195,-295.3981 686.6696,-234 684.5794,-233.2852 682.443,-232.5434 680.2881,-231.7861"/>
<polygon fill="#000000" stroke="#000000" points="681.403,-228.4679 670.8084,-228.4032 679.0502,-235.0606 681.403,-228.4679"/>
</g>
<!-- u4&#45;&gt;u11 -->
<g id="edge13" class="edge">
<title>u4&#45;&gt;u11</title>
<path fill="none" stroke="#000000" d="M1134.1265,-371.1376C1126.4526,-340.9651 1110.8698,-279.6962 1101.7513,-243.8442"/>
<polygon fill="#000000" stroke="#000000" points="1105.1108,-242.8532 1099.2538,-234.0244 1098.3268,-244.5786 1105.1108,-242.8532"/>
</g>
<!-- u5&#45;&gt;u11 -->
<g id="edge14" class="edge">
<title>u5&#45;&gt;u11</title>
<path fill="none" stroke="#000000" d="M1607.5519,-374.6343C1597.9822,-370.6739 1587.474,-366.506 1577.6696,-363 1414.2281,-304.5545 1214.6272,-248.5676 1132.611,-226.2087"/>
<polygon fill="#000000" stroke="#000000" points="1133.3128,-222.7725 1122.7448,-223.5268 1131.4766,-229.5274 1133.3128,-222.7725"/>
</g>
<!-- u6&#45;&gt;u11 -->
<g id="edge15" class="edge">
<title>u6&#45;&gt;u11</title>
<path fill="none" stroke="#000000" d="M1318.8842,-371.7796C1272.3507,-339.4491 1172.183,-269.8547 1123.0376,-235.7095"/>
<polygon fill="#000000" stroke="#000000" points="1124.9693,-232.7898 1114.7598,-229.9583 1120.9752,-238.5385 1124.9693,-232.7898"/>
</g>
<!-- u7&#45;&gt;u11 -->
<g id="edge16" class="edge">
<title>u7&#45;&gt;u11</title>
<path fill="none" stroke="#000000" d="M1469.002,-373.95C1390.9053,-340.997 1205.643,-262.8254 1128.89,-230.4393"/>
<polygon fill="#000000" stroke="#000000" points="1130.2283,-227.2053 1119.6542,-226.5423 1127.5069,-233.6546 1130.2283,-227.2053"/>
</g>
<!-- u8 -->
<g id="node13" class="node">
<title>u8</title>
<ellipse fill="#bbbbff" stroke="#000000" stroke-width="0" cx="1050.6696" cy="-389" rx="34.394" ry="18"/>
<text text-anchor="middle" x="1050.6696" y="-385.3" font-family="Times,serif" font-size="14.00" fill="#000000">Export</text>
</g>
<!-- u8&#45;&gt;u14 -->
<g id="edge24" class="edge">
<title>u8&#45;&gt;u14</title>
<path fill="none" stroke="#000000" d="M1030.6917,-374.0858C1025.0276,-370.2055 1018.7455,-366.216 1012.6696,-363 981.8851,-346.7054 771.8725,-266.7331 680.2587,-232.0715"/>
<polygon fill="#000000" stroke="#000000" points="681.3218,-228.7317 670.7302,-228.4684 678.8458,-235.2792 681.3218,-228.7317"/>
</g>
<!-- u8&#45;&gt;u11 -->
<g id="edge17" class="edge">
<title>u8&#45;&gt;u11</title>
<path fill="none" stroke="#000000" d="M1055.2126,-371.1376C1062.8866,-340.9651 1078.4694,-279.6962 1087.5878,-243.8442"/>
<polygon fill="#000000" stroke="#000000" points="1091.0124,-244.5786 1090.0853,-234.0244 1084.2284,-242.8532 1091.0124,-244.5786"/>
</g>
<!-- u9 -->
<g id="node14" class="node">
<title>u9</title>
<ellipse fill="#bbbbff" stroke="#000000" stroke-width="0" cx="1218.6696" cy="-389" rx="27.0966" ry="18"/>
<text text-anchor="middle" x="1218.6696" y="-385.3" font-family="Times,serif" font-size="14.00" fill="#000000">New</text>
</g>
<!-- u9&#45;&gt;u11 -->
<g id="edge18" class="edge">
<title>u9&#45;&gt;u11</title>
<path fill="none" stroke="#000000" d="M1207.004,-372.7246C1185.2725,-342.4057 1138.4631,-277.099 1112.6567,-241.095"/>
<polygon fill="#000000" stroke="#000000" points="1115.2468,-238.7007 1106.5764,-232.6119 1109.5574,-242.7787 1115.2468,-238.7007"/>
</g>
<!-- u0 -->
<g id="node15" class="node">
<title>u0</title>
<ellipse fill="#bbffff" stroke="#000000" stroke-width="0" cx="1308.6696" cy="-683" rx="53.8905" ry="18"/>
<text text-anchor="middle" x="1308.6696" y="-679.3" font-family="Times,serif" font-size="14.00" fill="#000000">GetAppIcon</text>
</g>
<!-- u0&#45;&gt;u10 -->
<g id="edge7" class="edge">
<title>u0&#45;&gt;u10</title>
<path fill="none" stroke="#000000" d="M1283.0112,-667.0713C1218.0128,-626.3927 1048.9018,-518.4126 1004.6696,-469 990.8366,-453.5469 979.6497,-432.9917 972.0177,-416.5867"/>
<polygon fill="#000000" stroke="#000000" points="975.0063,-414.6953 967.7332,-406.9912 968.6145,-417.5494 975.0063,-414.6953"/>
</g>
<!-- u1 -->
<g id="node16" class="node">
<title>u1</title>
<ellipse fill="#bbffff" stroke="#000000" stroke-width="0" cx="1173.6696" cy="-683" rx="63.0888" ry="18"/>
<text text-anchor="middle" x="1173.6696" y="-679.3" font-family="Times,serif" font-size="14.00" fill="#000000">AddCircleIcon</text>
</g>
<!-- u1&#45;&gt;u10 -->
<g id="edge8" class="edge">
<title>u1&#45;&gt;u10</title>
<path fill="none" stroke="#000000" d="M1158.1474,-665.4431C1127.043,-629.8288 1055.6954,-545.9315 1004.6696,-469 993.351,-451.9349 982.2509,-431.7204 974.0312,-415.8809"/>
<polygon fill="#000000" stroke="#000000" points="976.9799,-413.9598 969.3094,-406.6513 970.7481,-417.148 976.9799,-413.9598"/>
</g>
<!-- u2 -->
<g id="node17" class="node">
<title>u2</title>
<ellipse fill="#bbffff" stroke="#000000" stroke-width="0" cx="1037.6696" cy="-683" rx="54.6905" ry="18"/>
<text text-anchor="middle" x="1037.6696" y="-679.3" font-family="Times,serif" font-size="14.00" fill="#000000">SettingsIcon</text>
</g>
<!-- u2&#45;&gt;u10 -->
<g id="edge9" class="edge">
<title>u2&#45;&gt;u10</title>
<path fill="none" stroke="#000000" d="M1032.9688,-665.0516C1020.0009,-615.5378 983.6489,-476.7392 967.9933,-416.9632"/>
<polygon fill="#000000" stroke="#000000" points="971.3261,-415.8741 965.4067,-407.0871 964.5545,-417.6476 971.3261,-415.8741"/>
</g>
<!-- u15 -->
<g id="node18" class="node">
<title>u15</title>
<ellipse fill="#77ff77" stroke="#000000" stroke-width="0" cx="643.6696" cy="-976" rx="53.0913" ry="18"/>
<text text-anchor="middle" x="643.6696" y="-972.3" font-family="Times,serif" font-size="14.00" fill="#000000">UTF8String</text>
</g>
<!-- u15&#45;&gt;u19 -->
<g id="edge33" class="edge">
<title>u15&#45;&gt;u19</title>
<path fill="none" stroke="#000000" d="M643.6696,-957.6715C643.6696,-908.1358 643.6696,-771.303 643.6696,-711.5444"/>
<polygon fill="#000000" stroke="#000000" points="647.1697,-711.3215 643.6696,-701.3215 640.1697,-711.3216 647.1697,-711.3215"/>
</g>
<!-- u17 -->
<g id="node19" class="node">
<title>u17</title>
<ellipse fill="#7777ff" stroke="#000000" stroke-width="0" cx="891.6696" cy="-683" rx="50.8918" ry="18"/>
<text text-anchor="middle" x="891.6696" y="-679.3" font-family="Times,serif" font-size="14.00" fill="#000000">TimeSpace</text>
</g>
<!-- u18&#45;&gt;u14 -->
<g id="edge27" class="edge">
<title>u18&#45;&gt;u14</title>
<path fill="none" stroke="#000000" d="M765.886,-665.1221C748.4293,-628.9307 709.1236,-544.0471 686.6696,-469 662.7553,-389.0725 647.6812,-291.3466 641.2573,-244.1604"/>
<polygon fill="#000000" stroke="#000000" points="644.705,-243.5354 639.9135,-234.086 637.7665,-244.461 644.705,-243.5354"/>
</g>
<!-- u18&#45;&gt;u3 -->
<g id="edge1" class="edge">
<title>u18&#45;&gt;u3</title>
<path fill="none" stroke="#000000" d="M779.5535,-665.0516C793.0266,-615.5378 830.795,-476.7392 847.0606,-416.9632"/>
<polygon fill="#000000" stroke="#000000" points="850.4994,-417.6553 849.7479,-407.0871 843.745,-415.8173 850.4994,-417.6553"/>
</g>
<!-- u18&#45;&gt;u7 -->
<g id="edge6" class="edge">
<title>u18&#45;&gt;u7</title>
<path fill="none" stroke="#000000" d="M798.3745,-667.0749C808.3553,-660.848 820.2797,-654.0134 831.6696,-649 1086.4851,-536.8388 1195.9774,-617.1901 1431.6696,-469 1453.8295,-455.0671 1473.4766,-432.6287 1486.7902,-415.0565"/>
<polygon fill="#000000" stroke="#000000" points="1489.6981,-417.01 1492.8005,-406.8795 1484.0578,-412.8642 1489.6981,-417.01"/>
</g>
<!-- u19&#45;&gt;u14 -->
<g id="edge28" class="edge">
<title>u19&#45;&gt;u14</title>
<path fill="none" stroke="#000000" d="M643.438,-664.9792C642.5231,-593.7672 639.155,-331.6183 638.0347,-244.4188"/>
<polygon fill="#000000" stroke="#000000" points="641.5319,-244.1732 637.9037,-234.219 634.5325,-244.2632 641.5319,-244.1732"/>
</g>
<!-- u19&#45;&gt;u10 -->
<g id="edge11" class="edge">
<title>u19&#45;&gt;u10</title>
<path fill="none" stroke="#000000" d="M670.5091,-666.5772C722.3238,-633.9029 837.7125,-556.3261 913.6696,-469 927.6325,-452.9472 939.6983,-432.1639 948.1078,-415.8043"/>
<polygon fill="#000000" stroke="#000000" points="951.2913,-417.2632 952.6234,-406.7525 945.0275,-414.1384 951.2913,-417.2632"/>
</g>
<!-- u19&#45;&gt;u6 -->
<g id="edge4" class="edge">
<title>u19&#45;&gt;u6</title>
<path fill="none" stroke="#000000" d="M675.3086,-667.3131C688.0219,-661.2608 702.9036,-654.4883 716.6696,-649 950.881,-555.6237 1036.808,-595.9269 1254.6696,-469 1279.7332,-454.3979 1303.9305,-431.928 1320.7515,-414.5155"/>
<polygon fill="#000000" stroke="#000000" points="1323.6091,-416.5877 1327.9377,-406.9175 1318.5234,-411.7777 1323.6091,-416.5877"/>
</g>
<!-- u20 -->
<g id="node22" class="node">
<title>u20</title>
<ellipse fill="#7777ff" stroke="#000000" stroke-width="0" cx="530.6696" cy="-683" rx="30.5947" ry="18"/>
<text text-anchor="middle" x="530.6696" y="-679.3" font-family="Times,serif" font-size="14.00" fill="#000000">Index</text>
</g>
<!-- u21 -->
<g id="node23" class="node">
<title>u21</title>
<ellipse fill="#7777ff" stroke="#000000" stroke-width="0" cx="416.6696" cy="-683" rx="65.7887" ry="18"/>
<text text-anchor="middle" x="416.6696" y="-679.3" font-family="Times,serif" font-size="14.00" fill="#000000">StoredTimeline</text>
</g>
<!-- u22 -->
<g id="node24" class="node">
<title>u22</title>
<ellipse fill="#7777ff" stroke="#000000" stroke-width="0" cx="301.6696" cy="-683" rx="31.3957" ry="18"/>
<text text-anchor="middle" x="301.6696" y="-679.3" font-family="Times,serif" font-size="14.00" fill="#000000">Event</text>
</g>
<!-- u23 -->
<g id="node25" class="node">
<title>u23</title>
<ellipse fill="#7777ff" stroke="#000000" stroke-width="0" cx="204.6696" cy="-683" rx="47.3916" ry="18"/>
<text text-anchor="middle" x="204.6696" y="-679.3" font-family="Times,serif" font-size="14.00" fill="#000000">TimeSpan</text>
</g>
<!-- u24 -->
<g id="node26" class="node">
<title>u24</title>
<ellipse fill="#7777ff" stroke="#000000" stroke-width="0" cx="96.6696" cy="-683" rx="42.7926" ry="18"/>
<text text-anchor="middle" x="96.6696" y="-679.3" font-family="Times,serif" font-size="14.00" fill="#000000">Timeline</text>
</g>
</g>
</svg>
