<?xml version="1.0" encoding="UTF-8" standalone="no"?>
<!DOCTYPE svg PUBLIC "-//W3C//DTD SVG 1.1//EN"
 "http://www.w3.org/Graphics/SVG/1.1/DTD/svg11.dtd">
<!-- Generated by graphviz version 2.40.1 (20161225.0304)
 -->
<!-- Title: Modules Pages: 1 -->
<svg width="864pt" height="540pt"
 viewBox="0.00 0.00 864.00 539.71" xmlns="http://www.w3.org/2000/svg" xmlns:xlink="http://www.w3.org/1999/xlink">
<g id="graph0" class="graph" transform="scale(.6232 .6232) rotate(0) translate(4 862)">
<title>Modules</title>
<polygon fill="#ffffff" stroke="transparent" points="-4,4 -4,-862 1382.3477,-862 1382.3477,4 -4,4"/>
<g id="clust1" class="cluster">
<title>cluster_0</title>
<polygon fill="#000000" fill-opacity="0.058824" stroke="#000000" stroke-opacity="0.058824" points="226.6747,-202.2322 226.6747,-483.2756 1238.6747,-483.2756 1238.6747,-202.2322 226.6747,-202.2322"/>
<text text-anchor="middle" x="732.6747" y="-468.0756" font-family="Times,serif" font-size="14.00" fill="#000000">Components</text>
</g>
<g id="clust2" class="cluster">
<title>cluster_1</title>
<polygon fill="#000000" fill-opacity="0.058824" stroke="#000000" stroke-opacity="0.058824" points="332.6747,-325.6534 332.6747,-437.1785 1026.6747,-437.1785 1026.6747,-325.6534 332.6747,-325.6534"/>
<text text-anchor="middle" x="679.6747" y="-421.9785" font-family="Times,serif" font-size="14.00" fill="#000000">Dialogs</text>
</g>
<g id="clust3" class="cluster">
<title>cluster_2</title>
<polygon fill="#000000" fill-opacity="0.058824" stroke="#000000" stroke-opacity="0.058824" points="112.6747,-95.1681 112.6747,-313.7574 218.6747,-313.7574 218.6747,-95.1681 112.6747,-95.1681"/>
<text text-anchor="middle" x="165.6747" y="-298.5574" font-family="Times,serif" font-size="14.00" fill="#000000">Plumbing</text>
</g>
<g id="clust4" class="cluster">
<title>cluster_3</title>
<polygon fill="#000000" fill-opacity="0.058824" stroke="#000000" stroke-opacity="0.058824" points="72.6747,-676.5858 72.6747,-846.104 210.6747,-846.104 210.6747,-676.5858 72.6747,-676.5858"/>
<text text-anchor="middle" x="141.6747" y="-830.904" font-family="Times,serif" font-size="14.00" fill="#000000">Test</text>
</g>
<g id="clust5" class="cluster">
<title>cluster_4</title>
<polygon fill="#000000" fill-opacity="0.058824" stroke="#000000" stroke-opacity="0.058824" points="80.6747,-688.4818 80.6747,-800.0069 202.6747,-800.0069 202.6747,-688.4818 80.6747,-688.4818"/>
<text text-anchor="middle" x="141.6747" y="-784.8069" font-family="Times,serif" font-size="14.00" fill="#000000">QuickCheck</text>
</g>
<g id="clust6" class="cluster">
<title>cluster_5</title>
<polygon fill="#000000" fill-opacity="0.058824" stroke="#000000" stroke-opacity="0.058824" points="61.6747,-495.1716 61.6747,-664.6898 982.6747,-664.6898 982.6747,-495.1716 61.6747,-495.1716"/>
<text text-anchor="middle" x="522.1747" y="-649.4898" font-family="Times,serif" font-size="14.00" fill="#000000">Timeline</text>
</g>
<g id="clust7" class="cluster">
<title>cluster_6</title>
<polygon fill="#000000" fill-opacity="0.058824" stroke="#000000" stroke-opacity="0.058824" points="69.6747,-507.0676 69.6747,-618.5927 974.6747,-618.5927 974.6747,-507.0676 69.6747,-507.0676"/>
<text text-anchor="middle" x="522.1747" y="-603.3927" font-family="Times,serif" font-size="14.00" fill="#000000">Data</text>
</g>
<!-- u1 -->
<g id="node1" class="node">
<title>u1</title>
<ellipse fill="#bbffbb" stroke="#000000" stroke-width="0" cx="1294.6747" cy="-364" rx="46.2923" ry="18"/>
<text text-anchor="middle" x="1294.6747" y="-360.3" font-family="Times,serif" font-size="14.00" fill="#000000">WithRoot</text>
</g>
<!-- u4 -->
<g id="node4" class="node">
<title>u4</title>
<ellipse fill="#ffffbb" stroke="#000000" stroke-width="0" cx="756.6747" cy="-241" rx="30.5947" ry="18"/>
<text text-anchor="middle" x="756.6747" y="-237.3" font-family="Times,serif" font-size="14.00" fill="#000000">Index</text>
</g>
<!-- u1&#45;&gt;u4 -->
<g id="edge17" class="edge">
<title>u1&#45;&gt;u4</title>
<path fill="none" stroke="#000000" d="M1268.276,-349.0976C1260.2457,-345.0346 1251.2677,-340.9464 1242.6747,-338 1082.5104,-283.0818 881.3975,-255.2768 796.9375,-245.3529"/>
<polygon fill="#000000" stroke="#000000" points="797.3251,-241.8745 786.9895,-244.2038 796.5218,-248.8283 797.3251,-241.8745"/>
</g>
<!-- u2 -->
<g id="node2" class="node">
<title>u2</title>
<ellipse fill="#bbffbb" stroke="#000000" stroke-width="0" cx="331.6747" cy="-27" rx="29.795" ry="18"/>
<text text-anchor="middle" x="331.6747" y="-23.3" font-family="Times,serif" font-size="14.00" fill="#000000">Main</text>
</g>
<!-- u14 -->
<g id="node3" class="node">
<title>u14</title>
<ellipse fill="#bbffbb" stroke="#000000" stroke-width="0" cx="1000.6747" cy="-727" rx="38.9931" ry="18"/>
<text text-anchor="middle" x="1000.6747" y="-723.3" font-family="Times,serif" font-size="14.00" fill="#000000">Settings</text>
</g>
<!-- u14&#45;&gt;u4 -->
<g id="edge27" class="edge">
<title>u14&#45;&gt;u4</title>
<path fill="none" stroke="#000000" d="M1028.855,-714.2953C1132.2503,-666.0461 1478.1912,-489.2465 1349.6747,-338 1313.6206,-295.5692 925.2614,-256.4458 797.3018,-244.6246"/>
<polygon fill="#000000" stroke="#000000" points="797.4189,-241.1207 787.1411,-243.6929 796.7797,-248.0915 797.4189,-241.1207"/>
</g>
<!-- u5 -->
<g id="node5" class="node">
<title>u5</title>
<ellipse fill="#ffffbb" stroke="#000000" stroke-width="0" cx="1074.6747" cy="-364" rx="37.8943" ry="18"/>
<text text-anchor="middle" x="1074.6747" y="-360.3" font-family="Times,serif" font-size="14.00" fill="#000000">TopBar</text>
</g>
<!-- u14&#45;&gt;u5 -->
<g id="edge28" class="edge">
<title>u14&#45;&gt;u5</title>
<path fill="none" stroke="#000000" d="M1021.4775,-711.5145C1043.4802,-693.7036 1076.8806,-662.2143 1090.6747,-626 1121.417,-545.291 1097.8726,-440.4898 1083.571,-391.5012"/>
<polygon fill="#000000" stroke="#000000" points="1086.9209,-390.4868 1080.6823,-381.9234 1080.219,-392.5081 1086.9209,-390.4868"/>
</g>
<!-- u9 -->
<g id="node11" class="node">
<title>u9</title>
<ellipse fill="#bbbbff" stroke="#000000" stroke-width="0" cx="756.6747" cy="-364" rx="63.8893" ry="18"/>
<text text-anchor="middle" x="756.6747" y="-360.3" font-family="Times,serif" font-size="14.00" fill="#000000">TimeScaleEdit</text>
</g>
<!-- u14&#45;&gt;u9 -->
<g id="edge30" class="edge">
<title>u14&#45;&gt;u9</title>
<path fill="none" stroke="#000000" d="M1008.6601,-709.1474C1025.0229,-669.5826 1057.3802,-573.1961 1014.6747,-512 964.543,-440.1621 902.3838,-492.8597 829.6747,-444 808.0825,-429.4903 788.5064,-407.2963 775.0744,-389.9625"/>
<polygon fill="#000000" stroke="#000000" points="777.8082,-387.7747 768.9921,-381.8986 772.2196,-391.9899 777.8082,-387.7747"/>
</g>
<!-- u10 -->
<g id="node12" class="node">
<title>u10</title>
<ellipse fill="#bbbbff" stroke="#000000" stroke-width="0" cx="595.6747" cy="-364" rx="79.0865" ry="18"/>
<text text-anchor="middle" x="595.6747" y="-360.3" font-family="Times,serif" font-size="14.00" fill="#000000">TimelineNameEdit</text>
</g>
<!-- u14&#45;&gt;u10 -->
<g id="edge32" class="edge">
<title>u14&#45;&gt;u10</title>
<path fill="none" stroke="#000000" d="M1005.0403,-709.0191C1013.7545,-668.339 1028.4559,-568.404 978.6747,-512 889.6411,-411.1213 802.8833,-506.3925 683.6747,-444 657.817,-430.4663 633.6852,-407.4881 617.2568,-389.621"/>
<polygon fill="#000000" stroke="#000000" points="619.5514,-386.937 610.2721,-381.8238 614.3375,-391.6076 619.5514,-386.937"/>
</g>
<!-- u11 -->
<g id="node13" class="node">
<title>u11</title>
<ellipse fill="#bbbbff" stroke="#000000" stroke-width="0" cx="892.6747" cy="-364" rx="53.8905" ry="18"/>
<text text-anchor="middle" x="892.6747" y="-360.3" font-family="Times,serif" font-size="14.00" fill="#000000">SettingsEdit</text>
</g>
<!-- u14&#45;&gt;u11 -->
<g id="edge34" class="edge">
<title>u14&#45;&gt;u11</title>
<path fill="none" stroke="#000000" d="M1012.6908,-709.5677C1037.2143,-671.6434 1087.8548,-579.6258 1052.6747,-512 1028.3769,-465.2928 993.9249,-480.1784 955.6747,-444 938.5526,-427.8053 922.1788,-406.7828 910.4171,-390.3524"/>
<polygon fill="#000000" stroke="#000000" points="912.9926,-387.9297 904.3818,-381.7567 907.2637,-391.9521 912.9926,-387.9297"/>
</g>
<!-- u0 -->
<g id="node14" class="node">
<title>u0</title>
<ellipse fill="#bbffbb" stroke="#000000" stroke-width="2" cx="165.6747" cy="-134" rx="45.4919" ry="18"/>
<text text-anchor="middle" x="165.6747" y="-130.3" font-family="Times,serif" font-size="14.00" fill="#000000">Plumbing</text>
</g>
<!-- u14&#45;&gt;u0 -->
<g id="edge5" class="edge">
<title>u14&#45;&gt;u0</title>
<path fill="none" stroke="#000000" d="M961.5607,-725.9629C787.7708,-720.96 91.3227,-696.5968 27.6747,-626 -33.5368,-558.1056 17.4005,-351.462 88.6747,-215 100.4082,-192.5351 120.2152,-171.9067 136.8017,-157.0896"/>
<polygon fill="#000000" stroke="#000000" points="139.3713,-159.4942 144.636,-150.3 134.7868,-154.2043 139.3713,-159.4942"/>
</g>
<!-- u3 -->
<g id="node15" class="node">
<title>u3</title>
<ellipse fill="#ffbbbb" stroke="#000000" stroke-width="0" cx="179.6747" cy="-241" rx="31.3957" ry="18"/>
<text text-anchor="middle" x="179.6747" y="-237.3" font-family="Times,serif" font-size="14.00" fill="#000000">Logic</text>
</g>
<!-- u14&#45;&gt;u3 -->
<g id="edge13" class="edge">
<title>u14&#45;&gt;u3</title>
<path fill="none" stroke="#000000" d="M961.6723,-725.7932C792.3244,-720.1603 126.5518,-693.8073 65.6747,-626 -31.2364,-518.0566 104.7384,-331.2016 159.016,-265.0555"/>
<polygon fill="#000000" stroke="#000000" points="161.8065,-267.1738 165.5074,-257.2464 156.4234,-262.6991 161.8065,-267.1738"/>
</g>
<!-- u22 -->
<g id="node23" class="node">
<title>u22</title>
<ellipse fill="#ffff77" stroke="#000000" stroke-width="0" cx="141.6747" cy="-546" rx="64.189" ry="18"/>
<text text-anchor="middle" x="141.6747" y="-542.3" font-family="Times,serif" font-size="14.00" fill="#000000">TimelineName</text>
</g>
<!-- u14&#45;&gt;u22 -->
<g id="edge36" class="edge">
<title>u14&#45;&gt;u22</title>
<path fill="none" stroke="#000000" d="M961.6973,-725.5171C821.9661,-719.665 347.4231,-695.0188 214.6747,-626 191.1634,-613.7759 171.4141,-590.7642 158.4107,-572.5478"/>
<polygon fill="#000000" stroke="#000000" points="161.1278,-570.3215 152.5822,-564.0587 155.357,-574.2837 161.1278,-570.3215"/>
</g>
<!-- u23 -->
<g id="node24" class="node">
<title>u23</title>
<ellipse fill="#ffff77" stroke="#000000" stroke-width="0" cx="272.6747" cy="-546" rx="48.9926" ry="18"/>
<text text-anchor="middle" x="272.6747" y="-542.3" font-family="Times,serif" font-size="14.00" fill="#000000">TimeScale</text>
</g>
<!-- u14&#45;&gt;u23 -->
<g id="edge38" class="edge">
<title>u14&#45;&gt;u23</title>
<path fill="none" stroke="#000000" d="M961.6172,-725.0433C835.0744,-718.1058 438.332,-691.4959 330.6747,-626 310.2069,-613.5479 294.8096,-590.8734 285.042,-572.8356"/>
<polygon fill="#000000" stroke="#000000" points="288.1354,-571.1975 280.4503,-563.9044 281.9099,-574.3982 288.1354,-571.1975"/>
</g>
<!-- u4&#45;&gt;u2 -->
<g id="edge9" class="edge">
<title>u4&#45;&gt;u2</title>
<path fill="none" stroke="#000000" d="M733.2195,-229.1896C661.7333,-193.1942 446.4627,-84.7991 364.157,-43.3558"/>
<polygon fill="#000000" stroke="#000000" points="365.3032,-40.0143 354.7974,-38.643 362.155,-46.2664 365.3032,-40.0143"/>
</g>
<!-- u5&#45;&gt;u4 -->
<g id="edge18" class="edge">
<title>u5&#45;&gt;u4</title>
<path fill="none" stroke="#000000" d="M1051.838,-349.3739C1045.1591,-345.4093 1037.7492,-341.3044 1030.6747,-338 948.8504,-299.7804 847.5211,-267.5925 793.9473,-251.6816"/>
<polygon fill="#000000" stroke="#000000" points="794.7836,-248.2793 784.2021,-248.8108 792.8055,-254.994 794.7836,-248.2793"/>
</g>
<!-- u12 -->
<g id="node6" class="node">
<title>u12</title>
<ellipse fill="#ffffbb" stroke="#000000" stroke-width="0" cx="278.6747" cy="-364" rx="43.5923" ry="18"/>
<text text-anchor="middle" x="278.6747" y="-360.3" font-family="Times,serif" font-size="14.00" fill="#000000">Snackbar</text>
</g>
<!-- u12&#45;&gt;u4 -->
<g id="edge25" class="edge">
<title>u12&#45;&gt;u4</title>
<path fill="none" stroke="#000000" d="M304.0509,-349.2022C311.7722,-345.1421 320.4066,-341.0293 328.6747,-338 466.6929,-287.4325 639.7629,-257.992 716.6677,-246.5544"/>
<polygon fill="#000000" stroke="#000000" points="717.4806,-249.9728 726.8674,-245.0597 716.4656,-243.0468 717.4806,-249.9728"/>
</g>
<!-- u12&#45;&gt;u0 -->
<g id="edge4" class="edge">
<title>u12&#45;&gt;u0</title>
<path fill="none" stroke="#000000" d="M272.9359,-346.0326C263.5159,-317.482 243.4287,-260.3482 219.6747,-215 209.5791,-195.7266 195.9816,-175.3542 184.9573,-159.8618"/>
<polygon fill="#000000" stroke="#000000" points="187.5018,-157.407 178.8095,-151.3493 181.8269,-161.5054 187.5018,-157.407"/>
</g>
<!-- u12&#45;&gt;u3 -->
<g id="edge12" class="edge">
<title>u12&#45;&gt;u3</title>
<path fill="none" stroke="#000000" d="M264.9092,-346.8974C247.8948,-325.7582 218.8194,-289.6342 199.4269,-265.5406"/>
<polygon fill="#000000" stroke="#000000" points="202.0037,-263.16 193.007,-257.5644 196.5506,-267.5491 202.0037,-263.16"/>
</g>
<!-- u13 -->
<g id="node7" class="node">
<title>u13</title>
<ellipse fill="#ffffbb" stroke="#000000" stroke-width="0" cx="1180.6747" cy="-364" rx="50.0912" ry="18"/>
<text text-anchor="middle" x="1180.6747" y="-360.3" font-family="Times,serif" font-size="14.00" fill="#000000">BottomBar</text>
</g>
<!-- u13&#45;&gt;u4 -->
<g id="edge26" class="edge">
<title>u13&#45;&gt;u4</title>
<path fill="none" stroke="#000000" d="M1150.4151,-349.5879C1141.2952,-345.5386 1131.1809,-341.335 1121.6747,-338 1005.392,-297.2048 863.1174,-264.0278 795.691,-249.2714"/>
<polygon fill="#000000" stroke="#000000" points="796.0428,-245.7662 785.5276,-247.0629 794.5563,-252.6065 796.0428,-245.7662"/>
</g>
<!-- u6 -->
<g id="node8" class="node">
<title>u6</title>
<ellipse fill="#bbbbff" stroke="#000000" stroke-width="0" cx="991.6747" cy="-364" rx="27.0966" ry="18"/>
<text text-anchor="middle" x="991.6747" y="-360.3" font-family="Times,serif" font-size="14.00" fill="#000000">New</text>
</g>
<!-- u6&#45;&gt;u4 -->
<g id="edge19" class="edge">
<title>u6&#45;&gt;u4</title>
<path fill="none" stroke="#000000" d="M973.7735,-350.1464C968.121,-346.0264 961.7601,-341.6437 955.6747,-338 900.0792,-304.711 831.3988,-273.1968 790.9826,-255.5585"/>
<polygon fill="#000000" stroke="#000000" points="792.1521,-252.2508 781.585,-251.4853 789.3683,-258.6735 792.1521,-252.2508"/>
</g>
<!-- u7 -->
<g id="node9" class="node">
<title>u7</title>
<ellipse fill="#bbbbff" stroke="#000000" stroke-width="0" cx="463.6747" cy="-364" rx="34.394" ry="18"/>
<text text-anchor="middle" x="463.6747" y="-360.3" font-family="Times,serif" font-size="14.00" fill="#000000">Export</text>
</g>
<!-- u7&#45;&gt;u4 -->
<g id="edge20" class="edge">
<title>u7&#45;&gt;u4</title>
<path fill="none" stroke="#000000" d="M485.6728,-350.0552C492.5863,-345.9315 500.3336,-341.5697 507.6747,-338 581.0574,-302.3174 671.1408,-269.8791 720.3381,-253.0703"/>
<polygon fill="#000000" stroke="#000000" points="721.5609,-256.3514 729.9053,-249.8228 719.3109,-249.7229 721.5609,-256.3514"/>
</g>
<!-- u7&#45;&gt;u0 -->
<g id="edge2" class="edge">
<title>u7&#45;&gt;u0</title>
<path fill="none" stroke="#000000" d="M455.9591,-346.3804C441.715,-315.7162 408.5051,-252.2582 362.6747,-215 319.1093,-179.5831 257.9261,-157.6851 215.3464,-145.7281"/>
<polygon fill="#000000" stroke="#000000" points="216.0513,-142.2926 205.483,-143.0421 214.2121,-149.0467 216.0513,-142.2926"/>
</g>
<!-- u7&#45;&gt;u3 -->
<g id="edge10" class="edge">
<title>u7&#45;&gt;u3</title>
<path fill="none" stroke="#000000" d="M441.6487,-350.1122C434.7342,-345.9908 426.9932,-341.6159 419.6747,-338 349.521,-303.3384 263.7748,-270.9552 216.0983,-253.7851"/>
<polygon fill="#000000" stroke="#000000" points="217.1164,-250.4321 206.5218,-250.3568 214.757,-257.0225 217.1164,-250.4321"/>
</g>
<!-- u8 -->
<g id="node10" class="node">
<title>u8</title>
<ellipse fill="#bbbbff" stroke="#000000" stroke-width="0" cx="375.6747" cy="-364" rx="35.194" ry="18"/>
<text text-anchor="middle" x="375.6747" y="-360.3" font-family="Times,serif" font-size="14.00" fill="#000000">Import</text>
</g>
<!-- u8&#45;&gt;u4 -->
<g id="edge21" class="edge">
<title>u8&#45;&gt;u4</title>
<path fill="none" stroke="#000000" d="M398.0132,-349.6635C405.0773,-345.5239 413.0371,-341.2515 420.6747,-338 524.1291,-293.9569 653.7371,-262.8745 717.5211,-249.0494"/>
<polygon fill="#000000" stroke="#000000" points="718.501,-252.419 727.5459,-246.9016 717.0345,-245.5743 718.501,-252.419"/>
</g>
<!-- u8&#45;&gt;u0 -->
<g id="edge3" class="edge">
<title>u8&#45;&gt;u0</title>
<path fill="none" stroke="#000000" d="M375.0567,-345.7537C373.1048,-315.2609 365.1123,-253.5053 332.6747,-215 302.3729,-179.03 252.3381,-157.7459 214.9216,-146.0942"/>
<polygon fill="#000000" stroke="#000000" points="215.7995,-142.7037 205.2162,-143.1977 213.7976,-149.4114 215.7995,-142.7037"/>
</g>
<!-- u8&#45;&gt;u3 -->
<g id="edge11" class="edge">
<title>u8&#45;&gt;u3</title>
<path fill="none" stroke="#000000" d="M354.306,-349.5619C348.6032,-345.7615 342.4269,-341.6928 336.6747,-338 293.1172,-310.037 242.0108,-278.7373 210.2296,-259.4484"/>
<polygon fill="#000000" stroke="#000000" points="211.7748,-256.2923 201.4088,-254.1021 208.1465,-262.2786 211.7748,-256.2923"/>
</g>
<!-- u9&#45;&gt;u4 -->
<g id="edge22" class="edge">
<title>u9&#45;&gt;u4</title>
<path fill="none" stroke="#000000" d="M756.6747,-345.8509C756.6747,-325.6843 756.6747,-292.8643 756.6747,-269.3133"/>
<polygon fill="#000000" stroke="#000000" points="760.1748,-269.2235 756.6747,-259.2235 753.1748,-269.2236 760.1748,-269.2235"/>
</g>
<!-- u10&#45;&gt;u4 -->
<g id="edge23" class="edge">
<title>u10&#45;&gt;u4</title>
<path fill="none" stroke="#000000" d="M618.4006,-346.638C647.5573,-324.363 698.0858,-285.7605 729.3196,-261.8987"/>
<polygon fill="#000000" stroke="#000000" points="731.762,-264.4372 737.5836,-255.5851 727.5124,-258.8748 731.762,-264.4372"/>
</g>
<!-- u11&#45;&gt;u4 -->
<g id="edge24" class="edge">
<title>u11&#45;&gt;u4</title>
<path fill="none" stroke="#000000" d="M873.7645,-346.8974C849.6881,-325.1224 808.0313,-287.4475 781.442,-263.3998"/>
<polygon fill="#000000" stroke="#000000" points="783.4744,-260.5188 773.71,-256.4069 778.779,-265.7105 783.4744,-260.5188"/>
</g>
<!-- u0&#45;&gt;u2 -->
<g id="edge8" class="edge">
<title>u0&#45;&gt;u2</title>
<path fill="none" stroke="#000000" d="M189.8126,-118.4413C219.7311,-99.1565 270.6725,-66.3207 302.6794,-45.6898"/>
<polygon fill="#000000" stroke="#000000" points="304.6627,-48.5755 311.1716,-40.2159 300.8702,-42.6919 304.6627,-48.5755"/>
</g>
<!-- u0&#45;&gt;u4 -->
<g id="edge16" class="edge">
<title>u0&#45;&gt;u4</title>
<path fill="none" stroke="#000000" d="M207.2915,-141.5347C316.5883,-161.3228 610.6836,-214.5684 717.3485,-233.88"/>
<polygon fill="#000000" stroke="#000000" points="716.9034,-237.3563 727.367,-235.6939 718.1505,-230.4682 716.9034,-237.3563"/>
</g>
<!-- u3&#45;&gt;u0 -->
<g id="edge1" class="edge">
<title>u3&#45;&gt;u0</title>
<path fill="none" stroke="#000000" d="M177.2998,-222.8489C175.1277,-206.2473 171.88,-181.4259 169.369,-162.2347"/>
<polygon fill="#000000" stroke="#000000" points="172.8292,-161.7015 168.0613,-152.2401 165.8883,-162.6097 172.8292,-161.7015"/>
</g>
<!-- u15 -->
<g id="node16" class="node">
<title>u15</title>
<ellipse fill="#ffbbff" stroke="#000000" stroke-width="0" cx="141.6747" cy="-727" rx="53.0913" ry="18"/>
<text text-anchor="middle" x="141.6747" y="-723.3" font-family="Times,serif" font-size="14.00" fill="#000000">UTF8String</text>
</g>
<!-- u15&#45;&gt;u22 -->
<g id="edge37" class="edge">
<title>u15&#45;&gt;u22</title>
<path fill="none" stroke="#000000" d="M141.6747,-708.9833C141.6747,-677.4877 141.6747,-612.1909 141.6747,-574.5061"/>
<polygon fill="#000000" stroke="#000000" points="145.1748,-574.2124 141.6747,-564.2125 138.1748,-574.2125 145.1748,-574.2124"/>
</g>
<!-- u16 -->
<g id="node17" class="node">
<title>u16</title>
<ellipse fill="#ffff77" stroke="#000000" stroke-width="0" cx="935.6747" cy="-546" rx="31.3957" ry="18"/>
<text text-anchor="middle" x="935.6747" y="-542.3" font-family="Times,serif" font-size="14.00" fill="#000000">Event</text>
</g>
<!-- u17 -->
<g id="node18" class="node">
<title>u17</title>
<ellipse fill="#ffff77" stroke="#000000" stroke-width="0" cx="855.6747" cy="-546" rx="30.5947" ry="18"/>
<text text-anchor="middle" x="855.6747" y="-542.3" font-family="Times,serif" font-size="14.00" fill="#000000">Index</text>
</g>
<!-- u18 -->
<g id="node19" class="node">
<title>u18</title>
<ellipse fill="#ffff77" stroke="#000000" stroke-width="0" cx="741.6747" cy="-546" rx="65.7887" ry="18"/>
<text text-anchor="middle" x="741.6747" y="-542.3" font-family="Times,serif" font-size="14.00" fill="#000000">StoredTimeline</text>
</g>
<!-- u19 -->
<g id="node20" class="node">
<title>u19</title>
<ellipse fill="#ffff77" stroke="#000000" stroke-width="0" cx="610.6747" cy="-546" rx="47.3916" ry="18"/>
<text text-anchor="middle" x="610.6747" y="-542.3" font-family="Times,serif" font-size="14.00" fill="#000000">TimeSpan</text>
</g>
<!-- u20 -->
<g id="node21" class="node">
<title>u20</title>
<ellipse fill="#ffff77" stroke="#000000" stroke-width="0" cx="494.6747" cy="-546" rx="50.8918" ry="18"/>
<text text-anchor="middle" x="494.6747" y="-542.3" font-family="Times,serif" font-size="14.00" fill="#000000">TimeSpace</text>
</g>
<!-- u21 -->
<g id="node22" class="node">
<title>u21</title>
<ellipse fill="#ffff77" stroke="#000000" stroke-width="0" cx="382.6747" cy="-546" rx="42.7926" ry="18"/>
<text text-anchor="middle" x="382.6747" y="-542.3" font-family="Times,serif" font-size="14.00" fill="#000000">Timeline</text>
</g>
<!-- u22&#45;&gt;u5 -->
<g id="edge29" class="edge">
<title>u22&#45;&gt;u5</title>
<path fill="none" stroke="#000000" d="M170.2681,-529.8202C183.3927,-523.1536 199.4054,-516.0539 214.6747,-512 390.5438,-465.3075 878.0279,-543.0407 1030.6747,-444 1049.0749,-432.0616 1060.4389,-409.6556 1066.9973,-391.5862"/>
<polygon fill="#000000" stroke="#000000" points="1070.3215,-392.6814 1070.1606,-382.0878 1063.6802,-390.4696 1070.3215,-392.6814"/>
</g>
<!-- u22&#45;&gt;u10 -->
<g id="edge33" class="edge">
<title>u22&#45;&gt;u10</title>
<path fill="none" stroke="#000000" d="M172.3484,-529.9875C185.1791,-523.7472 200.4017,-516.9262 214.6747,-512 340.6339,-468.5266 388.5129,-505.5909 506.6747,-444 532.7167,-430.4258 557.1341,-407.4518 573.7815,-389.5966"/>
<polygon fill="#000000" stroke="#000000" points="576.7266,-391.56 580.8614,-381.8053 571.546,-386.8524 576.7266,-391.56"/>
</g>
<!-- u22&#45;&gt;u0 -->
<g id="edge6" class="edge">
<title>u22&#45;&gt;u0</title>
<path fill="none" stroke="#000000" d="M134.6545,-527.8746C116.0494,-477.0774 69.374,-329.5636 106.6747,-215 113.5825,-193.7839 128.3767,-173.4961 141.4218,-158.5314"/>
<polygon fill="#000000" stroke="#000000" points="144.3107,-160.5553 148.4279,-150.7931 139.1216,-155.8571 144.3107,-160.5553"/>
</g>
<!-- u22&#45;&gt;u3 -->
<g id="edge14" class="edge">
<title>u22&#45;&gt;u3</title>
<path fill="none" stroke="#000000" d="M143.938,-527.8343C150.3139,-476.6597 168.4588,-331.0224 176.1549,-269.2514"/>
<polygon fill="#000000" stroke="#000000" points="179.66,-269.4266 177.4233,-259.0706 172.7137,-268.5611 179.66,-269.4266"/>
</g>
<!-- u23&#45;&gt;u13 -->
<g id="edge35" class="edge">
<title>u23&#45;&gt;u13</title>
<path fill="none" stroke="#000000" d="M294.9837,-529.7681C305.3324,-523.0913 318.1059,-515.9982 330.6747,-512 498.7993,-458.5182 967.7472,-530.2119 1121.6747,-444 1142.8307,-432.151 1158.5369,-409.2092 1168.4025,-390.9208"/>
<polygon fill="#000000" stroke="#000000" points="1171.5962,-392.3625 1173.0271,-381.8647 1165.362,-389.1789 1171.5962,-392.3625"/>
</g>
<!-- u23&#45;&gt;u9 -->
<g id="edge31" class="edge">
<title>u23&#45;&gt;u9</title>
<path fill="none" stroke="#000000" d="M295.7491,-530.0289C306.036,-523.5659 318.5505,-516.5672 330.6747,-512 480.1914,-455.6772 544.2889,-522.0968 683.6747,-444 706.7927,-431.0472 726.5817,-408.1091 739.7003,-390.1061"/>
<polygon fill="#000000" stroke="#000000" points="742.7011,-391.9235 745.5899,-381.7301 736.9749,-387.8972 742.7011,-391.9235"/>
</g>
<!-- u23&#45;&gt;u0 -->
<g id="edge7" class="edge">
<title>u23&#45;&gt;u0</title>
<path fill="none" stroke="#000000" d="M255.7511,-528.9796C237.4814,-509.7827 208.5978,-476.9281 190.6747,-444 156.2053,-380.6732 151.1545,-361.1803 139.6747,-290 134.3674,-257.0919 134.5189,-247.9322 139.6747,-215 142.5419,-196.6866 148.8471,-176.8609 154.53,-161.4076"/>
<polygon fill="#000000" stroke="#000000" points="157.8459,-162.5347 158.1323,-151.9437 151.3038,-160.0445 157.8459,-162.5347"/>
</g>
<!-- u23&#45;&gt;u3 -->
<g id="edge15" class="edge">
<title>u23&#45;&gt;u3</title>
<path fill="none" stroke="#000000" d="M262.2361,-528.158C250.9916,-508.2419 233.2887,-474.7608 222.6747,-444 201.7394,-383.3263 189.117,-308.7808 183.3767,-269.0596"/>
<polygon fill="#000000" stroke="#000000" points="186.8277,-268.4656 181.9703,-259.0499 179.8958,-269.4396 186.8277,-268.4656"/>
</g>
</g>
</svg>
