<?xml version="1.0" encoding="UTF-8" standalone="no"?>
<!DOCTYPE svg PUBLIC "-//W3C//DTD SVG 1.1//EN"
 "http://www.w3.org/Graphics/SVG/1.1/DTD/svg11.dtd">
<!-- Generated by graphviz version 2.40.1 (20161225.0304)
 -->
<!-- Title: Modules Pages: 1 -->
<svg width="2657pt" height="332pt"
 viewBox="0.00 0.00 2657.18 332.00" xmlns="http://www.w3.org/2000/svg" xmlns:xlink="http://www.w3.org/1999/xlink">
<g id="graph0" class="graph" transform="scale(1 1) rotate(0) translate(4 328)">
<title>Modules</title>
<polygon fill="#ffffff" stroke="transparent" points="-4,4 -4,-328 2653.1811,-328 2653.1811,4 -4,4"/>
<!-- compBottomBar -->
<g id="node1" class="node">
<title>compBottomBar</title>
<ellipse fill="none" stroke="#000000" cx="1007.44" cy="-162" rx="101.2821" ry="18"/>
<text text-anchor="middle" x="1007.44" y="-158.3" font-family="Times,serif" font-size="14.00" fill="#000000">Componenets.BottomBar</text>
</g>
<!-- compIndex -->
<g id="node8" class="node">
<title>compIndex</title>
<ellipse fill="none" stroke="#000000" cx="869.44" cy="-90" rx="77.9862" ry="18"/>
<text text-anchor="middle" x="869.44" y="-86.3" font-family="Times,serif" font-size="14.00" fill="#000000">Components.Index</text>
</g>
<!-- compBottomBar&#45;&gt;compIndex -->
<g id="edge11" class="edge">
<title>compBottomBar&#45;&gt;compIndex</title>
<path fill="none" stroke="#000000" d="M974.7359,-144.937C955.521,-134.9118 931.0564,-122.1477 910.5458,-111.4465"/>
<polygon fill="#000000" stroke="#000000" points="911.9181,-108.2148 901.4333,-106.6921 908.6801,-114.4209 911.9181,-108.2148"/>
</g>
<!-- compDialExport -->
<g id="node2" class="node">
<title>compDialExport</title>
<ellipse fill="none" stroke="#000000" cx="592.44" cy="-234" rx="111.5806" ry="18"/>
<text text-anchor="middle" x="592.44" y="-230.3" font-family="Times,serif" font-size="14.00" fill="#000000">Components.Dialogs.Export</text>
</g>
<!-- compDialExport&#45;&gt;compIndex -->
<g id="edge13" class="edge">
<title>compDialExport&#45;&gt;compIndex</title>
<path fill="none" stroke="#000000" d="M578.9361,-216.1043C565.8027,-196.3566 550.1613,-164.6424 567.44,-144 594.4466,-111.7361 703.1458,-98.7283 782.4165,-93.4973"/>
<polygon fill="#000000" stroke="#000000" points="782.6571,-96.9892 792.4175,-92.8679 782.2174,-90.003 782.6571,-96.9892"/>
</g>
<!-- plumbing -->
<g id="node12" class="node">
<title>plumbing</title>
<ellipse fill="none" stroke="#000000" cx="475.44" cy="-162" rx="45.4919" ry="18"/>
<text text-anchor="middle" x="475.44" y="-158.3" font-family="Times,serif" font-size="14.00" fill="#000000">Plumbing</text>
</g>
<!-- compDialExport&#45;&gt;plumbing -->
<g id="edge4" class="edge">
<title>compDialExport&#45;&gt;plumbing</title>
<path fill="none" stroke="#000000" d="M564.1176,-216.5708C547.5314,-206.3639 526.4883,-193.4143 509.0637,-182.6915"/>
<polygon fill="#000000" stroke="#000000" points="510.6753,-179.5736 500.3243,-177.3134 507.0065,-185.5352 510.6753,-179.5736"/>
</g>
<!-- compDialImport -->
<g id="node3" class="node">
<title>compDialImport</title>
<ellipse fill="none" stroke="#000000" cx="112.44" cy="-234" rx="112.3801" ry="18"/>
<text text-anchor="middle" x="112.44" y="-230.3" font-family="Times,serif" font-size="14.00" fill="#000000">Components.Dialogs.Import</text>
</g>
<!-- compDialImport&#45;&gt;compIndex -->
<g id="edge12" class="edge">
<title>compDialImport&#45;&gt;compIndex</title>
<path fill="none" stroke="#000000" d="M152.1558,-217.0994C202.4634,-196.4324 292.2747,-161.9885 372.44,-144 513.8787,-112.2623 682.3039,-98.9521 782.3038,-93.5337"/>
<polygon fill="#000000" stroke="#000000" points="782.5592,-97.0252 792.3609,-93.0029 782.1903,-90.0349 782.5592,-97.0252"/>
</g>
<!-- compDialImport&#45;&gt;plumbing -->
<g id="edge3" class="edge">
<title>compDialImport&#45;&gt;plumbing</title>
<path fill="none" stroke="#000000" d="M183.2918,-219.9468C254.239,-205.8746 361.6615,-184.5676 424.5658,-172.0908"/>
<polygon fill="#000000" stroke="#000000" points="425.5156,-175.4706 434.6436,-170.0919 424.1537,-168.6044 425.5156,-175.4706"/>
</g>
<!-- compDialNew -->
<g id="node4" class="node">
<title>compDialNew</title>
<ellipse fill="none" stroke="#000000" cx="1446.44" cy="-162" rx="104.7816" ry="18"/>
<text text-anchor="middle" x="1446.44" y="-158.3" font-family="Times,serif" font-size="14.00" fill="#000000">Components.Dialogs.New</text>
</g>
<!-- compDialNew&#45;&gt;compIndex -->
<g id="edge14" class="edge">
<title>compDialNew&#45;&gt;compIndex</title>
<path fill="none" stroke="#000000" d="M1370.8301,-149.5049C1358.3523,-147.5726 1345.5429,-145.6675 1333.44,-144 1199.6669,-125.5696 1043.6171,-108.2696 950.8616,-98.4266"/>
<polygon fill="#000000" stroke="#000000" points="951.0144,-94.9233 940.7015,-97.3514 950.2776,-101.8844 951.0144,-94.9233"/>
</g>
<!-- compDialSettingsEdit -->
<g id="node5" class="node">
<title>compDialSettingsEdit</title>
<ellipse fill="none" stroke="#000000" cx="1661.44" cy="-234" rx="130.777" ry="18"/>
<text text-anchor="middle" x="1661.44" y="-230.3" font-family="Times,serif" font-size="14.00" fill="#000000">Components.Dialogs.SettingsEdit</text>
</g>
<!-- compDialSettingsEdit&#45;&gt;compIndex -->
<g id="edge17" class="edge">
<title>compDialSettingsEdit&#45;&gt;compIndex</title>
<path fill="none" stroke="#000000" d="M1755.4238,-221.4246C1823.4142,-208.6558 1897.0908,-184.8187 1858.44,-144 1827.7134,-111.5499 1194.5712,-96.1909 957.778,-91.5655"/>
<polygon fill="#000000" stroke="#000000" points="957.5493,-88.0605 947.4834,-91.3663 957.4138,-95.0592 957.5493,-88.0605"/>
</g>
<!-- compDialTimelineNameEdit -->
<g id="node6" class="node">
<title>compDialTimelineNameEdit</title>
<ellipse fill="none" stroke="#000000" cx="732.44" cy="-162" rx="155.9723" ry="18"/>
<text text-anchor="middle" x="732.44" y="-158.3" font-family="Times,serif" font-size="14.00" fill="#000000">Components.Dialogs.TimelineNameEdit</text>
</g>
<!-- compDialTimelineNameEdit&#45;&gt;compIndex -->
<g id="edge15" class="edge">
<title>compDialTimelineNameEdit&#45;&gt;compIndex</title>
<path fill="none" stroke="#000000" d="M765.954,-144.3868C784.9139,-134.4225 808.7619,-121.8892 828.7848,-111.3663"/>
<polygon fill="#000000" stroke="#000000" points="830.4603,-114.4397 837.684,-106.6893 827.2037,-108.2433 830.4603,-114.4397"/>
</g>
<!-- compDialTimescaleEdit -->
<g id="node7" class="node">
<title>compDialTimescaleEdit</title>
<ellipse fill="none" stroke="#000000" cx="1220.44" cy="-306" rx="139.1754" ry="18"/>
<text text-anchor="middle" x="1220.44" y="-302.3" font-family="Times,serif" font-size="14.00" fill="#000000">Components.Dialogs.TimescaleEdit</text>
</g>
<!-- main -->
<g id="node11" class="node">
<title>main</title>
<ellipse fill="none" stroke="#000000" cx="741.44" cy="-18" rx="29.795" ry="18"/>
<text text-anchor="middle" x="741.44" y="-14.3" font-family="Times,serif" font-size="14.00" fill="#000000">Main</text>
</g>
<!-- compIndex&#45;&gt;main -->
<g id="edge1" class="edge">
<title>compIndex&#45;&gt;main</title>
<path fill="none" stroke="#000000" d="M839.7525,-73.3008C819.5146,-61.917 792.7777,-46.8774 772.2959,-35.3564"/>
<polygon fill="#000000" stroke="#000000" points="773.8029,-32.1885 763.3712,-30.3363 770.3711,-38.2895 773.8029,-32.1885"/>
</g>
<!-- compSnackbar -->
<g id="node9" class="node">
<title>compSnackbar</title>
<ellipse fill="none" stroke="#000000" cx="333.44" cy="-234" rx="90.9839" ry="18"/>
<text text-anchor="middle" x="333.44" y="-230.3" font-family="Times,serif" font-size="14.00" fill="#000000">Components.Snackbar</text>
</g>
<!-- compSnackbar&#45;&gt;compIndex -->
<g id="edge18" class="edge">
<title>compSnackbar&#45;&gt;compIndex</title>
<path fill="none" stroke="#000000" d="M345.2813,-215.9181C360.2494,-194.731 388.1236,-160.4359 421.44,-144 483.0122,-113.6247 670.2864,-99.5297 782.267,-93.6609"/>
<polygon fill="#000000" stroke="#000000" points="782.7206,-97.1423 792.5284,-93.135 782.3623,-90.1515 782.7206,-97.1423"/>
</g>
<!-- compSnackbar&#45;&gt;plumbing -->
<g id="edge7" class="edge">
<title>compSnackbar&#45;&gt;plumbing</title>
<path fill="none" stroke="#000000" d="M366.7327,-217.1192C388.1076,-206.2813 415.9057,-192.1864 438.0407,-180.963"/>
<polygon fill="#000000" stroke="#000000" points="439.809,-183.9907 447.1452,-176.3467 436.6434,-177.7474 439.809,-183.9907"/>
</g>
<!-- compTopBar -->
<g id="node10" class="node">
<title>compTopBar</title>
<ellipse fill="none" stroke="#000000" cx="1654.44" cy="-162" rx="85.2851" ry="18"/>
<text text-anchor="middle" x="1654.44" y="-158.3" font-family="Times,serif" font-size="14.00" fill="#000000">Components.TopBar</text>
</g>
<!-- compTopBar&#45;&gt;compIndex -->
<g id="edge10" class="edge">
<title>compTopBar&#45;&gt;compIndex</title>
<path fill="none" stroke="#000000" d="M1593.6708,-149.3403C1582.6469,-147.3358 1571.2265,-145.4496 1560.44,-144 1344.2508,-114.9453 1087.7495,-99.9617 956.4302,-93.6901"/>
<polygon fill="#000000" stroke="#000000" points="956.5786,-90.1933 946.4246,-93.2176 956.2483,-97.1855 956.5786,-90.1933"/>
</g>
<!-- plumbing&#45;&gt;compIndex -->
<g id="edge20" class="edge">
<title>plumbing&#45;&gt;compIndex</title>
<path fill="none" stroke="#000000" d="M510.4816,-150.4518C518.3123,-148.1117 526.616,-145.8152 534.44,-144 620.9561,-123.9283 721.7546,-108.7694 790.0085,-99.6982"/>
<polygon fill="#000000" stroke="#000000" points="790.7985,-103.1245 800.2563,-98.3494 789.885,-96.1843 790.7985,-103.1245"/>
</g>
<!-- plumbing&#45;&gt;main -->
<g id="edge2" class="edge">
<title>plumbing&#45;&gt;main</title>
<path fill="none" stroke="#000000" d="M502.4094,-147.4001C551.9997,-120.5542 657.3982,-63.4963 710.0878,-34.9727"/>
<polygon fill="#000000" stroke="#000000" points="711.8571,-37.9948 718.9849,-30.1562 708.5246,-31.839 711.8571,-37.9948"/>
</g>
<!-- settings -->
<g id="node13" class="node">
<title>settings</title>
<ellipse fill="none" stroke="#000000" cx="1024.44" cy="-306" rx="38.9931" ry="18"/>
<text text-anchor="middle" x="1024.44" y="-302.3" font-family="Times,serif" font-size="14.00" fill="#000000">Settings</text>
</g>
<!-- settings&#45;&gt;compBottomBar -->
<g id="edge22" class="edge">
<title>settings&#45;&gt;compBottomBar</title>
<path fill="none" stroke="#000000" d="M1022.287,-287.7623C1019.3874,-263.201 1014.1984,-219.2474 1010.7874,-190.3541"/>
<polygon fill="#000000" stroke="#000000" points="1014.224,-189.6103 1009.5756,-180.0896 1007.2722,-190.431 1014.224,-189.6103"/>
</g>
<!-- settings&#45;&gt;compDialSettingsEdit -->
<g id="edge23" class="edge">
<title>settings&#45;&gt;compDialSettingsEdit</title>
<path fill="none" stroke="#000000" d="M1053.2481,-293.7793C1059.4826,-291.5369 1066.1069,-289.4501 1072.44,-288 1156.6877,-268.7091 1384.8135,-251.4393 1531.1736,-241.8737"/>
<polygon fill="#000000" stroke="#000000" points="1531.8151,-245.3395 1541.5671,-241.1983 1531.3612,-238.3542 1531.8151,-245.3395"/>
</g>
<!-- settings&#45;&gt;compDialTimelineNameEdit -->
<g id="edge27" class="edge">
<title>settings&#45;&gt;compDialTimelineNameEdit</title>
<path fill="none" stroke="#000000" d="M985.6068,-303.4928C918.3072,-298.3357 784.0588,-284.2047 751.44,-252 735.3534,-236.1175 731.2478,-210.2808 730.7919,-190.3548"/>
<polygon fill="#000000" stroke="#000000" points="734.2922,-190.2966 730.8513,-180.2761 727.2923,-190.2553 734.2922,-190.2966"/>
</g>
<!-- settings&#45;&gt;plumbing -->
<g id="edge8" class="edge">
<title>settings&#45;&gt;plumbing</title>
<path fill="none" stroke="#000000" d="M985.3729,-305.1509C865.018,-302.1355 505.9113,-290.0013 471.44,-252 456.4961,-235.5257 459.3896,-209.5814 464.9143,-189.7723"/>
<polygon fill="#000000" stroke="#000000" points="468.3088,-190.6445 467.9627,-180.0553 461.6298,-188.5491 468.3088,-190.6445"/>
</g>
<!-- timeDataTimelineName -->
<g id="node17" class="node">
<title>timeDataTimelineName</title>
<ellipse fill="none" stroke="#000000" cx="878.44" cy="-234" rx="118.0794" ry="18"/>
<text text-anchor="middle" x="878.44" y="-230.3" font-family="Times,serif" font-size="14.00" fill="#000000">Timeline.Data.TimelineName</text>
</g>
<!-- settings&#45;&gt;timeDataTimelineName -->
<g id="edge29" class="edge">
<title>settings&#45;&gt;timeDataTimelineName</title>
<path fill="none" stroke="#000000" d="M997.6614,-292.7941C976.6383,-282.4266 946.927,-267.7744 922.4246,-255.691"/>
<polygon fill="#000000" stroke="#000000" points="923.8346,-252.484 913.3179,-251.2 920.7386,-258.7621 923.8346,-252.484"/>
</g>
<!-- timeDataTimeScale -->
<g id="node19" class="node">
<title>timeDataTimeScale</title>
<ellipse fill="none" stroke="#000000" cx="1155.44" cy="-234" rx="102.8821" ry="18"/>
<text text-anchor="middle" x="1155.44" y="-230.3" font-family="Times,serif" font-size="14.00" fill="#000000">Timeline.Data.TimeScale</text>
</g>
<!-- settings&#45;&gt;timeDataTimeScale -->
<g id="edge28" class="edge">
<title>settings&#45;&gt;timeDataTimeScale</title>
<path fill="none" stroke="#000000" d="M1049.6981,-292.1177C1068.1741,-281.963 1093.6245,-267.9749 1114.9271,-256.2667"/>
<polygon fill="#000000" stroke="#000000" points="1116.6926,-259.2902 1123.7703,-251.4062 1113.3209,-253.1557 1116.6926,-259.2902"/>
</g>
<!-- compDialTimeScaleEdit -->
<g id="node23" class="node">
<title>compDialTimeScaleEdit</title>
<ellipse fill="none" stroke="#000000" cx="1225.44" cy="-162" rx="98.5829" ry="18"/>
<text text-anchor="middle" x="1225.44" y="-158.3" font-family="Times,serif" font-size="14.00" fill="#000000">compDialTimeScaleEdit</text>
</g>
<!-- settings&#45;&gt;compDialTimeScaleEdit -->
<g id="edge25" class="edge">
<title>settings&#45;&gt;compDialTimeScaleEdit</title>
<path fill="none" stroke="#000000" d="M1053.8721,-294.0326C1059.9475,-291.8264 1066.3511,-289.6895 1072.44,-288 1157.3627,-264.4361 1211.0618,-319.7392 1267.44,-252 1283.4361,-232.7805 1267.8312,-206.4548 1251.2951,-187.2416"/>
<polygon fill="#000000" stroke="#000000" points="1253.8003,-184.794 1244.4873,-179.7423 1248.6173,-189.4991 1253.8003,-184.794"/>
</g>
<!-- timeDataEvent -->
<g id="node14" class="node">
<title>timeDataEvent</title>
<ellipse fill="none" stroke="#000000" cx="1462.44" cy="-306" rx="85.2851" ry="18"/>
<text text-anchor="middle" x="1462.44" y="-302.3" font-family="Times,serif" font-size="14.00" fill="#000000">Timeline.Data.Event</text>
</g>
<!-- timeDataIndex -->
<g id="node15" class="node">
<title>timeDataIndex</title>
<ellipse fill="none" stroke="#000000" cx="1650.44" cy="-306" rx="84.485" ry="18"/>
<text text-anchor="middle" x="1650.44" y="-302.3" font-family="Times,serif" font-size="14.00" fill="#000000">Timeline.Data.Index</text>
</g>
<!-- timeDataStoredTimeline -->
<g id="node16" class="node">
<title>timeDataStoredTimeline</title>
<ellipse fill="none" stroke="#000000" cx="1872.44" cy="-306" rx="119.6788" ry="18"/>
<text text-anchor="middle" x="1872.44" y="-302.3" font-family="Times,serif" font-size="14.00" fill="#000000">Timeline.Data.StoredTimeline</text>
</g>
<!-- timeDataTimelineName&#45;&gt;compBottomBar -->
<g id="edge21" class="edge">
<title>timeDataTimelineName&#45;&gt;compBottomBar</title>
<path fill="none" stroke="#000000" d="M909.6673,-216.5708C927.0972,-206.8425 948.991,-194.6227 967.6398,-184.2141"/>
<polygon fill="#000000" stroke="#000000" points="969.4741,-187.1986 976.5003,-179.2687 966.0625,-181.0862 969.4741,-187.1986"/>
</g>
<!-- timeDataTimelineName&#45;&gt;compDialTimelineNameEdit -->
<g id="edge26" class="edge">
<title>timeDataTimelineName&#45;&gt;compDialTimelineNameEdit</title>
<path fill="none" stroke="#000000" d="M843.4694,-216.7542C823.6281,-206.9695 798.5865,-194.6202 777.3092,-184.1273"/>
<polygon fill="#000000" stroke="#000000" points="778.6563,-180.8892 768.1396,-179.6053 775.5603,-187.1673 778.6563,-180.8892"/>
</g>
<!-- timeDataTimelineName&#45;&gt;plumbing -->
<g id="edge5" class="edge">
<title>timeDataTimelineName&#45;&gt;plumbing</title>
<path fill="none" stroke="#000000" d="M798.7815,-220.6488C735.9016,-209.9939 645.985,-194.5011 567.44,-180 554.0487,-177.5277 539.583,-174.7486 526.1759,-172.1274"/>
<polygon fill="#000000" stroke="#000000" points="526.6521,-168.6541 516.165,-170.1614 525.3031,-175.5229 526.6521,-168.6541"/>
</g>
<!-- timeDataTimeline -->
<g id="node18" class="node">
<title>timeDataTimeline</title>
<ellipse fill="none" stroke="#000000" cx="2106.44" cy="-306" rx="96.6831" ry="18"/>
<text text-anchor="middle" x="2106.44" y="-302.3" font-family="Times,serif" font-size="14.00" fill="#000000">Timeline.Data.Timeline</text>
</g>
<!-- timeDataTimeScale&#45;&gt;compBottomBar -->
<g id="edge9" class="edge">
<title>timeDataTimeScale&#45;&gt;compBottomBar</title>
<path fill="none" stroke="#000000" d="M1120.3661,-216.937C1099.7227,-206.8943 1073.4295,-194.103 1051.409,-183.3903"/>
<polygon fill="#000000" stroke="#000000" points="1052.7857,-180.1679 1042.2622,-178.9405 1049.7234,-186.4626 1052.7857,-180.1679"/>
</g>
<!-- timeDataTimeScale&#45;&gt;plumbing -->
<g id="edge6" class="edge">
<title>timeDataTimeScale&#45;&gt;plumbing</title>
<path fill="none" stroke="#000000" d="M1072.1928,-223.4483C1050.4816,-220.8505 1027.0994,-218.1889 1005.44,-216 811.1068,-196.3607 760.9167,-206.7936 567.44,-180 553.8226,-178.1142 539.1754,-175.5132 525.6605,-172.8742"/>
<polygon fill="#000000" stroke="#000000" points="526.0741,-169.3878 515.582,-170.8601 524.7022,-176.252 526.0741,-169.3878"/>
</g>
<!-- timeDataTimeScale&#45;&gt;compDialTimeScaleEdit -->
<g id="edge24" class="edge">
<title>timeDataTimeScale&#45;&gt;compDialTimeScaleEdit</title>
<path fill="none" stroke="#000000" d="M1172.7434,-216.2022C1181.2411,-207.4617 1191.6275,-196.7786 1200.926,-187.2144"/>
<polygon fill="#000000" stroke="#000000" points="1203.6318,-189.4523 1208.0931,-179.8425 1198.6128,-184.5727 1203.6318,-189.4523"/>
</g>
<!-- timeDataTimeSpace -->
<g id="node20" class="node">
<title>timeDataTimeSpace</title>
<ellipse fill="none" stroke="#000000" cx="2325.44" cy="-306" rx="104.7816" ry="18"/>
<text text-anchor="middle" x="2325.44" y="-302.3" font-family="Times,serif" font-size="14.00" fill="#000000">Timeline.Data.TimeSpace</text>
</g>
<!-- timeDataTimeSpan -->
<g id="node21" class="node">
<title>timeDataTimeSpan</title>
<ellipse fill="none" stroke="#000000" cx="2548.44" cy="-306" rx="100.9827" ry="18"/>
<text text-anchor="middle" x="2548.44" y="-302.3" font-family="Times,serif" font-size="14.00" fill="#000000">Timeline.Data.TimeSpan</text>
</g>
<!-- withRoot -->
<g id="node22" class="node">
<title>withRoot</title>
<ellipse fill="none" stroke="#000000" cx="1803.44" cy="-162" rx="46.2923" ry="18"/>
<text text-anchor="middle" x="1803.44" y="-158.3" font-family="Times,serif" font-size="14.00" fill="#000000">WithRoot</text>
</g>
<!-- withRoot&#45;&gt;compIndex -->
<g id="edge19" class="edge">
<title>withRoot&#45;&gt;compIndex</title>
<path fill="none" stroke="#000000" d="M1769.7623,-149.4834C1762.7973,-147.3197 1755.4466,-145.3389 1748.44,-144 1598.6002,-115.3659 1148.2522,-98.5606 956.942,-92.5419"/>
<polygon fill="#000000" stroke="#000000" points="957.0292,-89.043 946.9249,-92.2292 956.8107,-96.0396 957.0292,-89.043"/>
</g>
<!-- compDialTimeScaleEdit&#45;&gt;compIndex -->
<g id="edge16" class="edge">
<title>compDialTimeScaleEdit&#45;&gt;compIndex</title>
<path fill="none" stroke="#000000" d="M1159.3135,-148.6261C1096.327,-135.8873 1001.9111,-116.7919 938.0988,-103.886"/>
<polygon fill="#000000" stroke="#000000" points="938.6249,-100.4217 928.1295,-101.8698 937.2373,-107.2827 938.6249,-100.4217"/>
</g>
</g>
</svg>
