<?xml version="1.0" encoding="UTF-8" standalone="no"?>
<!DOCTYPE svg PUBLIC "-//W3C//DTD SVG 1.1//EN"
 "http://www.w3.org/Graphics/SVG/1.1/DTD/svg11.dtd">
<!-- Generated by graphviz version 2.40.1 (20161225.0304)
 -->
<!-- Title: Modules Pages: 1 -->
<svg width="2278pt" height="332pt"
 viewBox="0.00 0.00 2277.52 332.00" xmlns="http://www.w3.org/2000/svg" xmlns:xlink="http://www.w3.org/1999/xlink">
<g id="graph0" class="graph" transform="scale(1 1) rotate(0) translate(4 328)">
<title>Modules</title>
<polygon fill="#ffffff" stroke="transparent" points="-4,4 -4,-328 2273.5175,-328 2273.5175,4 -4,4"/>
<!-- settings -->
<g id="node1" class="node">
<title>settings</title>
<ellipse fill="none" stroke="#000000" cx="940.7764" cy="-306" rx="38.9931" ry="18"/>
<text text-anchor="middle" x="940.7764" y="-302.3" font-family="Times,serif" font-size="14.00" fill="#000000">Settings</text>
</g>
<!-- compDialSettingsEdit -->
<g id="node4" class="node">
<title>compDialSettingsEdit</title>
<ellipse fill="none" stroke="#000000" cx="650.7764" cy="-234" rx="130.777" ry="18"/>
<text text-anchor="middle" x="650.7764" y="-230.3" font-family="Times,serif" font-size="14.00" fill="#000000">Components.Dialogs.SettingsEdit</text>
</g>
<!-- settings&#45;&gt;compDialSettingsEdit -->
<g id="edge23" class="edge">
<title>settings&#45;&gt;compDialSettingsEdit</title>
<path fill="none" stroke="#000000" d="M906.3708,-297.4579C861.6943,-286.3658 782.5309,-266.7115 724.1065,-252.2061"/>
<polygon fill="#000000" stroke="#000000" points="724.7344,-248.7558 714.1857,-249.743 723.0477,-255.5495 724.7344,-248.7558"/>
</g>
<!-- compBottomBar -->
<g id="node6" class="node">
<title>compBottomBar</title>
<ellipse fill="none" stroke="#000000" cx="1179.7764" cy="-162" rx="101.2821" ry="18"/>
<text text-anchor="middle" x="1179.7764" y="-158.3" font-family="Times,serif" font-size="14.00" fill="#000000">Componenets.BottomBar</text>
</g>
<!-- settings&#45;&gt;compBottomBar -->
<g id="edge22" class="edge">
<title>settings&#45;&gt;compBottomBar</title>
<path fill="none" stroke="#000000" d="M969.8651,-293.7902C976.0228,-291.5754 982.5457,-289.4967 988.7764,-288 1057.9273,-271.3889 1259.4011,-305.0411 1306.7764,-252 1317.4348,-240.0669 1315.6033,-229.3449 1306.7764,-216 1295.3606,-198.7412 1277.1925,-186.9814 1258.1274,-178.9745"/>
<polygon fill="#000000" stroke="#000000" points="1259.3111,-175.6798 1248.7218,-175.3377 1256.7866,-182.2087 1259.3111,-175.6798"/>
</g>
<!-- compDialTimelineNameEdit -->
<g id="node8" class="node">
<title>compDialTimelineNameEdit</title>
<ellipse fill="none" stroke="#000000" cx="1454.7764" cy="-162" rx="155.9723" ry="18"/>
<text text-anchor="middle" x="1454.7764" y="-158.3" font-family="Times,serif" font-size="14.00" fill="#000000">Components.Dialogs.TimelineNameEdit</text>
</g>
<!-- settings&#45;&gt;compDialTimelineNameEdit -->
<g id="edge27" class="edge">
<title>settings&#45;&gt;compDialTimelineNameEdit</title>
<path fill="none" stroke="#000000" d="M969.6022,-293.8551C975.8355,-291.6076 982.4548,-289.4996 988.7764,-288 1134.4792,-253.4369 1183.3419,-303.9812 1323.7764,-252 1363.472,-237.3069 1402.6317,-207.9073 1427.6448,-186.7016"/>
<polygon fill="#000000" stroke="#000000" points="1429.97,-189.3181 1435.2516,-180.1335 1425.3952,-184.0198 1429.97,-189.3181"/>
</g>
<!-- compDialTimeScaleEdit -->
<g id="node9" class="node">
<title>compDialTimeScaleEdit</title>
<ellipse fill="none" stroke="#000000" cx="921.7764" cy="-162" rx="139.1754" ry="18"/>
<text text-anchor="middle" x="921.7764" y="-158.3" font-family="Times,serif" font-size="14.00" fill="#000000">Components.Dialogs.TimescaleEdit</text>
</g>
<!-- settings&#45;&gt;compDialTimeScaleEdit -->
<g id="edge25" class="edge">
<title>settings&#45;&gt;compDialTimeScaleEdit</title>
<path fill="none" stroke="#000000" d="M904.4432,-299.0783C878.4478,-292.0234 845.2509,-278.2325 828.7764,-252 820.267,-238.4505 820.7935,-229.8663 828.7764,-216 836.647,-202.3288 849.4529,-191.7996 863.0789,-183.8276"/>
<polygon fill="#000000" stroke="#000000" points="864.9727,-186.7827 872.108,-178.9508 861.6461,-180.6237 864.9727,-186.7827"/>
</g>
<!-- plumbing -->
<g id="node12" class="node">
<title>plumbing</title>
<ellipse fill="none" stroke="#000000" cx="293.7764" cy="-90" rx="45.4919" ry="18"/>
<text text-anchor="middle" x="293.7764" y="-86.3" font-family="Times,serif" font-size="14.00" fill="#000000">Plumbing</text>
</g>
<!-- settings&#45;&gt;plumbing -->
<g id="edge8" class="edge">
<title>settings&#45;&gt;plumbing</title>
<path fill="none" stroke="#000000" d="M901.809,-303.7253C732.6196,-293.4589 67.5378,-248.9248 7.7764,-180 -2.7051,-167.9113 -2.434,-156.3186 7.7764,-144 36.4563,-109.3983 163.3675,-96.8105 238.1493,-92.3501"/>
<polygon fill="#000000" stroke="#000000" points="238.5536,-95.8329 248.3397,-91.7732 238.1579,-88.8441 238.5536,-95.8329"/>
</g>
<!-- timeDataTimeScale -->
<g id="node16" class="node">
<title>timeDataTimeScale</title>
<ellipse fill="none" stroke="#000000" cx="940.7764" cy="-234" rx="102.8821" ry="18"/>
<text text-anchor="middle" x="940.7764" y="-230.3" font-family="Times,serif" font-size="14.00" fill="#000000">Timeline.Data.TimeScale</text>
</g>
<!-- settings&#45;&gt;timeDataTimeScale -->
<g id="edge28" class="edge">
<title>settings&#45;&gt;timeDataTimeScale</title>
<path fill="none" stroke="#000000" d="M940.7764,-287.8314C940.7764,-280.131 940.7764,-270.9743 940.7764,-262.4166"/>
<polygon fill="#000000" stroke="#000000" points="944.2765,-262.4132 940.7764,-252.4133 937.2765,-262.4133 944.2765,-262.4132"/>
</g>
<!-- timeDataTimelineName -->
<g id="node17" class="node">
<title>timeDataTimelineName</title>
<ellipse fill="none" stroke="#000000" cx="1179.7764" cy="-234" rx="118.0794" ry="18"/>
<text text-anchor="middle" x="1179.7764" y="-230.3" font-family="Times,serif" font-size="14.00" fill="#000000">Timeline.Data.TimelineName</text>
</g>
<!-- settings&#45;&gt;timeDataTimelineName -->
<g id="edge29" class="edge">
<title>settings&#45;&gt;timeDataTimelineName</title>
<path fill="none" stroke="#000000" d="M970.5982,-294.3784C976.5861,-292.1691 982.8571,-289.9429 988.7764,-288 1028.43,-274.9845 1073.3136,-262.1978 1109.6031,-252.3366"/>
<polygon fill="#000000" stroke="#000000" points="1110.8588,-255.6229 1119.5993,-249.635 1109.0325,-248.8653 1110.8588,-255.6229"/>
</g>
<!-- compDialExport -->
<g id="node2" class="node">
<title>compDialExport</title>
<ellipse fill="none" stroke="#000000" cx="172.7764" cy="-162" rx="111.5806" ry="18"/>
<text text-anchor="middle" x="172.7764" y="-158.3" font-family="Times,serif" font-size="14.00" fill="#000000">Components.Dialogs.Export</text>
</g>
<!-- compIndex -->
<g id="node11" class="node">
<title>compIndex</title>
<ellipse fill="none" stroke="#000000" cx="754.7764" cy="-90" rx="77.9862" ry="18"/>
<text text-anchor="middle" x="754.7764" y="-86.3" font-family="Times,serif" font-size="14.00" fill="#000000">Components.Index</text>
</g>
<!-- compDialExport&#45;&gt;compIndex -->
<g id="edge13" class="edge">
<title>compDialExport&#45;&gt;compIndex</title>
<path fill="none" stroke="#000000" d="M253.0792,-149.4594C266.6467,-147.5113 280.601,-145.613 293.7764,-144 459.5294,-123.7076 502.6608,-132.953 667.7764,-108 674.4368,-106.9935 681.3566,-105.8065 688.2535,-104.53"/>
<polygon fill="#000000" stroke="#000000" points="689.1448,-107.923 698.309,-102.6062 687.8294,-101.0477 689.1448,-107.923"/>
</g>
<!-- compDialExport&#45;&gt;plumbing -->
<g id="edge4" class="edge">
<title>compDialExport&#45;&gt;plumbing</title>
<path fill="none" stroke="#000000" d="M202.0671,-144.5708C219.3395,-134.293 241.2854,-121.2343 259.3781,-110.4684"/>
<polygon fill="#000000" stroke="#000000" points="261.6392,-113.1958 268.4431,-105.0744 258.0596,-107.1802 261.6392,-113.1958"/>
</g>
<!-- compDialImport -->
<g id="node3" class="node">
<title>compDialImport</title>
<ellipse fill="none" stroke="#000000" cx="414.7764" cy="-162" rx="112.3801" ry="18"/>
<text text-anchor="middle" x="414.7764" y="-158.3" font-family="Times,serif" font-size="14.00" fill="#000000">Components.Dialogs.Import</text>
</g>
<!-- compDialImport&#45;&gt;compIndex -->
<g id="edge12" class="edge">
<title>compDialImport&#45;&gt;compIndex</title>
<path fill="none" stroke="#000000" d="M482.7633,-147.6028C542.1177,-135.0336 627.7997,-116.8892 687.0707,-104.3377"/>
<polygon fill="#000000" stroke="#000000" points="688.0241,-107.7135 697.082,-102.2176 686.5738,-100.8654 688.0241,-107.7135"/>
</g>
<!-- compDialImport&#45;&gt;plumbing -->
<g id="edge3" class="edge">
<title>compDialImport&#45;&gt;plumbing</title>
<path fill="none" stroke="#000000" d="M385.4857,-144.5708C368.2133,-134.293 346.2674,-121.2343 328.1747,-110.4684"/>
<polygon fill="#000000" stroke="#000000" points="329.4932,-107.1802 319.1097,-105.0744 325.9137,-113.1958 329.4932,-107.1802"/>
</g>
<!-- compDialSettingsEdit&#45;&gt;compIndex -->
<g id="edge17" class="edge">
<title>compDialSettingsEdit&#45;&gt;compIndex</title>
<path fill="none" stroke="#000000" d="M691.4869,-216.7614C707.5805,-207.9943 724.8155,-195.8021 735.7764,-180 748.3126,-161.9268 752.8592,-137.2489 754.3845,-118.305"/>
<polygon fill="#000000" stroke="#000000" points="757.8869,-118.3614 754.962,-108.1784 750.8982,-117.9629 757.8869,-118.3614"/>
</g>
<!-- compSnackbar -->
<g id="node5" class="node">
<title>compSnackbar</title>
<ellipse fill="none" stroke="#000000" cx="635.7764" cy="-162" rx="90.9839" ry="18"/>
<text text-anchor="middle" x="635.7764" y="-158.3" font-family="Times,serif" font-size="14.00" fill="#000000">Components.Snackbar</text>
</g>
<!-- compSnackbar&#45;&gt;compIndex -->
<g id="edge18" class="edge">
<title>compSnackbar&#45;&gt;compIndex</title>
<path fill="none" stroke="#000000" d="M664.2799,-144.7542C680.4406,-134.9763 700.834,-122.6374 718.1687,-112.1492"/>
<polygon fill="#000000" stroke="#000000" points="720.1721,-115.0279 726.9161,-106.8566 716.5484,-109.0388 720.1721,-115.0279"/>
</g>
<!-- compSnackbar&#45;&gt;plumbing -->
<g id="edge7" class="edge">
<title>compSnackbar&#45;&gt;plumbing</title>
<path fill="none" stroke="#000000" d="M573.446,-148.8778C507.6976,-135.036 405.3517,-113.4895 344.4028,-100.6582"/>
<polygon fill="#000000" stroke="#000000" points="344.7622,-97.1572 334.2556,-98.5219 343.3201,-104.007 344.7622,-97.1572"/>
</g>
<!-- compBottomBar&#45;&gt;compIndex -->
<g id="edge11" class="edge">
<title>compBottomBar&#45;&gt;compIndex</title>
<path fill="none" stroke="#000000" d="M1106.2323,-149.5408C1028.2441,-136.3286 905.7901,-115.5835 827.9451,-102.3956"/>
<polygon fill="#000000" stroke="#000000" points="828.1818,-98.8859 817.7377,-100.6664 827.0125,-105.7876 828.1818,-98.8859"/>
</g>
<!-- compDialNew -->
<g id="node7" class="node">
<title>compDialNew</title>
<ellipse fill="none" stroke="#000000" cx="1733.7764" cy="-162" rx="104.7816" ry="18"/>
<text text-anchor="middle" x="1733.7764" y="-158.3" font-family="Times,serif" font-size="14.00" fill="#000000">Components.Dialogs.New</text>
</g>
<!-- compDialNew&#45;&gt;compIndex -->
<g id="edge14" class="edge">
<title>compDialNew&#45;&gt;compIndex</title>
<path fill="none" stroke="#000000" d="M1659.7119,-149.2683C1646.4437,-147.2837 1632.7224,-145.4229 1619.7764,-144 1336.4025,-112.8533 998.6781,-98.2316 842.2692,-92.7351"/>
<polygon fill="#000000" stroke="#000000" points="842.3471,-89.2358 832.2315,-92.3862 842.1039,-96.2316 842.3471,-89.2358"/>
</g>
<!-- compDialTimelineNameEdit&#45;&gt;compIndex -->
<g id="edge15" class="edge">
<title>compDialTimelineNameEdit&#45;&gt;compIndex</title>
<path fill="none" stroke="#000000" d="M1341.6222,-149.5338C1324.2606,-147.6564 1306.5415,-145.7605 1289.7764,-144 1129.3918,-127.1578 941.8492,-108.4569 836.8318,-98.0748"/>
<polygon fill="#000000" stroke="#000000" points="836.9149,-94.566 826.6192,-97.0657 836.2265,-101.5321 836.9149,-94.566"/>
</g>
<!-- compDialTimeScaleEdit&#45;&gt;compIndex -->
<g id="edge16" class="edge">
<title>compDialTimeScaleEdit&#45;&gt;compIndex</title>
<path fill="none" stroke="#000000" d="M881.7758,-144.7542C857.4756,-134.2775 826.3561,-120.8607 801.0042,-109.9305"/>
<polygon fill="#000000" stroke="#000000" points="802.1651,-106.6196 791.5965,-105.8745 799.3937,-113.0477 802.1651,-106.6196"/>
</g>
<!-- compTopBar -->
<g id="node10" class="node">
<title>compTopBar</title>
<ellipse fill="none" stroke="#000000" cx="1941.7764" cy="-162" rx="85.2851" ry="18"/>
<text text-anchor="middle" x="1941.7764" y="-158.3" font-family="Times,serif" font-size="14.00" fill="#000000">Components.TopBar</text>
</g>
<!-- compTopBar&#45;&gt;compIndex -->
<g id="edge10" class="edge">
<title>compTopBar&#45;&gt;compIndex</title>
<path fill="none" stroke="#000000" d="M1881.7968,-149.2197C1870.5364,-147.1891 1858.83,-145.3248 1847.7764,-144 1653.7493,-120.7456 1065.777,-99.9953 842.2701,-92.7404"/>
<polygon fill="#000000" stroke="#000000" points="842.3336,-89.2408 832.2257,-92.4155 842.1072,-96.2371 842.3336,-89.2408"/>
</g>
<!-- main -->
<g id="node22" class="node">
<title>main</title>
<ellipse fill="none" stroke="#000000" cx="463.7764" cy="-18" rx="29.795" ry="18"/>
<text text-anchor="middle" x="463.7764" y="-14.3" font-family="Times,serif" font-size="14.00" fill="#000000">Main</text>
</g>
<!-- compIndex&#45;&gt;main -->
<g id="edge1" class="edge">
<title>compIndex&#45;&gt;main</title>
<path fill="none" stroke="#000000" d="M701.4025,-76.7941C643.5311,-62.4754 552.628,-39.9839 501.6647,-27.3744"/>
<polygon fill="#000000" stroke="#000000" points="502.272,-23.9192 491.7241,-24.9149 500.5907,-30.7143 502.272,-23.9192"/>
</g>
<!-- plumbing&#45;&gt;compIndex -->
<g id="edge20" class="edge">
<title>plumbing&#45;&gt;compIndex</title>
<path fill="none" stroke="#000000" d="M331.097,-100.4516C397.4696,-117.5385 540.2042,-147.5012 658.7764,-126 676.3264,-122.8176 694.8456,-116.611 710.8865,-110.2352"/>
<polygon fill="#000000" stroke="#000000" points="712.6078,-113.3117 720.5231,-106.269 709.9436,-106.8385 712.6078,-113.3117"/>
</g>
<!-- plumbing&#45;&gt;main -->
<g id="edge2" class="edge">
<title>plumbing&#45;&gt;main</title>
<path fill="none" stroke="#000000" d="M324.957,-76.7941C354.6244,-64.2291 399.1513,-45.3706 429.7315,-32.419"/>
<polygon fill="#000000" stroke="#000000" points="431.2904,-35.5598 439.1336,-28.437 428.5604,-29.1141 431.2904,-35.5598"/>
</g>
<!-- withRoot -->
<g id="node13" class="node">
<title>withRoot</title>
<ellipse fill="none" stroke="#000000" cx="612.7764" cy="-90" rx="46.2923" ry="18"/>
<text text-anchor="middle" x="612.7764" y="-86.3" font-family="Times,serif" font-size="14.00" fill="#000000">WithRoot</text>
</g>
<!-- withRoot&#45;&gt;compIndex -->
<g id="edge19" class="edge">
<title>withRoot&#45;&gt;compIndex</title>
<path fill="none" stroke="#000000" d="M659.0928,-90C661.5632,-90 664.0335,-90 666.5039,-90"/>
<polygon fill="#000000" stroke="#000000" points="666.6598,-93.5001 676.6597,-90 666.6597,-86.5001 666.6598,-93.5001"/>
</g>
<!-- timeDataEvent -->
<g id="node14" class="node">
<title>timeDataEvent</title>
<ellipse fill="none" stroke="#000000" cx="1082.7764" cy="-306" rx="85.2851" ry="18"/>
<text text-anchor="middle" x="1082.7764" y="-302.3" font-family="Times,serif" font-size="14.00" fill="#000000">Timeline.Data.Event</text>
</g>
<!-- timeDataIndex -->
<g id="node15" class="node">
<title>timeDataIndex</title>
<ellipse fill="none" stroke="#000000" cx="1270.7764" cy="-306" rx="84.485" ry="18"/>
<text text-anchor="middle" x="1270.7764" y="-302.3" font-family="Times,serif" font-size="14.00" fill="#000000">Timeline.Data.Index</text>
</g>
<!-- timeDataTimeScale&#45;&gt;compBottomBar -->
<g id="edge9" class="edge">
<title>timeDataTimeScale&#45;&gt;compBottomBar</title>
<path fill="none" stroke="#000000" d="M992.6359,-218.3771C1029.5923,-207.2438 1079.4179,-192.2335 1118.3652,-180.5005"/>
<polygon fill="#000000" stroke="#000000" points="1119.4528,-183.8282 1128.0182,-177.5924 1117.4336,-177.1258 1119.4528,-183.8282"/>
</g>
<!-- timeDataTimeScale&#45;&gt;compDialTimeScaleEdit -->
<g id="edge24" class="edge">
<title>timeDataTimeScale&#45;&gt;compDialTimeScaleEdit</title>
<path fill="none" stroke="#000000" d="M935.9819,-215.8314C933.9275,-208.0463 931.4804,-198.7729 929.2009,-190.1347"/>
<polygon fill="#000000" stroke="#000000" points="932.5712,-189.1892 926.6355,-180.4133 925.8029,-190.9753 932.5712,-189.1892"/>
</g>
<!-- timeDataTimeScale&#45;&gt;plumbing -->
<g id="edge6" class="edge">
<title>timeDataTimeScale&#45;&gt;plumbing</title>
<path fill="none" stroke="#000000" d="M858.7532,-223.063C836.712,-220.4234 812.8632,-217.8377 790.7764,-216 747.9888,-212.4399 48.4209,-211.059 18.7764,-180 7.7294,-168.4258 8.611,-156.3557 18.7764,-144 45.9932,-110.9191 165.881,-97.7981 238.0748,-92.8301"/>
<polygon fill="#000000" stroke="#000000" points="238.6143,-96.3023 248.3636,-92.1548 238.1558,-89.3173 238.6143,-96.3023"/>
</g>
<!-- timeDataTimelineName&#45;&gt;compBottomBar -->
<g id="edge21" class="edge">
<title>timeDataTimelineName&#45;&gt;compBottomBar</title>
<path fill="none" stroke="#000000" d="M1179.7764,-215.8314C1179.7764,-208.131 1179.7764,-198.9743 1179.7764,-190.4166"/>
<polygon fill="#000000" stroke="#000000" points="1183.2765,-190.4132 1179.7764,-180.4133 1176.2765,-190.4133 1183.2765,-190.4132"/>
</g>
<!-- timeDataTimelineName&#45;&gt;compDialTimelineNameEdit -->
<g id="edge26" class="edge">
<title>timeDataTimelineName&#45;&gt;compDialTimelineNameEdit</title>
<path fill="none" stroke="#000000" d="M1239.4473,-218.3771C1281.1559,-207.457 1337.1103,-192.8071 1381.5262,-181.1782"/>
<polygon fill="#000000" stroke="#000000" points="1382.6071,-184.5133 1391.3946,-178.5945 1380.8341,-177.7415 1382.6071,-184.5133"/>
</g>
<!-- timeDataTimelineName&#45;&gt;plumbing -->
<g id="edge5" class="edge">
<title>timeDataTimelineName&#45;&gt;plumbing</title>
<path fill="none" stroke="#000000" d="M1097.2593,-221.0254C1082.4788,-219.0667 1067.1948,-217.2775 1052.7764,-216 997.3465,-211.0888 90.4113,-220.0493 51.7764,-180 -6.5243,-119.5649 150.0877,-99.3851 238.2988,-92.9076"/>
<polygon fill="#000000" stroke="#000000" points="238.705,-96.3879 248.4374,-92.201 238.2182,-89.4049 238.705,-96.3879"/>
</g>
<!-- timeDataTimeline -->
<g id="node18" class="node">
<title>timeDataTimeline</title>
<ellipse fill="none" stroke="#000000" cx="1469.7764" cy="-306" rx="96.6831" ry="18"/>
<text text-anchor="middle" x="1469.7764" y="-302.3" font-family="Times,serif" font-size="14.00" fill="#000000">Timeline.Data.Timeline</text>
</g>
<!-- timeDataStoredTimeline -->
<g id="node19" class="node">
<title>timeDataStoredTimeline</title>
<ellipse fill="none" stroke="#000000" cx="1703.7764" cy="-306" rx="119.6788" ry="18"/>
<text text-anchor="middle" x="1703.7764" y="-302.3" font-family="Times,serif" font-size="14.00" fill="#000000">Timeline.Data.StoredTimeline</text>
</g>
<!-- timeDataTimeSpace -->
<g id="node20" class="node">
<title>timeDataTimeSpace</title>
<ellipse fill="none" stroke="#000000" cx="1945.7764" cy="-306" rx="104.7816" ry="18"/>
<text text-anchor="middle" x="1945.7764" y="-302.3" font-family="Times,serif" font-size="14.00" fill="#000000">Timeline.Data.TimeSpace</text>
</g>
<!-- timeDataTimeSpan -->
<g id="node21" class="node">
<title>timeDataTimeSpan</title>
<ellipse fill="none" stroke="#000000" cx="2168.7764" cy="-306" rx="100.9827" ry="18"/>
<text text-anchor="middle" x="2168.7764" y="-302.3" font-family="Times,serif" font-size="14.00" fill="#000000">Timeline.Data.TimeSpan</text>
</g>
</g>
</svg>
