<?xml version="1.0" encoding="UTF-8" standalone="no"?>
<!DOCTYPE svg PUBLIC "-//W3C//DTD SVG 1.1//EN"
 "http://www.w3.org/Graphics/SVG/1.1/DTD/svg11.dtd">
<!-- Generated by graphviz version 2.40.1 (20161225.0304)
 -->
<!-- Title: Modules Pages: 1 -->
<svg width="2277pt" height="332pt"
 viewBox="0.00 0.00 2277.01 332.00" xmlns="http://www.w3.org/2000/svg" xmlns:xlink="http://www.w3.org/1999/xlink">
<g id="graph0" class="graph" transform="scale(1 1) rotate(0) translate(4 328)">
<title>Modules</title>
<polygon fill="#ffffff" stroke="transparent" points="-4,4 -4,-328 2273.0071,-328 2273.0071,4 -4,4"/>
<!-- settings -->
<g id="node1" class="node">
<title>settings</title>
<ellipse fill="none" stroke="#000000" cx="1163.8646" cy="-306" rx="38.9931" ry="18"/>
<text text-anchor="middle" x="1163.8646" y="-302.3" font-family="Times,serif" font-size="14.00" fill="#000000">Settings</text>
</g>
<!-- compDialSettingsEdit -->
<g id="node4" class="node">
<title>compDialSettingsEdit</title>
<ellipse fill="none" stroke="#000000" cx="875.8646" cy="-162" rx="130.777" ry="18"/>
<text text-anchor="middle" x="875.8646" y="-158.3" font-family="Times,serif" font-size="14.00" fill="#000000">Components.Dialogs.SettingsEdit</text>
</g>
<!-- settings&#45;&gt;compDialSettingsEdit -->
<g id="edge23" class="edge">
<title>settings&#45;&gt;compDialSettingsEdit</title>
<path fill="none" stroke="#000000" d="M1134.715,-294.0337C1109.5876,-283.5219 1072.4738,-267.5239 1040.8646,-252 997.0931,-230.503 948.195,-203.4327 915.0735,-184.6227"/>
<polygon fill="#000000" stroke="#000000" points="916.5886,-181.4577 906.1673,-179.5478 913.123,-187.5397 916.5886,-181.4577"/>
</g>
<!-- compBottomBar -->
<g id="node6" class="node">
<title>compBottomBar</title>
<ellipse fill="none" stroke="#000000" cx="1421.8646" cy="-162" rx="101.2821" ry="18"/>
<text text-anchor="middle" x="1421.8646" y="-158.3" font-family="Times,serif" font-size="14.00" fill="#000000">Componenets.BottomBar</text>
</g>
<!-- settings&#45;&gt;compBottomBar -->
<g id="edge22" class="edge">
<title>settings&#45;&gt;compBottomBar</title>
<path fill="none" stroke="#000000" d="M1192.9533,-293.7902C1199.1111,-291.5754 1205.6339,-289.4967 1211.8646,-288 1281.0155,-271.3889 1482.4894,-305.0411 1529.8646,-252 1540.523,-240.0669 1538.2763,-229.6104 1529.8646,-216 1520.2402,-200.4274 1504.6145,-189.1954 1488.2018,-181.1548"/>
<polygon fill="#000000" stroke="#000000" points="1489.5895,-177.9411 1479.0358,-177.0088 1486.7046,-184.319 1489.5895,-177.9411"/>
</g>
<!-- compDialTimelineNameEdit -->
<g id="node8" class="node">
<title>compDialTimelineNameEdit</title>
<ellipse fill="none" stroke="#000000" cx="1696.8646" cy="-162" rx="155.9723" ry="18"/>
<text text-anchor="middle" x="1696.8646" y="-158.3" font-family="Times,serif" font-size="14.00" fill="#000000">Components.Dialogs.TimelineNameEdit</text>
</g>
<!-- settings&#45;&gt;compDialTimelineNameEdit -->
<g id="edge27" class="edge">
<title>settings&#45;&gt;compDialTimelineNameEdit</title>
<path fill="none" stroke="#000000" d="M1192.6904,-293.8551C1198.9237,-291.6076 1205.5431,-289.4996 1211.8646,-288 1357.5674,-253.4369 1404.8973,-299.6358 1546.8646,-252 1591.4134,-237.0521 1636.9066,-207.2962 1665.9289,-186.0927"/>
<polygon fill="#000000" stroke="#000000" points="1668.0795,-188.8553 1674.0253,-180.0861 1663.9087,-183.2335 1668.0795,-188.8553"/>
</g>
<!-- compDialTimeScaleEdit -->
<g id="node9" class="node">
<title>compDialTimeScaleEdit</title>
<ellipse fill="none" stroke="#000000" cx="1163.8646" cy="-162" rx="139.1754" ry="18"/>
<text text-anchor="middle" x="1163.8646" y="-158.3" font-family="Times,serif" font-size="14.00" fill="#000000">Components.Dialogs.TimescaleEdit</text>
</g>
<!-- settings&#45;&gt;compDialTimeScaleEdit -->
<g id="edge25" class="edge">
<title>settings&#45;&gt;compDialTimeScaleEdit</title>
<path fill="none" stroke="#000000" d="M1127.5314,-299.0783C1101.536,-292.0234 1068.3392,-278.2325 1051.8646,-252 1043.3552,-238.4505 1043.3552,-229.5495 1051.8646,-216 1061.1737,-201.1771 1075.8221,-190.3267 1091.4935,-182.4194"/>
<polygon fill="#000000" stroke="#000000" points="1093.2097,-185.4815 1100.8061,-178.096 1090.2621,-179.1323 1093.2097,-185.4815"/>
</g>
<!-- plumbing -->
<g id="node12" class="node">
<title>plumbing</title>
<ellipse fill="none" stroke="#000000" cx="293.8646" cy="-90" rx="45.4919" ry="18"/>
<text text-anchor="middle" x="293.8646" y="-86.3" font-family="Times,serif" font-size="14.00" fill="#000000">Plumbing</text>
</g>
<!-- settings&#45;&gt;plumbing -->
<g id="edge8" class="edge">
<title>settings&#45;&gt;plumbing</title>
<path fill="none" stroke="#000000" d="M1124.7123,-304.7671C931.3189,-298.2837 84.2357,-265.1475 7.8646,-180 -2.8186,-168.0891 -2.3457,-156.3186 7.8646,-144 36.5445,-109.3983 163.4557,-96.8105 238.2375,-92.3501"/>
<polygon fill="#000000" stroke="#000000" points="238.6418,-95.8329 248.4279,-91.7732 238.2461,-88.8441 238.6418,-95.8329"/>
</g>
<!-- timeDataTimeScale -->
<g id="node16" class="node">
<title>timeDataTimeScale</title>
<ellipse fill="none" stroke="#000000" cx="1163.8646" cy="-234" rx="102.8821" ry="18"/>
<text text-anchor="middle" x="1163.8646" y="-230.3" font-family="Times,serif" font-size="14.00" fill="#000000">Timeline.Data.TimeScale</text>
</g>
<!-- settings&#45;&gt;timeDataTimeScale -->
<g id="edge28" class="edge">
<title>settings&#45;&gt;timeDataTimeScale</title>
<path fill="none" stroke="#000000" d="M1163.8646,-287.8314C1163.8646,-280.131 1163.8646,-270.9743 1163.8646,-262.4166"/>
<polygon fill="#000000" stroke="#000000" points="1167.3647,-262.4132 1163.8646,-252.4133 1160.3647,-262.4133 1167.3647,-262.4132"/>
</g>
<!-- timeDataTimelineName -->
<g id="node17" class="node">
<title>timeDataTimelineName</title>
<ellipse fill="none" stroke="#000000" cx="1402.8646" cy="-234" rx="118.0794" ry="18"/>
<text text-anchor="middle" x="1402.8646" y="-230.3" font-family="Times,serif" font-size="14.00" fill="#000000">Timeline.Data.TimelineName</text>
</g>
<!-- settings&#45;&gt;timeDataTimelineName -->
<g id="edge29" class="edge">
<title>settings&#45;&gt;timeDataTimelineName</title>
<path fill="none" stroke="#000000" d="M1193.6864,-294.3784C1199.6743,-292.1691 1205.9453,-289.9429 1211.8646,-288 1251.5183,-274.9845 1296.4018,-262.1978 1332.6914,-252.3366"/>
<polygon fill="#000000" stroke="#000000" points="1333.947,-255.6229 1342.6875,-249.635 1332.1207,-248.8653 1333.947,-255.6229"/>
</g>
<!-- compDialExport -->
<g id="node2" class="node">
<title>compDialExport</title>
<ellipse fill="none" stroke="#000000" cx="172.8646" cy="-162" rx="111.5806" ry="18"/>
<text text-anchor="middle" x="172.8646" y="-158.3" font-family="Times,serif" font-size="14.00" fill="#000000">Components.Dialogs.Export</text>
</g>
<!-- compIndex -->
<g id="node11" class="node">
<title>compIndex</title>
<ellipse fill="none" stroke="#000000" cx="875.8646" cy="-90" rx="77.9862" ry="18"/>
<text text-anchor="middle" x="875.8646" y="-86.3" font-family="Times,serif" font-size="14.00" fill="#000000">Components.Index</text>
</g>
<!-- compDialExport&#45;&gt;compIndex -->
<g id="edge13" class="edge">
<title>compDialExport&#45;&gt;compIndex</title>
<path fill="none" stroke="#000000" d="M252.4855,-149.2876C266.2608,-147.3368 280.4602,-145.4823 293.8646,-144 513.1092,-119.7546 570.39,-138.4111 788.8646,-108 795.6389,-107.057 802.6767,-105.9007 809.6835,-104.6331"/>
<polygon fill="#000000" stroke="#000000" points="810.7144,-108.0005 819.8928,-102.7084 809.4174,-101.1217 810.7144,-108.0005"/>
</g>
<!-- compDialExport&#45;&gt;plumbing -->
<g id="edge4" class="edge">
<title>compDialExport&#45;&gt;plumbing</title>
<path fill="none" stroke="#000000" d="M202.1554,-144.5708C219.4278,-134.293 241.3736,-121.2343 259.4664,-110.4684"/>
<polygon fill="#000000" stroke="#000000" points="261.7274,-113.1958 268.5313,-105.0744 258.1479,-107.1802 261.7274,-113.1958"/>
</g>
<!-- compDialImport -->
<g id="node3" class="node">
<title>compDialImport</title>
<ellipse fill="none" stroke="#000000" cx="414.8646" cy="-162" rx="112.3801" ry="18"/>
<text text-anchor="middle" x="414.8646" y="-158.3" font-family="Times,serif" font-size="14.00" fill="#000000">Components.Dialogs.Import</text>
</g>
<!-- compDialImport&#45;&gt;compIndex -->
<g id="edge12" class="edge">
<title>compDialImport&#45;&gt;compIndex</title>
<path fill="none" stroke="#000000" d="M497.1909,-149.6816C510.1312,-147.766 523.3597,-145.8198 535.8646,-144 648.2578,-127.644 676.9767,-127.5153 788.8646,-108 795.3983,-106.8604 802.1917,-105.5958 808.9732,-104.2803"/>
<polygon fill="#000000" stroke="#000000" points="809.7367,-107.6972 818.8686,-102.3253 808.3798,-100.83 809.7367,-107.6972"/>
</g>
<!-- compDialImport&#45;&gt;plumbing -->
<g id="edge3" class="edge">
<title>compDialImport&#45;&gt;plumbing</title>
<path fill="none" stroke="#000000" d="M385.5739,-144.5708C368.3015,-134.293 346.3557,-121.2343 328.2629,-110.4684"/>
<polygon fill="#000000" stroke="#000000" points="329.5814,-107.1802 319.198,-105.0744 326.0019,-113.1958 329.5814,-107.1802"/>
</g>
<!-- compDialSettingsEdit&#45;&gt;compIndex -->
<g id="edge17" class="edge">
<title>compDialSettingsEdit&#45;&gt;compIndex</title>
<path fill="none" stroke="#000000" d="M875.8646,-143.8314C875.8646,-136.131 875.8646,-126.9743 875.8646,-118.4166"/>
<polygon fill="#000000" stroke="#000000" points="879.3647,-118.4132 875.8646,-108.4133 872.3647,-118.4133 879.3647,-118.4132"/>
</g>
<!-- compSnackbar -->
<g id="node5" class="node">
<title>compSnackbar</title>
<ellipse fill="none" stroke="#000000" cx="635.8646" cy="-162" rx="90.9839" ry="18"/>
<text text-anchor="middle" x="635.8646" y="-158.3" font-family="Times,serif" font-size="14.00" fill="#000000">Components.Snackbar</text>
</g>
<!-- compSnackbar&#45;&gt;compIndex -->
<g id="edge18" class="edge">
<title>compSnackbar&#45;&gt;compIndex</title>
<path fill="none" stroke="#000000" d="M686.1765,-146.9064C724.7792,-135.3256 778.1058,-119.3276 818.3889,-107.2427"/>
<polygon fill="#000000" stroke="#000000" points="819.4991,-110.5638 828.0716,-104.3379 817.4876,-103.8591 819.4991,-110.5638"/>
</g>
<!-- compSnackbar&#45;&gt;plumbing -->
<g id="edge7" class="edge">
<title>compSnackbar&#45;&gt;plumbing</title>
<path fill="none" stroke="#000000" d="M573.5342,-148.8778C507.7858,-135.036 405.4399,-113.4895 344.491,-100.6582"/>
<polygon fill="#000000" stroke="#000000" points="344.8504,-97.1572 334.3439,-98.5219 343.4083,-104.007 344.8504,-97.1572"/>
</g>
<!-- compBottomBar&#45;&gt;compIndex -->
<g id="edge11" class="edge">
<title>compBottomBar&#45;&gt;compIndex</title>
<path fill="none" stroke="#000000" d="M1348.2594,-149.5486C1336.1131,-147.6109 1323.6446,-145.6927 1311.8646,-144 1188.0441,-126.2083 1043.9264,-109.0498 956.3381,-99.0154"/>
<polygon fill="#000000" stroke="#000000" points="956.5376,-95.5155 946.2049,-97.8574 955.7428,-102.4703 956.5376,-95.5155"/>
</g>
<!-- compDialNew -->
<g id="node7" class="node">
<title>compDialNew</title>
<ellipse fill="none" stroke="#000000" cx="1975.8646" cy="-162" rx="104.7816" ry="18"/>
<text text-anchor="middle" x="1975.8646" y="-158.3" font-family="Times,serif" font-size="14.00" fill="#000000">Components.Dialogs.New</text>
</g>
<!-- compDialNew&#45;&gt;compIndex -->
<g id="edge14" class="edge">
<title>compDialNew&#45;&gt;compIndex</title>
<path fill="none" stroke="#000000" d="M1901.809,-149.1857C1888.5398,-147.21 1874.816,-145.3735 1861.8646,-144 1531.5318,-108.9676 1136.3839,-96.0308 963.7817,-91.8113"/>
<polygon fill="#000000" stroke="#000000" points="963.8154,-88.3112 953.7341,-91.5694 963.6469,-95.3091 963.8154,-88.3112"/>
</g>
<!-- compDialTimelineNameEdit&#45;&gt;compIndex -->
<g id="edge15" class="edge">
<title>compDialTimelineNameEdit&#45;&gt;compIndex</title>
<path fill="none" stroke="#000000" d="M1585.0732,-149.3989C1567.2825,-147.5105 1549.0755,-145.6469 1531.8646,-144 1326.8966,-124.3872 1085.4785,-105.6316 960.4619,-96.2427"/>
<polygon fill="#000000" stroke="#000000" points="960.4314,-92.7307 950.1977,-95.4733 959.908,-99.7111 960.4314,-92.7307"/>
</g>
<!-- compDialTimeScaleEdit&#45;&gt;compIndex -->
<g id="edge16" class="edge">
<title>compDialTimeScaleEdit&#45;&gt;compIndex</title>
<path fill="none" stroke="#000000" d="M1099.5903,-145.9314C1051.6108,-133.9365 986.3882,-117.6309 938.7467,-105.7205"/>
<polygon fill="#000000" stroke="#000000" points="939.4103,-102.2788 928.8599,-103.2488 937.7125,-109.0698 939.4103,-102.2788"/>
</g>
<!-- compTopBar -->
<g id="node10" class="node">
<title>compTopBar</title>
<ellipse fill="none" stroke="#000000" cx="2183.8646" cy="-162" rx="85.2851" ry="18"/>
<text text-anchor="middle" x="2183.8646" y="-158.3" font-family="Times,serif" font-size="14.00" fill="#000000">Components.TopBar</text>
</g>
<!-- compTopBar&#45;&gt;compIndex -->
<g id="edge10" class="edge">
<title>compTopBar&#45;&gt;compIndex</title>
<path fill="none" stroke="#000000" d="M2123.8903,-149.1753C2112.6294,-147.149 2100.9214,-145.2976 2089.8646,-144 1871.5489,-118.3785 1204.2723,-98.6889 963.5879,-92.2506"/>
<polygon fill="#000000" stroke="#000000" points="963.573,-88.749 953.4833,-91.9813 963.3865,-95.7465 963.573,-88.749"/>
</g>
<!-- main -->
<g id="node22" class="node">
<title>main</title>
<ellipse fill="none" stroke="#000000" cx="523.8646" cy="-18" rx="29.795" ry="18"/>
<text text-anchor="middle" x="523.8646" y="-14.3" font-family="Times,serif" font-size="14.00" fill="#000000">Main</text>
</g>
<!-- compIndex&#45;&gt;main -->
<g id="edge1" class="edge">
<title>compIndex&#45;&gt;main</title>
<path fill="none" stroke="#000000" d="M817.8404,-77.9698C808.1652,-75.971 798.2321,-73.9235 788.8646,-72 708.4014,-55.4781 614.1534,-36.3189 562.5391,-25.8431"/>
<polygon fill="#000000" stroke="#000000" points="562.9933,-22.364 552.4969,-23.8052 561.6011,-29.2241 562.9933,-22.364"/>
</g>
<!-- plumbing&#45;&gt;compIndex -->
<g id="edge20" class="edge">
<title>plumbing&#45;&gt;compIndex</title>
<path fill="none" stroke="#000000" d="M332.6446,-99.4512C415.46,-118.1993 615.4488,-155.8143 779.8646,-126 797.4146,-122.8176 815.9338,-116.611 831.9747,-110.2352"/>
<polygon fill="#000000" stroke="#000000" points="833.696,-113.3117 841.6113,-106.269 831.0318,-106.8385 833.696,-113.3117"/>
</g>
<!-- plumbing&#45;&gt;main -->
<g id="edge2" class="edge">
<title>plumbing&#45;&gt;main</title>
<path fill="none" stroke="#000000" d="M329.5498,-78.829C372.5104,-65.3805 444.2638,-42.9185 487.5176,-29.3782"/>
<polygon fill="#000000" stroke="#000000" points="488.5818,-32.7126 497.0795,-26.3849 486.4906,-26.0323 488.5818,-32.7126"/>
</g>
<!-- withRoot -->
<g id="node13" class="node">
<title>withRoot</title>
<ellipse fill="none" stroke="#000000" cx="733.8646" cy="-90" rx="46.2923" ry="18"/>
<text text-anchor="middle" x="733.8646" y="-86.3" font-family="Times,serif" font-size="14.00" fill="#000000">WithRoot</text>
</g>
<!-- withRoot&#45;&gt;compIndex -->
<g id="edge19" class="edge">
<title>withRoot&#45;&gt;compIndex</title>
<path fill="none" stroke="#000000" d="M780.181,-90C782.6514,-90 785.1217,-90 787.5921,-90"/>
<polygon fill="#000000" stroke="#000000" points="787.748,-93.5001 797.748,-90 787.7479,-86.5001 787.748,-93.5001"/>
</g>
<!-- timeDataEvent -->
<g id="node14" class="node">
<title>timeDataEvent</title>
<ellipse fill="none" stroke="#000000" cx="1754.8646" cy="-234" rx="85.2851" ry="18"/>
<text text-anchor="middle" x="1754.8646" y="-230.3" font-family="Times,serif" font-size="14.00" fill="#000000">Timeline.Data.Event</text>
</g>
<!-- timeDataIndex -->
<g id="node15" class="node">
<title>timeDataIndex</title>
<ellipse fill="none" stroke="#000000" cx="1942.8646" cy="-234" rx="84.485" ry="18"/>
<text text-anchor="middle" x="1942.8646" y="-230.3" font-family="Times,serif" font-size="14.00" fill="#000000">Timeline.Data.Index</text>
</g>
<!-- timeDataTimeScale&#45;&gt;compBottomBar -->
<g id="edge9" class="edge">
<title>timeDataTimeScale&#45;&gt;compBottomBar</title>
<path fill="none" stroke="#000000" d="M1218.5798,-218.7307C1259.1992,-207.395 1314.7249,-191.8995 1357.4822,-179.9672"/>
<polygon fill="#000000" stroke="#000000" points="1358.5372,-183.3066 1367.2283,-177.2473 1356.6556,-176.5642 1358.5372,-183.3066"/>
</g>
<!-- timeDataTimeScale&#45;&gt;compDialTimeScaleEdit -->
<g id="edge24" class="edge">
<title>timeDataTimeScale&#45;&gt;compDialTimeScaleEdit</title>
<path fill="none" stroke="#000000" d="M1163.8646,-215.8314C1163.8646,-208.131 1163.8646,-198.9743 1163.8646,-190.4166"/>
<polygon fill="#000000" stroke="#000000" points="1167.3647,-190.4132 1163.8646,-180.4133 1160.3647,-190.4133 1167.3647,-190.4132"/>
</g>
<!-- timeDataTimeScale&#45;&gt;plumbing -->
<g id="edge6" class="edge">
<title>timeDataTimeScale&#45;&gt;plumbing</title>
<path fill="none" stroke="#000000" d="M1060.9756,-232.9533C786.3742,-229.6584 54.5363,-217.3936 18.8646,-180 7.8206,-168.4229 8.6992,-156.3557 18.8646,-144 46.0814,-110.9191 165.9692,-97.7981 238.163,-92.8301"/>
<polygon fill="#000000" stroke="#000000" points="238.7025,-96.3023 248.4518,-92.1548 238.244,-89.3173 238.7025,-96.3023"/>
</g>
<!-- timeDataTimelineName&#45;&gt;compBottomBar -->
<g id="edge21" class="edge">
<title>timeDataTimelineName&#45;&gt;compBottomBar</title>
<path fill="none" stroke="#000000" d="M1407.6591,-215.8314C1409.7135,-208.0463 1412.1607,-198.7729 1414.4402,-190.1347"/>
<polygon fill="#000000" stroke="#000000" points="1417.8381,-190.9753 1417.0056,-180.4133 1411.0698,-189.1892 1417.8381,-190.9753"/>
</g>
<!-- timeDataTimelineName&#45;&gt;compDialTimelineNameEdit -->
<g id="edge26" class="edge">
<title>timeDataTimelineName&#45;&gt;compDialTimelineNameEdit</title>
<path fill="none" stroke="#000000" d="M1465.5744,-218.6425C1510.855,-207.5534 1572.2518,-192.5174 1620.4087,-180.7239"/>
<polygon fill="#000000" stroke="#000000" points="1621.2833,-184.1132 1630.1637,-178.3349 1619.6181,-177.3141 1621.2833,-184.1132"/>
</g>
<!-- timeDataTimelineName&#45;&gt;plumbing -->
<g id="edge5" class="edge">
<title>timeDataTimelineName&#45;&gt;plumbing</title>
<path fill="none" stroke="#000000" d="M1320.6954,-220.9916C1305.8083,-219.0235 1290.398,-217.2398 1275.8646,-216 1208.0814,-210.2178 99.2563,-228.806 51.8646,-180 -6.6335,-119.756 150.07,-99.4877 238.3444,-92.9489"/>
<polygon fill="#000000" stroke="#000000" points="238.7607,-96.4283 248.4904,-92.2351 238.2694,-89.4456 238.7607,-96.4283"/>
</g>
<!-- timeDataTimeline -->
<g id="node18" class="node">
<title>timeDataTimeline</title>
<ellipse fill="none" stroke="#000000" cx="1317.8646" cy="-306" rx="96.6831" ry="18"/>
<text text-anchor="middle" x="1317.8646" y="-302.3" font-family="Times,serif" font-size="14.00" fill="#000000">Timeline.Data.Timeline</text>
</g>
<!-- timeDataStoredTimeline -->
<g id="node19" class="node">
<title>timeDataStoredTimeline</title>
<ellipse fill="none" stroke="#000000" cx="1551.8646" cy="-306" rx="119.6788" ry="18"/>
<text text-anchor="middle" x="1551.8646" y="-302.3" font-family="Times,serif" font-size="14.00" fill="#000000">Timeline.Data.StoredTimeline</text>
</g>
<!-- timeDataTimeSpace -->
<g id="node20" class="node">
<title>timeDataTimeSpace</title>
<ellipse fill="none" stroke="#000000" cx="1793.8646" cy="-306" rx="104.7816" ry="18"/>
<text text-anchor="middle" x="1793.8646" y="-302.3" font-family="Times,serif" font-size="14.00" fill="#000000">Timeline.Data.TimeSpace</text>
</g>
<!-- timeDataTimeSpan -->
<g id="node21" class="node">
<title>timeDataTimeSpan</title>
<ellipse fill="none" stroke="#000000" cx="2016.8646" cy="-306" rx="100.9827" ry="18"/>
<text text-anchor="middle" x="2016.8646" y="-302.3" font-family="Times,serif" font-size="14.00" fill="#000000">Timeline.Data.TimeSpan</text>
</g>
</g>
</svg>
