<?xml version="1.0" encoding="UTF-8" standalone="no"?>
<!DOCTYPE svg PUBLIC "-//W3C//DTD SVG 1.1//EN"
 "http://www.w3.org/Graphics/SVG/1.1/DTD/svg11.dtd">
<!-- Generated by graphviz version 2.40.1 (20161225.0304)
 -->
<!-- Title: Modules Pages: 1 -->
<svg width="864pt" height="552pt"
 viewBox="0.00 0.00 864.00 552.32" xmlns="http://www.w3.org/2000/svg" xmlns:xlink="http://www.w3.org/1999/xlink">
<g id="graph0" class="graph" transform="scale(.5733 .5733) rotate(0) translate(4 959.3333)">
<title>Modules</title>
<polygon fill="#ffffff" stroke="transparent" points="-4,4 -4,-959.3333 1502.9428,-959.3333 1502.9428,4 -4,4"/>
<g id="clust1" class="cluster">
<title>cluster_0</title>
<polygon fill="#000000" fill-opacity="0.058824" stroke="#000000" stroke-opacity="0.058824" points="346.7969,-225.1739 346.7969,-538.0994 1366.7969,-538.0994 1366.7969,-225.1739 346.7969,-225.1739"/>
<text text-anchor="middle" x="856.7969" y="-522.8994" font-family="Times,serif" font-size="14.00" fill="#000000">Components</text>
</g>
<g id="clust2" class="cluster">
<title>cluster_1</title>
<polygon fill="#000000" fill-opacity="0.058824" stroke="#000000" stroke-opacity="0.058824" points="664.7969,-362.5962 664.7969,-486.773 1358.7969,-486.773 1358.7969,-362.5962 664.7969,-362.5962"/>
<text text-anchor="middle" x="1011.7969" y="-471.573" font-family="Times,serif" font-size="14.00" fill="#000000">Dialogs</text>
</g>
<g id="clust3" class="cluster">
<title>cluster_2</title>
<polygon fill="#000000" fill-opacity="0.058824" stroke="#000000" stroke-opacity="0.058824" points="232.7969,-105.9642 232.7969,-349.3507 338.7969,-349.3507 338.7969,-105.9642 232.7969,-105.9642"/>
<text text-anchor="middle" x="285.7969" y="-334.1507" font-family="Times,serif" font-size="14.00" fill="#000000">Plumbing</text>
</g>
<g id="clust4" class="cluster">
<title>cluster_3</title>
<polygon fill="#000000" fill-opacity="0.058824" stroke="#000000" stroke-opacity="0.058824" points="610.7969,-753.3391 610.7969,-942.0878 748.7969,-942.0878 748.7969,-753.3391 610.7969,-753.3391"/>
<text text-anchor="middle" x="679.7969" y="-926.8878" font-family="Times,serif" font-size="14.00" fill="#000000">Test</text>
</g>
<g id="clust5" class="cluster">
<title>cluster_4</title>
<polygon fill="#000000" fill-opacity="0.058824" stroke="#000000" stroke-opacity="0.058824" points="618.7969,-766.5846 618.7969,-890.7614 740.7969,-890.7614 740.7969,-766.5846 618.7969,-766.5846"/>
<text text-anchor="middle" x="679.7969" y="-875.5614" font-family="Times,serif" font-size="14.00" fill="#000000">QuickCheck</text>
</g>
<g id="clust6" class="cluster">
<title>cluster_5</title>
<polygon fill="#000000" fill-opacity="0.058824" stroke="#000000" stroke-opacity="0.058824" points="73.7969,-551.3449 73.7969,-740.0936 994.7969,-740.0936 994.7969,-551.3449 73.7969,-551.3449"/>
<text text-anchor="middle" x="534.2969" y="-724.8936" font-family="Times,serif" font-size="14.00" fill="#000000">Timeline</text>
</g>
<g id="clust7" class="cluster">
<title>cluster_6</title>
<polygon fill="#000000" fill-opacity="0.058824" stroke="#000000" stroke-opacity="0.058824" points="81.7969,-564.5904 81.7969,-688.7672 986.7969,-688.7672 986.7969,-564.5904 81.7969,-564.5904"/>
<text text-anchor="middle" x="534.2969" y="-673.5672" font-family="Times,serif" font-size="14.00" fill="#000000">Data</text>
</g>
<!-- u10 -->
<g id="node1" class="node">
<title>u10</title>
<ellipse fill="#bbffbb" stroke="#000000" stroke-width="0" cx="1012.7969" cy="-810" rx="38.9931" ry="18"/>
<text text-anchor="middle" x="1012.7969" y="-806.3" font-family="Times,serif" font-size="14.00" fill="#000000">Settings</text>
</g>
<!-- u7 -->
<g id="node5" class="node">
<title>u7</title>
<ellipse fill="#ffffbb" stroke="#000000" stroke-width="0" cx="616.7969" cy="-406" rx="37.8943" ry="18"/>
<text text-anchor="middle" x="616.7969" y="-402.3" font-family="Times,serif" font-size="14.00" fill="#000000">TopBar</text>
</g>
<!-- u10&#45;&gt;u7 -->
<g id="edge7" class="edge">
<title>u10&#45;&gt;u7</title>
<path fill="none" stroke="#000000" d="M1013.6798,-791.6683C1015.6783,-742.0551 1018.4182,-606.6887 990.7969,-574 892.8274,-458.0571 780.3121,-579.5783 660.7969,-486 643.8956,-472.7666 632.563,-451.1473 625.637,-433.7174"/>
<polygon fill="#000000" stroke="#000000" points="628.8082,-432.2015 622.0595,-424.0342 622.242,-434.6274 628.8082,-432.2015"/>
</g>
<!-- u8 -->
<g id="node6" class="node">
<title>u8</title>
<ellipse fill="#ffffbb" stroke="#000000" stroke-width="0" cx="795.7969" cy="-268" rx="30.5947" ry="18"/>
<text text-anchor="middle" x="795.7969" y="-264.3" font-family="Times,serif" font-size="14.00" fill="#000000">Index</text>
</g>
<!-- u10&#45;&gt;u8 -->
<g id="edge18" class="edge">
<title>u10&#45;&gt;u8</title>
<path fill="none" stroke="#000000" d="M1039.2423,-796.7676C1141.3195,-744.0348 1497.4001,-543.7924 1362.7969,-380 1295.7006,-298.3537 955.141,-275.2401 836.5684,-269.6127"/>
<polygon fill="#000000" stroke="#000000" points="836.6022,-266.1107 826.4526,-269.1498 836.2822,-273.1034 836.6022,-266.1107"/>
</g>
<!-- u2 -->
<g id="node9" class="node">
<title>u2</title>
<ellipse fill="#bbbbff" stroke="#000000" stroke-width="0" cx="1224.7969" cy="-406" rx="53.8905" ry="18"/>
<text text-anchor="middle" x="1224.7969" y="-402.3" font-family="Times,serif" font-size="14.00" fill="#000000">SettingsEdit</text>
</g>
<!-- u10&#45;&gt;u2 -->
<g id="edge2" class="edge">
<title>u10&#45;&gt;u2</title>
<path fill="none" stroke="#000000" d="M1024.0898,-792.5129C1039.0604,-769.0836 1066.0068,-726.0411 1086.7969,-688 1136.7886,-596.5264 1189.1054,-484.339 1212.3722,-433.4399"/>
<polygon fill="#000000" stroke="#000000" points="1215.6659,-434.6525 1216.6289,-424.1016 1209.2964,-431.7491 1215.6659,-434.6525"/>
</g>
<!-- u3 -->
<g id="node10" class="node">
<title>u3</title>
<ellipse fill="#bbbbff" stroke="#000000" stroke-width="0" cx="927.7969" cy="-406" rx="79.0865" ry="18"/>
<text text-anchor="middle" x="927.7969" y="-402.3" font-family="Times,serif" font-size="14.00" fill="#000000">TimelineNameEdit</text>
</g>
<!-- u10&#45;&gt;u3 -->
<g id="edge3" class="edge">
<title>u10&#45;&gt;u3</title>
<path fill="none" stroke="#000000" d="M1017.69,-792.1316C1027.8047,-752.1939 1048.3418,-652.998 1026.7969,-574 1011.8154,-519.0678 973.7881,-463.8014 949.4628,-432.3501"/>
<polygon fill="#000000" stroke="#000000" points="951.9299,-429.8256 942.9956,-424.1309 946.4286,-434.1541 951.9299,-429.8256"/>
</g>
<!-- u4 -->
<g id="node11" class="node">
<title>u4</title>
<ellipse fill="#bbbbff" stroke="#000000" stroke-width="0" cx="1088.7969" cy="-406" rx="63.8893" ry="18"/>
<text text-anchor="middle" x="1088.7969" y="-402.3" font-family="Times,serif" font-size="14.00" fill="#000000">TimeScaleEdit</text>
</g>
<!-- u10&#45;&gt;u4 -->
<g id="edge5" class="edge">
<title>u10&#45;&gt;u4</title>
<path fill="none" stroke="#000000" d="M1022.4067,-792.4334C1034.5762,-769.2662 1055.122,-726.8765 1064.7969,-688 1087.3487,-597.38 1089.6434,-485.8858 1089.3291,-434.4576"/>
<polygon fill="#000000" stroke="#000000" points="1092.8258,-434.1031 1089.2247,-424.139 1085.8261,-434.1739 1092.8258,-434.1031"/>
</g>
<!-- u11 -->
<g id="node14" class="node">
<title>u11</title>
<ellipse fill="#bbffbb" stroke="#000000" stroke-width="2" cx="285.7969" cy="-149" rx="45.4919" ry="18"/>
<text text-anchor="middle" x="285.7969" y="-145.3" font-family="Times,serif" font-size="14.00" fill="#000000">Plumbing</text>
</g>
<!-- u10&#45;&gt;u11 -->
<g id="edge24" class="edge">
<title>u10&#45;&gt;u11</title>
<path fill="none" stroke="#000000" d="M975.0737,-805.1963C923.1995,-798.5947 826.9261,-786.3574 744.7969,-776 588.8115,-756.3285 146.8254,-805.8833 42.7969,-688 -103.894,-521.7724 169.9001,-252.374 259.0851,-172.21"/>
<polygon fill="#000000" stroke="#000000" points="261.5029,-174.7435 266.6391,-165.4769 256.8452,-169.518 261.5029,-174.7435"/>
</g>
<!-- u22 -->
<g id="node15" class="node">
<title>u22</title>
<ellipse fill="#ffbbbb" stroke="#000000" stroke-width="0" cx="299.7969" cy="-268" rx="31.3957" ry="18"/>
<text text-anchor="middle" x="299.7969" y="-264.3" font-family="Times,serif" font-size="14.00" fill="#000000">Logic</text>
</g>
<!-- u10&#45;&gt;u22 -->
<g id="edge36" class="edge">
<title>u10&#45;&gt;u22</title>
<path fill="none" stroke="#000000" d="M975.0693,-805.1615C800.5219,-782.7658 79.6954,-690.1624 77.7969,-688 -37.7094,-556.4431 190.9586,-354.2959 272.4599,-289.0668"/>
<polygon fill="#000000" stroke="#000000" points="275.0941,-291.4451 280.759,-282.4919 270.7472,-285.9583 275.0941,-291.4451"/>
</g>
<!-- u15 -->
<g id="node18" class="node">
<title>u15</title>
<ellipse fill="#ffff77" stroke="#000000" stroke-width="0" cx="810.7969" cy="-608" rx="48.9926" ry="18"/>
<text text-anchor="middle" x="810.7969" y="-604.3" font-family="Times,serif" font-size="14.00" fill="#000000">TimeScale</text>
</g>
<!-- u10&#45;&gt;u15 -->
<g id="edge30" class="edge">
<title>u10&#45;&gt;u15</title>
<path fill="none" stroke="#000000" d="M991.4263,-794.7273C961.7904,-772.9719 907.3957,-730.9178 867.7969,-688 852.4777,-671.3968 837.7501,-650.5556 827.1038,-634.308"/>
<polygon fill="#000000" stroke="#000000" points="829.9883,-632.3226 821.6312,-625.8103 824.1031,-636.1127 829.9883,-632.3226"/>
</g>
<!-- u16 -->
<g id="node19" class="node">
<title>u16</title>
<ellipse fill="#ffff77" stroke="#000000" stroke-width="0" cx="679.7969" cy="-608" rx="64.189" ry="18"/>
<text text-anchor="middle" x="679.7969" y="-604.3" font-family="Times,serif" font-size="14.00" fill="#000000">TimelineName</text>
</g>
<!-- u10&#45;&gt;u16 -->
<g id="edge31" class="edge">
<title>u10&#45;&gt;u16</title>
<path fill="none" stroke="#000000" d="M980.6138,-799.5344C929.2169,-781.847 826.8626,-742.5631 752.7969,-688 731.9822,-672.6662 712.4675,-650.7253 698.8611,-633.6984"/>
<polygon fill="#000000" stroke="#000000" points="701.592,-631.5088 692.6764,-625.785 696.0767,-635.8194 701.592,-631.5088"/>
</g>
<!-- u13 -->
<g id="node2" class="node">
<title>u13</title>
<ellipse fill="#bbffbb" stroke="#000000" stroke-width="0" cx="430.7969" cy="-30" rx="29.795" ry="18"/>
<text text-anchor="middle" x="430.7969" y="-26.3" font-family="Times,serif" font-size="14.00" fill="#000000">Main</text>
</g>
<!-- u23 -->
<g id="node3" class="node">
<title>u23</title>
<ellipse fill="#bbffbb" stroke="#000000" stroke-width="0" cx="1452.7969" cy="-406" rx="46.2923" ry="18"/>
<text text-anchor="middle" x="1452.7969" y="-402.3" font-family="Times,serif" font-size="14.00" fill="#000000">WithRoot</text>
</g>
<!-- u23&#45;&gt;u8 -->
<g id="edge20" class="edge">
<title>u23&#45;&gt;u8</title>
<path fill="none" stroke="#000000" d="M1423.6886,-391.8313C1414.0304,-387.5528 1403.1091,-383.1581 1392.7969,-380 1188.2516,-317.3585 933.0063,-283.6659 835.8506,-272.3771"/>
<polygon fill="#000000" stroke="#000000" points="836.2039,-268.8947 825.8701,-271.232 835.4059,-275.8491 836.2039,-268.8947"/>
</g>
<!-- u0 -->
<g id="node4" class="node">
<title>u0</title>
<ellipse fill="#ffffbb" stroke="#000000" stroke-width="0" cx="510.7969" cy="-406" rx="50.0912" ry="18"/>
<text text-anchor="middle" x="510.7969" y="-402.3" font-family="Times,serif" font-size="14.00" fill="#000000">BottomBar</text>
</g>
<!-- u0&#45;&gt;u8 -->
<g id="edge9" class="edge">
<title>u0&#45;&gt;u8</title>
<path fill="none" stroke="#000000" d="M540.7582,-391.4924C594.5279,-365.4566 706.9897,-311.0014 762.8513,-283.9526"/>
<polygon fill="#000000" stroke="#000000" points="764.4807,-287.0524 771.9557,-279.5441 761.43,-280.7521 764.4807,-287.0524"/>
</g>
<!-- u7&#45;&gt;u8 -->
<g id="edge16" class="edge">
<title>u7&#45;&gt;u8</title>
<path fill="none" stroke="#000000" d="M636.9825,-390.4379C669.3172,-365.5095 732.7528,-316.6038 768.8986,-288.7372"/>
<polygon fill="#000000" stroke="#000000" points="771.253,-291.3415 777.0357,-282.464 766.979,-285.7978 771.253,-291.3415"/>
</g>
<!-- u8&#45;&gt;u13 -->
<g id="edge28" class="edge">
<title>u8&#45;&gt;u13</title>
<path fill="none" stroke="#000000" d="M775.1271,-254.5222C713.5181,-214.3497 531.0067,-95.3423 459.7537,-48.8814"/>
<polygon fill="#000000" stroke="#000000" points="461.5283,-45.8602 451.24,-43.33 457.7048,-51.7238 461.5283,-45.8602"/>
</g>
<!-- u9 -->
<g id="node7" class="node">
<title>u9</title>
<ellipse fill="#ffffbb" stroke="#000000" stroke-width="0" cx="398.7969" cy="-406" rx="43.5923" ry="18"/>
<text text-anchor="middle" x="398.7969" y="-402.3" font-family="Times,serif" font-size="14.00" fill="#000000">Snackbar</text>
</g>
<!-- u9&#45;&gt;u8 -->
<g id="edge17" class="edge">
<title>u9&#45;&gt;u8</title>
<path fill="none" stroke="#000000" d="M425.9692,-391.7552C434.1614,-387.7107 443.2495,-383.4677 451.7969,-380 560.6295,-335.8461 694.0132,-296.4379 758.0122,-278.4013"/>
<polygon fill="#000000" stroke="#000000" points="758.9896,-281.7623 767.6735,-275.6926 757.0999,-275.0222 758.9896,-281.7623"/>
</g>
<!-- u9&#45;&gt;u11 -->
<g id="edge23" class="edge">
<title>u9&#45;&gt;u11</title>
<path fill="none" stroke="#000000" d="M393.4535,-387.8599C384.1517,-357.1603 363.6779,-293.2973 339.7969,-242 328.9441,-218.6878 314.1386,-193.5407 302.7749,-175.2809"/>
<polygon fill="#000000" stroke="#000000" points="305.6356,-173.2554 297.3457,-166.6578 299.7119,-176.9851 305.6356,-173.2554"/>
</g>
<!-- u9&#45;&gt;u22 -->
<g id="edge35" class="edge">
<title>u9&#45;&gt;u22</title>
<path fill="none" stroke="#000000" d="M386.2585,-388.5222C368.9812,-364.4387 337.7463,-320.8992 317.9258,-293.2706"/>
<polygon fill="#000000" stroke="#000000" points="320.5968,-290.9894 311.9238,-284.9042 314.9091,-295.0698 320.5968,-290.9894"/>
</g>
<!-- u1 -->
<g id="node8" class="node">
<title>u1</title>
<ellipse fill="#bbbbff" stroke="#000000" stroke-width="0" cx="707.7969" cy="-406" rx="35.194" ry="18"/>
<text text-anchor="middle" x="707.7969" y="-402.3" font-family="Times,serif" font-size="14.00" fill="#000000">Import</text>
</g>
<!-- u1&#45;&gt;u8 -->
<g id="edge10" class="edge">
<title>u1&#45;&gt;u8</title>
<path fill="none" stroke="#000000" d="M718.7642,-388.8012C733.9975,-364.9127 761.6792,-321.5027 779.3799,-293.7447"/>
<polygon fill="#000000" stroke="#000000" points="782.5421,-295.2954 784.9678,-284.982 776.64,-291.5318 782.5421,-295.2954"/>
</g>
<!-- u1&#45;&gt;u11 -->
<g id="edge21" class="edge">
<title>u1&#45;&gt;u11</title>
<path fill="none" stroke="#000000" d="M689.7034,-390.3245C653.3732,-359.3446 568.2193,-289.1968 488.7969,-242 435.7741,-210.4912 370.246,-182.2249 328.2383,-165.3417"/>
<polygon fill="#000000" stroke="#000000" points="329.4522,-162.0578 318.8669,-161.6074 326.8609,-168.5606 329.4522,-162.0578"/>
</g>
<!-- u1&#45;&gt;u22 -->
<g id="edge33" class="edge">
<title>u1&#45;&gt;u22</title>
<path fill="none" stroke="#000000" d="M687.8193,-391.0566C681.9035,-387.087 675.2717,-383.0589 668.7969,-380 608.7146,-351.6157 419.9355,-299.907 338.1768,-278.1138"/>
<polygon fill="#000000" stroke="#000000" points="338.8557,-274.6728 328.2921,-275.4859 337.0571,-281.4378 338.8557,-274.6728"/>
</g>
<!-- u2&#45;&gt;u8 -->
<g id="edge11" class="edge">
<title>u2&#45;&gt;u8</title>
<path fill="none" stroke="#000000" d="M1191.6757,-391.644C1182.106,-387.6837 1171.5987,-383.5135 1161.7969,-380 1043.3946,-337.5586 899.9927,-296.6488 833.2898,-278.2081"/>
<polygon fill="#000000" stroke="#000000" points="834.2079,-274.8307 823.6374,-275.5486 832.3484,-281.5792 834.2079,-274.8307"/>
</g>
<!-- u3&#45;&gt;u8 -->
<g id="edge12" class="edge">
<title>u3&#45;&gt;u8</title>
<path fill="none" stroke="#000000" d="M910.8104,-388.2414C887.2349,-363.5943 844.5444,-318.9633 818.3294,-291.5568"/>
<polygon fill="#000000" stroke="#000000" points="820.5236,-288.7871 811.082,-283.9799 815.465,-293.6257 820.5236,-288.7871"/>
</g>
<!-- u4&#45;&gt;u8 -->
<g id="edge13" class="edge">
<title>u4&#45;&gt;u8</title>
<path fill="none" stroke="#000000" d="M1055.7556,-390.4379C999.4476,-363.9174 885.5212,-310.2593 829.0614,-283.6672"/>
<polygon fill="#000000" stroke="#000000" points="830.4,-280.429 819.8618,-279.3343 827.4173,-286.7617 830.4,-280.429"/>
</g>
<!-- u5 -->
<g id="node12" class="node">
<title>u5</title>
<ellipse fill="#bbbbff" stroke="#000000" stroke-width="0" cx="795.7969" cy="-406" rx="34.394" ry="18"/>
<text text-anchor="middle" x="795.7969" y="-402.3" font-family="Times,serif" font-size="14.00" fill="#000000">Export</text>
</g>
<!-- u5&#45;&gt;u8 -->
<g id="edge14" class="edge">
<title>u5&#45;&gt;u8</title>
<path fill="none" stroke="#000000" d="M795.7969,-387.9589C795.7969,-364.6106 795.7969,-323.6738 795.7969,-296.2014"/>
<polygon fill="#000000" stroke="#000000" points="799.297,-296.0455 795.7969,-286.0455 792.297,-296.0456 799.297,-296.0455"/>
</g>
<!-- u5&#45;&gt;u11 -->
<g id="edge22" class="edge">
<title>u5&#45;&gt;u11</title>
<path fill="none" stroke="#000000" d="M777.1959,-390.77C738.1033,-359.362 643.6761,-286.611 554.7969,-242 481.001,-204.9598 388.933,-176.6507 333.8879,-161.4559"/>
<polygon fill="#000000" stroke="#000000" points="334.622,-158.0283 324.0534,-158.7722 332.7792,-164.7814 334.622,-158.0283"/>
</g>
<!-- u5&#45;&gt;u22 -->
<g id="edge34" class="edge">
<title>u5&#45;&gt;u22</title>
<path fill="none" stroke="#000000" d="M774.5114,-391.7358C767.4993,-387.5022 759.5165,-383.1579 751.7969,-380 606.2465,-320.4595 420.9246,-286.738 340.3028,-273.9747"/>
<polygon fill="#000000" stroke="#000000" points="340.5097,-270.4647 330.0898,-272.3818 339.431,-277.3811 340.5097,-270.4647"/>
</g>
<!-- u6 -->
<g id="node13" class="node">
<title>u6</title>
<ellipse fill="#bbbbff" stroke="#000000" stroke-width="0" cx="1323.7969" cy="-406" rx="27.0966" ry="18"/>
<text text-anchor="middle" x="1323.7969" y="-402.3" font-family="Times,serif" font-size="14.00" fill="#000000">New</text>
</g>
<!-- u6&#45;&gt;u8 -->
<g id="edge15" class="edge">
<title>u6&#45;&gt;u8</title>
<path fill="none" stroke="#000000" d="M1306.7266,-391.5292C1301.008,-387.2844 1294.4002,-382.9858 1287.7969,-380 1130.1406,-308.7127 922.8897,-280.757 836.4183,-271.704"/>
<polygon fill="#000000" stroke="#000000" points="836.5441,-268.1988 826.2411,-270.6681 835.8353,-275.1628 836.5441,-268.1988"/>
</g>
<!-- u11&#45;&gt;u13 -->
<g id="edge29" class="edge">
<title>u11&#45;&gt;u13</title>
<path fill="none" stroke="#000000" d="M305.6545,-132.7031C331.4918,-111.4987 376.6821,-74.4115 405.1054,-51.0847"/>
<polygon fill="#000000" stroke="#000000" points="407.4881,-53.6571 412.9977,-44.6076 403.0473,-48.2461 407.4881,-53.6571"/>
</g>
<!-- u11&#45;&gt;u8 -->
<g id="edge19" class="edge">
<title>u11&#45;&gt;u8</title>
<path fill="none" stroke="#000000" d="M325.2666,-158.1263C397.0434,-174.7338 553.7353,-211.0407 685.7969,-242 709.6041,-247.5811 736.2971,-253.8892 757.4259,-258.8941"/>
<polygon fill="#000000" stroke="#000000" points="756.7766,-262.3371 767.3142,-261.2375 758.3909,-255.5258 756.7766,-262.3371"/>
</g>
<!-- u22&#45;&gt;u11 -->
<g id="edge27" class="edge">
<title>u22&#45;&gt;u11</title>
<path fill="none" stroke="#000000" d="M297.6706,-249.9265C295.399,-230.6178 291.768,-199.7542 289.1187,-177.2356"/>
<polygon fill="#000000" stroke="#000000" points="292.5877,-176.7662 287.9432,-167.2436 285.6357,-177.5841 292.5877,-176.7662"/>
</g>
<!-- u12 -->
<g id="node16" class="node">
<title>u12</title>
<ellipse fill="#ffbbff" stroke="#000000" stroke-width="0" cx="679.7969" cy="-810" rx="53.0913" ry="18"/>
<text text-anchor="middle" x="679.7969" y="-806.3" font-family="Times,serif" font-size="14.00" fill="#000000">UTF8String</text>
</g>
<!-- u12&#45;&gt;u16 -->
<g id="edge32" class="edge">
<title>u12&#45;&gt;u16</title>
<path fill="none" stroke="#000000" d="M679.7969,-791.7176C679.7969,-756.3388 679.7969,-678.2998 679.7969,-636.2163"/>
<polygon fill="#000000" stroke="#000000" points="683.297,-636.0955 679.7969,-626.0956 676.297,-636.0956 683.297,-636.0955"/>
</g>
<!-- u14 -->
<g id="node17" class="node">
<title>u14</title>
<ellipse fill="#ffff77" stroke="#000000" stroke-width="0" cx="927.7969" cy="-608" rx="50.8918" ry="18"/>
<text text-anchor="middle" x="927.7969" y="-604.3" font-family="Times,serif" font-size="14.00" fill="#000000">TimeSpace</text>
</g>
<!-- u15&#45;&gt;u0 -->
<g id="edge1" class="edge">
<title>u15&#45;&gt;u0</title>
<path fill="none" stroke="#000000" d="M785.3559,-592.4787C775.316,-586.5141 763.6149,-579.7594 752.7969,-574 673.1347,-531.5886 639.2979,-543.5708 569.7969,-486 551.8552,-471.1381 536.429,-449.7036 525.8546,-432.7614"/>
<polygon fill="#000000" stroke="#000000" points="528.6585,-430.6337 520.494,-423.8816 522.6658,-434.2514 528.6585,-430.6337"/>
</g>
<!-- u15&#45;&gt;u4 -->
<g id="edge6" class="edge">
<title>u15&#45;&gt;u4</title>
<path fill="none" stroke="#000000" d="M836.6135,-592.5903C846.3811,-586.7627 857.5999,-580.0727 867.7969,-574 933.5473,-534.8429 956.4737,-534.3441 1015.7969,-486 1035.5316,-469.9176 1054.8116,-448.4684 1068.5974,-431.8281"/>
<polygon fill="#000000" stroke="#000000" points="1071.6811,-433.5839 1075.279,-423.6186 1066.252,-429.1652 1071.6811,-433.5839"/>
</g>
<!-- u15&#45;&gt;u11 -->
<g id="edge25" class="edge">
<title>u15&#45;&gt;u11</title>
<path fill="none" stroke="#000000" d="M787.7244,-592.0237C777.4379,-585.5599 764.9232,-578.5619 752.7969,-574 558.3835,-500.8624 441.3414,-632.2064 293.7969,-486 209.7484,-402.7138 253.4695,-240.7787 275.5659,-176.3752"/>
<polygon fill="#000000" stroke="#000000" points="278.8811,-177.4981 278.9037,-166.9033 272.279,-175.1715 278.8811,-177.4981"/>
</g>
<!-- u15&#45;&gt;u22 -->
<g id="edge37" class="edge">
<title>u15&#45;&gt;u22</title>
<path fill="none" stroke="#000000" d="M787.6754,-592.1519C777.3802,-585.7107 764.8722,-578.695 752.7969,-574 579.0923,-506.4623 473.4784,-618.8795 342.7969,-486 292.4631,-434.8196 292.5834,-342.8613 296.4037,-296.4482"/>
<polygon fill="#000000" stroke="#000000" points="299.9149,-296.4928 297.3697,-286.2082 292.9459,-295.8353 299.9149,-296.4928"/>
</g>
<!-- u16&#45;&gt;u7 -->
<g id="edge8" class="edge">
<title>u16&#45;&gt;u7</title>
<path fill="none" stroke="#000000" d="M674.0949,-589.7176C662.9861,-554.0988 638.3913,-475.2393 625.3315,-433.365"/>
<polygon fill="#000000" stroke="#000000" points="628.6691,-432.3108 622.3504,-423.8064 621.9865,-434.395 628.6691,-432.3108"/>
</g>
<!-- u16&#45;&gt;u3 -->
<g id="edge4" class="edge">
<title>u16&#45;&gt;u3</title>
<path fill="none" stroke="#000000" d="M702.8759,-591.17C734.208,-568.1247 791.6984,-525.137 838.7969,-486 860.4138,-468.0372 884.0375,-446.7189 901.5105,-430.6076"/>
<polygon fill="#000000" stroke="#000000" points="904.1167,-432.9645 909.0765,-423.6023 899.3609,-427.828 904.1167,-432.9645"/>
</g>
<!-- u16&#45;&gt;u11 -->
<g id="edge26" class="edge">
<title>u16&#45;&gt;u11</title>
<path fill="none" stroke="#000000" d="M649.0581,-592.1724C636.2174,-585.9604 621.005,-579.1106 606.7969,-574 460.7288,-521.4595 377.9495,-596.3726 268.7969,-486 191.421,-407.7593 196.1048,-347.6723 226.7969,-242 234.13,-216.7522 250.6064,-191.7968 264.2888,-174.1034"/>
<polygon fill="#000000" stroke="#000000" points="267.2281,-176.0312 270.7288,-166.0314 261.7562,-171.6656 267.2281,-176.0312"/>
</g>
<!-- u16&#45;&gt;u22 -->
<g id="edge38" class="edge">
<title>u16&#45;&gt;u22</title>
<path fill="none" stroke="#000000" d="M648.6391,-592.1681C635.8651,-586.0267 620.8127,-579.229 606.7969,-574 473.411,-524.2361 384.5294,-599.6582 298.7969,-486 256.4019,-429.7957 276.1437,-340.174 290.1071,-295.3707"/>
<polygon fill="#000000" stroke="#000000" points="293.4703,-296.3458 293.2328,-285.7536 286.8131,-294.182 293.4703,-296.3458"/>
</g>
<!-- u17 -->
<g id="node20" class="node">
<title>u17</title>
<ellipse fill="#ffff77" stroke="#000000" stroke-width="0" cx="566.7969" cy="-608" rx="30.5947" ry="18"/>
<text text-anchor="middle" x="566.7969" y="-604.3" font-family="Times,serif" font-size="14.00" fill="#000000">Index</text>
</g>
<!-- u18 -->
<g id="node21" class="node">
<title>u18</title>
<ellipse fill="#ffff77" stroke="#000000" stroke-width="0" cx="452.7969" cy="-608" rx="65.7887" ry="18"/>
<text text-anchor="middle" x="452.7969" y="-604.3" font-family="Times,serif" font-size="14.00" fill="#000000">StoredTimeline</text>
</g>
<!-- u19 -->
<g id="node22" class="node">
<title>u19</title>
<ellipse fill="#ffff77" stroke="#000000" stroke-width="0" cx="337.7969" cy="-608" rx="31.3957" ry="18"/>
<text text-anchor="middle" x="337.7969" y="-604.3" font-family="Times,serif" font-size="14.00" fill="#000000">Event</text>
</g>
<!-- u20 -->
<g id="node23" class="node">
<title>u20</title>
<ellipse fill="#ffff77" stroke="#000000" stroke-width="0" cx="240.7969" cy="-608" rx="47.3916" ry="18"/>
<text text-anchor="middle" x="240.7969" y="-604.3" font-family="Times,serif" font-size="14.00" fill="#000000">TimeSpan</text>
</g>
<!-- u21 -->
<g id="node24" class="node">
<title>u21</title>
<ellipse fill="#ffff77" stroke="#000000" stroke-width="0" cx="132.7969" cy="-608" rx="42.7926" ry="18"/>
<text text-anchor="middle" x="132.7969" y="-604.3" font-family="Times,serif" font-size="14.00" fill="#000000">Timeline</text>
</g>
</g>
</svg>
