<?xml version="1.0" encoding="UTF-8" standalone="no"?>
<!DOCTYPE svg PUBLIC "-//W3C//DTD SVG 1.1//EN"
 "http://www.w3.org/Graphics/SVG/1.1/DTD/svg11.dtd">
<!-- Generated by graphviz version 2.40.1 (20161225.0304)
 -->
<!-- Title: Modules Pages: 1 -->
<svg width="864pt" height="537pt"
 viewBox="0.00 0.00 864.00 536.95" xmlns="http://www.w3.org/2000/svg" xmlns:xlink="http://www.w3.org/1999/xlink">
<g id="graph0" class="graph" transform="scale(.6332 .6332) rotate(0) translate(4 844)">
<title>Modules</title>
<polygon fill="#ffffff" stroke="transparent" points="-4,4 -4,-844 1360.5139,-844 1360.5139,4 -4,4"/>
<g id="clust1" class="cluster">
<title>cluster_0</title>
<polygon fill="#000000" fill-opacity="0.058824" stroke="#000000" stroke-opacity="0.058824" points="206.0959,-197.9896 206.0959,-473.1369 1217.0959,-473.1369 1217.0959,-197.9896 206.0959,-197.9896"/>
<text text-anchor="middle" x="711.5959" y="-457.9369" font-family="Times,serif" font-size="14.00" fill="#000000">Components</text>
</g>
<g id="clust2" class="cluster">
<title>cluster_1</title>
<polygon fill="#000000" fill-opacity="0.058824" stroke="#000000" stroke-opacity="0.058824" points="312.0959,-318.8215 312.0959,-428.0069 1006.0959,-428.0069 1006.0959,-318.8215 312.0959,-318.8215"/>
<text text-anchor="middle" x="659.0959" y="-412.8069" font-family="Times,serif" font-size="14.00" fill="#000000">Dialogs</text>
</g>
<g id="clust3" class="cluster">
<title>cluster_2</title>
<polygon fill="#000000" fill-opacity="0.058824" stroke="#000000" stroke-opacity="0.058824" points="92.0959,-93.1716 92.0959,-307.175 198.0959,-307.175 198.0959,-93.1716 92.0959,-93.1716"/>
<text text-anchor="middle" x="145.0959" y="-291.975" font-family="Times,serif" font-size="14.00" fill="#000000">Plumbing</text>
</g>
<g id="clust4" class="cluster">
<title>cluster_3</title>
<polygon fill="#000000" fill-opacity="0.058824" stroke="#000000" stroke-opacity="0.058824" points="1081.0959,-674.0381 1081.0959,-783.2236 1191.0959,-783.2236 1191.0959,-674.0381 1081.0959,-674.0381"/>
<text text-anchor="middle" x="1136.0959" y="-768.0236" font-family="Times,serif" font-size="14.00" fill="#000000">Scripts</text>
</g>
<g id="clust5" class="cluster">
<title>cluster_4</title>
<polygon fill="#000000" fill-opacity="0.058824" stroke="#000000" stroke-opacity="0.058824" points="643.0959,-662.3917 643.0959,-828.3536 781.0959,-828.3536 781.0959,-662.3917 643.0959,-662.3917"/>
<text text-anchor="middle" x="712.0959" y="-813.1536" font-family="Times,serif" font-size="14.00" fill="#000000">Test</text>
</g>
<g id="clust6" class="cluster">
<title>cluster_5</title>
<polygon fill="#000000" fill-opacity="0.058824" stroke="#000000" stroke-opacity="0.058824" points="651.0959,-674.0381 651.0959,-783.2236 773.0959,-783.2236 773.0959,-674.0381 651.0959,-674.0381"/>
<text text-anchor="middle" x="712.0959" y="-768.0236" font-family="Times,serif" font-size="14.00" fill="#000000">QuickCheck</text>
</g>
<g id="clust7" class="cluster">
<title>cluster_6</title>
<polygon fill="#000000" fill-opacity="0.058824" stroke="#000000" stroke-opacity="0.058824" points="67.0959,-484.7834 67.0959,-650.7452 989.0959,-650.7452 989.0959,-484.7834 67.0959,-484.7834"/>
<text text-anchor="middle" x="528.0959" y="-635.5452" font-family="Times,serif" font-size="14.00" fill="#000000">Timeline</text>
</g>
<g id="clust8" class="cluster">
<title>cluster_7</title>
<polygon fill="#000000" fill-opacity="0.058824" stroke="#000000" stroke-opacity="0.058824" points="75.0959,-496.4298 75.0959,-605.6153 981.0959,-605.6153 981.0959,-496.4298 75.0959,-496.4298"/>
<text text-anchor="middle" x="528.0959" y="-590.4153" font-family="Times,serif" font-size="14.00" fill="#000000">Data</text>
</g>
<!-- u0 -->
<g id="node1" class="node">
<title>u0</title>
<ellipse fill="#bbffbb" stroke="#000000" stroke-width="0" cx="289.0959" cy="-26" rx="29.795" ry="18"/>
<text text-anchor="middle" x="289.0959" y="-22.3" font-family="Times,serif" font-size="14.00" fill="#000000">Main</text>
</g>
<!-- u21 -->
<g id="node2" class="node">
<title>u21</title>
<ellipse fill="#bbffbb" stroke="#000000" stroke-width="0" cx="1273.0959" cy="-357" rx="46.2923" ry="18"/>
<text text-anchor="middle" x="1273.0959" y="-353.3" font-family="Times,serif" font-size="14.00" fill="#000000">WithRoot</text>
</g>
<!-- u17 -->
<g id="node4" class="node">
<title>u17</title>
<ellipse fill="#ffffbb" stroke="#000000" stroke-width="0" cx="648.0959" cy="-236" rx="30.5947" ry="18"/>
<text text-anchor="middle" x="648.0959" y="-232.3" font-family="Times,serif" font-size="14.00" fill="#000000">Index</text>
</g>
<!-- u21&#45;&gt;u17 -->
<g id="edge34" class="edge">
<title>u21&#45;&gt;u17</title>
<path fill="none" stroke="#000000" d="M1247.0237,-342.0555C1238.9277,-337.942 1229.8318,-333.8367 1221.0959,-331 1027.8918,-268.2638 783.9403,-245.4366 688.7449,-238.5567"/>
<polygon fill="#000000" stroke="#000000" points="688.8975,-235.0589 678.6766,-237.8489 688.4066,-242.0416 688.8975,-235.0589"/>
</g>
<!-- u22 -->
<g id="node3" class="node">
<title>u22</title>
<ellipse fill="#bbffbb" stroke="#000000" stroke-width="0" cx="1007.0959" cy="-712" rx="38.9931" ry="18"/>
<text text-anchor="middle" x="1007.0959" y="-708.3" font-family="Times,serif" font-size="14.00" fill="#000000">Settings</text>
</g>
<!-- u22&#45;&gt;u17 -->
<g id="edge35" class="edge">
<title>u22&#45;&gt;u17</title>
<path fill="none" stroke="#000000" d="M1034.0602,-698.8795C1131.3275,-649.9212 1451.9989,-473.4163 1328.0959,-331 1285.775,-282.3556 829.2594,-248.0772 688.9085,-238.6286"/>
<polygon fill="#000000" stroke="#000000" points="688.8066,-235.1141 678.5959,-237.9408 688.3408,-242.0986 688.8066,-235.1141"/>
</g>
<!-- u18 -->
<g id="node5" class="node">
<title>u18</title>
<ellipse fill="#ffffbb" stroke="#000000" stroke-width="0" cx="1053.0959" cy="-357" rx="37.8943" ry="18"/>
<text text-anchor="middle" x="1053.0959" y="-353.3" font-family="Times,serif" font-size="14.00" fill="#000000">TopBar</text>
</g>
<!-- u22&#45;&gt;u18 -->
<g id="edge37" class="edge">
<title>u22&#45;&gt;u18</title>
<path fill="none" stroke="#000000" d="M1028.2846,-696.8041C1050.2769,-679.5916 1083.3457,-649.3007 1097.0959,-614 1128.2989,-533.8928 1088.9898,-431.2008 1066.616,-383.5209"/>
<polygon fill="#000000" stroke="#000000" points="1069.7526,-381.9674 1062.2615,-374.4751 1063.4453,-385.0036 1069.7526,-381.9674"/>
</g>
<!-- u11 -->
<g id="node8" class="node">
<title>u11</title>
<ellipse fill="#bbbbff" stroke="#000000" stroke-width="0" cx="773.0959" cy="-357" rx="79.0865" ry="18"/>
<text text-anchor="middle" x="773.0959" y="-353.3" font-family="Times,serif" font-size="14.00" fill="#000000">TimelineNameEdit</text>
</g>
<!-- u22&#45;&gt;u11 -->
<g id="edge20" class="edge">
<title>u22&#45;&gt;u11</title>
<path fill="none" stroke="#000000" d="M1015.0138,-694.1735C1031.0346,-655.1214 1062.4115,-560.671 1021.0959,-500 978.0791,-436.8308 925.9907,-477.3665 861.0959,-437 836.7699,-421.8685 812.9624,-399.6389 796.2573,-382.4503"/>
<polygon fill="#000000" stroke="#000000" points="798.5398,-379.7723 789.1054,-374.9512 793.4742,-384.6034 798.5398,-379.7723"/>
</g>
<!-- u12 -->
<g id="node9" class="node">
<title>u12</title>
<ellipse fill="#bbbbff" stroke="#000000" stroke-width="0" cx="549.0959" cy="-357" rx="53.8905" ry="18"/>
<text text-anchor="middle" x="549.0959" y="-353.3" font-family="Times,serif" font-size="14.00" fill="#000000">SettingsEdit</text>
</g>
<!-- u22&#45;&gt;u12 -->
<g id="edge21" class="edge">
<title>u22&#45;&gt;u12</title>
<path fill="none" stroke="#000000" d="M1011.5992,-694.0576C1020.5993,-653.5044 1035.854,-554.1108 985.0959,-500 870.0725,-377.3791 756.6844,-522.793 612.0959,-437 590.8632,-424.4014 574.0476,-401.7402 563.1487,-383.7448"/>
<polygon fill="#000000" stroke="#000000" points="566.0333,-381.7415 557.9966,-374.8377 559.974,-385.2464 566.0333,-381.7415"/>
</g>
<!-- u16 -->
<g id="node13" class="node">
<title>u16</title>
<ellipse fill="#bbbbff" stroke="#000000" stroke-width="0" cx="934.0959" cy="-357" rx="63.8893" ry="18"/>
<text text-anchor="middle" x="934.0959" y="-353.3" font-family="Times,serif" font-size="14.00" fill="#000000">TimeScaleEdit</text>
</g>
<!-- u22&#45;&gt;u16 -->
<g id="edge23" class="edge">
<title>u22&#45;&gt;u16</title>
<path fill="none" stroke="#000000" d="M1019.6957,-694.6587C1032.5057,-675.8654 1051.5138,-644.4656 1059.0959,-614 1071.3322,-564.8331 1077.31,-547.2796 1059.0959,-500 1045.5218,-464.7648 1026.993,-465.3886 1002.0959,-437 986.2317,-418.911 968.6495,-398.2082 955.3383,-382.3956"/>
<polygon fill="#000000" stroke="#000000" points="957.911,-380.0168 948.7983,-374.6122 952.5517,-384.5199 957.911,-380.0168"/>
</g>
<!-- u10 -->
<g id="node14" class="node">
<title>u10</title>
<ellipse fill="#bbffbb" stroke="#000000" stroke-width="2" cx="145.0959" cy="-131" rx="45.4919" ry="18"/>
<text text-anchor="middle" x="145.0959" y="-127.3" font-family="Times,serif" font-size="14.00" fill="#000000">Plumbing</text>
</g>
<!-- u22&#45;&gt;u10 -->
<g id="edge18" class="edge">
<title>u22&#45;&gt;u10</title>
<path fill="none" stroke="#000000" d="M970.1415,-705.8251C924.7793,-698.4101 845.4535,-685.9772 777.0959,-678 694.4633,-668.357 87.3522,-675.2892 31.0959,-614 -16.6844,-561.945 -10.9645,-360.6291 63.0959,-210 74.5172,-186.7706 95.7087,-166.6358 113.6871,-152.5074"/>
<polygon fill="#000000" stroke="#000000" points="115.8222,-155.2808 121.6747,-146.4491 111.5921,-149.7035 115.8222,-155.2808"/>
</g>
<!-- u1 -->
<g id="node15" class="node">
<title>u1</title>
<ellipse fill="#ffbbbb" stroke="#000000" stroke-width="0" cx="159.0959" cy="-236" rx="31.3957" ry="18"/>
<text text-anchor="middle" x="159.0959" y="-232.3" font-family="Times,serif" font-size="14.00" fill="#000000">Logic</text>
</g>
<!-- u22&#45;&gt;u1 -->
<g id="edge8" class="edge">
<title>u22&#45;&gt;u1</title>
<path fill="none" stroke="#000000" d="M970.135,-705.8803C924.7663,-698.5202 845.434,-686.142 777.0959,-678 698.883,-668.6815 124.2183,-672.1559 71.0959,-614 -23.0612,-510.9214 92.8427,-327.0824 140.4554,-260.7359"/>
<polygon fill="#000000" stroke="#000000" points="143.3747,-262.6726 146.4304,-252.5279 137.7154,-258.5529 143.3747,-262.6726"/>
</g>
<!-- u2 -->
<g id="node18" class="node">
<title>u2</title>
<ellipse fill="#7777ff" stroke="#000000" stroke-width="0" cx="924.0959" cy="-534" rx="48.9926" ry="18"/>
<text text-anchor="middle" x="924.0959" y="-530.3" font-family="Times,serif" font-size="14.00" fill="#000000">TimeScale</text>
</g>
<!-- u22&#45;&gt;u2 -->
<g id="edge9" class="edge">
<title>u22&#45;&gt;u2</title>
<path fill="none" stroke="#000000" d="M998.8341,-694.2819C984.2674,-663.0425 953.9335,-597.989 936.7256,-561.0853"/>
<polygon fill="#000000" stroke="#000000" points="939.8457,-559.4946 932.4475,-551.9106 933.5015,-562.4529 939.8457,-559.4946"/>
</g>
<!-- u4 -->
<g id="node20" class="node">
<title>u4</title>
<ellipse fill="#7777ff" stroke="#000000" stroke-width="0" cx="712.0959" cy="-534" rx="64.189" ry="18"/>
<text text-anchor="middle" x="712.0959" y="-530.3" font-family="Times,serif" font-size="14.00" fill="#000000">TimelineName</text>
</g>
<!-- u22&#45;&gt;u4 -->
<g id="edge10" class="edge">
<title>u22&#45;&gt;u4</title>
<path fill="none" stroke="#000000" d="M974.2104,-702.1089C929.0369,-687.5209 846.5209,-657.2166 786.0959,-614 764.9363,-598.8664 745.1587,-576.9107 731.3829,-559.8271"/>
<polygon fill="#000000" stroke="#000000" points="734.0612,-557.5711 725.1225,-551.8833 728.5633,-561.9039 734.0612,-557.5711"/>
</g>
<!-- u17&#45;&gt;u0 -->
<g id="edge2" class="edge">
<title>u17&#45;&gt;u0</title>
<path fill="none" stroke="#000000" d="M626.1793,-223.1797C564.6966,-187.2149 390.4726,-85.3012 319.6239,-43.8576"/>
<polygon fill="#000000" stroke="#000000" points="321.1246,-40.6807 310.7257,-38.6525 317.5902,-46.7228 321.1246,-40.6807"/>
</g>
<!-- u18&#45;&gt;u17 -->
<g id="edge31" class="edge">
<title>u18&#45;&gt;u17</title>
<path fill="none" stroke="#000000" d="M1031.4242,-342.24C1024.7882,-338.1809 1017.3269,-334.0592 1010.0959,-331 897.913,-283.5384 755.9036,-254.6437 687.9128,-242.575"/>
<polygon fill="#000000" stroke="#000000" points="688.1054,-239.0557 677.6522,-240.7822 686.9005,-245.9512 688.1054,-239.0557"/>
</g>
<!-- u19 -->
<g id="node6" class="node">
<title>u19</title>
<ellipse fill="#ffffbb" stroke="#000000" stroke-width="0" cx="1159.0959" cy="-357" rx="50.0912" ry="18"/>
<text text-anchor="middle" x="1159.0959" y="-353.3" font-family="Times,serif" font-size="14.00" fill="#000000">BottomBar</text>
</g>
<!-- u19&#45;&gt;u17 -->
<g id="edge32" class="edge">
<title>u19&#45;&gt;u17</title>
<path fill="none" stroke="#000000" d="M1129.2463,-342.4064C1120.0512,-338.3049 1109.793,-334.1182 1100.0959,-331 951.6076,-283.252 767.8124,-253.2172 688.0934,-241.5445"/>
<polygon fill="#000000" stroke="#000000" points="688.396,-238.052 677.9978,-240.0834 687.3933,-244.9798 688.396,-238.052"/>
</g>
<!-- u20 -->
<g id="node7" class="node">
<title>u20</title>
<ellipse fill="#ffffbb" stroke="#000000" stroke-width="0" cx="258.0959" cy="-357" rx="43.5923" ry="18"/>
<text text-anchor="middle" x="258.0959" y="-353.3" font-family="Times,serif" font-size="14.00" fill="#000000">Snackbar</text>
</g>
<!-- u20&#45;&gt;u17 -->
<g id="edge33" class="edge">
<title>u20&#45;&gt;u17</title>
<path fill="none" stroke="#000000" d="M283.8278,-342.3245C291.4854,-338.3142 299.9964,-334.1975 308.0959,-331 413.9379,-289.2165 545.0919,-258.0712 609.1713,-244.1109"/>
<polygon fill="#000000" stroke="#000000" points="610.1965,-247.4703 619.2336,-241.9403 608.7204,-240.6277 610.1965,-247.4703"/>
</g>
<!-- u20&#45;&gt;u10 -->
<g id="edge17" class="edge">
<title>u20&#45;&gt;u10</title>
<path fill="none" stroke="#000000" d="M252.2238,-338.7856C242.7684,-310.4321 222.8082,-254.3878 199.0959,-210 189.1495,-191.381 175.7737,-171.7829 164.8231,-156.7644"/>
<polygon fill="#000000" stroke="#000000" points="167.4629,-154.4479 158.7,-148.493 161.8368,-158.6128 167.4629,-154.4479"/>
</g>
<!-- u20&#45;&gt;u1 -->
<g id="edge7" class="edge">
<title>u20&#45;&gt;u1</title>
<path fill="none" stroke="#000000" d="M244.1216,-339.9203C227.1482,-319.175 198.3961,-284.0336 179.0839,-260.4297"/>
<polygon fill="#000000" stroke="#000000" points="181.7226,-258.1277 172.6814,-252.6044 176.3049,-262.5604 181.7226,-258.1277"/>
</g>
<!-- u11&#45;&gt;u17 -->
<g id="edge25" class="edge">
<title>u11&#45;&gt;u17</title>
<path fill="none" stroke="#000000" d="M754.9198,-339.4056C732.9241,-318.1137 695.8383,-282.2146 671.6647,-258.8146"/>
<polygon fill="#000000" stroke="#000000" points="673.9248,-256.1311 664.3053,-251.6907 669.0561,-261.1607 673.9248,-256.1311"/>
</g>
<!-- u12&#45;&gt;u17 -->
<g id="edge26" class="edge">
<title>u12&#45;&gt;u17</title>
<path fill="none" stroke="#000000" d="M563.4914,-339.4056C580.5693,-318.5325 609.1329,-283.6214 628.2878,-260.2099"/>
<polygon fill="#000000" stroke="#000000" points="631.0129,-262.4064 634.6365,-252.4504 625.5952,-257.9737 631.0129,-262.4064"/>
</g>
<!-- u13 -->
<g id="node10" class="node">
<title>u13</title>
<ellipse fill="#bbbbff" stroke="#000000" stroke-width="0" cx="648.0959" cy="-357" rx="27.0966" ry="18"/>
<text text-anchor="middle" x="648.0959" y="-353.3" font-family="Times,serif" font-size="14.00" fill="#000000">New</text>
</g>
<!-- u13&#45;&gt;u17 -->
<g id="edge27" class="edge">
<title>u13&#45;&gt;u17</title>
<path fill="none" stroke="#000000" d="M648.0959,-338.8851C648.0959,-319.1928 648.0959,-287.4608 648.0959,-264.439"/>
<polygon fill="#000000" stroke="#000000" points="651.596,-264.2387 648.0959,-254.2388 644.596,-264.2388 651.596,-264.2387"/>
</g>
<!-- u14 -->
<g id="node11" class="node">
<title>u14</title>
<ellipse fill="#bbbbff" stroke="#000000" stroke-width="0" cx="443.0959" cy="-357" rx="34.394" ry="18"/>
<text text-anchor="middle" x="443.0959" y="-353.3" font-family="Times,serif" font-size="14.00" fill="#000000">Export</text>
</g>
<!-- u14&#45;&gt;u17 -->
<g id="edge28" class="edge">
<title>u14&#45;&gt;u17</title>
<path fill="none" stroke="#000000" d="M465.824,-343.1795C472.3576,-339.2277 479.4999,-334.9279 486.0959,-331 531.6073,-303.898 584.5981,-272.9344 617.2458,-253.9256"/>
<polygon fill="#000000" stroke="#000000" points="619.4099,-256.7158 626.2926,-248.6611 615.8891,-250.6657 619.4099,-256.7158"/>
</g>
<!-- u14&#45;&gt;u10 -->
<g id="edge15" class="edge">
<title>u14&#45;&gt;u10</title>
<path fill="none" stroke="#000000" d="M435.2548,-339.0848C421.0643,-308.5791 388.3434,-246.3313 343.0959,-210 299.4141,-174.9259 238.1669,-153.7099 195.3972,-142.2262"/>
<polygon fill="#000000" stroke="#000000" points="196.0446,-138.7782 185.4857,-139.6498 194.2835,-145.5531 196.0446,-138.7782"/>
</g>
<!-- u14&#45;&gt;u1 -->
<g id="edge5" class="edge">
<title>u14&#45;&gt;u1</title>
<path fill="none" stroke="#000000" d="M421.0858,-343.0798C414.1719,-338.9571 406.4273,-334.5896 399.0959,-331 329.2077,-296.7814 243.7054,-265.2742 195.9278,-248.5445"/>
<polygon fill="#000000" stroke="#000000" points="196.9192,-245.1836 186.3243,-245.2031 194.6189,-251.7949 196.9192,-245.1836"/>
</g>
<!-- u15 -->
<g id="node12" class="node">
<title>u15</title>
<ellipse fill="#bbbbff" stroke="#000000" stroke-width="0" cx="355.0959" cy="-357" rx="35.194" ry="18"/>
<text text-anchor="middle" x="355.0959" y="-353.3" font-family="Times,serif" font-size="14.00" fill="#000000">Import</text>
</g>
<!-- u15&#45;&gt;u17 -->
<g id="edge29" class="edge">
<title>u15&#45;&gt;u17</title>
<path fill="none" stroke="#000000" d="M377.6124,-343.0584C384.6838,-338.9348 392.6029,-334.5722 400.0959,-331 473.1014,-296.195 562.4988,-264.4835 611.5467,-247.9676"/>
<polygon fill="#000000" stroke="#000000" points="612.718,-251.2665 621.0908,-244.7745 610.497,-244.6282 612.718,-251.2665"/>
</g>
<!-- u15&#45;&gt;u10 -->
<g id="edge16" class="edge">
<title>u15&#45;&gt;u10</title>
<path fill="none" stroke="#000000" d="M354.4455,-338.9605C352.446,-308.8208 344.3851,-247.8136 312.0959,-210 281.7922,-174.5116 231.9899,-153.8442 194.6419,-142.6142"/>
<polygon fill="#000000" stroke="#000000" points="195.5285,-139.2274 184.9506,-139.8258 193.593,-145.9545 195.5285,-139.2274"/>
</g>
<!-- u15&#45;&gt;u1 -->
<g id="edge6" class="edge">
<title>u15&#45;&gt;u1</title>
<path fill="none" stroke="#000000" d="M333.7502,-342.5257C328.0473,-338.7256 321.8652,-334.6661 316.0959,-331 272.7786,-303.4739 221.8069,-272.9712 189.9682,-254.1386"/>
<polygon fill="#000000" stroke="#000000" points="191.5152,-250.9874 181.1247,-248.9168 187.9561,-257.0151 191.5152,-250.9874"/>
</g>
<!-- u16&#45;&gt;u17 -->
<g id="edge30" class="edge">
<title>u16&#45;&gt;u17</title>
<path fill="none" stroke="#000000" d="M898.4521,-341.9199C843.0784,-318.4926 737.0925,-273.6524 682.4909,-250.5517"/>
<polygon fill="#000000" stroke="#000000" points="683.8071,-247.3083 673.2337,-246.6352 681.0796,-253.7551 683.8071,-247.3083"/>
</g>
<!-- u10&#45;&gt;u0 -->
<g id="edge1" class="edge">
<title>u10&#45;&gt;u0</title>
<path fill="none" stroke="#000000" d="M166.9664,-115.0528C192.2407,-96.6236 233.8759,-66.2646 261.3928,-46.2002"/>
<polygon fill="#000000" stroke="#000000" points="263.7742,-48.7954 269.7922,-40.0756 259.65,-43.1393 263.7742,-48.7954"/>
</g>
<!-- u10&#45;&gt;u17 -->
<g id="edge24" class="edge">
<title>u10&#45;&gt;u17</title>
<path fill="none" stroke="#000000" d="M185.6578,-139.4672C280.6096,-159.2882 516.31,-208.49 609.3936,-227.921"/>
<polygon fill="#000000" stroke="#000000" points="608.7416,-231.3603 619.2458,-229.9776 610.1721,-224.508 608.7416,-231.3603"/>
</g>
<!-- u1&#45;&gt;u10 -->
<g id="edge12" class="edge">
<title>u1&#45;&gt;u10</title>
<path fill="none" stroke="#000000" d="M156.6573,-217.7104C154.4992,-201.5249 151.3167,-177.6557 148.8367,-159.056"/>
<polygon fill="#000000" stroke="#000000" points="152.2976,-158.5297 147.5066,-149.08 145.359,-159.4549 152.2976,-158.5297"/>
</g>
<!-- u23 -->
<g id="node16" class="node">
<title>u23</title>
<ellipse fill="#bbffff" stroke="#000000" stroke-width="0" cx="1136.0959" cy="-712" rx="46.5926" ry="18"/>
<text text-anchor="middle" x="1136.0959" y="-708.3" font-family="Times,serif" font-size="14.00" fill="#000000">TrimDocs</text>
</g>
<!-- u24 -->
<g id="node17" class="node">
<title>u24</title>
<ellipse fill="#77ff77" stroke="#000000" stroke-width="0" cx="712.0959" cy="-712" rx="53.0913" ry="18"/>
<text text-anchor="middle" x="712.0959" y="-708.3" font-family="Times,serif" font-size="14.00" fill="#000000">UTF8String</text>
</g>
<!-- u24&#45;&gt;u4 -->
<g id="edge11" class="edge">
<title>u24&#45;&gt;u4</title>
<path fill="none" stroke="#000000" d="M712.0959,-693.9528C712.0959,-662.9016 712.0959,-599.1524 712.0959,-562.198"/>
<polygon fill="#000000" stroke="#000000" points="715.596,-562.0949 712.0959,-552.0949 708.596,-562.095 715.596,-562.0949"/>
</g>
<!-- u2&#45;&gt;u19 -->
<g id="edge38" class="edge">
<title>u2&#45;&gt;u19</title>
<path fill="none" stroke="#000000" d="M957.5697,-520.7596C995.0973,-504.8001 1056.4054,-475.2831 1100.0959,-437 1117.5089,-421.7421 1132.8744,-400.5059 1143.5562,-383.7474"/>
<polygon fill="#000000" stroke="#000000" points="1146.7056,-385.3093 1148.992,-374.9641 1140.7533,-381.6255 1146.7056,-385.3093"/>
</g>
<!-- u2&#45;&gt;u16 -->
<g id="edge22" class="edge">
<title>u2&#45;&gt;u16</title>
<path fill="none" stroke="#000000" d="M925.1284,-515.7246C926.877,-484.774 930.4325,-421.8423 932.5026,-385.202"/>
<polygon fill="#000000" stroke="#000000" points="935.9993,-385.3576 933.069,-375.176 929.0104,-384.9626 935.9993,-385.3576"/>
</g>
<!-- u2&#45;&gt;u10 -->
<g id="edge13" class="edge">
<title>u2&#45;&gt;u10</title>
<path fill="none" stroke="#000000" d="M901.7828,-517.7813C891.4333,-511.1071 878.6602,-504.0124 866.0959,-500 714.3621,-451.5441 271.5821,-542.3289 152.0959,-437 113.8573,-403.2921 111.0263,-260.3319 119.0959,-210 121.9188,-192.3927 128.0691,-173.388 133.6793,-158.4319"/>
<polygon fill="#000000" stroke="#000000" points="137.0659,-159.38 137.4295,-148.7914 130.5422,-156.8421 137.0659,-159.38"/>
</g>
<!-- u2&#45;&gt;u1 -->
<g id="edge3" class="edge">
<title>u2&#45;&gt;u1</title>
<path fill="none" stroke="#000000" d="M901.7703,-517.82C891.4184,-511.1533 878.6469,-504.0538 866.0959,-500 725.0519,-454.4453 312.8089,-535.5458 202.0959,-437 152.9687,-393.2718 152.2912,-308.3267 155.765,-264.1764"/>
<polygon fill="#000000" stroke="#000000" points="159.2581,-264.4109 156.6841,-254.1335 152.2872,-263.7729 159.2581,-264.4109"/>
</g>
<!-- u3 -->
<g id="node19" class="node">
<title>u3</title>
<ellipse fill="#7777ff" stroke="#000000" stroke-width="0" cx="826.0959" cy="-534" rx="31.3957" ry="18"/>
<text text-anchor="middle" x="826.0959" y="-530.3" font-family="Times,serif" font-size="14.00" fill="#000000">Event</text>
</g>
<!-- u4&#45;&gt;u18 -->
<g id="edge36" class="edge">
<title>u4&#45;&gt;u18</title>
<path fill="none" stroke="#000000" d="M743.6903,-518.1609C756.6406,-512.0183 771.8977,-505.2219 786.0959,-500 883.1576,-464.3022 929.4138,-501.6971 1010.0959,-437 1026.7548,-423.6416 1037.8217,-402.0296 1044.5511,-384.6343"/>
<polygon fill="#000000" stroke="#000000" points="1047.9345,-385.5682 1048.0215,-374.9737 1041.3467,-383.2015 1047.9345,-385.5682"/>
</g>
<!-- u4&#45;&gt;u11 -->
<g id="edge19" class="edge">
<title>u4&#45;&gt;u11</title>
<path fill="none" stroke="#000000" d="M718.2806,-516.0542C728.9674,-485.045 750.9561,-421.2416 763.5951,-384.5679"/>
<polygon fill="#000000" stroke="#000000" points="766.9455,-385.588 766.8948,-374.9933 760.3275,-383.3072 766.9455,-385.588"/>
</g>
<!-- u4&#45;&gt;u10 -->
<g id="edge14" class="edge">
<title>u4&#45;&gt;u10</title>
<path fill="none" stroke="#000000" d="M683.0738,-517.9314C670.0001,-511.3698 654.1462,-504.3218 639.0959,-500 529.7607,-468.6038 217.8664,-510.558 131.0959,-437 52.641,-370.4914 53.6702,-307.6071 86.0959,-210 92.9262,-189.4398 107.4234,-169.9 120.3374,-155.3969"/>
<polygon fill="#000000" stroke="#000000" points="123.0672,-157.6002 127.2902,-147.8833 117.9294,-152.8459 123.0672,-157.6002"/>
</g>
<!-- u4&#45;&gt;u1 -->
<g id="edge4" class="edge">
<title>u4&#45;&gt;u1</title>
<path fill="none" stroke="#000000" d="M682.7059,-517.8144C669.6971,-511.3134 653.9941,-504.3443 639.0959,-500 536.6619,-470.1302 234.2155,-516.5421 163.0959,-437 120.327,-389.1661 136.9227,-306.3759 149.6762,-263.5044"/>
<polygon fill="#000000" stroke="#000000" points="153.0804,-264.3446 152.7171,-253.756 146.398,-262.2601 153.0804,-264.3446"/>
</g>
<!-- u5 -->
<g id="node21" class="node">
<title>u5</title>
<ellipse fill="#7777ff" stroke="#000000" stroke-width="0" cx="599.0959" cy="-534" rx="30.5947" ry="18"/>
<text text-anchor="middle" x="599.0959" y="-530.3" font-family="Times,serif" font-size="14.00" fill="#000000">Index</text>
</g>
<!-- u6 -->
<g id="node22" class="node">
<title>u6</title>
<ellipse fill="#7777ff" stroke="#000000" stroke-width="0" cx="503.0959" cy="-534" rx="47.3916" ry="18"/>
<text text-anchor="middle" x="503.0959" y="-530.3" font-family="Times,serif" font-size="14.00" fill="#000000">TimeSpan</text>
</g>
<!-- u7 -->
<g id="node23" class="node">
<title>u7</title>
<ellipse fill="#7777ff" stroke="#000000" stroke-width="0" cx="395.0959" cy="-534" rx="42.7926" ry="18"/>
<text text-anchor="middle" x="395.0959" y="-530.3" font-family="Times,serif" font-size="14.00" fill="#000000">Timeline</text>
</g>
<!-- u8 -->
<g id="node24" class="node">
<title>u8</title>
<ellipse fill="#7777ff" stroke="#000000" stroke-width="0" cx="268.0959" cy="-534" rx="65.7887" ry="18"/>
<text text-anchor="middle" x="268.0959" y="-530.3" font-family="Times,serif" font-size="14.00" fill="#000000">StoredTimeline</text>
</g>
<!-- u9 -->
<g id="node25" class="node">
<title>u9</title>
<ellipse fill="#7777ff" stroke="#000000" stroke-width="0" cx="134.0959" cy="-534" rx="50.8918" ry="18"/>
<text text-anchor="middle" x="134.0959" y="-530.3" font-family="Times,serif" font-size="14.00" fill="#000000">TimeSpace</text>
</g>
</g>
</svg>
