<?xml version="1.0" encoding="UTF-8" standalone="no"?>
<!DOCTYPE svg PUBLIC "-//W3C//DTD SVG 1.1//EN"
 "http://www.w3.org/Graphics/SVG/1.1/DTD/svg11.dtd">
<!-- Generated by graphviz version 2.40.1 (20161225.0304)
 -->
<!-- Title: Modules Pages: 1 -->
<svg width="864pt" height="565pt"
 viewBox="0.00 0.00 864.00 565.42" xmlns="http://www.w3.org/2000/svg" xmlns:xlink="http://www.w3.org/1999/xlink">
<g id="graph0" class="graph" transform="scale(.6459 .6459) rotate(0) translate(4 871.3333)">
<title>Modules</title>
<polygon fill="#ffffff" stroke="transparent" points="-4,4 -4,-871.3333 1333.5782,-871.3333 1333.5782,4 -4,4"/>
<g id="clust1" class="cluster">
<title>cluster_0</title>
<polygon fill="#000000" fill-opacity="0.058824" stroke="#000000" stroke-opacity="0.058824" points="177.4323,-112.3671 177.4323,-424.888 1189.4323,-424.888 1189.4323,-112.3671 177.4323,-112.3671"/>
<text text-anchor="middle" x="683.4323" y="-409.688" font-family="Times,serif" font-size="14.00" fill="#000000">Components</text>
</g>
<g id="clust2" class="cluster">
<title>cluster_1</title>
<polygon fill="#000000" fill-opacity="0.058824" stroke="#000000" stroke-opacity="0.058824" points="401.4323,-238.78 401.4323,-370.4602 1095.4323,-370.4602 1095.4323,-238.78 401.4323,-238.78"/>
<text text-anchor="middle" x="748.4323" y="-355.2602" font-family="Times,serif" font-size="14.00" fill="#000000">Dialogs</text>
</g>
<g id="clust3" class="cluster">
<title>cluster_2</title>
<polygon fill="#000000" fill-opacity="0.058824" stroke="#000000" stroke-opacity="0.058824" points="688.4323,-653.1336 688.4323,-853.2874 826.4323,-853.2874 826.4323,-653.1336 688.4323,-653.1336"/>
<text text-anchor="middle" x="757.4323" y="-838.0874" font-family="Times,serif" font-size="14.00" fill="#000000">Test</text>
</g>
<g id="clust4" class="cluster">
<title>cluster_3</title>
<polygon fill="#000000" fill-opacity="0.058824" stroke="#000000" stroke-opacity="0.058824" points="696.4323,-667.1795 696.4323,-798.8596 818.4323,-798.8596 818.4323,-667.1795 696.4323,-667.1795"/>
<text text-anchor="middle" x="757.4323" y="-783.6596" font-family="Times,serif" font-size="14.00" fill="#000000">QuickCheck</text>
</g>
<g id="clust5" class="cluster">
<title>cluster_4</title>
<polygon fill="#000000" fill-opacity="0.058824" stroke="#000000" stroke-opacity="0.058824" points="36.4323,-438.9339 36.4323,-639.0877 957.4323,-639.0877 957.4323,-438.9339 36.4323,-438.9339"/>
<text text-anchor="middle" x="496.9323" y="-623.8877" font-family="Times,serif" font-size="14.00" fill="#000000">Timeline</text>
</g>
<g id="clust6" class="cluster">
<title>cluster_5</title>
<polygon fill="#000000" fill-opacity="0.058824" stroke="#000000" stroke-opacity="0.058824" points="44.4323,-452.9798 44.4323,-584.6599 949.4323,-584.6599 949.4323,-452.9798 44.4323,-452.9798"/>
<text text-anchor="middle" x="496.9323" y="-569.4599" font-family="Times,serif" font-size="14.00" fill="#000000">Data</text>
</g>
<!-- u10 -->
<g id="node1" class="node">
<title>u10</title>
<ellipse fill="#bbffbb" stroke="#000000" stroke-width="0" cx="994.4323" cy="-713" rx="38.9931" ry="18"/>
<text text-anchor="middle" x="994.4323" y="-709.3" font-family="Times,serif" font-size="14.00" fill="#000000">Settings</text>
</g>
<!-- u11 -->
<g id="node2" class="node">
<title>u11</title>
<ellipse fill="#bbffbb" stroke="#000000" stroke-width="0" cx="124.4323" cy="-158" rx="45.4919" ry="18"/>
<text text-anchor="middle" x="124.4323" y="-154.3" font-family="Times,serif" font-size="14.00" fill="#000000">Plumbing</text>
</g>
<!-- u10&#45;&gt;u11 -->
<g id="edge24" class="edge">
<title>u10&#45;&gt;u11</title>
<path fill="none" stroke="#000000" d="M958.9827,-705.2602C924.295,-697.8603 869.9025,-686.7178 822.4323,-679 649.51,-650.8858 156.1893,-710.5023 40.4323,-579 -62.2837,-462.3125 58.1408,-256.2946 106.2797,-183.9739"/>
<polygon fill="#000000" stroke="#000000" points="109.3426,-185.6922 112.0366,-175.4456 103.5407,-181.7757 109.3426,-185.6922"/>
</g>
<!-- u7 -->
<g id="node6" class="node">
<title>u7</title>
<ellipse fill="#ffffbb" stroke="#000000" stroke-width="0" cx="1143.4323" cy="-284" rx="37.8943" ry="18"/>
<text text-anchor="middle" x="1143.4323" y="-280.3" font-family="Times,serif" font-size="14.00" fill="#000000">TopBar</text>
</g>
<!-- u10&#45;&gt;u7 -->
<g id="edge7" class="edge">
<title>u10&#45;&gt;u7</title>
<path fill="none" stroke="#000000" d="M1001.6101,-694.8854C1011.7157,-669.218 1030.5644,-620.7385 1045.4323,-579 1080.2362,-481.2952 1118.016,-364.029 1134.688,-311.6385"/>
<polygon fill="#000000" stroke="#000000" points="1138.0419,-312.6407 1137.7339,-302.0504 1131.3705,-310.5214 1138.0419,-312.6407"/>
</g>
<!-- u8 -->
<g id="node7" class="node">
<title>u8</title>
<ellipse fill="#ffffbb" stroke="#000000" stroke-width="0" cx="612.4323" cy="-158" rx="30.5947" ry="18"/>
<text text-anchor="middle" x="612.4323" y="-154.3" font-family="Times,serif" font-size="14.00" fill="#000000">Index</text>
</g>
<!-- u10&#45;&gt;u8 -->
<g id="edge18" class="edge">
<title>u10&#45;&gt;u8</title>
<path fill="none" stroke="#000000" d="M1012.6643,-696.6972C1081.0096,-633.688 1312.0186,-402.4283 1190.4323,-258 1121.2771,-175.8528 773.8283,-161.1867 653.5147,-158.5687"/>
<polygon fill="#000000" stroke="#000000" points="653.3238,-155.0643 643.2557,-158.3631 653.1835,-162.0629 653.3238,-155.0643"/>
</g>
<!-- u2 -->
<g id="node10" class="node">
<title>u2</title>
<ellipse fill="#bbbbff" stroke="#000000" stroke-width="0" cx="1033.4323" cy="-284" rx="53.8905" ry="18"/>
<text text-anchor="middle" x="1033.4323" y="-280.3" font-family="Times,serif" font-size="14.00" fill="#000000">SettingsEdit</text>
</g>
<!-- u10&#45;&gt;u2 -->
<g id="edge2" class="edge">
<title>u10&#45;&gt;u2</title>
<path fill="none" stroke="#000000" d="M1000.2058,-695.0368C1008.086,-669.5492 1021.8657,-621.2821 1027.4323,-579 1040.229,-481.7992 1037.2455,-365.0548 1034.9242,-312.3152"/>
<polygon fill="#000000" stroke="#000000" points="1038.4081,-311.8883 1034.4448,-302.0627 1031.4158,-312.2153 1038.4081,-311.8883"/>
</g>
<!-- u3 -->
<g id="node11" class="node">
<title>u3</title>
<ellipse fill="#bbbbff" stroke="#000000" stroke-width="0" cx="882.4323" cy="-284" rx="79.0865" ry="18"/>
<text text-anchor="middle" x="882.4323" y="-280.3" font-family="Times,serif" font-size="14.00" fill="#000000">TimelineNameEdit</text>
</g>
<!-- u10&#45;&gt;u3 -->
<g id="edge3" class="edge">
<title>u10&#45;&gt;u3</title>
<path fill="none" stroke="#000000" d="M997.1589,-694.7959C1002.7386,-653.1358 1013.0471,-548.0519 989.4323,-465 972.2214,-404.4702 929.669,-343.3842 903.7097,-309.9395"/>
<polygon fill="#000000" stroke="#000000" points="906.431,-307.7379 897.4929,-302.0493 900.9327,-312.0702 906.431,-307.7379"/>
</g>
<!-- u4 -->
<g id="node12" class="node">
<title>u4</title>
<ellipse fill="#bbbbff" stroke="#000000" stroke-width="0" cx="721.4323" cy="-284" rx="63.8893" ry="18"/>
<text text-anchor="middle" x="721.4323" y="-280.3" font-family="Times,serif" font-size="14.00" fill="#000000">TimeScaleEdit</text>
</g>
<!-- u10&#45;&gt;u4 -->
<g id="edge5" class="edge">
<title>u10&#45;&gt;u4</title>
<path fill="none" stroke="#000000" d="M993.3378,-694.8379C989.9973,-644.2633 978.5904,-503.0365 953.4323,-465 907.2476,-395.1733 858.5437,-417.8379 794.4323,-364 775.0594,-347.7315 755.8856,-326.4653 742.053,-309.9487"/>
<polygon fill="#000000" stroke="#000000" points="744.3947,-307.2867 735.3336,-301.796 738.9929,-311.7389 744.3947,-307.2867"/>
</g>
<!-- u15 -->
<g id="node17" class="node">
<title>u15</title>
<ellipse fill="#77ff77" stroke="#000000" stroke-width="0" cx="626.4323" cy="-499" rx="48.9926" ry="18"/>
<text text-anchor="middle" x="626.4323" y="-495.3" font-family="Times,serif" font-size="14.00" fill="#000000">TimeScale</text>
</g>
<!-- u10&#45;&gt;u15 -->
<g id="edge29" class="edge">
<title>u10&#45;&gt;u15</title>
<path fill="none" stroke="#000000" d="M959.6122,-704.5117C898.6583,-688.3187 770.8947,-648.3124 684.4323,-579 666.2495,-564.4238 651.0322,-542.7908 640.753,-525.6945"/>
<polygon fill="#000000" stroke="#000000" points="643.6047,-523.6348 635.563,-516.7369 637.548,-527.1442 643.6047,-523.6348"/>
</g>
<!-- u16 -->
<g id="node18" class="node">
<title>u16</title>
<ellipse fill="#77ff77" stroke="#000000" stroke-width="0" cx="757.4323" cy="-499" rx="64.189" ry="18"/>
<text text-anchor="middle" x="757.4323" y="-495.3" font-family="Times,serif" font-size="14.00" fill="#000000">TimelineName</text>
</g>
<!-- u10&#45;&gt;u16 -->
<g id="edge30" class="edge">
<title>u10&#45;&gt;u16</title>
<path fill="none" stroke="#000000" d="M973.6882,-697.614C941.7584,-673.5919 879.1579,-625.1347 830.4323,-579 812.1786,-561.717 793.0806,-540.6666 778.9988,-524.4976"/>
<polygon fill="#000000" stroke="#000000" points="781.3072,-521.8155 772.1231,-516.5331 776.0084,-526.3898 781.3072,-521.8155"/>
</g>
<!-- u13 -->
<g id="node3" class="node">
<title>u13</title>
<ellipse fill="#bbffbb" stroke="#000000" stroke-width="0" cx="368.4323" cy="-32" rx="29.795" ry="18"/>
<text text-anchor="middle" x="368.4323" y="-28.3" font-family="Times,serif" font-size="14.00" fill="#000000">Main</text>
</g>
<!-- u11&#45;&gt;u13 -->
<g id="edge28" class="edge">
<title>u11&#45;&gt;u13</title>
<path fill="none" stroke="#000000" d="M151.6107,-143.4921C158.7033,-139.7299 166.3455,-135.6971 173.4323,-132 230.6501,-102.1504 297.6551,-67.9538 336.3567,-48.2758"/>
<polygon fill="#000000" stroke="#000000" points="338.2338,-51.248 345.5631,-43.5973 335.0625,-45.0075 338.2338,-51.248"/>
</g>
<!-- u11&#45;&gt;u8 -->
<g id="edge19" class="edge">
<title>u11&#45;&gt;u8</title>
<path fill="none" stroke="#000000" d="M170.1823,-158C304.0282,-158 437.8741,-158 571.72,-158"/>
<polygon fill="#000000" stroke="#000000" points="571.7685,-161.5001 581.7685,-158 571.7684,-154.5001 571.7685,-161.5001"/>
</g>
<!-- u22 -->
<g id="node4" class="node">
<title>u22</title>
<ellipse fill="#bbffbb" stroke="#000000" stroke-width="0" cx="1283.4323" cy="-284" rx="46.2923" ry="18"/>
<text text-anchor="middle" x="1283.4323" y="-280.3" font-family="Times,serif" font-size="14.00" fill="#000000">WithRoot</text>
</g>
<!-- u22&#45;&gt;u8 -->
<g id="edge20" class="edge">
<title>u22&#45;&gt;u8</title>
<path fill="none" stroke="#000000" d="M1254.6711,-269.8244C1244.9412,-265.4939 1233.8894,-261.0701 1223.4323,-258 1013.9662,-196.5024 752.2897,-169.6423 653.0873,-161.1675"/>
<polygon fill="#000000" stroke="#000000" points="653.1583,-157.6613 642.9008,-160.3135 652.5734,-164.6368 653.1583,-157.6613"/>
</g>
<!-- u0 -->
<g id="node5" class="node">
<title>u0</title>
<ellipse fill="#ffffbb" stroke="#000000" stroke-width="0" cx="341.4323" cy="-284" rx="50.0912" ry="18"/>
<text text-anchor="middle" x="341.4323" y="-280.3" font-family="Times,serif" font-size="14.00" fill="#000000">BottomBar</text>
</g>
<!-- u0&#45;&gt;u8 -->
<g id="edge9" class="edge">
<title>u0&#45;&gt;u8</title>
<path fill="none" stroke="#000000" d="M372.2556,-269.6689C423.5813,-245.8053 526.1402,-198.121 579.0899,-173.5024"/>
<polygon fill="#000000" stroke="#000000" points="580.7837,-176.5747 588.3759,-169.1849 577.8324,-170.2273 580.7837,-176.5747"/>
</g>
<!-- u7&#45;&gt;u8 -->
<g id="edge16" class="edge">
<title>u7&#45;&gt;u8</title>
<path fill="none" stroke="#000000" d="M1121.3215,-269.0059C1114.533,-264.9403 1106.8829,-260.8737 1099.4323,-258 940.7618,-196.8012 737.8503,-170.5694 652.7902,-161.7318"/>
<polygon fill="#000000" stroke="#000000" points="653.076,-158.243 642.7737,-160.7155 652.3693,-165.2072 653.076,-158.243"/>
</g>
<!-- u8&#45;&gt;u13 -->
<g id="edge27" class="edge">
<title>u8&#45;&gt;u13</title>
<path fill="none" stroke="#000000" d="M589.0366,-145.9186C545.1099,-123.2352 450.2443,-74.2472 400.4427,-48.53"/>
<polygon fill="#000000" stroke="#000000" points="401.8921,-45.3394 391.4009,-43.8609 398.6803,-51.559 401.8921,-45.3394"/>
</g>
<!-- u9 -->
<g id="node8" class="node">
<title>u9</title>
<ellipse fill="#ffffbb" stroke="#000000" stroke-width="0" cx="229.4323" cy="-284" rx="43.5923" ry="18"/>
<text text-anchor="middle" x="229.4323" y="-280.3" font-family="Times,serif" font-size="14.00" fill="#000000">Snackbar</text>
</g>
<!-- u9&#45;&gt;u11 -->
<g id="edge23" class="edge">
<title>u9&#45;&gt;u11</title>
<path fill="none" stroke="#000000" d="M215.0527,-266.7444C197.0884,-245.1873 166.2045,-208.1266 145.553,-183.3449"/>
<polygon fill="#000000" stroke="#000000" points="148.0659,-180.8931 138.9752,-175.4515 142.6883,-185.3744 148.0659,-180.8931"/>
</g>
<!-- u9&#45;&gt;u8 -->
<g id="edge17" class="edge">
<title>u9&#45;&gt;u8</title>
<path fill="none" stroke="#000000" d="M256.2876,-269.7792C264.549,-265.6905 273.7544,-261.4174 282.4323,-258 385.585,-217.3781 512.1879,-183.1972 574.3326,-167.3962"/>
<polygon fill="#000000" stroke="#000000" points="575.2584,-170.7724 584.097,-164.9302 573.5444,-163.9855 575.2584,-170.7724"/>
</g>
<!-- u1 -->
<g id="node9" class="node">
<title>u1</title>
<ellipse fill="#bbbbff" stroke="#000000" stroke-width="0" cx="444.4323" cy="-284" rx="35.194" ry="18"/>
<text text-anchor="middle" x="444.4323" y="-280.3" font-family="Times,serif" font-size="14.00" fill="#000000">Import</text>
</g>
<!-- u1&#45;&gt;u11 -->
<g id="edge21" class="edge">
<title>u1&#45;&gt;u11</title>
<path fill="none" stroke="#000000" d="M423.959,-268.9735C418.146,-265.0927 411.691,-261.1311 405.4323,-258 307.6268,-209.0697 276.3173,-213.0779 173.4323,-176 171.5459,-175.3202 169.6196,-174.6234 167.6743,-173.9177"/>
<polygon fill="#000000" stroke="#000000" points="168.4813,-170.4867 157.8874,-170.3519 166.085,-177.0638 168.4813,-170.4867"/>
</g>
<!-- u1&#45;&gt;u8 -->
<g id="edge10" class="edge">
<title>u1&#45;&gt;u8</title>
<path fill="none" stroke="#000000" d="M464.3638,-269.0514C494.4914,-246.4557 551.6906,-203.5563 585.4979,-178.2008"/>
<polygon fill="#000000" stroke="#000000" points="587.6583,-180.9556 593.5583,-172.1555 583.4582,-175.3556 587.6583,-180.9556"/>
</g>
<!-- u2&#45;&gt;u8 -->
<g id="edge11" class="edge">
<title>u2&#45;&gt;u8</title>
<path fill="none" stroke="#000000" d="M1000.6918,-269.6231C991.0363,-265.6193 980.3884,-261.4313 970.4323,-258 856.056,-218.5808 717.2108,-183.2681 651.0712,-167.187"/>
<polygon fill="#000000" stroke="#000000" points="651.638,-163.7232 641.0954,-164.7735 649.9919,-170.5269 651.638,-163.7232"/>
</g>
<!-- u3&#45;&gt;u8 -->
<g id="edge12" class="edge">
<title>u3&#45;&gt;u8</title>
<path fill="none" stroke="#000000" d="M847.6873,-267.7857C795.5038,-243.4334 697.5354,-197.7148 646.0316,-173.6797"/>
<polygon fill="#000000" stroke="#000000" points="647.2191,-170.3715 636.6771,-169.3143 644.2589,-176.7148 647.2191,-170.3715"/>
</g>
<!-- u4&#45;&gt;u8 -->
<g id="edge13" class="edge">
<title>u4&#45;&gt;u8</title>
<path fill="none" stroke="#000000" d="M706.2763,-266.4802C687.2512,-244.4879 654.5296,-206.663 633.189,-181.994"/>
<polygon fill="#000000" stroke="#000000" points="635.6137,-179.4472 626.4243,-174.1742 630.3197,-184.0269 635.6137,-179.4472"/>
</g>
<!-- u5 -->
<g id="node13" class="node">
<title>u5</title>
<ellipse fill="#bbbbff" stroke="#000000" stroke-width="0" cx="532.4323" cy="-284" rx="34.394" ry="18"/>
<text text-anchor="middle" x="532.4323" y="-280.3" font-family="Times,serif" font-size="14.00" fill="#000000">Export</text>
</g>
<!-- u5&#45;&gt;u11 -->
<g id="edge22" class="edge">
<title>u5&#45;&gt;u11</title>
<path fill="none" stroke="#000000" d="M511.1243,-269.7903C504.1111,-265.5596 496.1332,-261.2032 488.4323,-258 354.861,-202.44 311.4926,-219.2151 173.4323,-176 171.289,-175.3291 169.1015,-174.6194 166.8984,-173.8848"/>
<polygon fill="#000000" stroke="#000000" points="167.8231,-170.5014 157.2284,-170.5465 165.5388,-177.1182 167.8231,-170.5014"/>
</g>
<!-- u5&#45;&gt;u8 -->
<g id="edge14" class="edge">
<title>u5&#45;&gt;u8</title>
<path fill="none" stroke="#000000" d="M543.3882,-266.7444C557.0325,-245.2547 580.4588,-208.3582 596.1925,-183.5777"/>
<polygon fill="#000000" stroke="#000000" points="599.2033,-185.3654 601.6087,-175.0472 593.2938,-181.6133 599.2033,-185.3654"/>
</g>
<!-- u6 -->
<g id="node14" class="node">
<title>u6</title>
<ellipse fill="#bbbbff" stroke="#000000" stroke-width="0" cx="612.4323" cy="-284" rx="27.0966" ry="18"/>
<text text-anchor="middle" x="612.4323" y="-280.3" font-family="Times,serif" font-size="14.00" fill="#000000">New</text>
</g>
<!-- u6&#45;&gt;u8 -->
<g id="edge15" class="edge">
<title>u6&#45;&gt;u8</title>
<path fill="none" stroke="#000000" d="M612.4323,-265.9473C612.4323,-245.0823 612.4323,-210.4928 612.4323,-186.1006"/>
<polygon fill="#000000" stroke="#000000" points="615.9324,-186.0192 612.4323,-176.0192 608.9324,-186.0193 615.9324,-186.0192"/>
</g>
<!-- u12 -->
<g id="node15" class="node">
<title>u12</title>
<ellipse fill="#bbffff" stroke="#000000" stroke-width="0" cx="757.4323" cy="-713" rx="53.0913" ry="18"/>
<text text-anchor="middle" x="757.4323" y="-709.3" font-family="Times,serif" font-size="14.00" fill="#000000">UTF8String</text>
</g>
<!-- u12&#45;&gt;u16 -->
<g id="edge31" class="edge">
<title>u12&#45;&gt;u16</title>
<path fill="none" stroke="#000000" d="M757.4323,-694.7545C757.4323,-657.4035 757.4323,-571.9976 757.4323,-527.3596"/>
<polygon fill="#000000" stroke="#000000" points="760.9324,-527.1993 757.4323,-517.1993 753.9324,-527.1994 760.9324,-527.1993"/>
</g>
<!-- u14 -->
<g id="node16" class="node">
<title>u14</title>
<ellipse fill="#77ff77" stroke="#000000" stroke-width="0" cx="890.4323" cy="-499" rx="50.8918" ry="18"/>
<text text-anchor="middle" x="890.4323" y="-495.3" font-family="Times,serif" font-size="14.00" fill="#000000">TimeSpace</text>
</g>
<!-- u15&#45;&gt;u11 -->
<g id="edge25" class="edge">
<title>u15&#45;&gt;u11</title>
<path fill="none" stroke="#000000" d="M603.4211,-483.0861C593.3536,-476.7112 581.1778,-469.7638 569.4323,-465 389.117,-391.8665 271.002,-510.9289 143.4323,-364 100.1437,-314.1422 109.2304,-229.6564 117.7922,-185.9898"/>
<polygon fill="#000000" stroke="#000000" points="121.2468,-186.5684 119.8696,-176.0634 114.3953,-185.1344 121.2468,-186.5684"/>
</g>
<!-- u15&#45;&gt;u0 -->
<g id="edge1" class="edge">
<title>u15&#45;&gt;u0</title>
<path fill="none" stroke="#000000" d="M600.6335,-483.5603C590.8679,-477.7294 579.6458,-471.0448 569.4323,-465 493.1426,-419.8486 462.5666,-424.1356 397.4323,-364 380.7212,-348.5714 366.1459,-327.3434 356.0571,-310.6314"/>
<polygon fill="#000000" stroke="#000000" points="359.0034,-308.7364 350.9288,-301.877 352.9635,-312.2747 359.0034,-308.7364"/>
</g>
<!-- u15&#45;&gt;u4 -->
<g id="edge6" class="edge">
<title>u15&#45;&gt;u4</title>
<path fill="none" stroke="#000000" d="M634.3685,-481.039C650.9935,-443.4141 689.5675,-356.1151 709.3126,-311.4288"/>
<polygon fill="#000000" stroke="#000000" points="712.6115,-312.6225 713.4518,-302.0611 706.2087,-309.7933 712.6115,-312.6225"/>
</g>
<!-- u16&#45;&gt;u11 -->
<g id="edge26" class="edge">
<title>u16&#45;&gt;u11</title>
<path fill="none" stroke="#000000" d="M727.1952,-482.9201C714.3037,-476.5944 698.9192,-469.7287 684.4323,-465 464.3548,-393.1645 340.2426,-524.5266 173.4323,-364 160.5812,-351.633 139.056,-239.6379 129.3925,-186.1689"/>
<polygon fill="#000000" stroke="#000000" points="132.8334,-185.5279 127.624,-176.3023 125.9432,-186.7629 132.8334,-185.5279"/>
</g>
<!-- u16&#45;&gt;u7 -->
<g id="edge8" class="edge">
<title>u16&#45;&gt;u7</title>
<path fill="none" stroke="#000000" d="M789.5371,-483.3991C802.1844,-477.4241 816.8972,-470.6832 830.4323,-465 948.1789,-415.5603 1002.8832,-447.5872 1099.4323,-364 1115.5609,-350.0367 1126.8921,-328.6441 1134.0124,-311.493"/>
<polygon fill="#000000" stroke="#000000" points="1137.3524,-312.5615 1137.7226,-301.9731 1130.8302,-310.0196 1137.3524,-312.5615"/>
</g>
<!-- u16&#45;&gt;u3 -->
<g id="edge4" class="edge">
<title>u16&#45;&gt;u3</title>
<path fill="none" stroke="#000000" d="M767.8747,-481.039C789.8416,-443.256 840.9319,-355.3807 866.8115,-310.8678"/>
<polygon fill="#000000" stroke="#000000" points="869.9312,-312.4653 871.9317,-302.0611 863.8796,-308.947 869.9312,-312.4653"/>
</g>
<!-- u17 -->
<g id="node19" class="node">
<title>u17</title>
<ellipse fill="#77ff77" stroke="#000000" stroke-width="0" cx="529.4323" cy="-499" rx="30.5947" ry="18"/>
<text text-anchor="middle" x="529.4323" y="-495.3" font-family="Times,serif" font-size="14.00" fill="#000000">Index</text>
</g>
<!-- u18 -->
<g id="node20" class="node">
<title>u18</title>
<ellipse fill="#77ff77" stroke="#000000" stroke-width="0" cx="415.4323" cy="-499" rx="65.7887" ry="18"/>
<text text-anchor="middle" x="415.4323" y="-495.3" font-family="Times,serif" font-size="14.00" fill="#000000">StoredTimeline</text>
</g>
<!-- u19 -->
<g id="node21" class="node">
<title>u19</title>
<ellipse fill="#77ff77" stroke="#000000" stroke-width="0" cx="300.4323" cy="-499" rx="31.3957" ry="18"/>
<text text-anchor="middle" x="300.4323" y="-495.3" font-family="Times,serif" font-size="14.00" fill="#000000">Event</text>
</g>
<!-- u20 -->
<g id="node22" class="node">
<title>u20</title>
<ellipse fill="#77ff77" stroke="#000000" stroke-width="0" cx="203.4323" cy="-499" rx="47.3916" ry="18"/>
<text text-anchor="middle" x="203.4323" y="-495.3" font-family="Times,serif" font-size="14.00" fill="#000000">TimeSpan</text>
</g>
<!-- u21 -->
<g id="node23" class="node">
<title>u21</title>
<ellipse fill="#77ff77" stroke="#000000" stroke-width="0" cx="95.4323" cy="-499" rx="42.7926" ry="18"/>
<text text-anchor="middle" x="95.4323" y="-495.3" font-family="Times,serif" font-size="14.00" fill="#000000">Timeline</text>
</g>
</g>
</svg>
