<?xml version="1.0" encoding="UTF-8" standalone="no"?>
<!DOCTYPE svg PUBLIC "-//W3C//DTD SVG 1.1//EN"
 "http://www.w3.org/Graphics/SVG/1.1/DTD/svg11.dtd">
<!-- Generated by graphviz version 2.40.1 (20161225.0304)
 -->
<!-- Title: G Pages: 1 -->
<svg width="432pt" height="271pt"
 viewBox="0.00 0.00 432.00 270.59" xmlns="http://www.w3.org/2000/svg" xmlns:xlink="http://www.w3.org/1999/xlink">
<g id="graph0" class="graph" transform="scale(.2905 .2905) rotate(0) translate(4 927.3333)">
<title>G</title>
<polygon fill="#ffffff" stroke="transparent" points="-4,4 -4,-927.3333 1482.8646,-927.3333 1482.8646,4 -4,4"/>
<g id="clust1" class="cluster">
<title>cluster_0</title>
<polygon fill="#000000" fill-opacity="0.058824" stroke="#000000" stroke-opacity="0.058824" points="221.6169,-512.511 221.6169,-833.8473 1233.6169,-833.8473 1233.6169,-512.511 221.6169,-512.511"/>
<text text-anchor="middle" x="727.6169" y="-818.6473" font-family="Times,serif" font-size="14.00" fill="#000000">Components</text>
</g>
<g id="clust2" class="cluster">
<title>cluster_1</title>
<polygon fill="#000000" fill-opacity="0.058824" stroke="#000000" stroke-opacity="0.058824" points="433.6169,-528.7812 433.6169,-681.3142 1127.6169,-681.3142 1127.6169,-528.7812 433.6169,-528.7812"/>
<text text-anchor="middle" x="780.6169" y="-666.1142" font-family="Times,serif" font-size="14.00" fill="#000000">Dialogs</text>
</g>
<g id="clust3" class="cluster">
<title>cluster_2</title>
<polygon fill="#000000" fill-opacity="0.058824" stroke="#000000" stroke-opacity="0.058824" points="80.6169,-264.3906 80.6169,-496.2408 492.6169,-496.2408 492.6169,-264.3906 80.6169,-264.3906"/>
<text text-anchor="middle" x="286.6169" y="-481.0408" font-family="Times,serif" font-size="14.00" fill="#000000">MaterialUI</text>
</g>
<g id="clust4" class="cluster">
<title>cluster_3</title>
<polygon fill="#000000" fill-opacity="0.058824" stroke="#000000" stroke-opacity="0.058824" points="88.6169,-280.6608 88.6169,-433.1938 484.6169,-433.1938 484.6169,-280.6608 88.6169,-280.6608"/>
<text text-anchor="middle" x="286.6169" y="-417.9938" font-family="Times,serif" font-size="14.00" fill="#000000">Icons</text>
</g>
<g id="clust5" class="cluster">
<title>cluster_4</title>
<polygon fill="#000000" fill-opacity="0.058824" stroke="#000000" stroke-opacity="0.058824" points="1065.6169,-16.2702 1065.6169,-248.1204 1203.6169,-248.1204 1203.6169,-16.2702 1065.6169,-16.2702"/>
<text text-anchor="middle" x="1134.6169" y="-232.9204" font-family="Times,serif" font-size="14.00" fill="#000000">Test</text>
</g>
<g id="clust6" class="cluster">
<title>cluster_5</title>
<polygon fill="#000000" fill-opacity="0.058824" stroke="#000000" stroke-opacity="0.058824" points="1073.6169,-32.5404 1073.6169,-185.0734 1195.6169,-185.0734 1195.6169,-32.5404 1073.6169,-32.5404"/>
<text text-anchor="middle" x="1134.6169" y="-169.8734" font-family="Times,serif" font-size="14.00" fill="#000000">QuickCheck</text>
</g>
<g id="clust7" class="cluster">
<title>cluster_6</title>
<polygon fill="#000000" fill-opacity="0.058824" stroke="#000000" stroke-opacity="0.058824" points="528.6169,-264.3906 528.6169,-496.2408 1449.6169,-496.2408 1449.6169,-264.3906 528.6169,-264.3906"/>
<text text-anchor="middle" x="989.1169" y="-481.0408" font-family="Times,serif" font-size="14.00" fill="#000000">Timeline</text>
</g>
<g id="clust8" class="cluster">
<title>cluster_7</title>
<polygon fill="#000000" fill-opacity="0.058824" stroke="#000000" stroke-opacity="0.058824" points="536.6169,-280.6608 536.6169,-433.1938 1441.6169,-433.1938 1441.6169,-280.6608 536.6169,-280.6608"/>
<text text-anchor="middle" x="989.1169" y="-417.9938" font-family="Times,serif" font-size="14.00" fill="#000000">Data</text>
</g>
<!-- u13 -->
<g id="node1" class="node">
<title>u13</title>
<ellipse fill="#bbffbb" stroke="#000000" stroke-width="0" cx="510.6169" cy="-85.2702" rx="38.9931" ry="18"/>
<text text-anchor="middle" x="510.6169" y="-81.5702" font-family="Times,serif" font-size="14.00" fill="#000000">Settings</text>
</g>
<!-- u14 -->
<g id="node2" class="node">
<title>u14</title>
<ellipse fill="#bbffbb" stroke="#000000" stroke-width="0" cx="1286.6169" cy="-734.2702" rx="45.4919" ry="18"/>
<text text-anchor="middle" x="1286.6169" y="-730.5702" font-family="Times,serif" font-size="14.00" fill="#000000">Plumbing</text>
</g>
<!-- u14&#45;&gt;u13 -->
<g id="edge26" class="edge">
<title>u14&#45;&gt;u13</title>
<path fill="none" stroke="#000000" d="M1303.3084,-717.4227C1362.7501,-655.4096 1554.8663,-436.3493 1445.6169,-299.2702 1388.5713,-227.6931 739.8852,-121.2201 557.8546,-92.5824"/>
<polygon fill="#000000" stroke="#000000" points="558.2105,-89.0955 547.7889,-91.0034 557.1256,-96.0109 558.2105,-89.0955"/>
</g>
<!-- u12 -->
<g id="node8" class="node">
<title>u12</title>
<ellipse fill="#ffffbb" stroke="#000000" stroke-width="0" cx="1181.6169" cy="-581.2702" rx="43.5923" ry="18"/>
<text text-anchor="middle" x="1181.6169" y="-577.5702" font-family="Times,serif" font-size="14.00" fill="#000000">Snackbar</text>
</g>
<!-- u14&#45;&gt;u12 -->
<g id="edge25" class="edge">
<title>u14&#45;&gt;u12</title>
<path fill="none" stroke="#000000" d="M1274.572,-716.7191C1256.1376,-689.8575 1220.8182,-638.3921 1199.4211,-607.2135"/>
<polygon fill="#000000" stroke="#000000" points="1202.0655,-604.8812 1193.5212,-598.6165 1196.2939,-608.8422 1202.0655,-604.8812"/>
</g>
<!-- u4 -->
<g id="node9" class="node">
<title>u4</title>
<ellipse fill="#bbbbff" stroke="#000000" stroke-width="0" cx="997.6169" cy="-581.2702" rx="35.194" ry="18"/>
<text text-anchor="middle" x="997.6169" y="-577.5702" font-family="Times,serif" font-size="14.00" fill="#000000">Import</text>
</g>
<!-- u14&#45;&gt;u4 -->
<g id="edge23" class="edge">
<title>u14&#45;&gt;u4</title>
<path fill="none" stroke="#000000" d="M1252.9887,-721.9619C1194.8248,-700.3427 1078.243,-655.4584 1042.6169,-630.2702 1033.183,-623.6003 1024.2508,-614.6614 1016.8688,-606.2451"/>
<polygon fill="#000000" stroke="#000000" points="1019.4128,-603.832 1010.3003,-598.4271 1014.0533,-608.335 1019.4128,-603.832"/>
</g>
<!-- u8 -->
<g id="node13" class="node">
<title>u8</title>
<ellipse fill="#bbbbff" stroke="#000000" stroke-width="0" cx="1085.6169" cy="-581.2702" rx="34.394" ry="18"/>
<text text-anchor="middle" x="1085.6169" y="-577.5702" font-family="Times,serif" font-size="14.00" fill="#000000">Export</text>
</g>
<!-- u14&#45;&gt;u8 -->
<g id="edge24" class="edge">
<title>u14&#45;&gt;u8</title>
<path fill="none" stroke="#000000" d="M1258.3654,-720.1247C1224.1635,-702.1675 1165.8997,-668.8428 1123.6169,-630.2702 1115.9433,-623.27 1108.6562,-614.5861 1102.5542,-606.482"/>
<polygon fill="#000000" stroke="#000000" points="1105.3584,-604.387 1096.6577,-598.3415 1099.6893,-608.4933 1105.3584,-604.387"/>
</g>
<!-- u18 -->
<g id="node20" class="node">
<title>u18</title>
<ellipse fill="#7777ff" stroke="#000000" stroke-width="0" cx="1265.6169" cy="-333.2702" rx="48.9926" ry="18"/>
<text text-anchor="middle" x="1265.6169" y="-329.5702" font-family="Times,serif" font-size="14.00" fill="#000000">TimeScale</text>
</g>
<!-- u14&#45;&gt;u18 -->
<g id="edge27" class="edge">
<title>u14&#45;&gt;u18</title>
<path fill="none" stroke="#000000" d="M1285.6737,-716.261C1282.3504,-652.8004 1271.1658,-439.2286 1267.1055,-361.6964"/>
<polygon fill="#000000" stroke="#000000" points="1270.5997,-361.4922 1266.5814,-351.6889 1263.6093,-361.8583 1270.5997,-361.4922"/>
</g>
<!-- u19 -->
<g id="node21" class="node">
<title>u19</title>
<ellipse fill="#7777ff" stroke="#000000" stroke-width="0" cx="1134.6169" cy="-333.2702" rx="64.189" ry="18"/>
<text text-anchor="middle" x="1134.6169" y="-329.5702" font-family="Times,serif" font-size="14.00" fill="#000000">TimelineName</text>
</g>
<!-- u14&#45;&gt;u19 -->
<g id="edge28" class="edge">
<title>u14&#45;&gt;u19</title>
<path fill="none" stroke="#000000" d="M1283.0775,-716.1268C1276.2149,-682.3061 1259.8013,-607.59 1237.6169,-547.2702 1211.9235,-477.4098 1171.2469,-399.6592 1149.4958,-359.8871"/>
<polygon fill="#000000" stroke="#000000" points="1152.5352,-358.1505 1144.647,-351.0776 1146.4027,-361.526 1152.5352,-358.1505"/>
</g>
<!-- u16 -->
<g id="node3" class="node">
<title>u16</title>
<ellipse fill="#bbffbb" stroke="#000000" stroke-width="0" cx="1083.6169" cy="-886.2702" rx="29.795" ry="18"/>
<text text-anchor="middle" x="1083.6169" y="-882.5702" font-family="Times,serif" font-size="14.00" fill="#000000">Main</text>
</g>
<!-- u16&#45;&gt;u14 -->
<g id="edge30" class="edge">
<title>u16&#45;&gt;u14</title>
<path fill="none" stroke="#000000" d="M1105.2125,-873.6835C1135.8783,-855.4059 1193.2431,-819.7035 1237.6169,-783.2702 1246.729,-775.7886 1256.0454,-766.8544 1264.0743,-758.6761"/>
<polygon fill="#000000" stroke="#000000" points="1266.6264,-761.0717 1271.043,-751.4413 1261.5848,-756.2155 1266.6264,-761.0717"/>
</g>
<!-- u11 -->
<g id="node7" class="node">
<title>u11</title>
<ellipse fill="#ffffbb" stroke="#000000" stroke-width="0" cx="812.6169" cy="-734.2702" rx="30.5947" ry="18"/>
<text text-anchor="middle" x="812.6169" y="-730.5702" font-family="Times,serif" font-size="14.00" fill="#000000">Index</text>
</g>
<!-- u16&#45;&gt;u11 -->
<g id="edge29" class="edge">
<title>u16&#45;&gt;u11</title>
<path fill="none" stroke="#000000" d="M1061.4398,-873.8314C1013.4014,-846.8874 899.5995,-783.0575 844.1195,-751.9396"/>
<polygon fill="#000000" stroke="#000000" points="845.5343,-748.7202 835.1004,-746.8809 842.11,-754.8254 845.5343,-748.7202"/>
</g>
<!-- u25 -->
<g id="node4" class="node">
<title>u25</title>
<ellipse fill="#bbffbb" stroke="#000000" stroke-width="0" cx="165.6169" cy="-581.2702" rx="46.2923" ry="18"/>
<text text-anchor="middle" x="165.6169" y="-577.5702" font-family="Times,serif" font-size="14.00" fill="#000000">WithRoot</text>
</g>
<!-- u3 -->
<g id="node5" class="node">
<title>u3</title>
<ellipse fill="#ffffbb" stroke="#000000" stroke-width="0" cx="373.6169" cy="-581.2702" rx="50.0912" ry="18"/>
<text text-anchor="middle" x="373.6169" y="-577.5702" font-family="Times,serif" font-size="14.00" fill="#000000">BottomBar</text>
</g>
<!-- u3&#45;&gt;u18 -->
<g id="edge1" class="edge">
<title>u3&#45;&gt;u18</title>
<path fill="none" stroke="#000000" d="M396.0506,-564.9869C405.9122,-558.5496 417.8993,-551.6554 429.6169,-547.2702 758.2273,-424.2892 909.7882,-598.762 1207.6169,-413.2702 1227.9532,-400.6044 1243.3624,-377.9494 1253.1681,-359.9734"/>
<polygon fill="#000000" stroke="#000000" points="1256.2848,-361.566 1257.7815,-351.0774 1250.0707,-358.3434 1256.2848,-361.566"/>
</g>
<!-- u10 -->
<g id="node6" class="node">
<title>u10</title>
<ellipse fill="#ffffbb" stroke="#000000" stroke-width="0" cx="267.6169" cy="-581.2702" rx="37.8943" ry="18"/>
<text text-anchor="middle" x="267.6169" y="-577.5702" font-family="Times,serif" font-size="14.00" fill="#000000">TopBar</text>
</g>
<!-- u10&#45;&gt;u13 -->
<g id="edge10" class="edge">
<title>u10&#45;&gt;u13</title>
<path fill="none" stroke="#000000" d="M246.6826,-565.8647C238.5886,-559.9774 229.2189,-553.2456 220.6169,-547.2702 132.4391,-486.0167 70.278,-507.9315 19.6169,-413.2702 -4.2906,-368.5987 -8.1449,-341.6541 19.6169,-299.2702 120.4747,-145.2907 358.9317,-101.4866 461.8869,-89.5383"/>
<polygon fill="#000000" stroke="#000000" points="462.4504,-92.9974 472.0038,-88.4169 461.6791,-86.04 462.4504,-92.9974"/>
</g>
<!-- u0 -->
<g id="node15" class="node">
<title>u0</title>
<ellipse fill="#bbffff" stroke="#000000" stroke-width="0" cx="150.6169" cy="-333.2702" rx="53.8905" ry="18"/>
<text text-anchor="middle" x="150.6169" y="-329.5702" font-family="Times,serif" font-size="14.00" fill="#000000">GetAppIcon</text>
</g>
<!-- u10&#45;&gt;u0 -->
<g id="edge7" class="edge">
<title>u10&#45;&gt;u0</title>
<path fill="none" stroke="#000000" d="M259.2025,-563.4346C238.9714,-520.5516 187.4999,-411.4497 163.4125,-360.3925"/>
<polygon fill="#000000" stroke="#000000" points="166.5444,-358.828 159.1122,-351.2774 160.2136,-361.8148 166.5444,-358.828"/>
</g>
<!-- u1 -->
<g id="node16" class="node">
<title>u1</title>
<ellipse fill="#bbffff" stroke="#000000" stroke-width="0" cx="413.6169" cy="-333.2702" rx="63.0888" ry="18"/>
<text text-anchor="middle" x="413.6169" y="-329.5702" font-family="Times,serif" font-size="14.00" fill="#000000">AddCircleIcon</text>
</g>
<!-- u10&#45;&gt;u1 -->
<g id="edge8" class="edge">
<title>u10&#45;&gt;u1</title>
<path fill="none" stroke="#000000" d="M277.8833,-563.8313C303.0583,-521.0682 367.9838,-410.7838 397.9878,-359.8182"/>
<polygon fill="#000000" stroke="#000000" points="401.1092,-361.415 403.1664,-351.0217 395.0769,-357.8637 401.1092,-361.415"/>
</g>
<!-- u2 -->
<g id="node17" class="node">
<title>u2</title>
<ellipse fill="#bbffff" stroke="#000000" stroke-width="0" cx="277.6169" cy="-333.2702" rx="54.6905" ry="18"/>
<text text-anchor="middle" x="277.6169" y="-329.5702" font-family="Times,serif" font-size="14.00" fill="#000000">SettingsIcon</text>
</g>
<!-- u10&#45;&gt;u2 -->
<g id="edge9" class="edge">
<title>u10&#45;&gt;u2</title>
<path fill="none" stroke="#000000" d="M268.3522,-563.0342C270.0787,-520.217 274.4019,-413.0025 276.4742,-361.6092"/>
<polygon fill="#000000" stroke="#000000" points="279.9746,-361.6659 276.8805,-351.533 272.9803,-361.3838 279.9746,-361.6659"/>
</g>
<!-- u10&#45;&gt;u19 -->
<g id="edge11" class="edge">
<title>u10&#45;&gt;u19</title>
<path fill="none" stroke="#000000" d="M285.6465,-565.2872C293.9424,-558.7414 304.2361,-551.6821 314.6169,-547.2702 625.0428,-415.3361 766.3081,-576.2536 1061.6169,-413.2702 1084.8173,-400.4657 1104.598,-377.5126 1117.6925,-359.4662"/>
<polygon fill="#000000" stroke="#000000" points="1120.704,-361.2672 1123.5692,-351.0672 1114.9685,-357.2541 1120.704,-361.2672"/>
</g>
<!-- u11&#45;&gt;u14 -->
<g id="edge21" class="edge">
<title>u11&#45;&gt;u14</title>
<path fill="none" stroke="#000000" d="M843.1676,-734.2702C972.3181,-734.2702 1101.4686,-734.2702 1230.619,-734.2702"/>
<polygon fill="#000000" stroke="#000000" points="1230.713,-737.7703 1240.7129,-734.2702 1230.7129,-730.7703 1230.713,-737.7703"/>
</g>
<!-- u11&#45;&gt;u25 -->
<g id="edge22" class="edge">
<title>u11&#45;&gt;u25</title>
<path fill="none" stroke="#000000" d="M782.4799,-731.3124C676.1326,-720.5223 319.3463,-681.2271 217.6169,-630.2702 205.8329,-624.3675 194.8732,-614.9239 186.0833,-605.8954"/>
<polygon fill="#000000" stroke="#000000" points="188.5993,-603.461 179.2398,-598.4959 183.4602,-608.2139 188.5993,-603.461"/>
</g>
<!-- u11&#45;&gt;u3 -->
<g id="edge12" class="edge">
<title>u11&#45;&gt;u3</title>
<path fill="none" stroke="#000000" d="M782.5883,-730.7973C715.6924,-722.0911 550.771,-695.2022 429.6169,-630.2702 417.6968,-623.8817 406.161,-614.5239 396.6886,-605.6938"/>
<polygon fill="#000000" stroke="#000000" points="398.8673,-602.9309 389.2539,-598.4773 393.9918,-607.9538 398.8673,-602.9309"/>
</g>
<!-- u11&#45;&gt;u10 -->
<g id="edge19" class="edge">
<title>u11&#45;&gt;u10</title>
<path fill="none" stroke="#000000" d="M782.4839,-730.3572C687.6909,-717.6821 396.9884,-675.9195 314.6169,-630.2702 303.8813,-624.3207 294.1034,-615.1046 286.2801,-606.2635"/>
<polygon fill="#000000" stroke="#000000" points="288.7705,-603.7852 279.6736,-598.354 283.398,-608.2726 288.7705,-603.7852"/>
</g>
<!-- u11&#45;&gt;u12 -->
<g id="edge20" class="edge">
<title>u11&#45;&gt;u12</title>
<path fill="none" stroke="#000000" d="M842.2302,-729.3208C900.9326,-718.5347 1034.746,-689.0277 1131.6169,-630.2702 1142.2263,-623.835 1152.3257,-614.7394 1160.6347,-606.1288"/>
<polygon fill="#000000" stroke="#000000" points="1163.2237,-608.4842 1167.4433,-598.7659 1158.0843,-603.7317 1163.2237,-608.4842"/>
</g>
<!-- u11&#45;&gt;u4 -->
<g id="edge13" class="edge">
<title>u11&#45;&gt;u4</title>
<path fill="none" stroke="#000000" d="M833.7089,-720.6935C862.203,-701.9212 913.986,-666.2618 953.6169,-630.2702 961.8691,-622.7757 970.2179,-613.8823 977.3925,-605.7426"/>
<polygon fill="#000000" stroke="#000000" points="980.247,-607.792 984.1288,-597.9339 974.9467,-603.2196 980.247,-607.792"/>
</g>
<!-- u5 -->
<g id="node10" class="node">
<title>u5</title>
<ellipse fill="#bbbbff" stroke="#000000" stroke-width="0" cx="744.6169" cy="-581.2702" rx="53.8905" ry="18"/>
<text text-anchor="middle" x="744.6169" y="-577.5702" font-family="Times,serif" font-size="14.00" fill="#000000">SettingsEdit</text>
</g>
<!-- u11&#45;&gt;u5 -->
<g id="edge14" class="edge">
<title>u11&#45;&gt;u5</title>
<path fill="none" stroke="#000000" d="M804.8164,-716.7191C793.0433,-690.2298 770.6362,-639.8137 756.7284,-608.5212"/>
<polygon fill="#000000" stroke="#000000" points="759.7956,-606.8044 752.5358,-599.0878 753.3989,-609.6475 759.7956,-606.8044"/>
</g>
<!-- u6 -->
<g id="node11" class="node">
<title>u6</title>
<ellipse fill="#bbbbff" stroke="#000000" stroke-width="0" cx="520.6169" cy="-581.2702" rx="79.0865" ry="18"/>
<text text-anchor="middle" x="520.6169" y="-577.5702" font-family="Times,serif" font-size="14.00" fill="#000000">TimelineNameEdit</text>
</g>
<!-- u11&#45;&gt;u6 -->
<g id="edge15" class="edge">
<title>u11&#45;&gt;u6</title>
<path fill="none" stroke="#000000" d="M789.0552,-722.4856C751.0979,-703.4368 674.1364,-664.5486 609.6169,-630.2702 593.0802,-621.4845 574.953,-611.5587 559.3985,-602.9495"/>
<polygon fill="#000000" stroke="#000000" points="561.0114,-599.8418 550.569,-598.0511 557.6156,-605.9629 561.0114,-599.8418"/>
</g>
<!-- u7 -->
<g id="node12" class="node">
<title>u7</title>
<ellipse fill="#bbbbff" stroke="#000000" stroke-width="0" cx="880.6169" cy="-581.2702" rx="63.8893" ry="18"/>
<text text-anchor="middle" x="880.6169" y="-577.5702" font-family="Times,serif" font-size="14.00" fill="#000000">TimeScaleEdit</text>
</g>
<!-- u11&#45;&gt;u7 -->
<g id="edge16" class="edge">
<title>u11&#45;&gt;u7</title>
<path fill="none" stroke="#000000" d="M820.4173,-716.7191C832.1274,-690.3714 854.3582,-640.3522 868.2815,-609.0248"/>
<polygon fill="#000000" stroke="#000000" points="871.6231,-610.1237 872.4862,-599.5641 865.2265,-607.2807 871.6231,-610.1237"/>
</g>
<!-- u11&#45;&gt;u8 -->
<g id="edge17" class="edge">
<title>u11&#45;&gt;u8</title>
<path fill="none" stroke="#000000" d="M839.9281,-725.9673C884.9114,-711.4351 976.1213,-678.2958 1041.6169,-630.2702 1050.8399,-623.5072 1059.5733,-614.548 1066.7914,-606.1415"/>
<polygon fill="#000000" stroke="#000000" points="1069.5599,-608.2854 1073.2142,-598.3407 1064.1559,-603.836 1069.5599,-608.2854"/>
</g>
<!-- u9 -->
<g id="node14" class="node">
<title>u9</title>
<ellipse fill="#bbbbff" stroke="#000000" stroke-width="0" cx="645.6169" cy="-581.2702" rx="27.0966" ry="18"/>
<text text-anchor="middle" x="645.6169" y="-577.5702" font-family="Times,serif" font-size="14.00" fill="#000000">New</text>
</g>
<!-- u11&#45;&gt;u9 -->
<g id="edge18" class="edge">
<title>u11&#45;&gt;u9</title>
<path fill="none" stroke="#000000" d="M792.1604,-720.6157C765.1436,-702.0296 716.8728,-666.869 681.6169,-630.2702 674.6252,-623.0122 667.8417,-614.3531 662.0833,-606.3471"/>
<polygon fill="#000000" stroke="#000000" points="664.8649,-604.2169 656.276,-598.0135 659.1218,-608.219 664.8649,-604.2169"/>
</g>
<!-- u5&#45;&gt;u13 -->
<g id="edge2" class="edge">
<title>u5&#45;&gt;u13</title>
<path fill="none" stroke="#000000" d="M719.0396,-565.3041C707.8879,-558.9204 694.4513,-551.9806 681.6169,-547.2702 411.6563,-448.1915 229.6818,-636.6774 48.6169,-413.2702 -83.5603,-250.1832 325.6986,-131.0645 465.5335,-95.9432"/>
<polygon fill="#000000" stroke="#000000" points="466.6511,-99.272 475.5127,-93.4648 464.9639,-92.4784 466.6511,-99.272"/>
</g>
<!-- u6&#45;&gt;u13 -->
<g id="edge3" class="edge">
<title>u6&#45;&gt;u13</title>
<path fill="none" stroke="#000000" d="M520.2491,-563.029C518.7406,-488.2081 513.0207,-204.5008 511.1866,-113.5268"/>
<polygon fill="#000000" stroke="#000000" points="514.6836,-113.3422 510.9827,-103.4148 507.6851,-113.4834 514.6836,-113.3422"/>
</g>
<!-- u6&#45;&gt;u19 -->
<g id="edge4" class="edge">
<title>u6&#45;&gt;u19</title>
<path fill="none" stroke="#000000" d="M559.8126,-565.5525C575.2391,-559.5623 593.1672,-552.8415 609.6169,-547.2702 808.0744,-480.0555 884.0531,-524.5101 1061.6169,-413.2702 1083.7994,-399.3733 1103.4445,-376.9318 1116.7516,-359.3491"/>
<polygon fill="#000000" stroke="#000000" points="1119.6621,-361.299 1122.7584,-351.1667 1114.0193,-357.1566 1119.6621,-361.299"/>
</g>
<!-- u7&#45;&gt;u13 -->
<g id="edge5" class="edge">
<title>u7&#45;&gt;u13</title>
<path fill="none" stroke="#000000" d="M850.7613,-565.2795C837.8027,-558.8916 822.2647,-551.9553 807.6169,-547.2702 496.3458,-447.7097 293.5892,-664.5321 84.6169,-413.2702 -42.1944,-260.7963 334.9156,-135.484 466.845,-97.2726"/>
<polygon fill="#000000" stroke="#000000" points="467.9948,-100.5841 476.6436,-94.4646 466.0664,-93.8549 467.9948,-100.5841"/>
</g>
<!-- u7&#45;&gt;u18 -->
<g id="edge6" class="edge">
<title>u7&#45;&gt;u18</title>
<path fill="none" stroke="#000000" d="M913.1246,-565.639C990.877,-528.1011 1182.9719,-434.4122 1207.6169,-413.2702 1225.1944,-398.191 1240.3625,-376.7683 1250.7741,-359.886"/>
<polygon fill="#000000" stroke="#000000" points="1253.9325,-361.4234 1256.0541,-351.0431 1247.9224,-357.8347 1253.9325,-361.4234"/>
</g>
<!-- u15 -->
<g id="node18" class="node">
<title>u15</title>
<ellipse fill="#77ff77" stroke="#000000" stroke-width="0" cx="1134.6169" cy="-85.2702" rx="53.0913" ry="18"/>
<text text-anchor="middle" x="1134.6169" y="-81.5702" font-family="Times,serif" font-size="14.00" fill="#000000">UTF8String</text>
</g>
<!-- u17 -->
<g id="node19" class="node">
<title>u17</title>
<ellipse fill="#7777ff" stroke="#000000" stroke-width="0" cx="1382.6169" cy="-333.2702" rx="50.8918" ry="18"/>
<text text-anchor="middle" x="1382.6169" y="-329.5702" font-family="Times,serif" font-size="14.00" fill="#000000">TimeSpace</text>
</g>
<!-- u18&#45;&gt;u13 -->
<g id="edge31" class="edge">
<title>u18&#45;&gt;u13</title>
<path fill="none" stroke="#000000" d="M1241.7287,-317.576C1231.508,-311.3124 1219.2643,-304.3888 1207.6169,-299.2702 971.3438,-195.4375 669.3157,-121.2559 556.1372,-95.3561"/>
<polygon fill="#000000" stroke="#000000" points="556.6246,-91.8776 546.0973,-93.0722 555.0718,-98.7033 556.6246,-91.8776"/>
</g>
<!-- u19&#45;&gt;u13 -->
<g id="edge32" class="edge">
<title>u19&#45;&gt;u13</title>
<path fill="none" stroke="#000000" d="M1102.1164,-317.5782C1089.5467,-311.6556 1074.9912,-304.9747 1061.6169,-299.2702 872.6364,-218.6645 642.247,-133.2511 550.7976,-99.8485"/>
<polygon fill="#000000" stroke="#000000" points="551.9571,-96.546 541.3632,-96.4071 549.5583,-103.1221 551.9571,-96.546"/>
</g>
<!-- u19&#45;&gt;u15 -->
<g id="edge33" class="edge">
<title>u19&#45;&gt;u15</title>
<path fill="none" stroke="#000000" d="M1134.6169,-315.0342C1134.6169,-272.217 1134.6169,-165.0025 1134.6169,-113.6092"/>
<polygon fill="#000000" stroke="#000000" points="1138.117,-113.5329 1134.6169,-103.533 1131.117,-113.533 1138.117,-113.5329"/>
</g>
<!-- u20 -->
<g id="node22" class="node">
<title>u20</title>
<ellipse fill="#7777ff" stroke="#000000" stroke-width="0" cx="1021.6169" cy="-333.2702" rx="30.5947" ry="18"/>
<text text-anchor="middle" x="1021.6169" y="-329.5702" font-family="Times,serif" font-size="14.00" fill="#000000">Index</text>
</g>
<!-- u21 -->
<g id="node23" class="node">
<title>u21</title>
<ellipse fill="#7777ff" stroke="#000000" stroke-width="0" cx="907.6169" cy="-333.2702" rx="65.7887" ry="18"/>
<text text-anchor="middle" x="907.6169" y="-329.5702" font-family="Times,serif" font-size="14.00" fill="#000000">StoredTimeline</text>
</g>
<!-- u22 -->
<g id="node24" class="node">
<title>u22</title>
<ellipse fill="#7777ff" stroke="#000000" stroke-width="0" cx="792.6169" cy="-333.2702" rx="31.3957" ry="18"/>
<text text-anchor="middle" x="792.6169" y="-329.5702" font-family="Times,serif" font-size="14.00" fill="#000000">Event</text>
</g>
<!-- u23 -->
<g id="node25" class="node">
<title>u23</title>
<ellipse fill="#7777ff" stroke="#000000" stroke-width="0" cx="695.6169" cy="-333.2702" rx="47.3916" ry="18"/>
<text text-anchor="middle" x="695.6169" y="-329.5702" font-family="Times,serif" font-size="14.00" fill="#000000">TimeSpan</text>
</g>
<!-- u24 -->
<g id="node26" class="node">
<title>u24</title>
<ellipse fill="#7777ff" stroke="#000000" stroke-width="0" cx="587.6169" cy="-333.2702" rx="42.7926" ry="18"/>
<text text-anchor="middle" x="587.6169" y="-329.5702" font-family="Times,serif" font-size="14.00" fill="#000000">Timeline</text>
</g>
</g>
</svg>
