<?xml version="1.0" standalone="no"?>
<!DOCTYPE svg PUBLIC "-//W3C//DTD SVG 20010904//EN"
 "http://www.w3.org/TR/2001/REC-SVG-20010904/DTD/svg10.dtd">
<svg version="1.0" xmlns="http://www.w3.org/2000/svg"
 width="700.000000pt" height="700.000000pt" viewBox="0 0 700.000000 700.000000"
 preserveAspectRatio="xMidYMid meet">
<metadata>
Created by potrace 1.11, written by Peter Selinger 2001-2013
</metadata>
<g transform="translate(0.000000,700.000000) scale(0.100000,-0.100000)"
fill="#000000" stroke="none">
<path d="M3235 6993 c-855 -74 -1624 -429 -2212 -1020 -285 -287 -509 -603
-678 -956 -158 -332 -256 -651 -310 -1012 -24 -166 -30 -259 -30 -500 0 -249
6 -344 30 -512 79 -534 283 -1050 588 -1487 66 -94 125 -174 137 -186 3 -3 24
-27 45 -55 129 -160 344 -370 525 -512 110 -86 247 -183 258 -183 6 0 12 -4
14 -8 12 -30 407 -236 593 -310 280 -111 626 -201 880 -227 33 -4 71 -9 85
-12 62 -12 570 -10 690 3 887 97 1690 507 2257 1152 32 36 67 74 77 85 48 50
213 280 287 399 253 408 441 925 494 1363 4 28 8 61 11 75 26 149 25 706 -1
835 -2 11 -7 40 -10 65 -3 25 -7 54 -9 65 -2 11 -11 61 -21 110 -87 466 -285
935 -563 1335 -212 304 -496 599 -777 805 -89 65 -233 165 -238 165 -2 0 -46
26 -98 57 -363 219 -854 387 -1299 443 -47 6 -98 13 -115 16 -35 6 -552 12
-610 7z m520 -946 c11 -3 45 -8 75 -12 722 -90 1390 -505 1802 -1121 192 -287
336 -652 393 -994 23 -138 29 -224 29 -395 1 -177 -9 -369 -19 -385 -2 -4 -7
-29 -10 -56 -16 -126 -87 -378 -155 -549 -39 -99 -155 -323 -214 -413 -344
-527 -849 -903 -1443 -1076 -262 -76 -453 -102 -743 -100 -843 5 -1638 438
-2103 1146 -125 190 -209 361 -283 571 -43 124 -101 357 -110 441 -4 34 -8 64
-10 68 -16 27 -24 397 -12 543 86 1006 755 1868 1709 2200 200 70 411 115 614
131 44 4 81 8 83 9 5 4 375 -4 397 -8z"/>
<path d="M3464 5722 c-33 -22 -34 -43 -34 -1145 0 -1092 0 -1094 21 -1121 l20
-26 1093 0 c1085 0 1092 0 1114 20 28 26 28 69 2 98 l-21 22 -1044 0 -1045 0
0 1058 c0 1051 0 1058 -20 1080 -20 22 -64 29 -86 14z"/>
</g>
</svg>
