<?xml version="1.0" standalone="no"?>
<!DOCTYPE svg PUBLIC "-//W3C//DTD SVG 20010904//EN"
 "http://www.w3.org/TR/2001/REC-SVG-20010904/DTD/svg10.dtd">
<svg version="1.0" xmlns="http://www.w3.org/2000/svg"
 width="700.000000pt" height="700.000000pt" viewBox="0 0 700.000000 700.000000"
 preserveAspectRatio="xMidYMid meet">
<metadata>
Created by potrace 1.11, written by Peter Selinger 2001-2013
</metadata>
<g transform="translate(0.000000,700.000000) scale(0.100000,-0.100000)"
fill="#000000" stroke="none">
<path d="M3279 6996 c-2 -2 -40 -6 -84 -10 -119 -9 -168 -16 -355 -50 -90 -16
-200 -42 -300 -71 -131 -38 -370 -122 -385 -136 -5 -5 -15 -9 -22 -9 -24 0
-294 -137 -429 -217 -709 -423 -1250 -1092 -1516 -1873 -36 -104 -101 -338
-112 -400 -12 -68 -28 -158 -32 -180 -3 -14 -7 -45 -10 -70 -3 -25 -7 -56 -9
-70 -13 -75 -20 -220 -19 -420 0 -245 5 -312 34 -510 6 -41 13 -86 15 -100 10
-72 62 -282 102 -410 266 -863 850 -1584 1637 -2024 127 -71 325 -165 446
-211 259 -99 625 -189 853 -211 34 -3 73 -8 87 -10 44 -9 502 -12 581 -4 254
26 345 40 522 81 276 63 534 157 783 284 82 42 169 87 194 101 74 43 301 195
356 238 28 23 68 54 88 70 20 16 35 33 34 37 -2 5 -151 157 -332 339 l-328
331 -32 -25 c-62 -50 -223 -154 -321 -208 -87 -48 -271 -135 -300 -142 -5 -2
-23 -8 -40 -15 -67 -28 -267 -84 -378 -107 -117 -24 -139 -27 -287 -43 -83 -9
-430 -7 -500 4 -293 43 -485 93 -700 182 -75 31 -260 123 -315 156 -440 268
-759 607 -981 1042 -114 225 -202 472 -230 651 -3 21 -8 42 -9 45 -2 3 -7 28
-10 55 -4 27 -8 56 -10 64 -12 43 -20 185 -20 350 0 197 9 305 35 445 5 28 12
64 15 80 12 74 78 293 121 401 100 255 265 537 411 705 180 208 344 356 549
497 97 67 302 176 424 226 36 15 74 31 85 36 83 38 384 121 496 135 30 4 65 9
79 11 97 14 187 19 335 19 242 -1 391 -18 605 -69 225 -55 465 -151 665 -266
80 -46 237 -151 285 -189 14 -11 28 -21 31 -21 4 0 156 149 338 331 260 260
329 334 320 345 -16 20 -193 153 -280 212 -259 173 -537 312 -824 411 -88 31
-316 96 -365 105 -14 2 -45 9 -70 15 -62 14 -158 29 -365 56 -45 6 -551 16
-556 11z"/>
<path d="M5863 5442 c-169 -170 -319 -320 -332 -335 l-23 -26 44 -58 c39 -50
95 -134 151 -225 108 -174 227 -468 283 -693 1 -5 11 -55 22 -110 37 -183 46
-274 46 -480 1 -177 -7 -307 -24 -397 -6 -29 -13 -65 -15 -80 -3 -16 -7 -40
-10 -55 -20 -117 -98 -358 -163 -503 -81 -183 -216 -414 -308 -526 l-33 -40
333 -337 334 -337 35 42 c20 24 49 61 66 83 17 22 35 45 40 52 6 6 44 60 84
120 173 253 324 557 425 858 59 175 130 476 148 630 3 33 8 69 10 80 9 50 19
244 18 390 0 222 -13 407 -40 555 -1 8 -6 35 -9 60 -11 77 -62 290 -100 415
-104 343 -285 712 -492 1001 -95 132 -165 223 -175 223 -3 1 -145 -138 -315
-307z"/>
<path d="M3395 5641 c-91 -24 -164 -84 -203 -169 l-26 -57 -1 -985 c-1 -705 2
-1000 10 -1036 21 -92 83 -166 174 -207 45 -21 57 -21 1056 -21 l1010 0 55 28
c65 34 115 84 144 146 31 66 29 199 -4 255 -35 60 -79 104 -135 133 l-50 27
-832 3 -833 3 -2 837 -3 837 -23 42 c-35 66 -78 110 -137 138 -57 29 -147 40
-200 26z"/>
</g>
</svg>
