<?xml version="1.0" encoding="UTF-8" standalone="no"?>
<!DOCTYPE svg PUBLIC "-//W3C//DTD SVG 1.1//EN"
 "http://www.w3.org/Graphics/SVG/1.1/DTD/svg11.dtd">
<!-- Generated by graphviz version 2.40.1 (20161225.0304)
 -->
<!-- Title: SignalsAndQueues Pages: 1 -->
<svg width="1728pt" height="1066pt"
 viewBox="0.00 0.00 1728.00 1066.10" xmlns="http://www.w3.org/2000/svg" xmlns:xlink="http://www.w3.org/1999/xlink">
<g id="graph0" class="graph" transform="scale(.4373 .4373) rotate(0) translate(4 2434)">
<title>SignalsAndQueues</title>
<polygon fill="#ffffff" stroke="transparent" points="-4,4 -4,-2434 3947.6592,-2434 3947.6592,4 -4,4"/>
<g id="clust1" class="cluster">
<title>cluster_1</title>
<polygon fill="#000000" fill-opacity="0.058824" stroke="#000000" stroke-opacity="0.058824" points="973.6592,-1988.9384 973.6592,-2396.7123 1412.6592,-2396.7123 1412.6592,-1988.9384 973.6592,-1988.9384"/>
<text text-anchor="middle" x="1193.1592" y="-2381.5123" font-family="Times,serif" font-size="14.00" fill="#000000">Signals</text>
</g>
<g id="clust2" class="cluster">
<title>cluster_2</title>
<polygon fill="#000000" fill-opacity="0.058824" stroke="#000000" stroke-opacity="0.058824" points="2319.6592,-1314.863 2319.6592,-1722.637 3886.6592,-1722.637 3886.6592,-1314.863 2319.6592,-1314.863"/>
<text text-anchor="middle" x="3103.1592" y="-1707.437" font-family="Times,serif" font-size="14.00" fill="#000000">Queues</text>
</g>
<g id="clust3" class="cluster">
<title>cluster_3</title>
<polygon fill="#000000" fill-opacity="0.058824" stroke="#000000" stroke-opacity="0.058824" points="257.6592,-337.0377 257.6592,-1851.6267 1574.6592,-1851.6267 1574.6592,-337.0377 257.6592,-337.0377"/>
<text text-anchor="middle" x="916.1592" y="-1836.4267" font-family="Times,serif" font-size="14.00" fill="#000000">Plumbing</text>
</g>
<g id="clust4" class="cluster">
<title>cluster_4</title>
<polygon fill="#000000" fill-opacity="0.058824" stroke="#000000" stroke-opacity="0.058824" points="435.6592,-1314.863 435.6592,-1722.637 1395.6592,-1722.637 1395.6592,-1314.863 435.6592,-1314.863"/>
<text text-anchor="middle" x="915.6592" y="-1707.437" font-family="Times,serif" font-size="14.00" fill="#000000">Logic Functions</text>
</g>
<g id="clust5" class="cluster">
<title>cluster_5</title>
<polygon fill="#000000" fill-opacity="0.058824" stroke="#000000" stroke-opacity="0.058824" points="1750.6592,-33.2877 1750.6592,-1177.5514 2761.6592,-1177.5514 2761.6592,-33.2877 1750.6592,-33.2877"/>
<text text-anchor="middle" x="2256.1592" y="-1162.3514" font-family="Times,serif" font-size="14.00" fill="#000000">Components</text>
</g>
<g id="clust6" class="cluster">
<title>cluster_6</title>
<polygon fill="#000000" fill-opacity="0.058824" stroke="#000000" stroke-opacity="0.058824" points="1962.6592,-640.7877 1962.6592,-1048.5616 2655.6592,-1048.5616 2655.6592,-640.7877 1962.6592,-640.7877"/>
<text text-anchor="middle" x="2309.1592" y="-1033.3616" font-family="Times,serif" font-size="14.00" fill="#000000">Dialogs</text>
</g>
<!-- settingsSignal -->
<g id="node1" class="node">
<title>settingsSignal</title>
<ellipse fill="#ffffbb" stroke="#000000" stroke-width="0" cx="1249.6592" cy="-2097.2877" rx="38.9931" ry="18"/>
<text text-anchor="middle" x="1249.6592" y="-2093.5877" font-family="Times,serif" font-size="14.00" fill="#000000">Settings</text>
</g>
<!-- newTimelineNameSignal -->
<g id="node13" class="node">
<title>newTimelineNameSignal</title>
<ellipse fill="#ffffbb" stroke="#000000" stroke-width="0" cx="476.6592" cy="-445.2877" rx="211.4628" ry="18"/>
<text text-anchor="middle" x="476.6592" y="-441.5877" font-family="Times,serif" font-size="14.00" fill="#000000">Timeline.Data.TimelineName.newTimelineNameSignal</text>
</g>
<!-- settingsSignal&#45;&gt;newTimelineNameSignal -->
<g id="edge2" class="edge">
<title>settingsSignal&#45;&gt;newTimelineNameSignal</title>
<path fill="none" stroke="#00ff00" d="M1225.8581,-2082.7029C1218.3241,-2078.5532 1209.8276,-2074.3375 1201.6592,-2071.2877 918.0453,-1965.3928 797.7502,-2077.0265 536.6592,-1923.7877 332.6349,-1804.0423 268.0328,-1746.9146 182.6592,-1526.2877 25.1674,-1119.2891 369.6274,-595.2751 457.109,-472.0541"/>
<polygon fill="#00ff00" stroke="#00ff00" points="460.2105,-473.7341 463.1819,-463.5644 454.5172,-469.6614 460.2105,-473.7341"/>
<text text-anchor="middle" x="163.1592" y="-1238.5877" font-family="Times,serif" font-size="14.00" fill="#000000">READ</text>
</g>
<!-- newTimeScaleSignal -->
<g id="node14" class="node">
<title>newTimeScaleSignal</title>
<ellipse fill="#ffffbb" stroke="#000000" stroke-width="0" cx="1117.6592" cy="-445.2877" rx="180.0681" ry="18"/>
<text text-anchor="middle" x="1117.6592" y="-441.5877" font-family="Times,serif" font-size="14.00" fill="#000000">Timeline.Data.TimeScale.newTimeScaleSignal</text>
</g>
<!-- settingsSignal&#45;&gt;newTimeScaleSignal -->
<g id="edge3" class="edge">
<title>settingsSignal&#45;&gt;newTimeScaleSignal</title>
<path fill="none" stroke="#00ff00" d="M1225.1521,-2082.9602C1217.7356,-2078.9134 1209.4809,-2074.6898 1201.6592,-2071.2877 1012.9116,-1989.1889 943.7819,-2021.5653 762.6592,-1923.7877 511.0049,-1787.934 381.6843,-1783.4936 256.6592,-1526.2877 20.6114,-1040.6817 864.9134,-573.4834 1072.5728,-467.5863"/>
<polygon fill="#00ff00" stroke="#00ff00" points="1074.3557,-470.6065 1081.6902,-462.9609 1071.1887,-464.3639 1074.3557,-470.6065"/>
<text text-anchor="middle" x="249.1592" y="-1238.5877" font-family="Times,serif" font-size="14.00" fill="#000000">READ</text>
</g>
<!-- onImport -->
<g id="node17" class="node">
<title>onImport</title>
<ellipse fill="#bbbbff" stroke="#000000" stroke-width="0" cx="772.6592" cy="-1423.2877" rx="44.393" ry="18"/>
<text text-anchor="middle" x="772.6592" y="-1419.5877" font-family="Times,serif" font-size="14.00" fill="#000000">onImport</text>
</g>
<!-- settingsSignal&#45;&gt;onImport -->
<g id="edge19" class="edge">
<title>settingsSignal&#45;&gt;onImport</title>
<path fill="none" stroke="#0000ff" d="M1225.0013,-2083.2915C1217.5806,-2079.254 1209.3614,-2074.9525 1201.6592,-2071.2877 1046.6372,-1997.5258 950.0433,-2059.312 844.6592,-1923.7877 731.3413,-1778.0604 755.6057,-1534.0386 767.886,-1451.5298"/>
<polygon fill="#0000ff" stroke="#0000ff" points="771.3469,-1452.0508 769.4192,-1441.6328 764.4295,-1450.9791 771.3469,-1452.0508"/>
<text text-anchor="middle" x="887.1592" y="-1912.5877" font-family="Times,serif" font-size="14.00" fill="#000000">READ/WRITE</text>
</g>
<!-- onSettingsEdit -->
<g id="node23" class="node">
<title>onSettingsEdit</title>
<ellipse fill="#bbbbff" stroke="#000000" stroke-width="0" cx="897.6592" cy="-1423.2877" rx="62.2891" ry="18"/>
<text text-anchor="middle" x="897.6592" y="-1419.5877" font-family="Times,serif" font-size="14.00" fill="#000000">onSettingsEdit</text>
</g>
<!-- settingsSignal&#45;&gt;onSettingsEdit -->
<g id="edge32" class="edge">
<title>settingsSignal&#45;&gt;onSettingsEdit</title>
<path fill="none" stroke="#0000ff" d="M1224.3438,-2083.4367C1151.4599,-2043.5068 946.035,-1930.5735 941.6592,-1923.7877 842.5826,-1770.1421 876.2435,-1532.6005 891.7045,-1451.5226"/>
<polygon fill="#0000ff" stroke="#0000ff" points="895.1663,-1452.0575 893.6633,-1441.5698 888.298,-1450.7057 895.1663,-1452.0575"/>
<text text-anchor="middle" x="984.1592" y="-1912.5877" font-family="Times,serif" font-size="14.00" fill="#000000">READ/WRITE</text>
</g>
<!-- compIndex -->
<g id="node24" class="node">
<title>compIndex</title>
<ellipse fill="#ffffbb" stroke="#000000" stroke-width="0" cx="2355.6592" cy="-141.2877" rx="30.5947" ry="18"/>
<text text-anchor="middle" x="2355.6592" y="-137.5877" font-family="Times,serif" font-size="14.00" fill="#000000">Index</text>
</g>
<!-- settingsSignal&#45;&gt;compIndex -->
<g id="edge61" class="edge">
<title>settingsSignal&#45;&gt;compIndex</title>
<path fill="none" stroke="#00ff00" d="M1273.4397,-2082.647C1280.9728,-2078.4951 1289.4741,-2074.2921 1297.6592,-2071.2877 2403.1614,-1665.4985 3123.0843,-2419.3882 3890.6592,-1526.2877 3973.0613,-1430.41 3906.6592,-1368.71 3906.6592,-1242.2877 3906.6592,-1242.2877 3906.6592,-1242.2877 3906.6592,-445.2877 3906.6592,-286.6114 2640.3917,-166.4904 2396.1532,-144.7972"/>
<polygon fill="#00ff00" stroke="#00ff00" points="2396.2149,-141.2891 2385.9456,-143.8951 2395.5987,-148.2619 2396.2149,-141.2891"/>
<text text-anchor="middle" x="3925.1592" y="-745.5877" font-family="Times,serif" font-size="14.00" fill="#000000">READ</text>
</g>
<!-- compTopBar -->
<g id="node25" class="node">
<title>compTopBar</title>
<ellipse fill="#ffffbb" stroke="#000000" stroke-width="0" cx="1796.6592" cy="-749.2877" rx="37.8943" ry="18"/>
<text text-anchor="middle" x="1796.6592" y="-745.5877" font-family="Times,serif" font-size="14.00" fill="#000000">TopBar</text>
</g>
<!-- settingsSignal&#45;&gt;compTopBar -->
<g id="edge56" class="edge">
<title>settingsSignal&#45;&gt;compTopBar</title>
<path fill="none" stroke="#00ff00" d="M1274.9107,-2083.2219C1282.2022,-2079.2662 1290.2038,-2075.0258 1297.6592,-2071.2877 1437.2908,-2001.2771 1523.6615,-2049.2862 1616.6592,-1923.7877 1757.3099,-1733.9824 1654.1904,-1630.8484 1689.6592,-1397.2877 1726.1799,-1156.801 1776.1362,-867.1376 1791.7756,-777.2532"/>
<polygon fill="#00ff00" stroke="#00ff00" points="1795.2415,-777.7511 1793.5096,-767.2988 1788.3454,-776.5498 1795.2415,-777.7511"/>
<text text-anchor="middle" x="1708.1592" y="-1419.5877" font-family="Times,serif" font-size="14.00" fill="#000000">READ</text>
</g>
<!-- compDialTimelineNameEdit -->
<g id="node31" class="node">
<title>compDialTimelineNameEdit</title>
<ellipse fill="#bbbbff" stroke="#000000" stroke-width="0" cx="2136.6592" cy="-749.2877" rx="79.0865" ry="18"/>
<text text-anchor="middle" x="2136.6592" y="-745.5877" font-family="Times,serif" font-size="14.00" fill="#000000">TimelineNameEdit</text>
</g>
<!-- settingsSignal&#45;&gt;compDialTimelineNameEdit -->
<g id="edge47" class="edge">
<title>settingsSignal&#45;&gt;compDialTimelineNameEdit</title>
<path fill="none" stroke="#00ff00" d="M1273.4867,-2082.7724C1281.0217,-2078.6256 1289.5122,-2074.394 1297.6592,-2071.2877 1563.9362,-1969.76 1732.6524,-2137.0661 1921.6592,-1923.7877 2077.8283,-1747.5639 1951.7512,-1630.9711 1980.6592,-1397.2877 1989.6069,-1324.9579 1988.042,-1306.1879 2002.6592,-1234.7877 2038.764,-1058.4289 2103.4606,-851.7348 2127.4117,-777.5543"/>
<polygon fill="#00ff00" stroke="#00ff00" points="2130.8873,-778.1825 2130.6416,-767.5905 2124.2284,-776.0239 2130.8873,-778.1825"/>
<text text-anchor="middle" x="1999.1592" y="-1419.5877" font-family="Times,serif" font-size="14.00" fill="#000000">READ</text>
</g>
<!-- compDialTimeScaleEdit -->
<g id="node32" class="node">
<title>compDialTimeScaleEdit</title>
<ellipse fill="#bbbbff" stroke="#000000" stroke-width="0" cx="2297.6592" cy="-749.2877" rx="63.8893" ry="18"/>
<text text-anchor="middle" x="2297.6592" y="-745.5877" font-family="Times,serif" font-size="14.00" fill="#000000">TimeScaleEdit</text>
</g>
<!-- settingsSignal&#45;&gt;compDialTimeScaleEdit -->
<g id="edge43" class="edge">
<title>settingsSignal&#45;&gt;compDialTimeScaleEdit</title>
<path fill="none" stroke="#00ff00" d="M1273.4747,-2082.7409C1281.0092,-2078.5928 1289.5025,-2074.3684 1297.6592,-2071.2877 1571.5427,-1967.8445 1723.964,-2121.7478 1939.6592,-1923.7877 2030.5152,-1840.4021 2249.6324,-948.1025 2290.8968,-777.4183"/>
<polygon fill="#00ff00" stroke="#00ff00" points="2294.3079,-778.2025 2293.252,-767.6604 2287.5033,-776.5601 2294.3079,-778.2025"/>
<text text-anchor="middle" x="2143.1592" y="-1419.5877" font-family="Times,serif" font-size="14.00" fill="#000000">READ</text>
</g>
<!-- compDialSettingsEdit -->
<g id="node33" class="node">
<title>compDialSettingsEdit</title>
<ellipse fill="#bbbbff" stroke="#000000" stroke-width="0" cx="2433.6592" cy="-749.2877" rx="53.8905" ry="18"/>
<text text-anchor="middle" x="2433.6592" y="-745.5877" font-family="Times,serif" font-size="14.00" fill="#000000">SettingsEdit</text>
</g>
<!-- settingsSignal&#45;&gt;compDialSettingsEdit -->
<g id="edge39" class="edge">
<title>settingsSignal&#45;&gt;compDialSettingsEdit</title>
<path fill="none" stroke="#00ff00" d="M1273.4628,-2082.7093C1280.9968,-2078.5599 1289.4929,-2074.3428 1297.6592,-2071.2877 1579.5801,-1965.8195 1719.9707,-2107.1743 1958.6592,-1923.7877 2116.6093,-1802.4332 2093.8331,-1712.0728 2165.6592,-1526.2877 2187.0396,-1470.9854 2165.7318,-1445.9126 2199.6592,-1397.2877 2265.1319,-1303.452 2355.4712,-1350.0178 2410.6592,-1249.7877 2498.3922,-1090.451 2458.1437,-857.4715 2440.4567,-777.4723"/>
<polygon fill="#00ff00" stroke="#00ff00" points="2443.8522,-776.6191 2438.2245,-767.6425 2437.026,-778.1693 2443.8522,-776.6191"/>
<text text-anchor="middle" x="2218.1592" y="-1419.5877" font-family="Times,serif" font-size="14.00" fill="#000000">READ</text>
</g>
<!-- timelineNameSignal -->
<g id="node2" class="node">
<title>timelineNameSignal</title>
<ellipse fill="#ffffbb" stroke="#000000" stroke-width="0" cx="1128.6592" cy="-2097.2877" rx="64.189" ry="18"/>
<text text-anchor="middle" x="1128.6592" y="-2093.5877" font-family="Times,serif" font-size="14.00" fill="#000000">TimelineName</text>
</g>
<!-- timelineNameSignal&#45;&gt;onImport -->
<g id="edge18" class="edge">
<title>timelineNameSignal&#45;&gt;onImport</title>
<path fill="none" stroke="#00ff00" d="M1092.647,-2082.2572C1006.1013,-2045.7838 792.1936,-1953.4096 773.6592,-1923.7877 677.0595,-1769.4004 737.9639,-1532.3316 763.2214,-1451.4494"/>
<polygon fill="#00ff00" stroke="#00ff00" points="766.6838,-1452.112 766.3904,-1441.5212 760.0153,-1449.9834 766.6838,-1452.112"/>
<text text-anchor="middle" x="792.1592" y="-1912.5877" font-family="Times,serif" font-size="14.00" fill="#000000">READ</text>
</g>
<!-- onClickedExport -->
<g id="node19" class="node">
<title>onClickedExport</title>
<ellipse fill="#bbbbff" stroke="#000000" stroke-width="0" cx="1316.6592" cy="-1423.2877" rx="70.6878" ry="18"/>
<text text-anchor="middle" x="1316.6592" y="-1419.5877" font-family="Times,serif" font-size="14.00" fill="#000000">onClickedExport</text>
</g>
<!-- timelineNameSignal&#45;&gt;onClickedExport -->
<g id="edge22" class="edge">
<title>timelineNameSignal&#45;&gt;onClickedExport</title>
<path fill="none" stroke="#000000" d="M1130.5845,-2079.1688C1134.3882,-2045.3564 1143.8076,-1970.4837 1158.6592,-1908.7877 1201.4552,-1731.0059 1277.8807,-1524.4753 1305.944,-1450.9799"/>
<polygon fill="#000000" stroke="#000000" points="1309.2631,-1452.0994 1309.5743,-1441.5091 1302.7269,-1449.5939 1309.2631,-1452.0994"/>
<text text-anchor="middle" x="1192.1592" y="-1912.5877" font-family="Times,serif" font-size="14.00" fill="#000000">Clear Cache</text>
</g>
<!-- onNew -->
<g id="node20" class="node">
<title>onNew</title>
<ellipse fill="#bbbbff" stroke="#000000" stroke-width="0" cx="673.6592" cy="-1423.2877" rx="36.2938" ry="18"/>
<text text-anchor="middle" x="673.6592" y="-1419.5877" font-family="Times,serif" font-size="14.00" fill="#000000">onNew</text>
</g>
<!-- timelineNameSignal&#45;&gt;onNew -->
<g id="edge26" class="edge">
<title>timelineNameSignal&#45;&gt;onNew</title>
<path fill="none" stroke="#ff0000" d="M1089.5691,-2082.9473C980.9311,-2043.0075 682.9128,-1932.8284 676.6592,-1923.7877 572.6061,-1773.3593 637.6409,-1531.9226 664.0477,-1450.8465"/>
<polygon fill="#ff0000" stroke="#ff0000" points="667.3735,-1451.9369 667.2077,-1441.3433 660.731,-1449.7281 667.3735,-1451.9369"/>
<text text-anchor="middle" x="719.6592" y="-1912.5877" font-family="Times,serif" font-size="14.00" fill="#000000">WRITE &#45; Reset</text>
</g>
<!-- onTimelineNameEdit -->
<g id="node21" class="node">
<title>onTimelineNameEdit</title>
<ellipse fill="#bbbbff" stroke="#000000" stroke-width="0" cx="531.6592" cy="-1423.2877" rx="87.9851" ry="18"/>
<text text-anchor="middle" x="531.6592" y="-1419.5877" font-family="Times,serif" font-size="14.00" fill="#000000">onTimelineNameEdit</text>
</g>
<!-- timelineNameSignal&#45;&gt;onTimelineNameEdit -->
<g id="edge28" class="edge">
<title>timelineNameSignal&#45;&gt;onTimelineNameEdit</title>
<path fill="none" stroke="#0000ff" d="M1088.8105,-2082.9847C1077.7767,-2079.1068 1065.7774,-2074.9657 1054.6592,-2071.2877 844.7898,-2001.8598 719.1142,-2095.3037 579.6592,-1923.7877 463.5961,-1781.0412 506.1052,-1534.0972 524.7532,-1451.2788"/>
<polygon fill="#0000ff" stroke="#0000ff" points="528.2045,-1451.8889 527.0525,-1441.3569 521.3852,-1450.3086 528.2045,-1451.8889"/>
<text text-anchor="middle" x="622.1592" y="-1912.5877" font-family="Times,serif" font-size="14.00" fill="#000000">READ/WRITE</text>
</g>
<!-- timelineNameSignal&#45;&gt;compTopBar -->
<g id="edge55" class="edge">
<title>timelineNameSignal&#45;&gt;compTopBar</title>
<path fill="none" stroke="#00ff00" d="M1167.9574,-2082.9502C1228.8408,-2058.8986 1346.1712,-2004.9432 1415.6592,-1923.7877 1575.9715,-1736.5581 1755.7138,-937.9422 1790.6137,-777.4479"/>
<polygon fill="#00ff00" stroke="#00ff00" points="1794.0914,-777.925 1792.788,-767.4107 1787.2501,-776.443 1794.0914,-777.925"/>
<text text-anchor="middle" x="1650.1592" y="-1419.5877" font-family="Times,serif" font-size="14.00" fill="#000000">READ</text>
</g>
<!-- timelineNameSignal&#45;&gt;compDialTimelineNameEdit -->
<g id="edge46" class="edge">
<title>timelineNameSignal&#45;&gt;compDialTimelineNameEdit</title>
<path fill="none" stroke="#00ff00" d="M1166.6174,-2082.6969C1177.8059,-2078.6885 1190.1391,-2074.5515 1201.6592,-2071.2877 1504.2153,-1985.5685 1686.483,-2160.3589 1893.6592,-1923.7877 2048.2904,-1747.2169 1890.3443,-1627.7746 1934.6592,-1397.2877 1982.1122,-1150.48 2090.7046,-865.1399 2125.6256,-776.7812"/>
<polygon fill="#00ff00" stroke="#00ff00" points="2128.8906,-778.0423 2129.3272,-767.4564 2122.3845,-775.4596 2128.8906,-778.0423"/>
<text text-anchor="middle" x="1953.1592" y="-1419.5877" font-family="Times,serif" font-size="14.00" fill="#000000">READ</text>
</g>
<!-- timeScaleSignal -->
<g id="node3" class="node">
<title>timeScaleSignal</title>
<ellipse fill="#ffffbb" stroke="#000000" stroke-width="0" cx="1355.6592" cy="-2097.2877" rx="48.9926" ry="18"/>
<text text-anchor="middle" x="1355.6592" y="-2093.5877" font-family="Times,serif" font-size="14.00" fill="#000000">TimeScale</text>
</g>
<!-- timeScaleSignal&#45;&gt;onClickedExport -->
<g id="edge23" class="edge">
<title>timeScaleSignal&#45;&gt;onClickedExport</title>
<path fill="none" stroke="#000000" d="M1354.6161,-2079.2598C1349.2645,-1986.7733 1324.8879,-1565.4955 1318.3029,-1451.6937"/>
<polygon fill="#000000" stroke="#000000" points="1321.7775,-1451.1524 1317.7056,-1441.3713 1314.7892,-1451.5568 1321.7775,-1451.1524"/>
<text text-anchor="middle" x="1378.1592" y="-1912.5877" font-family="Times,serif" font-size="14.00" fill="#000000">Clear Cache</text>
</g>
<!-- timeScaleSignal&#45;&gt;onNew -->
<g id="edge25" class="edge">
<title>timeScaleSignal&#45;&gt;onNew</title>
<path fill="none" stroke="#ff0000" d="M1325.253,-2083.1134C1270.1046,-2056.5692 1151.3688,-1995.5199 1065.6592,-1923.7877 886.0444,-1773.464 845.6832,-1723.7128 719.6592,-1526.2877 704.2856,-1502.2039 691.4947,-1472.1178 683.3358,-1450.6929"/>
<polygon fill="#ff0000" stroke="#ff0000" points="686.581,-1449.3776 679.8161,-1441.2237 680.0196,-1451.8165 686.581,-1449.3776"/>
<text text-anchor="middle" x="1108.6592" y="-1912.5877" font-family="Times,serif" font-size="14.00" fill="#000000">WRITE &#45; Reset</text>
</g>
<!-- onTimeScaleEdit -->
<g id="node22" class="node">
<title>onTimeScaleEdit</title>
<ellipse fill="#bbbbff" stroke="#000000" stroke-width="0" cx="1155.6592" cy="-1423.2877" rx="72.2875" ry="18"/>
<text text-anchor="middle" x="1155.6592" y="-1419.5877" font-family="Times,serif" font-size="14.00" fill="#000000">onTimeScaleEdit</text>
</g>
<!-- timeScaleSignal&#45;&gt;onTimeScaleEdit -->
<g id="edge30" class="edge">
<title>timeScaleSignal&#45;&gt;onTimeScaleEdit</title>
<path fill="none" stroke="#0000ff" d="M1342.7731,-2079.53C1321.3647,-2049.1639 1278.5638,-1984.6328 1255.6592,-1923.7877 1190.8109,-1751.5206 1165.3601,-1529.2741 1158.0678,-1451.5867"/>
<polygon fill="#0000ff" stroke="#0000ff" points="1161.5512,-1451.245 1157.1571,-1441.6043 1154.5802,-1451.881 1161.5512,-1451.245"/>
<text text-anchor="middle" x="1298.1592" y="-1912.5877" font-family="Times,serif" font-size="14.00" fill="#000000">READ/WRITE</text>
</g>
<!-- compBottomBar -->
<g id="node26" class="node">
<title>compBottomBar</title>
<ellipse fill="#ffffbb" stroke="#000000" stroke-width="0" cx="1902.6592" cy="-749.2877" rx="50.0912" ry="18"/>
<text text-anchor="middle" x="1902.6592" y="-745.5877" font-family="Times,serif" font-size="14.00" fill="#000000">BottomBar</text>
</g>
<!-- timeScaleSignal&#45;&gt;compBottomBar -->
<g id="edge59" class="edge">
<title>timeScaleSignal&#45;&gt;compBottomBar</title>
<path fill="none" stroke="#00ff00" d="M1398.7856,-2088.7789C1513.8893,-2065.2705 1824.5033,-1996.3536 1896.6592,-1923.7877 2027.2411,-1792.4639 1993.556,-1709.3389 2021.6592,-1526.2877 2030.3595,-1469.6183 2026.8585,-1454.3848 2021.6592,-1397.2877 2010.2772,-1272.2926 1930.9544,-885.3777 1908.5438,-777.4805"/>
<polygon fill="#00ff00" stroke="#00ff00" points="1911.9046,-776.4506 1906.4413,-767.373 1905.0513,-777.8763 1911.9046,-776.4506"/>
<text text-anchor="middle" x="2045.1592" y="-1419.5877" font-family="Times,serif" font-size="14.00" fill="#000000">READ</text>
</g>
<!-- timeScaleSignal&#45;&gt;compDialTimeScaleEdit -->
<g id="edge42" class="edge">
<title>timeScaleSignal&#45;&gt;compDialTimeScaleEdit</title>
<path fill="none" stroke="#00ff00" d="M1403.1961,-2093.2376C1556.4027,-2079.2337 2033.4778,-2027.9117 2140.6592,-1923.7877 2271.324,-1796.8501 2211.6643,-1706.1368 2240.6592,-1526.2877 2287.3946,-1236.3987 2295.8558,-879.4123 2297.3481,-777.5905"/>
<polygon fill="#00ff00" stroke="#00ff00" points="2300.8491,-777.5387 2297.485,-767.4921 2293.8497,-777.4437 2300.8491,-777.5387"/>
<text text-anchor="middle" x="2276.1592" y="-1419.5877" font-family="Times,serif" font-size="14.00" fill="#000000">READ</text>
</g>
<!-- zoomSignal -->
<g id="node4" class="node">
<title>zoomSignal</title>
<ellipse fill="#ffffbb" stroke="#000000" stroke-width="0" cx="1013.6592" cy="-2097.2877" rx="32.4942" ry="18"/>
<text text-anchor="middle" x="1013.6592" y="-2093.5877" font-family="Times,serif" font-size="14.00" fill="#000000">Zoom</text>
</g>
<!-- zoomSignal&#45;&gt;compBottomBar -->
<g id="edge58" class="edge">
<title>zoomSignal&#45;&gt;compBottomBar</title>
<path fill="none" stroke="#0000ff" d="M1034.6315,-2083.3609C1041.2296,-2079.2379 1048.6307,-2074.8719 1055.6592,-2071.2877 1209.6953,-1992.7355 1277.7869,-2028.1368 1415.6592,-1923.7877 1594.5199,-1788.4165 1630.4396,-1728.9161 1726.6592,-1526.2877 1856.018,-1253.8716 1892.696,-881.8626 1900.7299,-777.5127"/>
<polygon fill="#0000ff" stroke="#0000ff" points="1904.2264,-777.6882 1901.478,-767.456 1897.2457,-777.1688 1904.2264,-777.6882"/>
<text text-anchor="middle" x="1819.1592" y="-1419.5877" font-family="Times,serif" font-size="14.00" fill="#000000">READ/WRITE</text>
</g>
<!-- importQueues -->
<g id="node5" class="node">
<title>importQueues</title>
<ellipse fill="#ffffbb" stroke="#000000" stroke-width="0" cx="3421.6592" cy="-1423.2877" rx="99.3824" ry="18"/>
<text text-anchor="middle" x="3421.6592" y="-1419.5877" font-family="Times,serif" font-size="14.00" fill="#000000">Import Dialog IOQueues</text>
</g>
<!-- importQueues&#45;&gt;onImport -->
<g id="edge17" class="edge">
<title>importQueues&#45;&gt;onImport</title>
<path fill="none" stroke="#000000" d="M3422.6321,-1441.5287C3424.8497,-1504.1717 3422.65,-1711.4525 3303.6592,-1798.7877 2861.5243,-2123.2996 1254.3246,-2153.0625 835.6592,-1798.7877 732.227,-1711.2632 754.0399,-1523.1624 766.8434,-1451.6598"/>
<polygon fill="#000000" stroke="#000000" points="770.3269,-1452.0724 768.7258,-1441.5992 763.4463,-1450.7849 770.3269,-1452.0724"/>
</g>
<!-- compDialImport -->
<g id="node28" class="node">
<title>compDialImport</title>
<ellipse fill="#bbbbff" stroke="#000000" stroke-width="0" cx="2540.6592" cy="-749.2877" rx="35.194" ry="18"/>
<text text-anchor="middle" x="2540.6592" y="-745.5877" font-family="Times,serif" font-size="14.00" fill="#000000">Import</text>
</g>
<!-- importQueues&#45;&gt;compDialImport -->
<g id="edge33" class="edge">
<title>importQueues&#45;&gt;compDialImport</title>
<path fill="none" stroke="#00ff00" d="M3394.8801,-1405.7067C3347.4866,-1374.543 3245.802,-1307.4593 3160.6592,-1249.7877 2903.1338,-1075.3521 2781.5028,-1093.119 2584.6592,-852.2877 2566.4931,-830.062 2554.6469,-799.2195 2547.8726,-777.0883"/>
<polygon fill="#00ff00" stroke="#00ff00" points="2551.1796,-775.9257 2545.0306,-767.2978 2544.4571,-777.8771 2551.1796,-775.9257"/>
<text text-anchor="middle" x="3179.1592" y="-1238.5877" font-family="Times,serif" font-size="14.00" fill="#000000">READ</text>
</g>
<!-- exportQueue -->
<g id="node6" class="node">
<title>exportQueue</title>
<ellipse fill="#ffffbb" stroke="#000000" stroke-width="0" cx="2413.6592" cy="-1423.2877" rx="86.3847" ry="18"/>
<text text-anchor="middle" x="2413.6592" y="-1419.5877" font-family="Times,serif" font-size="14.00" fill="#000000">Export Dialog Queue</text>
</g>
<!-- onExport -->
<g id="node18" class="node">
<title>onExport</title>
<ellipse fill="#bbbbff" stroke="#000000" stroke-width="0" cx="1021.6592" cy="-1423.2877" rx="43.5923" ry="18"/>
<text text-anchor="middle" x="1021.6592" y="-1419.5877" font-family="Times,serif" font-size="14.00" fill="#000000">onExport</text>
</g>
<!-- exportQueue&#45;&gt;onExport -->
<g id="edge20" class="edge">
<title>exportQueue&#45;&gt;onExport</title>
<path fill="none" stroke="#ff0000" d="M2398.9365,-1441.0361C2380.4234,-1462.7088 2347.0084,-1499.7508 2313.6592,-1526.2877 2110.424,-1688.008 2063.8343,-1758.9989 1813.6592,-1828.7877 1471.8152,-1924.1485 1333.595,-1768.9878 1074.6592,-1526.2877 1052.6466,-1505.6553 1038.2323,-1473.832 1030.0704,-1451.0199"/>
<polygon fill="#ff0000" stroke="#ff0000" points="1033.2818,-1449.5915 1026.7555,-1441.2454 1026.6527,-1451.8397 1033.2818,-1449.5915"/>
<text text-anchor="middle" x="1791.6592" y="-1912.5877" font-family="Times,serif" font-size="14.00" fill="#000000">WRITE</text>
</g>
<!-- compDialExport -->
<g id="node29" class="node">
<title>compDialExport</title>
<ellipse fill="#bbbbff" stroke="#000000" stroke-width="0" cx="2004.6592" cy="-749.2877" rx="34.394" ry="18"/>
<text text-anchor="middle" x="2004.6592" y="-745.5877" font-family="Times,serif" font-size="14.00" fill="#000000">Export</text>
</g>
<!-- exportQueue&#45;&gt;compDialExport -->
<g id="edge36" class="edge">
<title>exportQueue&#45;&gt;compDialExport</title>
<path fill="none" stroke="#00ff00" d="M2362.7205,-1408.6255C2264.625,-1379.2615 2055.5474,-1310.8156 2014.6592,-1249.7877 1913.039,-1098.1135 1971.4602,-858.3487 1995.6955,-777.1939"/>
<polygon fill="#00ff00" stroke="#00ff00" points="1999.1606,-777.8307 1998.7355,-767.2444 1992.4661,-775.7852 1999.1606,-777.8307"/>
<text text-anchor="middle" x="2033.1592" y="-1238.5877" font-family="Times,serif" font-size="14.00" fill="#000000">READ</text>
</g>
<!-- newQueues -->
<g id="node7" class="node">
<title>newQueues</title>
<ellipse fill="#ffffbb" stroke="#000000" stroke-width="0" cx="3630.6592" cy="-1423.2877" rx="91.784" ry="18"/>
<text text-anchor="middle" x="3630.6592" y="-1419.5877" font-family="Times,serif" font-size="14.00" fill="#000000">New Dialog IOQueues</text>
</g>
<!-- newQueues&#45;&gt;onNew -->
<g id="edge24" class="edge">
<title>newQueues&#45;&gt;onNew</title>
<path fill="none" stroke="#000000" d="M3632.0431,-1441.4822C3635.6685,-1503.9736 3638.0951,-1710.8186 3520.6592,-1798.7877 3272.3721,-1984.7751 963.3773,-2001.6307 728.6592,-1798.7877 626.4767,-1710.4817 652.6669,-1522.8509 667.1657,-1451.5666"/>
<polygon fill="#000000" stroke="#000000" points="670.6418,-1452.0454 669.2871,-1441.5376 663.7933,-1450.5967 670.6418,-1452.0454"/>
</g>
<!-- compDialNew -->
<g id="node30" class="node">
<title>compDialNew</title>
<ellipse fill="#bbbbff" stroke="#000000" stroke-width="0" cx="2620.6592" cy="-749.2877" rx="27.0966" ry="18"/>
<text text-anchor="middle" x="2620.6592" y="-745.5877" font-family="Times,serif" font-size="14.00" fill="#000000">New</text>
</g>
<!-- newQueues&#45;&gt;compDialNew -->
<g id="edge37" class="edge">
<title>newQueues&#45;&gt;compDialNew</title>
<path fill="none" stroke="#00ff00" d="M3612.45,-1405.6171C3575.4358,-1370.2812 3487.8548,-1289.603 3404.6592,-1234.7877 3091.2106,-1028.2648 2892.4926,-1140.2131 2651.6592,-852.2877 2633.8689,-831.0187 2626.287,-799.7712 2623.0563,-777.2759"/>
<polygon fill="#00ff00" stroke="#00ff00" points="2626.5262,-776.816 2621.8256,-767.3211 2619.5791,-777.675 2626.5262,-776.816"/>
<text text-anchor="middle" x="3442.1592" y="-1238.5877" font-family="Times,serif" font-size="14.00" fill="#000000">READ</text>
</g>
<!-- settingsEditQueues -->
<g id="node8" class="node">
<title>settingsEditQueues</title>
<ellipse fill="#ffffbb" stroke="#000000" stroke-width="0" cx="3200.6592" cy="-1423.2877" rx="103.1819" ry="18"/>
<text text-anchor="middle" x="3200.6592" y="-1419.5877" font-family="Times,serif" font-size="14.00" fill="#000000">Settings Dialog IOQueues</text>
</g>
<!-- settingsEditQueues&#45;&gt;onSettingsEdit -->
<g id="edge31" class="edge">
<title>settingsEditQueues&#45;&gt;onSettingsEdit</title>
<path fill="none" stroke="#000000" d="M3201.4786,-1441.5456C3203.1704,-1504.244 3199.2417,-1711.6839 3079.6592,-1798.7877 2702.0921,-2073.8073 1340.742,-2092.6647 977.6592,-1798.7877 871.2143,-1712.6318 884.0973,-1522.9097 893.3347,-1451.3478"/>
<polygon fill="#000000" stroke="#000000" points="896.8226,-1451.6735 894.7118,-1441.2911 889.8874,-1450.7238 896.8226,-1451.6735"/>
</g>
<!-- settingsEditQueues&#45;&gt;compDialSettingsEdit -->
<g id="edge40" class="edge">
<title>settingsEditQueues&#45;&gt;compDialSettingsEdit</title>
<path fill="none" stroke="#00ff00" d="M3150.2132,-1407.4869C3075.2807,-1382.3682 2932.4807,-1328.0368 2830.6592,-1249.7877 2644.748,-1106.9162 2495.1538,-858.6944 2448.678,-776.552"/>
<polygon fill="#00ff00" stroke="#00ff00" points="2451.4737,-774.3821 2443.5259,-767.3762 2445.37,-777.8093 2451.4737,-774.3821"/>
<text text-anchor="middle" x="2849.1592" y="-1238.5877" font-family="Times,serif" font-size="14.00" fill="#000000">READ</text>
</g>
<!-- timelineNameEditQueues -->
<g id="node9" class="node">
<title>timelineNameEditQueues</title>
<ellipse fill="#ffffbb" stroke="#000000" stroke-width="0" cx="2661.6592" cy="-1423.2877" rx="143.7746" ry="18"/>
<text text-anchor="middle" x="2661.6592" y="-1419.5877" font-family="Times,serif" font-size="14.00" fill="#000000">TimelineNameEdit Dialog IOQueues</text>
</g>
<!-- timelineNameEditQueues&#45;&gt;onTimelineNameEdit -->
<g id="edge27" class="edge">
<title>timelineNameEditQueues&#45;&gt;onTimelineNameEdit</title>
<path fill="none" stroke="#000000" d="M2660.4516,-1441.3155C2655.1559,-1504.1601 2628.0871,-1714.3245 2499.6592,-1798.7877 2153.9465,-2026.1525 967.603,-2048.4858 637.6592,-1798.7877 526.685,-1714.8035 525.5624,-1523.7673 529.4455,-1451.6018"/>
<polygon fill="#000000" stroke="#000000" points="532.9488,-1451.6542 530.069,-1441.4583 525.962,-1451.2248 532.9488,-1451.6542"/>
</g>
<!-- timelineNameEditQueues&#45;&gt;compDialTimelineNameEdit -->
<g id="edge48" class="edge">
<title>timelineNameEditQueues&#45;&gt;compDialTimelineNameEdit</title>
<path fill="none" stroke="#00ff00" d="M2594.4752,-1407.3383C2514.9784,-1385.1095 2383.7147,-1337.3218 2306.6592,-1249.7877 2179.2827,-1105.0895 2146.4817,-860.852 2138.8118,-777.8676"/>
<polygon fill="#00ff00" stroke="#00ff00" points="2142.2798,-777.3471 2137.9244,-767.6889 2135.3063,-777.9552 2142.2798,-777.3471"/>
<text text-anchor="middle" x="2325.1592" y="-1238.5877" font-family="Times,serif" font-size="14.00" fill="#000000">READ</text>
</g>
<!-- timeScaleEditQueues -->
<g id="node10" class="node">
<title>timeScaleEditQueues</title>
<ellipse fill="#ffffbb" stroke="#000000" stroke-width="0" cx="2951.6592" cy="-1423.2877" rx="128.0773" ry="18"/>
<text text-anchor="middle" x="2951.6592" y="-1419.5877" font-family="Times,serif" font-size="14.00" fill="#000000">TimeScaleEdit Dialog IOQueues</text>
</g>
<!-- timeScaleEditQueues&#45;&gt;onTimeScaleEdit -->
<g id="edge29" class="edge">
<title>timeScaleEditQueues&#45;&gt;onTimeScaleEdit</title>
<path fill="none" stroke="#000000" d="M2951.2127,-1441.6773C2948.5657,-1504.806 2930.3538,-1713.4824 2805.6592,-1798.7877 2519.5399,-1994.526 1517.862,-2013.4582 1245.6592,-1798.7877 1137.5134,-1713.4993 1144.9847,-1523.2523 1152.1513,-1451.4492"/>
<polygon fill="#000000" stroke="#000000" points="1155.6472,-1451.6749 1153.2369,-1441.3579 1148.6873,-1450.9261 1155.6472,-1451.6749"/>
</g>
<!-- timeScaleEditQueues&#45;&gt;compDialTimeScaleEdit -->
<g id="edge44" class="edge">
<title>timeScaleEditQueues&#45;&gt;compDialTimeScaleEdit</title>
<path fill="none" stroke="#00ff00" d="M2900.6421,-1406.6937C2829.8934,-1381.692 2700.9723,-1328.7299 2614.6592,-1249.7877 2454.7339,-1103.5195 2343.3139,-858.9569 2308.8967,-777.0043"/>
<polygon fill="#00ff00" stroke="#00ff00" points="2312.065,-775.5075 2304.9942,-767.6173 2305.6013,-778.1948 2312.065,-775.5075"/>
<text text-anchor="middle" x="2633.1592" y="-1238.5877" font-family="Times,serif" font-size="14.00" fill="#000000">READ</text>
</g>
<!-- snackbarQueue -->
<g id="node11" class="node">
<title>snackbarQueue</title>
<ellipse fill="#ffffbb" stroke="#000000" stroke-width="0" cx="3809.6592" cy="-1423.2877" rx="68.7879" ry="18"/>
<text text-anchor="middle" x="3809.6592" y="-1419.5877" font-family="Times,serif" font-size="14.00" fill="#000000">Snackbar Queue</text>
</g>
<!-- snackbarQueue&#45;&gt;onClickedExport -->
<g id="edge21" class="edge">
<title>snackbarQueue&#45;&gt;onClickedExport</title>
<path fill="none" stroke="#ff0000" d="M3801.4716,-1441.2022C3789.6533,-1464.8583 3765.4622,-1505.8944 3731.6592,-1526.2877 3368.7747,-1745.2154 2254.4855,-1950.9337 1848.6592,-1828.7877 1615.4185,-1758.5866 1567.6965,-1694.6335 1391.6592,-1526.2877 1367.6323,-1503.3105 1345.967,-1471.8118 1332.1717,-1449.7166"/>
<polygon fill="#ff0000" stroke="#ff0000" points="1335.1414,-1447.8641 1326.9322,-1441.1664 1329.1729,-1451.5216 1335.1414,-1447.8641"/>
<text text-anchor="middle" x="1870.6592" y="-1912.5877" font-family="Times,serif" font-size="14.00" fill="#000000">WRITE</text>
</g>
<!-- compSnackbar -->
<g id="node27" class="node">
<title>compSnackbar</title>
<ellipse fill="#ffffbb" stroke="#000000" stroke-width="0" cx="2709.6592" cy="-749.2877" rx="43.5923" ry="18"/>
<text text-anchor="middle" x="2709.6592" y="-745.5877" font-family="Times,serif" font-size="14.00" fill="#000000">Snackbar</text>
</g>
<!-- snackbarQueue&#45;&gt;compSnackbar -->
<g id="edge60" class="edge">
<title>snackbarQueue&#45;&gt;compSnackbar</title>
<path fill="none" stroke="#00ff00" d="M3782.4681,-1406.6269C3632.6177,-1314.8095 2908.3232,-871.0145 2743.2118,-769.8463"/>
<polygon fill="#00ff00" stroke="#00ff00" points="2744.8099,-766.7207 2734.4546,-764.4804 2741.1527,-772.6894 2744.8099,-766.7207"/>
<text text-anchor="middle" x="3532.1592" y="-1238.5877" font-family="Times,serif" font-size="14.00" fill="#000000">READ</text>
</g>
<!-- newSettingsSignal -->
<g id="node12" class="node">
<title>newSettingsSignal</title>
<ellipse fill="#ffffbb" stroke="#000000" stroke-width="0" cx="812.6592" cy="-445.2877" rx="106.6812" ry="18"/>
<text text-anchor="middle" x="812.6592" y="-441.5877" font-family="Times,serif" font-size="14.00" fill="#000000">Settings.newSettingsSignal</text>
</g>
<!-- newSettingsSignal&#45;&gt;settingsSignal -->
<g id="edge1" class="edge">
<title>newSettingsSignal&#45;&gt;settingsSignal</title>
<path fill="none" stroke="#000000" d="M787.0093,-462.9385C729.4636,-503.5148 588.0446,-608.7845 497.6592,-723.2877 338.1278,-925.3874 297.1178,-987.4251 225.6592,-1234.7877 189.6728,-1359.3592 167.6071,-1405.0759 213.6592,-1526.2877 297.5745,-1747.1574 363.5728,-1803.0353 566.6592,-1923.7877 815.6986,-2071.8631 930.7348,-1968.5898 1201.6592,-2071.2877 1206.6275,-2073.171 1211.7217,-2075.4763 1216.6485,-2077.9285"/>
<polygon fill="#000000" stroke="#000000" points="1215.3582,-2081.2041 1225.8392,-2082.753 1218.6117,-2075.0061 1215.3582,-2081.2041"/>
</g>
<!-- newTimelineNameSignal&#45;&gt;timelineNameSignal -->
<g id="edge4" class="edge">
<title>newTimelineNameSignal&#45;&gt;timelineNameSignal</title>
<path fill="none" stroke="#000000" d="M371.3389,-460.959C291.3087,-478.9661 186.309,-517.0731 133.6592,-596.7877 -28.86,-842.8506 -58.9907,-1700.5267 133.6592,-1923.7877 269.0712,-2080.7158 853.7433,-2020.3404 1054.6592,-2071.2877 1063.3863,-2073.5006 1072.5415,-2076.3048 1081.3217,-2079.2472"/>
<polygon fill="#000000" stroke="#000000" points="1080.4377,-2082.6448 1091.0325,-2082.6038 1082.7246,-2076.0289 1080.4377,-2082.6448"/>
</g>
<!-- newTimeScaleSignal&#45;&gt;timeScaleSignal -->
<g id="edge5" class="edge">
<title>newTimeScaleSignal&#45;&gt;timeScaleSignal</title>
<path fill="none" stroke="#000000" d="M1139.5011,-463.3729C1244.2857,-551.7533 1696.597,-952.033 1847.6592,-1397.2877 1922.9617,-1619.2411 1958.2755,-1736.2754 1817.6592,-1923.7877 1766.5667,-1991.9197 1516.233,-2058.8601 1406.9046,-2085.3751"/>
<polygon fill="#000000" stroke="#000000" points="1405.9907,-2081.995 1397.088,-2087.7389 1407.6296,-2088.8005 1405.9907,-2081.995"/>
</g>
<!-- newPrimarySignals -->
<g id="node15" class="node">
<title>newPrimarySignals</title>
<ellipse fill="#ffffbb" stroke="#000000" stroke-width="0" cx="345.6592" cy="-1423.2877" rx="79.8859" ry="18"/>
<text text-anchor="middle" x="345.6592" y="-1419.5877" font-family="Times,serif" font-size="14.00" fill="#000000">newPrimarySignals</text>
</g>
<!-- newPrimarySignals&#45;&gt;zoomSignal -->
<g id="edge9" class="edge">
<title>newPrimarySignals&#45;&gt;zoomSignal</title>
<path fill="none" stroke="#000000" d="M348.5775,-1441.6324C360.9505,-1513.5547 415.5673,-1779.4285 566.6592,-1923.7877 685.0819,-2036.9333 885.5117,-2078.6444 971.9426,-2091.8909"/>
<polygon fill="#000000" stroke="#000000" points="971.4994,-2095.3634 981.9047,-2093.3681 972.5263,-2088.4391 971.4994,-2095.3634"/>
</g>
<!-- newPrimarySignals&#45;&gt;newSettingsSignal -->
<g id="edge6" class="edge">
<title>newPrimarySignals&#45;&gt;newSettingsSignal</title>
<path fill="none" stroke="#000000" d="M354.3662,-1405.0533C411.3676,-1285.68 731.0603,-616.1737 799.6857,-472.4571"/>
<polygon fill="#000000" stroke="#000000" points="802.8616,-473.9285 804.0122,-463.3964 796.5448,-470.9122 802.8616,-473.9285"/>
</g>
<!-- newPrimarySignals&#45;&gt;newTimelineNameSignal -->
<g id="edge7" class="edge">
<title>newPrimarySignals&#45;&gt;newTimelineNameSignal</title>
<path fill="none" stroke="#000000" d="M348.1017,-1405.0533C364.0594,-1285.9185 453.4115,-618.8469 472.9038,-473.3248"/>
<polygon fill="#000000" stroke="#000000" points="476.375,-473.7725 474.2336,-463.3964 469.4369,-472.8432 476.375,-473.7725"/>
</g>
<!-- newPrimarySignals&#45;&gt;newTimeScaleSignal -->
<g id="edge8" class="edge">
<title>newPrimarySignals&#45;&gt;newTimeScaleSignal</title>
<path fill="none" stroke="#000000" d="M359.7178,-1405.4778C453.1961,-1287.0557 984.6133,-613.8355 1096.845,-471.656"/>
<polygon fill="#000000" stroke="#000000" points="1099.8866,-473.4516 1103.3353,-463.4338 1094.3921,-469.1144 1099.8866,-473.4516"/>
</g>
<!-- newPrimaryQueues -->
<g id="node16" class="node">
<title>newPrimaryQueues</title>
<ellipse fill="#ffffbb" stroke="#000000" stroke-width="0" cx="1485.6592" cy="-1423.2877" rx="80.6858" ry="18"/>
<text text-anchor="middle" x="1485.6592" y="-1419.5877" font-family="Times,serif" font-size="14.00" fill="#000000">newPrimaryQueues</text>
</g>
<!-- newPrimaryQueues&#45;&gt;importQueues -->
<g id="edge10" class="edge">
<title>newPrimaryQueues&#45;&gt;importQueues</title>
<path fill="none" stroke="#000000" d="M1483.9655,-1441.4462C1479.279,-1503.8198 1473.3674,-1710.3266 1589.6592,-1798.7877 1892.809,-2029.3882 2996.6012,-2024.1578 3303.6592,-1798.7877 3416.8399,-1715.7169 3424.3564,-1524.128 3422.9122,-1451.7086"/>
<polygon fill="#000000" stroke="#000000" points="3426.406,-1451.4285 3422.6321,-1441.5287 3419.4086,-1451.6212 3426.406,-1451.4285"/>
</g>
<!-- newPrimaryQueues&#45;&gt;exportQueue -->
<g id="edge11" class="edge">
<title>newPrimaryQueues&#45;&gt;exportQueue</title>
<path fill="none" stroke="#000000" d="M1483.9655,-1441.4462C1479.279,-1503.8198 1473.3674,-1710.3266 1589.6592,-1798.7877 1842.5788,-1991.179 2050.559,-1989.6168 2304.6592,-1798.7877 2416.1783,-1715.0369 2418.9035,-1523.8595 2415.632,-1451.6291"/>
<polygon fill="#000000" stroke="#000000" points="2419.1183,-1451.2773 2415.0946,-1441.4763 2412.1281,-1451.6473 2419.1183,-1451.2773"/>
</g>
<!-- newPrimaryQueues&#45;&gt;newQueues -->
<g id="edge12" class="edge">
<title>newPrimaryQueues&#45;&gt;newQueues</title>
<path fill="none" stroke="#000000" d="M1483.9655,-1441.4462C1479.279,-1503.8198 1473.3674,-1710.3266 1589.6592,-1798.7877 1931.1891,-2058.5832 3177.2191,-2056.0525 3520.6592,-1798.7877 3632.3609,-1715.114 3635.6197,-1523.8899 3632.5518,-1451.6381"/>
<polygon fill="#000000" stroke="#000000" points="3636.039,-1451.2946 3632.0431,-1441.4822 3629.0478,-1451.6448 3636.039,-1451.2946"/>
</g>
<!-- newPrimaryQueues&#45;&gt;settingsEditQueues -->
<g id="edge13" class="edge">
<title>newPrimaryQueues&#45;&gt;settingsEditQueues</title>
<path fill="none" stroke="#000000" d="M1483.9655,-1441.4462C1479.279,-1503.8198 1473.3674,-1710.3266 1589.6592,-1798.7877 1853.1908,-1999.2514 2812.0212,-1993.735 3079.6592,-1798.7877 3193.4028,-1715.937 3202.511,-1524.2149 3201.6734,-1451.7343"/>
<polygon fill="#000000" stroke="#000000" points="3205.1692,-1451.4768 3201.4786,-1441.5456 3198.1705,-1451.6107 3205.1692,-1451.4768"/>
</g>
<!-- newPrimaryQueues&#45;&gt;timelineNameEditQueues -->
<g id="edge14" class="edge">
<title>newPrimaryQueues&#45;&gt;timelineNameEditQueues</title>
<path fill="none" stroke="#000000" d="M1483.9655,-1441.4462C1479.279,-1503.8198 1473.3674,-1710.3266 1589.6592,-1798.7877 1911.5568,-2043.6493 2161.7446,-2021.024 2499.6592,-1798.7877 2621.8162,-1718.4487 2652.2708,-1524.3843 2659.5109,-1451.5432"/>
<polygon fill="#000000" stroke="#000000" points="2663.0209,-1451.5941 2660.4516,-1441.3155 2656.0503,-1450.9529 2663.0209,-1451.5941"/>
</g>
<!-- newPrimaryQueues&#45;&gt;timeScaleEditQueues -->
<g id="edge15" class="edge">
<title>newPrimaryQueues&#45;&gt;timeScaleEditQueues</title>
<path fill="none" stroke="#000000" d="M1483.9655,-1441.4462C1479.279,-1503.8198 1473.3674,-1710.3266 1589.6592,-1798.7877 2019.7993,-2125.9875 2359.6065,-2103.9387 2805.6592,-1798.7877 2924.2652,-1717.6477 2946.5334,-1524.8904 2950.703,-1451.9344"/>
<polygon fill="#000000" stroke="#000000" points="2954.212,-1451.8387 2951.2127,-1441.6773 2947.2206,-1451.4913 2954.212,-1451.8387"/>
</g>
<!-- newPrimaryQueues&#45;&gt;snackbarQueue -->
<g id="edge16" class="edge">
<title>newPrimaryQueues&#45;&gt;snackbarQueue</title>
<path fill="none" stroke="#000000" d="M1483.9655,-1441.4462C1479.279,-1503.8198 1473.3674,-1710.3266 1589.6592,-1798.7877 1966.9162,-2085.7602 3351.5878,-2093.7147 3722.6592,-1798.7877 3830.2894,-1713.2434 3821.1978,-1523.1512 3813.4115,-1451.4193"/>
<polygon fill="#000000" stroke="#000000" points="3816.8709,-1450.8667 3812.2387,-1441.3382 3809.9178,-1451.6757 3816.8709,-1450.8667"/>
</g>
<!-- onImport&#45;&gt;compTopBar -->
<g id="edge50" class="edge">
<title>onImport&#45;&gt;compTopBar</title>
<path fill="none" stroke="#ffff00" d="M795.9709,-1407.9439C930.9682,-1319.0882 1611.8017,-870.9615 1765.7067,-769.6607"/>
<polygon fill="#ffff00" stroke="#ffff00" points="1767.8398,-772.4469 1774.2685,-764.0253 1763.9912,-766.5998 1767.8398,-772.4469"/>
</g>
<!-- onExport&#45;&gt;compTopBar -->
<g id="edge51" class="edge">
<title>onExport&#45;&gt;compTopBar</title>
<path fill="none" stroke="#ffff00" d="M1040.4326,-1406.9609C1144.4919,-1316.4629 1650.1448,-876.7079 1770.7799,-771.7944"/>
<polygon fill="#ffff00" stroke="#ffff00" points="1773.2272,-774.3045 1778.476,-765.1012 1768.6336,-769.0225 1773.2272,-774.3045"/>
</g>
<!-- onClickedExport&#45;&gt;compDialExport -->
<g id="edge35" class="edge">
<title>onClickedExport&#45;&gt;compDialExport</title>
<path fill="none" stroke="#ffff00" d="M1356.1356,-1408.1897C1453.0116,-1370.9136 1696.7947,-1275.6636 1726.6592,-1249.7877 1885.5076,-1112.1545 1971.6112,-860.4121 1996.766,-776.9728"/>
<polygon fill="#ffff00" stroke="#ffff00" points="2000.1728,-777.7949 1999.66,-767.2124 1993.4616,-775.8049 2000.1728,-777.7949"/>
</g>
<!-- onNew&#45;&gt;compTopBar -->
<g id="edge52" class="edge">
<title>onNew&#45;&gt;compTopBar</title>
<path fill="none" stroke="#ffff00" d="M696.8569,-1409.3649C839.4766,-1323.7677 1596.8411,-869.2142 1763.9953,-768.8918"/>
<polygon fill="#ffff00" stroke="#ffff00" points="1766.0616,-771.7337 1772.8347,-763.5866 1762.4593,-765.7318 1766.0616,-771.7337"/>
</g>
<!-- onTimelineNameEdit&#45;&gt;compTopBar -->
<g id="edge53" class="edge">
<title>onTimelineNameEdit&#45;&gt;compTopBar</title>
<path fill="none" stroke="#ffff00" d="M569.1695,-1406.9728C636.9195,-1377.2557 783.8824,-1311.6483 904.6592,-1249.7877 1247.0443,-1074.4216 1648.7171,-837.448 1764.1561,-768.7131"/>
<polygon fill="#ffff00" stroke="#ffff00" points="1766.0995,-771.6294 1772.8982,-763.5035 1762.5161,-765.6161 1766.0995,-771.6294"/>
</g>
<!-- onTimeScaleEdit&#45;&gt;compBottomBar -->
<g id="edge57" class="edge">
<title>onTimeScaleEdit&#45;&gt;compBottomBar</title>
<path fill="none" stroke="#ffff00" d="M1182.2417,-1406.3993C1280.1002,-1343.2445 1625.8912,-1111.2895 1843.6592,-852.2877 1863.2987,-828.9296 1879.9592,-798.1294 1890.5155,-776.3131"/>
<polygon fill="#ffff00" stroke="#ffff00" points="1893.6803,-777.8078 1894.7908,-767.2713 1887.352,-774.8155 1893.6803,-777.8078"/>
</g>
<!-- onSettingsEdit&#45;&gt;compTopBar -->
<g id="edge54" class="edge">
<title>onSettingsEdit&#45;&gt;compTopBar</title>
<path fill="none" stroke="#ffff00" d="M920.3315,-1406.2898C1043.43,-1314.0001 1631.0024,-873.4842 1768.0408,-770.7436"/>
<polygon fill="#ffff00" stroke="#ffff00" points="1770.1459,-773.5398 1776.0475,-764.7408 1765.9469,-767.939 1770.1459,-773.5398"/>
</g>
<!-- compTopBar&#45;&gt;compIndex -->
<g id="edge62" class="edge">
<title>compTopBar&#45;&gt;compIndex</title>
<path fill="none" stroke="#000000" d="M1811.9011,-732.7098C1889.7599,-648.0261 2242.9593,-263.8665 2334.1316,-164.7023"/>
<polygon fill="#000000" stroke="#000000" points="2336.7599,-167.0149 2340.9516,-157.2845 2331.6069,-162.2771 2336.7599,-167.0149"/>
</g>
<!-- compBottomBar&#45;&gt;compIndex -->
<g id="edge63" class="edge">
<title>compBottomBar&#45;&gt;compIndex</title>
<path fill="none" stroke="#000000" d="M1915.7281,-731.7471C1979.9346,-645.5715 2261.8856,-267.1472 2337.141,-166.1422"/>
<polygon fill="#000000" stroke="#000000" points="2340.0158,-168.1418 2343.1838,-158.0317 2334.4025,-163.9595 2340.0158,-168.1418"/>
</g>
<!-- compSnackbar&#45;&gt;compIndex -->
<g id="edge64" class="edge">
<title>compSnackbar&#45;&gt;compIndex</title>
<path fill="none" stroke="#000000" d="M2699.4465,-731.7471C2649.4277,-645.8391 2430.3062,-269.4948 2370.683,-167.0912"/>
<polygon fill="#000000" stroke="#000000" points="2373.6317,-165.1995 2365.5753,-158.3187 2367.5823,-168.7217 2373.6317,-165.1995"/>
</g>
<!-- compDialImport&#45;&gt;importQueues -->
<g id="edge34" class="edge">
<title>compDialImport&#45;&gt;importQueues</title>
<path fill="none" stroke="#ff0000" d="M2544.8359,-767.4608C2550.6622,-789.5615 2563.0272,-827.0349 2584.6592,-852.2877 2793.5759,-1096.1725 2937.9312,-1045.9298 3197.6592,-1234.7877 3272.3866,-1289.1247 3353.9355,-1361.341 3394.9379,-1398.6461"/>
<polygon fill="#ff0000" stroke="#ff0000" points="3392.6023,-1401.253 3402.3477,-1405.4097 3397.3215,-1396.083 3392.6023,-1401.253"/>
<text text-anchor="middle" x="3238.6592" y="-1238.5877" font-family="Times,serif" font-size="14.00" fill="#000000">WRITE</text>
</g>
<!-- compDialImport&#45;&gt;compIndex -->
<g id="edge65" class="edge">
<title>compDialImport&#45;&gt;compIndex</title>
<path fill="none" stroke="#000000" d="M2535.2227,-731.4207C2509.0551,-645.421 2396.0289,-273.962 2364.0927,-169.0041"/>
<polygon fill="#000000" stroke="#000000" points="2367.3555,-167.7037 2361.096,-159.1556 2360.6587,-169.7414 2367.3555,-167.7037"/>
</g>
<!-- compDialExport&#45;&gt;compIndex -->
<g id="edge66" class="edge">
<title>compDialExport&#45;&gt;compIndex</title>
<path fill="none" stroke="#000000" d="M2014.7855,-731.7471C2064.3258,-645.9336 2281.1676,-270.3216 2340.5673,-167.4298"/>
<polygon fill="#000000" stroke="#000000" points="2343.6916,-169.0183 2345.6602,-158.6079 2337.6293,-165.5185 2343.6916,-169.0183"/>
</g>
<!-- compDialNew&#45;&gt;newQueues -->
<g id="edge38" class="edge">
<title>compDialNew&#45;&gt;newQueues</title>
<path fill="none" stroke="#ff0000" d="M2622.1042,-767.5186C2624.6997,-789.6775 2631.8902,-827.2097 2651.6592,-852.2877 2719.5718,-938.4382 3412.0973,-1307.807 3589.4583,-1401.576"/>
<polygon fill="#ff0000" stroke="#ff0000" points="3588.0006,-1404.7643 3598.4774,-1406.3414 3591.2708,-1398.5751 3588.0006,-1404.7643"/>
<text text-anchor="middle" x="3302.6592" y="-1238.5877" font-family="Times,serif" font-size="14.00" fill="#000000">WRITE</text>
</g>
<!-- compDialNew&#45;&gt;compIndex -->
<g id="edge67" class="edge">
<title>compDialNew&#45;&gt;compIndex</title>
<path fill="none" stroke="#000000" d="M2613.0141,-731.7471C2575.6906,-646.1143 2412.5884,-271.9024 2367.3384,-168.0835"/>
<polygon fill="#000000" stroke="#000000" points="2370.5395,-166.6681 2363.3354,-158.8994 2364.1225,-169.465 2370.5395,-166.6681"/>
</g>
<!-- compDialTimelineNameEdit&#45;&gt;timelineNameEditQueues -->
<g id="edge49" class="edge">
<title>compDialTimelineNameEdit&#45;&gt;timelineNameEditQueues</title>
<path fill="none" stroke="#ff0000" d="M2135.1926,-767.7673C2130.5604,-839.0861 2123.2559,-1099.8774 2248.6592,-1249.7877 2326.8551,-1343.2649 2464.07,-1387.3126 2558.7499,-1407.4192"/>
<polygon fill="#ff0000" stroke="#ff0000" points="2558.1357,-1410.8662 2568.6375,-1409.4651 2559.5541,-1404.0114 2558.1357,-1410.8662"/>
<text text-anchor="middle" x="2270.6592" y="-1238.5877" font-family="Times,serif" font-size="14.00" fill="#000000">WRITE</text>
</g>
<!-- compDialTimelineNameEdit&#45;&gt;compIndex -->
<g id="edge68" class="edge">
<title>compDialTimelineNameEdit&#45;&gt;compIndex</title>
<path fill="none" stroke="#000000" d="M2143.2135,-731.0914C2174.4488,-644.3741 2308.237,-272.9438 2345.8106,-168.6301"/>
<polygon fill="#000000" stroke="#000000" points="2349.1407,-169.7126 2349.2367,-159.1182 2342.5549,-167.3404 2349.1407,-169.7126"/>
</g>
<!-- compDialTimeScaleEdit&#45;&gt;timeScaleEditQueues -->
<g id="edge45" class="edge">
<title>compDialTimeScaleEdit&#45;&gt;timeScaleEditQueues</title>
<path fill="none" stroke="#ff0000" d="M2302.1853,-767.4674C2320.8101,-838.7724 2398.0439,-1102.6472 2554.6592,-1249.7877 2645.45,-1335.0858 2784.9261,-1382.6337 2872.0953,-1405.5756"/>
<polygon fill="#ff0000" stroke="#ff0000" points="2871.377,-1409.0049 2881.9348,-1408.1192 2873.1291,-1402.2277 2871.377,-1409.0049"/>
<text text-anchor="middle" x="2576.6592" y="-1238.5877" font-family="Times,serif" font-size="14.00" fill="#000000">WRITE</text>
</g>
<!-- compDialTimeScaleEdit&#45;&gt;compIndex -->
<g id="edge69" class="edge">
<title>compDialTimeScaleEdit&#45;&gt;compIndex</title>
<path fill="none" stroke="#000000" d="M2299.3951,-731.0914C2307.6416,-644.6445 2342.8792,-275.2577 2352.9571,-169.6138"/>
<polygon fill="#000000" stroke="#000000" points="2356.4646,-169.7002 2353.9302,-159.4129 2349.4963,-169.0353 2356.4646,-169.7002"/>
</g>
<!-- compDialSettingsEdit&#45;&gt;settingsEditQueues -->
<g id="edge41" class="edge">
<title>compDialSettingsEdit&#45;&gt;settingsEditQueues</title>
<path fill="none" stroke="#ff0000" d="M2442.2643,-767.2726C2453.106,-788.8534 2473.1852,-825.4769 2496.6592,-852.2877 2716.187,-1103.0201 3054.2524,-1329.6565 3164.5283,-1400.4925"/>
<polygon fill="#ff0000" stroke="#ff0000" points="3162.6702,-1403.4587 3172.9794,-1405.902 3166.444,-1397.563 3162.6702,-1403.4587"/>
<text text-anchor="middle" x="2952.6592" y="-1238.5877" font-family="Times,serif" font-size="14.00" fill="#000000">WRITE</text>
</g>
<!-- compDialSettingsEdit&#45;&gt;compIndex -->
<g id="edge70" class="edge">
<title>compDialSettingsEdit&#45;&gt;compIndex</title>
<path fill="none" stroke="#000000" d="M2431.3249,-731.0914C2420.2346,-644.6445 2372.8462,-275.2577 2359.2932,-169.6138"/>
<polygon fill="#000000" stroke="#000000" points="2362.7286,-168.8863 2357.9845,-159.4129 2355.7855,-169.777 2362.7286,-168.8863"/>
</g>
</g>
</svg>
