<?xml version="1.0" encoding="UTF-8" standalone="no"?>
<!DOCTYPE svg PUBLIC "-//W3C//DTD SVG 1.1//EN"
 "http://www.w3.org/Graphics/SVG/1.1/DTD/svg11.dtd">
<!-- Generated by graphviz version 2.40.1 (20161225.0304)
 -->
<!-- Title: SignalsAndQueues Pages: 1 -->
<svg width="2351pt" height="1512pt"
 viewBox="0.00 0.00 2351.17 1512.01" xmlns="http://www.w3.org/2000/svg" xmlns:xlink="http://www.w3.org/1999/xlink">
<g id="graph0" class="graph" transform="scale(1 1) rotate(0) translate(4 1508.0067)">
<title>SignalsAndQueues</title>
<polygon fill="#ffffff" stroke="transparent" points="-4,4 -4,-1508.0067 2347.1725,-1508.0067 2347.1725,4 -4,4"/>
<g id="clust1" class="cluster">
<title>cluster_1</title>
<polygon fill="#000000" fill-opacity="0.058824" stroke="#000000" stroke-opacity="0.058824" points="18.0327,-794.087 18.0327,-1031.087 344.1739,-1031.087 344.1739,-794.087 18.0327,-794.087"/>
<text text-anchor="middle" x="181.1033" y="-1015.887" font-family="Times,serif" font-size="14.00" fill="#000000">Signals</text>
</g>
<g id="clust2" class="cluster">
<title>cluster_2</title>
<polygon fill="#000000" fill-opacity="0.058824" stroke="#000000" stroke-opacity="0.058824" points="389.2557,-167.087 389.2557,-566.087 1072.8639,-566.087 1072.8639,-167.087 389.2557,-167.087"/>
<text text-anchor="middle" x="731.0598" y="-550.887" font-family="Times,serif" font-size="14.00" fill="#000000">Queues</text>
</g>
<g id="clust3" class="cluster">
<title>cluster_3</title>
<polygon fill="#000000" fill-opacity="0.058824" stroke="#000000" stroke-opacity="0.058824" points="497.2154,-794.087 497.2154,-1322.087 2106.2799,-1322.087 2106.2799,-794.087 497.2154,-794.087"/>
<text text-anchor="middle" x="1301.7476" y="-1306.887" font-family="Times,serif" font-size="14.00" fill="#000000">Plumbing</text>
</g>
<g id="clust4" class="cluster">
<title>cluster_4</title>
<polygon fill="#000000" fill-opacity="0.058824" stroke="#000000" stroke-opacity="0.058824" points="515.2482,-848.087 515.2482,-1247.087 946.8714,-1247.087 946.8714,-848.087 515.2482,-848.087"/>
<text text-anchor="middle" x="731.0598" y="-1231.887" font-family="Times,serif" font-size="14.00" fill="#000000">Logic Functions</text>
</g>
<g id="clust5" class="cluster">
<title>cluster_5</title>
<polygon fill="#000000" fill-opacity="0.058824" stroke="#000000" stroke-opacity="0.058824" points="1397.3138,-258.087 1397.3138,-786.087 2325.1398,-786.087 2325.1398,-258.087 1397.3138,-258.087"/>
<text text-anchor="middle" x="1861.2268" y="-770.887" font-family="Times,serif" font-size="14.00" fill="#000000">Components</text>
</g>
<g id="clust6" class="cluster">
<title>cluster_6</title>
<polygon fill="#000000" fill-opacity="0.058824" stroke="#000000" stroke-opacity="0.058824" points="1415.3465,-312.087 1415.3465,-657.087 1808.879,-657.087 1808.879,-312.087 1415.3465,-312.087"/>
<text text-anchor="middle" x="1612.1128" y="-641.887" font-family="Times,serif" font-size="14.00" fill="#000000">Dialogs</text>
</g>
<!-- settingsSignal -->
<g id="node1" class="node">
<title>settingsSignal</title>
<ellipse fill="#ffffbb" stroke="#000000" stroke-width="0" cx="181.1398" cy="-874.087" rx="38.9931" ry="18"/>
<text text-anchor="middle" x="181.1398" y="-870.387" font-family="Times,serif" font-size="14.00" fill="#000000">Settings</text>
</g>
<!-- newTimelineNameSignal -->
<g id="node13" class="node">
<title>newTimelineNameSignal</title>
<ellipse fill="#ffffbb" stroke="#000000" stroke-width="0" cx="1612.1398" cy="-1273.087" rx="211.4628" ry="18"/>
<text text-anchor="middle" x="1612.1398" y="-1269.387" font-family="Times,serif" font-size="14.00" fill="#000000">Timeline.Data.TimelineName.newTimelineNameSignal</text>
</g>
<!-- settingsSignal&#45;&gt;newTimelineNameSignal -->
<g id="edge2" class="edge">
<title>settingsSignal&#45;&gt;newTimelineNameSignal</title>
<path fill="none" stroke="#00ff00" d="M215.9856,-882.5498C228.6228,-886.7417 242.4827,-892.7423 253.4841,-901.087 449.3958,-1049.6878 360.3076,-1236.6546 579.5026,-1348.087 918.7037,-1520.5271 1403.0393,-1356.4919 1560.5315,-1294.5456"/>
<polygon fill="#00ff00" stroke="#00ff00" points="1561.9854,-1297.7342 1569.9897,-1290.7929 1559.4037,-1291.2276 1561.9854,-1297.7342"/>
</g>
<!-- newTimeScaleSignal -->
<g id="node14" class="node">
<title>newTimeScaleSignal</title>
<ellipse fill="#ffffbb" stroke="#000000" stroke-width="0" cx="1612.1398" cy="-1219.087" rx="180.0681" ry="18"/>
<text text-anchor="middle" x="1612.1398" y="-1215.387" font-family="Times,serif" font-size="14.00" fill="#000000">Timeline.Data.TimeScale.newTimeScaleSignal</text>
</g>
<!-- settingsSignal&#45;&gt;newTimeScaleSignal -->
<g id="edge3" class="edge">
<title>settingsSignal&#45;&gt;newTimeScaleSignal</title>
<path fill="none" stroke="#00ff00" d="M215.8682,-882.7067C228.4919,-886.9167 242.3731,-892.8887 253.4841,-901.087 444.4788,-1042.0133 366.5099,-1219.3336 579.5026,-1324.087 728.648,-1397.4393 1381.7501,-1248.7532 1400.9086,-1246.087 1429.324,-1242.1326 1459.9217,-1238.0947 1488.7676,-1234.3872"/>
<polygon fill="#00ff00" stroke="#00ff00" points="1489.4171,-1237.8327 1498.8913,-1233.0902 1488.5276,-1230.8894 1489.4171,-1237.8327"/>
</g>
<!-- onImport -->
<g id="node17" class="node">
<title>onImport</title>
<ellipse fill="#bbbbff" stroke="#000000" stroke-width="0" cx="731.1398" cy="-982.087" rx="44.393" ry="18"/>
<text text-anchor="middle" x="731.1398" y="-978.387" font-family="Times,serif" font-size="14.00" fill="#000000">onImport</text>
</g>
<!-- settingsSignal&#45;&gt;onImport -->
<g id="edge19" class="edge">
<title>settingsSignal&#45;&gt;onImport</title>
<path fill="none" stroke="#0000ff" d="M216.7914,-881.64C286.4072,-896.321 445.3557,-929.5099 579.5026,-955.087 612.985,-961.471 650.7199,-968.1916 680.1709,-973.3309"/>
<polygon fill="#0000ff" stroke="#0000ff" points="679.77,-976.8137 690.222,-975.0796 680.97,-969.9173 679.77,-976.8137"/>
</g>
<!-- onSettingsEdit -->
<g id="node23" class="node">
<title>onSettingsEdit</title>
<ellipse fill="#bbbbff" stroke="#000000" stroke-width="0" cx="731.1398" cy="-1198.087" rx="62.2891" ry="18"/>
<text text-anchor="middle" x="731.1398" y="-1194.387" font-family="Times,serif" font-size="14.00" fill="#000000">onSettingsEdit</text>
</g>
<!-- settingsSignal&#45;&gt;onSettingsEdit -->
<g id="edge32" class="edge">
<title>settingsSignal&#45;&gt;onSettingsEdit</title>
<path fill="none" stroke="#0000ff" d="M214.2391,-883.8297C226.9399,-888.2299 241.2997,-894.0386 253.4841,-901.087 416.335,-995.2929 408.8043,-1091.9841 579.5026,-1171.087 604.3479,-1182.6005 633.5807,-1189.2232 659.715,-1193.0256"/>
<polygon fill="#0000ff" stroke="#0000ff" points="659.5649,-1196.5366 669.9411,-1194.3955 660.4944,-1189.5986 659.5649,-1196.5366"/>
</g>
<!-- compIndex -->
<g id="node24" class="node">
<title>compIndex</title>
<ellipse fill="#ffffbb" stroke="#000000" stroke-width="0" cx="2238.1398" cy="-473.087" rx="30.5947" ry="18"/>
<text text-anchor="middle" x="2238.1398" y="-469.387" font-family="Times,serif" font-size="14.00" fill="#000000">Index</text>
</g>
<!-- settingsSignal&#45;&gt;compIndex -->
<g id="edge61" class="edge">
<title>settingsSignal&#45;&gt;compIndex</title>
<path fill="none" stroke="#00ff00" d="M217.123,-866.9527C229.8915,-862.9141 243.544,-856.6714 253.4841,-847.087 525.4369,-584.8652 265.2908,-271.824 579.5026,-62.087 806.2136,89.2431 1286.4813,-60.9938 1831.3711,-257.087 1981.1893,-311.0031 2144.0565,-411.7366 2209.0205,-453.8288"/>
<polygon fill="#00ff00" stroke="#00ff00" points="2207.2362,-456.8436 2217.5259,-459.368 2211.0563,-450.9778 2207.2362,-456.8436"/>
</g>
<!-- compTopBar -->
<g id="node25" class="node">
<title>compTopBar</title>
<ellipse fill="#ffffbb" stroke="#000000" stroke-width="0" cx="1612.1398" cy="-737.087" rx="37.8943" ry="18"/>
<text text-anchor="middle" x="1612.1398" y="-733.387" font-family="Times,serif" font-size="14.00" fill="#000000">TopBar</text>
</g>
<!-- settingsSignal&#45;&gt;compTopBar -->
<g id="edge56" class="edge">
<title>settingsSignal&#45;&gt;compTopBar</title>
<path fill="none" stroke="#00ff00" d="M216.8638,-866.6769C229.6024,-862.6066 243.3022,-856.4141 253.4841,-847.087 501.8091,-619.6099 294.7153,-342.8296 579.5026,-163.087 636.4948,-127.1165 820.868,-136.4551 882.7771,-163.087 1190.3842,-295.4125 1102.3285,-558.4885 1400.9086,-710.087 1452.4402,-736.2513 1519.8011,-740.5295 1564.4443,-739.8945"/>
<polygon fill="#00ff00" stroke="#00ff00" points="1564.5281,-743.3936 1574.445,-739.6646 1564.3672,-736.3954 1564.5281,-743.3936"/>
</g>
<!-- compDialTimelineNameEdit -->
<g id="node31" class="node">
<title>compDialTimelineNameEdit</title>
<ellipse fill="#bbbbff" stroke="#000000" stroke-width="0" cx="1612.1398" cy="-338.087" rx="79.0865" ry="18"/>
<text text-anchor="middle" x="1612.1398" y="-334.387" font-family="Times,serif" font-size="14.00" fill="#000000">TimelineNameEdit</text>
</g>
<!-- settingsSignal&#45;&gt;compDialTimelineNameEdit -->
<g id="edge47" class="edge">
<title>settingsSignal&#45;&gt;compDialTimelineNameEdit</title>
<path fill="none" stroke="#00ff00" d="M216.941,-866.7606C229.6886,-862.6999 243.3743,-856.4922 253.4841,-847.087 508.307,-610.0268 286.6184,-323.1059 579.5026,-135.087 894.087,66.8624 1036.0855,-234.5329 1400.9086,-316.087 1440.8757,-325.0214 1485.926,-330.3445 1524.1245,-333.508"/>
<polygon fill="#00ff00" stroke="#00ff00" points="1523.9471,-337.0048 1534.1922,-334.3054 1524.4998,-330.0267 1523.9471,-337.0048"/>
</g>
<!-- compDialTimeScaleEdit -->
<g id="node32" class="node">
<title>compDialTimeScaleEdit</title>
<ellipse fill="#bbbbff" stroke="#000000" stroke-width="0" cx="1612.1398" cy="-554.087" rx="63.8893" ry="18"/>
<text text-anchor="middle" x="1612.1398" y="-550.387" font-family="Times,serif" font-size="14.00" fill="#000000">TimeScaleEdit</text>
</g>
<!-- settingsSignal&#45;&gt;compDialTimeScaleEdit -->
<g id="edge43" class="edge">
<title>settingsSignal&#45;&gt;compDialTimeScaleEdit</title>
<path fill="none" stroke="#00ff00" d="M212.4091,-863.241C225.2579,-858.5718 240.208,-852.8638 253.4841,-847.087 402.0291,-782.4514 424.4756,-731.0978 579.5026,-684.087 927.3092,-578.6174 1366.0512,-558.6306 1538.1181,-554.9079"/>
<polygon fill="#00ff00" stroke="#00ff00" points="1538.4,-558.4029 1548.3264,-554.6995 1538.257,-551.4044 1538.4,-558.4029"/>
</g>
<!-- compDialSettingsEdit -->
<g id="node33" class="node">
<title>compDialSettingsEdit</title>
<ellipse fill="#bbbbff" stroke="#000000" stroke-width="0" cx="1612.1398" cy="-500.087" rx="53.8905" ry="18"/>
<text text-anchor="middle" x="1612.1398" y="-496.387" font-family="Times,serif" font-size="14.00" fill="#000000">SettingsEdit</text>
</g>
<!-- settingsSignal&#45;&gt;compDialSettingsEdit -->
<g id="edge39" class="edge">
<title>settingsSignal&#45;&gt;compDialSettingsEdit</title>
<path fill="none" stroke="#00ff00" d="M213.6239,-864.0143C226.3786,-859.5366 240.9382,-853.7605 253.4841,-847.087 410.7214,-763.4488 413.1517,-677.6976 579.5026,-614.087 625.137,-596.637 1333.4421,-527.0436 1549.8327,-506.088"/>
<polygon fill="#00ff00" stroke="#00ff00" points="1550.447,-509.545 1560.0634,-505.098 1549.7728,-502.5776 1550.447,-509.545"/>
</g>
<!-- timelineNameSignal -->
<g id="node2" class="node">
<title>timelineNameSignal</title>
<ellipse fill="#ffffbb" stroke="#000000" stroke-width="0" cx="181.1398" cy="-982.087" rx="64.189" ry="18"/>
<text text-anchor="middle" x="181.1398" y="-978.387" font-family="Times,serif" font-size="14.00" fill="#000000">TimelineName</text>
</g>
<!-- timelineNameSignal&#45;&gt;onImport -->
<g id="edge18" class="edge">
<title>timelineNameSignal&#45;&gt;onImport</title>
<path fill="none" stroke="#00ff00" d="M245.5785,-982.087C354.8656,-982.087 574.6163,-982.087 676.707,-982.087"/>
<polygon fill="#00ff00" stroke="#00ff00" points="676.7999,-985.5871 686.7999,-982.087 676.7998,-978.5871 676.7999,-985.5871"/>
</g>
<!-- onClickedExport -->
<g id="node19" class="node">
<title>onClickedExport</title>
<ellipse fill="#bbbbff" stroke="#000000" stroke-width="0" cx="731.1398" cy="-874.087" rx="70.6878" ry="18"/>
<text text-anchor="middle" x="731.1398" y="-870.387" font-family="Times,serif" font-size="14.00" fill="#000000">onClickedExport</text>
</g>
<!-- timelineNameSignal&#45;&gt;onClickedExport -->
<g id="edge22" class="edge">
<title>timelineNameSignal&#45;&gt;onClickedExport</title>
<path fill="none" stroke="#ff0000" d="M232.6279,-971.1999C308.4654,-955.2591 454.7148,-924.8797 579.5026,-901.087 606.5174,-895.9362 636.3004,-890.5663 662.2671,-885.9845"/>
<polygon fill="#ff0000" stroke="#ff0000" points="663.1482,-889.3834 672.3907,-884.204 661.9356,-882.4892 663.1482,-889.3834"/>
</g>
<!-- onNew -->
<g id="node20" class="node">
<title>onNew</title>
<ellipse fill="#bbbbff" stroke="#000000" stroke-width="0" cx="731.1398" cy="-1036.087" rx="36.2938" ry="18"/>
<text text-anchor="middle" x="731.1398" y="-1032.387" font-family="Times,serif" font-size="14.00" fill="#000000">onNew</text>
</g>
<!-- timelineNameSignal&#45;&gt;onNew -->
<g id="edge26" class="edge">
<title>timelineNameSignal&#45;&gt;onNew</title>
<path fill="none" stroke="#ff0000" d="M242.1009,-988.0723C353.2579,-998.9859 586.5158,-1021.8876 685.3377,-1031.5901"/>
<polygon fill="#ff0000" stroke="#ff0000" points="685.0188,-1035.0755 695.3129,-1032.5695 685.7028,-1028.109 685.0188,-1035.0755"/>
</g>
<!-- onTimelineNameEdit -->
<g id="node21" class="node">
<title>onTimelineNameEdit</title>
<ellipse fill="#bbbbff" stroke="#000000" stroke-width="0" cx="731.1398" cy="-1090.087" rx="87.9851" ry="18"/>
<text text-anchor="middle" x="731.1398" y="-1086.387" font-family="Times,serif" font-size="14.00" fill="#000000">onTimelineNameEdit</text>
</g>
<!-- timelineNameSignal&#45;&gt;onTimelineNameEdit -->
<g id="edge28" class="edge">
<title>timelineNameSignal&#45;&gt;onTimelineNameEdit</title>
<path fill="none" stroke="#0000ff" d="M232.6279,-992.9742C308.4654,-1008.915 454.7148,-1039.2944 579.5026,-1063.087 603.6352,-1067.6883 629.9769,-1072.4645 653.8338,-1076.6974"/>
<polygon fill="#0000ff" stroke="#0000ff" points="653.4356,-1080.1812 663.8923,-1078.4761 654.6546,-1073.2881 653.4356,-1080.1812"/>
</g>
<!-- timelineNameSignal&#45;&gt;compTopBar -->
<g id="edge55" class="edge">
<title>timelineNameSignal&#45;&gt;compTopBar</title>
<path fill="none" stroke="#00ff00" d="M221.6377,-967.8777C232.1043,-963.9593 243.2921,-959.5515 253.4841,-955.087 402.2363,-889.9277 422.5591,-831.8206 579.5026,-790.087 768.9471,-739.7109 1386.7251,-736.7144 1564.1134,-736.921"/>
<polygon fill="#00ff00" stroke="#00ff00" points="1564.1776,-740.421 1574.1831,-736.9368 1564.1887,-733.421 1564.1776,-740.421"/>
</g>
<!-- timelineNameSignal&#45;&gt;compDialTimelineNameEdit -->
<g id="edge46" class="edge">
<title>timelineNameSignal&#45;&gt;compDialTimelineNameEdit</title>
<path fill="none" stroke="#00ff00" d="M222.6939,-968.2339C232.9338,-964.3712 243.7505,-959.9006 253.4841,-955.087 406.9099,-879.2126 429.2786,-832.1185 579.5026,-750.087 933.3627,-556.8576 1013.7338,-477.5609 1400.9086,-365.087 1440.6689,-353.5367 1486.0667,-346.9249 1524.5602,-343.1413"/>
<polygon fill="#00ff00" stroke="#00ff00" points="1525.0745,-346.6086 1534.7054,-342.1932 1524.4231,-339.639 1525.0745,-346.6086"/>
</g>
<!-- timeScaleSignal -->
<g id="node3" class="node">
<title>timeScaleSignal</title>
<ellipse fill="#ffffbb" stroke="#000000" stroke-width="0" cx="181.1398" cy="-928.087" rx="48.9926" ry="18"/>
<text text-anchor="middle" x="181.1398" y="-924.387" font-family="Times,serif" font-size="14.00" fill="#000000">TimeScale</text>
</g>
<!-- timeScaleSignal&#45;&gt;onClickedExport -->
<g id="edge23" class="edge">
<title>timeScaleSignal&#45;&gt;onClickedExport</title>
<path fill="none" stroke="#ff0000" d="M228.5085,-923.4363C323.7377,-914.0865 539.1178,-892.9401 654.5981,-881.602"/>
<polygon fill="#ff0000" stroke="#ff0000" points="655.1649,-885.0633 664.7751,-880.6028 654.4809,-878.0968 655.1649,-885.0633"/>
</g>
<!-- timeScaleSignal&#45;&gt;onNew -->
<g id="edge25" class="edge">
<title>timeScaleSignal&#45;&gt;onNew</title>
<path fill="none" stroke="#ff0000" d="M223.5216,-937.0583C296.2407,-952.3719 449.5153,-984.303 579.5026,-1009.087 615.3347,-1015.919 656.037,-1023.1366 686.2444,-1028.3888"/>
<polygon fill="#ff0000" stroke="#ff0000" points="686.0153,-1031.9013 696.4662,-1030.1608 687.211,-1025.0041 686.0153,-1031.9013"/>
</g>
<!-- onTimeScaleEdit -->
<g id="node22" class="node">
<title>onTimeScaleEdit</title>
<ellipse fill="#bbbbff" stroke="#000000" stroke-width="0" cx="731.1398" cy="-928.087" rx="72.2875" ry="18"/>
<text text-anchor="middle" x="731.1398" y="-924.387" font-family="Times,serif" font-size="14.00" fill="#000000">onTimeScaleEdit</text>
</g>
<!-- timeScaleSignal&#45;&gt;onTimeScaleEdit -->
<g id="edge30" class="edge">
<title>timeScaleSignal&#45;&gt;onTimeScaleEdit</title>
<path fill="none" stroke="#0000ff" d="M229.9487,-928.087C324.2448,-928.087 532.3856,-928.087 648.5902,-928.087"/>
<polygon fill="#0000ff" stroke="#0000ff" points="648.8549,-931.5871 658.8549,-928.087 648.8549,-924.5871 648.8549,-931.5871"/>
</g>
<!-- compBottomBar -->
<g id="node26" class="node">
<title>compBottomBar</title>
<ellipse fill="#ffffbb" stroke="#000000" stroke-width="0" cx="1612.1398" cy="-683.087" rx="50.0912" ry="18"/>
<text text-anchor="middle" x="1612.1398" y="-679.387" font-family="Times,serif" font-size="14.00" fill="#000000">BottomBar</text>
</g>
<!-- timeScaleSignal&#45;&gt;compBottomBar -->
<g id="edge59" class="edge">
<title>timeScaleSignal&#45;&gt;compBottomBar</title>
<path fill="none" stroke="#00ff00" d="M216.3083,-915.5762C228.1913,-911.1864 241.484,-906.0967 253.4841,-901.087 400.8429,-839.569 424.7537,-789.4805 579.5026,-750.087 673.6688,-726.1157 1346.1911,-694.8092 1552.2685,-685.686"/>
<polygon fill="#00ff00" stroke="#00ff00" points="1552.4657,-689.1808 1562.3016,-685.2431 1552.1569,-682.1877 1552.4657,-689.1808"/>
</g>
<!-- timeScaleSignal&#45;&gt;compDialTimeScaleEdit -->
<g id="edge42" class="edge">
<title>timeScaleSignal&#45;&gt;compDialTimeScaleEdit</title>
<path fill="none" stroke="#00ff00" d="M217.2893,-915.8573C228.9978,-911.5633 241.9372,-906.4599 253.4841,-901.087 404.3344,-830.8948 422.5876,-772.4085 579.5026,-717.087 590.4084,-713.2421 1389.4672,-582.7648 1400.9086,-581.087 1448.3876,-574.1245 1502.0224,-567.2813 1543.3652,-562.2264"/>
<polygon fill="#00ff00" stroke="#00ff00" points="1543.8268,-565.6961 1553.3306,-561.0134 1542.981,-558.7474 1543.8268,-565.6961"/>
</g>
<!-- zoomSignal -->
<g id="node4" class="node">
<title>zoomSignal</title>
<ellipse fill="#ffffbb" stroke="#000000" stroke-width="0" cx="181.1398" cy="-820.087" rx="32.4942" ry="18"/>
<text text-anchor="middle" x="181.1398" y="-816.387" font-family="Times,serif" font-size="14.00" fill="#000000">Zoom</text>
</g>
<!-- zoomSignal&#45;&gt;compBottomBar -->
<g id="edge58" class="edge">
<title>zoomSignal&#45;&gt;compBottomBar</title>
<path fill="none" stroke="#0000ff" d="M184.8306,-802.0076C204.7241,-709.8834 308.5102,-290.9768 579.5026,-135.087 696.3388,-67.8763 758.4438,-83.0368 882.7771,-135.087 1185.4712,-261.8053 1105.1942,-518.84 1400.9086,-661.087 1448.4331,-683.9477 1508.7919,-688.1305 1552.8076,-687.3706"/>
<polygon fill="#0000ff" stroke="#0000ff" points="1553.1595,-690.8626 1563.0635,-687.0996 1552.9745,-683.8651 1553.1595,-690.8626"/>
</g>
<!-- importQueues -->
<g id="node5" class="node">
<title>importQueues</title>
<ellipse fill="#ffffbb" stroke="#000000" stroke-width="0" cx="731.1398" cy="-355.087" rx="99.3824" ry="18"/>
<text text-anchor="middle" x="731.1398" y="-351.387" font-family="Times,serif" font-size="14.00" fill="#000000">Import Dialog IOQueues</text>
</g>
<!-- importQueues&#45;&gt;onImport -->
<g id="edge17" class="edge">
<title>importQueues&#45;&gt;onImport</title>
<path fill="none" stroke="#000000" d="M669.5367,-340.9313C597.0524,-328.3493 478.717,-321.3381 416.4933,-391.087 252.286,-575.1533 252.286,-762.0208 416.4933,-946.087 482.8648,-1020.4853 613.0779,-1007.549 683.3905,-993.6735"/>
<polygon fill="#000000" stroke="#000000" points="684.2266,-997.0748 693.3152,-991.6297 682.8147,-990.2187 684.2266,-997.0748"/>
</g>
<!-- compDialImport -->
<g id="node28" class="node">
<title>compDialImport</title>
<ellipse fill="#bbbbff" stroke="#000000" stroke-width="0" cx="1612.1398" cy="-446.087" rx="35.194" ry="18"/>
<text text-anchor="middle" x="1612.1398" y="-442.387" font-family="Times,serif" font-size="14.00" fill="#000000">Import</text>
</g>
<!-- importQueues&#45;&gt;compDialImport -->
<g id="edge33" class="edge">
<title>importQueues&#45;&gt;compDialImport</title>
<path fill="none" stroke="#00ff00" d="M806.6342,-366.8732C984.307,-389.1552 1424.5906,-434.3687 1566.9548,-444.6154"/>
<polygon fill="#00ff00" stroke="#00ff00" points="1566.8558,-448.1169 1577.0743,-445.3181 1567.3408,-441.1337 1566.8558,-448.1169"/>
</g>
<!-- exportQueue -->
<g id="node6" class="node">
<title>exportQueue</title>
<ellipse fill="#ffffbb" stroke="#000000" stroke-width="0" cx="731.1398" cy="-517.087" rx="86.3847" ry="18"/>
<text text-anchor="middle" x="731.1398" y="-513.387" font-family="Times,serif" font-size="14.00" fill="#000000">Export Dialog Queue</text>
</g>
<!-- onExport -->
<g id="node18" class="node">
<title>onExport</title>
<ellipse fill="#bbbbff" stroke="#000000" stroke-width="0" cx="731.1398" cy="-1144.087" rx="43.5923" ry="18"/>
<text text-anchor="middle" x="731.1398" y="-1140.387" font-family="Times,serif" font-size="14.00" fill="#000000">onExport</text>
</g>
<!-- exportQueue&#45;&gt;onExport -->
<g id="edge20" class="edge">
<title>exportQueue&#45;&gt;onExport</title>
<path fill="none" stroke="#ff0000" d="M698.6123,-533.8113C630.768,-570.7866 475.5719,-666.8043 416.4933,-799.087 360.4905,-924.4829 325.0698,-1005.6069 416.4933,-1108.087 483.0392,-1182.6808 613.7628,-1169.4804 683.9437,-1155.5641"/>
<polygon fill="#ff0000" stroke="#ff0000" points="684.7605,-1158.9693 693.8441,-1153.516 683.3424,-1152.1144 684.7605,-1158.9693"/>
</g>
<!-- compDialExport -->
<g id="node29" class="node">
<title>compDialExport</title>
<ellipse fill="#bbbbff" stroke="#000000" stroke-width="0" cx="1612.1398" cy="-608.087" rx="34.394" ry="18"/>
<text text-anchor="middle" x="1612.1398" y="-604.387" font-family="Times,serif" font-size="14.00" fill="#000000">Export</text>
</g>
<!-- exportQueue&#45;&gt;compDialExport -->
<g id="edge36" class="edge">
<title>exportQueue&#45;&gt;compDialExport</title>
<path fill="none" stroke="#00ff00" d="M808.9362,-525.1227C988.62,-543.6826 1427.8364,-589.05 1568.2273,-603.5512"/>
<polygon fill="#00ff00" stroke="#00ff00" points="1567.8902,-607.0349 1578.197,-604.581 1568.6095,-600.072 1567.8902,-607.0349"/>
</g>
<!-- newQueues -->
<g id="node7" class="node">
<title>newQueues</title>
<ellipse fill="#ffffbb" stroke="#000000" stroke-width="0" cx="731.1398" cy="-301.087" rx="91.784" ry="18"/>
<text text-anchor="middle" x="731.1398" y="-297.387" font-family="Times,serif" font-size="14.00" fill="#000000">New Dialog IOQueues</text>
</g>
<!-- newQueues&#45;&gt;onNew -->
<g id="edge24" class="edge">
<title>newQueues&#45;&gt;onNew</title>
<path fill="none" stroke="#000000" d="M671.7605,-287.3215C599.4946,-274.5017 479.3575,-266.6201 416.4933,-337.087 220.3321,-556.9716 220.3321,-780.2024 416.4933,-1000.087 484.5565,-1076.3817 619.7575,-1060.8328 688.6484,-1046.612"/>
<polygon fill="#000000" stroke="#000000" points="689.6761,-1049.9711 698.7156,-1044.4451 688.203,-1043.1278 689.6761,-1049.9711"/>
</g>
<!-- compDialNew -->
<g id="node30" class="node">
<title>compDialNew</title>
<ellipse fill="#bbbbff" stroke="#000000" stroke-width="0" cx="1612.1398" cy="-392.087" rx="27.0966" ry="18"/>
<text text-anchor="middle" x="1612.1398" y="-388.387" font-family="Times,serif" font-size="14.00" fill="#000000">New</text>
</g>
<!-- newQueues&#45;&gt;compDialNew -->
<g id="edge37" class="edge">
<title>newQueues&#45;&gt;compDialNew</title>
<path fill="none" stroke="#00ff00" d="M802.8622,-312.3986C981.23,-334.9152 1440.135,-381.996 1574.5914,-391.1509"/>
<polygon fill="#00ff00" stroke="#00ff00" points="1574.5844,-394.6577 1584.7893,-391.81 1575.0359,-387.6723 1574.5844,-394.6577"/>
</g>
<!-- settingsEditQueues -->
<g id="node8" class="node">
<title>settingsEditQueues</title>
<ellipse fill="#ffffbb" stroke="#000000" stroke-width="0" cx="731.1398" cy="-409.087" rx="103.1819" ry="18"/>
<text text-anchor="middle" x="731.1398" y="-405.387" font-family="Times,serif" font-size="14.00" fill="#000000">Settings Dialog IOQueues</text>
</g>
<!-- settingsEditQueues&#45;&gt;onSettingsEdit -->
<g id="edge31" class="edge">
<title>settingsEditQueues&#45;&gt;onSettingsEdit</title>
<path fill="none" stroke="#000000" d="M668.2529,-394.7098C595.6621,-382.2694 478.351,-375.7484 416.4933,-445.087 204.3552,-682.8807 204.3552,-924.2933 416.4933,-1162.087 447.5893,-1196.9436 576.0177,-1201.389 658.8763,-1200.4371"/>
<polygon fill="#000000" stroke="#000000" points="659.0474,-1203.9351 668.996,-1200.2916 658.9467,-1196.9358 659.0474,-1203.9351"/>
</g>
<!-- settingsEditQueues&#45;&gt;compDialSettingsEdit -->
<g id="edge40" class="edge">
<title>settingsEditQueues&#45;&gt;compDialSettingsEdit</title>
<path fill="none" stroke="#00ff00" d="M808.5506,-421.1132C980.1883,-442.5701 1389.9861,-484.7941 1548.2494,-497.2039"/>
<polygon fill="#00ff00" stroke="#00ff00" points="1548.0659,-500.7 1558.3049,-497.9776 1548.603,-493.7206 1548.0659,-500.7"/>
</g>
<!-- timelineNameEditQueues -->
<g id="node9" class="node">
<title>timelineNameEditQueues</title>
<ellipse fill="#ffffbb" stroke="#000000" stroke-width="0" cx="731.1398" cy="-247.087" rx="143.7746" ry="18"/>
<text text-anchor="middle" x="731.1398" y="-243.387" font-family="Times,serif" font-size="14.00" fill="#000000">TimelineNameEdit Dialog IOQueues</text>
</g>
<!-- timelineNameEditQueues&#45;&gt;onTimelineNameEdit -->
<g id="edge27" class="edge">
<title>timelineNameEditQueues&#45;&gt;onTimelineNameEdit</title>
<path fill="none" stroke="#000000" d="M660.3567,-231.4103C587.4022,-219.902 476.1548,-216.2102 416.4933,-283.087 302.4358,-410.9385 302.4358,-926.2356 416.4933,-1054.087 476.8831,-1121.7803 590.1259,-1117.1714 663.0111,-1105.3389"/>
<polygon fill="#000000" stroke="#000000" points="663.7508,-1108.7633 673.0179,-1103.6281 662.5711,-1101.8634 663.7508,-1108.7633"/>
</g>
<!-- timelineNameEditQueues&#45;&gt;compDialTimelineNameEdit -->
<g id="edge48" class="edge">
<title>timelineNameEditQueues&#45;&gt;compDialTimelineNameEdit</title>
<path fill="none" stroke="#00ff00" d="M823.3427,-260.9419C994.1474,-281.8405 1357.5551,-319.3466 1524.7035,-333.2939"/>
<polygon fill="#00ff00" stroke="#00ff00" points="1524.4442,-336.7843 1534.6982,-334.1189 1525.0201,-329.8081 1524.4442,-336.7843"/>
</g>
<!-- timeScaleEditQueues -->
<g id="node10" class="node">
<title>timeScaleEditQueues</title>
<ellipse fill="#ffffbb" stroke="#000000" stroke-width="0" cx="731.1398" cy="-463.087" rx="128.0773" ry="18"/>
<text text-anchor="middle" x="731.1398" y="-459.387" font-family="Times,serif" font-size="14.00" fill="#000000">TimeScaleEdit Dialog IOQueues</text>
</g>
<!-- timeScaleEditQueues&#45;&gt;onTimeScaleEdit -->
<g id="edge29" class="edge">
<title>timeScaleEditQueues&#45;&gt;onTimeScaleEdit</title>
<path fill="none" stroke="#000000" d="M663.0247,-447.8374C590.14,-436.0032 476.8869,-431.3896 416.4933,-499.087 300.2168,-629.4258 300.2168,-761.7482 416.4933,-892.087 478.5436,-961.6416 596.3934,-954.8633 668.9298,-942.3478"/>
<polygon fill="#000000" stroke="#000000" points="669.6373,-945.7767 678.8538,-940.5511 668.3902,-938.8887 669.6373,-945.7767"/>
</g>
<!-- timeScaleEditQueues&#45;&gt;compDialTimeScaleEdit -->
<g id="edge44" class="edge">
<title>timeScaleEditQueues&#45;&gt;compDialTimeScaleEdit</title>
<path fill="none" stroke="#00ff00" d="M818.4291,-476.3387C991.9645,-497.7123 1377.4597,-537.4319 1538.8489,-550.4557"/>
<polygon fill="#00ff00" stroke="#00ff00" points="1538.9047,-553.971 1549.1506,-551.2744 1539.4593,-546.993 1538.9047,-553.971"/>
</g>
<!-- snackbarQueue -->
<g id="node11" class="node">
<title>snackbarQueue</title>
<ellipse fill="#ffffbb" stroke="#000000" stroke-width="0" cx="731.1398" cy="-193.087" rx="68.7879" ry="18"/>
<text text-anchor="middle" x="731.1398" y="-189.387" font-family="Times,serif" font-size="14.00" fill="#000000">Snackbar Queue</text>
</g>
<!-- snackbarQueue&#45;&gt;onClickedExport -->
<g id="edge21" class="edge">
<title>snackbarQueue&#45;&gt;onClickedExport</title>
<path fill="none" stroke="#ff0000" d="M680.3509,-180.9087C609.3826,-167.2743 481.9197,-155.7481 416.4933,-229.087 234.8297,-432.7207 233.2356,-640.8868 416.4933,-843.087 479.6876,-912.8134 599.3502,-903.0543 671.51,-888.9987"/>
<polygon fill="#ff0000" stroke="#ff0000" points="672.2639,-892.4171 681.366,-886.9947 670.8691,-885.5574 672.2639,-892.4171"/>
</g>
<!-- compSnackbar -->
<g id="node27" class="node">
<title>compSnackbar</title>
<ellipse fill="#ffffbb" stroke="#000000" stroke-width="0" cx="1612.1398" cy="-284.087" rx="43.5923" ry="18"/>
<text text-anchor="middle" x="1612.1398" y="-280.387" font-family="Times,serif" font-size="14.00" fill="#000000">Snackbar</text>
</g>
<!-- snackbarQueue&#45;&gt;compSnackbar -->
<g id="edge60" class="edge">
<title>snackbarQueue&#45;&gt;compSnackbar</title>
<path fill="none" stroke="#00ff00" d="M795.2088,-199.7048C961.8423,-216.9167 1406.4516,-262.8411 1559.5071,-278.6505"/>
<polygon fill="#00ff00" stroke="#00ff00" points="1559.282,-282.1458 1569.5887,-279.6918 1560.0013,-275.1828 1559.282,-282.1458"/>
</g>
<!-- newSettingsSignal -->
<g id="node12" class="node">
<title>newSettingsSignal</title>
<ellipse fill="#ffffbb" stroke="#000000" stroke-width="0" cx="1612.1398" cy="-1165.087" rx="106.6812" ry="18"/>
<text text-anchor="middle" x="1612.1398" y="-1161.387" font-family="Times,serif" font-size="14.00" fill="#000000">Settings.newSettingsSignal</text>
</g>
<!-- newSettingsSignal&#45;&gt;settingsSignal -->
<g id="edge1" class="edge">
<title>newSettingsSignal&#45;&gt;settingsSignal</title>
<path fill="none" stroke="#000000" d="M1522.7517,-1174.9403C1485.0463,-1179.5036 1440.7415,-1185.4004 1400.9086,-1192.087 1219.3433,-1222.5657 745.8475,-1378.9811 579.5026,-1300.087 372.5918,-1201.9533 439.6696,-1034.4183 253.4841,-901.087 244.894,-894.9355 234.7363,-890.0125 224.7904,-886.1448"/>
<polygon fill="#000000" stroke="#000000" points="225.972,-882.8503 215.3776,-882.7542 223.5997,-889.4361 225.972,-882.8503"/>
</g>
<!-- newTimelineNameSignal&#45;&gt;timelineNameSignal -->
<g id="edge4" class="edge">
<title>newTimelineNameSignal&#45;&gt;timelineNameSignal</title>
<path fill="none" stroke="#000000" d="M1580.4232,-1291.1287C1450.0283,-1362.7631 944.9234,-1615.2141 579.5026,-1447.087 374.2071,-1352.6323 235.1691,-1094.3993 193.913,-1009.5247"/>
<polygon fill="#000000" stroke="#000000" points="196.9577,-1007.7794 189.4744,-1000.2794 190.6472,-1010.8091 196.9577,-1007.7794"/>
</g>
<!-- newTimeScaleSignal&#45;&gt;timeScaleSignal -->
<g id="edge5" class="edge">
<title>newTimeScaleSignal&#45;&gt;timeScaleSignal</title>
<path fill="none" stroke="#000000" d="M1490.313,-1232.3456C1460.9419,-1236.1795 1429.7241,-1240.786 1400.9086,-1246.087 1037.7306,-1312.8989 911.5233,-1532.717 579.5026,-1371.087 368.2968,-1268.2706 443.0644,-1093.7896 253.4841,-955.087 246.563,-950.0234 238.5837,-945.8045 230.5072,-942.3243"/>
<polygon fill="#000000" stroke="#000000" points="231.625,-939.0025 221.0389,-938.5719 229.0459,-945.5101 231.625,-939.0025"/>
</g>
<!-- newPrimarySignals -->
<g id="node15" class="node">
<title>newPrimarySignals</title>
<ellipse fill="#ffffbb" stroke="#000000" stroke-width="0" cx="731.1398" cy="-1273.087" rx="79.8859" ry="18"/>
<text text-anchor="middle" x="731.1398" y="-1269.387" font-family="Times,serif" font-size="14.00" fill="#000000">newPrimarySignals</text>
</g>
<!-- newPrimarySignals&#45;&gt;zoomSignal -->
<g id="edge9" class="edge">
<title>newPrimarySignals&#45;&gt;zoomSignal</title>
<path fill="none" stroke="#000000" d="M651.1411,-1272.5847C626.8866,-1269.588 600.9971,-1263.3355 579.5026,-1251.087 379.0375,-1136.8543 440.662,-981.9937 253.4841,-847.087 243.7267,-840.0544 231.9228,-834.6349 220.7054,-830.5616"/>
<polygon fill="#000000" stroke="#000000" points="221.6588,-827.1897 211.0648,-827.3218 219.4289,-833.825 221.6588,-827.1897"/>
</g>
<!-- newPrimarySignals&#45;&gt;newSettingsSignal -->
<g id="edge6" class="edge">
<title>newPrimarySignals&#45;&gt;newSettingsSignal</title>
<path fill="none" stroke="#000000" d="M801.3762,-1264.4769C958.1323,-1245.2605 1336.7531,-1198.8461 1515.5566,-1176.927"/>
<polygon fill="#000000" stroke="#000000" points="1516.2409,-1180.3694 1525.7407,-1175.6785 1515.3891,-1173.4214 1516.2409,-1180.3694"/>
</g>
<!-- newPrimarySignals&#45;&gt;newTimelineNameSignal -->
<g id="edge7" class="edge">
<title>newPrimarySignals&#45;&gt;newTimelineNameSignal</title>
<path fill="none" stroke="#000000" d="M811.267,-1273.087C941.074,-1273.087 1201.8205,-1273.087 1390.6069,-1273.087"/>
<polygon fill="#000000" stroke="#000000" points="1390.6703,-1276.5871 1400.6702,-1273.087 1390.6702,-1269.5871 1390.6703,-1276.5871"/>
</g>
<!-- newPrimarySignals&#45;&gt;newTimeScaleSignal -->
<g id="edge8" class="edge">
<title>newPrimarySignals&#45;&gt;newTimeScaleSignal</title>
<path fill="none" stroke="#000000" d="M808.5506,-1268.3422C951.0702,-1259.6066 1257.7971,-1240.8061 1448.3748,-1229.1248"/>
<polygon fill="#000000" stroke="#000000" points="1448.7244,-1232.6101 1458.4915,-1228.5047 1448.2961,-1225.6232 1448.7244,-1232.6101"/>
</g>
<!-- newPrimaryQueues -->
<g id="node16" class="node">
<title>newPrimaryQueues</title>
<ellipse fill="#ffffbb" stroke="#000000" stroke-width="0" cx="731.1398" cy="-820.087" rx="80.6858" ry="18"/>
<text text-anchor="middle" x="731.1398" y="-816.387" font-family="Times,serif" font-size="14.00" fill="#000000">newPrimaryQueues</text>
</g>
<!-- newPrimaryQueues&#45;&gt;importQueues -->
<g id="edge10" class="edge">
<title>newPrimaryQueues&#45;&gt;importQueues</title>
<path fill="none" stroke="#000000" d="M672.8794,-832.5855C600.6116,-844.2642 479.287,-850.5938 416.4933,-779.087 302.707,-649.5118 301.6961,-519.7676 416.4933,-391.087 475.9218,-324.4714 586.5339,-327.8742 659.5,-339.2758"/>
<polygon fill="#000000" stroke="#000000" points="659.1004,-342.7571 669.5367,-340.9313 660.2397,-335.8505 659.1004,-342.7571"/>
</g>
<!-- newPrimaryQueues&#45;&gt;exportQueue -->
<g id="edge11" class="edge">
<title>newPrimaryQueues&#45;&gt;exportQueue</title>
<path fill="none" stroke="#000000" d="M731.1398,-801.9994C731.1398,-716.4331 731.1398,-630.8668 731.1398,-545.3005"/>
<polygon fill="#000000" stroke="#000000" points="734.6399,-545.1368 731.1398,-535.1368 727.6399,-545.1369 734.6399,-545.1368"/>
</g>
<!-- newPrimaryQueues&#45;&gt;newQueues -->
<g id="edge12" class="edge">
<title>newPrimaryQueues&#45;&gt;newQueues</title>
<path fill="none" stroke="#000000" d="M672.8794,-832.5855C600.6116,-844.2642 479.287,-850.5938 416.4933,-779.087 286.8707,-631.4781 285.7192,-483.6767 416.4933,-337.087 476.5336,-269.7856 588.8166,-273.9517 661.7413,-285.6304"/>
<polygon fill="#000000" stroke="#000000" points="661.3175,-289.1083 671.7605,-287.3215 662.4825,-282.2059 661.3175,-289.1083"/>
</g>
<!-- newPrimaryQueues&#45;&gt;settingsEditQueues -->
<g id="edge13" class="edge">
<title>newPrimaryQueues&#45;&gt;settingsEditQueues</title>
<path fill="none" stroke="#000000" d="M672.8794,-832.5855C600.6116,-844.2642 479.287,-850.5938 416.4933,-779.087 318.5432,-667.5454 317.6731,-555.8584 416.4933,-445.087 475.5722,-378.8633 585.2343,-381.8366 658.2085,-393.0755"/>
<polygon fill="#000000" stroke="#000000" points="657.8205,-396.5583 668.2529,-394.7098 658.9448,-389.6492 657.8205,-396.5583"/>
</g>
<!-- newPrimaryQueues&#45;&gt;timelineNameEditQueues -->
<g id="edge14" class="edge">
<title>newPrimaryQueues&#45;&gt;timelineNameEditQueues</title>
<path fill="none" stroke="#000000" d="M672.8794,-832.5855C600.6116,-844.2642 479.287,-850.5938 416.4933,-779.087 271.0345,-613.4444 269.7423,-447.5859 416.4933,-283.087 473.4747,-219.2144 577.5114,-219.7127 650.3012,-229.9124"/>
<polygon fill="#000000" stroke="#000000" points="649.9501,-233.3987 660.3567,-231.4103 650.9815,-226.475 649.9501,-233.3987"/>
</g>
<!-- newPrimaryQueues&#45;&gt;timeScaleEditQueues -->
<g id="edge15" class="edge">
<title>newPrimaryQueues&#45;&gt;timeScaleEditQueues</title>
<path fill="none" stroke="#000000" d="M672.8794,-832.5855C600.6116,-844.2642 479.287,-850.5938 416.4933,-779.087 334.3795,-685.5791 333.65,-591.9493 416.4933,-499.087 474.1739,-434.4307 580.0716,-435.7347 652.9664,-446.2921"/>
<polygon fill="#000000" stroke="#000000" points="652.6091,-449.7782 663.0247,-447.8374 653.6721,-442.8594 652.6091,-449.7782"/>
</g>
<!-- newPrimaryQueues&#45;&gt;snackbarQueue -->
<g id="edge16" class="edge">
<title>newPrimaryQueues&#45;&gt;snackbarQueue</title>
<path fill="none" stroke="#000000" d="M672.8794,-832.5855C600.6116,-844.2642 479.287,-850.5938 416.4933,-779.087 255.1982,-595.4108 253.7653,-411.495 416.4933,-229.087 478.9806,-159.0427 598.056,-166.41 670.4555,-179.0915"/>
<polygon fill="#000000" stroke="#000000" points="669.8831,-182.5448 680.3509,-180.9087 671.1475,-175.66 669.8831,-182.5448"/>
</g>
<!-- onImport&#45;&gt;compTopBar -->
<g id="edge50" class="edge">
<title>onImport&#45;&gt;compTopBar</title>
<path fill="none" stroke="#ffff00" d="M772.9637,-976.1622C803.5915,-971.4554 846.0449,-964.1638 882.7771,-955.087 1117.3954,-897.1112 1168.4503,-856.1937 1400.9086,-790.087 1458.3121,-773.7625 1525.2326,-757.4196 1568.1105,-747.2871"/>
<polygon fill="#ffff00" stroke="#ffff00" points="1569.0099,-750.6711 1577.942,-744.9731 1567.4061,-743.8573 1569.0099,-750.6711"/>
</g>
<!-- onExport&#45;&gt;compTopBar -->
<g id="edge51" class="edge">
<title>onExport&#45;&gt;compTopBar</title>
<path fill="none" stroke="#ffff00" d="M774.1637,-1140.882C805.1897,-1137.5144 847.6197,-1130.707 882.7771,-1117.087 1136.6958,-1018.7191 1150.5674,-897.2331 1400.9086,-790.087 1455.2914,-766.8111 1522.0994,-752.1894 1565.8322,-744.3377"/>
<polygon fill="#ffff00" stroke="#ffff00" points="1566.6396,-747.7497 1575.887,-742.5789 1565.4334,-740.8544 1566.6396,-747.7497"/>
</g>
<!-- onClickedExport&#45;&gt;compDialExport -->
<g id="edge35" class="edge">
<title>onClickedExport&#45;&gt;compDialExport</title>
<path fill="none" stroke="#ffff00" d="M798.3571,-868.1498C824.9717,-864.8141 855.6347,-859.7288 882.7771,-852.087 1123.9297,-784.1922 1158.4369,-693.1091 1400.9086,-630.087 1457.1166,-615.4777 1524.1236,-610.5175 1567.3617,-608.8632"/>
<polygon fill="#ffff00" stroke="#ffff00" points="1567.6772,-612.3547 1577.5529,-608.5179 1567.44,-605.3587 1567.6772,-612.3547"/>
</g>
<!-- onNew&#45;&gt;compTopBar -->
<g id="edge52" class="edge">
<title>onNew&#45;&gt;compTopBar</title>
<path fill="none" stroke="#ffff00" d="M766.8966,-1032.0161C797.9593,-1027.9388 843.9351,-1020.5957 882.7771,-1009.087 1122.4824,-938.0637 1163.8205,-869.4104 1400.9086,-790.087 1457.3386,-771.207 1524.2198,-755.5096 1567.3742,-746.2174"/>
<polygon fill="#ffff00" stroke="#ffff00" points="1568.2266,-749.6144 1577.278,-744.1077 1566.7682,-742.768 1568.2266,-749.6144"/>
</g>
<!-- onTimelineNameEdit&#45;&gt;compTopBar -->
<g id="edge53" class="edge">
<title>onTimelineNameEdit&#45;&gt;compTopBar</title>
<path fill="none" stroke="#ffff00" d="M807.5068,-1081.201C831.9577,-1077.1147 858.8759,-1071.289 882.7771,-1063.087 1128.9745,-978.6015 1157.8009,-883.0904 1400.9086,-790.087 1456.3216,-768.8882 1523.1678,-753.7641 1566.6104,-745.2325"/>
<polygon fill="#ffff00" stroke="#ffff00" points="1567.4331,-748.6384 1576.5894,-743.308 1566.1075,-741.7651 1567.4331,-748.6384"/>
</g>
<!-- onTimeScaleEdit&#45;&gt;compBottomBar -->
<g id="edge57" class="edge">
<title>onTimeScaleEdit&#45;&gt;compBottomBar</title>
<path fill="none" stroke="#ffff00" d="M794.4022,-919.3868C821.8163,-914.9594 854.1294,-908.8521 882.7771,-901.087 1119.6583,-836.8796 1162.5232,-768.4629 1400.9086,-710.087 1451.1674,-697.7796 1509.6087,-690.8592 1552.2629,-687.1142"/>
<polygon fill="#ffff00" stroke="#ffff00" points="1552.8084,-690.5807 1562.4783,-686.2514 1552.2192,-683.6056 1552.8084,-690.5807"/>
</g>
<!-- onSettingsEdit&#45;&gt;compTopBar -->
<g id="edge54" class="edge">
<title>onSettingsEdit&#45;&gt;compTopBar</title>
<path fill="none" stroke="#ffff00" d="M792.0118,-1193.6631C820.4625,-1190.0024 854.2696,-1183.3125 882.7771,-1171.087 1145.4762,-1058.4278 1142.2897,-911.8214 1400.9086,-790.087 1454.4302,-764.8939 1521.4297,-750.6984 1565.4415,-743.468"/>
<polygon fill="#ffff00" stroke="#ffff00" points="1566.237,-746.8857 1575.5646,-741.8613 1565.1396,-739.9722 1566.237,-746.8857"/>
</g>
<!-- compTopBar&#45;&gt;compIndex -->
<g id="edge62" class="edge">
<title>compTopBar&#45;&gt;compIndex</title>
<path fill="none" stroke="#000000" d="M1650.0061,-737.0128C1694.5343,-735.8908 1770.1375,-730.7229 1831.3711,-710.087 1987.0837,-657.6115 2149.0959,-541.3896 2211.479,-493.9087"/>
<polygon fill="#000000" stroke="#000000" points="2213.8004,-496.5394 2219.6093,-487.6789 2209.5428,-490.983 2213.8004,-496.5394"/>
</g>
<!-- compBottomBar&#45;&gt;compIndex -->
<g id="edge63" class="edge">
<title>compBottomBar&#45;&gt;compIndex</title>
<path fill="none" stroke="#000000" d="M1662.19,-682.767C1707.1906,-681.3785 1774.7265,-676.5492 1831.3711,-661.087 1980.1071,-620.4869 2142.3302,-530.081 2208.0233,-491.3133"/>
<polygon fill="#000000" stroke="#000000" points="2209.8294,-494.3114 2216.6408,-486.1963 2206.2554,-488.2926 2209.8294,-494.3114"/>
</g>
<!-- compSnackbar&#45;&gt;compIndex -->
<g id="edge64" class="edge">
<title>compSnackbar&#45;&gt;compIndex</title>
<path fill="none" stroke="#000000" d="M1655.6112,-285.3177C1700.2992,-287.3996 1771.6007,-293.0034 1831.3711,-308.087 1976.4529,-344.6997 2138.266,-422.2104 2205.8028,-456.3472"/>
<polygon fill="#000000" stroke="#000000" points="2204.5697,-459.6466 2215.07,-461.059 2207.7423,-453.4068 2204.5697,-459.6466"/>
</g>
<!-- compDialImport&#45;&gt;importQueues -->
<g id="edge34" class="edge">
<title>compDialImport&#45;&gt;importQueues</title>
<path fill="none" stroke="#ff0000" d="M1579.0072,-439.8839C1457.8353,-422.7597 1035.4746,-378.5377 836.4361,-361.3954"/>
<polygon fill="#ff0000" stroke="#ff0000" points="836.521,-357.89 826.2593,-360.5261 835.9251,-364.8646 836.521,-357.89"/>
</g>
<!-- compDialImport&#45;&gt;compIndex -->
<g id="edge65" class="edge">
<title>compDialImport&#45;&gt;compIndex</title>
<path fill="none" stroke="#000000" d="M1647.1377,-447.5965C1755.0035,-452.2489 2082.0099,-466.353 2197.3402,-471.3273"/>
<polygon fill="#000000" stroke="#000000" points="2197.3679,-474.8317 2207.5095,-471.7659 2197.6696,-467.8382 2197.3679,-474.8317"/>
</g>
<!-- compDialExport&#45;&gt;compIndex -->
<g id="edge66" class="edge">
<title>compDialExport&#45;&gt;compIndex</title>
<path fill="none" stroke="#000000" d="M1646.5439,-605.3189C1689.9081,-601.494 1766.6114,-593.6108 1831.3711,-581.087 1969.4876,-554.3769 2129.9314,-506.7562 2200.9979,-484.7852"/>
<polygon fill="#000000" stroke="#000000" points="2202.3089,-488.0431 2210.8213,-481.7353 2200.2332,-481.3579 2202.3089,-488.0431"/>
</g>
<!-- compDialNew&#45;&gt;newQueues -->
<g id="edge38" class="edge">
<title>compDialNew&#45;&gt;newQueues</title>
<path fill="none" stroke="#ff0000" d="M1585.7302,-386.8516C1473.125,-370.3105 1029.7749,-323.8679 829.8516,-306.8313"/>
<polygon fill="#ff0000" stroke="#ff0000" points="829.9063,-303.3235 819.6472,-305.9696 829.3172,-310.2987 829.9063,-303.3235"/>
</g>
<!-- compDialNew&#45;&gt;compIndex -->
<g id="edge67" class="edge">
<title>compDialNew&#45;&gt;compIndex</title>
<path fill="none" stroke="#000000" d="M1639.1506,-395.3304C1680.541,-400.3192 1762.1411,-410.2289 1831.3711,-419.087 1965.9041,-436.3009 2125.3117,-457.7776 2198.187,-467.6559"/>
<polygon fill="#000000" stroke="#000000" points="2197.9183,-471.1514 2208.298,-469.0273 2198.8592,-464.2149 2197.9183,-471.1514"/>
</g>
<!-- compDialTimelineNameEdit&#45;&gt;timelineNameEditQueues -->
<g id="edge49" class="edge">
<title>compDialTimelineNameEdit&#45;&gt;timelineNameEditQueues</title>
<path fill="none" stroke="#ff0000" d="M1547.4173,-327.6649C1405.0335,-309.4469 1061.9837,-273.57 868.9875,-256.2604"/>
<polygon fill="#ff0000" stroke="#ff0000" points="869.0455,-252.7518 858.774,-255.3493 868.4234,-259.7241 869.0455,-252.7518"/>
</g>
<!-- compDialTimelineNameEdit&#45;&gt;compIndex -->
<g id="edge68" class="edge">
<title>compDialTimelineNameEdit&#45;&gt;compIndex</title>
<path fill="none" stroke="#000000" d="M1686.1122,-344.6489C1728.7981,-349.0698 1783.3661,-355.8034 1831.3711,-365.087 1969.4876,-391.7971 2129.9314,-439.4179 2200.9979,-461.3888"/>
<polygon fill="#000000" stroke="#000000" points="2200.2332,-464.8161 2210.8213,-464.4388 2202.3089,-458.1309 2200.2332,-464.8161"/>
</g>
<!-- compDialTimeScaleEdit&#45;&gt;timeScaleEditQueues -->
<g id="edge45" class="edge">
<title>compDialTimeScaleEdit&#45;&gt;timeScaleEditQueues</title>
<path fill="none" stroke="#ff0000" d="M1557.136,-544.9219C1418.7484,-526.8167 1053.2819,-488.5908 858.1514,-471.2941"/>
<polygon fill="#ff0000" stroke="#ff0000" points="858.3985,-467.8024 848.1298,-470.4111 857.784,-474.7754 858.3985,-467.8024"/>
</g>
<!-- compDialTimeScaleEdit&#45;&gt;compIndex -->
<g id="edge69" class="edge">
<title>compDialTimeScaleEdit&#45;&gt;compIndex</title>
<path fill="none" stroke="#000000" d="M1670.7804,-547.0174C1714.9445,-541.6561 1776.9761,-534.047 1831.3711,-527.087 1965.9041,-509.8732 2125.3117,-488.3964 2198.187,-478.5182"/>
<polygon fill="#000000" stroke="#000000" points="2198.8592,-481.9592 2208.298,-477.1468 2197.9183,-475.0227 2198.8592,-481.9592"/>
</g>
<!-- compDialSettingsEdit&#45;&gt;settingsEditQueues -->
<g id="edge41" class="edge">
<title>compDialSettingsEdit&#45;&gt;settingsEditQueues</title>
<path fill="none" stroke="#ff0000" d="M1564.1328,-491.846C1427.1691,-473.5741 1032.0336,-432.3148 839.3578,-415.6476"/>
<polygon fill="#ff0000" stroke="#ff0000" points="839.4752,-412.1449 829.2125,-414.7768 838.8765,-419.1192 839.4752,-412.1449"/>
</g>
<!-- compDialSettingsEdit&#45;&gt;compIndex -->
<g id="edge70" class="edge">
<title>compDialSettingsEdit&#45;&gt;compIndex</title>
<path fill="none" stroke="#000000" d="M1665.7828,-497.7733C1788.5824,-492.4769 2087.9314,-479.5657 2197.2823,-474.8493"/>
<polygon fill="#000000" stroke="#000000" points="2197.7209,-478.3337 2207.5607,-474.4059 2197.4192,-471.3402 2197.7209,-478.3337"/>
</g>
</g>
</svg>
