<?xml version="1.0" encoding="UTF-8" standalone="no"?>
<!DOCTYPE svg PUBLIC "-//W3C//DTD SVG 1.1//EN"
 "http://www.w3.org/Graphics/SVG/1.1/DTD/svg11.dtd">
<!-- Generated by graphviz version 2.40.1 (20161225.0304)
 -->
<!-- Title: Modules Pages: 1 -->
<svg width="864pt" height="535pt"
 viewBox="0.00 0.00 864.00 535.49" xmlns="http://www.w3.org/2000/svg" xmlns:xlink="http://www.w3.org/1999/xlink">
<g id="graph0" class="graph" transform="scale(.4801 .4801) rotate(0) translate(4 1111.3333)">
<title>Modules</title>
<polygon fill="#ffffff" stroke="transparent" points="-4,4 -4,-1111.3333 1795.55,-1111.3333 1795.55,4 -4,4"/>
<g id="clust1" class="cluster">
<title>cluster_0</title>
<polygon fill="#000000" fill-opacity="0.058824" stroke="#000000" stroke-opacity="0.058824" points="308.4898,-261.0006 308.4898,-623.7146 1642.4898,-623.7146 1642.4898,-261.0006 308.4898,-261.0006"/>
<text text-anchor="middle" x="975.4898" y="-608.5146" font-family="Times,serif" font-size="14.00" fill="#000000">Components</text>
</g>
<g id="clust2" class="cluster">
<title>cluster_1</title>
<polygon fill="#000000" fill-opacity="0.058824" stroke="#000000" stroke-opacity="0.058824" points="626.4898,-420.2877 626.4898,-564.2218 1319.4898,-564.2218 1319.4898,-420.2877 626.4898,-420.2877"/>
<text text-anchor="middle" x="972.9898" y="-549.0218" font-family="Times,serif" font-size="14.00" fill="#000000">Dialogs</text>
</g>
<g id="clust3" class="cluster">
<title>cluster_2</title>
<polygon fill="#000000" fill-opacity="0.058824" stroke="#000000" stroke-opacity="0.058824" points="1327.4898,-420.2877 1327.4898,-564.2218 1634.4898,-564.2218 1634.4898,-420.2877 1327.4898,-420.2877"/>
<text text-anchor="middle" x="1480.9898" y="-549.0218" font-family="Times,serif" font-size="14.00" fill="#000000">Drawers</text>
</g>
<g id="clust4" class="cluster">
<title>cluster_3</title>
<polygon fill="#000000" fill-opacity="0.058824" stroke="#000000" stroke-opacity="0.058824" points="194.4898,-122.8238 194.4898,-404.9347 300.4898,-404.9347 300.4898,-122.8238 194.4898,-122.8238"/>
<text text-anchor="middle" x="247.4898" y="-389.7347" font-family="Times,serif" font-size="14.00" fill="#000000">Plumbing</text>
</g>
<g id="clust5" class="cluster">
<title>cluster_4</title>
<polygon fill="#000000" fill-opacity="0.058824" stroke="#000000" stroke-opacity="0.058824" points="1342.4898,-888.5534 1342.4898,-1032.4876 1452.4898,-1032.4876 1452.4898,-888.5534 1342.4898,-888.5534"/>
<text text-anchor="middle" x="1397.4898" y="-1017.2876" font-family="Times,serif" font-size="14.00" fill="#000000">Scripts</text>
</g>
<g id="clust6" class="cluster">
<title>cluster_5</title>
<polygon fill="#000000" fill-opacity="0.058824" stroke="#000000" stroke-opacity="0.058824" points="626.4898,-873.2005 626.4898,-1091.9804 764.4898,-1091.9804 764.4898,-873.2005 626.4898,-873.2005"/>
<text text-anchor="middle" x="695.4898" y="-1076.7804" font-family="Times,serif" font-size="14.00" fill="#000000">Test</text>
</g>
<g id="clust7" class="cluster">
<title>cluster_6</title>
<polygon fill="#000000" fill-opacity="0.058824" stroke="#000000" stroke-opacity="0.058824" points="634.4898,-888.5534 634.4898,-1032.4876 756.4898,-1032.4876 756.4898,-888.5534 634.4898,-888.5534"/>
<text text-anchor="middle" x="695.4898" y="-1017.2876" font-family="Times,serif" font-size="14.00" fill="#000000">QuickCheck</text>
</g>
<g id="clust8" class="cluster">
<title>cluster_7</title>
<polygon fill="#000000" fill-opacity="0.058824" stroke="#000000" stroke-opacity="0.058824" points="89.4898,-639.0676 89.4898,-857.8475 1010.4898,-857.8475 1010.4898,-639.0676 89.4898,-639.0676"/>
<text text-anchor="middle" x="549.9898" y="-842.6475" font-family="Times,serif" font-size="14.00" fill="#000000">Timeline</text>
</g>
<g id="clust9" class="cluster">
<title>cluster_8</title>
<polygon fill="#000000" fill-opacity="0.058824" stroke="#000000" stroke-opacity="0.058824" points="97.4898,-654.4206 97.4898,-798.3547 1002.4898,-798.3547 1002.4898,-654.4206 97.4898,-654.4206"/>
<text text-anchor="middle" x="549.9898" y="-783.1547" font-family="Times,serif" font-size="14.00" fill="#000000">Data</text>
</g>
<!-- u13 -->
<g id="node1" class="node">
<title>u13</title>
<ellipse fill="#bbffbb" stroke="#000000" stroke-width="0" cx="1085.4898" cy="-938" rx="38.9931" ry="18"/>
<text text-anchor="middle" x="1085.4898" y="-934.3" font-family="Times,serif" font-size="14.00" fill="#000000">Settings</text>
</g>
<!-- u7 -->
<g id="node5" class="node">
<title>u7</title>
<ellipse fill="#ffffbb" stroke="#000000" stroke-width="0" cx="578.4898" cy="-470" rx="37.8943" ry="18"/>
<text text-anchor="middle" x="578.4898" y="-466.3" font-family="Times,serif" font-size="14.00" fill="#000000">TopBar</text>
</g>
<!-- u13&#45;&gt;u7 -->
<g id="edge7" class="edge">
<title>u13&#45;&gt;u7</title>
<path fill="none" stroke="#000000" d="M1080.4116,-919.9368C1063.6757,-860.5187 1011.0613,-674.6463 1006.4898,-670 881.0849,-542.5434 760.9131,-663.1837 622.4898,-550 605.872,-536.4123 594.523,-514.8135 587.5186,-497.4816"/>
<polygon fill="#000000" stroke="#000000" points="590.6942,-495.9835 583.8896,-487.8627 584.1449,-498.4545 590.6942,-495.9835"/>
</g>
<!-- u8 -->
<g id="node6" class="node">
<title>u8</title>
<ellipse fill="#ffffbb" stroke="#000000" stroke-width="0" cx="968.4898" cy="-311" rx="30.5947" ry="18"/>
<text text-anchor="middle" x="968.4898" y="-307.3" font-family="Times,serif" font-size="14.00" fill="#000000">Index</text>
</g>
<!-- u13&#45;&gt;u8 -->
<g id="edge21" class="edge">
<title>u13&#45;&gt;u8</title>
<path fill="none" stroke="#000000" d="M1119.9728,-929.3382C1283.1385,-886.8318 1961.1703,-692.3001 1751.4898,-444 1702.7302,-386.2598 1163.218,-329.8721 1009.2751,-314.8681"/>
<polygon fill="#000000" stroke="#000000" points="1009.1605,-311.3407 998.8696,-313.8599 1008.4854,-318.3081 1009.1605,-311.3407"/>
</g>
<!-- u2 -->
<g id="node9" class="node">
<title>u2</title>
<ellipse fill="#bbbbff" stroke="#000000" stroke-width="0" cx="1257.4898" cy="-470" rx="53.8905" ry="18"/>
<text text-anchor="middle" x="1257.4898" y="-466.3" font-family="Times,serif" font-size="14.00" fill="#000000">SettingsEdit</text>
</g>
<!-- u13&#45;&gt;u2 -->
<g id="edge2" class="edge">
<title>u13&#45;&gt;u2</title>
<path fill="none" stroke="#000000" d="M1092.0224,-920.2253C1118.2004,-848.9968 1215.6311,-583.8946 1247.4018,-497.4486"/>
<polygon fill="#000000" stroke="#000000" points="1250.6938,-498.6373 1250.8583,-488.0438 1244.1235,-496.2226 1250.6938,-498.6373"/>
</g>
<!-- u3 -->
<g id="node10" class="node">
<title>u3</title>
<ellipse fill="#bbbbff" stroke="#000000" stroke-width="0" cx="888.4898" cy="-470" rx="79.0865" ry="18"/>
<text text-anchor="middle" x="888.4898" y="-466.3" font-family="Times,serif" font-size="14.00" fill="#000000">TimelineNameEdit</text>
</g>
<!-- u13&#45;&gt;u3 -->
<g id="edge3" class="edge">
<title>u13&#45;&gt;u3</title>
<path fill="none" stroke="#000000" d="M1085.6028,-919.9169C1085.2542,-875.4585 1080.5064,-758.0375 1042.4898,-670 1011.721,-598.7467 949.8187,-530.3595 914.5867,-494.9756"/>
<polygon fill="#000000" stroke="#000000" points="916.6405,-492.0831 907.0755,-487.5267 911.7114,-497.0534 916.6405,-492.0831"/>
</g>
<!-- u4 -->
<g id="node11" class="node">
<title>u4</title>
<ellipse fill="#bbbbff" stroke="#000000" stroke-width="0" cx="1049.4898" cy="-470" rx="63.8893" ry="18"/>
<text text-anchor="middle" x="1049.4898" y="-466.3" font-family="Times,serif" font-size="14.00" fill="#000000">TimeScaleEdit</text>
</g>
<!-- u13&#45;&gt;u4 -->
<g id="edge5" class="edge">
<title>u13&#45;&gt;u4</title>
<path fill="none" stroke="#000000" d="M1085.9967,-919.7582C1087.0177,-876.3721 1088.5842,-763.6533 1080.4898,-670 1075.1522,-608.2439 1062.4497,-536.6256 1055.0676,-498.0645"/>
<polygon fill="#000000" stroke="#000000" points="1058.4754,-497.2522 1053.1371,-488.1006 1051.6032,-498.5838 1058.4754,-497.2522"/>
</g>
<!-- u10 -->
<g id="node14" class="node">
<title>u10</title>
<ellipse fill="#ffbbbb" stroke="#000000" stroke-width="0" cx="1375.4898" cy="-470" rx="39.7935" ry="18"/>
<text text-anchor="middle" x="1375.4898" y="-466.3" font-family="Times,serif" font-size="14.00" fill="#000000">Siblings</text>
</g>
<!-- u13&#45;&gt;u10 -->
<g id="edge24" class="edge">
<title>u13&#45;&gt;u10</title>
<path fill="none" stroke="#000000" d="M1096.3288,-920.508C1140.4777,-849.2609 1306.8943,-580.699 1359.4683,-495.8554"/>
<polygon fill="#000000" stroke="#000000" points="1362.4582,-497.6751 1364.7504,-487.3312 1356.5079,-493.9879 1362.4582,-497.6751"/>
</g>
<!-- u11 -->
<g id="node15" class="node">
<title>u11</title>
<ellipse fill="#ffbbbb" stroke="#000000" stroke-width="0" cx="1474.4898" cy="-470" rx="41.6928" ry="18"/>
<text text-anchor="middle" x="1474.4898" y="-466.3" font-family="Times,serif" font-size="14.00" fill="#000000">Children</text>
</g>
<!-- u13&#45;&gt;u11 -->
<g id="edge25" class="edge">
<title>u13&#45;&gt;u11</title>
<path fill="none" stroke="#000000" d="M1101.9056,-921.5593C1153.1578,-869.7628 1313.4068,-704.2452 1424.4898,-550 1436.9716,-532.6682 1449.7114,-512.235 1459.2074,-496.3575"/>
<polygon fill="#000000" stroke="#000000" points="1462.3134,-497.9813 1464.3972,-487.5934 1456.2902,-494.4146 1462.3134,-497.9813"/>
</g>
<!-- u12 -->
<g id="node16" class="node">
<title>u12</title>
<ellipse fill="#ffbbbb" stroke="#000000" stroke-width="0" cx="1580.4898" cy="-470" rx="46.2923" ry="18"/>
<text text-anchor="middle" x="1580.4898" y="-466.3" font-family="Times,serif" font-size="14.00" fill="#000000">Timelines</text>
</g>
<!-- u13&#45;&gt;u12 -->
<g id="edge26" class="edge">
<title>u13&#45;&gt;u12</title>
<path fill="none" stroke="#000000" d="M1108.4092,-923.2293C1148.3521,-897.0851 1232.6446,-840.1105 1297.4898,-784 1407.2937,-688.9866 1433.3586,-662.2332 1525.4898,-550 1539.4355,-533.0114 1553.4452,-512.5718 1563.8349,-496.6053"/>
<polygon fill="#000000" stroke="#000000" points="1567.0437,-498.0861 1569.5061,-487.7813 1561.155,-494.3014 1567.0437,-498.0861"/>
</g>
<!-- u14 -->
<g id="node17" class="node">
<title>u14</title>
<ellipse fill="#bbffbb" stroke="#000000" stroke-width="2" cx="247.4898" cy="-173" rx="45.4919" ry="18"/>
<text text-anchor="middle" x="247.4898" y="-169.3" font-family="Times,serif" font-size="14.00" fill="#000000">Plumbing</text>
</g>
<!-- u13&#45;&gt;u14 -->
<g id="edge30" class="edge">
<title>u13&#45;&gt;u14</title>
<path fill="none" stroke="#000000" d="M1047.2944,-933.7167C864.3294,-913.0229 84.9494,-822.812 51.4898,-784 -106.8487,-600.3326 145.8018,-287.242 224.9864,-197.6262"/>
<polygon fill="#000000" stroke="#000000" points="227.6248,-199.9263 231.666,-190.1324 222.3993,-195.2685 227.6248,-199.9263"/>
</g>
<!-- u25 -->
<g id="node18" class="node">
<title>u25</title>
<ellipse fill="#bbffff" stroke="#000000" stroke-width="0" cx="261.4898" cy="-311" rx="31.3957" ry="18"/>
<text text-anchor="middle" x="261.4898" y="-307.3" font-family="Times,serif" font-size="14.00" fill="#000000">Logic</text>
</g>
<!-- u13&#45;&gt;u25 -->
<g id="edge42" class="edge">
<title>u13&#45;&gt;u25</title>
<path fill="none" stroke="#000000" d="M1047.6682,-933.5164C869.9856,-912.2793 125.4345,-821.2865 93.4898,-784 -27.4056,-642.8885 169.6484,-408.6939 238.8658,-334.3795"/>
<polygon fill="#000000" stroke="#000000" points="241.5958,-336.5857 245.9013,-326.9051 236.4986,-331.7878 241.5958,-336.5857"/>
</g>
<!-- u18 -->
<g id="node22" class="node">
<title>u18</title>
<ellipse fill="#ff7777" stroke="#000000" stroke-width="0" cx="826.4898" cy="-704" rx="48.9926" ry="18"/>
<text text-anchor="middle" x="826.4898" y="-700.3" font-family="Times,serif" font-size="14.00" fill="#000000">TimeScale</text>
</g>
<!-- u13&#45;&gt;u18 -->
<g id="edge36" class="edge">
<title>u13&#45;&gt;u18</title>
<path fill="none" stroke="#000000" d="M1061.8777,-923.3799C1022.1953,-898.109 940.8513,-843.2454 883.4898,-784 867.6757,-767.6665 852.8746,-746.6498 842.32,-730.2569"/>
<polygon fill="#000000" stroke="#000000" points="845.2086,-728.2758 836.9138,-721.6844 839.2877,-732.0099 845.2086,-728.2758"/>
</g>
<!-- u19 -->
<g id="node23" class="node">
<title>u19</title>
<ellipse fill="#ff7777" stroke="#000000" stroke-width="0" cx="695.4898" cy="-704" rx="64.189" ry="18"/>
<text text-anchor="middle" x="695.4898" y="-700.3" font-family="Times,serif" font-size="14.00" fill="#000000">TimelineName</text>
</g>
<!-- u13&#45;&gt;u19 -->
<g id="edge37" class="edge">
<title>u13&#45;&gt;u19</title>
<path fill="none" stroke="#000000" d="M1054.0694,-927.2874C994.5408,-906.0497 862.8442,-854.4966 768.4898,-784 747.7791,-768.5261 728.2567,-746.5956 714.6208,-729.6084"/>
<polygon fill="#000000" stroke="#000000" points="717.3505,-727.4174 708.4204,-721.7162 711.8461,-731.7419 717.3505,-727.4174"/>
</g>
<!-- u16 -->
<g id="node2" class="node">
<title>u16</title>
<ellipse fill="#bbffbb" stroke="#000000" stroke-width="0" cx="425.4898" cy="-35" rx="29.795" ry="18"/>
<text text-anchor="middle" x="425.4898" y="-31.3" font-family="Times,serif" font-size="14.00" fill="#000000">Main</text>
</g>
<!-- u26 -->
<g id="node3" class="node">
<title>u26</title>
<ellipse fill="#bbffbb" stroke="#000000" stroke-width="0" cx="1696.4898" cy="-470" rx="46.2923" ry="18"/>
<text text-anchor="middle" x="1696.4898" y="-466.3" font-family="Times,serif" font-size="14.00" fill="#000000">WithRoot</text>
</g>
<!-- u26&#45;&gt;u8 -->
<g id="edge23" class="edge">
<title>u26&#45;&gt;u8</title>
<path fill="none" stroke="#000000" d="M1668.0792,-455.728C1658.8173,-451.4939 1648.3723,-447.1514 1638.4898,-444 1405.825,-369.8071 1113.9384,-328.9165 1008.6565,-315.7589"/>
<polygon fill="#000000" stroke="#000000" points="1008.8333,-312.2543 998.4795,-314.5012 1007.9747,-319.2014 1008.8333,-312.2543"/>
</g>
<!-- u0 -->
<g id="node4" class="node">
<title>u0</title>
<ellipse fill="#ffffbb" stroke="#000000" stroke-width="0" cx="472.4898" cy="-470" rx="50.0912" ry="18"/>
<text text-anchor="middle" x="472.4898" y="-466.3" font-family="Times,serif" font-size="14.00" fill="#000000">BottomBar</text>
</g>
<!-- u0&#45;&gt;u8 -->
<g id="edge9" class="edge">
<title>u0&#45;&gt;u8</title>
<path fill="none" stroke="#000000" d="M503.1308,-455.6663C512.1727,-451.6635 522.1496,-447.4652 531.4898,-444 676.3542,-390.2555 853.8401,-341.2797 930.3813,-320.9448"/>
<polygon fill="#000000" stroke="#000000" points="931.7257,-324.2095 940.4977,-318.268 929.9351,-317.4424 931.7257,-324.2095"/>
</g>
<!-- u7&#45;&gt;u8 -->
<g id="edge16" class="edge">
<title>u7&#45;&gt;u8</title>
<path fill="none" stroke="#000000" d="M601.3844,-455.4957C608.0642,-451.533 615.4601,-447.3987 622.4898,-444 731.6568,-391.22 867.5613,-344.0852 931.707,-322.8776"/>
<polygon fill="#000000" stroke="#000000" points="932.9647,-326.1485 941.3708,-319.6996 930.7779,-319.4988 932.9647,-326.1485"/>
</g>
<!-- u8&#45;&gt;u16 -->
<g id="edge34" class="edge">
<title>u8&#45;&gt;u16</title>
<path fill="none" stroke="#000000" d="M945.1577,-299.1406C858.7293,-255.2102 556.6862,-101.6855 457.3938,-51.2164"/>
<polygon fill="#000000" stroke="#000000" points="458.9323,-48.0722 448.4318,-46.6611 455.7604,-54.3124 458.9323,-48.0722"/>
</g>
<!-- u9 -->
<g id="node7" class="node">
<title>u9</title>
<ellipse fill="#ffffbb" stroke="#000000" stroke-width="0" cx="360.4898" cy="-470" rx="43.5923" ry="18"/>
<text text-anchor="middle" x="360.4898" y="-466.3" font-family="Times,serif" font-size="14.00" fill="#000000">Snackbar</text>
</g>
<!-- u9&#45;&gt;u8 -->
<g id="edge17" class="edge">
<title>u9&#45;&gt;u8</title>
<path fill="none" stroke="#000000" d="M386.9522,-455.5933C395.2783,-451.4509 404.6184,-447.1945 413.4898,-444 601.0945,-376.4448 836.716,-332.9114 928.9275,-317.3792"/>
<polygon fill="#000000" stroke="#000000" points="929.6515,-320.8069 938.9389,-315.7084 928.4992,-313.9024 929.6515,-320.8069"/>
</g>
<!-- u9&#45;&gt;u14 -->
<g id="edge29" class="edge">
<title>u9&#45;&gt;u14</title>
<path fill="none" stroke="#000000" d="M355.6898,-452.1083C346.5407,-418.744 325.3752,-344.9771 301.4898,-285 289.6096,-255.1687 273.3038,-222.1906 261.7264,-199.7945"/>
<polygon fill="#000000" stroke="#000000" points="264.8075,-198.1333 257.0809,-190.8841 258.6004,-201.3694 264.8075,-198.1333"/>
</g>
<!-- u9&#45;&gt;u25 -->
<g id="edge41" class="edge">
<title>u9&#45;&gt;u25</title>
<path fill="none" stroke="#000000" d="M349.5168,-452.3767C332.0303,-424.2923 297.7566,-369.2467 277.5207,-336.7466"/>
<polygon fill="#000000" stroke="#000000" points="280.4678,-334.8579 272.211,-328.2189 274.5255,-338.5579 280.4678,-334.8579"/>
</g>
<!-- u1 -->
<g id="node8" class="node">
<title>u1</title>
<ellipse fill="#bbbbff" stroke="#000000" stroke-width="0" cx="756.4898" cy="-470" rx="35.194" ry="18"/>
<text text-anchor="middle" x="756.4898" y="-466.3" font-family="Times,serif" font-size="14.00" fill="#000000">Import</text>
</g>
<!-- u1&#45;&gt;u8 -->
<g id="edge10" class="edge">
<title>u1&#45;&gt;u8</title>
<path fill="none" stroke="#000000" d="M776.4342,-455.0417C814.6042,-426.4142 898.0271,-363.847 941.2758,-331.4105"/>
<polygon fill="#000000" stroke="#000000" points="943.4646,-334.144 949.3646,-325.3439 939.2645,-328.5439 943.4646,-334.144"/>
</g>
<!-- u1&#45;&gt;u14 -->
<g id="edge27" class="edge">
<title>u1&#45;&gt;u14</title>
<path fill="none" stroke="#000000" d="M743.8596,-453.1799C716.1255,-417.3411 646.2264,-332.8303 569.4898,-285 481.9387,-230.429 364.3359,-198.2482 298.1909,-183.2661"/>
<polygon fill="#000000" stroke="#000000" points="298.9435,-179.8481 288.4222,-181.0941 297.4241,-186.6812 298.9435,-179.8481"/>
</g>
<!-- u1&#45;&gt;u25 -->
<g id="edge39" class="edge">
<title>u1&#45;&gt;u25</title>
<path fill="none" stroke="#000000" d="M734.1386,-455.6932C727.074,-451.5549 719.1171,-447.2757 711.4898,-444 565.5269,-381.314 380.8399,-336.959 301.1068,-319.3792"/>
<polygon fill="#000000" stroke="#000000" points="301.5316,-315.8895 291.0149,-317.1739 300.0372,-322.7281 301.5316,-315.8895"/>
</g>
<!-- u2&#45;&gt;u8 -->
<g id="edge11" class="edge">
<title>u2&#45;&gt;u8</title>
<path fill="none" stroke="#000000" d="M1229.253,-454.4649C1175.033,-424.6345 1056.7021,-359.532 1000.0047,-328.3387"/>
<polygon fill="#000000" stroke="#000000" points="1001.5791,-325.2101 991.1304,-323.4563 998.2048,-331.3432 1001.5791,-325.2101"/>
</g>
<!-- u3&#45;&gt;u8 -->
<g id="edge12" class="edge">
<title>u3&#45;&gt;u8</title>
<path fill="none" stroke="#000000" d="M897.5113,-452.0698C911.5699,-424.1283 938.7832,-370.0418 955.1249,-337.5628"/>
<polygon fill="#000000" stroke="#000000" points="958.2552,-339.1282 959.6233,-328.6221 952.0021,-335.982 958.2552,-339.1282"/>
</g>
<!-- u4&#45;&gt;u8 -->
<g id="edge13" class="edge">
<title>u4&#45;&gt;u8</title>
<path fill="none" stroke="#000000" d="M1040.3555,-452.0698C1026.1212,-424.1283 998.5677,-370.0418 982.0218,-337.5628"/>
<polygon fill="#000000" stroke="#000000" points="985.125,-335.9437 977.4671,-328.6221 978.8877,-339.1213 985.125,-335.9437"/>
</g>
<!-- u5 -->
<g id="node12" class="node">
<title>u5</title>
<ellipse fill="#bbbbff" stroke="#000000" stroke-width="0" cx="668.4898" cy="-470" rx="34.394" ry="18"/>
<text text-anchor="middle" x="668.4898" y="-466.3" font-family="Times,serif" font-size="14.00" fill="#000000">Export</text>
</g>
<!-- u5&#45;&gt;u8 -->
<g id="edge14" class="edge">
<title>u5&#45;&gt;u8</title>
<path fill="none" stroke="#000000" d="M691.1901,-456.2671C697.9951,-452.2369 705.5065,-447.8735 712.4898,-444 791.737,-400.0432 886.8467,-351.7827 935.8083,-327.2606"/>
<polygon fill="#000000" stroke="#000000" points="937.5881,-330.2839 944.9669,-322.6811 934.4574,-324.023 937.5881,-330.2839"/>
</g>
<!-- u5&#45;&gt;u14 -->
<g id="edge28" class="edge">
<title>u5&#45;&gt;u14</title>
<path fill="none" stroke="#000000" d="M658.6048,-452.525C637.4534,-416.5444 584.4069,-333.5041 519.4898,-285 450.4077,-233.3839 354.1158,-201.131 296.5672,-185.1546"/>
<polygon fill="#000000" stroke="#000000" points="297.2027,-181.7003 286.6345,-182.4522 295.3649,-188.4548 297.2027,-181.7003"/>
</g>
<!-- u5&#45;&gt;u25 -->
<g id="edge40" class="edge">
<title>u5&#45;&gt;u25</title>
<path fill="none" stroke="#000000" d="M648.5699,-454.9743C642.9061,-451.0935 636.6096,-447.1317 630.4898,-444 515.7458,-385.281 368.9523,-340.6839 300.2332,-321.4269"/>
<polygon fill="#000000" stroke="#000000" points="300.8542,-317.967 290.2823,-318.6631 298.9808,-324.7117 300.8542,-317.967"/>
</g>
<!-- u6 -->
<g id="node13" class="node">
<title>u6</title>
<ellipse fill="#bbbbff" stroke="#000000" stroke-width="0" cx="1158.4898" cy="-470" rx="27.0966" ry="18"/>
<text text-anchor="middle" x="1158.4898" y="-466.3" font-family="Times,serif" font-size="14.00" fill="#000000">New</text>
</g>
<!-- u6&#45;&gt;u8 -->
<g id="edge15" class="edge">
<title>u6&#45;&gt;u8</title>
<path fill="none" stroke="#000000" d="M1141.2934,-455.6094C1107.7776,-427.5619 1033.5582,-365.452 994.1833,-332.5014"/>
<polygon fill="#000000" stroke="#000000" points="996.2523,-329.669 986.3371,-325.9354 991.7599,-335.0373 996.2523,-329.669"/>
</g>
<!-- u10&#45;&gt;u8 -->
<g id="edge18" class="edge">
<title>u10&#45;&gt;u8</title>
<path fill="none" stroke="#000000" d="M1349.5571,-456.3626C1341.3102,-452.2077 1332.0947,-447.7508 1323.4898,-444 1209.2379,-394.1992 1069.7629,-345.2997 1004.8986,-323.2186"/>
<polygon fill="#000000" stroke="#000000" points="1005.7386,-319.8076 995.1442,-319.9089 1003.4894,-326.4365 1005.7386,-319.8076"/>
</g>
<!-- u11&#45;&gt;u8 -->
<g id="edge19" class="edge">
<title>u11&#45;&gt;u8</title>
<path fill="none" stroke="#000000" d="M1449.2495,-455.6531C1441.459,-451.5601 1432.7526,-447.3162 1424.4898,-444 1274.5241,-383.8135 1086.969,-337.841 1007.2334,-319.5856"/>
<polygon fill="#000000" stroke="#000000" points="1007.6858,-316.0992 997.1587,-317.2956 1006.1341,-322.9251 1007.6858,-316.0992"/>
</g>
<!-- u12&#45;&gt;u8 -->
<g id="edge20" class="edge">
<title>u12&#45;&gt;u8</title>
<path fill="none" stroke="#000000" d="M1552.6985,-455.4921C1544.128,-451.3936 1534.5572,-447.187 1525.4898,-444 1336.7328,-377.656 1100.5347,-333.4295 1008.1292,-317.5455"/>
<polygon fill="#000000" stroke="#000000" points="1008.543,-314.0656 998.0971,-315.8356 1007.3669,-320.9661 1008.543,-314.0656"/>
</g>
<!-- u14&#45;&gt;u16 -->
<g id="edge35" class="edge">
<title>u14&#45;&gt;u16</title>
<path fill="none" stroke="#000000" d="M268.257,-156.8996C300.6894,-131.7554 363.3331,-83.1889 398.9798,-55.5527"/>
<polygon fill="#000000" stroke="#000000" points="401.2445,-58.2256 407.0031,-49.3324 396.9555,-52.6935 401.2445,-58.2256"/>
</g>
<!-- u14&#45;&gt;u8 -->
<g id="edge22" class="edge">
<title>u14&#45;&gt;u8</title>
<path fill="none" stroke="#000000" d="M288.5996,-180.8685C416.2439,-205.2997 804.662,-279.6432 929.4455,-303.5269"/>
<polygon fill="#000000" stroke="#000000" points="928.853,-306.977 939.3327,-305.4193 930.169,-300.1018 928.853,-306.977"/>
</g>
<!-- u25&#45;&gt;u14 -->
<g id="edge33" class="edge">
<title>u25&#45;&gt;u14</title>
<path fill="none" stroke="#000000" d="M259.6595,-292.9589C257.2909,-269.6106 253.1378,-228.6738 250.3508,-201.2014"/>
<polygon fill="#000000" stroke="#000000" points="253.812,-200.6412 249.3205,-191.0455 246.8478,-201.3477 253.812,-200.6412"/>
</g>
<!-- u27 -->
<g id="node19" class="node">
<title>u27</title>
<ellipse fill="#ffbbff" stroke="#000000" stroke-width="0" cx="1397.4898" cy="-938" rx="46.5926" ry="18"/>
<text text-anchor="middle" x="1397.4898" y="-934.3" font-family="Times,serif" font-size="14.00" fill="#000000">TrimDocs</text>
</g>
<!-- u15 -->
<g id="node20" class="node">
<title>u15</title>
<ellipse fill="#ffff77" stroke="#000000" stroke-width="0" cx="695.4898" cy="-938" rx="53.0913" ry="18"/>
<text text-anchor="middle" x="695.4898" y="-934.3" font-family="Times,serif" font-size="14.00" fill="#000000">UTF8String</text>
</g>
<!-- u15&#45;&gt;u19 -->
<g id="edge38" class="edge">
<title>u15&#45;&gt;u19</title>
<path fill="none" stroke="#000000" d="M695.4898,-919.6384C695.4898,-878.9713 695.4898,-781.069 695.4898,-732.4225"/>
<polygon fill="#000000" stroke="#000000" points="698.9899,-732.2763 695.4898,-722.2763 691.9899,-732.2763 698.9899,-732.2763"/>
</g>
<!-- u17 -->
<g id="node21" class="node">
<title>u17</title>
<ellipse fill="#ff7777" stroke="#000000" stroke-width="0" cx="943.4898" cy="-704" rx="50.8918" ry="18"/>
<text text-anchor="middle" x="943.4898" y="-700.3" font-family="Times,serif" font-size="14.00" fill="#000000">TimeSpace</text>
</g>
<!-- u18&#45;&gt;u0 -->
<g id="edge1" class="edge">
<title>u18&#45;&gt;u0</title>
<path fill="none" stroke="#000000" d="M800.9867,-688.5939C790.9387,-682.6443 779.2483,-675.8698 768.4898,-670 664.8465,-613.4525 621.6377,-626.2425 531.4898,-550 513.7011,-534.9553 498.2666,-513.5307 487.6501,-496.6389"/>
<polygon fill="#000000" stroke="#000000" points="490.4529,-494.512 482.2634,-487.7901 484.4737,-498.1519 490.4529,-494.512"/>
</g>
<!-- u18&#45;&gt;u4 -->
<g id="edge6" class="edge">
<title>u18&#45;&gt;u4</title>
<path fill="none" stroke="#000000" d="M843.3204,-687.0839C871.2628,-658.9188 928.8683,-600.5112 976.4898,-550 993.5142,-531.9425 1012.3894,-511.2387 1026.6811,-495.4178"/>
<polygon fill="#000000" stroke="#000000" points="1029.6062,-497.4002 1033.7029,-487.6294 1024.4072,-492.7129 1029.6062,-497.4002"/>
</g>
<!-- u18&#45;&gt;u14 -->
<g id="edge31" class="edge">
<title>u18&#45;&gt;u14</title>
<path fill="none" stroke="#000000" d="M803.0483,-688.0821C792.7996,-681.7066 780.4142,-674.7598 768.4898,-670 550.618,-583.0334 415.541,-720.5691 254.4898,-550 213.7486,-506.851 214.7362,-343.9582 221.4898,-285 224.8237,-255.8953 232.8798,-223.3526 239.1482,-200.8787"/>
<polygon fill="#000000" stroke="#000000" points="242.5852,-201.5891 241.9661,-191.0124 235.8544,-199.6667 242.5852,-201.5891"/>
</g>
<!-- u18&#45;&gt;u25 -->
<g id="edge43" class="edge">
<title>u18&#45;&gt;u25</title>
<path fill="none" stroke="#000000" d="M802.9924,-688.2198C792.7343,-681.8675 780.3569,-674.9009 768.4898,-670 571.6111,-588.693 449.3508,-706.1644 304.4898,-550 250.1318,-491.4005 252.703,-388.5142 257.6953,-339.0767"/>
<polygon fill="#000000" stroke="#000000" points="261.1782,-339.4232 258.8117,-329.0961 254.2216,-338.645 261.1782,-339.4232"/>
</g>
<!-- u19&#45;&gt;u7 -->
<g id="edge8" class="edge">
<title>u19&#45;&gt;u7</title>
<path fill="none" stroke="#000000" d="M686.5033,-686.027C666.0784,-645.1773 616.0747,-545.1698 591.9469,-496.9143"/>
<polygon fill="#000000" stroke="#000000" points="594.9495,-495.093 587.3468,-487.714 588.6885,-498.2235 594.9495,-495.093"/>
</g>
<!-- u19&#45;&gt;u3 -->
<g id="edge4" class="edge">
<title>u19&#45;&gt;u3</title>
<path fill="none" stroke="#000000" d="M709.9961,-686.412C743.8074,-645.4181 827.9659,-543.3813 867.4326,-495.5305"/>
<polygon fill="#000000" stroke="#000000" points="870.1523,-497.7337 873.8151,-487.7921 864.7521,-493.2797 870.1523,-497.7337"/>
</g>
<!-- u19&#45;&gt;u14 -->
<g id="edge32" class="edge">
<title>u19&#45;&gt;u14</title>
<path fill="none" stroke="#000000" d="M663.9146,-688.1502C651.2101,-682.0755 636.3177,-675.3302 622.4898,-670 454.0655,-605.0786 358.0805,-681.5555 234.4898,-550 152.6414,-462.877 159.7938,-401.0436 188.4898,-285 196.3262,-253.3104 214.9313,-220.6896 229.1707,-198.8865"/>
<polygon fill="#000000" stroke="#000000" points="232.1158,-200.7788 234.7681,-190.5213 226.298,-196.8859 232.1158,-200.7788"/>
</g>
<!-- u19&#45;&gt;u25 -->
<g id="edge44" class="edge">
<title>u19&#45;&gt;u25</title>
<path fill="none" stroke="#000000" d="M663.4767,-688.1759C650.8412,-682.1719 636.1127,-675.4693 622.4898,-670 468.714,-608.262 368.2206,-683.0819 269.4898,-550 222.708,-486.9416 240.6812,-386.6147 253.2645,-338.4997"/>
<polygon fill="#000000" stroke="#000000" points="256.6588,-339.356 255.9196,-328.787 249.9065,-337.5101 256.6588,-339.356"/>
</g>
<!-- u20 -->
<g id="node24" class="node">
<title>u20</title>
<ellipse fill="#ff7777" stroke="#000000" stroke-width="0" cx="582.4898" cy="-704" rx="30.5947" ry="18"/>
<text text-anchor="middle" x="582.4898" y="-700.3" font-family="Times,serif" font-size="14.00" fill="#000000">Index</text>
</g>
<!-- u21 -->
<g id="node25" class="node">
<title>u21</title>
<ellipse fill="#ff7777" stroke="#000000" stroke-width="0" cx="468.4898" cy="-704" rx="65.7887" ry="18"/>
<text text-anchor="middle" x="468.4898" y="-700.3" font-family="Times,serif" font-size="14.00" fill="#000000">StoredTimeline</text>
</g>
<!-- u22 -->
<g id="node26" class="node">
<title>u22</title>
<ellipse fill="#ff7777" stroke="#000000" stroke-width="0" cx="353.4898" cy="-704" rx="31.3957" ry="18"/>
<text text-anchor="middle" x="353.4898" y="-700.3" font-family="Times,serif" font-size="14.00" fill="#000000">Event</text>
</g>
<!-- u23 -->
<g id="node27" class="node">
<title>u23</title>
<ellipse fill="#ff7777" stroke="#000000" stroke-width="0" cx="256.4898" cy="-704" rx="47.3916" ry="18"/>
<text text-anchor="middle" x="256.4898" y="-700.3" font-family="Times,serif" font-size="14.00" fill="#000000">TimeSpan</text>
</g>
<!-- u24 -->
<g id="node28" class="node">
<title>u24</title>
<ellipse fill="#ff7777" stroke="#000000" stroke-width="0" cx="148.4898" cy="-704" rx="42.7926" ry="18"/>
<text text-anchor="middle" x="148.4898" y="-700.3" font-family="Times,serif" font-size="14.00" fill="#000000">Timeline</text>
</g>
</g>
</svg>
