<?xml version="1.0" encoding="UTF-8" standalone="no"?>
<!DOCTYPE svg PUBLIC "-//W3C//DTD SVG 1.1//EN"
 "http://www.w3.org/Graphics/SVG/1.1/DTD/svg11.dtd">
<!-- Generated by graphviz version 2.40.1 (20161225.0304)
 -->
<!-- Title: Modules Pages: 1 -->
<svg width="864pt" height="535pt"
 viewBox="0.00 0.00 864.00 534.60" xmlns="http://www.w3.org/2000/svg" xmlns:xlink="http://www.w3.org/1999/xlink">
<g id="graph0" class="graph" transform="scale(.4837 .4837) rotate(0) translate(4 1101.3333)">
<title>Modules</title>
<polygon fill="#ffffff" stroke="transparent" points="-4,4 -4,-1101.3333 1782.3952,-1101.3333 1782.3952,4 -4,4"/>
<g id="clust1" class="cluster">
<title>cluster_0</title>
<polygon fill="#000000" fill-opacity="0.058824" stroke="#000000" stroke-opacity="0.058824" points="292.8639,-258.6436 292.8639,-618.082 1627.8639,-618.082 1627.8639,-258.6436 292.8639,-258.6436"/>
<text text-anchor="middle" x="960.3639" y="-602.882" font-family="Times,serif" font-size="14.00" fill="#000000">Components</text>
</g>
<g id="clust2" class="cluster">
<title>cluster_1</title>
<polygon fill="#000000" fill-opacity="0.058824" stroke="#000000" stroke-opacity="0.058824" points="609.8639,-416.4922 609.8639,-559.1265 1303.8639,-559.1265 1303.8639,-416.4922 609.8639,-416.4922"/>
<text text-anchor="middle" x="956.8639" y="-543.9265" font-family="Times,serif" font-size="14.00" fill="#000000">Dialogs</text>
</g>
<g id="clust3" class="cluster">
<title>cluster_2</title>
<polygon fill="#000000" fill-opacity="0.058824" stroke="#000000" stroke-opacity="0.058824" points="1311.8639,-416.4922 1311.8639,-559.1265 1619.8639,-559.1265 1619.8639,-416.4922 1311.8639,-416.4922"/>
<text text-anchor="middle" x="1465.8639" y="-543.9265" font-family="Times,serif" font-size="14.00" fill="#000000">Drawers</text>
</g>
<g id="clust4" class="cluster">
<title>cluster_3</title>
<polygon fill="#000000" fill-opacity="0.058824" stroke="#000000" stroke-opacity="0.058824" points="178.8639,-121.7146 178.8639,-401.2779 284.8639,-401.2779 284.8639,-121.7146 178.8639,-121.7146"/>
<text text-anchor="middle" x="231.8639" y="-386.0779" font-family="Times,serif" font-size="14.00" fill="#000000">Plumbing</text>
</g>
<g id="clust5" class="cluster">
<title>cluster_4</title>
<polygon fill="#000000" fill-opacity="0.058824" stroke="#000000" stroke-opacity="0.058824" points="1297.8639,-880.5292 1297.8639,-1023.1635 1407.8639,-1023.1635 1407.8639,-880.5292 1297.8639,-880.5292"/>
<text text-anchor="middle" x="1352.8639" y="-1007.9635" font-family="Times,serif" font-size="14.00" fill="#000000">Scripts</text>
</g>
<g id="clust6" class="cluster">
<title>cluster_5</title>
<polygon fill="#000000" fill-opacity="0.058824" stroke="#000000" stroke-opacity="0.058824" points="413.8639,-865.3148 413.8639,-1082.119 551.8639,-1082.119 551.8639,-865.3148 413.8639,-865.3148"/>
<text text-anchor="middle" x="482.8639" y="-1066.919" font-family="Times,serif" font-size="14.00" fill="#000000">Test</text>
</g>
<g id="clust7" class="cluster">
<title>cluster_6</title>
<polygon fill="#000000" fill-opacity="0.058824" stroke="#000000" stroke-opacity="0.058824" points="421.8639,-880.5292 421.8639,-1023.1635 543.8639,-1023.1635 543.8639,-880.5292 421.8639,-880.5292"/>
<text text-anchor="middle" x="482.8639" y="-1007.9635" font-family="Times,serif" font-size="14.00" fill="#000000">QuickCheck</text>
</g>
<g id="clust8" class="cluster">
<title>cluster_7</title>
<polygon fill="#000000" fill-opacity="0.058824" stroke="#000000" stroke-opacity="0.058824" points="89.8639,-633.2964 89.8639,-850.1005 1011.8639,-850.1005 1011.8639,-633.2964 89.8639,-633.2964"/>
<text text-anchor="middle" x="550.8639" y="-834.9005" font-family="Times,serif" font-size="14.00" fill="#000000">Timeline</text>
</g>
<g id="clust9" class="cluster">
<title>cluster_8</title>
<polygon fill="#000000" fill-opacity="0.058824" stroke="#000000" stroke-opacity="0.058824" points="97.8639,-648.5107 97.8639,-791.145 1003.8639,-791.145 1003.8639,-648.5107 97.8639,-648.5107"/>
<text text-anchor="middle" x="550.8639" y="-775.945" font-family="Times,serif" font-size="14.00" fill="#000000">Data</text>
</g>
<!-- u14 -->
<g id="node1" class="node">
<title>u14</title>
<ellipse fill="#bbffbb" stroke="#000000" stroke-width="0" cx="1029.8639" cy="-930" rx="38.9931" ry="18"/>
<text text-anchor="middle" x="1029.8639" y="-926.3" font-family="Times,serif" font-size="14.00" fill="#000000">Settings</text>
</g>
<!-- u6 -->
<g id="node4" class="node">
<title>u6</title>
<ellipse fill="#ffffbb" stroke="#000000" stroke-width="0" cx="881.8639" cy="-308" rx="30.5947" ry="18"/>
<text text-anchor="middle" x="881.8639" y="-304.3" font-family="Times,serif" font-size="14.00" fill="#000000">Index</text>
</g>
<!-- u14&#45;&gt;u6 -->
<g id="edge19" class="edge">
<title>u14&#45;&gt;u6</title>
<path fill="none" stroke="#000000" d="M1065.1996,-922.0778C1235.7567,-882.3469 1956.8026,-696.4999 1736.8639,-440 1682.8719,-377.0328 1085.4427,-324.4487 922.6309,-311.2128"/>
<polygon fill="#000000" stroke="#000000" points="922.7951,-307.7147 912.5457,-310.3982 922.2314,-314.692 922.7951,-307.7147"/>
</g>
<!-- u8 -->
<g id="node6" class="node">
<title>u8</title>
<ellipse fill="#ffffbb" stroke="#000000" stroke-width="0" cx="443.8639" cy="-466" rx="37.8943" ry="18"/>
<text text-anchor="middle" x="443.8639" y="-462.3" font-family="Times,serif" font-size="14.00" fill="#000000">TopBar</text>
</g>
<!-- u14&#45;&gt;u8 -->
<g id="edge21" class="edge">
<title>u14&#45;&gt;u8</title>
<path fill="none" stroke="#000000" d="M1031.0327,-911.6555C1034.0702,-857.6872 1039.895,-700.9314 1007.8639,-664 853.4397,-485.9511 681.0261,-685.2356 490.8639,-546 473.1544,-533.0333 460.982,-511.206 453.4693,-493.6238"/>
<polygon fill="#000000" stroke="#000000" points="456.5319,-491.8545 449.5778,-483.8613 450.0295,-494.4465 456.5319,-491.8545"/>
</g>
<!-- u0 -->
<g id="node8" class="node">
<title>u0</title>
<ellipse fill="#bbbbff" stroke="#000000" stroke-width="0" cx="1241.8639" cy="-466" rx="53.8905" ry="18"/>
<text text-anchor="middle" x="1241.8639" y="-462.3" font-family="Times,serif" font-size="14.00" fill="#000000">SettingsEdit</text>
</g>
<!-- u14&#45;&gt;u0 -->
<g id="edge1" class="edge">
<title>u14&#45;&gt;u0</title>
<path fill="none" stroke="#000000" d="M1038.7341,-912.3161C1052.8409,-884.0749 1081.1181,-826.9803 1103.8639,-778 1152.3595,-673.5704 1206.7803,-547.8279 1230.1623,-493.3612"/>
<polygon fill="#000000" stroke="#000000" points="1233.4342,-494.6118 1234.1586,-484.0417 1227.0007,-491.853 1233.4342,-494.6118"/>
</g>
<!-- u2 -->
<g id="node10" class="node">
<title>u2</title>
<ellipse fill="#bbbbff" stroke="#000000" stroke-width="0" cx="1105.8639" cy="-466" rx="63.8893" ry="18"/>
<text text-anchor="middle" x="1105.8639" y="-462.3" font-family="Times,serif" font-size="14.00" fill="#000000">TimeScaleEdit</text>
</g>
<!-- u14&#45;&gt;u2 -->
<g id="edge2" class="edge">
<title>u14&#45;&gt;u2</title>
<path fill="none" stroke="#000000" d="M1037.6248,-912.1642C1049.4176,-884.1818 1071.564,-827.9894 1081.8639,-778 1103.0881,-674.9907 1105.9368,-549.3523 1106.0644,-494.2188"/>
<polygon fill="#000000" stroke="#000000" points="1109.5644,-494.1576 1106.0582,-484.1598 1102.5644,-494.162 1109.5644,-494.1576"/>
</g>
<!-- u4 -->
<g id="node12" class="node">
<title>u4</title>
<ellipse fill="#bbbbff" stroke="#000000" stroke-width="0" cx="944.8639" cy="-466" rx="79.0865" ry="18"/>
<text text-anchor="middle" x="944.8639" y="-462.3" font-family="Times,serif" font-size="14.00" fill="#000000">TimelineNameEdit</text>
</g>
<!-- u14&#45;&gt;u4 -->
<g id="edge4" class="edge">
<title>u14&#45;&gt;u4</title>
<path fill="none" stroke="#000000" d="M1034.2616,-911.945C1044.0967,-868.5314 1065.3791,-755.14 1043.8639,-664 1028.3162,-598.1392 987.3216,-529.2082 963.2403,-492.5875"/>
<polygon fill="#000000" stroke="#000000" points="965.9693,-490.3713 957.5081,-483.9948 960.1461,-494.256 965.9693,-490.3713"/>
</g>
<!-- u13 -->
<g id="node17" class="node">
<title>u13</title>
<ellipse fill="#bbffbb" stroke="#000000" stroke-width="2" cx="231.8639" cy="-171" rx="45.4919" ry="18"/>
<text text-anchor="middle" x="231.8639" y="-167.3" font-family="Times,serif" font-size="14.00" fill="#000000">Plumbing</text>
</g>
<!-- u14&#45;&gt;u13 -->
<g id="edge27" class="edge">
<title>u14&#45;&gt;u13</title>
<path fill="none" stroke="#000000" d="M991.357,-926.9419C817.8622,-912.7823 114.5326,-851.161 51.8639,-778 -103.6356,-596.4661 134.9295,-285.3448 210.2819,-195.7851"/>
<polygon fill="#000000" stroke="#000000" points="213.0403,-197.944 216.8449,-188.0559 207.7043,-193.4132 213.0403,-197.944"/>
</g>
<!-- u17 -->
<g id="node18" class="node">
<title>u17</title>
<ellipse fill="#bbffff" stroke="#000000" stroke-width="0" cx="245.8639" cy="-308" rx="31.3957" ry="18"/>
<text text-anchor="middle" x="245.8639" y="-304.3" font-family="Times,serif" font-size="14.00" fill="#000000">Logic</text>
</g>
<!-- u14&#45;&gt;u17 -->
<g id="edge36" class="edge">
<title>u14&#45;&gt;u17</title>
<path fill="none" stroke="#000000" d="M991.3193,-926.6603C822.4269,-911.6456 153.4674,-848.0635 93.8639,-778 -24.356,-639.0334 158.8938,-406.4419 224.1896,-331.8147"/>
<polygon fill="#000000" stroke="#000000" points="226.834,-334.1079 230.8371,-324.2984 221.5905,-329.4705 226.834,-334.1079"/>
</g>
<!-- u22 -->
<g id="node23" class="node">
<title>u22</title>
<ellipse fill="#ff7777" stroke="#000000" stroke-width="0" cx="482.8639" cy="-698" rx="64.189" ry="18"/>
<text text-anchor="middle" x="482.8639" y="-694.3" font-family="Times,serif" font-size="14.00" fill="#000000">TimelineName</text>
</g>
<!-- u14&#45;&gt;u22 -->
<g id="edge39" class="edge">
<title>u14&#45;&gt;u22</title>
<path fill="none" stroke="#000000" d="M992.3067,-924.7166C908.2845,-911.5236 701.1281,-871.2568 555.8639,-778 533.8363,-763.8587 514.1776,-741.4387 500.8259,-723.9264"/>
<polygon fill="#000000" stroke="#000000" points="503.5588,-721.7356 494.7953,-715.7815 497.933,-725.9011 503.5588,-721.7356"/>
</g>
<!-- u24 -->
<g id="node25" class="node">
<title>u24</title>
<ellipse fill="#ff7777" stroke="#000000" stroke-width="0" cx="692.8639" cy="-698" rx="48.9926" ry="18"/>
<text text-anchor="middle" x="692.8639" y="-694.3" font-family="Times,serif" font-size="14.00" fill="#000000">TimeScale</text>
</g>
<!-- u14&#45;&gt;u24 -->
<g id="edge41" class="edge">
<title>u14&#45;&gt;u24</title>
<path fill="none" stroke="#000000" d="M999.4878,-918.6984C945.1341,-897.4079 829.5747,-847.1973 750.8639,-778 733.4704,-762.7088 718.2923,-741.2977 707.83,-724.4737"/>
<polygon fill="#000000" stroke="#000000" points="710.6803,-722.4226 702.5187,-715.6669 704.6861,-726.0377 710.6803,-722.4226"/>
</g>
<!-- u15 -->
<g id="node2" class="node">
<title>u15</title>
<ellipse fill="#bbffbb" stroke="#000000" stroke-width="0" cx="396.8639" cy="-34" rx="29.795" ry="18"/>
<text text-anchor="middle" x="396.8639" y="-30.3" font-family="Times,serif" font-size="14.00" fill="#000000">Main</text>
</g>
<!-- u16 -->
<g id="node3" class="node">
<title>u16</title>
<ellipse fill="#bbffbb" stroke="#000000" stroke-width="0" cx="1681.8639" cy="-466" rx="46.2923" ry="18"/>
<text text-anchor="middle" x="1681.8639" y="-462.3" font-family="Times,serif" font-size="14.00" fill="#000000">WithRoot</text>
</g>
<!-- u16&#45;&gt;u6 -->
<g id="edge20" class="edge">
<title>u16&#45;&gt;u6</title>
<path fill="none" stroke="#000000" d="M1653.4904,-451.6097C1644.2304,-447.3693 1633.7772,-443.0529 1623.8639,-440 1363.4148,-359.7938 1035.6062,-322.7225 922.4477,-311.689"/>
<polygon fill="#000000" stroke="#000000" points="922.4654,-308.1746 912.1765,-310.7019 921.7958,-315.1425 922.4654,-308.1746"/>
</g>
<!-- u6&#45;&gt;u15 -->
<g id="edge31" class="edge">
<title>u6&#45;&gt;u15</title>
<path fill="none" stroke="#000000" d="M859.7641,-295.5148C781.6398,-251.3786 518.3303,-102.6223 427.7656,-51.4579"/>
<polygon fill="#000000" stroke="#000000" points="429.2437,-48.2731 418.8155,-46.4015 425.8005,-54.3677 429.2437,-48.2731"/>
</g>
<!-- u7 -->
<g id="node5" class="node">
<title>u7</title>
<ellipse fill="#ffffbb" stroke="#000000" stroke-width="0" cx="344.8639" cy="-466" rx="43.5923" ry="18"/>
<text text-anchor="middle" x="344.8639" y="-462.3" font-family="Times,serif" font-size="14.00" fill="#000000">Snackbar</text>
</g>
<!-- u7&#45;&gt;u6 -->
<g id="edge12" class="edge">
<title>u7&#45;&gt;u6</title>
<path fill="none" stroke="#000000" d="M371.1293,-451.6029C379.2319,-447.5081 388.283,-443.2759 396.8639,-440 558.0818,-378.4527 759.6314,-333.2267 843.0028,-315.8324"/>
<polygon fill="#000000" stroke="#000000" points="843.7242,-319.2573 852.8065,-313.8019 842.3045,-312.4028 843.7242,-319.2573"/>
</g>
<!-- u7&#45;&gt;u13 -->
<g id="edge26" class="edge">
<title>u7&#45;&gt;u13</title>
<path fill="none" stroke="#000000" d="M339.9987,-447.9383C330.8218,-414.6225 309.7216,-341.4665 285.8639,-282 274.0474,-252.5468 257.8323,-220.0262 246.2615,-197.8424"/>
<polygon fill="#000000" stroke="#000000" points="249.2134,-195.9361 241.4591,-188.7166 243.0188,-199.196 249.2134,-195.9361"/>
</g>
<!-- u7&#45;&gt;u17 -->
<g id="edge35" class="edge">
<title>u7&#45;&gt;u17</title>
<path fill="none" stroke="#000000" d="M333.8909,-448.4875C316.4044,-420.5798 282.1307,-365.8804 261.8948,-333.5847"/>
<polygon fill="#000000" stroke="#000000" points="264.8606,-331.7262 256.5851,-325.1106 258.9289,-335.443 264.8606,-331.7262"/>
</g>
<!-- u8&#45;&gt;u6 -->
<g id="edge13" class="edge">
<title>u8&#45;&gt;u6</title>
<path fill="none" stroke="#000000" d="M467.8353,-451.6536C475.0966,-447.6062 483.1852,-443.3871 490.8639,-440 616.4466,-384.6043 773.0412,-338.1955 843.9019,-318.3462"/>
<polygon fill="#000000" stroke="#000000" points="845.0259,-321.6664 853.7207,-315.6124 843.1484,-314.9229 845.0259,-321.6664"/>
</g>
<!-- u9 -->
<g id="node7" class="node">
<title>u9</title>
<ellipse fill="#ffffbb" stroke="#000000" stroke-width="0" cx="549.8639" cy="-466" rx="50.0912" ry="18"/>
<text text-anchor="middle" x="549.8639" y="-462.3" font-family="Times,serif" font-size="14.00" fill="#000000">BottomBar</text>
</g>
<!-- u9&#45;&gt;u6 -->
<g id="edge14" class="edge">
<title>u9&#45;&gt;u6</title>
<path fill="none" stroke="#000000" d="M580.2068,-451.5597C642.3281,-421.9959 783.5832,-354.7721 848.3214,-323.963"/>
<polygon fill="#000000" stroke="#000000" points="850.1398,-326.9738 857.6653,-319.5162 847.1317,-320.6531 850.1398,-326.9738"/>
</g>
<!-- u0&#45;&gt;u6 -->
<g id="edge6" class="edge">
<title>u0&#45;&gt;u6</title>
<path fill="none" stroke="#000000" d="M1208.9619,-451.5597C1140.9668,-421.7174 985.5395,-353.5021 916.2734,-323.102"/>
<polygon fill="#000000" stroke="#000000" points="917.2632,-319.7141 906.6996,-318.9001 914.4499,-326.124 917.2632,-319.7141"/>
</g>
<!-- u1 -->
<g id="node9" class="node">
<title>u1</title>
<ellipse fill="#bbbbff" stroke="#000000" stroke-width="0" cx="819.8639" cy="-466" rx="27.0966" ry="18"/>
<text text-anchor="middle" x="819.8639" y="-462.3" font-family="Times,serif" font-size="14.00" fill="#000000">New</text>
</g>
<!-- u1&#45;&gt;u6 -->
<g id="edge7" class="edge">
<title>u1&#45;&gt;u6</title>
<path fill="none" stroke="#000000" d="M826.7358,-448.4875C837.5362,-420.964 858.5624,-367.3812 871.296,-334.931"/>
<polygon fill="#000000" stroke="#000000" points="874.5663,-336.1784 874.9611,-325.5909 868.05,-333.6213 874.5663,-336.1784"/>
</g>
<!-- u2&#45;&gt;u6 -->
<g id="edge8" class="edge">
<title>u2&#45;&gt;u6</title>
<path fill="none" stroke="#000000" d="M1081.8919,-449.0912C1040.2032,-419.6857 954.5574,-359.2749 910.0767,-327.9001"/>
<polygon fill="#000000" stroke="#000000" points="911.9438,-324.934 901.7547,-322.0301 907.909,-330.6542 911.9438,-324.934"/>
</g>
<!-- u3 -->
<g id="node11" class="node">
<title>u3</title>
<ellipse fill="#bbbbff" stroke="#000000" stroke-width="0" cx="651.8639" cy="-466" rx="34.394" ry="18"/>
<text text-anchor="middle" x="651.8639" y="-462.3" font-family="Times,serif" font-size="14.00" fill="#000000">Export</text>
</g>
<!-- u3&#45;&gt;u6 -->
<g id="edge9" class="edge">
<title>u3&#45;&gt;u6</title>
<path fill="none" stroke="#000000" d="M673.0895,-451.4189C714.5659,-422.9264 806.3977,-359.842 853.2142,-327.681"/>
<polygon fill="#000000" stroke="#000000" points="855.4189,-330.4129 861.6796,-321.8657 851.4553,-324.6431 855.4189,-330.4129"/>
</g>
<!-- u3&#45;&gt;u13 -->
<g id="edge24" class="edge">
<title>u3&#45;&gt;u13</title>
<path fill="none" stroke="#000000" d="M642.0634,-448.6023C621.0877,-412.7842 568.4571,-330.1362 503.8639,-282 434.8063,-230.5369 338.5066,-198.6703 280.9498,-182.9391"/>
<polygon fill="#000000" stroke="#000000" points="281.5807,-179.4848 271.0157,-180.2792 279.7702,-186.2466 281.5807,-179.4848"/>
</g>
<!-- u3&#45;&gt;u17 -->
<g id="edge33" class="edge">
<title>u3&#45;&gt;u17</title>
<path fill="none" stroke="#000000" d="M631.9472,-450.968C626.2833,-447.0873 619.9861,-443.127 613.8639,-440 499.4492,-381.5606 353.0447,-337.3763 284.506,-318.3155"/>
<polygon fill="#000000" stroke="#000000" points="285.1517,-314.8631 274.5812,-315.5802 283.2918,-321.6114 285.1517,-314.8631"/>
</g>
<!-- u4&#45;&gt;u6 -->
<g id="edge10" class="edge">
<title>u4&#45;&gt;u6</title>
<path fill="none" stroke="#000000" d="M937.637,-447.8754C926.6238,-420.255 905.5664,-367.4443 892.7122,-335.2068"/>
<polygon fill="#000000" stroke="#000000" points="895.9614,-333.9057 889.0065,-325.9132 889.4592,-336.4984 895.9614,-333.9057"/>
</g>
<!-- u5 -->
<g id="node13" class="node">
<title>u5</title>
<ellipse fill="#bbbbff" stroke="#000000" stroke-width="0" cx="739.8639" cy="-466" rx="35.194" ry="18"/>
<text text-anchor="middle" x="739.8639" y="-462.3" font-family="Times,serif" font-size="14.00" fill="#000000">Import</text>
</g>
<!-- u5&#45;&gt;u6 -->
<g id="edge11" class="edge">
<title>u5&#45;&gt;u6</title>
<path fill="none" stroke="#000000" d="M754.792,-449.3899C780.1305,-421.1963 831.6283,-363.8959 860.6842,-331.5661"/>
<polygon fill="#000000" stroke="#000000" points="863.4769,-333.6948 867.5582,-323.9176 858.2705,-329.0157 863.4769,-333.6948"/>
</g>
<!-- u5&#45;&gt;u13 -->
<g id="edge25" class="edge">
<title>u5&#45;&gt;u13</title>
<path fill="none" stroke="#000000" d="M727.1015,-448.9834C699.3936,-413.1534 630.0616,-329.3463 553.8639,-282 466.3205,-227.604 348.7149,-195.8234 282.5674,-181.0791"/>
<polygon fill="#000000" stroke="#000000" points="283.3152,-177.66 272.7982,-178.9423 281.8194,-184.4983 283.3152,-177.66"/>
</g>
<!-- u5&#45;&gt;u17 -->
<g id="edge34" class="edge">
<title>u5&#45;&gt;u17</title>
<path fill="none" stroke="#000000" d="M717.5156,-451.6865C710.4511,-447.5478 702.4935,-443.2702 694.8639,-440 549.2422,-377.585 364.9568,-333.6684 285.3957,-316.282"/>
<polygon fill="#000000" stroke="#000000" points="285.8398,-312.7972 275.3256,-314.1014 284.3583,-319.6386 285.8398,-312.7972"/>
</g>
<!-- u10 -->
<g id="node14" class="node">
<title>u10</title>
<ellipse fill="#ffbbbb" stroke="#000000" stroke-width="0" cx="1569.8639" cy="-466" rx="41.6928" ry="18"/>
<text text-anchor="middle" x="1569.8639" y="-462.3" font-family="Times,serif" font-size="14.00" fill="#000000">Children</text>
</g>
<!-- u10&#45;&gt;u6 -->
<g id="edge15" class="edge">
<title>u10&#45;&gt;u6</title>
<path fill="none" stroke="#000000" d="M1544.7712,-451.5274C1536.699,-447.3331 1527.5839,-443.064 1518.8639,-440 1300.9487,-363.4312 1024.6722,-324.9575 922.3558,-312.5789"/>
<polygon fill="#000000" stroke="#000000" points="922.5012,-309.0715 912.157,-311.3622 921.672,-316.0222 922.5012,-309.0715"/>
</g>
<!-- u11 -->
<g id="node15" class="node">
<title>u11</title>
<ellipse fill="#ffbbbb" stroke="#000000" stroke-width="0" cx="1463.8639" cy="-466" rx="46.2923" ry="18"/>
<text text-anchor="middle" x="1463.8639" y="-462.3" font-family="Times,serif" font-size="14.00" fill="#000000">Timelines</text>
</g>
<!-- u11&#45;&gt;u6 -->
<g id="edge16" class="edge">
<title>u11&#45;&gt;u6</title>
<path fill="none" stroke="#000000" d="M1436.0505,-451.5544C1427.4792,-447.458 1417.9136,-443.237 1408.8639,-440 1231.3897,-376.5194 1009.8606,-331.711 921.2023,-315.1059"/>
<polygon fill="#000000" stroke="#000000" points="921.7784,-311.6531 911.3072,-313.2667 920.4992,-318.5352 921.7784,-311.6531"/>
</g>
<!-- u12 -->
<g id="node16" class="node">
<title>u12</title>
<ellipse fill="#ffbbbb" stroke="#000000" stroke-width="0" cx="1359.8639" cy="-466" rx="39.7935" ry="18"/>
<text text-anchor="middle" x="1359.8639" y="-462.3" font-family="Times,serif" font-size="14.00" fill="#000000">Siblings</text>
</g>
<!-- u12&#45;&gt;u6 -->
<g id="edge17" class="edge">
<title>u12&#45;&gt;u6</title>
<path fill="none" stroke="#000000" d="M1334.3245,-452.1918C1326.017,-447.9825 1316.6675,-443.5374 1307.8639,-440 1168.3991,-383.9622 995.496,-337.0106 920.0564,-317.5865"/>
<polygon fill="#000000" stroke="#000000" points="920.6276,-314.12 910.072,-315.0303 918.8914,-320.9013 920.6276,-314.12"/>
</g>
<!-- u13&#45;&gt;u15 -->
<g id="edge32" class="edge">
<title>u13&#45;&gt;u15</title>
<path fill="none" stroke="#000000" d="M251.4395,-154.7463C281.1864,-130.0473 337.8052,-83.0366 370.9383,-55.5261"/>
<polygon fill="#000000" stroke="#000000" points="373.3675,-58.0583 378.8253,-48.9774 368.8958,-52.6728 373.3675,-58.0583"/>
</g>
<!-- u13&#45;&gt;u6 -->
<g id="edge18" class="edge">
<title>u13&#45;&gt;u6</title>
<path fill="none" stroke="#000000" d="M272.2308,-179.5081C389.2823,-204.179 727.8147,-275.5312 842.9766,-299.8038"/>
<polygon fill="#000000" stroke="#000000" points="842.5886,-303.2988 853.0955,-301.9365 844.0323,-296.4493 842.5886,-303.2988"/>
</g>
<!-- u17&#45;&gt;u13 -->
<g id="edge28" class="edge">
<title>u17&#45;&gt;u13</title>
<path fill="none" stroke="#000000" d="M244.0048,-289.8075C241.6409,-266.675 237.5337,-226.4836 234.7583,-199.3242"/>
<polygon fill="#000000" stroke="#000000" points="238.2292,-198.8601 233.7306,-189.2678 231.2655,-199.5718 238.2292,-198.8601"/>
</g>
<!-- u18 -->
<g id="node19" class="node">
<title>u18</title>
<ellipse fill="#ffbbff" stroke="#000000" stroke-width="0" cx="1352.8639" cy="-930" rx="46.5926" ry="18"/>
<text text-anchor="middle" x="1352.8639" y="-926.3" font-family="Times,serif" font-size="14.00" fill="#000000">TrimDocs</text>
</g>
<!-- u19 -->
<g id="node20" class="node">
<title>u19</title>
<ellipse fill="#ffff77" stroke="#000000" stroke-width="0" cx="482.8639" cy="-930" rx="53.0913" ry="18"/>
<text text-anchor="middle" x="482.8639" y="-926.3" font-family="Times,serif" font-size="14.00" fill="#000000">UTF8String</text>
</g>
<!-- u19&#45;&gt;u22 -->
<g id="edge40" class="edge">
<title>u19&#45;&gt;u22</title>
<path fill="none" stroke="#000000" d="M482.8639,-911.7953C482.8639,-871.4758 482.8639,-774.4103 482.8639,-726.1795"/>
<polygon fill="#000000" stroke="#000000" points="486.364,-726.12 482.8639,-716.1201 479.364,-726.1201 486.364,-726.12"/>
</g>
<!-- u20 -->
<g id="node21" class="node">
<title>u20</title>
<ellipse fill="#ff7777" stroke="#000000" stroke-width="0" cx="929.8639" cy="-698" rx="65.7887" ry="18"/>
<text text-anchor="middle" x="929.8639" y="-694.3" font-family="Times,serif" font-size="14.00" fill="#000000">StoredTimeline</text>
</g>
<!-- u21 -->
<g id="node22" class="node">
<title>u21</title>
<ellipse fill="#ff7777" stroke="#000000" stroke-width="0" cx="802.8639" cy="-698" rx="42.7926" ry="18"/>
<text text-anchor="middle" x="802.8639" y="-694.3" font-family="Times,serif" font-size="14.00" fill="#000000">Timeline</text>
</g>
<!-- u22&#45;&gt;u8 -->
<g id="edge22" class="edge">
<title>u22&#45;&gt;u8</title>
<path fill="none" stroke="#000000" d="M479.8036,-679.7953C473.0258,-639.4758 456.7087,-542.4103 448.6009,-494.1795"/>
<polygon fill="#000000" stroke="#000000" points="452.0193,-493.4015 446.9099,-484.1201 445.1162,-494.562 452.0193,-493.4015"/>
</g>
<!-- u22&#45;&gt;u4 -->
<g id="edge5" class="edge">
<title>u22&#45;&gt;u4</title>
<path fill="none" stroke="#000000" d="M515.3773,-682.3383C527.9486,-676.4195 542.5019,-669.7332 555.8639,-664 687.5322,-607.5053 733.9776,-621.3123 855.8639,-546 880.387,-530.8474 904.4717,-508.6195 921.3894,-491.437"/>
<polygon fill="#000000" stroke="#000000" points="924.2013,-493.564 928.6339,-483.941 919.1677,-488.6994 924.2013,-493.564"/>
</g>
<!-- u22&#45;&gt;u13 -->
<g id="edge29" class="edge">
<title>u22&#45;&gt;u13</title>
<path fill="none" stroke="#000000" d="M449.8986,-682.3984C370.8831,-644.9292 176.902,-552.4775 172.8639,-546 110.7907,-446.4308 144.4863,-395.85 172.8639,-282 180.669,-250.6859 199.1433,-218.5114 213.3566,-196.9189"/>
<polygon fill="#000000" stroke="#000000" points="216.4495,-198.5928 219.1436,-188.3462 210.6477,-194.6763 216.4495,-198.5928"/>
</g>
<!-- u22&#45;&gt;u17 -->
<g id="edge37" class="edge">
<title>u22&#45;&gt;u17</title>
<path fill="none" stroke="#000000" d="M452.4641,-681.8513C396.5656,-651.4804 281.1271,-585.3767 258.8639,-546 220.7909,-478.6608 231.3898,-382.758 239.8792,-335.915"/>
<polygon fill="#000000" stroke="#000000" points="243.354,-336.3786 241.8007,-325.8983 236.4794,-335.0599 243.354,-336.3786"/>
</g>
<!-- u23 -->
<g id="node24" class="node">
<title>u23</title>
<ellipse fill="#ff7777" stroke="#000000" stroke-width="0" cx="595.8639" cy="-698" rx="30.5947" ry="18"/>
<text text-anchor="middle" x="595.8639" y="-694.3" font-family="Times,serif" font-size="14.00" fill="#000000">Index</text>
</g>
<!-- u24&#45;&gt;u9 -->
<g id="edge23" class="edge">
<title>u24&#45;&gt;u9</title>
<path fill="none" stroke="#000000" d="M681.8803,-680.1806C656.8738,-639.6106 595.5913,-540.1872 566.1601,-492.4387"/>
<polygon fill="#000000" stroke="#000000" points="569.1115,-490.5564 560.8848,-483.8801 563.1525,-494.2295 569.1115,-490.5564"/>
</g>
<!-- u24&#45;&gt;u2 -->
<g id="edge3" class="edge">
<title>u24&#45;&gt;u2</title>
<path fill="none" stroke="#000000" d="M717.8668,-682.3548C727.9492,-676.3083 739.7955,-669.5288 750.8639,-664 872.4074,-603.2873 921.7932,-624.2443 1032.8639,-546 1054.1312,-531.0181 1073.7336,-508.8623 1087.2584,-491.6634"/>
<polygon fill="#000000" stroke="#000000" points="1090.0797,-493.736 1093.3903,-483.6717 1084.5261,-489.4748 1090.0797,-493.736"/>
</g>
<!-- u24&#45;&gt;u13 -->
<g id="edge30" class="edge">
<title>u24&#45;&gt;u13</title>
<path fill="none" stroke="#000000" d="M669.125,-682.1514C659.139,-675.9362 647.2199,-669.0896 635.8639,-664 476.4221,-592.54 383.0658,-670.8795 260.8639,-546 177.0386,-460.338 192.1061,-401.0603 205.8639,-282 209.1785,-253.3148 217.1596,-221.2737 223.4117,-199.0183"/>
<polygon fill="#000000" stroke="#000000" points="226.8256,-199.8109 226.2267,-189.233 220.0984,-197.8757 226.8256,-199.8109"/>
</g>
<!-- u24&#45;&gt;u17 -->
<g id="edge38" class="edge">
<title>u24&#45;&gt;u17</title>
<path fill="none" stroke="#000000" d="M669.0658,-682.2816C659.0707,-676.0863 647.1608,-669.2195 635.8639,-664 487.9891,-595.6774 395.1527,-669.4407 288.8639,-546 275.2908,-530.2367 256.9652,-396.2659 249.3779,-336.5387"/>
<polygon fill="#000000" stroke="#000000" points="252.8102,-335.7806 248.0897,-326.2955 245.8649,-336.6541 252.8102,-335.7806"/>
</g>
<!-- u25 -->
<g id="node26" class="node">
<title>u25</title>
<ellipse fill="#ff7777" stroke="#000000" stroke-width="0" cx="368.8639" cy="-698" rx="31.3957" ry="18"/>
<text text-anchor="middle" x="368.8639" y="-694.3" font-family="Times,serif" font-size="14.00" fill="#000000">Event</text>
</g>
<!-- u26 -->
<g id="node27" class="node">
<title>u26</title>
<ellipse fill="#ff7777" stroke="#000000" stroke-width="0" cx="268.8639" cy="-698" rx="50.8918" ry="18"/>
<text text-anchor="middle" x="268.8639" y="-694.3" font-family="Times,serif" font-size="14.00" fill="#000000">TimeSpace</text>
</g>
<!-- u27 -->
<g id="node28" class="node">
<title>u27</title>
<ellipse fill="#ff7777" stroke="#000000" stroke-width="0" cx="152.8639" cy="-698" rx="47.3916" ry="18"/>
<text text-anchor="middle" x="152.8639" y="-694.3" font-family="Times,serif" font-size="14.00" fill="#000000">TimeSpan</text>
</g>
</g>
</svg>
