<?xml version="1.0" encoding="UTF-8" standalone="no"?>
<!DOCTYPE svg PUBLIC "-//W3C//DTD SVG 1.1//EN"
 "http://www.w3.org/Graphics/SVG/1.1/DTD/svg11.dtd">
<!-- Generated by graphviz version 2.40.1 (20161225.0304)
 -->
<!-- Title: Modules Pages: 1 -->
<svg width="864pt" height="515pt"
 viewBox="0.00 0.00 864.00 514.94" xmlns="http://www.w3.org/2000/svg" xmlns:xlink="http://www.w3.org/1999/xlink">
<g id="graph0" class="graph" transform="scale(.3788 .3788) rotate(0) translate(4 1355.3333)">
<title>Modules</title>
<polygon fill="#ffffff" stroke="transparent" points="-4,4 -4,-1355.3333 2276.791,-1355.3333 2276.791,4 -4,4"/>
<g id="clust1" class="cluster">
<title>cluster_0</title>
<polygon fill="#000000" fill-opacity="0.058824" stroke="#000000" stroke-opacity="0.058824" points="311.2609,-341.601 311.2609,-816.3259 2114.2609,-816.3259 2114.2609,-341.601 311.2609,-341.601"/>
<text text-anchor="middle" x="1212.7609" y="-801.1259" font-family="Times,serif" font-size="14.00" fill="#000000">Components</text>
</g>
<g id="clust2" class="cluster">
<title>cluster_1</title>
<polygon fill="#000000" fill-opacity="0.058824" stroke="#000000" stroke-opacity="0.058824" points="629.2609,-550.0781 629.2609,-738.461 1791.2609,-738.461 1791.2609,-550.0781 629.2609,-550.0781"/>
<text text-anchor="middle" x="1210.2609" y="-723.261" font-family="Times,serif" font-size="14.00" fill="#000000">Dialogs</text>
</g>
<g id="clust3" class="cluster">
<title>cluster_2</title>
<polygon fill="#000000" fill-opacity="0.058824" stroke="#000000" stroke-opacity="0.058824" points="1799.2609,-550.0781 1799.2609,-738.461 2106.2609,-738.461 2106.2609,-550.0781 1799.2609,-550.0781"/>
<text text-anchor="middle" x="1952.7609" y="-723.261" font-family="Times,serif" font-size="14.00" fill="#000000">Drawers</text>
</g>
<g id="clust4" class="cluster">
<title>cluster_3</title>
<polygon fill="#000000" fill-opacity="0.058824" stroke="#000000" stroke-opacity="0.058824" points="1638.2609,-856.5143 1638.2609,-1044.8971 1754.2609,-1044.8971 1754.2609,-856.5143 1638.2609,-856.5143"/>
<text text-anchor="middle" x="1696.2609" y="-1029.6971" font-family="Times,serif" font-size="14.00" fill="#000000">MaterialUI</text>
</g>
<g id="clust5" class="cluster">
<title>cluster_4</title>
<polygon fill="#000000" fill-opacity="0.058824" stroke="#000000" stroke-opacity="0.058824" points="197.2609,-160.7534 197.2609,-529.9839 303.2609,-529.9839 303.2609,-160.7534 197.2609,-160.7534"/>
<text text-anchor="middle" x="250.2609" y="-514.7839" font-family="Times,serif" font-size="14.00" fill="#000000">Plumbing</text>
</g>
<g id="clust6" class="cluster">
<title>cluster_5</title>
<polygon fill="#000000" fill-opacity="0.058824" stroke="#000000" stroke-opacity="0.058824" points="1704.2609,-1142.8563 1704.2609,-1331.2392 1814.2609,-1331.2392 1814.2609,-1142.8563 1704.2609,-1142.8563"/>
<text text-anchor="middle" x="1759.2609" y="-1316.0392" font-family="Times,serif" font-size="14.00" fill="#000000">Scripts</text>
</g>
<g id="clust7" class="cluster">
<title>cluster_6</title>
<polygon fill="#000000" fill-opacity="0.058824" stroke="#000000" stroke-opacity="0.058824" points="195.2609,-836.4201 195.2609,-1122.7621 1313.2609,-1122.7621 1313.2609,-836.4201 195.2609,-836.4201"/>
<text text-anchor="middle" x="754.2609" y="-1107.5621" font-family="Times,serif" font-size="14.00" fill="#000000">Timeline</text>
</g>
<g id="clust8" class="cluster">
<title>cluster_7</title>
<polygon fill="#000000" fill-opacity="0.058824" stroke="#000000" stroke-opacity="0.058824" points="203.2609,-856.5143 203.2609,-1044.8971 1305.2609,-1044.8971 1305.2609,-856.5143 203.2609,-856.5143"/>
<text text-anchor="middle" x="754.2609" y="-1029.6971" font-family="Times,serif" font-size="14.00" fill="#000000">UI</text>
</g>
<!-- u17 -->
<g id="node1" class="node">
<title>u17</title>
<ellipse fill="#bbffbb" stroke="#000000" stroke-width="0" cx="1437.2609" cy="-1208" rx="38.9931" ry="18"/>
<text text-anchor="middle" x="1437.2609" y="-1204.3" font-family="Times,serif" font-size="14.00" fill="#000000">Settings</text>
</g>
<!-- u9 -->
<g id="node4" class="node">
<title>u9</title>
<ellipse fill="#ffffbb" stroke="#000000" stroke-width="0" cx="1075.2609" cy="-407" rx="30.5947" ry="18"/>
<text text-anchor="middle" x="1075.2609" y="-403.3" font-family="Times,serif" font-size="14.00" fill="#000000">Index</text>
</g>
<!-- u17&#45;&gt;u9 -->
<g id="edge23" class="edge">
<title>u17&#45;&gt;u9</title>
<path fill="none" stroke="#000000" d="M1470.853,-1198.7228C1650.617,-1147.5588 2481.2806,-891.1478 2223.2609,-589 2149.2318,-502.3101 1311.4462,-426.8577 1115.8961,-410.3475"/>
<polygon fill="#000000" stroke="#000000" points="1116.0213,-406.8458 1105.7634,-409.4963 1115.4353,-413.8212 1116.0213,-406.8458"/>
</g>
<!-- u11 -->
<g id="node6" class="node">
<title>u11</title>
<ellipse fill="#ffffbb" stroke="#000000" stroke-width="0" cx="581.2609" cy="-615" rx="37.8943" ry="18"/>
<text text-anchor="middle" x="581.2609" y="-611.3" font-family="Times,serif" font-size="14.00" fill="#000000">TopBar</text>
</g>
<!-- u17&#45;&gt;u11 -->
<g id="edge25" class="edge">
<title>u17&#45;&gt;u11</title>
<path fill="none" stroke="#000000" d="M1430.6078,-1190.1159C1406.0667,-1124.3188 1321.4099,-898.9306 1309.2609,-888 1074.4421,-676.7324 872.5553,-891.5179 625.2609,-695 608.4554,-681.6452 597.1172,-660.0329 590.1647,-642.6366"/>
<polygon fill="#000000" stroke="#000000" points="593.3375,-641.127 586.5698,-632.9754 586.777,-643.5682 593.3375,-641.127"/>
</g>
<!-- u0 -->
<g id="node8" class="node">
<title>u0</title>
<ellipse fill="#bbbbff" stroke="#000000" stroke-width="0" cx="1537.2609" cy="-615" rx="53.8905" ry="18"/>
<text text-anchor="middle" x="1537.2609" y="-611.3" font-family="Times,serif" font-size="14.00" fill="#000000">SettingsEdit</text>
</g>
<!-- u17&#45;&gt;u0 -->
<g id="edge1" class="edge">
<title>u17&#45;&gt;u0</title>
<path fill="none" stroke="#000000" d="M1440.3083,-1189.9289C1454.5978,-1105.1921 1515.0035,-746.9863 1532.4961,-643.2547"/>
<polygon fill="#000000" stroke="#000000" points="1535.9765,-643.6641 1534.1881,-633.2213 1529.0739,-642.5 1535.9765,-643.6641"/>
</g>
<!-- u4 -->
<g id="node12" class="node">
<title>u4</title>
<ellipse fill="#bbbbff" stroke="#000000" stroke-width="0" cx="1130.2609" cy="-615" rx="63.8893" ry="18"/>
<text text-anchor="middle" x="1130.2609" y="-611.3" font-family="Times,serif" font-size="14.00" fill="#000000">TimeScaleEdit</text>
</g>
<!-- u17&#45;&gt;u4 -->
<g id="edge3" class="edge">
<title>u17&#45;&gt;u4</title>
<path fill="none" stroke="#000000" d="M1436.0082,-1190.0081C1431.8996,-1139.6832 1415.8556,-994.2168 1362.2609,-888 1347.9482,-859.6344 1208.6891,-702.6363 1153.0531,-640.4116"/>
<polygon fill="#000000" stroke="#000000" points="1155.3605,-637.7416 1146.0838,-632.6237 1150.1442,-642.4096 1155.3605,-637.7416"/>
</g>
<!-- u5 -->
<g id="node13" class="node">
<title>u5</title>
<ellipse fill="#bbbbff" stroke="#000000" stroke-width="0" cx="1696.2609" cy="-615" rx="87.1846" ry="18"/>
<text text-anchor="middle" x="1696.2609" y="-611.3" font-family="Times,serif" font-size="14.00" fill="#000000">TimeSpaceNameEdit</text>
</g>
<!-- u17&#45;&gt;u5 -->
<g id="edge5" class="edge">
<title>u17&#45;&gt;u5</title>
<path fill="none" stroke="#000000" d="M1445.0122,-1190.2527C1481.8712,-1105.8613 1639.4799,-745.0044 1684.3177,-642.3447"/>
<polygon fill="#000000" stroke="#000000" points="1687.6181,-643.5327 1688.4132,-632.9677 1681.2032,-640.7309 1687.6181,-643.5327"/>
</g>
<!-- u13 -->
<g id="node17" class="node">
<title>u13</title>
<ellipse fill="#ffbbbb" stroke="#000000" stroke-width="0" cx="1946.2609" cy="-615" rx="41.6928" ry="18"/>
<text text-anchor="middle" x="1946.2609" y="-611.3" font-family="Times,serif" font-size="14.00" fill="#000000">Children</text>
</g>
<!-- u17&#45;&gt;u13 -->
<g id="edge28" class="edge">
<title>u17&#45;&gt;u13</title>
<path fill="none" stroke="#000000" d="M1466.2821,-1195.9632C1527.5144,-1169.2982 1671.4156,-1099.7821 1758.2609,-1002 1859.0191,-888.5528 1918.2455,-711.4796 1938.4105,-643.1822"/>
<polygon fill="#000000" stroke="#000000" points="1941.887,-643.7604 1941.3118,-633.1812 1935.1641,-641.81 1941.887,-643.7604"/>
</g>
<!-- u14 -->
<g id="node18" class="node">
<title>u14</title>
<ellipse fill="#ffbbbb" stroke="#000000" stroke-width="0" cx="2052.2609" cy="-615" rx="46.2923" ry="18"/>
<text text-anchor="middle" x="2052.2609" y="-611.3" font-family="Times,serif" font-size="14.00" fill="#000000">Timelines</text>
</g>
<!-- u17&#45;&gt;u14 -->
<g id="edge29" class="edge">
<title>u17&#45;&gt;u14</title>
<path fill="none" stroke="#000000" d="M1468.2486,-1197.0255C1536.5454,-1171.6215 1702.4301,-1103.115 1809.2609,-1002 1927.0583,-890.505 2011.688,-710.2702 2040.997,-642.1987"/>
<polygon fill="#000000" stroke="#000000" points="2044.2203,-643.5626 2044.9173,-632.9907 2037.7797,-640.8205 2044.2203,-643.5626"/>
</g>
<!-- u15 -->
<g id="node19" class="node">
<title>u15</title>
<ellipse fill="#ffbbbb" stroke="#000000" stroke-width="0" cx="1847.2609" cy="-615" rx="39.7935" ry="18"/>
<text text-anchor="middle" x="1847.2609" y="-611.3" font-family="Times,serif" font-size="14.00" fill="#000000">Siblings</text>
</g>
<!-- u17&#45;&gt;u15 -->
<g id="edge30" class="edge">
<title>u17&#45;&gt;u15</title>
<path fill="none" stroke="#000000" d="M1448.118,-1190.6796C1470.2713,-1155.305 1522.226,-1072.1713 1565.2609,-1002 1596.2233,-951.5135 1599.8606,-936.2098 1634.2609,-888 1699.144,-797.0703 1728.927,-784.8768 1795.2609,-695 1808.0887,-677.6193 1821.3409,-657.187 1831.2565,-641.3222"/>
<polygon fill="#000000" stroke="#000000" points="1834.3896,-642.9108 1836.6806,-632.5666 1828.4389,-639.2243 1834.3896,-642.9108"/>
</g>
<!-- u16 -->
<g id="node21" class="node">
<title>u16</title>
<ellipse fill="#bbffbb" stroke="#000000" stroke-width="2" cx="250.2609" cy="-226" rx="45.4919" ry="18"/>
<text text-anchor="middle" x="250.2609" y="-222.3" font-family="Times,serif" font-size="14.00" fill="#000000">Plumbing</text>
</g>
<!-- u17&#45;&gt;u16 -->
<g id="edge34" class="edge">
<title>u17&#45;&gt;u16</title>
<path fill="none" stroke="#000000" d="M1398.0065,-1207.543C1201.6466,-1204.4335 328.0491,-1180.6075 141.2609,-1002 -58.7431,-810.7556 -20.1633,-632.0407 96.2609,-381 123.2253,-322.8577 181.6762,-273.9469 218.3076,-247.4077"/>
<polygon fill="#000000" stroke="#000000" points="220.5473,-250.1099 226.6695,-241.463 216.4913,-244.4047 220.5473,-250.1099"/>
</g>
<!-- u20 -->
<g id="node22" class="node">
<title>u20</title>
<ellipse fill="#ffbbff" stroke="#000000" stroke-width="0" cx="264.2609" cy="-407" rx="31.3957" ry="18"/>
<text text-anchor="middle" x="264.2609" y="-403.3" font-family="Times,serif" font-size="14.00" fill="#000000">Logic</text>
</g>
<!-- u17&#45;&gt;u20 -->
<g id="edge44" class="edge">
<title>u17&#45;&gt;u20</title>
<path fill="none" stroke="#000000" d="M1398.9518,-1204.5466C1198.8216,-1186.129 279.5497,-1096.7527 199.2609,-1002 53.9271,-830.4848 200.6562,-523.9239 249.6024,-433.0627"/>
<polygon fill="#000000" stroke="#000000" points="252.6978,-434.697 254.4143,-424.2421 246.5527,-431.3446 252.6978,-434.697"/>
</g>
<!-- u26 -->
<g id="node27" class="node">
<title>u26</title>
<ellipse fill="#7777ff" stroke="#000000" stroke-width="0" cx="971.2609" cy="-922" rx="72.2875" ry="18"/>
<text text-anchor="middle" x="971.2609" y="-918.3" font-family="Times,serif" font-size="14.00" fill="#000000">TimeSpaceName</text>
</g>
<!-- u17&#45;&gt;u26 -->
<g id="edge47" class="edge">
<title>u17&#45;&gt;u26</title>
<path fill="none" stroke="#000000" d="M1408.0715,-1195.8684C1341.4697,-1167.4671 1174.6037,-1092.1887 1052.2609,-1002 1030.5222,-985.9747 1008.9134,-964.2652 993.4891,-947.5048"/>
<polygon fill="#000000" stroke="#000000" points="995.7472,-944.7842 986.4404,-939.7211 990.5586,-949.4829 995.7472,-944.7842"/>
</g>
<!-- u28 -->
<g id="node29" class="node">
<title>u28</title>
<ellipse fill="#7777ff" stroke="#000000" stroke-width="0" cx="572.2609" cy="-922" rx="48.9926" ry="18"/>
<text text-anchor="middle" x="572.2609" y="-918.3" font-family="Times,serif" font-size="14.00" fill="#000000">TimeScale</text>
</g>
<!-- u17&#45;&gt;u28 -->
<g id="edge48" class="edge">
<title>u17&#45;&gt;u28</title>
<path fill="none" stroke="#000000" d="M1400.1818,-1202.0286C1259.5156,-1178.8536 760.1794,-1091.6972 629.2609,-1002 609.9123,-988.7436 594.9019,-966.6413 585.1527,-949.0237"/>
<polygon fill="#000000" stroke="#000000" points="588.0415,-946.9979 580.2837,-939.7822 581.8485,-950.2609 588.0415,-946.9979"/>
</g>
<!-- u18 -->
<g id="node2" class="node">
<title>u18</title>
<ellipse fill="#bbffbb" stroke="#000000" stroke-width="0" cx="286.2609" cy="-45" rx="29.795" ry="18"/>
<text text-anchor="middle" x="286.2609" y="-41.3" font-family="Times,serif" font-size="14.00" fill="#000000">Main</text>
</g>
<!-- u19 -->
<g id="node3" class="node">
<title>u19</title>
<ellipse fill="#bbffbb" stroke="#000000" stroke-width="0" cx="2168.2609" cy="-615" rx="46.2923" ry="18"/>
<text text-anchor="middle" x="2168.2609" y="-611.3" font-family="Times,serif" font-size="14.00" fill="#000000">WithRoot</text>
</g>
<!-- u19&#45;&gt;u9 -->
<g id="edge24" class="edge">
<title>u19&#45;&gt;u9</title>
<path fill="none" stroke="#000000" d="M2139.891,-600.5978C2130.6313,-596.3568 2120.1773,-592.043 2110.2609,-589 1733.7362,-473.458 1256.2469,-423.3615 1115.8185,-410.4963"/>
<polygon fill="#000000" stroke="#000000" points="1115.8119,-406.9814 1105.5371,-409.5661 1115.1811,-413.953 1115.8119,-406.9814"/>
</g>
<!-- u9&#45;&gt;u18 -->
<g id="edge39" class="edge">
<title>u9&#45;&gt;u18</title>
<path fill="none" stroke="#000000" d="M1050.7825,-395.7691C935.9576,-343.0865 450.7866,-120.4858 319.2653,-60.1427"/>
<polygon fill="#000000" stroke="#000000" points="320.6157,-56.9115 310.0671,-55.9225 317.6966,-63.2739 320.6157,-56.9115"/>
</g>
<!-- u10 -->
<g id="node5" class="node">
<title>u10</title>
<ellipse fill="#ffffbb" stroke="#000000" stroke-width="0" cx="363.2609" cy="-615" rx="43.5923" ry="18"/>
<text text-anchor="middle" x="363.2609" y="-611.3" font-family="Times,serif" font-size="14.00" fill="#000000">Snackbar</text>
</g>
<!-- u10&#45;&gt;u9 -->
<g id="edge16" class="edge">
<title>u10&#45;&gt;u9</title>
<path fill="none" stroke="#000000" d="M390.0642,-600.6449C398.3238,-596.5516 407.5413,-592.3096 416.2609,-589 645.3114,-502.0608 933.42,-436.9987 1036.4425,-415.055"/>
<polygon fill="#000000" stroke="#000000" points="1037.3345,-418.4438 1046.3921,-412.9476 1035.8839,-411.5957 1037.3345,-418.4438"/>
</g>
<!-- u10&#45;&gt;u16 -->
<g id="edge33" class="edge">
<title>u10&#45;&gt;u16</title>
<path fill="none" stroke="#000000" d="M359.2811,-596.9448C350.4562,-557.4751 328.1306,-460.6653 304.2609,-381 290.7401,-335.8745 272.1637,-284.3945 260.6991,-253.5839"/>
<polygon fill="#000000" stroke="#000000" points="263.8833,-252.1063 257.1014,-243.9666 257.3271,-254.559 263.8833,-252.1063"/>
</g>
<!-- u10&#45;&gt;u20 -->
<g id="edge43" class="edge">
<title>u10&#45;&gt;u20</title>
<path fill="none" stroke="#000000" d="M354.8202,-597.266C337.4246,-560.7177 297.4972,-476.83 276.9656,-433.6928"/>
<polygon fill="#000000" stroke="#000000" points="279.9985,-431.9209 272.5405,-424.3957 273.6779,-434.9293 279.9985,-431.9209"/>
</g>
<!-- u11&#45;&gt;u9 -->
<g id="edge17" class="edge">
<title>u11&#45;&gt;u9</title>
<path fill="none" stroke="#000000" d="M604.1939,-600.5743C610.8743,-596.6129 618.261,-592.4595 625.2609,-589 774.5669,-515.2086 961.5294,-446.8847 1039.0288,-419.5629"/>
<polygon fill="#000000" stroke="#000000" points="1040.5169,-422.7499 1048.7922,-416.134 1038.1974,-416.1454 1040.5169,-422.7499"/>
</g>
<!-- u12 -->
<g id="node7" class="node">
<title>u12</title>
<ellipse fill="#ffffbb" stroke="#000000" stroke-width="0" cx="475.2609" cy="-615" rx="50.0912" ry="18"/>
<text text-anchor="middle" x="475.2609" y="-611.3" font-family="Times,serif" font-size="14.00" fill="#000000">BottomBar</text>
</g>
<!-- u12&#45;&gt;u9 -->
<g id="edge18" class="edge">
<title>u12&#45;&gt;u9</title>
<path fill="none" stroke="#000000" d="M506.2726,-600.7043C515.2346,-596.745 525.0764,-592.5602 534.2609,-589 720.905,-516.651 949.8422,-445.1599 1038.1176,-418.2196"/>
<polygon fill="#000000" stroke="#000000" points="1039.3833,-421.4929 1047.9302,-415.2318 1037.3443,-414.7965 1039.3833,-421.4929"/>
</g>
<!-- u0&#45;&gt;u9 -->
<g id="edge8" class="edge">
<title>u0&#45;&gt;u9</title>
<path fill="none" stroke="#000000" d="M1504.7739,-600.3738C1420.3259,-562.3539 1194.5289,-460.6964 1108.8572,-422.1256"/>
<polygon fill="#000000" stroke="#000000" points="1110.1478,-418.8683 1099.5924,-417.9545 1107.274,-425.2513 1110.1478,-418.8683"/>
</g>
<!-- u1 -->
<g id="node9" class="node">
<title>u1</title>
<ellipse fill="#bbbbff" stroke="#000000" stroke-width="0" cx="1021.2609" cy="-615" rx="27.0966" ry="18"/>
<text text-anchor="middle" x="1021.2609" y="-611.3" font-family="Times,serif" font-size="14.00" fill="#000000">New</text>
</g>
<!-- u1&#45;&gt;u9 -->
<g id="edge9" class="edge">
<title>u1&#45;&gt;u9</title>
<path fill="none" stroke="#000000" d="M1025.9585,-596.9052C1035.417,-560.4728 1056.8103,-478.0689 1068.0514,-434.7699"/>
<polygon fill="#000000" stroke="#000000" points="1071.4873,-435.4635 1070.6125,-424.9048 1064.7119,-433.7044 1071.4873,-435.4635"/>
</g>
<!-- u2 -->
<g id="node10" class="node">
<title>u2</title>
<ellipse fill="#bbbbff" stroke="#000000" stroke-width="0" cx="1382.2609" cy="-615" rx="83.3857" ry="18"/>
<text text-anchor="middle" x="1382.2609" y="-611.3" font-family="Times,serif" font-size="14.00" fill="#000000">NewOrEditTimeline</text>
</g>
<!-- u3 -->
<g id="node11" class="node">
<title>u3</title>
<ellipse fill="#bbbbff" stroke="#000000" stroke-width="0" cx="894.2609" cy="-615" rx="81.7856" ry="18"/>
<text text-anchor="middle" x="894.2609" y="-611.3" font-family="Times,serif" font-size="14.00" fill="#000000">ExploreTimeSpaces</text>
</g>
<!-- u3&#45;&gt;u9 -->
<g id="edge10" class="edge">
<title>u3&#45;&gt;u9</title>
<path fill="none" stroke="#000000" d="M909.6928,-597.266C942.2199,-559.8868 1017.8355,-472.9916 1054.5371,-430.8151"/>
<polygon fill="#000000" stroke="#000000" points="1057.2022,-433.0842 1061.1264,-423.2429 1051.9216,-428.489 1057.2022,-433.0842"/>
</g>
<!-- u4&#45;&gt;u9 -->
<g id="edge11" class="edge">
<title>u4&#45;&gt;u9</title>
<path fill="none" stroke="#000000" d="M1125.4762,-596.9052C1115.8426,-560.4728 1094.0531,-478.0689 1082.6039,-434.7699"/>
<polygon fill="#000000" stroke="#000000" points="1085.9354,-433.6778 1079.9953,-424.9048 1079.168,-435.4673 1085.9354,-433.6778"/>
</g>
<!-- u5&#45;&gt;u9 -->
<g id="edge12" class="edge">
<title>u5&#45;&gt;u9</title>
<path fill="none" stroke="#000000" d="M1650.345,-599.6208C1532.0997,-560.0153 1218.923,-455.1187 1111.7975,-419.2377"/>
<polygon fill="#000000" stroke="#000000" points="1112.6811,-415.8426 1102.0873,-415.9853 1110.4579,-422.4802 1112.6811,-415.8426"/>
</g>
<!-- u6 -->
<g id="node14" class="node">
<title>u6</title>
<ellipse fill="#bbbbff" stroke="#000000" stroke-width="0" cx="1246.2609" cy="-615" rx="34.394" ry="18"/>
<text text-anchor="middle" x="1246.2609" y="-611.3" font-family="Times,serif" font-size="14.00" fill="#000000">EULA</text>
</g>
<!-- u6&#45;&gt;u9 -->
<g id="edge13" class="edge">
<title>u6&#45;&gt;u9</title>
<path fill="none" stroke="#000000" d="M1232.5563,-598.3301C1202.4648,-561.7276 1130.5011,-474.1928 1095.3166,-431.3952"/>
<polygon fill="#000000" stroke="#000000" points="1097.8476,-428.9625 1088.7933,-423.4606 1092.4403,-433.408 1097.8476,-428.9625"/>
</g>
<!-- u7 -->
<g id="node15" class="node">
<title>u7</title>
<ellipse fill="#bbbbff" stroke="#000000" stroke-width="0" cx="671.2609" cy="-615" rx="34.394" ry="18"/>
<text text-anchor="middle" x="671.2609" y="-611.3" font-family="Times,serif" font-size="14.00" fill="#000000">Export</text>
</g>
<!-- u7&#45;&gt;u9 -->
<g id="edge14" class="edge">
<title>u7&#45;&gt;u9</title>
<path fill="none" stroke="#000000" d="M693.9342,-601.2182C700.7386,-597.1867 708.2563,-592.8348 715.2609,-589 833.8742,-524.0633 978.3607,-453.5451 1042.2125,-422.8071"/>
<polygon fill="#000000" stroke="#000000" points="1043.8973,-425.8807 1051.394,-418.394 1040.8648,-419.5716 1043.8973,-425.8807"/>
</g>
<!-- u7&#45;&gt;u16 -->
<g id="edge31" class="edge">
<title>u7&#45;&gt;u16</title>
<path fill="none" stroke="#000000" d="M663.7128,-597.4235C645.0132,-555.5237 592.8935,-448.2505 522.2609,-381 452.8634,-314.9256 350.0482,-266.3464 292.7566,-242.5027"/>
<polygon fill="#000000" stroke="#000000" points="293.8658,-239.1747 283.2857,-238.6143 291.2071,-245.6501 293.8658,-239.1747"/>
</g>
<!-- u7&#45;&gt;u20 -->
<g id="edge41" class="edge">
<title>u7&#45;&gt;u20</title>
<path fill="none" stroke="#000000" d="M650.6996,-600.1511C645.1411,-596.3539 639.0573,-592.3895 633.2609,-589 514.2474,-519.4068 364.944,-451.2988 298.6737,-421.9947"/>
<polygon fill="#000000" stroke="#000000" points="300.0744,-418.7872 289.5121,-417.9571 297.2514,-425.1928 300.0744,-418.7872"/>
</g>
<!-- u8 -->
<g id="node16" class="node">
<title>u8</title>
<ellipse fill="#bbbbff" stroke="#000000" stroke-width="0" cx="759.2609" cy="-615" rx="35.194" ry="18"/>
<text text-anchor="middle" x="759.2609" y="-611.3" font-family="Times,serif" font-size="14.00" fill="#000000">Import</text>
</g>
<!-- u8&#45;&gt;u9 -->
<g id="edge15" class="edge">
<title>u8&#45;&gt;u9</title>
<path fill="none" stroke="#000000" d="M780.9808,-600.7033C836.4018,-564.2237 983.1131,-467.6542 1045.985,-426.2702"/>
<polygon fill="#000000" stroke="#000000" points="1048.2034,-429.0002 1054.632,-420.5785 1044.3547,-423.1531 1048.2034,-429.0002"/>
</g>
<!-- u8&#45;&gt;u16 -->
<g id="edge32" class="edge">
<title>u8&#45;&gt;u16</title>
<path fill="none" stroke="#000000" d="M748.5728,-597.5954C722.0724,-555.6118 649.3651,-447.3493 565.2609,-381 479.2369,-313.1363 358.6945,-264.1496 294.5346,-240.9934"/>
<polygon fill="#000000" stroke="#000000" points="295.7065,-237.6955 285.1118,-237.6324 293.3547,-244.2886 295.7065,-237.6955"/>
</g>
<!-- u8&#45;&gt;u20 -->
<g id="edge42" class="edge">
<title>u8&#45;&gt;u20</title>
<path fill="none" stroke="#000000" d="M736.7032,-601.1436C729.6302,-597.0235 721.7205,-592.6414 714.2609,-589 564.9578,-516.1172 378.7326,-447.5512 301.0009,-419.8778"/>
<polygon fill="#000000" stroke="#000000" points="301.795,-416.4458 291.2002,-416.401 299.4546,-423.043 301.795,-416.4458"/>
</g>
<!-- u13&#45;&gt;u9 -->
<g id="edge19" class="edge">
<title>u13&#45;&gt;u9</title>
<path fill="none" stroke="#000000" d="M1921.407,-600.4483C1913.5567,-596.2999 1904.72,-592.0767 1896.2609,-589 1606.6313,-483.6588 1236.408,-428.2927 1115.4437,-412.1111"/>
<polygon fill="#000000" stroke="#000000" points="1115.8832,-408.6388 1105.5103,-410.7958 1114.9643,-415.5782 1115.8832,-408.6388"/>
</g>
<!-- u14&#45;&gt;u9 -->
<g id="edge20" class="edge">
<title>u14&#45;&gt;u9</title>
<path fill="none" stroke="#000000" d="M2024.8279,-600.4035C2016.1887,-596.2534 2006.4898,-592.0404 1997.2609,-589 1666.4124,-480.0055 1246.1369,-426.2246 1115.7053,-411.3712"/>
<polygon fill="#000000" stroke="#000000" points="1115.7296,-407.8519 1105.4007,-410.2104 1114.946,-414.8079 1115.7296,-407.8519"/>
</g>
<!-- u15&#45;&gt;u9 -->
<g id="edge21" class="edge">
<title>u15&#45;&gt;u9</title>
<path fill="none" stroke="#000000" d="M1822.0947,-601.0454C1813.7279,-596.7797 1804.2496,-592.3385 1795.2609,-589 1543.5226,-495.5019 1224.8134,-433.6701 1114.7445,-413.8676"/>
<polygon fill="#000000" stroke="#000000" points="1115.2129,-410.396 1104.7532,-412.0828 1113.9819,-417.2869 1115.2129,-410.396"/>
</g>
<!-- u22 -->
<g id="node20" class="node">
<title>u22</title>
<ellipse fill="#bbffff" stroke="#000000" stroke-width="0" cx="1696.2609" cy="-922" rx="50.0912" ry="18"/>
<text text-anchor="middle" x="1696.2609" y="-918.3" font-family="Times,serif" font-size="14.00" fill="#000000">Markdown</text>
</g>
<!-- u22&#45;&gt;u5 -->
<g id="edge6" class="edge">
<title>u22&#45;&gt;u5</title>
<path fill="none" stroke="#000000" d="M1696.2609,-903.7151C1696.2609,-852.205 1696.2609,-705.6127 1696.2609,-643.4367"/>
<polygon fill="#000000" stroke="#000000" points="1699.7609,-643.189 1696.2609,-633.189 1692.7609,-643.1891 1699.7609,-643.189"/>
</g>
<!-- u16&#45;&gt;u18 -->
<g id="edge40" class="edge">
<title>u16&#45;&gt;u18</title>
<path fill="none" stroke="#000000" d="M253.8443,-207.9833C260.1248,-176.4063 273.163,-110.8532 280.6491,-73.2145"/>
<polygon fill="#000000" stroke="#000000" points="284.1739,-73.4345 282.6919,-62.9438 277.3083,-72.0689 284.1739,-73.4345"/>
</g>
<!-- u16&#45;&gt;u9 -->
<g id="edge22" class="edge">
<title>u16&#45;&gt;u9</title>
<path fill="none" stroke="#000000" d="M290.4457,-234.8163C430.7434,-265.5968 897.7675,-368.059 1036.2404,-398.4392"/>
<polygon fill="#000000" stroke="#000000" points="1035.8646,-401.9399 1046.3824,-400.6642 1037.3648,-395.1025 1035.8646,-401.9399"/>
</g>
<!-- u20&#45;&gt;u16 -->
<g id="edge35" class="edge">
<title>u20&#45;&gt;u16</title>
<path fill="none" stroke="#000000" d="M262.8673,-388.9833C260.4312,-357.4877 255.3806,-292.1909 252.4657,-254.5061"/>
<polygon fill="#000000" stroke="#000000" points="255.9304,-253.9127 251.6695,-244.2125 248.9512,-254.4526 255.9304,-253.9127"/>
</g>
<!-- u21 -->
<g id="node23" class="node">
<title>u21</title>
<ellipse fill="#77ff77" stroke="#000000" stroke-width="0" cx="1759.2609" cy="-1208" rx="46.5926" ry="18"/>
<text text-anchor="middle" x="1759.2609" y="-1204.3" font-family="Times,serif" font-size="14.00" fill="#000000">TrimDocs</text>
</g>
<!-- u23 -->
<g id="node24" class="node">
<title>u23</title>
<ellipse fill="#7777ff" stroke="#000000" stroke-width="0" cx="1231.2609" cy="-922" rx="65.7887" ry="18"/>
<text text-anchor="middle" x="1231.2609" y="-918.3" font-family="Times,serif" font-size="14.00" fill="#000000">StoredTimeline</text>
</g>
<!-- u24 -->
<g id="node25" class="node">
<title>u24</title>
<ellipse fill="#7777ff" stroke="#000000" stroke-width="0" cx="1104.2609" cy="-922" rx="42.7926" ry="18"/>
<text text-anchor="middle" x="1104.2609" y="-918.3" font-family="Times,serif" font-size="14.00" fill="#000000">Timeline</text>
</g>
<!-- u25 -->
<g id="node26" class="node">
<title>u25</title>
<ellipse fill="#7777ff" stroke="#000000" stroke-width="0" cx="799.2609" cy="-922" rx="81.7856" ry="18"/>
<text text-anchor="middle" x="799.2609" y="-918.3" font-family="Times,serif" font-size="14.00" fill="#000000">ExploreTimeSpaces</text>
</g>
<!-- u25&#45;&gt;u3 -->
<g id="edge2" class="edge">
<title>u25&#45;&gt;u3</title>
<path fill="none" stroke="#000000" d="M804.919,-903.7151C820.8917,-852.0984 866.4091,-705.0053 885.5804,-643.0516"/>
<polygon fill="#000000" stroke="#000000" points="889.0197,-643.7768 888.6323,-633.189 882.3325,-641.7074 889.0197,-643.7768"/>
</g>
<!-- u25&#45;&gt;u16 -->
<g id="edge36" class="edge">
<title>u25&#45;&gt;u16</title>
<path fill="none" stroke="#000000" d="M758.8212,-906.1994C631.7231,-856.4642 248.1923,-705.7789 239.2609,-695 149.1855,-586.2926 165.7284,-519.8487 191.2609,-381 199.8598,-334.238 221.9136,-283.3114 236.4868,-253.0491"/>
<polygon fill="#000000" stroke="#000000" points="239.6728,-254.5013 240.929,-243.9812 233.3865,-251.4218 239.6728,-254.5013"/>
</g>
<!-- u26&#45;&gt;u11 -->
<g id="edge26" class="edge">
<title>u26&#45;&gt;u11</title>
<path fill="none" stroke="#000000" d="M936.0805,-906.1401C868.6482,-874.3181 719.542,-796.9158 625.2609,-695 610.9539,-679.5345 599.6424,-658.5632 592.0724,-641.9721"/>
<polygon fill="#000000" stroke="#000000" points="595.2678,-640.5435 588.0534,-632.7844 588.8546,-643.3489 595.2678,-640.5435"/>
</g>
<!-- u26&#45;&gt;u5 -->
<g id="edge7" class="edge">
<title>u26&#45;&gt;u5</title>
<path fill="none" stroke="#000000" d="M1007.3662,-906.3099C1021.3187,-900.3876 1037.4617,-893.7064 1052.2609,-888 1293.1899,-795.1005 1375.7487,-822.5596 1600.2609,-695 1626.8343,-679.9019 1653.2323,-657.1948 1671.601,-639.8251"/>
<polygon fill="#000000" stroke="#000000" points="1674.1795,-642.2011 1678.9587,-632.7454 1669.326,-637.1569 1674.1795,-642.2011"/>
</g>
<!-- u26&#45;&gt;u16 -->
<g id="edge37" class="edge">
<title>u26&#45;&gt;u16</title>
<path fill="none" stroke="#000000" d="M935.6629,-906.1995C921.6328,-900.1985 905.3033,-893.4919 890.2609,-888 619.963,-789.3154 464.8261,-908.8182 272.2609,-695 225.0223,-642.5478 218.4019,-451.3448 224.2609,-381 227.9885,-336.2444 237.6706,-284.9661 244.1095,-254.0534"/>
<polygon fill="#000000" stroke="#000000" points="247.5881,-254.5209 246.2367,-244.0126 240.7401,-253.0701 247.5881,-254.5209"/>
</g>
<!-- u26&#45;&gt;u20 -->
<g id="edge45" class="edge">
<title>u26&#45;&gt;u20</title>
<path fill="none" stroke="#000000" d="M935.6136,-906.3327C921.5771,-900.3491 905.2561,-893.6195 890.2609,-888 634.6782,-792.2195 483.0224,-903.8163 307.2609,-695 274.4861,-656.0615 266.667,-500.2105 264.8222,-435.4457"/>
<polygon fill="#000000" stroke="#000000" points="268.3137,-435.0673 264.5583,-425.1604 261.316,-435.2469 268.3137,-435.0673"/>
</g>
<!-- u27 -->
<g id="node28" class="node">
<title>u27</title>
<ellipse fill="#7777ff" stroke="#000000" stroke-width="0" cx="669.2609" cy="-922" rx="30.5947" ry="18"/>
<text text-anchor="middle" x="669.2609" y="-918.3" font-family="Times,serif" font-size="14.00" fill="#000000">Index</text>
</g>
<!-- u28&#45;&gt;u12 -->
<g id="edge27" class="edge">
<title>u28&#45;&gt;u12</title>
<path fill="none" stroke="#000000" d="M566.4835,-903.7151C550.1747,-852.0984 503.699,-705.0053 484.124,-643.0516"/>
<polygon fill="#000000" stroke="#000000" points="487.3581,-641.6699 481.0079,-633.189 480.6834,-643.7789 487.3581,-641.6699"/>
</g>
<!-- u28&#45;&gt;u4 -->
<g id="edge4" class="edge">
<title>u28&#45;&gt;u4</title>
<path fill="none" stroke="#000000" d="M597.1631,-906.3068C607.0169,-900.3199 618.5334,-893.5948 629.2609,-888 814.2776,-791.5058 888.3292,-817.4925 1057.2609,-695 1078.1907,-679.8238 1097.6968,-657.8712 1111.2706,-640.7997"/>
<polygon fill="#000000" stroke="#000000" points="1114.0661,-642.9064 1117.4378,-632.8623 1108.5385,-638.6115 1114.0661,-642.9064"/>
</g>
<!-- u28&#45;&gt;u16 -->
<g id="edge38" class="edge">
<title>u28&#45;&gt;u16</title>
<path fill="none" stroke="#000000" d="M546.7826,-906.5481C536.7379,-900.5926 525.0432,-893.826 514.2609,-888 344.4638,-796.2539 226.9796,-859.0173 125.2609,-695 51.7089,-576.4004 78.8089,-512.5977 125.2609,-381 144.4854,-326.5372 191.8562,-277.1451 222.4478,-249.4015"/>
<polygon fill="#000000" stroke="#000000" points="225.0681,-251.7551 230.2149,-242.4943 220.4164,-246.5242 225.0681,-251.7551"/>
</g>
<!-- u28&#45;&gt;u20 -->
<g id="edge46" class="edge">
<title>u28&#45;&gt;u20</title>
<path fill="none" stroke="#000000" d="M546.894,-906.4591C481.1241,-865.5889 308.0736,-754.1825 277.2609,-695 232.5146,-609.0552 248.0105,-488.3971 258.2245,-434.6777"/>
<polygon fill="#000000" stroke="#000000" points="261.6599,-435.3471 260.1775,-424.8565 254.7943,-433.9818 261.6599,-435.3471"/>
</g>
<!-- u29 -->
<g id="node30" class="node">
<title>u29</title>
<ellipse fill="#7777ff" stroke="#000000" stroke-width="0" cx="474.2609" cy="-922" rx="31.3957" ry="18"/>
<text text-anchor="middle" x="474.2609" y="-918.3" font-family="Times,serif" font-size="14.00" fill="#000000">Event</text>
</g>
<!-- u30 -->
<g id="node31" class="node">
<title>u30</title>
<ellipse fill="#7777ff" stroke="#000000" stroke-width="0" cx="374.2609" cy="-922" rx="50.8918" ry="18"/>
<text text-anchor="middle" x="374.2609" y="-918.3" font-family="Times,serif" font-size="14.00" fill="#000000">TimeSpace</text>
</g>
<!-- u31 -->
<g id="node32" class="node">
<title>u31</title>
<ellipse fill="#7777ff" stroke="#000000" stroke-width="0" cx="258.2609" cy="-922" rx="47.3916" ry="18"/>
<text text-anchor="middle" x="258.2609" y="-918.3" font-family="Times,serif" font-size="14.00" fill="#000000">TimeSpan</text>
</g>
</g>
</svg>
