<?xml version="1.0" encoding="UTF-8" standalone="no"?>
<!DOCTYPE svg PUBLIC "-//W3C//DTD SVG 1.1//EN"
 "http://www.w3.org/Graphics/SVG/1.1/DTD/svg11.dtd">
<!-- Generated by graphviz version 2.43.0 (0)
 -->
<!-- Title: Modules Pages: 1 -->
<svg width="864pt" height="573pt"
 viewBox="0.00 0.00 864.00 572.53" xmlns="http://www.w3.org/2000/svg" xmlns:xlink="http://www.w3.org/1999/xlink">
<g id="graph0" class="graph" transform="scale(4 4) rotate(0) translate(4 2284.67)">
<title>Modules</title>
<polygon fill="white" stroke="transparent" points="-4,4 -4,-2284.67 3449.83,-2284.67 3449.83,4 -4,4"/>
<g id="clust1" class="cluster">
<title>cluster_0</title>
<polygon fill="#000000" fill-opacity="0.058824" stroke="#000000" stroke-opacity="0.058824" points="171.83,-576.53 171.83,-1411.64 2408.83,-1411.64 2408.83,-576.53 171.83,-576.53"/>
<text text-anchor="middle" x="1290.33" y="-1396.44" font-family="Times,serif" font-size="14.00">Components</text>
</g>
<g id="clust2" class="cluster">
<title>cluster_1</title>
<polygon fill="#000000" fill-opacity="0.058824" stroke="#000000" stroke-opacity="0.058824" points="649.83,-962.29 649.83,-1280.23 2141.83,-1280.23 2141.83,-962.29 649.83,-962.29"/>
<text text-anchor="middle" x="1395.83" y="-1265.03" font-family="Times,serif" font-size="14.00">Dialogs</text>
</g>
<g id="clust3" class="cluster">
<title>cluster_2</title>
<polygon fill="#000000" fill-opacity="0.058824" stroke="#000000" stroke-opacity="0.058824" points="179.83,-962.29 179.83,-1280.23 541.83,-1280.23 541.83,-962.29 179.83,-962.29"/>
<text text-anchor="middle" x="360.83" y="-1265.03" font-family="Times,serif" font-size="14.00">Drawers</text>
</g>
<g id="clust4" class="cluster">
<title>cluster_3</title>
<polygon fill="#000000" fill-opacity="0.058824" stroke="#000000" stroke-opacity="0.058824" points="1153.83,-1445.55 1153.83,-1763.49 1289.83,-1763.49 1289.83,-1445.55 1153.83,-1445.55"/>
<text text-anchor="middle" x="1221.83" y="-1748.29" font-family="Times,serif" font-size="14.00">MaterialUI</text>
</g>
<g id="clust5" class="cluster">
<title>cluster_4</title>
<polygon fill="#000000" fill-opacity="0.058824" stroke="#000000" stroke-opacity="0.058824" points="2416.83,-271.31 2416.83,-894.46 2542.83,-894.46 2542.83,-271.31 2416.83,-271.31"/>
<text text-anchor="middle" x="2479.83" y="-879.26" font-family="Times,serif" font-size="14.00">Plumbing</text>
</g>
<g id="clust6" class="cluster">
<title>cluster_5</title>
<polygon fill="#000000" fill-opacity="0.058824" stroke="#000000" stroke-opacity="0.058824" points="3311.83,-1797.4 3311.83,-2115.34 3437.83,-2115.34 3437.83,-1797.4 3311.83,-1797.4"/>
<text text-anchor="middle" x="3374.83" y="-2100.14" font-family="Times,serif" font-size="14.00">Scripts</text>
</g>
<g id="clust7" class="cluster">
<title>cluster_6</title>
<polygon fill="#000000" fill-opacity="0.058824" stroke="#000000" stroke-opacity="0.058824" points="2446.83,-928.38 2446.83,-2246.75 3303.83,-2246.75 3303.83,-928.38 2446.83,-928.38"/>
<text text-anchor="middle" x="2875.33" y="-2231.55" font-family="Times,serif" font-size="14.00">Timeline</text>
</g>
<g id="clust8" class="cluster">
<title>cluster_7</title>
<polygon fill="#000000" fill-opacity="0.058824" stroke="#000000" stroke-opacity="0.058824" points="2454.83,-962.29 2454.83,-2115.34 3295.83,-2115.34 3295.83,-962.29 2454.83,-962.29"/>
<text text-anchor="middle" x="2875.33" y="-2100.14" font-family="Times,serif" font-size="14.00">UI</text>
</g>
<!-- u12 -->
<g id="node1" class="node">
<title>u12</title>
<ellipse fill="#bbffbb" stroke="black" stroke-width="0" cx="77.83" cy="-1073" rx="53.89" ry="18"/>
<text text-anchor="middle" x="77.83" y="-1069.3" font-family="Times,serif" font-size="14.00">WithRoot</text>
</g>
<!-- u20 -->
<g id="node6" class="node">
<title>u20</title>
<ellipse fill="#ffffbb" stroke="black" stroke-width="0" cx="1221.83" cy="-687" rx="36.29" ry="18"/>
<text text-anchor="middle" x="1221.83" y="-683.3" font-family="Times,serif" font-size="14.00">Index</text>
</g>
<!-- u12&#45;&gt;u20 -->
<g id="edge27" class="edge">
<title>u12&#45;&gt;u20</title>
<path fill="none" stroke="black" d="M105.56,-1057.48C117.74,-1051.38 132.32,-1044.45 145.83,-1039 539.98,-879.94 1036.26,-739.08 1180.68,-699.23"/>
<polygon fill="black" stroke="black" points="1181.75,-702.56 1190.46,-696.53 1179.89,-695.81 1181.75,-702.56"/>
</g>
<!-- u13 -->
<g id="node2" class="node">
<title>u13</title>
<ellipse fill="#bbffbb" stroke="black" stroke-width="0" cx="854.83" cy="-1908" rx="50.09" ry="18"/>
<text text-anchor="middle" x="854.83" y="-1904.3" font-family="Times,serif" font-size="14.00">Settings</text>
</g>
<!-- u18 -->
<g id="node4" class="node">
<title>u18</title>
<ellipse fill="#ffffbb" stroke="black" stroke-width="0" cx="595.83" cy="-1073" rx="44.39" ry="18"/>
<text text-anchor="middle" x="595.83" y="-1069.3" font-family="Times,serif" font-size="14.00">TopBar</text>
</g>
<!-- u13&#45;&gt;u18 -->
<g id="edge26" class="edge">
<title>u13&#45;&gt;u18</title>
<path fill="none" stroke="black" d="M849.54,-1889.98C817.02,-1785.4 644.34,-1230.01 604.18,-1100.85"/>
<polygon fill="black" stroke="black" points="607.42,-1099.5 601.11,-1090.99 600.74,-1101.58 607.42,-1099.5"/>
</g>
<!-- u13&#45;&gt;u20 -->
<g id="edge28" class="edge">
<title>u13&#45;&gt;u20</title>
<path fill="none" stroke="black" d="M835.83,-1891.29C713.48,-1789.33 45.82,-1219.76 175.83,-1039 300.01,-866.34 995.82,-729.11 1178.11,-695.77"/>
<polygon fill="black" stroke="black" points="1178.92,-699.18 1188.13,-693.94 1177.67,-692.29 1178.92,-699.18"/>
</g>
<!-- u22 -->
<g id="node9" class="node">
<title>u22</title>
<ellipse fill="#bbbbff" stroke="black" stroke-width="0" cx="2030.83" cy="-1073" rx="102.88" ry="18"/>
<text text-anchor="middle" x="2030.83" y="-1069.3" font-family="Times,serif" font-size="14.00">NewOrEditTimeline</text>
</g>
<!-- u13&#45;&gt;u22 -->
<g id="edge47" class="edge">
<title>u13&#45;&gt;u22</title>
<path fill="none" stroke="black" d="M864.2,-1890.15C896.77,-1832.84 1010.72,-1642.8 1149.83,-1530 1445.49,-1290.27 1591.39,-1347.09 1918.83,-1153 1947.87,-1135.79 1979.12,-1113.39 2001.21,-1096.84"/>
<polygon fill="black" stroke="black" points="2003.34,-1099.62 2009.21,-1090.81 1999.12,-1094.04 2003.34,-1099.62"/>
</g>
<!-- u24 -->
<g id="node11" class="node">
<title>u24</title>
<ellipse fill="#bbbbff" stroke="black" stroke-width="0" cx="820.83" cy="-1073" rx="69.59" ry="18"/>
<text text-anchor="middle" x="820.83" y="-1069.3" font-family="Times,serif" font-size="14.00">SettingsEdit</text>
</g>
<!-- u13&#45;&gt;u24 -->
<g id="edge49" class="edge">
<title>u13&#45;&gt;u24</title>
<path fill="none" stroke="black" d="M854.14,-1889.98C849.88,-1785.62 827.29,-1232.32 821.96,-1101.66"/>
<polygon fill="black" stroke="black" points="825.44,-1101.19 821.54,-1091.34 818.45,-1101.47 825.44,-1101.19"/>
</g>
<!-- u25 -->
<g id="node12" class="node">
<title>u25</title>
<ellipse fill="#bbbbff" stroke="black" stroke-width="0" cx="1016.83" cy="-1073" rx="108.58" ry="18"/>
<text text-anchor="middle" x="1016.83" y="-1069.3" font-family="Times,serif" font-size="14.00">TimeSpaceNameEdit</text>
</g>
<!-- u13&#45;&gt;u25 -->
<g id="edge51" class="edge">
<title>u13&#45;&gt;u25</title>
<path fill="none" stroke="black" d="M858.14,-1889.98C878.46,-1785.52 986.26,-1231.21 1011.53,-1101.27"/>
<polygon fill="black" stroke="black" points="1014.98,-1101.82 1013.46,-1091.34 1008.11,-1100.49 1014.98,-1101.82"/>
</g>
<!-- u29 -->
<g id="node16" class="node">
<title>u29</title>
<ellipse fill="#bbbbff" stroke="black" stroke-width="0" cx="1221.83" cy="-1073" rx="77.99" ry="18"/>
<text text-anchor="middle" x="1221.83" y="-1069.3" font-family="Times,serif" font-size="14.00">TimeScaleEdit</text>
</g>
<!-- u13&#45;&gt;u29 -->
<g id="edge55" class="edge">
<title>u13&#45;&gt;u29</title>
<path fill="none" stroke="black" d="M862.33,-1889.98C908.45,-1785.3 1153.59,-1228.9 1210.17,-1100.47"/>
<polygon fill="black" stroke="black" points="1213.52,-1101.55 1214.34,-1090.99 1207.11,-1098.73 1213.52,-1101.55"/>
</g>
<!-- u15 -->
<g id="node17" class="node">
<title>u15</title>
<ellipse fill="#ffbbbb" stroke="black" stroke-width="0" cx="238.83" cy="-1073" rx="50.89" ry="18"/>
<text text-anchor="middle" x="238.83" y="-1069.3" font-family="Times,serif" font-size="14.00">Children</text>
</g>
<!-- u13&#45;&gt;u15 -->
<g id="edge20" class="edge">
<title>u13&#45;&gt;u15</title>
<path fill="none" stroke="black" d="M842.43,-1890.31C808.52,-1844.67 711.4,-1713.88 630.83,-1605 486.74,-1410.27 313.3,-1175.04 257.25,-1099"/>
<polygon fill="black" stroke="black" points="259.76,-1096.5 251.01,-1090.53 254.13,-1100.65 259.76,-1096.5"/>
</g>
<!-- u16 -->
<g id="node18" class="node">
<title>u16</title>
<ellipse fill="#ffbbbb" stroke="black" stroke-width="0" cx="355.83" cy="-1073" rx="48.19" ry="18"/>
<text text-anchor="middle" x="355.83" y="-1069.3" font-family="Times,serif" font-size="14.00">Siblings</text>
</g>
<!-- u13&#45;&gt;u16 -->
<g id="edge21" class="edge">
<title>u13&#45;&gt;u16</title>
<path fill="none" stroke="black" d="M844.86,-1890.36C782.55,-1786.34 446.74,-1225.77 371.01,-1099.34"/>
<polygon fill="black" stroke="black" points="373.96,-1097.46 365.82,-1090.68 367.96,-1101.06 373.96,-1097.46"/>
</g>
<!-- u17 -->
<g id="node19" class="node">
<title>u17</title>
<ellipse fill="#ffbbbb" stroke="black" stroke-width="0" cx="477.83" cy="-1073" rx="55.79" ry="18"/>
<text text-anchor="middle" x="477.83" y="-1069.3" font-family="Times,serif" font-size="14.00">Timelines</text>
</g>
<!-- u13&#45;&gt;u17 -->
<g id="edge24" class="edge">
<title>u13&#45;&gt;u17</title>
<path fill="none" stroke="black" d="M847.13,-1889.98C799.75,-1785.3 547.93,-1228.9 489.81,-1100.47"/>
<polygon fill="black" stroke="black" points="492.83,-1098.66 485.52,-1090.99 486.45,-1101.54 492.83,-1098.66"/>
</g>
<!-- u33 -->
<g id="node21" class="node">
<title>u33</title>
<ellipse fill="#bbffbb" stroke="black" stroke-width="2" cx="2479.83" cy="-382" rx="55.49" ry="18"/>
<text text-anchor="middle" x="2479.83" y="-378.3" font-family="Times,serif" font-size="14.00">Plumbing</text>
</g>
<!-- u13&#45;&gt;u33 -->
<g id="edge66" class="edge">
<title>u13&#45;&gt;u33</title>
<path fill="none" stroke="black" d="M825.47,-1893.31C696.12,-1831.07 176.43,-1560.08 14.83,-1153 -54.26,-978.95 143.68,-679.47 167.83,-661 351.96,-520.17 2062.05,-408.53 2415.93,-386.83"/>
<polygon fill="black" stroke="black" points="2416.23,-390.32 2426,-386.21 2415.8,-383.33 2416.23,-390.32"/>
</g>
<!-- u0 -->
<g id="node22" class="node">
<title>u0</title>
<ellipse fill="#ffbbff" stroke="black" stroke-width="0" cx="2460.83" cy="-687" rx="36" ry="18"/>
<text text-anchor="middle" x="2460.83" y="-683.3" font-family="Times,serif" font-size="14.00">Logic</text>
</g>
<!-- u13&#45;&gt;u0 -->
<g id="edge5" class="edge">
<title>u13&#45;&gt;u0</title>
<path fill="none" stroke="black" d="M901.12,-1900.81C1116.32,-1869.34 2024.91,-1706.3 2412.83,-1153 2462.75,-1081.79 2462.73,-803.92 2461.4,-715.31"/>
<polygon fill="black" stroke="black" points="2464.9,-715.18 2461.23,-705.24 2457.9,-715.3 2464.9,-715.18"/>
</g>
<!-- u9 -->
<g id="node32" class="node">
<title>u9</title>
<ellipse fill="#7777ff" stroke="black" stroke-width="0" cx="2650.83" cy="-1556" rx="58.49" ry="18"/>
<text text-anchor="middle" x="2650.83" y="-1552.3" font-family="Times,serif" font-size="14.00">TimeScale</text>
</g>
<!-- u13&#45;&gt;u9 -->
<g id="edge16" class="edge">
<title>u13&#45;&gt;u9</title>
<path fill="none" stroke="black" d="M904.86,-1906.29C1116.96,-1901.67 1959.69,-1866.89 2583.83,-1605 2598.48,-1598.85 2613.03,-1589.01 2624.81,-1579.83"/>
<polygon fill="black" stroke="black" points="2627.28,-1582.33 2632.85,-1573.32 2622.88,-1576.89 2627.28,-1582.33"/>
</g>
<!-- u10 -->
<g id="node33" class="node">
<title>u10</title>
<ellipse fill="#7777ff" stroke="black" stroke-width="0" cx="2518.83" cy="-1556" rx="55.79" ry="18"/>
<text text-anchor="middle" x="2518.83" y="-1552.3" font-family="Times,serif" font-size="14.00">Timelines</text>
</g>
<!-- u13&#45;&gt;u10 -->
<g id="edge18" class="edge">
<title>u13&#45;&gt;u10</title>
<path fill="none" stroke="black" d="M898.3,-1899.02C1076.71,-1866.07 1769.99,-1736.2 2334.83,-1605 2379.95,-1594.52 2430.88,-1581.11 2467.7,-1571.13"/>
<polygon fill="black" stroke="black" points="2468.97,-1574.41 2477.7,-1568.41 2467.13,-1567.66 2468.97,-1574.41"/>
</g>
<!-- u11 -->
<g id="node34" class="node">
<title>u11</title>
<ellipse fill="#7777ff" stroke="black" stroke-width="0" cx="3126.83" cy="-1908" rx="89.08" ry="18"/>
<text text-anchor="middle" x="3126.83" y="-1904.3" font-family="Times,serif" font-size="14.00">TimeSpaceName</text>
</g>
<!-- u13&#45;&gt;u11 -->
<g id="edge19" class="edge">
<title>u13&#45;&gt;u11</title>
<path fill="none" stroke="black" d="M903.7,-1912.08C1099.31,-1928.16 1844.91,-1987.24 2459.83,-2006 2522.02,-2007.9 2961.84,-2028.54 3019.83,-2006 3056.79,-1991.63 3088.76,-1957.87 3107.9,-1934"/>
<polygon fill="black" stroke="black" points="3110.73,-1936.06 3114.12,-1926.02 3105.21,-1931.76 3110.73,-1936.06"/>
</g>
<!-- u32 -->
<g id="node3" class="node">
<title>u32</title>
<ellipse fill="#bbffbb" stroke="black" stroke-width="0" cx="2143.83" cy="-76" rx="34.39" ry="18"/>
<text text-anchor="middle" x="2143.83" y="-72.3" font-family="Times,serif" font-size="14.00">Main</text>
</g>
<!-- u18&#45;&gt;u20 -->
<g id="edge32" class="edge">
<title>u18&#45;&gt;u20</title>
<path fill="none" stroke="black" d="M618.12,-1057.04C626.73,-1051.33 636.7,-1044.79 645.83,-1039 851.67,-908.41 1103.61,-758.12 1190.57,-706.51"/>
<polygon fill="black" stroke="black" points="1192.6,-709.38 1199.41,-701.26 1189.03,-703.36 1192.6,-709.38"/>
</g>
<!-- u19 -->
<g id="node5" class="node">
<title>u19</title>
<ellipse fill="#ffffbb" stroke="black" stroke-width="0" cx="2346.83" cy="-1073" rx="53.89" ry="18"/>
<text text-anchor="middle" x="2346.83" y="-1069.3" font-family="Times,serif" font-size="14.00">Snackbar</text>
</g>
<!-- u19&#45;&gt;u20 -->
<g id="edge33" class="edge">
<title>u19&#45;&gt;u20</title>
<path fill="none" stroke="black" d="M2320.63,-1057.05C2309.48,-1051.01 2296.22,-1044.25 2283.83,-1039 1897.53,-875.28 1406.8,-737.89 1263.1,-699.01"/>
<polygon fill="black" stroke="black" points="1263.92,-695.61 1253.36,-696.38 1262.1,-702.36 1263.92,-695.61"/>
</g>
<!-- u19&#45;&gt;u33 -->
<g id="edge67" class="edge">
<title>u19&#45;&gt;u33</title>
<path fill="none" stroke="black" d="M2349.35,-1054.7C2357.7,-998.03 2385.63,-812.86 2415.83,-661 2434.23,-568.45 2460.69,-459.68 2473.02,-410.09"/>
<polygon fill="black" stroke="black" points="2476.48,-410.71 2475.5,-400.16 2469.68,-409.02 2476.48,-410.71"/>
</g>
<!-- u19&#45;&gt;u0 -->
<g id="edge6" class="edge">
<title>u19&#45;&gt;u0</title>
<path fill="none" stroke="black" d="M2351.88,-1055C2369.82,-994.55 2430.68,-789.57 2452.75,-715.22"/>
<polygon fill="black" stroke="black" points="2456.22,-715.82 2455.71,-705.23 2449.51,-713.83 2456.22,-715.82"/>
</g>
<!-- u20&#45;&gt;u32 -->
<g id="edge58" class="edge">
<title>u20&#45;&gt;u32</title>
<path fill="none" stroke="black" d="M1242.82,-672.14C1364,-592.1 1973.63,-189.42 2114.67,-96.26"/>
<polygon fill="black" stroke="black" points="2116.86,-99.01 2123.27,-90.58 2113,-93.17 2116.86,-99.01"/>
</g>
<!-- u30 -->
<g id="node7" class="node">
<title>u30</title>
<ellipse fill="#ffffbb" stroke="black" stroke-width="0" cx="2212.83" cy="-1073" rx="61.99" ry="18"/>
<text text-anchor="middle" x="2212.83" y="-1069.3" font-family="Times,serif" font-size="14.00">BottomBar</text>
</g>
<!-- u30&#45;&gt;u20 -->
<g id="edge43" class="edge">
<title>u30&#45;&gt;u20</title>
<path fill="none" stroke="black" d="M2183.76,-1056.94C2172.09,-1051.08 2158.43,-1044.48 2145.83,-1039 1808.78,-892.37 1388.87,-745.38 1260.73,-701.29"/>
<polygon fill="black" stroke="black" points="1261.57,-697.88 1250.97,-697.94 1259.29,-704.5 1261.57,-697.88"/>
</g>
<!-- u21 -->
<g id="node8" class="node">
<title>u21</title>
<ellipse fill="#bbbbff" stroke="black" stroke-width="0" cx="1420.83" cy="-1073" rx="102.88" ry="18"/>
<text text-anchor="middle" x="1420.83" y="-1069.3" font-family="Times,serif" font-size="14.00">ExploreTimeSpaces</text>
</g>
<!-- u21&#45;&gt;u20 -->
<g id="edge34" class="edge">
<title>u21&#45;&gt;u20</title>
<path fill="none" stroke="black" d="M1412.02,-1055C1380.49,-994.16 1273.11,-786.95 1235.21,-713.81"/>
<polygon fill="black" stroke="black" points="1238.24,-712.07 1230.54,-704.8 1232.03,-715.29 1238.24,-712.07"/>
</g>
<!-- u22&#45;&gt;u20 -->
<g id="edge35" class="edge">
<title>u22&#45;&gt;u20</title>
<path fill="none" stroke="black" d="M1997.1,-1055.99C1865.82,-993.67 1389.68,-767.67 1256.6,-704.5"/>
<polygon fill="black" stroke="black" points="1257.8,-701.2 1247.26,-700.07 1254.8,-707.52 1257.8,-701.2"/>
</g>
<!-- u22&#45;&gt;u33 -->
<g id="edge68" class="edge">
<title>u22&#45;&gt;u33</title>
<path fill="none" stroke="black" d="M2034.29,-1054.66C2046.68,-995.48 2093.01,-797.65 2183.83,-661 2259.33,-547.39 2389.79,-446.71 2449,-404.31"/>
<polygon fill="black" stroke="black" points="2451.08,-407.13 2457.21,-398.49 2447.03,-401.42 2451.08,-407.13"/>
</g>
<!-- u22&#45;&gt;u0 -->
<g id="edge7" class="edge">
<title>u22&#45;&gt;u0</title>
<path fill="none" stroke="black" d="M2049.58,-1055.25C2118.52,-993.69 2357.93,-779.89 2436,-710.17"/>
<polygon fill="black" stroke="black" points="2438.75,-712.41 2443.88,-703.14 2434.09,-707.19 2438.75,-712.41"/>
</g>
<!-- u23 -->
<g id="node10" class="node">
<title>u23</title>
<ellipse fill="#bbbbff" stroke="black" stroke-width="0" cx="695.83" cy="-1073" rx="37.89" ry="18"/>
<text text-anchor="middle" x="695.83" y="-1069.3" font-family="Times,serif" font-size="14.00">EULA</text>
</g>
<!-- u23&#45;&gt;u20 -->
<g id="edge36" class="edge">
<title>u23&#45;&gt;u20</title>
<path fill="none" stroke="black" d="M715.81,-1057.42C796.7,-998.36 1100.04,-776.91 1193.94,-708.36"/>
<polygon fill="black" stroke="black" points="1196.1,-711.12 1202.11,-702.39 1191.97,-705.46 1196.1,-711.12"/>
</g>
<!-- u24&#45;&gt;u20 -->
<g id="edge37" class="edge">
<title>u24&#45;&gt;u20</title>
<path fill="none" stroke="black" d="M838.06,-1055.5C901.85,-994.42 1124.66,-781.05 1198.13,-710.7"/>
<polygon fill="black" stroke="black" points="1200.75,-713.03 1205.55,-703.59 1195.91,-707.98 1200.75,-713.03"/>
</g>
<!-- u25&#45;&gt;u20 -->
<g id="edge38" class="edge">
<title>u25&#45;&gt;u20</title>
<path fill="none" stroke="black" d="M1025.9,-1055C1058.38,-994.16 1169.01,-786.95 1208.05,-713.81"/>
<polygon fill="black" stroke="black" points="1211.24,-715.27 1212.86,-704.8 1205.06,-711.97 1211.24,-715.27"/>
</g>
<!-- u26 -->
<g id="node13" class="node">
<title>u26</title>
<ellipse fill="#bbbbff" stroke="black" stroke-width="0" cx="1583.83" cy="-1073" rx="42.49" ry="18"/>
<text text-anchor="middle" x="1583.83" y="-1069.3" font-family="Times,serif" font-size="14.00">Export</text>
</g>
<!-- u26&#45;&gt;u20 -->
<g id="edge39" class="edge">
<title>u26&#45;&gt;u20</title>
<path fill="none" stroke="black" d="M1568.74,-1055.99C1511.92,-995.71 1310.73,-782.3 1243.72,-711.22"/>
<polygon fill="black" stroke="black" points="1246,-708.53 1236.59,-703.66 1240.9,-713.33 1246,-708.53"/>
</g>
<!-- u26&#45;&gt;u33 -->
<g id="edge69" class="edge">
<title>u26&#45;&gt;u33</title>
<path fill="none" stroke="black" d="M1596.92,-1055.45C1644.21,-996.41 1812.47,-792.6 1983.83,-661 2138.72,-542.05 2350.43,-440.92 2438.64,-401.11"/>
<polygon fill="black" stroke="black" points="2440.34,-404.18 2448.03,-396.89 2437.47,-397.8 2440.34,-404.18"/>
</g>
<!-- u26&#45;&gt;u0 -->
<g id="edge8" class="edge">
<title>u26&#45;&gt;u0</title>
<path fill="none" stroke="black" d="M1605.17,-1057.02C1614.12,-1051.05 1624.77,-1044.34 1634.83,-1039 1927.31,-883.72 2303.44,-744.35 2422.76,-701.5"/>
<polygon fill="black" stroke="black" points="2423.97,-704.78 2432.21,-698.11 2421.61,-698.19 2423.97,-704.78"/>
</g>
<!-- u27 -->
<g id="node14" class="node">
<title>u27</title>
<ellipse fill="#bbbbff" stroke="black" stroke-width="0" cx="1685.83" cy="-1073" rx="42.49" ry="18"/>
<text text-anchor="middle" x="1685.83" y="-1069.3" font-family="Times,serif" font-size="14.00">Import</text>
</g>
<!-- u27&#45;&gt;u20 -->
<g id="edge40" class="edge">
<title>u27&#45;&gt;u20</title>
<path fill="none" stroke="black" d="M1667.35,-1056.71C1595.01,-996.84 1330.87,-778.24 1247.34,-709.11"/>
<polygon fill="black" stroke="black" points="1249.54,-706.39 1239.61,-702.71 1245.08,-711.78 1249.54,-706.39"/>
</g>
<!-- u27&#45;&gt;u33 -->
<g id="edge70" class="edge">
<title>u27&#45;&gt;u33</title>
<path fill="none" stroke="black" d="M1698.86,-1055.46C1745.17,-997.27 1907.58,-798.12 2067.83,-661 2196.72,-550.71 2370.62,-445.87 2444.39,-403.15"/>
<polygon fill="black" stroke="black" points="2446.38,-406.04 2453.29,-398.01 2442.88,-399.98 2446.38,-406.04"/>
</g>
<!-- u27&#45;&gt;u0 -->
<g id="edge9" class="edge">
<title>u27&#45;&gt;u0</title>
<path fill="none" stroke="black" d="M1707.31,-1057.27C1716.28,-1051.34 1726.91,-1044.59 1736.83,-1039 1993.55,-894.44 2318.7,-749.83 2425.26,-703.37"/>
<polygon fill="black" stroke="black" points="2426.82,-706.51 2434.59,-699.31 2424.03,-700.09 2426.82,-706.51"/>
</g>
<!-- u28 -->
<g id="node15" class="node">
<title>u28</title>
<ellipse fill="#bbbbff" stroke="black" stroke-width="0" cx="1827.83" cy="-1073" rx="81.79" ry="18"/>
<text text-anchor="middle" x="1827.83" y="-1069.3" font-family="Times,serif" font-size="14.00">DangerConfirm</text>
</g>
<!-- u28&#45;&gt;u20 -->
<g id="edge41" class="edge">
<title>u28&#45;&gt;u20</title>
<path fill="none" stroke="black" d="M1802.18,-1055.75C1704.55,-993.88 1356.41,-773.28 1251.78,-706.98"/>
<polygon fill="black" stroke="black" points="1253.59,-703.98 1243.27,-701.58 1249.84,-709.89 1253.59,-703.98"/>
</g>
<!-- u28&#45;&gt;u33 -->
<g id="edge71" class="edge">
<title>u28&#45;&gt;u33</title>
<path fill="none" stroke="black" d="M1838.61,-1054.8C1875.86,-996.11 2004.13,-799.64 2137.83,-661 2241.57,-553.42 2386.09,-448.18 2448.77,-404.32"/>
<polygon fill="black" stroke="black" points="2450.86,-407.14 2457.06,-398.55 2446.86,-401.39 2450.86,-407.14"/>
</g>
<!-- u28&#45;&gt;u0 -->
<g id="edge10" class="edge">
<title>u28&#45;&gt;u0</title>
<path fill="none" stroke="black" d="M1854.63,-1055.75C1956.72,-993.81 2321.07,-772.78 2429.91,-706.76"/>
<polygon fill="black" stroke="black" points="2432.03,-709.57 2438.76,-701.39 2428.4,-703.58 2432.03,-709.57"/>
</g>
<!-- u29&#45;&gt;u20 -->
<g id="edge42" class="edge">
<title>u29&#45;&gt;u20</title>
<path fill="none" stroke="black" d="M1221.83,-1054.75C1221.83,-994.09 1221.83,-790.2 1221.83,-715.62"/>
<polygon fill="black" stroke="black" points="1225.33,-715.2 1221.83,-705.2 1218.33,-715.2 1225.33,-715.2"/>
</g>
<!-- u15&#45;&gt;u20 -->
<g id="edge29" class="edge">
<title>u15&#45;&gt;u20</title>
<path fill="none" stroke="black" d="M263.83,-1057.23C274.45,-1051.23 287.07,-1044.44 298.83,-1039 631.76,-885.05 1052.91,-743.26 1182.26,-700.84"/>
<polygon fill="black" stroke="black" points="1183.7,-704.05 1192.12,-697.61 1181.53,-697.39 1183.7,-704.05"/>
</g>
<!-- u16&#45;&gt;u20 -->
<g id="edge30" class="edge">
<title>u16&#45;&gt;u20</title>
<path fill="none" stroke="black" d="M379.9,-1057.24C389.94,-1051.3 401.8,-1044.56 412.83,-1039 703.07,-892.64 1068.33,-747.62 1184.55,-702.39"/>
<polygon fill="black" stroke="black" points="1186.01,-705.58 1194.07,-698.69 1183.48,-699.05 1186.01,-705.58"/>
</g>
<!-- u17&#45;&gt;u20 -->
<g id="edge31" class="edge">
<title>u17&#45;&gt;u20</title>
<path fill="none" stroke="black" d="M504.62,-1057.05C514.96,-1051.34 526.91,-1044.8 537.83,-1039 785.88,-907.17 1088.38,-754.87 1188.15,-704.85"/>
<polygon fill="black" stroke="black" points="1189.79,-707.95 1197.16,-700.34 1186.65,-701.69 1189.79,-707.95"/>
</g>
<!-- u14 -->
<g id="node20" class="node">
<title>u14</title>
<ellipse fill="#bbffff" stroke="black" stroke-width="0" cx="1221.83" cy="-1556" rx="59.59" ry="18"/>
<text text-anchor="middle" x="1221.83" y="-1552.3" font-family="Times,serif" font-size="14.00">Markdown</text>
</g>
<!-- u14&#45;&gt;u22 -->
<g id="edge48" class="edge">
<title>u14&#45;&gt;u22</title>
<path fill="none" stroke="black" d="M1249.93,-1539.99C1345.41,-1488.76 1665.48,-1314.94 1918.83,-1153 1947.1,-1134.93 1978.2,-1112.8 2000.44,-1096.57"/>
<polygon fill="black" stroke="black" points="2002.51,-1099.39 2008.51,-1090.65 1998.37,-1093.74 2002.51,-1099.39"/>
</g>
<!-- u14&#45;&gt;u25 -->
<g id="edge52" class="edge">
<title>u14&#45;&gt;u25</title>
<path fill="none" stroke="black" d="M1214.53,-1537.88C1183.87,-1465.93 1065.3,-1187.73 1028.08,-1100.39"/>
<polygon fill="black" stroke="black" points="1031.29,-1098.99 1024.15,-1091.16 1024.85,-1101.74 1031.29,-1098.99"/>
</g>
<!-- u14&#45;&gt;u29 -->
<g id="edge56" class="edge">
<title>u14&#45;&gt;u29</title>
<path fill="none" stroke="black" d="M1221.83,-1537.88C1221.83,-1466.15 1221.83,-1189.42 1221.83,-1101.19"/>
<polygon fill="black" stroke="black" points="1225.33,-1101.16 1221.83,-1091.16 1218.33,-1101.16 1225.33,-1101.16"/>
</g>
<!-- u33&#45;&gt;u32 -->
<g id="edge59" class="edge">
<title>u33&#45;&gt;u32</title>
<path fill="none" stroke="black" d="M2461.77,-364.66C2405.29,-313.56 2232.05,-156.82 2167.98,-98.85"/>
<polygon fill="black" stroke="black" points="2170.14,-96.09 2160.38,-91.97 2165.45,-101.28 2170.14,-96.09"/>
</g>
<!-- u33&#45;&gt;u20 -->
<g id="edge44" class="edge">
<title>u33&#45;&gt;u20</title>
<path fill="none" stroke="black" d="M2436.85,-393.35C2243.48,-439.93 1455.16,-629.8 1263.82,-675.89"/>
<polygon fill="black" stroke="black" points="1262.78,-672.54 1253.87,-678.28 1264.41,-679.34 1262.78,-672.54"/>
</g>
<!-- u0&#45;&gt;u33 -->
<g id="edge60" class="edge">
<title>u0&#45;&gt;u33</title>
<path fill="none" stroke="black" d="M2461.91,-668.84C2465.05,-618.65 2474.26,-471.79 2478.11,-410.43"/>
<polygon fill="black" stroke="black" points="2481.61,-410.55 2478.74,-400.35 2474.62,-410.11 2481.61,-410.55"/>
</g>
<!-- u31 -->
<g id="node23" class="node">
<title>u31</title>
<ellipse fill="#77ff77" stroke="black" stroke-width="0" cx="3374.83" cy="-1908" rx="55.49" ry="18"/>
<text text-anchor="middle" x="3374.83" y="-1904.3" font-family="Times,serif" font-size="14.00">TrimDocs</text>
</g>
<!-- u1 -->
<g id="node24" class="node">
<title>u1</title>
<ellipse fill="#ffff77" stroke="black" stroke-width="2" cx="3260.83" cy="-1908" rx="27" ry="18"/>
<text text-anchor="middle" x="3260.83" y="-1904.3" font-family="Times,serif" font-size="14.00">UI</text>
</g>
<!-- u2 -->
<g id="node25" class="node">
<title>u2</title>
<ellipse fill="#7777ff" stroke="black" stroke-width="0" cx="2565.83" cy="-1908" rx="102.88" ry="18"/>
<text text-anchor="middle" x="2565.83" y="-1904.3" font-family="Times,serif" font-size="14.00">ExploreTimeSpaces</text>
</g>
<!-- u2&#45;&gt;u21 -->
<g id="edge45" class="edge">
<title>u2&#45;&gt;u21</title>
<path fill="none" stroke="black" d="M2542.96,-1890.36C2398.97,-1785.61 1618.61,-1217.89 1452.1,-1096.75"/>
<polygon fill="black" stroke="black" points="1453.9,-1093.73 1443.76,-1090.68 1449.78,-1099.39 1453.9,-1093.73"/>
</g>
<!-- u2&#45;&gt;u33 -->
<g id="edge61" class="edge">
<title>u2&#45;&gt;u33</title>
<path fill="none" stroke="black" d="M2603.12,-1891.21C2683.75,-1854.74 2872.94,-1756.03 2945.83,-1605 2967.76,-1559.56 3060.58,-1440.04 2928.83,-1039 2836.19,-757.02 2582.32,-485.84 2503.5,-406.33"/>
<polygon fill="black" stroke="black" points="2505.97,-403.85 2496.43,-399.24 2501.01,-408.79 2505.97,-403.85"/>
</g>
<!-- u3 -->
<g id="node26" class="node">
<title>u3</title>
<ellipse fill="#7777ff" stroke="black" stroke-width="0" cx="2968.83" cy="-1908" rx="50.89" ry="18"/>
<text text-anchor="middle" x="2968.83" y="-1904.3" font-family="Times,serif" font-size="14.00">Timeline</text>
</g>
<!-- u3&#45;&gt;u22 -->
<g id="edge46" class="edge">
<title>u3&#45;&gt;u22</title>
<path fill="none" stroke="black" d="M2937.57,-1893.62C2853.18,-1856.52 2616.14,-1745.71 2453.83,-1605 2263.89,-1440.34 2096.83,-1181.48 2046.37,-1099.67"/>
<polygon fill="black" stroke="black" points="2049.27,-1097.71 2041.06,-1091.01 2043.31,-1101.37 2049.27,-1097.71"/>
</g>
<!-- u3&#45;&gt;u17 -->
<g id="edge22" class="edge">
<title>u3&#45;&gt;u17</title>
<path fill="none" stroke="black" d="M2938.6,-1893.52C2929.16,-1889.55 2918.65,-1885.37 2908.83,-1882 2466.97,-1730.29 2341.95,-1740.43 1894.83,-1605 1286.44,-1420.73 1054.69,-1523.07 537.83,-1153 518.45,-1139.13 502.49,-1117.17 491.92,-1099.92"/>
<polygon fill="black" stroke="black" points="494.7,-1097.75 486.61,-1090.9 488.67,-1101.3 494.7,-1097.75"/>
</g>
<!-- u3&#45;&gt;u33 -->
<g id="edge62" class="edge">
<title>u3&#45;&gt;u33</title>
<path fill="none" stroke="black" d="M2971.71,-1889.74C2986.19,-1799.21 3046.93,-1370.73 2958.83,-1039 2910.09,-855.5 2872.72,-813.65 2759.83,-661 2680.96,-554.35 2561.2,-449.98 2507.54,-405.47"/>
<polygon fill="black" stroke="black" points="2509.45,-402.51 2499.51,-398.84 2505,-407.91 2509.45,-402.51"/>
</g>
<!-- u3&#45;&gt;u0 -->
<g id="edge1" class="edge">
<title>u3&#45;&gt;u0</title>
<path fill="none" stroke="black" d="M2973.05,-1889.96C2995.13,-1796.98 3090.22,-1344.01 2928.83,-1039 2831.56,-855.16 2590.43,-740.83 2497.84,-702.45"/>
<polygon fill="black" stroke="black" points="2498.91,-699.1 2488.33,-698.56 2496.26,-705.58 2498.91,-699.1"/>
</g>
<!-- u3&#45;&gt;u10 -->
<g id="edge17" class="edge">
<title>u3&#45;&gt;u10</title>
<path fill="none" stroke="black" d="M2948.62,-1891.28C2876.45,-1835.15 2631.27,-1644.45 2547.31,-1579.15"/>
<polygon fill="black" stroke="black" points="2549.28,-1576.25 2539.24,-1572.88 2544.99,-1581.78 2549.28,-1576.25"/>
</g>
<!-- u4 -->
<g id="node27" class="node">
<title>u4</title>
<ellipse fill="#7777ff" stroke="black" stroke-width="0" cx="2863.83" cy="-1908" rx="36.29" ry="18"/>
<text text-anchor="middle" x="2863.83" y="-1904.3" font-family="Times,serif" font-size="14.00">Index</text>
</g>
<!-- u4&#45;&gt;u29 -->
<g id="edge53" class="edge">
<title>u4&#45;&gt;u29</title>
<path fill="none" stroke="black" d="M2840.61,-1893.77C2833.65,-1889.89 2825.97,-1885.7 2818.83,-1882 2157.28,-1538.9 1926.61,-1569.79 1308.83,-1153 1285.07,-1136.97 1261.19,-1114.74 1244.47,-1097.95"/>
<polygon fill="black" stroke="black" points="1246.82,-1095.35 1237.32,-1090.66 1241.82,-1100.25 1246.82,-1095.35"/>
</g>
<!-- u6 -->
<g id="node29" class="node">
<title>u6</title>
<ellipse fill="#7777ff" stroke="black" stroke-width="0" cx="2784.83" cy="-1556" rx="57.39" ry="18"/>
<text text-anchor="middle" x="2784.83" y="-1552.3" font-family="Times,serif" font-size="14.00">TimeSpan</text>
</g>
<!-- u4&#45;&gt;u6 -->
<g id="edge11" class="edge">
<title>u4&#45;&gt;u6</title>
<path fill="none" stroke="black" d="M2859.91,-1889.64C2847.12,-1832.95 2806.48,-1652.92 2790.95,-1584.1"/>
<polygon fill="black" stroke="black" points="2794.29,-1583.03 2788.68,-1574.05 2787.47,-1584.57 2794.29,-1583.03"/>
</g>
<!-- u7 -->
<g id="node30" class="node">
<title>u7</title>
<ellipse fill="#7777ff" stroke="black" stroke-width="0" cx="2898.83" cy="-1556" rx="38.19" ry="18"/>
<text text-anchor="middle" x="2898.83" y="-1552.3" font-family="Times,serif" font-size="14.00">Event</text>
</g>
<!-- u4&#45;&gt;u7 -->
<g id="edge12" class="edge">
<title>u4&#45;&gt;u7</title>
<path fill="none" stroke="black" d="M2865.57,-1889.64C2871.24,-1832.95 2889.24,-1652.92 2896.12,-1584.1"/>
<polygon fill="black" stroke="black" points="2899.61,-1584.35 2897.13,-1574.05 2892.65,-1583.65 2899.61,-1584.35"/>
</g>
<!-- u4&#45;&gt;u9 -->
<g id="edge15" class="edge">
<title>u4&#45;&gt;u9</title>
<path fill="none" stroke="black" d="M2853.84,-1890.59C2819.75,-1834.57 2707.8,-1650.61 2666.4,-1582.59"/>
<polygon fill="black" stroke="black" points="2669.23,-1580.51 2661.04,-1573.78 2663.25,-1584.15 2669.23,-1580.51"/>
</g>
<!-- u5 -->
<g id="node28" class="node">
<title>u5</title>
<ellipse fill="#7777ff" stroke="black" stroke-width="0" cx="2747.83" cy="-1908" rx="61.99" ry="18"/>
<text text-anchor="middle" x="2747.83" y="-1904.3" font-family="Times,serif" font-size="14.00">TimeSpace</text>
</g>
<!-- u8 -->
<g id="node31" class="node">
<title>u8</title>
<ellipse fill="#7777ff" stroke="black" stroke-width="0" cx="2807.83" cy="-1073" rx="112.38" ry="18"/>
<text text-anchor="middle" x="2807.83" y="-1069.3" font-family="Times,serif" font-size="14.00">EventsAndTimeSpans</text>
</g>
<!-- u6&#45;&gt;u8 -->
<g id="edge13" class="edge">
<title>u6&#45;&gt;u8</title>
<path fill="none" stroke="black" d="M2785.65,-1537.88C2789.08,-1466.15 2802.31,-1189.42 2806.53,-1101.19"/>
<polygon fill="black" stroke="black" points="2810.03,-1101.32 2807.01,-1091.16 2803.04,-1100.99 2810.03,-1101.32"/>
</g>
<!-- u7&#45;&gt;u8 -->
<g id="edge14" class="edge">
<title>u7&#45;&gt;u8</title>
<path fill="none" stroke="black" d="M2895.59,-1537.88C2882.02,-1466.15 2829.67,-1189.42 2812.97,-1101.19"/>
<polygon fill="black" stroke="black" points="2816.38,-1100.34 2811.08,-1091.16 2809.5,-1101.64 2816.38,-1100.34"/>
</g>
<!-- u9&#45;&gt;u30 -->
<g id="edge57" class="edge">
<title>u9&#45;&gt;u30</title>
<path fill="none" stroke="black" d="M2635.75,-1538.58C2585.61,-1483.94 2419.91,-1303.24 2283.83,-1153 2267.28,-1134.73 2248.65,-1113.99 2234.63,-1098.35"/>
<polygon fill="black" stroke="black" points="2237.03,-1095.79 2227.75,-1090.68 2231.82,-1100.46 2237.03,-1095.79"/>
</g>
<!-- u9&#45;&gt;u29 -->
<g id="edge54" class="edge">
<title>u9&#45;&gt;u29</title>
<path fill="none" stroke="black" d="M2615.87,-1541.43C2605.6,-1537.59 2594.31,-1533.5 2583.83,-1530 2023.34,-1342.82 1823.87,-1442.69 1308.83,-1153 1283.54,-1138.78 1259.5,-1115.97 1243.12,-1098.52"/>
<polygon fill="black" stroke="black" points="1245.5,-1095.93 1236.16,-1090.92 1240.34,-1100.66 1245.5,-1095.93"/>
</g>
<!-- u9&#45;&gt;u33 -->
<g id="edge63" class="edge">
<title>u9&#45;&gt;u33</title>
<path fill="none" stroke="black" d="M2648.36,-1537.95C2635.28,-1447.53 2572.65,-1014.82 2520.83,-661 2507.36,-569.03 2491.23,-459.98 2483.86,-410.21"/>
<polygon fill="black" stroke="black" points="2487.31,-409.62 2482.39,-400.24 2480.39,-410.65 2487.31,-409.62"/>
</g>
<!-- u9&#45;&gt;u0 -->
<g id="edge2" class="edge">
<title>u9&#45;&gt;u0</title>
<path fill="none" stroke="black" d="M2647.03,-1537.68C2623.35,-1429.62 2495.94,-848.21 2466.78,-715.14"/>
<polygon fill="black" stroke="black" points="2470.12,-714.02 2464.56,-705 2463.28,-715.52 2470.12,-714.02"/>
</g>
<!-- u10&#45;&gt;u17 -->
<g id="edge23" class="edge">
<title>u10&#45;&gt;u17</title>
<path fill="none" stroke="black" d="M2466.46,-1549.41C2187.6,-1518.91 877.19,-1366.11 537.83,-1153 517.34,-1140.13 501.26,-1117.59 490.93,-1099.87"/>
<polygon fill="black" stroke="black" points="493.98,-1098.16 486.06,-1091.12 487.87,-1101.56 493.98,-1098.16"/>
</g>
<!-- u10&#45;&gt;u33 -->
<g id="edge64" class="edge">
<title>u10&#45;&gt;u33</title>
<path fill="none" stroke="black" d="M2519.08,-1537.94C2520.31,-1447.44 2524.9,-1014.4 2505.83,-661 2500.86,-568.78 2488.88,-459.85 2483.09,-410.16"/>
<polygon fill="black" stroke="black" points="2486.56,-409.73 2481.92,-400.21 2479.61,-410.55 2486.56,-409.73"/>
</g>
<!-- u10&#45;&gt;u0 -->
<g id="edge3" class="edge">
<title>u10&#45;&gt;u0</title>
<path fill="none" stroke="black" d="M2517.6,-1537.76C2513.62,-1482.09 2500.83,-1302.03 2490.83,-1153 2479.68,-986.78 2467.06,-787.09 2462.54,-715.33"/>
<polygon fill="black" stroke="black" points="2466.04,-715.08 2461.92,-705.31 2459.05,-715.51 2466.04,-715.08"/>
</g>
<!-- u11&#45;&gt;u18 -->
<g id="edge25" class="edge">
<title>u11&#45;&gt;u18</title>
<path fill="none" stroke="black" d="M3074.51,-1893.33C2917.2,-1852.06 2434.92,-1724.17 2038.83,-1605 1883.01,-1558.12 774.36,-1252.79 645.83,-1153 628.25,-1139.35 615.16,-1117.67 606.79,-1100.47"/>
<polygon fill="black" stroke="black" points="609.78,-1098.57 602.41,-1090.95 603.42,-1101.5 609.78,-1098.57"/>
</g>
<!-- u11&#45;&gt;u25 -->
<g id="edge50" class="edge">
<title>u11&#45;&gt;u25</title>
<path fill="none" stroke="black" d="M3077.67,-1892.95C2849.45,-1826.78 1873.15,-1533.54 1134.83,-1153 1103.21,-1136.7 1069.75,-1113.68 1046.57,-1096.69"/>
<polygon fill="black" stroke="black" points="1048.64,-1093.87 1038.52,-1090.73 1044.47,-1099.49 1048.64,-1093.87"/>
</g>
<!-- u11&#45;&gt;u33 -->
<g id="edge65" class="edge">
<title>u11&#45;&gt;u33</title>
<path fill="none" stroke="black" d="M3126.66,-1889.63C3125.93,-1835.91 3122.25,-1667.79 3103.83,-1530 3049.62,-1124.43 3054.93,-980.92 2799.83,-661 2710.84,-549.4 2573,-447.32 2511.42,-404.4"/>
<polygon fill="black" stroke="black" points="2513.12,-401.32 2502.9,-398.51 2509.13,-407.08 2513.12,-401.32"/>
</g>
<!-- u11&#45;&gt;u0 -->
<g id="edge4" class="edge">
<title>u11&#45;&gt;u0</title>
<path fill="none" stroke="black" d="M3125.4,-1889.83C3116.09,-1781.16 3061.42,-1188.54 2964.83,-1039 2845.95,-854.95 2593.21,-740.23 2498.08,-702.11"/>
<polygon fill="black" stroke="black" points="2499.17,-698.78 2488.59,-698.35 2496.6,-705.29 2499.17,-698.78"/>
</g>
</g>
</svg>
