<?xml version="1.0" encoding="UTF-8" standalone="no"?>
<!DOCTYPE svg PUBLIC "-//W3C//DTD SVG 1.1//EN"
 "http://www.w3.org/Graphics/SVG/1.1/DTD/svg11.dtd">
<!-- Generated by graphviz version 2.40.1 (20161225.0304)
 -->
<!-- Title: Modules Pages: 1 -->
<svg width="864pt" height="559pt"
 viewBox="0.00 0.00 864.00 559.17" xmlns="http://www.w3.org/2000/svg" xmlns:xlink="http://www.w3.org/1999/xlink">
<g id="graph0" class="graph" transform="scale(.2659 .2659) rotate(0) translate(4 2098.6667)">
<title>Modules</title>
<polygon fill="#ffffff" stroke="transparent" points="-4,4 -4,-2098.6667 3244.9566,-2098.6667 3244.9566,4 -4,4"/>
<g id="clust1" class="cluster">
<title>cluster_0</title>
<polygon fill="#000000" fill-opacity="0.058824" stroke="#000000" stroke-opacity="0.058824" points="132.3729,-529.5068 132.3729,-1296.513 2009.3729,-1296.513 2009.3729,-529.5068 132.3729,-529.5068"/>
<text text-anchor="middle" x="1070.8729" y="-1281.313" font-family="Times,serif" font-size="14.00" fill="#000000">Components</text>
</g>
<g id="clust2" class="cluster">
<title>cluster_1</title>
<polygon fill="#000000" fill-opacity="0.058824" stroke="#000000" stroke-opacity="0.058824" points="661.3729,-883.8092 661.3729,-1175.8166 1904.3729,-1175.8166 1904.3729,-883.8092 661.3729,-883.8092"/>
<text text-anchor="middle" x="1282.8729" y="-1160.6166" font-family="Times,serif" font-size="14.00" fill="#000000">Dialogs</text>
</g>
<g id="clust3" class="cluster">
<title>cluster_2</title>
<polygon fill="#000000" fill-opacity="0.058824" stroke="#000000" stroke-opacity="0.058824" points="140.3729,-883.8092 140.3729,-1175.8166 447.3729,-1175.8166 447.3729,-883.8092 140.3729,-883.8092"/>
<text text-anchor="middle" x="293.8729" y="-1160.6166" font-family="Times,serif" font-size="14.00" fill="#000000">Drawers</text>
</g>
<g id="clust4" class="cluster">
<title>cluster_3</title>
<polygon fill="#000000" fill-opacity="0.058824" stroke="#000000" stroke-opacity="0.058824" points="785.3729,-1327.6605 785.3729,-1619.6679 901.3729,-1619.6679 901.3729,-1327.6605 785.3729,-1327.6605"/>
<text text-anchor="middle" x="843.3729" y="-1604.4679" font-family="Times,serif" font-size="14.00" fill="#000000">MaterialUI</text>
</g>
<g id="clust5" class="cluster">
<title>cluster_4</title>
<polygon fill="#000000" fill-opacity="0.058824" stroke="#000000" stroke-opacity="0.058824" points="2017.3729,-249.1797 2017.3729,-821.5143 2123.3729,-821.5143 2123.3729,-249.1797 2017.3729,-249.1797"/>
<text text-anchor="middle" x="2070.3729" y="-806.3143" font-family="Times,serif" font-size="14.00" fill="#000000">Plumbing</text>
</g>
<g id="clust6" class="cluster">
<title>cluster_5</title>
<polygon fill="#000000" fill-opacity="0.058824" stroke="#000000" stroke-opacity="0.058824" points="2089.3729,-1771.5118 2089.3729,-2063.5192 2199.3729,-2063.5192 2199.3729,-1771.5118 2089.3729,-1771.5118"/>
<text text-anchor="middle" x="2144.3729" y="-2048.3192" font-family="Times,serif" font-size="14.00" fill="#000000">Scripts</text>
</g>
<g id="clust7" class="cluster">
<title>cluster_6</title>
<polygon fill="#000000" fill-opacity="0.058824" stroke="#000000" stroke-opacity="0.058824" points="2047.3729,-852.6617 2047.3729,-1740.3643 3166.3729,-1740.3643 3166.3729,-852.6617 2047.3729,-852.6617"/>
<text text-anchor="middle" x="2606.8729" y="-1725.1643" font-family="Times,serif" font-size="14.00" fill="#000000">Timeline</text>
</g>
<g id="clust8" class="cluster">
<title>cluster_7</title>
<polygon fill="#000000" fill-opacity="0.058824" stroke="#000000" stroke-opacity="0.058824" points="2055.3729,-883.8092 2055.3729,-1619.6679 3158.3729,-1619.6679 3158.3729,-883.8092 2055.3729,-883.8092"/>
<text text-anchor="middle" x="2606.8729" y="-1604.4679" font-family="Times,serif" font-size="14.00" fill="#000000">UI</text>
</g>
<!-- u17 -->
<g id="node1" class="node">
<title>u17</title>
<ellipse fill="#bbffbb" stroke="#000000" stroke-width="0" cx="1073.3729" cy="-1873" rx="38.9931" ry="18"/>
<text text-anchor="middle" x="1073.3729" y="-1869.3" font-family="Times,serif" font-size="14.00" fill="#000000">Settings</text>
</g>
<!-- u9 -->
<g id="node4" class="node">
<title>u9</title>
<ellipse fill="#ffffbb" stroke="#000000" stroke-width="0" cx="1002.3729" cy="-631" rx="30.5947" ry="18"/>
<text text-anchor="middle" x="1002.3729" y="-627.3" font-family="Times,serif" font-size="14.00" fill="#000000">Index</text>
</g>
<!-- u17&#45;&gt;u9 -->
<g id="edge26" class="edge">
<title>u17&#45;&gt;u9</title>
<path fill="none" stroke="#000000" d="M1042.5617,-1861.7144C893.2848,-1805.0989 243.4738,-1535.9448 23.3729,-1065 -155.5512,-682.1604 755.0326,-637.0164 961.4661,-631.706"/>
<polygon fill="#000000" stroke="#000000" points="961.6725,-635.2021 971.5858,-631.4636 961.5048,-628.2042 961.6725,-635.2021"/>
</g>
<!-- u11 -->
<g id="node6" class="node">
<title>u11</title>
<ellipse fill="#ffffbb" stroke="#000000" stroke-width="0" cx="495.3729" cy="-985" rx="37.8943" ry="18"/>
<text text-anchor="middle" x="495.3729" y="-981.3" font-family="Times,serif" font-size="14.00" fill="#000000">TopBar</text>
</g>
<!-- u17&#45;&gt;u11 -->
<g id="edge28" class="edge">
<title>u17&#45;&gt;u11</title>
<path fill="none" stroke="#000000" d="M1070.2821,-1854.9361C1056.246,-1773.4906 998.1247,-1442.6828 973.3729,-1403 844.5397,-1196.4515 702.6084,-1248.2617 542.3729,-1065 528.3686,-1048.9832 516.3041,-1028.1988 507.9056,-1011.8297"/>
<polygon fill="#000000" stroke="#000000" points="510.9864,-1010.1645 503.3973,-1002.7715 504.7196,-1013.2835 510.9864,-1010.1645"/>
</g>
<!-- u0 -->
<g id="node8" class="node">
<title>u0</title>
<ellipse fill="#bbbbff" stroke="#000000" stroke-width="0" cx="1002.3729" cy="-985" rx="53.8905" ry="18"/>
<text text-anchor="middle" x="1002.3729" y="-981.3" font-family="Times,serif" font-size="14.00" fill="#000000">SettingsEdit</text>
</g>
<!-- u17&#45;&gt;u0 -->
<g id="edge1" class="edge">
<title>u17&#45;&gt;u0</title>
<path fill="none" stroke="#000000" d="M1072.8371,-1854.6085C1070.9148,-1791.5774 1063.7059,-1578.4868 1049.3729,-1403 1037.3784,-1256.1447 1015.0951,-1081.1223 1006.1922,-1013.5576"/>
<polygon fill="#000000" stroke="#000000" points="1009.6159,-1012.7502 1004.8338,-1003.2961 1002.6765,-1013.6689 1009.6159,-1012.7502"/>
</g>
<!-- u4 -->
<g id="node12" class="node">
<title>u4</title>
<ellipse fill="#bbbbff" stroke="#000000" stroke-width="0" cx="1138.3729" cy="-985" rx="63.8893" ry="18"/>
<text text-anchor="middle" x="1138.3729" y="-981.3" font-family="Times,serif" font-size="14.00" fill="#000000">TimeScaleEdit</text>
</g>
<!-- u17&#45;&gt;u4 -->
<g id="edge4" class="edge">
<title>u17&#45;&gt;u4</title>
<path fill="none" stroke="#000000" d="M1074.7007,-1854.8595C1082.8694,-1743.2625 1126.286,-1150.1247 1136.3078,-1013.2126"/>
<polygon fill="#000000" stroke="#000000" points="1139.8077,-1013.3406 1137.0471,-1003.1117 1132.8263,-1012.8295 1139.8077,-1013.3406"/>
</g>
<!-- u5 -->
<g id="node13" class="node">
<title>u5</title>
<ellipse fill="#bbbbff" stroke="#000000" stroke-width="0" cx="843.3729" cy="-985" rx="87.1846" ry="18"/>
<text text-anchor="middle" x="843.3729" y="-981.3" font-family="Times,serif" font-size="14.00" fill="#000000">TimeSpaceNameEdit</text>
</g>
<!-- u17&#45;&gt;u5 -->
<g id="edge7" class="edge">
<title>u17&#45;&gt;u5</title>
<path fill="none" stroke="#000000" d="M1072.6102,-1854.7562C1069.6141,-1791.3351 1056.5012,-1574.9537 1011.3729,-1403 971.2436,-1250.0942 889.7536,-1078.0663 857.2314,-1012.431"/>
<polygon fill="#000000" stroke="#000000" points="860.2147,-1010.5704 852.6221,-1003.181 853.9495,-1013.6924 860.2147,-1010.5704"/>
</g>
<!-- u13 -->
<g id="node17" class="node">
<title>u13</title>
<ellipse fill="#ffbbbb" stroke="#000000" stroke-width="0" cx="287.3729" cy="-985" rx="41.6928" ry="18"/>
<text text-anchor="middle" x="287.3729" y="-981.3" font-family="Times,serif" font-size="14.00" fill="#000000">Children</text>
</g>
<!-- u17&#45;&gt;u13 -->
<g id="edge31" class="edge">
<title>u17&#45;&gt;u13</title>
<path fill="none" stroke="#000000" d="M1065.9197,-1855.0189C1044.2352,-1802.37 979.8956,-1643.7612 935.3729,-1509 920.0134,-1462.51 935.1796,-1441.8432 905.3729,-1403 726.7705,-1170.2514 548.9084,-1269.3172 338.3729,-1065 322.6623,-1049.7535 309.5177,-1028.7737 300.5096,-1012.1239"/>
<polygon fill="#000000" stroke="#000000" points="303.4244,-1010.144 295.6956,-1002.8972 297.2183,-1013.3821 303.4244,-1010.144"/>
</g>
<!-- u14 -->
<g id="node18" class="node">
<title>u14</title>
<ellipse fill="#ffbbbb" stroke="#000000" stroke-width="0" cx="393.3729" cy="-985" rx="46.2923" ry="18"/>
<text text-anchor="middle" x="393.3729" y="-981.3" font-family="Times,serif" font-size="14.00" fill="#000000">Timelines</text>
</g>
<!-- u17&#45;&gt;u14 -->
<g id="edge32" class="edge">
<title>u17&#45;&gt;u14</title>
<path fill="none" stroke="#000000" d="M1068.4862,-1855.1246C1045.5876,-1771.5285 949.4259,-1422.387 935.3729,-1403 779.6713,-1188.2004 626.8562,-1256.6134 443.3729,-1065 428.4116,-1049.3758 415.579,-1028.5788 406.6611,-1012.1056"/>
<polygon fill="#000000" stroke="#000000" points="409.6191,-1010.2097 401.8763,-1002.9779 403.4193,-1013.4598 409.6191,-1010.2097"/>
</g>
<!-- u15 -->
<g id="node19" class="node">
<title>u15</title>
<ellipse fill="#ffbbbb" stroke="#000000" stroke-width="0" cx="188.3729" cy="-985" rx="39.7935" ry="18"/>
<text text-anchor="middle" x="188.3729" y="-981.3" font-family="Times,serif" font-size="14.00" fill="#000000">Siblings</text>
</g>
<!-- u17&#45;&gt;u15 -->
<g id="edge35" class="edge">
<title>u17&#45;&gt;u15</title>
<path fill="none" stroke="#000000" d="M1053.611,-1857.2919C956.2371,-1779.2504 520.7593,-1422.691 236.3729,-1065 223.1436,-1048.3607 210.8631,-1027.7562 202.0355,-1011.6253"/>
<polygon fill="#000000" stroke="#000000" points="205.0651,-1009.8686 197.2559,-1002.7084 198.8955,-1013.1756 205.0651,-1009.8686"/>
</g>
<!-- u16 -->
<g id="node21" class="node">
<title>u16</title>
<ellipse fill="#bbffbb" stroke="#000000" stroke-width="2" cx="2070.3729" cy="-350" rx="45.4919" ry="18"/>
<text text-anchor="middle" x="2070.3729" y="-346.3" font-family="Times,serif" font-size="14.00" fill="#000000">Plumbing</text>
</g>
<!-- u17&#45;&gt;u16 -->
<g id="edge41" class="edge">
<title>u17&#45;&gt;u16</title>
<path fill="none" stroke="#000000" d="M1112.5005,-1872.7555C1377.1938,-1870.2079 2903.6415,-1841.1203 3183.3729,-1509 3219.4632,-1466.1506 3301.3401,-1174.1163 3162.3729,-951 2914.2081,-552.5636 2302.5895,-397.8446 2121.6116,-359.8878"/>
<polygon fill="#000000" stroke="#000000" points="2122.0663,-356.4078 2111.5645,-357.8084 2120.6475,-363.2625 2122.0663,-356.4078"/>
</g>
<!-- u20 -->
<g id="node22" class="node">
<title>u20</title>
<ellipse fill="#ffbbff" stroke="#000000" stroke-width="0" cx="2056.3729" cy="-631" rx="31.3957" ry="18"/>
<text text-anchor="middle" x="2056.3729" y="-627.3" font-family="Times,serif" font-size="14.00" fill="#000000">Logic</text>
</g>
<!-- u17&#45;&gt;u20 -->
<g id="edge55" class="edge">
<title>u17&#45;&gt;u20</title>
<path fill="none" stroke="#000000" d="M1100.2532,-1859.8729C1229.4033,-1795.1777 1789.138,-1495.9642 2013.3729,-1065 2050.2853,-994.0568 2055.5586,-744.6873 2056.2742,-659.656"/>
<polygon fill="#000000" stroke="#000000" points="2059.7755,-659.4744 2056.3444,-649.4506 2052.7756,-659.4263 2059.7755,-659.4744"/>
</g>
<!-- u26 -->
<g id="node27" class="node">
<title>u26</title>
<ellipse fill="#7777ff" stroke="#000000" stroke-width="0" cx="2447.3729" cy="-1429" rx="72.2875" ry="18"/>
<text text-anchor="middle" x="2447.3729" y="-1425.3" font-family="Times,serif" font-size="14.00" fill="#000000">TimeSpaceName</text>
</g>
<!-- u17&#45;&gt;u26 -->
<g id="edge60" class="edge">
<title>u17&#45;&gt;u26</title>
<path fill="none" stroke="#000000" d="M1111.7801,-1869.2467C1274.4204,-1851.966 1918.5981,-1769.4379 2366.3729,-1509 2390.375,-1495.0397 2412.4267,-1472.3097 2427.4406,-1454.6391"/>
<polygon fill="#000000" stroke="#000000" points="2430.1449,-1456.8609 2433.8253,-1446.9259 2424.7526,-1452.3974 2430.1449,-1456.8609"/>
</g>
<!-- u28 -->
<g id="node29" class="node">
<title>u28</title>
<ellipse fill="#7777ff" stroke="#000000" stroke-width="0" cx="2665.3729" cy="-1429" rx="48.9926" ry="18"/>
<text text-anchor="middle" x="2665.3729" y="-1425.3" font-family="Times,serif" font-size="14.00" fill="#000000">TimeScale</text>
</g>
<!-- u17&#45;&gt;u28 -->
<g id="edge61" class="edge">
<title>u17&#45;&gt;u28</title>
<path fill="none" stroke="#000000" d="M1110.9302,-1867.7463C1320.7343,-1837.8645 2347.6235,-1684.4492 2608.3729,-1509 2627.8321,-1495.9066 2642.8343,-1473.7921 2652.5521,-1456.1284"/>
<polygon fill="#000000" stroke="#000000" points="2655.8673,-1457.3418 2657.402,-1446.8587 2649.6649,-1454.0967 2655.8673,-1457.3418"/>
</g>
<!-- u32 -->
<g id="node33" class="node">
<title>u32</title>
<ellipse fill="#7777ff" stroke="#000000" stroke-width="0" cx="2379.3729" cy="-985" rx="46.2923" ry="18"/>
<text text-anchor="middle" x="2379.3729" y="-981.3" font-family="Times,serif" font-size="14.00" fill="#000000">Timelines</text>
</g>
<!-- u17&#45;&gt;u32 -->
<g id="edge62" class="edge">
<title>u17&#45;&gt;u32</title>
<path fill="none" stroke="#000000" d="M1112.4817,-1872.6726C1375.3918,-1869.5791 2883.1952,-1837.5429 3159.3729,-1509 3189.6873,-1472.9377 3183.571,-1443.4216 3159.3729,-1403 2994.4557,-1127.5158 2578.99,-1023.2487 2431.948,-994.2422"/>
<polygon fill="#000000" stroke="#000000" points="2432.3151,-990.7483 2421.832,-992.2824 2430.9837,-997.6205 2432.3151,-990.7483"/>
</g>
<!-- u18 -->
<g id="node2" class="node">
<title>u18</title>
<ellipse fill="#bbffbb" stroke="#000000" stroke-width="0" cx="1784.3729" cy="-70" rx="29.795" ry="18"/>
<text text-anchor="middle" x="1784.3729" y="-66.3" font-family="Times,serif" font-size="14.00" fill="#000000">Main</text>
</g>
<!-- u19 -->
<g id="node3" class="node">
<title>u19</title>
<ellipse fill="#bbffbb" stroke="#000000" stroke-width="0" cx="78.3729" cy="-985" rx="46.2923" ry="18"/>
<text text-anchor="middle" x="78.3729" y="-981.3" font-family="Times,serif" font-size="14.00" fill="#000000">WithRoot</text>
</g>
<!-- u19&#45;&gt;u9 -->
<g id="edge27" class="edge">
<title>u19&#45;&gt;u9</title>
<path fill="none" stroke="#000000" d="M102.4075,-969.6268C112.6517,-963.4148 124.8735,-956.443 136.3729,-951 446.7326,-804.0976 844.099,-678.9697 965.5149,-642.046"/>
<polygon fill="#000000" stroke="#000000" points="966.5379,-645.3932 975.0925,-639.1425 964.5071,-638.6942 966.5379,-645.3932"/>
</g>
<!-- u9&#45;&gt;u18 -->
<g id="edge48" class="edge">
<title>u9&#45;&gt;u18</title>
<path fill="none" stroke="#000000" d="M1022.0944,-616.8519C1128.3889,-540.5972 1632.8181,-178.7241 1756.7999,-89.7806"/>
<polygon fill="#000000" stroke="#000000" points="1758.9732,-92.5291 1765.0584,-83.856 1754.8928,-86.8413 1758.9732,-92.5291"/>
</g>
<!-- u10 -->
<g id="node5" class="node">
<title>u10</title>
<ellipse fill="#ffffbb" stroke="#000000" stroke-width="0" cx="1957.3729" cy="-985" rx="43.5923" ry="18"/>
<text text-anchor="middle" x="1957.3729" y="-981.3" font-family="Times,serif" font-size="14.00" fill="#000000">Snackbar</text>
</g>
<!-- u10&#45;&gt;u9 -->
<g id="edge19" class="edge">
<title>u10&#45;&gt;u9</title>
<path fill="none" stroke="#000000" d="M1936.6816,-968.8108C1928.2232,-962.6893 1918.143,-956.0006 1908.3729,-951 1589.5349,-787.8102 1168.1963,-673.2558 1040.5872,-640.551"/>
<polygon fill="#000000" stroke="#000000" points="1041.0849,-637.066 1030.5302,-637.9876 1039.3559,-643.8491 1041.0849,-637.066"/>
</g>
<!-- u10&#45;&gt;u16 -->
<g id="edge40" class="edge">
<title>u10&#45;&gt;u16</title>
<path fill="none" stroke="#000000" d="M1959.8459,-966.747C1967.3596,-911.86 1990.965,-743.5589 2016.3729,-605 2031.555,-522.2058 2053.1839,-425.1006 2063.8755,-378.1928"/>
<polygon fill="#000000" stroke="#000000" points="2067.3489,-378.7041 2066.1667,-368.1754 2060.5251,-377.1433 2067.3489,-378.7041"/>
</g>
<!-- u10&#45;&gt;u20 -->
<g id="edge54" class="edge">
<title>u10&#45;&gt;u20</title>
<path fill="none" stroke="#000000" d="M1962.4184,-966.9584C1978.5718,-909.1977 2029.0925,-728.5479 2048.5891,-658.833"/>
<polygon fill="#000000" stroke="#000000" points="2052.0148,-659.5784 2051.3375,-649.0053 2045.2735,-657.6931 2052.0148,-659.5784"/>
</g>
<!-- u11&#45;&gt;u9 -->
<g id="edge20" class="edge">
<title>u11&#45;&gt;u9</title>
<path fill="none" stroke="#000000" d="M516.3702,-969.6843C524.4719,-963.8079 533.8305,-957.0603 542.3729,-951 704.4458,-836.0194 900.7412,-700.7972 973.4624,-650.8379"/>
<polygon fill="#000000" stroke="#000000" points="975.8411,-653.4502 982.1028,-644.9038 971.8781,-647.68 975.8411,-653.4502"/>
</g>
<!-- u12 -->
<g id="node7" class="node">
<title>u12</title>
<ellipse fill="#ffffbb" stroke="#000000" stroke-width="0" cx="601.3729" cy="-985" rx="50.0912" ry="18"/>
<text text-anchor="middle" x="601.3729" y="-981.3" font-family="Times,serif" font-size="14.00" fill="#000000">BottomBar</text>
</g>
<!-- u12&#45;&gt;u9 -->
<g id="edge21" class="edge">
<title>u12&#45;&gt;u9</title>
<path fill="none" stroke="#000000" d="M620.4442,-968.164C686.0878,-910.2142 902.7331,-718.9613 977.0726,-653.3349"/>
<polygon fill="#000000" stroke="#000000" points="979.8363,-655.5639 985.0167,-646.3219 975.2036,-650.3161 979.8363,-655.5639"/>
</g>
<!-- u0&#45;&gt;u9 -->
<g id="edge10" class="edge">
<title>u0&#45;&gt;u9</title>
<path fill="none" stroke="#000000" d="M1002.3729,-966.9584C1002.3729,-909.3163 1002.3729,-729.2893 1002.3729,-659.2639"/>
<polygon fill="#000000" stroke="#000000" points="1005.873,-659.0052 1002.3729,-649.0053 998.873,-659.0053 1005.873,-659.0052"/>
</g>
<!-- u1 -->
<g id="node9" class="node">
<title>u1</title>
<ellipse fill="#bbbbff" stroke="#000000" stroke-width="0" cx="1829.3729" cy="-985" rx="66.8882" ry="18"/>
<text text-anchor="middle" x="1829.3729" y="-981.3" font-family="Times,serif" font-size="14.00" fill="#000000">DangerConfirm</text>
</g>
<!-- u1&#45;&gt;u9 -->
<g id="edge11" class="edge">
<title>u1&#45;&gt;u9</title>
<path fill="none" stroke="#000000" d="M1795.0023,-969.4676C1781.9847,-963.6259 1767.0169,-956.9582 1753.3729,-951 1477.8602,-830.6858 1143.2906,-690.0445 1036.7078,-645.3729"/>
<polygon fill="#000000" stroke="#000000" points="1037.9767,-642.1098 1027.401,-641.4733 1035.2715,-648.566 1037.9767,-642.1098"/>
</g>
<!-- u1&#45;&gt;u16 -->
<g id="edge36" class="edge">
<title>u1&#45;&gt;u16</title>
<path fill="none" stroke="#000000" d="M1829.269,-966.798C1829.5509,-910.6566 1834.961,-736.0719 1888.3729,-605 1927.0181,-510.1652 2007.266,-416.8924 2047.0171,-374.1822"/>
<polygon fill="#000000" stroke="#000000" points="2049.6509,-376.4905 2053.9491,-366.8067 2044.5501,-371.6965 2049.6509,-376.4905"/>
</g>
<!-- u1&#45;&gt;u20 -->
<g id="edge50" class="edge">
<title>u1&#45;&gt;u20</title>
<path fill="none" stroke="#000000" d="M1840.9419,-966.9584C1878.3816,-908.5722 1996.3391,-724.621 2039.9523,-656.6075"/>
<polygon fill="#000000" stroke="#000000" points="2042.9114,-658.4767 2045.3631,-648.1695 2037.0188,-654.6981 2042.9114,-658.4767"/>
</g>
<!-- u2 -->
<g id="node10" class="node">
<title>u2</title>
<ellipse fill="#bbbbff" stroke="#000000" stroke-width="0" cx="1485.3729" cy="-985" rx="83.3857" ry="18"/>
<text text-anchor="middle" x="1485.3729" y="-981.3" font-family="Times,serif" font-size="14.00" fill="#000000">NewOrEditTimeline</text>
</g>
<!-- u2&#45;&gt;u9 -->
<g id="edge12" class="edge">
<title>u2&#45;&gt;u9</title>
<path fill="none" stroke="#000000" d="M1461.7498,-967.6862C1380.9986,-908.5021 1116.1857,-714.4156 1029.8542,-651.1416"/>
<polygon fill="#000000" stroke="#000000" points="1031.7404,-648.1846 1021.6057,-645.0961 1027.6023,-653.8306 1031.7404,-648.1846"/>
</g>
<!-- u2&#45;&gt;u16 -->
<g id="edge37" class="edge">
<title>u2&#45;&gt;u16</title>
<path fill="none" stroke="#000000" d="M1496.7986,-966.8549C1532.9336,-910.1528 1649.4507,-732.4748 1769.3729,-605 1859.5397,-509.1545 1983.9137,-413.5378 2040.3565,-371.7963"/>
<polygon fill="#000000" stroke="#000000" points="2042.521,-374.549 2048.498,-365.8011 2038.3703,-368.9124 2042.521,-374.549"/>
</g>
<!-- u2&#45;&gt;u20 -->
<g id="edge51" class="edge">
<title>u2&#45;&gt;u20</title>
<path fill="none" stroke="#000000" d="M1512.9134,-967.9258C1608.7219,-908.5279 1927.0283,-711.1891 2026.4411,-649.5567"/>
<polygon fill="#000000" stroke="#000000" points="2028.4432,-652.4335 2035.0982,-644.1896 2024.7548,-646.4841 2028.4432,-652.4335"/>
</g>
<!-- u3 -->
<g id="node11" class="node">
<title>u3</title>
<ellipse fill="#bbbbff" stroke="#000000" stroke-width="0" cx="1302.3729" cy="-985" rx="81.7856" ry="18"/>
<text text-anchor="middle" x="1302.3729" y="-981.3" font-family="Times,serif" font-size="14.00" fill="#000000">ExploreTimeSpaces</text>
</g>
<!-- u3&#45;&gt;u9 -->
<g id="edge13" class="edge">
<title>u3&#45;&gt;u9</title>
<path fill="none" stroke="#000000" d="M1287.0834,-966.9584C1237.2736,-908.1828 1079.6286,-722.1618 1022.9341,-655.2622"/>
<polygon fill="#000000" stroke="#000000" points="1025.3654,-652.7175 1016.23,-647.3514 1020.0251,-657.2432 1025.3654,-652.7175"/>
</g>
<!-- u4&#45;&gt;u9 -->
<g id="edge14" class="edge">
<title>u4&#45;&gt;u9</title>
<path fill="none" stroke="#000000" d="M1131.4416,-966.9584C1109.1539,-908.9448 1039.2403,-726.9637 1012.7164,-657.9237"/>
<polygon fill="#000000" stroke="#000000" points="1015.9823,-656.6648 1009.1288,-648.5852 1009.4479,-659.1752 1015.9823,-656.6648"/>
</g>
<!-- u5&#45;&gt;u9 -->
<g id="edge15" class="edge">
<title>u5&#45;&gt;u9</title>
<path fill="none" stroke="#000000" d="M851.4763,-966.9584C877.5332,-908.9448 959.2705,-726.9637 990.28,-657.9237"/>
<polygon fill="#000000" stroke="#000000" points="993.5699,-659.1413 994.4745,-648.5852 987.1844,-656.2732 993.5699,-659.1413"/>
</g>
<!-- u6 -->
<g id="node14" class="node">
<title>u6</title>
<ellipse fill="#bbbbff" stroke="#000000" stroke-width="0" cx="703.3729" cy="-985" rx="34.394" ry="18"/>
<text text-anchor="middle" x="703.3729" y="-981.3" font-family="Times,serif" font-size="14.00" fill="#000000">EULA</text>
</g>
<!-- u6&#45;&gt;u9 -->
<g id="edge16" class="edge">
<title>u6&#45;&gt;u9</title>
<path fill="none" stroke="#000000" d="M717.3932,-968.4007C765.6673,-911.2467 925.1477,-722.4305 982.0108,-655.1076"/>
<polygon fill="#000000" stroke="#000000" points="984.9482,-657.0541 988.727,-647.156 979.6004,-652.5372 984.9482,-657.0541"/>
</g>
<!-- u7 -->
<g id="node15" class="node">
<title>u7</title>
<ellipse fill="#bbbbff" stroke="#000000" stroke-width="0" cx="1621.3729" cy="-985" rx="34.394" ry="18"/>
<text text-anchor="middle" x="1621.3729" y="-981.3" font-family="Times,serif" font-size="14.00" fill="#000000">Export</text>
</g>
<!-- u7&#45;&gt;u9 -->
<g id="edge17" class="edge">
<title>u7&#45;&gt;u9</title>
<path fill="none" stroke="#000000" d="M1602.5563,-969.4615C1594.9284,-963.4297 1585.9163,-956.6324 1577.3729,-951 1379.5124,-820.5571 1124.758,-691.3978 1035.2322,-647.0926"/>
<polygon fill="#000000" stroke="#000000" points="1036.631,-643.88 1026.1148,-642.5916 1033.5323,-650.1567 1036.631,-643.88"/>
</g>
<!-- u7&#45;&gt;u16 -->
<g id="edge38" class="edge">
<title>u7&#45;&gt;u16</title>
<path fill="none" stroke="#000000" d="M1628.3655,-967.2836C1650.9885,-911.11 1726.1599,-733.1344 1819.3729,-605 1888.951,-509.355 1993.8762,-414.9248 2043.0813,-372.81"/>
<polygon fill="#000000" stroke="#000000" points="2045.4175,-375.4178 2050.7653,-366.2716 2040.8811,-370.0866 2045.4175,-375.4178"/>
</g>
<!-- u7&#45;&gt;u20 -->
<g id="edge52" class="edge">
<title>u7&#45;&gt;u20</title>
<path fill="none" stroke="#000000" d="M1640.0643,-969.7891C1709.1018,-913.6068 1949.8692,-717.6719 2030.1185,-652.3656"/>
<polygon fill="#000000" stroke="#000000" points="2032.6882,-654.7869 2038.2353,-645.7602 2028.2698,-649.3576 2032.6882,-654.7869"/>
</g>
<!-- u8 -->
<g id="node16" class="node">
<title>u8</title>
<ellipse fill="#bbbbff" stroke="#000000" stroke-width="0" cx="1709.3729" cy="-985" rx="35.194" ry="18"/>
<text text-anchor="middle" x="1709.3729" y="-981.3" font-family="Times,serif" font-size="14.00" fill="#000000">Import</text>
</g>
<!-- u8&#45;&gt;u9 -->
<g id="edge18" class="edge">
<title>u8&#45;&gt;u9</title>
<path fill="none" stroke="#000000" d="M1690.6895,-969.5782C1682.8147,-963.4284 1673.3958,-956.5153 1664.3729,-951 1436.166,-811.5066 1138.064,-685.9948 1037.3444,-645.0191"/>
<polygon fill="#000000" stroke="#000000" points="1038.5315,-641.7237 1027.9491,-641.2095 1035.9011,-648.2107 1038.5315,-641.7237"/>
</g>
<!-- u8&#45;&gt;u16 -->
<g id="edge39" class="edge">
<title>u8&#45;&gt;u16</title>
<path fill="none" stroke="#000000" d="M1714.3247,-967.0636C1730.2542,-910.9715 1783.6458,-734.8838 1860.3729,-605 1915.5455,-511.6036 2003.8268,-417.0162 2046.1746,-373.9817"/>
<polygon fill="#000000" stroke="#000000" points="2048.7382,-376.3671 2053.2885,-366.7991 2043.7647,-371.4411 2048.7382,-376.3671"/>
</g>
<!-- u8&#45;&gt;u20 -->
<g id="edge53" class="edge">
<title>u8&#45;&gt;u20</title>
<path fill="none" stroke="#000000" d="M1725.1844,-968.8695C1780.8607,-912.0701 1967.9946,-721.1611 2033.4969,-654.3374"/>
<polygon fill="#000000" stroke="#000000" points="2036.3643,-656.4121 2040.865,-646.8207 2031.3654,-651.512 2036.3643,-656.4121"/>
</g>
<!-- u13&#45;&gt;u9 -->
<g id="edge22" class="edge">
<title>u13&#45;&gt;u9</title>
<path fill="none" stroke="#000000" d="M309.2917,-969.4184C318.1481,-963.3806 328.5758,-956.5905 338.3729,-951 571.5142,-817.9625 868.4003,-688.0951 968.0344,-645.525"/>
<polygon fill="#000000" stroke="#000000" points="969.4954,-648.707 977.3219,-641.5658 966.7503,-642.2677 969.4954,-648.707"/>
</g>
<!-- u14&#45;&gt;u9 -->
<g id="edge23" class="edge">
<title>u14&#45;&gt;u9</title>
<path fill="none" stroke="#000000" d="M415.7785,-969.223C424.3189,-963.3531 434.2038,-956.73 443.3729,-951 639.8917,-828.1901 884.5527,-694.5172 970.6377,-648.0441"/>
<polygon fill="#000000" stroke="#000000" points="972.4986,-651.0171 979.6396,-643.1904 969.1764,-644.8557 972.4986,-651.0171"/>
</g>
<!-- u15&#45;&gt;u9 -->
<g id="edge24" class="edge">
<title>u15&#45;&gt;u9</title>
<path fill="none" stroke="#000000" d="M208.2792,-969.4081C216.6756,-963.2322 226.7259,-956.3457 236.3729,-951 503.7515,-802.8379 853.8831,-680.5261 966.1077,-642.9329"/>
<polygon fill="#000000" stroke="#000000" points="967.232,-646.2475 975.61,-639.7622 965.0163,-639.6074 967.232,-646.2475"/>
</g>
<!-- u22 -->
<g id="node20" class="node">
<title>u22</title>
<ellipse fill="#bbffff" stroke="#000000" stroke-width="0" cx="843.3729" cy="-1429" rx="50.0912" ry="18"/>
<text text-anchor="middle" x="843.3729" y="-1425.3" font-family="Times,serif" font-size="14.00" fill="#000000">Markdown</text>
</g>
<!-- u22&#45;&gt;u4 -->
<g id="edge5" class="edge">
<title>u22&#45;&gt;u4</title>
<path fill="none" stroke="#000000" d="M855.1193,-1411.3207C900.7267,-1342.6776 1066.2317,-1093.5786 1120.7923,-1011.4603"/>
<polygon fill="#000000" stroke="#000000" points="1123.9741,-1012.9959 1126.5929,-1002.7298 1118.1437,-1009.1221 1123.9741,-1012.9959"/>
</g>
<!-- u22&#45;&gt;u5 -->
<g id="edge8" class="edge">
<title>u22&#45;&gt;u5</title>
<path fill="none" stroke="#000000" d="M843.3729,-1410.7669C843.3729,-1341.8255 843.3729,-1096.76 843.3729,-1013.1725"/>
<polygon fill="#000000" stroke="#000000" points="846.873,-1013.14 843.3729,-1003.1401 839.873,-1013.1401 846.873,-1013.14"/>
</g>
<!-- u16&#45;&gt;u18 -->
<g id="edge49" class="edge">
<title>u16&#45;&gt;u18</title>
<path fill="none" stroke="#000000" d="M2052.9128,-332.9062C2003.5689,-284.5975 1863.0711,-147.0472 1807.4507,-92.5937"/>
<polygon fill="#000000" stroke="#000000" points="1809.7782,-89.9743 1800.1841,-85.4795 1804.8812,-94.9762 1809.7782,-89.9743"/>
</g>
<!-- u16&#45;&gt;u9 -->
<g id="edge25" class="edge">
<title>u16&#45;&gt;u9</title>
<path fill="none" stroke="#000000" d="M2032.314,-360.0136C1866.2009,-403.7194 1205.6301,-577.5213 1040.1258,-621.0669"/>
<polygon fill="#000000" stroke="#000000" points="1039.1706,-617.699 1030.3903,-623.6284 1040.9518,-624.4686 1039.1706,-617.699"/>
</g>
<!-- u20&#45;&gt;u16 -->
<g id="edge42" class="edge">
<title>u20&#45;&gt;u16</title>
<path fill="none" stroke="#000000" d="M2057.2699,-612.9947C2059.6398,-565.4272 2066.0823,-436.1189 2068.956,-378.4379"/>
<polygon fill="#000000" stroke="#000000" points="2072.4631,-378.3808 2069.4652,-368.219 2065.4718,-378.0324 2072.4631,-378.3808"/>
</g>
<!-- u21 -->
<g id="node23" class="node">
<title>u21</title>
<ellipse fill="#77ff77" stroke="#000000" stroke-width="0" cx="2144.3729" cy="-1873" rx="46.5926" ry="18"/>
<text text-anchor="middle" x="2144.3729" y="-1869.3" font-family="Times,serif" font-size="14.00" fill="#000000">TrimDocs</text>
</g>
<!-- u23 -->
<g id="node24" class="node">
<title>u23</title>
<ellipse fill="#7777ff" stroke="#000000" stroke-width="0" cx="3084.3729" cy="-1429" rx="65.7887" ry="18"/>
<text text-anchor="middle" x="3084.3729" y="-1425.3" font-family="Times,serif" font-size="14.00" fill="#000000">StoredTimeline</text>
</g>
<!-- u24 -->
<g id="node25" class="node">
<title>u24</title>
<ellipse fill="#7777ff" stroke="#000000" stroke-width="0" cx="2957.3729" cy="-1429" rx="42.7926" ry="18"/>
<text text-anchor="middle" x="2957.3729" y="-1425.3" font-family="Times,serif" font-size="14.00" fill="#000000">Timeline</text>
</g>
<!-- u24&#45;&gt;u2 -->
<g id="edge2" class="edge">
<title>u24&#45;&gt;u2</title>
<path fill="none" stroke="#000000" d="M2931.4072,-1414.6505C2923.2381,-1410.5104 2914.0748,-1406.241 2905.3729,-1403 2335.0368,-1190.5823 2118.2336,-1345.9892 1578.3729,-1065 1551.5936,-1051.0618 1525.9569,-1028.0314 1508.4078,-1010.2511"/>
<polygon fill="#000000" stroke="#000000" points="1510.8658,-1007.7579 1501.4022,-1002.9942 1505.8296,-1012.6197 1510.8658,-1007.7579"/>
</g>
<!-- u24&#45;&gt;u14 -->
<g id="edge33" class="edge">
<title>u24&#45;&gt;u14</title>
<path fill="none" stroke="#000000" d="M2932.1461,-1414.311C2923.8553,-1410.0546 2914.4368,-1405.8042 2905.3729,-1403 1850.2305,-1076.5591 1370.6599,-1665.0232 443.3729,-1065 424.3453,-1052.6877 411.2791,-1030.3121 403.2889,-1012.3495"/>
<polygon fill="#000000" stroke="#000000" points="406.4377,-1010.806 399.3666,-1002.9161 399.9742,-1013.4935 406.4377,-1010.806"/>
</g>
<!-- u24&#45;&gt;u16 -->
<g id="edge43" class="edge">
<title>u24&#45;&gt;u16</title>
<path fill="none" stroke="#000000" d="M2930.3934,-1414.9226C2815.3322,-1354.6963 2369.4617,-1119.3199 2324.3729,-1065 2320.0496,-1059.7916 2165.6506,-611.3742 2163.3729,-605 2133.6794,-521.9032 2097.6652,-423.9319 2080.4653,-377.3095"/>
<polygon fill="#000000" stroke="#000000" points="2083.7392,-376.0715 2076.9929,-367.9022 2077.1723,-378.4955 2083.7392,-376.0715"/>
</g>
<!-- u24&#45;&gt;u20 -->
<g id="edge56" class="edge">
<title>u24&#45;&gt;u20</title>
<path fill="none" stroke="#000000" d="M2929.61,-1415.0083C2810.1022,-1354.6229 2343.2155,-1117.0459 2291.3729,-1065 2166.0497,-939.1854 2089.6214,-732.6335 2065.0584,-658.5316"/>
<polygon fill="#000000" stroke="#000000" points="2068.3694,-657.3954 2061.937,-648.9767 2061.7155,-659.5692 2068.3694,-657.3954"/>
</g>
<!-- u24&#45;&gt;u32 -->
<g id="edge63" class="edge">
<title>u24&#45;&gt;u32</title>
<path fill="none" stroke="#000000" d="M2936.8015,-1413.1978C2849.5623,-1346.1836 2509.9904,-1085.336 2408.3029,-1007.2231"/>
<polygon fill="#000000" stroke="#000000" points="2410.3642,-1004.3931 2400.3017,-1001.0768 2406.0999,-1009.9443 2410.3642,-1004.3931"/>
</g>
<!-- u25 -->
<g id="node26" class="node">
<title>u25</title>
<ellipse fill="#7777ff" stroke="#000000" stroke-width="0" cx="2814.3729" cy="-1429" rx="81.7856" ry="18"/>
<text text-anchor="middle" x="2814.3729" y="-1425.3" font-family="Times,serif" font-size="14.00" fill="#000000">ExploreTimeSpaces</text>
</g>
<!-- u25&#45;&gt;u3 -->
<g id="edge3" class="edge">
<title>u25&#45;&gt;u3</title>
<path fill="none" stroke="#000000" d="M2764.8564,-1414.5663C2751.4187,-1410.7275 2736.8567,-1406.6388 2723.3729,-1403 2134.5364,-1244.0954 1932.9332,-1349.3479 1393.3729,-1065 1367.2294,-1051.2224 1342.375,-1028.4745 1325.2679,-1010.7507"/>
<polygon fill="#000000" stroke="#000000" points="1327.3811,-1007.8896 1317.9763,-1003.0111 1322.2861,-1012.6897 1327.3811,-1007.8896"/>
</g>
<!-- u25&#45;&gt;u16 -->
<g id="edge44" class="edge">
<title>u25&#45;&gt;u16</title>
<path fill="none" stroke="#000000" d="M2775.9554,-1413.0609C2679.4525,-1371.0586 2425.05,-1247.8522 2291.3729,-1065 2248.438,-1006.2709 2111.4687,-503.0191 2077.8687,-378.016"/>
<polygon fill="#000000" stroke="#000000" points="2081.1719,-376.8211 2075.1991,-368.0704 2074.4112,-378.6359 2081.1719,-376.8211"/>
</g>
<!-- u26&#45;&gt;u11 -->
<g id="edge29" class="edge">
<title>u26&#45;&gt;u11</title>
<path fill="none" stroke="#000000" d="M2405.2081,-1414.344C2392.7924,-1410.3341 2379.1188,-1406.2127 2366.3729,-1403 1566.91,-1201.4899 1217.4732,-1538.2724 542.3729,-1065 524.2323,-1052.2828 512.0181,-1030.1403 504.5983,-1012.3701"/>
<polygon fill="#000000" stroke="#000000" points="507.8531,-1011.083 500.9622,-1003.0352 501.3305,-1013.6237 507.8531,-1011.083"/>
</g>
<!-- u26&#45;&gt;u5 -->
<g id="edge9" class="edge">
<title>u26&#45;&gt;u5</title>
<path fill="none" stroke="#000000" d="M2404.2629,-1414.4741C2392.071,-1410.5539 2378.7511,-1406.4469 2366.3729,-1403 1738.4922,-1228.156 1522.3314,-1356.4856 939.3729,-1065 911.697,-1051.1618 885.0615,-1027.9115 866.8975,-1010.0319"/>
<polygon fill="#000000" stroke="#000000" points="869.1845,-1007.3679 859.6533,-1002.7411 864.2189,-1012.3018 869.1845,-1007.3679"/>
</g>
<!-- u26&#45;&gt;u16 -->
<g id="edge45" class="edge">
<title>u26&#45;&gt;u16</title>
<path fill="none" stroke="#000000" d="M2432.4174,-1411.0193C2390.9756,-1360.2186 2273.8737,-1209.8826 2215.3729,-1065 2112.8705,-811.1438 2080.0905,-476.2493 2072.3685,-378.132"/>
<polygon fill="#000000" stroke="#000000" points="2075.8548,-377.817 2071.6034,-368.1125 2068.8751,-378.35 2075.8548,-377.817"/>
</g>
<!-- u26&#45;&gt;u20 -->
<g id="edge57" class="edge">
<title>u26&#45;&gt;u20</title>
<path fill="none" stroke="#000000" d="M2422.0163,-1411.7773C2355.6363,-1365.0828 2176.7038,-1228.5278 2101.3729,-1065 2036.4065,-923.9715 2046.6265,-730.5424 2053.281,-659.0412"/>
<polygon fill="#000000" stroke="#000000" points="2056.7711,-659.3118 2054.2669,-649.0172 2049.8048,-658.6265 2056.7711,-659.3118"/>
</g>
<!-- u27 -->
<g id="node28" class="node">
<title>u27</title>
<ellipse fill="#7777ff" stroke="#000000" stroke-width="0" cx="2568.3729" cy="-1429" rx="30.5947" ry="18"/>
<text text-anchor="middle" x="2568.3729" y="-1425.3" font-family="Times,serif" font-size="14.00" fill="#000000">Index</text>
</g>
<!-- u28&#45;&gt;u12 -->
<g id="edge30" class="edge">
<title>u28&#45;&gt;u12</title>
<path fill="none" stroke="#000000" d="M2636.9372,-1414.2981C2627.9837,-1410.1436 2617.9333,-1405.9547 2608.3729,-1403 1767.5842,-1143.1484 1400.254,-1536.7796 657.3729,-1065 637.6902,-1052.5001 622.9932,-1030.3415 613.6058,-1012.5098"/>
<polygon fill="#000000" stroke="#000000" points="616.5293,-1010.5288 608.9388,-1003.1372 610.2632,-1013.649 616.5293,-1010.5288"/>
</g>
<!-- u28&#45;&gt;u4 -->
<g id="edge6" class="edge">
<title>u28&#45;&gt;u4</title>
<path fill="none" stroke="#000000" d="M2636.2254,-1414.4134C2627.417,-1410.3593 2617.6252,-1406.1968 2608.3729,-1403 2004.592,-1194.3893 1761.159,-1390.2768 1211.3729,-1065 1188.7053,-1051.5889 1168.9876,-1028.9019 1155.7783,-1011.1055"/>
<polygon fill="#000000" stroke="#000000" points="1158.5077,-1008.9058 1149.8322,-1002.8241 1152.8215,-1012.9884 1158.5077,-1008.9058"/>
</g>
<!-- u28&#45;&gt;u16 -->
<g id="edge46" class="edge">
<title>u28&#45;&gt;u16</title>
<path fill="none" stroke="#000000" d="M2639.0715,-1413.7484C2565.694,-1369.7779 2357.3219,-1234.9759 2253.3729,-1065 2179.1467,-943.6265 2095.9935,-494.8075 2075.2538,-377.9586"/>
<polygon fill="#000000" stroke="#000000" points="2078.6819,-377.2447 2073.496,-368.0058 2071.7886,-378.4621 2078.6819,-377.2447"/>
</g>
<!-- u28&#45;&gt;u20 -->
<g id="edge58" class="edge">
<title>u28&#45;&gt;u20</title>
<path fill="none" stroke="#000000" d="M2634.3857,-1414.9759C2547.9058,-1374.2116 2302.1201,-1246.9868 2177.3729,-1065 2086.5101,-932.4454 2063.5567,-733.1201 2058.0348,-659.5748"/>
<polygon fill="#000000" stroke="#000000" points="2061.5034,-659.0009 2057.3154,-649.269 2054.5204,-659.4885 2061.5034,-659.0009"/>
</g>
<!-- u29 -->
<g id="node30" class="node">
<title>u29</title>
<ellipse fill="#7777ff" stroke="#000000" stroke-width="0" cx="2326.3729" cy="-1429" rx="31.3957" ry="18"/>
<text text-anchor="middle" x="2326.3729" y="-1425.3" font-family="Times,serif" font-size="14.00" fill="#000000">Event</text>
</g>
<!-- u30 -->
<g id="node31" class="node">
<title>u30</title>
<ellipse fill="#7777ff" stroke="#000000" stroke-width="0" cx="2226.3729" cy="-1429" rx="50.8918" ry="18"/>
<text text-anchor="middle" x="2226.3729" y="-1425.3" font-family="Times,serif" font-size="14.00" fill="#000000">TimeSpace</text>
</g>
<!-- u31 -->
<g id="node32" class="node">
<title>u31</title>
<ellipse fill="#7777ff" stroke="#000000" stroke-width="0" cx="2110.3729" cy="-1429" rx="47.3916" ry="18"/>
<text text-anchor="middle" x="2110.3729" y="-1425.3" font-family="Times,serif" font-size="14.00" fill="#000000">TimeSpan</text>
</g>
<!-- u32&#45;&gt;u14 -->
<g id="edge34" class="edge">
<title>u32&#45;&gt;u14</title>
<path fill="none" stroke="#000000" d="M2380.901,-1003.0387C2383.7817,-1050.2973 2384.1027,-1177.9229 2310.3729,-1234 2146.0552,-1358.9761 614.3077,-1362.0485 452.3729,-1234 385.2132,-1180.8941 385.7344,-1066.6281 390.0953,-1013.3847"/>
<polygon fill="#000000" stroke="#000000" points="393.5931,-1013.5694 391.0304,-1003.2892 386.6229,-1012.9238 393.5931,-1013.5694"/>
</g>
<!-- u32&#45;&gt;u16 -->
<g id="edge47" class="edge">
<title>u32&#45;&gt;u16</title>
<path fill="none" stroke="#000000" d="M2380.2778,-966.8012C2382.3456,-909.9422 2383.0226,-731.855 2319.3729,-605 2266.8241,-500.2694 2155.768,-410.9486 2101.5172,-371.5471"/>
<polygon fill="#000000" stroke="#000000" points="2103.4798,-368.6476 2093.3157,-365.6574 2099.3967,-374.3333 2103.4798,-368.6476"/>
</g>
<!-- u32&#45;&gt;u20 -->
<g id="edge59" class="edge">
<title>u32&#45;&gt;u20</title>
<path fill="none" stroke="#000000" d="M2363.7939,-967.9258C2310.9969,-910.0617 2138.7544,-721.2882 2077.9041,-654.5977"/>
<polygon fill="#000000" stroke="#000000" points="2080.3768,-652.1149 2071.051,-647.0869 2075.2058,-656.8331 2080.3768,-652.1149"/>
</g>
</g>
</svg>
