<?xml version="1.0" encoding="UTF-8" standalone="no"?>
<!DOCTYPE svg PUBLIC "-//W3C//DTD SVG 1.1//EN"
 "http://www.w3.org/Graphics/SVG/1.1/DTD/svg11.dtd">
<!-- Generated by graphviz version 2.40.1 (20161225.0304)
 -->
<!-- Title: Modules Pages: 1 -->
<svg width="864pt" height="548pt"
 viewBox="0.00 0.00 864.00 547.59" xmlns="http://www.w3.org/2000/svg" xmlns:xlink="http://www.w3.org/1999/xlink">
<g id="graph0" class="graph" transform="scale(.4863 .4863) rotate(0) translate(4 1122)">
<title>Modules</title>
<polygon fill="#ffffff" stroke="transparent" points="-4,4 -4,-1122 1772.6354,-1122 1772.6354,4 -4,4"/>
<g id="clust1" class="cluster">
<title>cluster_0</title>
<polygon fill="#000000" fill-opacity="0.058824" stroke="#000000" stroke-opacity="0.058824" points="215.4895,-263.5147 215.4895,-629.7227 1636.4895,-629.7227 1636.4895,-263.5147 215.4895,-263.5147"/>
<text text-anchor="middle" x="925.9895" y="-614.5227" font-family="Times,serif" font-size="14.00" fill="#000000">Components</text>
</g>
<g id="clust2" class="cluster">
<title>cluster_1</title>
<polygon fill="#000000" fill-opacity="0.058824" stroke="#000000" stroke-opacity="0.058824" points="533.4895,-424.3362 533.4895,-569.6568 1312.4895,-569.6568 1312.4895,-424.3362 533.4895,-424.3362"/>
<text text-anchor="middle" x="922.9895" y="-554.4568" font-family="Times,serif" font-size="14.00" fill="#000000">Dialogs</text>
</g>
<g id="clust3" class="cluster">
<title>cluster_2</title>
<polygon fill="#000000" fill-opacity="0.058824" stroke="#000000" stroke-opacity="0.058824" points="1320.4895,-424.3362 1320.4895,-569.6568 1628.4895,-569.6568 1628.4895,-424.3362 1320.4895,-424.3362"/>
<text text-anchor="middle" x="1474.4895" y="-554.4568" font-family="Times,serif" font-size="14.00" fill="#000000">Drawers</text>
</g>
<g id="clust4" class="cluster">
<title>cluster_3</title>
<polygon fill="#000000" fill-opacity="0.058824" stroke="#000000" stroke-opacity="0.058824" points="101.4895,-124.0069 101.4895,-408.8354 207.4895,-408.8354 207.4895,-124.0069 101.4895,-124.0069"/>
<text text-anchor="middle" x="154.4895" y="-393.6354" font-family="Times,serif" font-size="14.00" fill="#000000">Plumbing</text>
</g>
<g id="clust5" class="cluster">
<title>cluster_4</title>
<polygon fill="#000000" fill-opacity="0.058824" stroke="#000000" stroke-opacity="0.058824" points="1345.4895,-897.1127 1345.4895,-1042.4333 1455.4895,-1042.4333 1455.4895,-897.1127 1345.4895,-897.1127"/>
<text text-anchor="middle" x="1400.4895" y="-1027.2333" font-family="Times,serif" font-size="14.00" fill="#000000">Scripts</text>
</g>
<g id="clust6" class="cluster">
<title>cluster_5</title>
<polygon fill="#000000" fill-opacity="0.058824" stroke="#000000" stroke-opacity="0.058824" points="423.4895,-881.6118 423.4895,-1102.4991 561.4895,-1102.4991 561.4895,-881.6118 423.4895,-881.6118"/>
<text text-anchor="middle" x="492.4895" y="-1087.2991" font-family="Times,serif" font-size="14.00" fill="#000000">Test</text>
</g>
<g id="clust7" class="cluster">
<title>cluster_6</title>
<polygon fill="#000000" fill-opacity="0.058824" stroke="#000000" stroke-opacity="0.058824" points="431.4895,-897.1127 431.4895,-1042.4333 553.4895,-1042.4333 553.4895,-897.1127 431.4895,-897.1127"/>
<text text-anchor="middle" x="492.4895" y="-1027.2333" font-family="Times,serif" font-size="14.00" fill="#000000">QuickCheck</text>
</g>
<g id="clust8" class="cluster">
<title>cluster_7</title>
<polygon fill="#000000" fill-opacity="0.058824" stroke="#000000" stroke-opacity="0.058824" points="99.4895,-645.2236 99.4895,-866.1109 1021.4895,-866.1109 1021.4895,-645.2236 99.4895,-645.2236"/>
<text text-anchor="middle" x="560.4895" y="-850.9109" font-family="Times,serif" font-size="14.00" fill="#000000">Timeline</text>
</g>
<g id="clust9" class="cluster">
<title>cluster_8</title>
<polygon fill="#000000" fill-opacity="0.058824" stroke="#000000" stroke-opacity="0.058824" points="107.4895,-660.7244 107.4895,-806.0451 1013.4895,-806.0451 1013.4895,-660.7244 107.4895,-660.7244"/>
<text text-anchor="middle" x="560.4895" y="-790.8451" font-family="Times,serif" font-size="14.00" fill="#000000">Data</text>
</g>
<!-- u15 -->
<g id="node1" class="node">
<title>u15</title>
<ellipse fill="#bbffbb" stroke="#000000" stroke-width="0" cx="1096.4895" cy="-947" rx="38.9931" ry="18"/>
<text text-anchor="middle" x="1096.4895" y="-943.3" font-family="Times,serif" font-size="14.00" fill="#000000">Settings</text>
</g>
<!-- u7 -->
<g id="node4" class="node">
<title>u7</title>
<ellipse fill="#ffffbb" stroke="#000000" stroke-width="0" cx="946.4895" cy="-314" rx="30.5947" ry="18"/>
<text text-anchor="middle" x="946.4895" y="-310.3" font-family="Times,serif" font-size="14.00" fill="#000000">Index</text>
</g>
<!-- u15&#45;&gt;u7 -->
<g id="edge20" class="edge">
<title>u15&#45;&gt;u7</title>
<path fill="none" stroke="#000000" d="M1123.4896,-933.8988C1173.6873,-909.0333 1283.9539,-852.003 1368.4895,-791 1524.199,-678.6361 1754.456,-597.308 1632.4895,-449 1549.635,-348.2512 1122.3605,-321.5153 987.3961,-315.5298"/>
<polygon fill="#000000" stroke="#000000" points="987.2276,-312.0195 977.0869,-315.0881 986.9279,-319.0131 987.2276,-312.0195"/>
</g>
<!-- u9 -->
<g id="node6" class="node">
<title>u9</title>
<ellipse fill="#ffffbb" stroke="#000000" stroke-width="0" cx="485.4895" cy="-475" rx="37.8943" ry="18"/>
<text text-anchor="middle" x="485.4895" y="-471.3" font-family="Times,serif" font-size="14.00" fill="#000000">TopBar</text>
</g>
<!-- u15&#45;&gt;u9 -->
<g id="edge22" class="edge">
<title>u15&#45;&gt;u9</title>
<path fill="none" stroke="#000000" d="M1091.4236,-928.7918C1074.7268,-868.8978 1022.2213,-681.5477 1017.4895,-677 856.3017,-522.0828 706.5866,-691.4458 529.4895,-555 512.4853,-541.899 501.1587,-520.2721 494.2611,-502.8056"/>
<polygon fill="#000000" stroke="#000000" points="497.4306,-501.2824 490.7023,-493.0982 490.8583,-503.6919 497.4306,-501.2824"/>
</g>
<!-- u0 -->
<g id="node8" class="node">
<title>u0</title>
<ellipse fill="#bbbbff" stroke="#000000" stroke-width="0" cx="946.4895" cy="-475" rx="53.8905" ry="18"/>
<text text-anchor="middle" x="946.4895" y="-471.3" font-family="Times,serif" font-size="14.00" fill="#000000">SettingsEdit</text>
</g>
<!-- u15&#45;&gt;u0 -->
<g id="edge1" class="edge">
<title>u15&#45;&gt;u0</title>
<path fill="none" stroke="#000000" d="M1099.7378,-929.0157C1106.979,-884.7517 1121.5513,-767.5471 1091.4895,-677 1084.8675,-657.0542 1004.4177,-550.5688 966.2907,-500.7432"/>
<polygon fill="#000000" stroke="#000000" points="968.9819,-498.5007 960.1211,-492.6924 963.4257,-502.7587 968.9819,-498.5007"/>
</g>
<!-- u2 -->
<g id="node10" class="node">
<title>u2</title>
<ellipse fill="#bbbbff" stroke="#000000" stroke-width="0" cx="1168.4895" cy="-475" rx="63.8893" ry="18"/>
<text text-anchor="middle" x="1168.4895" y="-471.3" font-family="Times,serif" font-size="14.00" fill="#000000">TimeScaleEdit</text>
</g>
<!-- u15&#45;&gt;u2 -->
<g id="edge2" class="edge">
<title>u15&#45;&gt;u2</title>
<path fill="none" stroke="#000000" d="M1100.8593,-928.8436C1107.7177,-899.8493 1121.0914,-841.239 1129.4895,-791 1147.1333,-685.451 1160.3949,-558.8265 1165.8121,-503.3633"/>
<polygon fill="#000000" stroke="#000000" points="1169.3115,-503.5371 1166.7899,-493.2468 1162.344,-502.8636 1169.3115,-503.5371"/>
</g>
<!-- u5 -->
<g id="node13" class="node">
<title>u5</title>
<ellipse fill="#bbbbff" stroke="#000000" stroke-width="0" cx="795.4895" cy="-475" rx="79.0865" ry="18"/>
<text text-anchor="middle" x="795.4895" y="-471.3" font-family="Times,serif" font-size="14.00" fill="#000000">TimelineNameEdit</text>
</g>
<!-- u15&#45;&gt;u5 -->
<g id="edge4" class="edge">
<title>u15&#45;&gt;u5</title>
<path fill="none" stroke="#000000" d="M1095.4093,-928.8545C1091.9498,-875.4007 1079.7972,-719.6092 1053.4895,-677 1004.6326,-597.8691 955.7941,-613.4871 883.4895,-555 861.7729,-537.4335 838.4341,-516.0926 821.252,-499.872"/>
<polygon fill="#000000" stroke="#000000" points="823.4797,-497.1607 813.8187,-492.8115 818.6588,-502.2361 823.4797,-497.1607"/>
</g>
<!-- u11 -->
<g id="node15" class="node">
<title>u11</title>
<ellipse fill="#ffbbbb" stroke="#000000" stroke-width="0" cx="1370.4895" cy="-475" rx="41.6928" ry="18"/>
<text text-anchor="middle" x="1370.4895" y="-471.3" font-family="Times,serif" font-size="14.00" fill="#000000">Children</text>
</g>
<!-- u15&#45;&gt;u11 -->
<g id="edge25" class="edge">
<title>u15&#45;&gt;u11</title>
<path fill="none" stroke="#000000" d="M1106.7305,-929.3585C1148.4014,-857.5752 1305.3604,-587.1932 1355.2008,-501.3368"/>
<polygon fill="#000000" stroke="#000000" points="1358.349,-502.8849 1360.3426,-492.4793 1352.2951,-499.3705 1358.349,-502.8849"/>
</g>
<!-- u12 -->
<g id="node16" class="node">
<title>u12</title>
<ellipse fill="#ffbbbb" stroke="#000000" stroke-width="0" cx="1476.4895" cy="-475" rx="46.2923" ry="18"/>
<text text-anchor="middle" x="1476.4895" y="-471.3" font-family="Times,serif" font-size="14.00" fill="#000000">Timelines</text>
</g>
<!-- u15&#45;&gt;u12 -->
<g id="edge26" class="edge">
<title>u15&#45;&gt;u12</title>
<path fill="none" stroke="#000000" d="M1111.6994,-930.4086C1137.452,-902.1846 1191.0756,-842.8407 1234.4895,-791 1320.411,-688.4007 1341.9804,-662.645 1421.4895,-555 1434.4644,-537.4337 1448.3946,-517.1555 1458.9894,-501.4105"/>
<polygon fill="#000000" stroke="#000000" points="1462.1537,-502.9753 1464.8095,-492.7187 1456.3373,-499.0805 1462.1537,-502.9753"/>
</g>
<!-- u13 -->
<g id="node17" class="node">
<title>u13</title>
<ellipse fill="#ffbbbb" stroke="#000000" stroke-width="0" cx="1580.4895" cy="-475" rx="39.7935" ry="18"/>
<text text-anchor="middle" x="1580.4895" y="-471.3" font-family="Times,serif" font-size="14.00" fill="#000000">Siblings</text>
</g>
<!-- u15&#45;&gt;u13 -->
<g id="edge27" class="edge">
<title>u15&#45;&gt;u13</title>
<path fill="none" stroke="#000000" d="M1117.8249,-931.9187C1185.2604,-883.4559 1397.2711,-724.9237 1531.4895,-555 1544.7389,-538.226 1557.2817,-517.6248 1566.3601,-501.5293"/>
<polygon fill="#000000" stroke="#000000" points="1569.5022,-503.08 1571.2842,-492.6361 1563.3782,-499.6892 1569.5022,-503.08"/>
</g>
<!-- u14 -->
<g id="node18" class="node">
<title>u14</title>
<ellipse fill="#bbffbb" stroke="#000000" stroke-width="2" cx="154.4895" cy="-174" rx="45.4919" ry="18"/>
<text text-anchor="middle" x="154.4895" y="-170.3" font-family="Times,serif" font-size="14.00" fill="#000000">Plumbing</text>
</g>
<!-- u15&#45;&gt;u14 -->
<g id="edge31" class="edge">
<title>u15&#45;&gt;u14</title>
<path fill="none" stroke="#000000" d="M1057.8351,-944.1723C876.9313,-930.5556 119.855,-869.1795 52.4895,-791 6.1684,-737.2431 -46.7514,-646.8245 76.4895,-288 88.232,-253.8109 113.1905,-220.3583 131.7294,-198.6292"/>
<polygon fill="#000000" stroke="#000000" points="134.5389,-200.7331 138.4794,-190.8983 129.2659,-196.1292 134.5389,-200.7331"/>
</g>
<!-- u18 -->
<g id="node19" class="node">
<title>u18</title>
<ellipse fill="#bbffff" stroke="#000000" stroke-width="0" cx="168.4895" cy="-314" rx="31.3957" ry="18"/>
<text text-anchor="middle" x="168.4895" y="-310.3" font-family="Times,serif" font-size="14.00" fill="#000000">Logic</text>
</g>
<!-- u15&#45;&gt;u18 -->
<g id="edge40" class="edge">
<title>u15&#45;&gt;u18</title>
<path fill="none" stroke="#000000" d="M1057.9771,-943.8765C882.8183,-929.2898 167.1456,-865.4372 103.4895,-791 -11.3449,-656.7168 107.8096,-418.9247 152.8061,-340.1553"/>
<polygon fill="#000000" stroke="#000000" points="155.92,-341.7624 157.9052,-331.3552 149.8633,-338.2529 155.92,-341.7624"/>
</g>
<!-- u23 -->
<g id="node24" class="node">
<title>u23</title>
<ellipse fill="#ff7777" stroke="#000000" stroke-width="0" cx="492.4895" cy="-711" rx="64.189" ry="18"/>
<text text-anchor="middle" x="492.4895" y="-707.3" font-family="Times,serif" font-size="14.00" fill="#000000">TimelineName</text>
</g>
<!-- u15&#45;&gt;u23 -->
<g id="edge43" class="edge">
<title>u15&#45;&gt;u23</title>
<path fill="none" stroke="#000000" d="M1058.2296,-942.9158C966.7089,-931.7001 730.501,-894.0938 565.4895,-791 543.2898,-777.1304 523.6463,-754.6865 510.3441,-737.096"/>
<polygon fill="#000000" stroke="#000000" points="513.0763,-734.9032 504.3399,-728.9094 507.4317,-739.0431 513.0763,-734.9032"/>
</g>
<!-- u25 -->
<g id="node26" class="node">
<title>u25</title>
<ellipse fill="#ff7777" stroke="#000000" stroke-width="0" cx="702.4895" cy="-711" rx="48.9926" ry="18"/>
<text text-anchor="middle" x="702.4895" y="-707.3" font-family="Times,serif" font-size="14.00" fill="#000000">TimeScale</text>
</g>
<!-- u15&#45;&gt;u25 -->
<g id="edge45" class="edge">
<title>u15&#45;&gt;u25</title>
<path fill="none" stroke="#000000" d="M1062.8647,-937.6461C998.6171,-918.5112 856.2938,-869.9226 760.4895,-791 742.6144,-776.2747 727.4627,-754.8327 717.1329,-737.853"/>
<polygon fill="#000000" stroke="#000000" points="719.9861,-735.7999 711.9035,-728.9499 713.9502,-739.3451 719.9861,-735.7999"/>
</g>
<!-- u16 -->
<g id="node2" class="node">
<title>u16</title>
<ellipse fill="#bbffbb" stroke="#000000" stroke-width="0" cx="370.4895" cy="-35" rx="29.795" ry="18"/>
<text text-anchor="middle" x="370.4895" y="-31.3" font-family="Times,serif" font-size="14.00" fill="#000000">Main</text>
</g>
<!-- u17 -->
<g id="node3" class="node">
<title>u17</title>
<ellipse fill="#bbffbb" stroke="#000000" stroke-width="0" cx="1722.4895" cy="-475" rx="46.2923" ry="18"/>
<text text-anchor="middle" x="1722.4895" y="-471.3" font-family="Times,serif" font-size="14.00" fill="#000000">WithRoot</text>
</g>
<!-- u17&#45;&gt;u7 -->
<g id="edge21" class="edge">
<title>u17&#45;&gt;u7</title>
<path fill="none" stroke="#000000" d="M1693.3795,-460.8369C1683.7212,-456.5587 1672.8003,-452.1628 1662.4895,-449 1411.4849,-372.0055 1096.8394,-331.1193 986.7415,-318.402"/>
<polygon fill="#000000" stroke="#000000" points="987.0671,-314.9165 976.7345,-317.259 986.2726,-321.8713 987.0671,-314.9165"/>
</g>
<!-- u7&#45;&gt;u16 -->
<g id="edge35" class="edge">
<title>u7&#45;&gt;u16</title>
<path fill="none" stroke="#000000" d="M922.8358,-302.5427C832.3042,-258.6915 507.6633,-101.4436 403.1531,-50.8214"/>
<polygon fill="#000000" stroke="#000000" points="404.5481,-47.6082 394.0226,-46.3988 401.4966,-53.9081 404.5481,-47.6082"/>
</g>
<!-- u8 -->
<g id="node5" class="node">
<title>u8</title>
<ellipse fill="#ffffbb" stroke="#000000" stroke-width="0" cx="267.4895" cy="-475" rx="43.5923" ry="18"/>
<text text-anchor="middle" x="267.4895" y="-471.3" font-family="Times,serif" font-size="14.00" fill="#000000">Snackbar</text>
</g>
<!-- u8&#45;&gt;u7 -->
<g id="edge13" class="edge">
<title>u8&#45;&gt;u7</title>
<path fill="none" stroke="#000000" d="M293.6367,-460.6038C302.0288,-456.4131 311.4854,-452.1268 320.4895,-449 535.0281,-374.498 805.7645,-332.9371 906.4182,-319.1829"/>
<polygon fill="#000000" stroke="#000000" points="907.014,-322.6343 916.4553,-317.8269 906.0768,-315.6973 907.014,-322.6343"/>
</g>
<!-- u8&#45;&gt;u14 -->
<g id="edge30" class="edge">
<title>u8&#45;&gt;u14</title>
<path fill="none" stroke="#000000" d="M262.6766,-456.9263C253.506,-423.2202 232.3068,-348.6856 208.4895,-288 196.5182,-257.4975 180.0938,-223.7074 168.5113,-200.8927"/>
<polygon fill="#000000" stroke="#000000" points="171.5434,-199.1348 163.8709,-191.8284 165.3125,-202.3248 171.5434,-199.1348"/>
</g>
<!-- u8&#45;&gt;u18 -->
<g id="edge39" class="edge">
<title>u8&#45;&gt;u18</title>
<path fill="none" stroke="#000000" d="M256.7063,-457.4637C239.2077,-429.0064 204.5475,-372.6397 184.2717,-339.666"/>
<polygon fill="#000000" stroke="#000000" points="187.1801,-337.7138 178.9605,-331.0287 181.2172,-341.3804 187.1801,-337.7138"/>
</g>
<!-- u9&#45;&gt;u7 -->
<g id="edge14" class="edge">
<title>u9&#45;&gt;u7</title>
<path fill="none" stroke="#000000" d="M508.2691,-460.2494C514.947,-456.2829 522.3708,-452.2081 529.4895,-449 663.8301,-388.4584 833.5282,-342.2639 908.2293,-323.3515"/>
<polygon fill="#000000" stroke="#000000" points="909.2801,-326.6963 918.1259,-320.8652 907.5745,-319.9073 909.2801,-326.6963"/>
</g>
<!-- u10 -->
<g id="node7" class="node">
<title>u10</title>
<ellipse fill="#ffffbb" stroke="#000000" stroke-width="0" cx="379.4895" cy="-475" rx="50.0912" ry="18"/>
<text text-anchor="middle" x="379.4895" y="-471.3" font-family="Times,serif" font-size="14.00" fill="#000000">BottomBar</text>
</g>
<!-- u10&#45;&gt;u7 -->
<g id="edge15" class="edge">
<title>u10&#45;&gt;u7</title>
<path fill="none" stroke="#000000" d="M409.7491,-460.5878C418.869,-456.5386 428.9833,-452.335 438.4895,-449 609.9815,-388.8363 822.0923,-340.5788 907.8363,-322.1138"/>
<polygon fill="#000000" stroke="#000000" points="908.6099,-325.5276 917.6552,-320.0109 907.1439,-318.6828 908.6099,-325.5276"/>
</g>
<!-- u0&#45;&gt;u7 -->
<g id="edge6" class="edge">
<title>u0&#45;&gt;u7</title>
<path fill="none" stroke="#000000" d="M946.4895,-456.8442C946.4895,-429.0634 946.4895,-375.7582 946.4895,-342.7038"/>
<polygon fill="#000000" stroke="#000000" points="949.9896,-342.3364 946.4895,-332.3365 942.9896,-342.3365 949.9896,-342.3364"/>
</g>
<!-- u1 -->
<g id="node9" class="node">
<title>u1</title>
<ellipse fill="#bbbbff" stroke="#000000" stroke-width="0" cx="1277.4895" cy="-475" rx="27.0966" ry="18"/>
<text text-anchor="middle" x="1277.4895" y="-471.3" font-family="Times,serif" font-size="14.00" fill="#000000">New</text>
</g>
<!-- u1&#45;&gt;u7 -->
<g id="edge7" class="edge">
<title>u1&#45;&gt;u7</title>
<path fill="none" stroke="#000000" d="M1259.6423,-461.0548C1253.992,-456.9311 1247.6188,-452.5693 1241.4895,-449 1151.7253,-396.7269 1038.1912,-349.7056 981.7234,-327.4988"/>
<polygon fill="#000000" stroke="#000000" points="982.7748,-324.152 972.1868,-323.7715 980.2265,-330.6717 982.7748,-324.152"/>
</g>
<!-- u2&#45;&gt;u7 -->
<g id="edge8" class="edge">
<title>u2&#45;&gt;u7</title>
<path fill="none" stroke="#000000" d="M1145.1512,-458.0745C1103.9267,-428.1774 1018.412,-366.16 974.2394,-334.125"/>
<polygon fill="#000000" stroke="#000000" points="976.1316,-331.1737 965.9815,-328.1361 972.022,-336.8404 976.1316,-331.1737"/>
</g>
<!-- u3 -->
<g id="node11" class="node">
<title>u3</title>
<ellipse fill="#bbbbff" stroke="#000000" stroke-width="0" cx="1052.4895" cy="-475" rx="34.394" ry="18"/>
<text text-anchor="middle" x="1052.4895" y="-471.3" font-family="Times,serif" font-size="14.00" fill="#000000">EULA</text>
</g>
<!-- u3&#45;&gt;u7 -->
<g id="edge9" class="edge">
<title>u3&#45;&gt;u7</title>
<path fill="none" stroke="#000000" d="M1041.1456,-457.7702C1022.4969,-429.4452 985.2604,-372.8879 963.4623,-339.7794"/>
<polygon fill="#000000" stroke="#000000" points="966.1742,-337.5336 957.7518,-331.1059 960.3275,-341.3829 966.1742,-337.5336"/>
</g>
<!-- u4 -->
<g id="node12" class="node">
<title>u4</title>
<ellipse fill="#bbbbff" stroke="#000000" stroke-width="0" cx="575.4895" cy="-475" rx="34.394" ry="18"/>
<text text-anchor="middle" x="575.4895" y="-471.3" font-family="Times,serif" font-size="14.00" fill="#000000">Export</text>
</g>
<!-- u4&#45;&gt;u7 -->
<g id="edge10" class="edge">
<title>u4&#45;&gt;u7</title>
<path fill="none" stroke="#000000" d="M597.5321,-461.1456C604.4473,-457.0256 612.1845,-452.6431 619.4895,-449 722.3164,-397.7187 849.4921,-349.2908 910.5117,-326.9336"/>
<polygon fill="#000000" stroke="#000000" points="911.8769,-330.1612 920.0719,-323.4461 909.4779,-323.5851 911.8769,-330.1612"/>
</g>
<!-- u4&#45;&gt;u14 -->
<g id="edge28" class="edge">
<title>u4&#45;&gt;u14</title>
<path fill="none" stroke="#000000" d="M565.7884,-457.6399C544.7896,-421.4724 491.7165,-337.3235 426.4895,-288 357.3337,-235.7056 260.6582,-202.7143 203.1266,-186.3699"/>
<polygon fill="#000000" stroke="#000000" points="203.7739,-182.917 193.2015,-183.6053 201.8956,-189.6603 203.7739,-182.917"/>
</g>
<!-- u4&#45;&gt;u18 -->
<g id="edge37" class="edge">
<title>u4&#45;&gt;u18</title>
<path fill="none" stroke="#000000" d="M555.5597,-459.9936C549.8958,-456.113 543.6017,-452.1464 537.4895,-449 422.3985,-389.7553 275.1838,-344.1653 206.7046,-324.5387"/>
<polygon fill="#000000" stroke="#000000" points="207.3718,-321.0898 196.7959,-321.7231 205.4584,-327.8232 207.3718,-321.0898"/>
</g>
<!-- u5&#45;&gt;u7 -->
<g id="edge11" class="edge">
<title>u5&#45;&gt;u7</title>
<path fill="none" stroke="#000000" d="M812.2261,-457.155C839.5501,-428.0215 893.7473,-370.2351 924.2651,-337.6962"/>
<polygon fill="#000000" stroke="#000000" points="927.1948,-339.6887 931.4829,-330.0004 922.089,-334.9001 927.1948,-339.6887"/>
</g>
<!-- u6 -->
<g id="node14" class="node">
<title>u6</title>
<ellipse fill="#bbbbff" stroke="#000000" stroke-width="0" cx="663.4895" cy="-475" rx="35.194" ry="18"/>
<text text-anchor="middle" x="663.4895" y="-471.3" font-family="Times,serif" font-size="14.00" fill="#000000">Import</text>
</g>
<!-- u6&#45;&gt;u7 -->
<g id="edge12" class="edge">
<title>u6&#45;&gt;u7</title>
<path fill="none" stroke="#000000" d="M686.7315,-461.1516C693.4169,-457.1994 700.7288,-452.9064 707.4895,-449 781.6067,-406.1745 869.3799,-356.9828 915.1554,-331.4428"/>
<polygon fill="#000000" stroke="#000000" points="916.9708,-334.4379 924.0001,-326.5108 913.5616,-328.3242 916.9708,-334.4379"/>
</g>
<!-- u6&#45;&gt;u14 -->
<g id="edge29" class="edge">
<title>u6&#45;&gt;u14</title>
<path fill="none" stroke="#000000" d="M650.8821,-458.0227C623.1923,-421.8441 553.3742,-336.5067 476.4895,-288 388.9485,-232.7702 271.0971,-199.8588 204.9596,-184.5061"/>
<polygon fill="#000000" stroke="#000000" points="205.7219,-181.0901 195.194,-182.2798 204.1659,-187.915 205.7219,-181.0901"/>
</g>
<!-- u6&#45;&gt;u18 -->
<g id="edge38" class="edge">
<title>u6&#45;&gt;u18</title>
<path fill="none" stroke="#000000" d="M641.1301,-460.7124C634.0651,-456.5748 626.1101,-452.2912 618.4895,-449 472.2983,-385.8622 287.363,-340.509 207.8051,-322.5358"/>
<polygon fill="#000000" stroke="#000000" points="208.2627,-319.0516 197.7395,-320.2813 206.7327,-325.8824 208.2627,-319.0516"/>
</g>
<!-- u11&#45;&gt;u7 -->
<g id="edge16" class="edge">
<title>u11&#45;&gt;u7</title>
<path fill="none" stroke="#000000" d="M1343.258,-461.2422C1334.7638,-457.1261 1325.3092,-452.7215 1316.4895,-449 1196.3432,-398.3035 1049.8678,-348.2203 982.9688,-325.9715"/>
<polygon fill="#000000" stroke="#000000" points="983.9029,-322.5939 973.3095,-322.7689 981.6999,-329.2382 983.9029,-322.5939"/>
</g>
<!-- u12&#45;&gt;u7 -->
<g id="edge17" class="edge">
<title>u12&#45;&gt;u7</title>
<path fill="none" stroke="#000000" d="M1448.3282,-460.5965C1439.8279,-456.5475 1430.3883,-452.3419 1421.4895,-449 1263.1313,-389.529 1066.7074,-341.5354 984.9685,-322.6556"/>
<polygon fill="#000000" stroke="#000000" points="985.6516,-319.2214 975.1219,-320.3943 984.0848,-326.0438 985.6516,-319.2214"/>
</g>
<!-- u13&#45;&gt;u7 -->
<g id="edge18" class="edge">
<title>u13&#45;&gt;u7</title>
<path fill="none" stroke="#000000" d="M1556.3959,-460.6108C1548.641,-456.4204 1539.88,-452.1325 1531.4895,-449 1333.8375,-375.2079 1083.0212,-333.7096 986.6764,-319.5695"/>
<polygon fill="#000000" stroke="#000000" points="986.9022,-316.0657 976.5034,-318.0944 985.8976,-322.9933 986.9022,-316.0657"/>
</g>
<!-- u14&#45;&gt;u16 -->
<g id="edge36" class="edge">
<title>u14&#45;&gt;u16</title>
<path fill="none" stroke="#000000" d="M178.4306,-158.5935C218.321,-132.9232 298.2514,-81.4866 341.3502,-53.7517"/>
<polygon fill="#000000" stroke="#000000" points="343.445,-56.5657 349.9603,-48.2109 339.657,-50.6792 343.445,-56.5657"/>
</g>
<!-- u14&#45;&gt;u7 -->
<g id="edge19" class="edge">
<title>u14&#45;&gt;u7</title>
<path fill="none" stroke="#000000" d="M196.1166,-181.3583C333.6935,-205.6775 772.638,-283.2687 907.016,-307.0224"/>
<polygon fill="#000000" stroke="#000000" points="906.431,-310.4731 916.8876,-308.7673 907.6496,-303.58 906.431,-310.4731"/>
</g>
<!-- u18&#45;&gt;u14 -->
<g id="edge32" class="edge">
<title>u18&#45;&gt;u14</title>
<path fill="none" stroke="#000000" d="M166.6879,-295.9841C164.3173,-272.2784 160.1246,-230.3507 157.3262,-202.3667"/>
<polygon fill="#000000" stroke="#000000" points="160.8064,-201.9934 156.3286,-192.3914 153.8411,-202.69 160.8064,-201.9934"/>
</g>
<!-- u19 -->
<g id="node20" class="node">
<title>u19</title>
<ellipse fill="#ffbbff" stroke="#000000" stroke-width="0" cx="1400.4895" cy="-947" rx="46.5926" ry="18"/>
<text text-anchor="middle" x="1400.4895" y="-943.3" font-family="Times,serif" font-size="14.00" fill="#000000">TrimDocs</text>
</g>
<!-- u20 -->
<g id="node21" class="node">
<title>u20</title>
<ellipse fill="#ffff77" stroke="#000000" stroke-width="0" cx="492.4895" cy="-947" rx="53.0913" ry="18"/>
<text text-anchor="middle" x="492.4895" y="-943.3" font-family="Times,serif" font-size="14.00" fill="#000000">UTF8String</text>
</g>
<!-- u20&#45;&gt;u23 -->
<g id="edge44" class="edge">
<title>u20&#45;&gt;u23</title>
<path fill="none" stroke="#000000" d="M492.4895,-928.8733C492.4895,-888.0329 492.4895,-788.5625 492.4895,-739.4261"/>
<polygon fill="#000000" stroke="#000000" points="495.9896,-739.1884 492.4895,-729.1884 488.9896,-739.1884 495.9896,-739.1884"/>
</g>
<!-- u21 -->
<g id="node22" class="node">
<title>u21</title>
<ellipse fill="#ff7777" stroke="#000000" stroke-width="0" cx="939.4895" cy="-711" rx="65.7887" ry="18"/>
<text text-anchor="middle" x="939.4895" y="-707.3" font-family="Times,serif" font-size="14.00" fill="#000000">StoredTimeline</text>
</g>
<!-- u22 -->
<g id="node23" class="node">
<title>u22</title>
<ellipse fill="#ff7777" stroke="#000000" stroke-width="0" cx="812.4895" cy="-711" rx="42.7926" ry="18"/>
<text text-anchor="middle" x="812.4895" y="-707.3" font-family="Times,serif" font-size="14.00" fill="#000000">Timeline</text>
</g>
<!-- u23&#45;&gt;u9 -->
<g id="edge23" class="edge">
<title>u23&#45;&gt;u9</title>
<path fill="none" stroke="#000000" d="M491.9518,-692.8733C490.7405,-652.0329 487.7901,-552.5625 486.3326,-503.4261"/>
<polygon fill="#000000" stroke="#000000" points="489.824,-503.0802 486.029,-493.1884 482.8271,-503.2878 489.824,-503.0802"/>
</g>
<!-- u23&#45;&gt;u5 -->
<g id="edge5" class="edge">
<title>u23&#45;&gt;u5</title>
<path fill="none" stroke="#000000" d="M517.3248,-694.3034C558.0462,-666.6371 641.1189,-608.9741 707.4895,-555 729.1602,-537.3769 752.5016,-516.0393 769.6964,-499.8342"/>
<polygon fill="#000000" stroke="#000000" points="772.2866,-502.2015 777.136,-492.7816 767.4708,-497.1213 772.2866,-502.2015"/>
</g>
<!-- u23&#45;&gt;u14 -->
<g id="edge33" class="edge">
<title>u23&#45;&gt;u14</title>
<path fill="none" stroke="#000000" d="M458.9922,-695.5434C446.3136,-689.7104 431.7454,-683.029 418.4895,-677 298.2543,-622.3154 233.2007,-655.5013 147.4895,-555 69.0398,-463.0133 66.894,-405.4657 95.4895,-288 103.3652,-255.6476 122.1458,-222.2265 136.4191,-200.0048"/>
<polygon fill="#000000" stroke="#000000" points="139.449,-201.7675 142.0217,-191.4897 133.6012,-197.9198 139.449,-201.7675"/>
</g>
<!-- u23&#45;&gt;u18 -->
<g id="edge41" class="edge">
<title>u23&#45;&gt;u18</title>
<path fill="none" stroke="#000000" d="M459.3885,-695.4943C380.9934,-658.6251 189.8982,-567.8379 181.4895,-555 138.2675,-489.0114 151.5856,-389.7434 161.6599,-341.8305"/>
<polygon fill="#000000" stroke="#000000" points="165.119,-342.3976 163.8641,-331.8773 158.2846,-340.884 165.119,-342.3976"/>
</g>
<!-- u24 -->
<g id="node25" class="node">
<title>u24</title>
<ellipse fill="#ff7777" stroke="#000000" stroke-width="0" cx="605.4895" cy="-711" rx="30.5947" ry="18"/>
<text text-anchor="middle" x="605.4895" y="-707.3" font-family="Times,serif" font-size="14.00" fill="#000000">Index</text>
</g>
<!-- u25&#45;&gt;u10 -->
<g id="edge24" class="edge">
<title>u25&#45;&gt;u10</title>
<path fill="none" stroke="#000000" d="M676.6855,-695.5691C666.9192,-689.7392 655.6982,-683.053 645.4895,-677 553.6326,-622.5357 517.7841,-626.5291 438.4895,-555 421.2984,-539.4925 405.9223,-518.2682 395.18,-501.5777"/>
<polygon fill="#000000" stroke="#000000" points="397.9803,-499.4548 389.7067,-492.8367 392.0474,-503.1698 397.9803,-499.4548"/>
</g>
<!-- u25&#45;&gt;u2 -->
<g id="edge3" class="edge">
<title>u25&#45;&gt;u2</title>
<path fill="none" stroke="#000000" d="M727.0772,-695.2571C737.202,-689.1286 749.1885,-682.3166 760.4895,-677 903.8698,-609.5461 963.8391,-643.1824 1095.4895,-555 1117.1034,-540.5225 1136.6777,-518.3259 1150.1036,-500.983"/>
<polygon fill="#000000" stroke="#000000" points="1152.9606,-503.0072 1156.1825,-492.9141 1147.3697,-498.7951 1152.9606,-503.0072"/>
</g>
<!-- u25&#45;&gt;u14 -->
<g id="edge34" class="edge">
<title>u25&#45;&gt;u14</title>
<path fill="none" stroke="#000000" d="M679.1519,-695.0367C669.1298,-688.7298 657.0764,-681.8465 645.4895,-677 446.7896,-593.8886 328.0613,-708.02 176.4895,-555 134.0651,-512.1702 121.7447,-347.906 128.4895,-288 131.8574,-258.0865 140.0475,-224.577 146.3432,-201.6745"/>
<polygon fill="#000000" stroke="#000000" points="149.7402,-202.5233 149.0783,-191.9492 143.0016,-200.6281 149.7402,-202.5233"/>
</g>
<!-- u25&#45;&gt;u18 -->
<g id="edge42" class="edge">
<title>u25&#45;&gt;u18</title>
<path fill="none" stroke="#000000" d="M679.1045,-695.1485C669.0748,-688.8595 657.0284,-681.9595 645.4895,-677 461.4073,-597.8803 346.0989,-703.4132 211.4895,-555 183.4581,-524.0941 173.1307,-398.8278 169.8397,-342.1257"/>
<polygon fill="#000000" stroke="#000000" points="173.3302,-341.854 169.2882,-332.0605 166.3407,-342.2371 173.3302,-341.854"/>
</g>
<!-- u26 -->
<g id="node27" class="node">
<title>u26</title>
<ellipse fill="#ff7777" stroke="#000000" stroke-width="0" cx="378.4895" cy="-711" rx="31.3957" ry="18"/>
<text text-anchor="middle" x="378.4895" y="-707.3" font-family="Times,serif" font-size="14.00" fill="#000000">Event</text>
</g>
<!-- u27 -->
<g id="node28" class="node">
<title>u27</title>
<ellipse fill="#ff7777" stroke="#000000" stroke-width="0" cx="278.4895" cy="-711" rx="50.8918" ry="18"/>
<text text-anchor="middle" x="278.4895" y="-707.3" font-family="Times,serif" font-size="14.00" fill="#000000">TimeSpace</text>
</g>
<!-- u28 -->
<g id="node29" class="node">
<title>u28</title>
<ellipse fill="#ff7777" stroke="#000000" stroke-width="0" cx="162.4895" cy="-711" rx="47.3916" ry="18"/>
<text text-anchor="middle" x="162.4895" y="-707.3" font-family="Times,serif" font-size="14.00" fill="#000000">TimeSpan</text>
</g>
</g>
</svg>
