<?xml version="1.0" encoding="UTF-8" standalone="no"?>
<!DOCTYPE svg PUBLIC "-//W3C//DTD SVG 1.1//EN"
 "http://www.w3.org/Graphics/SVG/1.1/DTD/svg11.dtd">
<!-- Generated by graphviz version 2.40.1 (20161225.0304)
 -->
<!-- Title: Modules Pages: 1 -->
<svg width="864pt" height="537pt"
 viewBox="0.00 0.00 864.00 537.13" xmlns="http://www.w3.org/2000/svg" xmlns:xlink="http://www.w3.org/1999/xlink">
<g id="graph0" class="graph" transform="scale(.4283 .4283) rotate(0) translate(4 1250)">
<title>Modules</title>
<polygon fill="#ffffff" stroke="transparent" points="-4,4 -4,-1250 2013.1071,-1250 2013.1071,4 -4,4"/>
<g id="clust1" class="cluster">
<title>cluster_0</title>
<polygon fill="#000000" fill-opacity="0.058824" stroke="#000000" stroke-opacity="0.058824" points="262.9612,-314.974 262.9612,-752.6952 1868.9612,-752.6952 1868.9612,-314.974 262.9612,-314.974"/>
<text text-anchor="middle" x="1065.9612" y="-737.4952" font-family="Times,serif" font-size="14.00" fill="#000000">Components</text>
</g>
<g id="clust2" class="cluster">
<title>cluster_1</title>
<polygon fill="#000000" fill-opacity="0.058824" stroke="#000000" stroke-opacity="0.058824" points="368.9612,-507.2007 368.9612,-680.8996 1347.9612,-680.8996 1347.9612,-507.2007 368.9612,-507.2007"/>
<text text-anchor="middle" x="858.4612" y="-665.6996" font-family="Times,serif" font-size="14.00" fill="#000000">Dialogs</text>
</g>
<g id="clust3" class="cluster">
<title>cluster_2</title>
<polygon fill="#000000" fill-opacity="0.058824" stroke="#000000" stroke-opacity="0.058824" points="1467.9612,-507.2007 1467.9612,-680.8996 1775.9612,-680.8996 1775.9612,-507.2007 1467.9612,-507.2007"/>
<text text-anchor="middle" x="1621.9612" y="-665.6996" font-family="Times,serif" font-size="14.00" fill="#000000">Drawers</text>
</g>
<g id="clust4" class="cluster">
<title>cluster_3</title>
<polygon fill="#000000" fill-opacity="0.058824" stroke="#000000" stroke-opacity="0.058824" points="148.9612,-148.223 148.9612,-488.6729 254.9612,-488.6729 254.9612,-148.223 148.9612,-148.223"/>
<text text-anchor="middle" x="201.9612" y="-473.4729" font-family="Times,serif" font-size="14.00" fill="#000000">Plumbing</text>
</g>
<g id="clust5" class="cluster">
<title>cluster_4</title>
<polygon fill="#000000" fill-opacity="0.058824" stroke="#000000" stroke-opacity="0.058824" points="1573.9612,-1053.7732 1573.9612,-1227.4721 1683.9612,-1227.4721 1683.9612,-1053.7732 1573.9612,-1053.7732"/>
<text text-anchor="middle" x="1628.9612" y="-1212.2721" font-family="Times,serif" font-size="14.00" fill="#000000">Scripts</text>
</g>
<g id="clust6" class="cluster">
<title>cluster_5</title>
<polygon fill="#000000" fill-opacity="0.058824" stroke="#000000" stroke-opacity="0.058824" points="147.9612,-771.223 147.9612,-1035.2454 1266.9612,-1035.2454 1266.9612,-771.223 147.9612,-771.223"/>
<text text-anchor="middle" x="707.4612" y="-1020.0454" font-family="Times,serif" font-size="14.00" fill="#000000">Timeline</text>
</g>
<g id="clust7" class="cluster">
<title>cluster_6</title>
<polygon fill="#000000" fill-opacity="0.058824" stroke="#000000" stroke-opacity="0.058824" points="155.9612,-789.7509 155.9612,-963.4498 1258.9612,-963.4498 1258.9612,-789.7509 155.9612,-789.7509"/>
<text text-anchor="middle" x="707.4612" y="-948.2498" font-family="Times,serif" font-size="14.00" fill="#000000">UI</text>
</g>
<!-- u15 -->
<g id="node1" class="node">
<title>u15</title>
<ellipse fill="#bbffbb" stroke="#000000" stroke-width="0" cx="1341.9612" cy="-1114" rx="38.9931" ry="18"/>
<text text-anchor="middle" x="1341.9612" y="-1110.3" font-family="Times,serif" font-size="14.00" fill="#000000">Settings</text>
</g>
<!-- u9 -->
<g id="node5" class="node">
<title>u9</title>
<ellipse fill="#ffffbb" stroke="#000000" stroke-width="0" cx="1822.9612" cy="-567" rx="37.8943" ry="18"/>
<text text-anchor="middle" x="1822.9612" y="-563.3" font-family="Times,serif" font-size="14.00" fill="#000000">TopBar</text>
</g>
<!-- u15&#45;&gt;u9 -->
<g id="edge8" class="edge">
<title>u15&#45;&gt;u9</title>
<path fill="none" stroke="#000000" d="M1360.6777,-1097.8089C1425.3828,-1041.1173 1643.1289,-844.291 1779.9612,-647 1791.5704,-630.2614 1802.413,-610.0439 1810.3065,-594.1213"/>
<polygon fill="#000000" stroke="#000000" points="1813.5979,-595.3558 1814.8206,-584.8318 1807.3019,-592.2963 1813.5979,-595.3558"/>
</g>
<!-- u10 -->
<g id="node6" class="node">
<title>u10</title>
<ellipse fill="#ffffbb" stroke="#000000" stroke-width="0" cx="1041.9612" cy="-375" rx="30.5947" ry="18"/>
<text text-anchor="middle" x="1041.9612" y="-371.3" font-family="Times,serif" font-size="14.00" fill="#000000">Index</text>
</g>
<!-- u15&#45;&gt;u10 -->
<g id="edge24" class="edge">
<title>u15&#45;&gt;u10</title>
<path fill="none" stroke="#000000" d="M1365.9162,-1099.5066C1413.4782,-1070.2402 1522.2803,-1000.8211 1603.9612,-930 1734.3813,-816.9197 1806.3798,-807.4804 1869.9612,-647 1887.3141,-603.2012 1899.8207,-577.4399 1869.9612,-541 1768.3266,-416.967 1235.8141,-383.6984 1082.9964,-376.6428"/>
<polygon fill="#000000" stroke="#000000" points="1082.8077,-373.1309 1072.6609,-376.1792 1082.494,-380.1239 1082.8077,-373.1309"/>
</g>
<!-- u4 -->
<g id="node11" class="node">
<title>u4</title>
<ellipse fill="#bbbbff" stroke="#000000" stroke-width="0" cx="1285.9612" cy="-567" rx="53.8905" ry="18"/>
<text text-anchor="middle" x="1285.9612" y="-563.3" font-family="Times,serif" font-size="14.00" fill="#000000">SettingsEdit</text>
</g>
<!-- u15&#45;&gt;u4 -->
<g id="edge3" class="edge">
<title>u15&#45;&gt;u4</title>
<path fill="none" stroke="#000000" d="M1342.8239,-1095.7853C1344.782,-1049.1039 1348.5427,-921.4398 1336.9612,-816 1328.0218,-734.6139 1305.2493,-640.3982 1293.392,-594.7045"/>
<polygon fill="#000000" stroke="#000000" points="1296.7534,-593.7242 1290.8316,-584.9389 1289.9823,-595.4996 1296.7534,-593.7242"/>
</g>
<!-- u5 -->
<g id="node12" class="node">
<title>u5</title>
<ellipse fill="#bbbbff" stroke="#000000" stroke-width="0" cx="957.9612" cy="-567" rx="63.8893" ry="18"/>
<text text-anchor="middle" x="957.9612" y="-563.3" font-family="Times,serif" font-size="14.00" fill="#000000">TimeScaleEdit</text>
</g>
<!-- u15&#45;&gt;u5 -->
<g id="edge4" class="edge">
<title>u15&#45;&gt;u5</title>
<path fill="none" stroke="#000000" d="M1337.878,-1095.7714C1324.0954,-1034.6986 1279.2475,-839.796 1262.9612,-816 1190.9114,-710.727 1125.9926,-732.1036 1030.9612,-647 1012.235,-630.2301 993.1581,-609.1569 979.2041,-592.849"/>
<polygon fill="#000000" stroke="#000000" points="981.5318,-590.181 972.4031,-584.8034 976.1859,-594.7 981.5318,-590.181"/>
</g>
<!-- u6 -->
<g id="node13" class="node">
<title>u6</title>
<ellipse fill="#bbbbff" stroke="#000000" stroke-width="0" cx="1126.9612" cy="-567" rx="87.1846" ry="18"/>
<text text-anchor="middle" x="1126.9612" y="-563.3" font-family="Times,serif" font-size="14.00" fill="#000000">TimeSpaceNameEdit</text>
</g>
<!-- u15&#45;&gt;u6 -->
<g id="edge6" class="edge">
<title>u15&#45;&gt;u6</title>
<path fill="none" stroke="#000000" d="M1342.182,-1095.8088C1342.1681,-1048.118 1338.2916,-916.2404 1298.9612,-816 1263.3552,-725.2516 1189.0108,-635.2484 1150.7848,-592.5801"/>
<polygon fill="#000000" stroke="#000000" points="1153.1692,-589.9987 1143.864,-584.9326 1147.9789,-594.6957 1153.1692,-589.9987"/>
</g>
<!-- u12 -->
<g id="node16" class="node">
<title>u12</title>
<ellipse fill="#ffbbbb" stroke="#000000" stroke-width="0" cx="1515.9612" cy="-567" rx="39.7935" ry="18"/>
<text text-anchor="middle" x="1515.9612" y="-563.3" font-family="Times,serif" font-size="14.00" fill="#000000">Siblings</text>
</g>
<!-- u15&#45;&gt;u12 -->
<g id="edge27" class="edge">
<title>u15&#45;&gt;u12</title>
<path fill="none" stroke="#000000" d="M1347.6516,-1096.1113C1373.0532,-1016.2569 1476.1866,-692.0388 1507.1378,-594.7379"/>
<polygon fill="#000000" stroke="#000000" points="1510.5304,-595.6189 1510.2264,-585.0284 1503.8597,-593.4969 1510.5304,-595.6189"/>
</g>
<!-- u13 -->
<g id="node17" class="node">
<title>u13</title>
<ellipse fill="#ffbbbb" stroke="#000000" stroke-width="0" cx="1725.9612" cy="-567" rx="41.6928" ry="18"/>
<text text-anchor="middle" x="1725.9612" y="-563.3" font-family="Times,serif" font-size="14.00" fill="#000000">Children</text>
</g>
<!-- u15&#45;&gt;u13 -->
<g id="edge28" class="edge">
<title>u15&#45;&gt;u13</title>
<path fill="none" stroke="#000000" d="M1354.8754,-1096.8695C1379.2322,-1064.4854 1433.5032,-991.9708 1477.9612,-930 1567.2937,-805.478 1589.9752,-774.5281 1674.9612,-647 1686.7963,-629.2406 1699.7159,-608.9647 1709.5903,-593.2692"/>
<polygon fill="#000000" stroke="#000000" points="1712.6725,-594.9421 1715.0211,-584.6108 1706.7425,-591.2225 1712.6725,-594.9421"/>
</g>
<!-- u14 -->
<g id="node18" class="node">
<title>u14</title>
<ellipse fill="#ffbbbb" stroke="#000000" stroke-width="0" cx="1619.9612" cy="-567" rx="46.2923" ry="18"/>
<text text-anchor="middle" x="1619.9612" y="-563.3" font-family="Times,serif" font-size="14.00" fill="#000000">Timelines</text>
</g>
<!-- u15&#45;&gt;u14 -->
<g id="edge29" class="edge">
<title>u15&#45;&gt;u14</title>
<path fill="none" stroke="#000000" d="M1350.8959,-1096.4199C1391.3291,-1016.8625 1557.3216,-690.2514 1606.2979,-593.8843"/>
<polygon fill="#000000" stroke="#000000" points="1609.5095,-595.2901 1610.9201,-584.7896 1603.2692,-592.1186 1609.5095,-595.2901"/>
</g>
<!-- u16 -->
<g id="node19" class="node">
<title>u16</title>
<ellipse fill="#bbffbb" stroke="#000000" stroke-width="2" cx="201.9612" cy="-208" rx="45.4919" ry="18"/>
<text text-anchor="middle" x="201.9612" y="-204.3" font-family="Times,serif" font-size="14.00" fill="#000000">Plumbing</text>
</g>
<!-- u15&#45;&gt;u16 -->
<g id="edge33" class="edge">
<title>u15&#45;&gt;u16</title>
<path fill="none" stroke="#000000" d="M1302.967,-1113.2788C1118.1335,-1109.0938 331.7299,-1082.4493 151.9612,-930 -46.6138,-761.6023 -26.679,-587.8484 76.9612,-349 98.2673,-299.8982 143.3995,-255.9646 173.1987,-230.6503"/>
<polygon fill="#000000" stroke="#000000" points="175.7207,-233.1048 181.1644,-224.0153 171.2406,-227.7262 175.7207,-233.1048"/>
</g>
<!-- u27 -->
<g id="node20" class="node">
<title>u27</title>
<ellipse fill="#bbffff" stroke="#000000" stroke-width="0" cx="215.9612" cy="-375" rx="31.3957" ry="18"/>
<text text-anchor="middle" x="215.9612" y="-371.3" font-family="Times,serif" font-size="14.00" fill="#000000">Logic</text>
</g>
<!-- u15&#45;&gt;u27 -->
<g id="edge45" class="edge">
<title>u15&#45;&gt;u27</title>
<path fill="none" stroke="#000000" d="M1303.231,-1110.971C1107.0469,-1095.2456 229.2605,-1020.17 151.9612,-930 16.2745,-771.7207 153.5554,-487.9774 201.0801,-401.0344"/>
<polygon fill="#000000" stroke="#000000" points="204.2434,-402.5469 206.0274,-392.1033 198.1201,-399.1549 204.2434,-402.5469"/>
</g>
<!-- u20 -->
<g id="node24" class="node">
<title>u20</title>
<ellipse fill="#ffff77" stroke="#000000" stroke-width="0" cx="919.9612" cy="-850" rx="48.9926" ry="18"/>
<text text-anchor="middle" x="919.9612" y="-846.3" font-family="Times,serif" font-size="14.00" fill="#000000">TimeScale</text>
</g>
<!-- u15&#45;&gt;u20 -->
<g id="edge40" class="edge">
<title>u15&#45;&gt;u20</title>
<path fill="none" stroke="#000000" d="M1309.7888,-1103.6024C1242.4528,-1080.6656 1084.1332,-1020.4781 977.9612,-930 960.3343,-914.9786 945.1689,-893.5528 934.7709,-876.6545"/>
<polygon fill="#000000" stroke="#000000" points="937.6229,-874.6031 929.4993,-867.8018 931.6085,-878.1846 937.6229,-874.6031"/>
</g>
<!-- u23 -->
<g id="node27" class="node">
<title>u23</title>
<ellipse fill="#ffff77" stroke="#000000" stroke-width="0" cx="1058.9612" cy="-850" rx="72.2875" ry="18"/>
<text text-anchor="middle" x="1058.9612" y="-846.3" font-family="Times,serif" font-size="14.00" fill="#000000">TimeSpaceName</text>
</g>
<!-- u15&#45;&gt;u23 -->
<g id="edge41" class="edge">
<title>u15&#45;&gt;u23</title>
<path fill="none" stroke="#000000" d="M1323.9045,-1097.9946C1288.3072,-1066.3446 1206.7307,-993.3334 1139.9612,-930 1120.8598,-911.8816 1099.7065,-890.9591 1083.8081,-875.0559"/>
<polygon fill="#000000" stroke="#000000" points="1085.9976,-872.2949 1076.4576,-867.6863 1081.0414,-877.2382 1085.9976,-872.2949"/>
</g>
<!-- u17 -->
<g id="node2" class="node">
<title>u17</title>
<ellipse fill="#bbffbb" stroke="#000000" stroke-width="0" cx="237.9612" cy="-42" rx="29.795" ry="18"/>
<text text-anchor="middle" x="237.9612" y="-38.3" font-family="Times,serif" font-size="14.00" fill="#000000">Main</text>
</g>
<!-- u28 -->
<g id="node3" class="node">
<title>u28</title>
<ellipse fill="#bbffbb" stroke="#000000" stroke-width="0" cx="1962.9612" cy="-567" rx="46.2923" ry="18"/>
<text text-anchor="middle" x="1962.9612" y="-563.3" font-family="Times,serif" font-size="14.00" fill="#000000">WithRoot</text>
</g>
<!-- u28&#45;&gt;u10 -->
<g id="edge26" class="edge">
<title>u28&#45;&gt;u10</title>
<path fill="none" stroke="#000000" d="M1933.8435,-552.862C1924.1847,-548.5853 1913.2655,-544.1839 1902.9612,-541 1594.8665,-445.8015 1207.1371,-394.4915 1082.5021,-379.6186"/>
<polygon fill="#000000" stroke="#000000" points="1082.625,-376.1088 1072.2833,-378.4108 1081.8033,-383.0604 1082.625,-376.1088"/>
</g>
<!-- u0 -->
<g id="node4" class="node">
<title>u0</title>
<ellipse fill="#ffffbb" stroke="#000000" stroke-width="0" cx="1407.9612" cy="-567" rx="50.0912" ry="18"/>
<text text-anchor="middle" x="1407.9612" y="-563.3" font-family="Times,serif" font-size="14.00" fill="#000000">BottomBar</text>
</g>
<!-- u0&#45;&gt;u10 -->
<g id="edge10" class="edge">
<title>u0&#45;&gt;u10</title>
<path fill="none" stroke="#000000" d="M1379.5464,-552.0938C1312.3575,-516.8472 1144.0756,-428.5682 1073.6908,-391.645"/>
<polygon fill="#000000" stroke="#000000" points="1075.3019,-388.5379 1064.8205,-386.9917 1072.05,-394.7367 1075.3019,-388.5379"/>
</g>
<!-- u9&#45;&gt;u10 -->
<g id="edge19" class="edge">
<title>u9&#45;&gt;u10</title>
<path fill="none" stroke="#000000" d="M1801.3564,-552.0779C1794.7222,-548.0144 1787.2452,-543.9308 1779.9612,-541 1525.653,-438.676 1195.4151,-392.8546 1082.1379,-379.4224"/>
<polygon fill="#000000" stroke="#000000" points="1082.5107,-375.9423 1072.1722,-378.2584 1081.6986,-382.895 1082.5107,-375.9423"/>
</g>
<!-- u10&#45;&gt;u17 -->
<g id="edge38" class="edge">
<title>u10&#45;&gt;u17</title>
<path fill="none" stroke="#000000" d="M1016.5712,-364.484C898.998,-315.7876 407.4521,-112.1996 272.4151,-56.2701"/>
<polygon fill="#000000" stroke="#000000" points="273.5366,-52.9463 262.9584,-52.3533 270.858,-59.4135 273.5366,-52.9463"/>
</g>
<!-- u11 -->
<g id="node7" class="node">
<title>u11</title>
<ellipse fill="#ffffbb" stroke="#000000" stroke-width="0" cx="314.9612" cy="-567" rx="43.5923" ry="18"/>
<text text-anchor="middle" x="314.9612" y="-563.3" font-family="Times,serif" font-size="14.00" fill="#000000">Snackbar</text>
</g>
<!-- u11&#45;&gt;u10 -->
<g id="edge20" class="edge">
<title>u11&#45;&gt;u10</title>
<path fill="none" stroke="#000000" d="M340.3714,-552.2938C348.0936,-548.2363 356.72,-544.1019 364.9612,-541 598.9774,-452.919 896.2545,-398.8835 1002.2321,-381.3147"/>
<polygon fill="#000000" stroke="#000000" points="1002.8734,-384.7564 1012.1734,-379.681 1001.7382,-377.849 1002.8734,-384.7564"/>
</g>
<!-- u11&#45;&gt;u16 -->
<g id="edge32" class="edge">
<title>u11&#45;&gt;u16</title>
<path fill="none" stroke="#000000" d="M310.7499,-549.0166C301.8194,-511.492 279.8333,-422.2538 255.9612,-349 242.9408,-309.0454 225.0514,-263.8381 213.4972,-235.6251"/>
<polygon fill="#000000" stroke="#000000" points="216.5939,-233.9532 209.5478,-226.0409 210.1218,-236.6202 216.5939,-233.9532"/>
</g>
<!-- u11&#45;&gt;u27 -->
<g id="edge44" class="edge">
<title>u11&#45;&gt;u27</title>
<path fill="none" stroke="#000000" d="M305.825,-549.2813C288.3575,-515.4048 250.1409,-441.2878 229.6247,-401.4988"/>
<polygon fill="#000000" stroke="#000000" points="232.6261,-399.6826 224.9324,-392.3986 226.4045,-402.8907 232.6261,-399.6826"/>
</g>
<!-- u1 -->
<g id="node8" class="node">
<title>u1</title>
<ellipse fill="#bbbbff" stroke="#000000" stroke-width="0" cx="586.9612" cy="-567" rx="34.394" ry="18"/>
<text text-anchor="middle" x="586.9612" y="-563.3" font-family="Times,serif" font-size="14.00" fill="#000000">EULA</text>
</g>
<!-- u1&#45;&gt;u10 -->
<g id="edge11" class="edge">
<title>u1&#45;&gt;u10</title>
<path fill="none" stroke="#000000" d="M608.9867,-553.1111C615.9013,-548.9897 623.6423,-544.6151 630.9612,-541 765.3916,-474.6003 933.2655,-413.1175 1005.8092,-387.5287"/>
<polygon fill="#000000" stroke="#000000" points="1007.1248,-390.7763 1015.3994,-384.1594 1004.8045,-384.172 1007.1248,-390.7763"/>
</g>
<!-- u2 -->
<g id="node9" class="node">
<title>u2</title>
<ellipse fill="#bbbbff" stroke="#000000" stroke-width="0" cx="498.9612" cy="-567" rx="35.194" ry="18"/>
<text text-anchor="middle" x="498.9612" y="-563.3" font-family="Times,serif" font-size="14.00" fill="#000000">Import</text>
</g>
<!-- u2&#45;&gt;u10 -->
<g id="edge12" class="edge">
<title>u2&#45;&gt;u10</title>
<path fill="none" stroke="#000000" d="M521.3831,-552.854C528.4506,-548.7222 536.3914,-544.4063 543.9612,-541 709.6755,-466.4323 919.3626,-407.3181 1003.9905,-384.8217"/>
<polygon fill="#000000" stroke="#000000" points="1004.9058,-388.2001 1013.6797,-382.2612 1003.1173,-381.4324 1004.9058,-388.2001"/>
</g>
<!-- u2&#45;&gt;u16 -->
<g id="edge30" class="edge">
<title>u2&#45;&gt;u16</title>
<path fill="none" stroke="#000000" d="M493.8198,-548.9305C481.865,-509.2945 449.103,-413.1463 395.9612,-349 351.1696,-294.933 281.2128,-250.9161 238.6778,-227.1681"/>
<polygon fill="#000000" stroke="#000000" points="240.2271,-224.0258 229.7784,-222.272 236.8528,-230.1588 240.2271,-224.0258"/>
</g>
<!-- u2&#45;&gt;u27 -->
<g id="edge42" class="edge">
<title>u2&#45;&gt;u27</title>
<path fill="none" stroke="#000000" d="M477.6902,-552.5688C427.5412,-518.5454 301.8567,-433.2754 244.8648,-394.6095"/>
<polygon fill="#000000" stroke="#000000" points="246.5702,-391.537 236.3299,-388.819 242.6401,-397.3297 246.5702,-391.537"/>
</g>
<!-- u3 -->
<g id="node10" class="node">
<title>u3</title>
<ellipse fill="#bbbbff" stroke="#000000" stroke-width="0" cx="793.9612" cy="-567" rx="81.7856" ry="18"/>
<text text-anchor="middle" x="793.9612" y="-563.3" font-family="Times,serif" font-size="14.00" fill="#000000">ExploreTimeSpaces</text>
</g>
<!-- u3&#45;&gt;u10 -->
<g id="edge13" class="edge">
<title>u3&#45;&gt;u10</title>
<path fill="none" stroke="#000000" d="M816.407,-549.6226C862.1683,-514.1945 966.064,-433.7591 1015.2252,-395.6989"/>
<polygon fill="#000000" stroke="#000000" points="1017.4212,-398.4251 1023.1859,-389.5358 1013.136,-392.89 1017.4212,-398.4251"/>
</g>
<!-- u4&#45;&gt;u10 -->
<g id="edge14" class="edge">
<title>u4&#45;&gt;u10</title>
<path fill="none" stroke="#000000" d="M1264.7347,-550.2971C1220.1258,-515.1951 1116.7647,-433.8617 1068.1396,-395.5993"/>
<polygon fill="#000000" stroke="#000000" points="1070.2951,-392.8419 1060.272,-389.4085 1065.9664,-398.343 1070.2951,-392.8419"/>
</g>
<!-- u5&#45;&gt;u10 -->
<g id="edge15" class="edge">
<title>u5&#45;&gt;u10</title>
<path fill="none" stroke="#000000" d="M965.8637,-548.9371C980.698,-515.0302 1012.7823,-441.6948 1030.1763,-401.9371"/>
<polygon fill="#000000" stroke="#000000" points="1033.4608,-403.1615 1034.2625,-392.5971 1027.0477,-400.3558 1033.4608,-403.1615"/>
</g>
<!-- u6&#45;&gt;u10 -->
<g id="edge16" class="edge">
<title>u6&#45;&gt;u10</title>
<path fill="none" stroke="#000000" d="M1118.9646,-548.9371C1103.9538,-515.0302 1071.4876,-441.6948 1053.8865,-401.9371"/>
<polygon fill="#000000" stroke="#000000" points="1057.0002,-400.3242 1049.7516,-392.5971 1050.5994,-403.1579 1057.0002,-400.3242"/>
</g>
<!-- u7 -->
<g id="node14" class="node">
<title>u7</title>
<ellipse fill="#bbbbff" stroke="#000000" stroke-width="0" cx="410.9612" cy="-567" rx="34.394" ry="18"/>
<text text-anchor="middle" x="410.9612" y="-563.3" font-family="Times,serif" font-size="14.00" fill="#000000">Export</text>
</g>
<!-- u7&#45;&gt;u10 -->
<g id="edge17" class="edge">
<title>u7&#45;&gt;u10</title>
<path fill="none" stroke="#000000" d="M432.7591,-552.6171C439.6644,-548.4756 447.4574,-544.2138 454.9612,-541 652.9201,-456.2165 906.7472,-401.3886 1002.7955,-382.4198"/>
<polygon fill="#000000" stroke="#000000" points="1003.5147,-385.8455 1012.6559,-380.4894 1002.1697,-378.9759 1003.5147,-385.8455"/>
</g>
<!-- u7&#45;&gt;u16 -->
<g id="edge31" class="edge">
<title>u7&#45;&gt;u16</title>
<path fill="none" stroke="#000000" d="M411.2936,-548.9419C411.2246,-509.7354 406.7183,-415.0417 367.9612,-349 336.2462,-294.9578 276.0323,-251.7983 237.505,-228.0774"/>
<polygon fill="#000000" stroke="#000000" points="239.0528,-224.9234 228.683,-222.7515 235.435,-230.9161 239.0528,-224.9234"/>
</g>
<!-- u7&#45;&gt;u27 -->
<g id="edge43" class="edge">
<title>u7&#45;&gt;u27</title>
<path fill="none" stroke="#000000" d="M394.671,-550.9604C360.0877,-516.9092 279.2327,-437.2981 239.2264,-397.9072"/>
<polygon fill="#000000" stroke="#000000" points="241.3769,-395.1128 231.7956,-390.5908 236.4657,-400.1008 241.3769,-395.1128"/>
</g>
<!-- u8 -->
<g id="node15" class="node">
<title>u8</title>
<ellipse fill="#bbbbff" stroke="#000000" stroke-width="0" cx="666.9612" cy="-567" rx="27.0966" ry="18"/>
<text text-anchor="middle" x="666.9612" y="-563.3" font-family="Times,serif" font-size="14.00" fill="#000000">New</text>
</g>
<!-- u8&#45;&gt;u10 -->
<g id="edge18" class="edge">
<title>u8&#45;&gt;u10</title>
<path fill="none" stroke="#000000" d="M684.8665,-553.1532C690.5192,-549.0335 696.8792,-544.6492 702.9612,-541 809.9064,-476.8329 945.2007,-416.3269 1007.5853,-389.503"/>
<polygon fill="#000000" stroke="#000000" points="1009.1404,-392.6446 1016.9562,-385.4917 1006.3857,-386.2094 1009.1404,-392.6446"/>
</g>
<!-- u12&#45;&gt;u10 -->
<g id="edge21" class="edge">
<title>u12&#45;&gt;u10</title>
<path fill="none" stroke="#000000" d="M1492.607,-552.2318C1486.0477,-548.3521 1478.8287,-544.3264 1471.9612,-541 1330.9546,-472.7009 1154.1133,-411.7745 1078.73,-386.8938"/>
<polygon fill="#000000" stroke="#000000" points="1079.3736,-383.4212 1068.7807,-383.6252 1077.1887,-390.0716 1079.3736,-383.4212"/>
</g>
<!-- u13&#45;&gt;u10 -->
<g id="edge22" class="edge">
<title>u13&#45;&gt;u10</title>
<path fill="none" stroke="#000000" d="M1700.5069,-552.6676C1692.4954,-548.5282 1683.5056,-544.2548 1674.9612,-541 1457.3187,-458.0923 1182.3431,-401.5207 1081.412,-382.2694"/>
<polygon fill="#000000" stroke="#000000" points="1081.8371,-378.7878 1071.3605,-380.3663 1080.5348,-385.6656 1081.8371,-378.7878"/>
</g>
<!-- u14&#45;&gt;u10 -->
<g id="edge23" class="edge">
<title>u14&#45;&gt;u10</title>
<path fill="none" stroke="#000000" d="M1591.4507,-552.632C1583.023,-548.6284 1573.7098,-544.4383 1564.9612,-541 1386.9302,-471.0317 1166.4135,-408.6959 1079.5924,-385.0665"/>
<polygon fill="#000000" stroke="#000000" points="1080.4868,-381.6827 1069.9193,-382.4437 1078.6549,-388.4387 1080.4868,-381.6827"/>
</g>
<!-- u16&#45;&gt;u17 -->
<g id="edge39" class="edge">
<title>u16&#45;&gt;u17</title>
<path fill="none" stroke="#000000" d="M205.8824,-189.9191C212.1581,-160.9811 224.5041,-104.0522 231.9154,-69.8778"/>
<polygon fill="#000000" stroke="#000000" points="235.3459,-70.5733 234.0449,-60.0586 228.5049,-69.0896 235.3459,-70.5733"/>
</g>
<!-- u16&#45;&gt;u10 -->
<g id="edge25" class="edge">
<title>u16&#45;&gt;u10</title>
<path fill="none" stroke="#000000" d="M242.6244,-216.0842C385.3051,-244.4505 862.0976,-339.2414 1002.6481,-367.1842"/>
<polygon fill="#000000" stroke="#000000" points="1002.0672,-370.6371 1012.5577,-369.1543 1003.4322,-363.7715 1002.0672,-370.6371"/>
</g>
<!-- u27&#45;&gt;u16 -->
<g id="edge37" class="edge">
<title>u27&#45;&gt;u16</title>
<path fill="none" stroke="#000000" d="M214.4363,-356.8102C212.0063,-327.8234 207.2359,-270.9192 204.3497,-236.4916"/>
<polygon fill="#000000" stroke="#000000" points="207.8075,-235.84 203.4842,-226.1674 200.832,-236.4249 207.8075,-235.84"/>
</g>
<!-- u29 -->
<g id="node21" class="node">
<title>u29</title>
<ellipse fill="#ffbbff" stroke="#000000" stroke-width="0" cx="1628.9612" cy="-1114" rx="46.5926" ry="18"/>
<text text-anchor="middle" x="1628.9612" y="-1110.3" font-family="Times,serif" font-size="14.00" fill="#000000">TrimDocs</text>
</g>
<!-- u18 -->
<g id="node22" class="node">
<title>u18</title>
<ellipse fill="#ffff77" stroke="#000000" stroke-width="0" cx="1199.9612" cy="-850" rx="50.8918" ry="18"/>
<text text-anchor="middle" x="1199.9612" y="-846.3" font-family="Times,serif" font-size="14.00" fill="#000000">TimeSpace</text>
</g>
<!-- u19 -->
<g id="node23" class="node">
<title>u19</title>
<ellipse fill="#ffff77" stroke="#000000" stroke-width="0" cx="542.9612" cy="-850" rx="81.7856" ry="18"/>
<text text-anchor="middle" x="542.9612" y="-846.3" font-family="Times,serif" font-size="14.00" fill="#000000">ExploreTimeSpaces</text>
</g>
<!-- u19&#45;&gt;u3 -->
<g id="edge2" class="edge">
<title>u19&#45;&gt;u3</title>
<path fill="none" stroke="#000000" d="M558.6624,-832.2971C601.6257,-783.8565 721.2459,-648.9858 771.3893,-592.4496"/>
<polygon fill="#000000" stroke="#000000" points="774.249,-594.5 778.266,-584.6962 769.012,-589.8552 774.249,-594.5"/>
</g>
<!-- u19&#45;&gt;u16 -->
<g id="edge34" class="edge">
<title>u19&#45;&gt;u16</title>
<path fill="none" stroke="#000000" d="M502.7788,-834.2559C398.9611,-793.1874 128.2516,-683.4646 104.9612,-647 33.6686,-535.3806 65.6575,-475.4783 104.9612,-349 119.2646,-302.9722 154.3896,-258.6607 178.205,-232.3721"/>
<polygon fill="#000000" stroke="#000000" points="180.9779,-234.5287 185.1973,-224.8103 175.8384,-229.7762 180.9779,-234.5287"/>
</g>
<!-- u20&#45;&gt;u0 -->
<g id="edge1" class="edge">
<title>u20&#45;&gt;u0</title>
<path fill="none" stroke="#000000" d="M945.0453,-834.5145C955.1389,-828.4899 966.9717,-821.6838 977.9612,-816 1139.9791,-732.2044 1211.5427,-763.4222 1351.9612,-647 1369.5803,-632.3919 1384.1899,-610.9435 1394.0643,-593.9315"/>
<polygon fill="#000000" stroke="#000000" points="1397.2279,-595.4451 1399.052,-585.0084 1391.1177,-592.0296 1397.2279,-595.4451"/>
</g>
<!-- u20&#45;&gt;u5 -->
<g id="edge5" class="edge">
<title>u20&#45;&gt;u5</title>
<path fill="none" stroke="#000000" d="M922.3961,-831.8666C928.8421,-783.8609 946.388,-653.19 954.1641,-595.2789"/>
<polygon fill="#000000" stroke="#000000" points="957.6354,-595.7255 955.4975,-585.3487 950.6977,-594.7939 957.6354,-595.7255"/>
</g>
<!-- u20&#45;&gt;u16 -->
<g id="edge35" class="edge">
<title>u20&#45;&gt;u16</title>
<path fill="none" stroke="#000000" d="M896.648,-833.9782C886.6298,-827.6618 874.5727,-820.7873 862.9612,-816 575.8528,-697.6268 398.082,-872.8827 184.9612,-647 93.1715,-549.7137 116.631,-480.1362 142.9612,-349 151.3255,-307.342 172.3083,-262.6344 186.8523,-234.9893"/>
<polygon fill="#000000" stroke="#000000" points="190.0553,-236.4224 191.6969,-225.9555 183.8863,-233.1141 190.0553,-236.4224"/>
</g>
<!-- u20&#45;&gt;u27 -->
<g id="edge46" class="edge">
<title>u20&#45;&gt;u27</title>
<path fill="none" stroke="#000000" d="M896.6139,-834.06C886.5902,-827.7568 874.5382,-820.8701 862.9612,-816 592.1801,-702.091 406.5742,-877.1091 223.9612,-647 167.1077,-575.3593 191.6673,-456.5211 207.0199,-402.839"/>
<polygon fill="#000000" stroke="#000000" points="210.4488,-403.5872 209.9409,-393.0046 203.7385,-401.5942 210.4488,-403.5872"/>
</g>
<!-- u21 -->
<g id="node25" class="node">
<title>u21</title>
<ellipse fill="#ffff77" stroke="#000000" stroke-width="0" cx="822.9612" cy="-850" rx="30.5947" ry="18"/>
<text text-anchor="middle" x="822.9612" y="-846.3" font-family="Times,serif" font-size="14.00" fill="#000000">Index</text>
</g>
<!-- u22 -->
<g id="node26" class="node">
<title>u22</title>
<ellipse fill="#ffff77" stroke="#000000" stroke-width="0" cx="708.9612" cy="-850" rx="65.7887" ry="18"/>
<text text-anchor="middle" x="708.9612" y="-846.3" font-family="Times,serif" font-size="14.00" fill="#000000">StoredTimeline</text>
</g>
<!-- u23&#45;&gt;u9 -->
<g id="edge9" class="edge">
<title>u23&#45;&gt;u9</title>
<path fill="none" stroke="#000000" d="M1093.6373,-834.1934C1107.8262,-828.0556 1124.5114,-821.2539 1139.9612,-816 1418.4912,-721.2826 1548.9795,-829.2025 1779.9612,-647 1796.7265,-633.7753 1807.7872,-612.1555 1814.4872,-594.7232"/>
<polygon fill="#000000" stroke="#000000" points="1817.8785,-595.633 1817.9383,-585.0384 1811.2846,-593.2833 1817.8785,-595.633"/>
</g>
<!-- u23&#45;&gt;u6 -->
<g id="edge7" class="edge">
<title>u23&#45;&gt;u6</title>
<path fill="none" stroke="#000000" d="M1063.3184,-831.8666C1074.8809,-783.746 1106.4016,-652.5643 1120.2659,-594.8645"/>
<polygon fill="#000000" stroke="#000000" points="1123.7071,-595.5234 1122.6404,-584.9824 1116.9008,-593.8879 1123.7071,-595.5234"/>
</g>
<!-- u23&#45;&gt;u16 -->
<g id="edge36" class="edge">
<title>u23&#45;&gt;u16</title>
<path fill="none" stroke="#000000" d="M1024.7902,-834.037C1010.5326,-827.8043 993.663,-820.9756 977.9612,-816 644.3752,-710.2924 447.667,-902.8775 208.9612,-647 163.5119,-598.2812 169.895,-415.3503 175.9612,-349 179.5786,-309.4353 188.792,-264.3962 195.2173,-236.0886"/>
<polygon fill="#000000" stroke="#000000" points="198.6829,-236.6364 197.5259,-226.105 191.8629,-235.0593 198.6829,-236.6364"/>
</g>
<!-- u23&#45;&gt;u27 -->
<g id="edge47" class="edge">
<title>u23&#45;&gt;u27</title>
<path fill="none" stroke="#000000" d="M1024.7535,-834.1513C1010.4903,-827.9361 993.6264,-821.0896 977.9612,-816 665.7612,-714.5674 482.3257,-887.553 258.9612,-647 195.8308,-579.0115 203.7033,-457.7965 211.2082,-403.122"/>
<polygon fill="#000000" stroke="#000000" points="214.6882,-403.5131 212.6831,-393.1098 207.763,-402.4929 214.6882,-403.5131"/>
</g>
<!-- u24 -->
<g id="node28" class="node">
<title>u24</title>
<ellipse fill="#ffff77" stroke="#000000" stroke-width="0" cx="411.9612" cy="-850" rx="31.3957" ry="18"/>
<text text-anchor="middle" x="411.9612" y="-846.3" font-family="Times,serif" font-size="14.00" fill="#000000">Event</text>
</g>
<!-- u25 -->
<g id="node29" class="node">
<title>u25</title>
<ellipse fill="#ffff77" stroke="#000000" stroke-width="0" cx="314.9612" cy="-850" rx="47.3916" ry="18"/>
<text text-anchor="middle" x="314.9612" y="-846.3" font-family="Times,serif" font-size="14.00" fill="#000000">TimeSpan</text>
</g>
<!-- u26 -->
<g id="node30" class="node">
<title>u26</title>
<ellipse fill="#ffff77" stroke="#000000" stroke-width="0" cx="206.9612" cy="-850" rx="42.7926" ry="18"/>
<text text-anchor="middle" x="206.9612" y="-846.3" font-family="Times,serif" font-size="14.00" fill="#000000">Timeline</text>
</g>
</g>
</svg>
