<?xml version="1.0" encoding="UTF-8" standalone="no"?>
<!DOCTYPE svg PUBLIC "-//W3C//DTD SVG 1.1//EN"
 "http://www.w3.org/Graphics/SVG/1.1/DTD/svg11.dtd">
<!-- Generated by graphviz version 2.40.1 (20161225.0304)
 -->
<!-- Title: Modules Pages: 1 -->
<svg width="864pt" height="568pt"
 viewBox="0.00 0.00 864.00 567.87" xmlns="http://www.w3.org/2000/svg" xmlns:xlink="http://www.w3.org/1999/xlink">
<g id="graph0" class="graph" transform="scale(.2918 .2918) rotate(0) translate(4 1942)">
<title>Modules</title>
<polygon fill="#ffffff" stroke="transparent" points="-4,4 -4,-1942 2956.7704,-1942 2956.7704,4 -4,4"/>
<g id="clust1" class="cluster">
<title>cluster_0</title>
<polygon fill="#000000" fill-opacity="0.058824" stroke="#000000" stroke-opacity="0.058824" points="177.7704,-489.9033 177.7704,-1199.5428 2054.7704,-1199.5428 2054.7704,-489.9033 177.7704,-489.9033"/>
<text text-anchor="middle" x="1116.2704" y="-1184.3428" font-family="Times,serif" font-size="14.00" fill="#000000">Components</text>
</g>
<g id="clust2" class="cluster">
<title>cluster_1</title>
<polygon fill="#000000" fill-opacity="0.058824" stroke="#000000" stroke-opacity="0.058824" points="588.7704,-817.7063 588.7704,-1087.8736 1830.7704,-1087.8736 1830.7704,-817.7063 588.7704,-817.7063"/>
<text text-anchor="middle" x="1209.7704" y="-1072.6736" font-family="Times,serif" font-size="14.00" fill="#000000">Dialogs</text>
</g>
<g id="clust3" class="cluster">
<title>cluster_2</title>
<polygon fill="#000000" fill-opacity="0.058824" stroke="#000000" stroke-opacity="0.058824" points="185.7704,-817.7063 185.7704,-1087.8736 492.7704,-1087.8736 492.7704,-817.7063 185.7704,-817.7063"/>
<text text-anchor="middle" x="339.2704" y="-1072.6736" font-family="Times,serif" font-size="14.00" fill="#000000">Drawers</text>
</g>
<g id="clust4" class="cluster">
<title>cluster_3</title>
<polygon fill="#000000" fill-opacity="0.058824" stroke="#000000" stroke-opacity="0.058824" points="1006.7704,-1228.3606 1006.7704,-1498.5279 1122.7704,-1498.5279 1122.7704,-1228.3606 1006.7704,-1228.3606"/>
<text text-anchor="middle" x="1064.7704" y="-1483.3279" font-family="Times,serif" font-size="14.00" fill="#000000">MaterialUI</text>
</g>
<g id="clust5" class="cluster">
<title>cluster_4</title>
<polygon fill="#000000" fill-opacity="0.058824" stroke="#000000" stroke-opacity="0.058824" points="2062.7704,-230.5428 2062.7704,-760.0706 2168.7704,-760.0706 2168.7704,-230.5428 2062.7704,-230.5428"/>
<text text-anchor="middle" x="2115.7704" y="-744.8706" font-family="Times,serif" font-size="14.00" fill="#000000">Plumbing</text>
</g>
<g id="clust6" class="cluster">
<title>cluster_5</title>
<polygon fill="#000000" fill-opacity="0.058824" stroke="#000000" stroke-opacity="0.058824" points="2834.7704,-1527.3457 2834.7704,-1797.513 2944.7704,-1797.513 2944.7704,-1527.3457 2834.7704,-1527.3457"/>
<text text-anchor="middle" x="2889.7704" y="-1782.313" font-family="Times,serif" font-size="14.00" fill="#000000">Scripts</text>
</g>
<g id="clust7" class="cluster">
<title>cluster_6</title>
<polygon fill="#000000" fill-opacity="0.058824" stroke="#000000" stroke-opacity="0.058824" points="2092.7704,-788.8885 2092.7704,-1909.1822 2826.7704,-1909.1822 2826.7704,-788.8885 2092.7704,-788.8885"/>
<text text-anchor="middle" x="2459.7704" y="-1893.9822" font-family="Times,serif" font-size="14.00" fill="#000000">Timeline</text>
</g>
<g id="clust8" class="cluster">
<title>cluster_7</title>
<polygon fill="#000000" fill-opacity="0.058824" stroke="#000000" stroke-opacity="0.058824" points="2100.7704,-817.7063 2100.7704,-1797.513 2818.7704,-1797.513 2818.7704,-817.7063 2100.7704,-817.7063"/>
<text text-anchor="middle" x="2459.7704" y="-1782.313" font-family="Times,serif" font-size="14.00" fill="#000000">UI</text>
</g>
<!-- u1 -->
<g id="node1" class="node">
<title>u1</title>
<ellipse fill="#bbffbb" stroke="#000000" stroke-width="0" cx="91.7704" cy="-911" rx="46.2923" ry="18"/>
<text text-anchor="middle" x="91.7704" y="-907.3" font-family="Times,serif" font-size="14.00" fill="#000000">WithRoot</text>
</g>
<!-- u28 -->
<g id="node7" class="node">
<title>u28</title>
<ellipse fill="#ffffbb" stroke="#000000" stroke-width="0" cx="1064.7704" cy="-584" rx="30.5947" ry="18"/>
<text text-anchor="middle" x="1064.7704" y="-580.3" font-family="Times,serif" font-size="14.00" fill="#000000">Index</text>
</g>
<!-- u1&#45;&gt;u28 -->
<g id="edge49" class="edge">
<title>u1&#45;&gt;u28</title>
<path fill="none" stroke="#000000" d="M116.2865,-895.5961C126.9336,-889.3074 139.7078,-882.2865 151.7704,-877 478.7734,-733.6896 898.6721,-624.8557 1026.3016,-593.3162"/>
<polygon fill="#000000" stroke="#000000" points="1027.4899,-596.6283 1036.3641,-590.8405 1025.8174,-589.831 1027.4899,-596.6283"/>
</g>
<!-- u3 -->
<g id="node2" class="node">
<title>u3</title>
<ellipse fill="#bbffbb" stroke="#000000" stroke-width="0" cx="1834.7704" cy="-65" rx="29.795" ry="18"/>
<text text-anchor="middle" x="1834.7704" y="-61.3" font-family="Times,serif" font-size="14.00" fill="#000000">Main</text>
</g>
<!-- u32 -->
<g id="node3" class="node">
<title>u32</title>
<ellipse fill="#bbffbb" stroke="#000000" stroke-width="0" cx="855.7704" cy="-1621" rx="38.9931" ry="18"/>
<text text-anchor="middle" x="855.7704" y="-1617.3" font-family="Times,serif" font-size="14.00" fill="#000000">Settings</text>
</g>
<!-- u26 -->
<g id="node5" class="node">
<title>u26</title>
<ellipse fill="#ffffbb" stroke="#000000" stroke-width="0" cx="540.7704" cy="-911" rx="37.8943" ry="18"/>
<text text-anchor="middle" x="540.7704" y="-907.3" font-family="Times,serif" font-size="14.00" fill="#000000">TopBar</text>
</g>
<!-- u32&#45;&gt;u26 -->
<g id="edge48" class="edge">
<title>u32&#45;&gt;u26</title>
<path fill="none" stroke="#000000" d="M847.8263,-1603.0942C805.27,-1507.1736 604.2851,-1054.1602 552.8056,-938.127"/>
<polygon fill="#000000" stroke="#000000" points="555.9478,-936.5787 548.693,-928.8574 549.5492,-939.4176 555.9478,-936.5787"/>
</g>
<!-- u32&#45;&gt;u28 -->
<g id="edge66" class="edge">
<title>u32&#45;&gt;u28</title>
<path fill="none" stroke="#000000" d="M833.3634,-1605.8683C778.9592,-1568.7022 636.5181,-1468.8169 529.7704,-1371 360.9277,-1216.283 264.7406,-1204.4506 181.7704,-991 163.4138,-943.7756 152.1172,-918.0828 181.7704,-877 286.0748,-732.4926 866.7045,-619.3978 1024.939,-590.941"/>
<polygon fill="#000000" stroke="#000000" points="1025.9376,-594.3181 1035.1663,-589.1142 1024.7067,-587.4272 1025.9376,-594.3181"/>
</g>
<!-- u20 -->
<g id="node11" class="node">
<title>u20</title>
<ellipse fill="#bbbbff" stroke="#000000" stroke-width="0" cx="1064.7704" cy="-911" rx="63.8893" ry="18"/>
<text text-anchor="middle" x="1064.7704" y="-907.3" font-family="Times,serif" font-size="14.00" fill="#000000">TimeScaleEdit</text>
</g>
<!-- u32&#45;&gt;u20 -->
<g id="edge37" class="edge">
<title>u32&#45;&gt;u20</title>
<path fill="none" stroke="#000000" d="M861.0413,-1603.0942C889.2179,-1507.3745 1022.0708,-1056.0562 1056.5692,-938.8605"/>
<polygon fill="#000000" stroke="#000000" points="1059.9521,-939.7627 1059.4185,-929.1813 1053.237,-937.7859 1059.9521,-939.7627"/>
</g>
<!-- u22 -->
<g id="node13" class="node">
<title>u22</title>
<ellipse fill="#bbbbff" stroke="#000000" stroke-width="0" cx="895.7704" cy="-911" rx="87.1846" ry="18"/>
<text text-anchor="middle" x="895.7704" y="-907.3" font-family="Times,serif" font-size="14.00" fill="#000000">TimeSpaceNameEdit</text>
</g>
<!-- u32&#45;&gt;u22 -->
<g id="edge40" class="edge">
<title>u32&#45;&gt;u22</title>
<path fill="none" stroke="#000000" d="M856.7994,-1602.7358C862.2304,-1506.3349 887.5637,-1056.6691 894.1841,-939.157"/>
<polygon fill="#000000" stroke="#000000" points="897.6801,-939.3245 894.7482,-929.1434 890.6912,-938.9307 897.6801,-939.3245"/>
</g>
<!-- u23 -->
<g id="node14" class="node">
<title>u23</title>
<ellipse fill="#bbbbff" stroke="#000000" stroke-width="0" cx="736.7704" cy="-911" rx="53.8905" ry="18"/>
<text text-anchor="middle" x="736.7704" y="-907.3" font-family="Times,serif" font-size="14.00" fill="#000000">SettingsEdit</text>
</g>
<!-- u32&#45;&gt;u23 -->
<g id="edge42" class="edge">
<title>u32&#45;&gt;u23</title>
<path fill="none" stroke="#000000" d="M852.7092,-1602.7358C836.5519,-1506.3349 761.1854,-1056.6691 741.4897,-939.157"/>
<polygon fill="#000000" stroke="#000000" points="744.9163,-938.4272 739.8113,-929.1434 738.0126,-939.5844 744.9163,-938.4272"/>
</g>
<!-- u25 -->
<g id="node16" class="node">
<title>u25</title>
<ellipse fill="#bbbbff" stroke="#000000" stroke-width="0" cx="1587.7704" cy="-911" rx="83.3857" ry="18"/>
<text text-anchor="middle" x="1587.7704" y="-907.3" font-family="Times,serif" font-size="14.00" fill="#000000">NewOrEditTimeline</text>
</g>
<!-- u32&#45;&gt;u25 -->
<g id="edge45" class="edge">
<title>u32&#45;&gt;u25</title>
<path fill="none" stroke="#000000" d="M862.339,-1602.9368C884.6767,-1542.1703 958.7564,-1346.1513 1002.7704,-1296 1172.4746,-1102.6327 1287.2899,-1143.1259 1494.7704,-991 1518.1547,-973.8545 1542.9704,-952.3186 1561.081,-935.9116"/>
<polygon fill="#000000" stroke="#000000" points="1563.8782,-938.0969 1568.901,-928.7683 1559.1571,-932.9285 1563.8782,-938.0969"/>
</g>
<!-- u29 -->
<g id="node17" class="node">
<title>u29</title>
<ellipse fill="#ffbbbb" stroke="#000000" stroke-width="0" cx="233.7704" cy="-911" rx="39.7935" ry="18"/>
<text text-anchor="middle" x="233.7704" y="-907.3" font-family="Times,serif" font-size="14.00" fill="#000000">Siblings</text>
</g>
<!-- u32&#45;&gt;u29 -->
<g id="edge67" class="edge">
<title>u32&#45;&gt;u29</title>
<path fill="none" stroke="#000000" d="M838.2412,-1604.7207C764.4059,-1535.5799 473.6925,-1257.5824 281.7704,-991 269.4294,-973.8582 257.206,-953.4215 248.1827,-937.4947"/>
<polygon fill="#000000" stroke="#000000" points="251.1988,-935.717 243.263,-928.6974 245.0892,-939.1337 251.1988,-935.717"/>
</g>
<!-- u30 -->
<g id="node18" class="node">
<title>u30</title>
<ellipse fill="#ffbbbb" stroke="#000000" stroke-width="0" cx="332.7704" cy="-911" rx="41.6928" ry="18"/>
<text text-anchor="middle" x="332.7704" y="-907.3" font-family="Times,serif" font-size="14.00" fill="#000000">Children</text>
</g>
<!-- u32&#45;&gt;u30 -->
<g id="edge68" class="edge">
<title>u32&#45;&gt;u30</title>
<path fill="none" stroke="#000000" d="M842.1322,-1603.8222C784.5365,-1531.0697 556.252,-1240.603 383.7704,-991 371.6378,-973.4425 358.7219,-953.1642 348.9236,-937.4169"/>
<polygon fill="#000000" stroke="#000000" points="351.7826,-935.3856 343.5443,-928.7236 345.83,-939.069 351.7826,-935.3856"/>
</g>
<!-- u31 -->
<g id="node19" class="node">
<title>u31</title>
<ellipse fill="#ffbbbb" stroke="#000000" stroke-width="0" cx="438.7704" cy="-911" rx="46.2923" ry="18"/>
<text text-anchor="middle" x="438.7704" y="-907.3" font-family="Times,serif" font-size="14.00" fill="#000000">Timelines</text>
</g>
<!-- u32&#45;&gt;u31 -->
<g id="edge71" class="edge">
<title>u32&#45;&gt;u31</title>
<path fill="none" stroke="#000000" d="M845.4625,-1603.4493C789.4693,-1508.1132 521.9033,-1052.5452 454.3088,-937.4562"/>
<polygon fill="#000000" stroke="#000000" points="457.1737,-935.423 449.0913,-928.5728 451.1377,-938.9681 457.1737,-935.423"/>
</g>
<!-- u2 -->
<g id="node21" class="node">
<title>u2</title>
<ellipse fill="#bbffbb" stroke="#000000" stroke-width="2" cx="2115.7704" cy="-324" rx="45.4919" ry="18"/>
<text text-anchor="middle" x="2115.7704" y="-320.3" font-family="Times,serif" font-size="14.00" fill="#000000">Plumbing</text>
</g>
<!-- u32&#45;&gt;u2 -->
<g id="edge22" class="edge">
<title>u32&#45;&gt;u2</title>
<path fill="none" stroke="#000000" d="M824.606,-1609.9683C694.5218,-1561.9208 194.3299,-1356.7482 36.7704,-991 -43.0879,-805.6221 12.1753,-678.9518 173.7704,-558 329.3555,-441.5465 1759.4468,-346.2568 2060.3629,-327.3941"/>
<polygon fill="#000000" stroke="#000000" points="2060.8248,-330.8722 2070.5871,-326.7554 2060.3883,-323.8858 2060.8248,-330.8722"/>
</g>
<!-- u0 -->
<g id="node22" class="node">
<title>u0</title>
<ellipse fill="#ffbbff" stroke="#000000" stroke-width="0" cx="2101.7704" cy="-584" rx="31.3957" ry="18"/>
<text text-anchor="middle" x="2101.7704" y="-580.3" font-family="Times,serif" font-size="14.00" fill="#000000">Logic</text>
</g>
<!-- u32&#45;&gt;u0 -->
<g id="edge10" class="edge">
<title>u32&#45;&gt;u0</title>
<path fill="none" stroke="#000000" d="M892.419,-1614.6166C1060.4032,-1583.2354 1761.3066,-1428.7839 2058.7704,-991 2100.809,-929.1309 2102.7846,-693.7264 2102.1608,-612.0841"/>
<polygon fill="#000000" stroke="#000000" points="2105.6604,-612.0127 2102.0645,-602.0468 2098.6607,-612.08 2105.6604,-612.0127"/>
</g>
<!-- u6 -->
<g id="node27" class="node">
<title>u6</title>
<ellipse fill="#7777ff" stroke="#000000" stroke-width="0" cx="2260.7704" cy="-1621" rx="72.2875" ry="18"/>
<text text-anchor="middle" x="2260.7704" y="-1617.3" font-family="Times,serif" font-size="14.00" fill="#000000">TimeSpaceName</text>
</g>
<!-- u32&#45;&gt;u6 -->
<g id="edge28" class="edge">
<title>u32&#45;&gt;u6</title>
<path fill="none" stroke="#000000" d="M893.8056,-1625.0753C1046.0525,-1641.1559 1626.4255,-1700.2385 2105.7704,-1719 2134.6372,-1720.1298 2144.3217,-1730.6203 2170.7704,-1719 2203.7759,-1704.499 2229.987,-1671.2579 2245.4217,-1647.5144"/>
<polygon fill="#000000" stroke="#000000" points="2248.4523,-1649.2696 2250.8013,-1638.9384 2242.5224,-1645.5499 2248.4523,-1649.2696"/>
</g>
<!-- u8 -->
<g id="node29" class="node">
<title>u8</title>
<ellipse fill="#7777ff" stroke="#000000" stroke-width="0" cx="2157.7704" cy="-1322" rx="48.9926" ry="18"/>
<text text-anchor="middle" x="2157.7704" y="-1318.3" font-family="Times,serif" font-size="14.00" fill="#000000">TimeScale</text>
</g>
<!-- u32&#45;&gt;u8 -->
<g id="edge30" class="edge">
<title>u32&#45;&gt;u8</title>
<path fill="none" stroke="#000000" d="M890.9326,-1612.9251C1071.1818,-1571.5315 1891.4155,-1383.1675 2106.1763,-1333.8484"/>
<polygon fill="#000000" stroke="#000000" points="2107.2723,-1337.1879 2116.2352,-1331.5384 2105.7055,-1330.3655 2107.2723,-1337.1879"/>
</g>
<!-- u10 -->
<g id="node31" class="node">
<title>u10</title>
<ellipse fill="#7777ff" stroke="#000000" stroke-width="0" cx="2270.7704" cy="-1322" rx="46.2923" ry="18"/>
<text text-anchor="middle" x="2270.7704" y="-1318.3" font-family="Times,serif" font-size="14.00" fill="#000000">Timelines</text>
</g>
<!-- u32&#45;&gt;u10 -->
<g id="edge33" class="edge">
<title>u32&#45;&gt;u10</title>
<path fill="none" stroke="#000000" d="M893.783,-1616.8187C1088.0756,-1595.0283 1970.5851,-1490.8874 2215.7704,-1371 2227.977,-1365.0314 2239.5254,-1355.5766 2248.8591,-1346.5575"/>
<polygon fill="#000000" stroke="#000000" points="2251.6148,-1348.7478 2256.1445,-1339.1701 2246.6307,-1343.8326 2251.6148,-1348.7478"/>
</g>
<!-- u16 -->
<g id="node4" class="node">
<title>u16</title>
<ellipse fill="#ffffbb" stroke="#000000" stroke-width="0" cx="1890.7704" cy="-911" rx="50.0912" ry="18"/>
<text text-anchor="middle" x="1890.7704" y="-907.3" font-family="Times,serif" font-size="14.00" fill="#000000">BottomBar</text>
</g>
<!-- u16&#45;&gt;u28 -->
<g id="edge51" class="edge">
<title>u16&#45;&gt;u28</title>
<path fill="none" stroke="#000000" d="M1866.779,-895.1133C1857.0648,-889.0334 1845.6021,-882.2943 1834.7704,-877 1562.8407,-744.0874 1214.3387,-630.7054 1101.6631,-595.3834"/>
<polygon fill="#000000" stroke="#000000" points="1102.7029,-592.0415 1092.1141,-592.4002 1100.6154,-598.723 1102.7029,-592.0415"/>
</g>
<!-- u26&#45;&gt;u28 -->
<g id="edge61" class="edge">
<title>u26&#45;&gt;u28</title>
<path fill="none" stroke="#000000" d="M560.1395,-895.2963C567.6887,-889.3724 576.501,-882.6935 584.7704,-877 748.5914,-764.2092 955.6475,-645.3857 1033.3864,-601.5568"/>
<polygon fill="#000000" stroke="#000000" points="1035.2158,-604.5435 1042.2141,-596.589 1031.7828,-598.4431 1035.2158,-604.5435"/>
</g>
<!-- u27 -->
<g id="node6" class="node">
<title>u27</title>
<ellipse fill="#ffffbb" stroke="#000000" stroke-width="0" cx="2002.7704" cy="-911" rx="43.5923" ry="18"/>
<text text-anchor="middle" x="2002.7704" y="-907.3" font-family="Times,serif" font-size="14.00" fill="#000000">Snackbar</text>
</g>
<!-- u27&#45;&gt;u28 -->
<g id="edge62" class="edge">
<title>u27&#45;&gt;u28</title>
<path fill="none" stroke="#000000" d="M1981.0521,-895.317C1971.7304,-889.0551 1960.5255,-882.1298 1949.7704,-877 1637.1782,-727.9049 1228.8227,-623.3439 1103.2014,-593.0382"/>
<polygon fill="#000000" stroke="#000000" points="1103.8263,-589.5889 1093.2856,-590.659 1102.193,-596.3957 1103.8263,-589.5889"/>
</g>
<!-- u27&#45;&gt;u2 -->
<g id="edge21" class="edge">
<title>u27&#45;&gt;u2</title>
<path fill="none" stroke="#000000" d="M2005.3913,-892.9283C2013.0385,-840.7903 2036.3937,-685.675 2061.7704,-558 2076.6377,-483.1998 2097.8283,-395.8254 2108.7155,-352.0346"/>
<polygon fill="#000000" stroke="#000000" points="2112.1635,-352.673 2111.1891,-342.1231 2105.3718,-350.978 2112.1635,-352.673"/>
</g>
<!-- u27&#45;&gt;u0 -->
<g id="edge9" class="edge">
<title>u27&#45;&gt;u0</title>
<path fill="none" stroke="#000000" d="M2008.2341,-892.9533C2024.6639,-838.6853 2073.6986,-676.722 2093.4197,-611.5827"/>
<polygon fill="#000000" stroke="#000000" points="2096.7757,-612.5761 2096.3236,-601.9909 2090.0761,-610.5477 2096.7757,-612.5761"/>
</g>
<!-- u28&#45;&gt;u3 -->
<g id="edge24" class="edge">
<title>u28&#45;&gt;u3</title>
<path fill="none" stroke="#000000" d="M1084.9703,-570.3848C1190.8776,-499.0005 1681.933,-168.0164 1806.1569,-84.2862"/>
<polygon fill="#000000" stroke="#000000" points="1808.4461,-86.9642 1814.7821,-78.4727 1804.5336,-81.1596 1808.4461,-86.9642"/>
</g>
<!-- u17 -->
<g id="node8" class="node">
<title>u17</title>
<ellipse fill="#bbbbff" stroke="#000000" stroke-width="0" cx="630.7704" cy="-911" rx="34.394" ry="18"/>
<text text-anchor="middle" x="630.7704" y="-907.3" font-family="Times,serif" font-size="14.00" fill="#000000">EULA</text>
</g>
<!-- u17&#45;&gt;u28 -->
<g id="edge52" class="edge">
<title>u17&#45;&gt;u28</title>
<path fill="none" stroke="#000000" d="M649.9517,-895.6603C657.3603,-889.781 665.9275,-883.0376 673.7704,-877 808.9045,-772.9707 972.9348,-651.6308 1037.1327,-604.3284"/>
<polygon fill="#000000" stroke="#000000" points="1039.5389,-606.903 1045.5153,-598.1547 1035.3878,-601.2666 1039.5389,-606.903"/>
</g>
<!-- u18 -->
<g id="node9" class="node">
<title>u18</title>
<ellipse fill="#bbbbff" stroke="#000000" stroke-width="0" cx="1755.7704" cy="-911" rx="66.8882" ry="18"/>
<text text-anchor="middle" x="1755.7704" y="-907.3" font-family="Times,serif" font-size="14.00" fill="#000000">DangerConfirm</text>
</g>
<!-- u18&#45;&gt;u28 -->
<g id="edge53" class="edge">
<title>u18&#45;&gt;u28</title>
<path fill="none" stroke="#000000" d="M1722.442,-895.2281C1605.4928,-839.8846 1214.5941,-654.9007 1097.9218,-599.6881"/>
<polygon fill="#000000" stroke="#000000" points="1099.2804,-596.459 1088.7443,-595.3451 1096.2861,-602.7863 1099.2804,-596.459"/>
</g>
<!-- u18&#45;&gt;u2 -->
<g id="edge17" class="edge">
<title>u18&#45;&gt;u2</title>
<path fill="none" stroke="#000000" d="M1758.6876,-892.8046C1768.0496,-838.3564 1801.069,-673.344 1873.7704,-558 1931.9512,-465.6936 2033.9826,-383.5667 2084.9601,-345.8666"/>
<polygon fill="#000000" stroke="#000000" points="2087.2765,-348.5085 2093.2765,-339.7763 2083.1406,-342.8609 2087.2765,-348.5085"/>
</g>
<!-- u18&#45;&gt;u0 -->
<g id="edge5" class="edge">
<title>u18&#45;&gt;u0</title>
<path fill="none" stroke="#000000" d="M1774.3729,-893.4191C1832.7775,-838.2216 2012.4778,-668.3892 2077.7555,-606.6961"/>
<polygon fill="#000000" stroke="#000000" points="2080.2694,-609.1361 2085.1332,-599.7237 2075.4613,-604.0486 2080.2694,-609.1361"/>
</g>
<!-- u19 -->
<g id="node10" class="node">
<title>u19</title>
<ellipse fill="#bbbbff" stroke="#000000" stroke-width="0" cx="1363.7704" cy="-911" rx="35.194" ry="18"/>
<text text-anchor="middle" x="1363.7704" y="-907.3" font-family="Times,serif" font-size="14.00" fill="#000000">Import</text>
</g>
<!-- u19&#45;&gt;u28 -->
<g id="edge54" class="edge">
<title>u19&#45;&gt;u28</title>
<path fill="none" stroke="#000000" d="M1348.5319,-894.3345C1299.1164,-840.2914 1143.2111,-669.7863 1086.0488,-607.271"/>
<polygon fill="#000000" stroke="#000000" points="1088.6034,-604.8781 1079.2723,-599.8599 1083.4374,-609.6017 1088.6034,-604.8781"/>
</g>
<!-- u19&#45;&gt;u2 -->
<g id="edge18" class="edge">
<title>u19&#45;&gt;u2</title>
<path fill="none" stroke="#000000" d="M1375.9779,-894.0864C1415.7593,-839.8373 1547.1602,-667.373 1686.7704,-558 1815.8214,-456.8992 1994.4782,-375.1011 2074.325,-341.0687"/>
<polygon fill="#000000" stroke="#000000" points="2076.1717,-344.0878 2084.0162,-336.9664 2073.4429,-337.6415 2076.1717,-344.0878"/>
</g>
<!-- u19&#45;&gt;u0 -->
<g id="edge6" class="edge">
<title>u19&#45;&gt;u0</title>
<path fill="none" stroke="#000000" d="M1382.3177,-895.3491C1390.1717,-889.1642 1399.6118,-882.2869 1408.7704,-877 1645.7658,-740.1935 1958.9567,-631.0814 2064.9303,-595.9516"/>
<polygon fill="#000000" stroke="#000000" points="2066.1297,-599.2416 2074.5294,-592.7844 2063.9363,-592.594 2066.1297,-599.2416"/>
</g>
<!-- u20&#45;&gt;u28 -->
<g id="edge55" class="edge">
<title>u20&#45;&gt;u28</title>
<path fill="none" stroke="#000000" d="M1064.7704,-892.9533C1064.7704,-838.9237 1064.7704,-678.1435 1064.7704,-612.4471"/>
<polygon fill="#000000" stroke="#000000" points="1068.2705,-612.394 1064.7704,-602.394 1061.2705,-612.3941 1068.2705,-612.394"/>
</g>
<!-- u21 -->
<g id="node12" class="node">
<title>u21</title>
<ellipse fill="#bbbbff" stroke="#000000" stroke-width="0" cx="1451.7704" cy="-911" rx="34.394" ry="18"/>
<text text-anchor="middle" x="1451.7704" y="-907.3" font-family="Times,serif" font-size="14.00" fill="#000000">Export</text>
</g>
<!-- u21&#45;&gt;u28 -->
<g id="edge56" class="edge">
<title>u21&#45;&gt;u28</title>
<path fill="none" stroke="#000000" d="M1433.6237,-895.6667C1370.8873,-842.6569 1163.0401,-667.0341 1090.2326,-605.5146"/>
<polygon fill="#000000" stroke="#000000" points="1092.3298,-602.7045 1082.4325,-598.9238 1087.8119,-608.0513 1092.3298,-602.7045"/>
</g>
<!-- u21&#45;&gt;u2 -->
<g id="edge19" class="edge">
<title>u21&#45;&gt;u2</title>
<path fill="none" stroke="#000000" d="M1464.2791,-894.1921C1504.3796,-840.9697 1634.8295,-672.8911 1766.7704,-558 1871.9045,-466.4517 2014.555,-381.1872 2080.1248,-343.8401"/>
<polygon fill="#000000" stroke="#000000" points="2082.2516,-346.6578 2089.2261,-338.6825 2078.8003,-340.5677 2082.2516,-346.6578"/>
</g>
<!-- u21&#45;&gt;u0 -->
<g id="edge7" class="edge">
<title>u21&#45;&gt;u0</title>
<path fill="none" stroke="#000000" d="M1469.995,-895.549C1477.6881,-889.3947 1486.9045,-882.4862 1495.7704,-877 1701.6412,-749.6084 1971.1718,-636.5183 2066.5062,-598.0099"/>
<polygon fill="#000000" stroke="#000000" points="2067.9922,-601.1847 2075.9626,-594.2044 2065.3789,-594.6908 2067.9922,-601.1847"/>
</g>
<!-- u22&#45;&gt;u28 -->
<g id="edge57" class="edge">
<title>u22&#45;&gt;u28</title>
<path fill="none" stroke="#000000" d="M905.0973,-892.9533C933.2676,-838.4462 1017.5883,-675.2932 1050.957,-610.7277"/>
<polygon fill="#000000" stroke="#000000" points="1054.1966,-612.0825 1055.6786,-601.5918 1047.978,-608.8685 1054.1966,-612.0825"/>
</g>
<!-- u23&#45;&gt;u28 -->
<g id="edge58" class="edge">
<title>u23&#45;&gt;u28</title>
<path fill="none" stroke="#000000" d="M753.9433,-893.8795C808.6775,-839.3121 979.0767,-669.4324 1041.5273,-607.1723"/>
<polygon fill="#000000" stroke="#000000" points="1044.3196,-609.3307 1048.9304,-599.7917 1039.3774,-604.3734 1044.3196,-609.3307"/>
</g>
<!-- u24 -->
<g id="node15" class="node">
<title>u24</title>
<ellipse fill="#bbbbff" stroke="#000000" stroke-width="0" cx="1228.7704" cy="-911" rx="81.7856" ry="18"/>
<text text-anchor="middle" x="1228.7704" y="-907.3" font-family="Times,serif" font-size="14.00" fill="#000000">ExploreTimeSpaces</text>
</g>
<!-- u24&#45;&gt;u28 -->
<g id="edge59" class="edge">
<title>u24&#45;&gt;u28</title>
<path fill="none" stroke="#000000" d="M1219.7195,-892.9533C1192.3826,-838.4462 1110.5566,-675.2932 1078.1751,-610.7277"/>
<polygon fill="#000000" stroke="#000000" points="1081.2049,-608.9615 1073.5932,-601.5918 1074.9477,-612.0997 1081.2049,-608.9615"/>
</g>
<!-- u25&#45;&gt;u28 -->
<g id="edge60" class="edge">
<title>u25&#45;&gt;u28</title>
<path fill="none" stroke="#000000" d="M1560.388,-893.8795C1470.8899,-837.9218 1187.4446,-660.7007 1094.5614,-602.6265"/>
<polygon fill="#000000" stroke="#000000" points="1096.2652,-599.564 1085.9306,-597.2302 1092.5541,-605.4993 1096.2652,-599.564"/>
</g>
<!-- u25&#45;&gt;u2 -->
<g id="edge20" class="edge">
<title>u25&#45;&gt;u2</title>
<path fill="none" stroke="#000000" d="M1597.878,-892.8415C1628.6174,-838.4965 1725.4026,-673.7424 1831.7704,-558 1913.4279,-469.1458 2029.2044,-384.0156 2084.2906,-345.4905"/>
<polygon fill="#000000" stroke="#000000" points="2086.3848,-348.2974 2092.596,-339.7142 2082.3879,-342.5506 2086.3848,-348.2974"/>
</g>
<!-- u25&#45;&gt;u0 -->
<g id="edge8" class="edge">
<title>u25&#45;&gt;u0</title>
<path fill="none" stroke="#000000" d="M1614.6816,-893.8795C1702.5396,-837.9854 1980.5743,-661.1033 2072.1801,-602.8249"/>
<polygon fill="#000000" stroke="#000000" points="2074.1388,-605.7272 2080.6974,-597.4064 2070.3814,-599.8211 2074.1388,-605.7272"/>
</g>
<!-- u29&#45;&gt;u28 -->
<g id="edge63" class="edge">
<title>u29&#45;&gt;u28</title>
<path fill="none" stroke="#000000" d="M253.5776,-895.2251C261.9587,-889.0212 272.0245,-882.1631 281.7704,-877 553.4895,-733.0497 911.7245,-626.6913 1027.1915,-594.2912"/>
<polygon fill="#000000" stroke="#000000" points="1028.2829,-597.6204 1036.9738,-591.5607 1026.4009,-590.8782 1028.2829,-597.6204"/>
</g>
<!-- u30&#45;&gt;u28 -->
<g id="edge64" class="edge">
<title>u30&#45;&gt;u28</title>
<path fill="none" stroke="#000000" d="M354.5684,-895.2012C363.4082,-889.1335 373.8561,-882.3797 383.7704,-877 620.5232,-748.5344 925.3043,-634.2954 1028.6619,-596.8777"/>
<polygon fill="#000000" stroke="#000000" points="1030.0887,-600.0838 1038.3073,-593.3975 1027.7129,-593.4993 1030.0887,-600.0838"/>
</g>
<!-- u31&#45;&gt;u28 -->
<g id="edge65" class="edge">
<title>u31&#45;&gt;u28</title>
<path fill="none" stroke="#000000" d="M460.7797,-895.1503C469.3583,-889.2085 479.3724,-882.5555 488.7704,-877 688.4219,-758.9799 941.216,-640.5118 1031.1471,-599.2734"/>
<polygon fill="#000000" stroke="#000000" points="1032.6815,-602.4203 1040.3185,-595.0769 1029.7689,-596.055 1032.6815,-602.4203"/>
</g>
<!-- u33 -->
<g id="node20" class="node">
<title>u33</title>
<ellipse fill="#bbffff" stroke="#000000" stroke-width="0" cx="1064.7704" cy="-1322" rx="50.0912" ry="18"/>
<text text-anchor="middle" x="1064.7704" y="-1318.3" font-family="Times,serif" font-size="14.00" fill="#000000">Markdown</text>
</g>
<!-- u33&#45;&gt;u20 -->
<g id="edge38" class="edge">
<title>u33&#45;&gt;u20</title>
<path fill="none" stroke="#000000" d="M1064.7704,-1303.8095C1064.7704,-1238.9699 1064.7704,-1018.816 1064.7704,-939.6507"/>
<polygon fill="#000000" stroke="#000000" points="1068.2705,-939.4467 1064.7704,-929.4467 1061.2705,-939.4468 1068.2705,-939.4467"/>
</g>
<!-- u33&#45;&gt;u22 -->
<g id="edge41" class="edge">
<title>u33&#45;&gt;u22</title>
<path fill="none" stroke="#000000" d="M1057.4,-1304.0756C1030.7693,-1239.3109 939.4061,-1017.12 907.155,-938.6867"/>
<polygon fill="#000000" stroke="#000000" points="910.2197,-936.9364 903.1796,-929.0188 903.7456,-939.5985 910.2197,-936.9364"/>
</g>
<!-- u33&#45;&gt;u25 -->
<g id="edge46" class="edge">
<title>u33&#45;&gt;u25</title>
<path fill="none" stroke="#000000" d="M1087.0272,-1305.5374C1151.1875,-1257.938 1341.7025,-1115.5958 1494.7704,-991 1516.972,-972.9281 1541.498,-951.7791 1559.7869,-935.7663"/>
<polygon fill="#000000" stroke="#000000" points="1562.5154,-938.0283 1567.7203,-928.8001 1557.8966,-932.7683 1562.5154,-938.0283"/>
</g>
<!-- u2&#45;&gt;u3 -->
<g id="edge23" class="edge">
<title>u2&#45;&gt;u3</title>
<path fill="none" stroke="#000000" d="M2097.7651,-307.4044C2048.9281,-262.3909 1913.9289,-137.9611 1858.7459,-87.0984"/>
<polygon fill="#000000" stroke="#000000" points="1860.9282,-84.3499 1851.2031,-80.1461 1856.1841,-89.4971 1860.9282,-84.3499"/>
</g>
<!-- u2&#45;&gt;u28 -->
<g id="edge50" class="edge">
<title>u2&#45;&gt;u28</title>
<path fill="none" stroke="#000000" d="M2077.0284,-333.5841C1911.9247,-374.428 1267.9884,-533.7272 1103.2987,-574.4688"/>
<polygon fill="#000000" stroke="#000000" points="1102.0209,-571.1793 1093.1541,-576.9784 1103.702,-577.9744 1102.0209,-571.1793"/>
</g>
<!-- u0&#45;&gt;u2 -->
<g id="edge11" class="edge">
<title>u0&#45;&gt;u2</title>
<path fill="none" stroke="#000000" d="M2102.7549,-565.7173C2105.1597,-521.056 2111.3472,-406.1448 2114.2387,-352.4463"/>
<polygon fill="#000000" stroke="#000000" points="2117.7442,-352.4362 2114.787,-342.2625 2110.7543,-352.0598 2117.7442,-352.4362"/>
</g>
<!-- u15 -->
<g id="node23" class="node">
<title>u15</title>
<ellipse fill="#77ff77" stroke="#000000" stroke-width="0" cx="2889.7704" cy="-1621" rx="46.5926" ry="18"/>
<text text-anchor="middle" x="2889.7704" y="-1617.3" font-family="Times,serif" font-size="14.00" fill="#000000">TrimDocs</text>
</g>
<!-- u14 -->
<g id="node24" class="node">
<title>u14</title>
<ellipse fill="#ffff77" stroke="#000000" stroke-width="2" cx="2783.7704" cy="-1621" rx="27" ry="18"/>
<text text-anchor="middle" x="2783.7704" y="-1617.3" font-family="Times,serif" font-size="14.00" fill="#000000">UI</text>
</g>
<!-- u4 -->
<g id="node25" class="node">
<title>u4</title>
<ellipse fill="#7777ff" stroke="#000000" stroke-width="0" cx="2462.7704" cy="-1322" rx="47.3916" ry="18"/>
<text text-anchor="middle" x="2462.7704" y="-1318.3" font-family="Times,serif" font-size="14.00" fill="#000000">TimeSpan</text>
</g>
<!-- u5 -->
<g id="node26" class="node">
<title>u5</title>
<ellipse fill="#7777ff" stroke="#000000" stroke-width="0" cx="2404.7704" cy="-911" rx="89.8845" ry="18"/>
<text text-anchor="middle" x="2404.7704" y="-907.3" font-family="Times,serif" font-size="14.00" fill="#000000">EventsAndTimeSpans</text>
</g>
<!-- u4&#45;&gt;u5 -->
<g id="edge26" class="edge">
<title>u4&#45;&gt;u5</title>
<path fill="none" stroke="#000000" d="M2460.2034,-1303.8095C2451.0533,-1238.9699 2419.9853,-1018.816 2408.8136,-939.6507"/>
<polygon fill="#000000" stroke="#000000" points="2412.2367,-938.8595 2407.3736,-929.4467 2405.3054,-939.8377 2412.2367,-938.8595"/>
</g>
<!-- u6&#45;&gt;u26 -->
<g id="edge47" class="edge">
<title>u6&#45;&gt;u26</title>
<path fill="none" stroke="#000000" d="M2217.0087,-1606.5811C1966.4188,-1523.75 719.9542,-1108.0796 584.7704,-991 568.6444,-977.0337 557.3131,-955.6412 550.1921,-938.491"/>
<polygon fill="#000000" stroke="#000000" points="553.3743,-937.0176 546.4814,-928.9716 546.8523,-939.56 553.3743,-937.0176"/>
</g>
<!-- u6&#45;&gt;u22 -->
<g id="edge39" class="edge">
<title>u6&#45;&gt;u22</title>
<path fill="none" stroke="#000000" d="M2236.2764,-1604.0691C2183.9052,-1566.9029 2059.4181,-1473.293 1980.7704,-1371 1957.9941,-1341.376 1971.2037,-1320.2466 1942.7704,-1296 1605.0262,-1007.9874 1380.762,-1204.7942 991.7704,-991 964.9862,-976.2791 938.6094,-953.534 920.3024,-936.0539"/>
<polygon fill="#000000" stroke="#000000" points="922.5813,-933.3879 912.973,-928.9235 917.7002,-938.4053 922.5813,-933.3879"/>
</g>
<!-- u6&#45;&gt;u2 -->
<g id="edge12" class="edge">
<title>u6&#45;&gt;u2</title>
<path fill="none" stroke="#000000" d="M2292.8462,-1604.773C2355.2272,-1571.1597 2491.3567,-1487.2381 2543.7704,-1371 2561.7544,-1331.1169 2635.7159,-1157.7798 2538.7704,-877 2455.627,-636.1945 2222.6748,-417.0684 2142.9403,-347.1437"/>
<polygon fill="#000000" stroke="#000000" points="2145.1195,-344.4003 2135.2796,-340.4724 2140.5223,-349.6792 2145.1195,-344.4003"/>
</g>
<!-- u6&#45;&gt;u0 -->
<g id="edge1" class="edge">
<title>u6&#45;&gt;u0</title>
<path fill="none" stroke="#000000" d="M2289.6572,-1604.2576C2346.4733,-1569.4264 2471.3442,-1482.9948 2518.7704,-1371 2540.872,-1318.808 2616.7277,-1089.6045 2503.7704,-877 2422.1962,-723.4636 2220.3187,-630.212 2137.7956,-597.379"/>
<polygon fill="#000000" stroke="#000000" points="2138.9273,-594.0634 2128.3396,-593.6745 2136.3739,-600.5811 2138.9273,-594.0634"/>
</g>
<!-- u7 -->
<g id="node28" class="node">
<title>u7</title>
<ellipse fill="#7777ff" stroke="#000000" stroke-width="0" cx="2583.7704" cy="-1621" rx="50.8918" ry="18"/>
<text text-anchor="middle" x="2583.7704" y="-1617.3" font-family="Times,serif" font-size="14.00" fill="#000000">TimeSpace</text>
</g>
<!-- u8&#45;&gt;u16 -->
<g id="edge34" class="edge">
<title>u8&#45;&gt;u16</title>
<path fill="none" stroke="#000000" d="M2146.2978,-1304.3398C2104.1905,-1239.523 1958.003,-1014.4929 1907.8296,-937.2597"/>
<polygon fill="#000000" stroke="#000000" points="1910.5832,-935.0735 1902.2003,-928.5944 1904.7131,-938.8869 1910.5832,-935.0735"/>
</g>
<!-- u8&#45;&gt;u20 -->
<g id="edge35" class="edge">
<title>u8&#45;&gt;u20</title>
<path fill="none" stroke="#000000" d="M2119.2304,-1310.7697C1943.813,-1259.4839 1225.6022,-1047.6019 1137.7704,-991 1115.7674,-976.8205 1096.1066,-954.4038 1082.7478,-936.9025"/>
<polygon fill="#000000" stroke="#000000" points="1085.4807,-934.712 1076.7134,-928.7635 1079.8576,-938.881 1085.4807,-934.712"/>
</g>
<!-- u8&#45;&gt;u2 -->
<g id="edge13" class="edge">
<title>u8&#45;&gt;u2</title>
<path fill="none" stroke="#000000" d="M2157.9898,-1303.9264C2158.889,-1219.4992 2161.3754,-855.526 2141.7704,-558 2136.8544,-483.3941 2125.6895,-395.9363 2119.7154,-352.0821"/>
<polygon fill="#000000" stroke="#000000" points="2123.1801,-351.5852 2118.35,-342.1554 2116.2454,-352.5391 2123.1801,-351.5852"/>
</g>
<!-- u8&#45;&gt;u0 -->
<g id="edge2" class="edge">
<title>u8&#45;&gt;u0</title>
<path fill="none" stroke="#000000" d="M2156.3861,-1303.7572C2148.8893,-1204.9598 2113.1507,-733.9765 2103.9399,-612.5902"/>
<polygon fill="#000000" stroke="#000000" points="2107.4031,-611.9722 2103.1564,-602.2658 2100.4232,-612.502 2107.4031,-611.9722"/>
</g>
<!-- u9 -->
<g id="node30" class="node">
<title>u9</title>
<ellipse fill="#7777ff" stroke="#000000" stroke-width="0" cx="2365.7704" cy="-1322" rx="31.3957" ry="18"/>
<text text-anchor="middle" x="2365.7704" y="-1318.3" font-family="Times,serif" font-size="14.00" fill="#000000">Event</text>
</g>
<!-- u9&#45;&gt;u5 -->
<g id="edge27" class="edge">
<title>u9&#45;&gt;u5</title>
<path fill="none" stroke="#000000" d="M2367.4965,-1303.8095C2373.6492,-1238.9699 2394.5397,-1018.816 2402.0517,-939.6507"/>
<polygon fill="#000000" stroke="#000000" points="2405.5596,-939.7327 2403.02,-929.4467 2398.5909,-939.0713 2405.5596,-939.7327"/>
</g>
<!-- u10&#45;&gt;u31 -->
<g id="edge69" class="edge">
<title>u10&#45;&gt;u31</title>
<path fill="none" stroke="#000000" d="M2243.6557,-1307.4247C2234.9479,-1303.2256 2225.13,-1298.9796 2215.7704,-1296 1473.0624,-1059.5647 1134.9115,-1426.9111 488.7704,-991 470.0971,-978.4023 457.0567,-956.2509 448.9863,-938.4469"/>
<polygon fill="#000000" stroke="#000000" points="452.1427,-936.9254 445.0098,-929.0913 445.7004,-939.6636 452.1427,-936.9254"/>
</g>
<!-- u10&#45;&gt;u2 -->
<g id="edge14" class="edge">
<title>u10&#45;&gt;u2</title>
<path fill="none" stroke="#000000" d="M2268.3057,-1303.9204C2256.7488,-1219.4667 2206.4407,-855.3927 2157.7704,-558 2145.5769,-483.4933 2129.3656,-395.9929 2121.1035,-352.1064"/>
<polygon fill="#000000" stroke="#000000" points="2124.5225,-351.3494 2119.2287,-342.172 2117.644,-352.6476 2124.5225,-351.3494"/>
</g>
<!-- u10&#45;&gt;u0 -->
<g id="edge3" class="edge">
<title>u10&#45;&gt;u0</title>
<path fill="none" stroke="#000000" d="M2266.5929,-1303.7572C2243.9211,-1204.7525 2135.6618,-731.9991 2108.1436,-611.831"/>
<polygon fill="#000000" stroke="#000000" points="2111.5212,-610.9004 2105.8773,-601.934 2104.6978,-612.463 2111.5212,-610.9004"/>
</g>
<!-- u11 -->
<g id="node32" class="node">
<title>u11</title>
<ellipse fill="#7777ff" stroke="#000000" stroke-width="0" cx="2432.7704" cy="-1621" rx="81.7856" ry="18"/>
<text text-anchor="middle" x="2432.7704" y="-1617.3" font-family="Times,serif" font-size="14.00" fill="#000000">ExploreTimeSpaces</text>
</g>
<!-- u11&#45;&gt;u24 -->
<g id="edge43" class="edge">
<title>u11&#45;&gt;u24</title>
<path fill="none" stroke="#000000" d="M2402.3607,-1604.1426C2335.7819,-1566.5791 2173.4325,-1471.3711 2052.7704,-1371 2017.2469,-1341.4502 2018.4028,-1322.8126 1980.7704,-1296 1717.2679,-1108.2578 1590.9802,-1167.4254 1319.7704,-991 1295.4575,-975.1841 1270.936,-953.1977 1253.4837,-936.2757"/>
<polygon fill="#000000" stroke="#000000" points="1255.5705,-933.4186 1245.9887,-928.8975 1250.6597,-938.4071 1255.5705,-933.4186"/>
</g>
<!-- u11&#45;&gt;u2 -->
<g id="edge15" class="edge">
<title>u11&#45;&gt;u2</title>
<path fill="none" stroke="#000000" d="M2446.7123,-1603.2329C2476.4553,-1564.061 2545.4026,-1466.1727 2569.7704,-1371 2593.336,-1278.9607 2696.599,-1369.8597 2567.7704,-877 2526.7663,-720.1305 2493.4989,-683.4442 2390.7704,-558 2315.9341,-466.6157 2202.2865,-382.9897 2147.4993,-345.2062"/>
<polygon fill="#000000" stroke="#000000" points="2149.4551,-342.3035 2139.2266,-339.5416 2145.5002,-348.0793 2149.4551,-342.3035"/>
</g>
<!-- u12 -->
<g id="node33" class="node">
<title>u12</title>
<ellipse fill="#7777ff" stroke="#000000" stroke-width="0" cx="2695.7704" cy="-1621" rx="42.7926" ry="18"/>
<text text-anchor="middle" x="2695.7704" y="-1617.3" font-family="Times,serif" font-size="14.00" fill="#000000">Timeline</text>
</g>
<!-- u12&#45;&gt;u25 -->
<g id="edge44" class="edge">
<title>u12&#45;&gt;u25</title>
<path fill="none" stroke="#000000" d="M2668.6933,-1606.9933C2660.7226,-1602.9976 2651.9465,-1598.7213 2643.7704,-1595 2405.7888,-1486.683 2296.2759,-1543.4917 2099.7704,-1371 2070.894,-1345.6524 2081.687,-1325.2491 2056.7704,-1296 1917.0089,-1131.9363 1844.8917,-1129.5104 1679.7704,-991 1657.9733,-972.7157 1633.7027,-951.5773 1615.5652,-935.6226"/>
<polygon fill="#000000" stroke="#000000" points="1617.5106,-932.6718 1607.6942,-928.6857 1612.8823,-937.9234 1617.5106,-932.6718"/>
</g>
<!-- u12&#45;&gt;u31 -->
<g id="edge70" class="edge">
<title>u12&#45;&gt;u31</title>
<path fill="none" stroke="#000000" d="M2669.4896,-1606.6432C2661.3864,-1602.5498 2652.3389,-1598.3082 2643.7704,-1595 2179.8069,-1415.8686 886.8743,-1289.0997 488.7704,-991 470.8503,-977.5814 457.8122,-955.6852 449.5515,-938.1898"/>
<polygon fill="#000000" stroke="#000000" points="452.7242,-936.7106 445.4531,-929.0047 446.3317,-939.563 452.7242,-936.7106"/>
</g>
<!-- u12&#45;&gt;u2 -->
<g id="edge16" class="edge">
<title>u12&#45;&gt;u2</title>
<path fill="none" stroke="#000000" d="M2696.6116,-1602.726C2700.7549,-1491.6774 2708.8839,-900.7948 2433.7704,-558 2352.8048,-457.1158 2218.3987,-377.8072 2153.3427,-343.0882"/>
<polygon fill="#000000" stroke="#000000" points="2154.7392,-339.8676 2144.2621,-338.292 2151.4699,-346.0573 2154.7392,-339.8676"/>
</g>
<!-- u12&#45;&gt;u0 -->
<g id="edge4" class="edge">
<title>u12&#45;&gt;u0</title>
<path fill="none" stroke="#000000" d="M2693.7974,-1602.7689C2682.503,-1500.9297 2623.5605,-1002.5297 2538.7704,-877 2435.3686,-723.9159 2222.6053,-629.8419 2137.8084,-597.083"/>
<polygon fill="#000000" stroke="#000000" points="2138.9436,-593.7701 2128.3527,-593.4803 2136.4513,-600.3114 2138.9436,-593.7701"/>
</g>
<!-- u12&#45;&gt;u10 -->
<g id="edge32" class="edge">
<title>u12&#45;&gt;u10</title>
<path fill="none" stroke="#000000" d="M2671.1824,-1605.9895C2610.6527,-1568.6991 2450.3058,-1467.8506 2325.7704,-1371 2315.7764,-1363.2277 2305.2868,-1354.1388 2296.1795,-1345.9139"/>
<polygon fill="#000000" stroke="#000000" points="2298.3207,-1343.1291 2288.5792,-1338.9632 2293.5966,-1348.2947 2298.3207,-1343.1291"/>
</g>
<!-- u13 -->
<g id="node34" class="node">
<title>u13</title>
<ellipse fill="#7777ff" stroke="#000000" stroke-width="0" cx="2139.7704" cy="-1621" rx="30.5947" ry="18"/>
<text text-anchor="middle" x="2139.7704" y="-1617.3" font-family="Times,serif" font-size="14.00" fill="#000000">Index</text>
</g>
<!-- u13&#45;&gt;u20 -->
<g id="edge36" class="edge">
<title>u13&#45;&gt;u20</title>
<path fill="none" stroke="#000000" d="M2116.3945,-1609.3424C2002.2006,-1551.7975 1494.0951,-1288.8221 1137.7704,-991 1118.3599,-974.7764 1099.1881,-953.5079 1085.3657,-936.979"/>
<polygon fill="#000000" stroke="#000000" points="1087.7086,-934.3177 1078.6523,-928.8192 1082.303,-938.7652 1087.7086,-934.3177"/>
</g>
<!-- u13&#45;&gt;u4 -->
<g id="edge25" class="edge">
<title>u13&#45;&gt;u4</title>
<path fill="none" stroke="#000000" d="M2156.2321,-1605.7615C2208.8744,-1557.0307 2373.388,-1404.741 2437.1562,-1345.711"/>
<polygon fill="#000000" stroke="#000000" points="2439.8079,-1348.0258 2444.7687,-1338.6641 2435.0526,-1342.8888 2439.8079,-1348.0258"/>
</g>
<!-- u13&#45;&gt;u8 -->
<g id="edge29" class="edge">
<title>u13&#45;&gt;u8</title>
<path fill="none" stroke="#000000" d="M2140.8693,-1602.7463C2143.908,-1552.2709 2152.439,-1410.5603 2156.0844,-1350.0069"/>
<polygon fill="#000000" stroke="#000000" points="2159.5786,-1350.2071 2156.6859,-1340.0148 2152.5912,-1349.7864 2159.5786,-1350.2071"/>
</g>
<!-- u13&#45;&gt;u9 -->
<g id="edge31" class="edge">
<title>u13&#45;&gt;u9</title>
<path fill="none" stroke="#000000" d="M2152.2431,-1604.4986C2189.8156,-1554.7898 2302.0824,-1406.2598 2346.9447,-1346.9066"/>
<polygon fill="#000000" stroke="#000000" points="2349.82,-1348.907 2353.0577,-1338.819 2344.2357,-1344.6861 2349.82,-1348.907"/>
</g>
</g>
</svg>
