<?xml version="1.0" encoding="UTF-8" standalone="no"?>
<!DOCTYPE svg PUBLIC "-//W3C//DTD SVG 1.1//EN"
 "http://www.w3.org/Graphics/SVG/1.1/DTD/svg11.dtd">
<!-- Generated by graphviz version 2.40.1 (20161225.0304)
 -->
<!-- Title: Modules Pages: 1 -->
<svg width="864pt" height="565pt"
 viewBox="0.00 0.00 864.00 564.70" xmlns="http://www.w3.org/2000/svg" xmlns:xlink="http://www.w3.org/1999/xlink">
<g id="graph0" class="graph" transform="scale(.266 .266) rotate(0) translate(4 2119.3333)">
<title>Modules</title>
<polygon fill="#ffffff" stroke="transparent" points="-4,4 -4,-2119.3333 3244.716,-2119.3333 3244.716,4 -4,4"/>
<g id="clust1" class="cluster">
<title>cluster_0</title>
<polygon fill="#000000" fill-opacity="0.058824" stroke="#000000" stroke-opacity="0.058824" points="132.1459,-534.7311 132.1459,-1309.3048 2008.1459,-1309.3048 2008.1459,-534.7311 132.1459,-534.7311"/>
<text text-anchor="middle" x="1070.1459" y="-1294.1048" font-family="Times,serif" font-size="14.00" fill="#000000">Components</text>
</g>
<g id="clust2" class="cluster">
<title>cluster_1</title>
<polygon fill="#000000" fill-opacity="0.058824" stroke="#000000" stroke-opacity="0.058824" points="661.1459,-892.5291 661.1459,-1187.4176 1902.1459,-1187.4176 1902.1459,-892.5291 661.1459,-892.5291"/>
<text text-anchor="middle" x="1281.6459" y="-1172.2176" font-family="Times,serif" font-size="14.00" fill="#000000">Dialogs</text>
</g>
<g id="clust3" class="cluster">
<title>cluster_2</title>
<polygon fill="#000000" fill-opacity="0.058824" stroke="#000000" stroke-opacity="0.058824" points="140.1459,-892.5291 140.1459,-1187.4176 447.1459,-1187.4176 447.1459,-892.5291 140.1459,-892.5291"/>
<text text-anchor="middle" x="293.6459" y="-1172.2176" font-family="Times,serif" font-size="14.00" fill="#000000">Drawers</text>
</g>
<g id="clust4" class="cluster">
<title>cluster_3</title>
<polygon fill="#000000" fill-opacity="0.058824" stroke="#000000" stroke-opacity="0.058824" points="788.1459,-1340.7596 788.1459,-1635.6481 904.1459,-1635.6481 904.1459,-1340.7596 788.1459,-1340.7596"/>
<text text-anchor="middle" x="846.1459" y="-1620.4481" font-family="Times,serif" font-size="14.00" fill="#000000">MaterialUI</text>
</g>
<g id="clust5" class="cluster">
<title>cluster_4</title>
<polygon fill="#000000" fill-opacity="0.058824" stroke="#000000" stroke-opacity="0.058824" points="2016.1459,-251.6382 2016.1459,-829.6196 2122.1459,-829.6196 2122.1459,-251.6382 2016.1459,-251.6382"/>
<text text-anchor="middle" x="2069.1459" y="-814.4196" font-family="Times,serif" font-size="14.00" fill="#000000">Plumbing</text>
</g>
<g id="clust6" class="cluster">
<title>cluster_5</title>
<polygon fill="#000000" fill-opacity="0.058824" stroke="#000000" stroke-opacity="0.058824" points="2090.1459,-1788.9901 2090.1459,-2083.8786 2200.1459,-2083.8786 2200.1459,-1788.9901 2090.1459,-1788.9901"/>
<text text-anchor="middle" x="2145.1459" y="-2068.6786" font-family="Times,serif" font-size="14.00" fill="#000000">Scripts</text>
</g>
<g id="clust7" class="cluster">
<title>cluster_6</title>
<polygon fill="#000000" fill-opacity="0.058824" stroke="#000000" stroke-opacity="0.058824" points="2046.1459,-861.0743 2046.1459,-1757.5353 3165.1459,-1757.5353 3165.1459,-861.0743 2046.1459,-861.0743"/>
<text text-anchor="middle" x="2605.6459" y="-1742.3353" font-family="Times,serif" font-size="14.00" fill="#000000">Timeline</text>
</g>
<g id="clust8" class="cluster">
<title>cluster_7</title>
<polygon fill="#000000" fill-opacity="0.058824" stroke="#000000" stroke-opacity="0.058824" points="2054.1459,-892.5291 2054.1459,-1635.6481 3157.1459,-1635.6481 3157.1459,-892.5291 2054.1459,-892.5291"/>
<text text-anchor="middle" x="2605.6459" y="-1620.4481" font-family="Times,serif" font-size="14.00" fill="#000000">UI</text>
</g>
<!-- u17 -->
<g id="node1" class="node">
<title>u17</title>
<ellipse fill="#bbffbb" stroke="#000000" stroke-width="0" cx="1076.1459" cy="-1891" rx="38.9931" ry="18"/>
<text text-anchor="middle" x="1076.1459" y="-1887.3" font-family="Times,serif" font-size="14.00" fill="#000000">Settings</text>
</g>
<!-- u11 -->
<g id="node5" class="node">
<title>u11</title>
<ellipse fill="#ffffbb" stroke="#000000" stroke-width="0" cx="495.1459" cy="-995" rx="37.8943" ry="18"/>
<text text-anchor="middle" x="495.1459" y="-991.3" font-family="Times,serif" font-size="14.00" fill="#000000">TopBar</text>
</g>
<!-- u17&#45;&gt;u11 -->
<g id="edge11" class="edge">
<title>u17&#45;&gt;u11</title>
<path fill="none" stroke="#000000" d="M1073.9924,-1872.8573C1064.6038,-1795.8657 1025.5019,-1496.488 976.1459,-1417 846.6002,-1208.3662 703.5776,-1260.0674 542.1459,-1075 528.1604,-1058.9668 516.0953,-1038.1829 507.6918,-1021.8182"/>
<polygon fill="#000000" stroke="#000000" points="510.7724,-1020.1526 503.1802,-1012.7628 504.507,-1023.2743 510.7724,-1020.1526"/>
</g>
<!-- u12 -->
<g id="node6" class="node">
<title>u12</title>
<ellipse fill="#ffffbb" stroke="#000000" stroke-width="0" cx="945.1459" cy="-637" rx="30.5947" ry="18"/>
<text text-anchor="middle" x="945.1459" y="-633.3" font-family="Times,serif" font-size="14.00" fill="#000000">Index</text>
</g>
<!-- u17&#45;&gt;u12 -->
<g id="edge28" class="edge">
<title>u17&#45;&gt;u12</title>
<path fill="none" stroke="#000000" d="M1048.3536,-1878.1045C914.9704,-1814.4474 338.61,-1518.8641 136.1459,-1075 -12.6694,-748.7507 721.7932,-657.8621 904.6957,-640.4412"/>
<polygon fill="#000000" stroke="#000000" points="905.081,-643.9205 914.7135,-639.5085 904.432,-636.9506 905.081,-643.9205"/>
</g>
<!-- u5 -->
<g id="node11" class="node">
<title>u5</title>
<ellipse fill="#bbbbff" stroke="#000000" stroke-width="0" cx="809.1459" cy="-995" rx="53.8905" ry="18"/>
<text text-anchor="middle" x="809.1459" y="-991.3" font-family="Times,serif" font-size="14.00" fill="#000000">SettingsEdit</text>
</g>
<!-- u17&#45;&gt;u5 -->
<g id="edge3" class="edge">
<title>u17&#45;&gt;u5</title>
<path fill="none" stroke="#000000" d="M1075.8568,-1872.9212C1074.4049,-1809.1258 1065.7211,-1589.1179 1014.1459,-1417 966.6814,-1258.6003 865.5747,-1086.0377 825.7558,-1021.3924"/>
<polygon fill="#000000" stroke="#000000" points="828.582,-1019.3086 820.3392,-1012.6522 822.6319,-1022.996 828.582,-1019.3086"/>
</g>
<!-- u6 -->
<g id="node12" class="node">
<title>u6</title>
<ellipse fill="#bbbbff" stroke="#000000" stroke-width="0" cx="945.1459" cy="-995" rx="63.8893" ry="18"/>
<text text-anchor="middle" x="945.1459" y="-991.3" font-family="Times,serif" font-size="14.00" fill="#000000">TimeScaleEdit</text>
</g>
<!-- u17&#45;&gt;u6 -->
<g id="edge5" class="edge">
<title>u17&#45;&gt;u6</title>
<path fill="none" stroke="#000000" d="M1076.5122,-1872.7897C1077.5134,-1809.4453 1078.6467,-1592.9937 1052.1459,-1417 1029.3918,-1265.8886 975.8377,-1090.2433 954.3269,-1023.0729"/>
<polygon fill="#000000" stroke="#000000" points="957.5581,-1021.6885 951.1593,-1013.2442 950.8956,-1023.8357 957.5581,-1021.6885"/>
</g>
<!-- u7 -->
<g id="node13" class="node">
<title>u7</title>
<ellipse fill="#bbbbff" stroke="#000000" stroke-width="0" cx="1114.1459" cy="-995" rx="87.1846" ry="18"/>
<text text-anchor="middle" x="1114.1459" y="-991.3" font-family="Times,serif" font-size="14.00" fill="#000000">TimeSpaceNameEdit</text>
</g>
<!-- u17&#45;&gt;u7 -->
<g id="edge8" class="edge">
<title>u17&#45;&gt;u7</title>
<path fill="none" stroke="#000000" d="M1076.9222,-1872.696C1081.6977,-1760.0937 1107.0798,-1161.6123 1112.9386,-1023.4667"/>
<polygon fill="#000000" stroke="#000000" points="1116.4439,-1023.4142 1113.3709,-1013.2749 1109.4502,-1023.1176 1116.4439,-1023.4142"/>
</g>
<!-- u14 -->
<g id="node17" class="node">
<title>u14</title>
<ellipse fill="#ffbbbb" stroke="#000000" stroke-width="0" cx="188.1459" cy="-995" rx="39.7935" ry="18"/>
<text text-anchor="middle" x="188.1459" y="-991.3" font-family="Times,serif" font-size="14.00" fill="#000000">Siblings</text>
</g>
<!-- u17&#45;&gt;u14 -->
<g id="edge31" class="edge">
<title>u17&#45;&gt;u14</title>
<path fill="none" stroke="#000000" d="M1068.8642,-1873.1898C1047.3797,-1820.3204 982.9576,-1659.4619 938.1459,-1523 922.8703,-1476.4824 939.2331,-1454.8262 908.1459,-1417 695.3676,-1158.0962 481.2194,-1303.5711 236.1459,-1075 220.3033,-1060.2242 207.9127,-1039.0507 199.6914,-1022.1979"/>
<polygon fill="#000000" stroke="#000000" points="202.7343,-1020.4415 195.3381,-1012.8556 196.3894,-1023.3981 202.7343,-1020.4415"/>
</g>
<!-- u15 -->
<g id="node18" class="node">
<title>u15</title>
<ellipse fill="#ffbbbb" stroke="#000000" stroke-width="0" cx="287.1459" cy="-995" rx="41.6928" ry="18"/>
<text text-anchor="middle" x="287.1459" y="-991.3" font-family="Times,serif" font-size="14.00" fill="#000000">Children</text>
</g>
<!-- u17&#45;&gt;u15 -->
<g id="edge32" class="edge">
<title>u17&#45;&gt;u15</title>
<path fill="none" stroke="#000000" d="M1071.298,-1872.9462C1048.5757,-1788.5191 953.0942,-1435.9451 938.1459,-1417 748.0147,-1176.0327 560.4902,-1286.6085 338.1459,-1075 322.2875,-1059.9073 309.1486,-1038.9216 300.1801,-1022.2306"/>
<polygon fill="#000000" stroke="#000000" points="303.0961,-1020.25 295.3924,-1012.9765 296.8789,-1023.4665 303.0961,-1020.25"/>
</g>
<!-- u16 -->
<g id="node19" class="node">
<title>u16</title>
<ellipse fill="#ffbbbb" stroke="#000000" stroke-width="0" cx="393.1459" cy="-995" rx="46.2923" ry="18"/>
<text text-anchor="middle" x="393.1459" y="-991.3" font-family="Times,serif" font-size="14.00" fill="#000000">Timelines</text>
</g>
<!-- u17&#45;&gt;u16 -->
<g id="edge33" class="edge">
<title>u17&#45;&gt;u16</title>
<path fill="none" stroke="#000000" d="M1061.8291,-1874.0227C991.1652,-1789.933 673.7339,-1408.7429 443.1459,-1075 431.0828,-1057.5404 418.4222,-1037.2609 408.8592,-1021.4886"/>
<polygon fill="#000000" stroke="#000000" points="411.7713,-1019.5398 403.6145,-1012.7783 405.7745,-1023.1506 411.7713,-1019.5398"/>
</g>
<!-- u18 -->
<g id="node21" class="node">
<title>u18</title>
<ellipse fill="#bbffbb" stroke="#000000" stroke-width="2" cx="2069.1459" cy="-354" rx="45.4919" ry="18"/>
<text text-anchor="middle" x="2069.1459" y="-350.3" font-family="Times,serif" font-size="14.00" fill="#000000">Plumbing</text>
</g>
<!-- u17&#45;&gt;u18 -->
<g id="edge41" class="edge">
<title>u17&#45;&gt;u18</title>
<path fill="none" stroke="#000000" d="M1115.2051,-1890.6645C1379.4352,-1887.5037 2903.1986,-1854.9169 3182.1459,-1523 3218.4207,-1479.8369 3302.2779,-1188.7611 3161.1459,-961 2913.1848,-560.8364 2300.7757,-402.9 2120.102,-364.0938"/>
<polygon fill="#000000" stroke="#000000" points="2120.5824,-360.618 2110.0739,-361.9676 2119.1304,-367.4657 2120.5824,-360.618"/>
</g>
<!-- u30 -->
<g id="node22" class="node">
<title>u30</title>
<ellipse fill="#ffbbff" stroke="#000000" stroke-width="0" cx="2055.1459" cy="-637" rx="31.3957" ry="18"/>
<text text-anchor="middle" x="2055.1459" y="-633.3" font-family="Times,serif" font-size="14.00" fill="#000000">Logic</text>
</g>
<!-- u17&#45;&gt;u30 -->
<g id="edge59" class="edge">
<title>u17&#45;&gt;u30</title>
<path fill="none" stroke="#000000" d="M1102.9265,-1877.6333C1231.5948,-1811.789 1789.2141,-1507.615 2012.1459,-1075 2049.1967,-1003.1004 2054.3743,-750.5443 2055.057,-665.3263"/>
<polygon fill="#000000" stroke="#000000" points="2058.5582,-665.1366 2055.1231,-655.1141 2051.5583,-665.0912 2058.5582,-665.1366"/>
</g>
<!-- u22 -->
<g id="node26" class="node">
<title>u22</title>
<ellipse fill="#7777ff" stroke="#000000" stroke-width="0" cx="2111.1459" cy="-1443" rx="48.9926" ry="18"/>
<text text-anchor="middle" x="2111.1459" y="-1439.3" font-family="Times,serif" font-size="14.00" fill="#000000">TimeScale</text>
</g>
<!-- u17&#45;&gt;u22 -->
<g id="edge50" class="edge">
<title>u17&#45;&gt;u22</title>
<path fill="none" stroke="#000000" d="M1112.5065,-1883.9294C1246.5445,-1856.5417 1721.8153,-1747.6175 2042.1459,-1523 2062.8626,-1508.4733 2081.2887,-1486.3716 2093.877,-1469.0773"/>
<polygon fill="#000000" stroke="#000000" points="2096.9985,-1470.7246 2099.9089,-1460.5374 2091.2808,-1466.6862 2096.9985,-1470.7246"/>
</g>
<!-- u25 -->
<g id="node29" class="node">
<title>u25</title>
<ellipse fill="#7777ff" stroke="#000000" stroke-width="0" cx="2443.1459" cy="-1443" rx="72.2875" ry="18"/>
<text text-anchor="middle" x="2443.1459" y="-1439.3" font-family="Times,serif" font-size="14.00" fill="#000000">TimeSpaceName</text>
</g>
<!-- u17&#45;&gt;u25 -->
<g id="edge51" class="edge">
<title>u17&#45;&gt;u25</title>
<path fill="none" stroke="#000000" d="M1114.346,-1887.048C1276.1089,-1868.9413 1916.81,-1783.3014 2362.1459,-1523 2386.118,-1508.9882 2408.1727,-1486.2632 2423.1953,-1468.6076"/>
<polygon fill="#000000" stroke="#000000" points="2425.8959,-1470.8339 2429.5843,-1460.9018 2420.5072,-1466.366 2425.8959,-1470.8339"/>
</g>
<!-- u28 -->
<g id="node32" class="node">
<title>u28</title>
<ellipse fill="#7777ff" stroke="#000000" stroke-width="0" cx="2368.1459" cy="-995" rx="46.2923" ry="18"/>
<text text-anchor="middle" x="2368.1459" y="-991.3" font-family="Times,serif" font-size="14.00" fill="#000000">Timelines</text>
</g>
<!-- u17&#45;&gt;u28 -->
<g id="edge52" class="edge">
<title>u17&#45;&gt;u28</title>
<path fill="none" stroke="#000000" d="M1115.1856,-1890.5806C1377.6303,-1886.8713 2882.751,-1851.3406 3158.1459,-1523 3188.4209,-1486.9045 3182.3711,-1457.4054 3158.1459,-1417 2990.8523,-1137.9696 2569.3142,-1033.1552 2420.8675,-1004.1697"/>
<polygon fill="#000000" stroke="#000000" points="2421.1387,-1000.658 2410.6585,-1002.2124 2419.8206,-1007.5328 2421.1387,-1000.658"/>
</g>
<!-- u19 -->
<g id="node2" class="node">
<title>u19</title>
<ellipse fill="#bbffbb" stroke="#000000" stroke-width="0" cx="1769.1459" cy="-71" rx="29.795" ry="18"/>
<text text-anchor="middle" x="1769.1459" y="-67.3" font-family="Times,serif" font-size="14.00" fill="#000000">Main</text>
</g>
<!-- u31 -->
<g id="node3" class="node">
<title>u31</title>
<ellipse fill="#bbffbb" stroke="#000000" stroke-width="0" cx="46.1459" cy="-995" rx="46.2923" ry="18"/>
<text text-anchor="middle" x="46.1459" y="-991.3" font-family="Times,serif" font-size="14.00" fill="#000000">WithRoot</text>
</g>
<!-- u31&#45;&gt;u12 -->
<g id="edge30" class="edge">
<title>u31&#45;&gt;u12</title>
<path fill="none" stroke="#000000" d="M71.1081,-979.765C81.7215,-973.5753 94.3499,-966.5828 106.1459,-961 407.5071,-818.3733 789.8397,-688.2652 908.4111,-649.0184"/>
<polygon fill="#000000" stroke="#000000" points="909.6994,-652.279 918.0979,-645.8203 907.5048,-645.6319 909.6994,-652.279"/>
</g>
<!-- u1 -->
<g id="node4" class="node">
<title>u1</title>
<ellipse fill="#ffffbb" stroke="#000000" stroke-width="0" cx="601.1459" cy="-995" rx="50.0912" ry="18"/>
<text text-anchor="middle" x="601.1459" y="-991.3" font-family="Times,serif" font-size="14.00" fill="#000000">BottomBar</text>
</g>
<!-- u1&#45;&gt;u12 -->
<g id="edge13" class="edge">
<title>u1&#45;&gt;u12</title>
<path fill="none" stroke="#000000" d="M617.7377,-977.7329C674.0963,-919.0807 858.2504,-727.4319 922.6589,-660.4022"/>
<polygon fill="#000000" stroke="#000000" points="925.4984,-662.4986 929.9033,-652.8629 920.4509,-657.6485 925.4984,-662.4986"/>
</g>
<!-- u11&#45;&gt;u12 -->
<g id="edge23" class="edge">
<title>u11&#45;&gt;u12</title>
<path fill="none" stroke="#000000" d="M514.7712,-979.387C586.7499,-922.1239 836.3269,-723.5716 918.6058,-658.1142"/>
<polygon fill="#000000" stroke="#000000" points="921.2701,-660.467 926.9168,-651.5023 916.9121,-654.9891 921.2701,-660.467"/>
</g>
<!-- u12&#45;&gt;u19 -->
<g id="edge48" class="edge">
<title>u12&#45;&gt;u19</title>
<path fill="none" stroke="#000000" d="M965.1063,-623.2894C1075.5045,-547.4576 1611.0351,-179.6053 1740.7889,-90.4782"/>
<polygon fill="#000000" stroke="#000000" points="1742.8192,-93.3299 1749.0802,-84.783 1738.8558,-87.5599 1742.8192,-93.3299"/>
</g>
<!-- u13 -->
<g id="node7" class="node">
<title>u13</title>
<ellipse fill="#ffffbb" stroke="#000000" stroke-width="0" cx="1956.1459" cy="-995" rx="43.5923" ry="18"/>
<text text-anchor="middle" x="1956.1459" y="-991.3" font-family="Times,serif" font-size="14.00" fill="#000000">Snackbar</text>
</g>
<!-- u13&#45;&gt;u12 -->
<g id="edge24" class="edge">
<title>u13&#45;&gt;u12</title>
<path fill="none" stroke="#000000" d="M1935.5142,-979.1067C1926.784,-972.8846 1916.2987,-966.0451 1906.1459,-961 1566.1079,-792.0292 1116.9847,-677.8135 983.8831,-646.0132"/>
<polygon fill="#000000" stroke="#000000" points="984.3114,-642.5176 973.7732,-643.6115 982.6935,-649.328 984.3114,-642.5176"/>
</g>
<!-- u13&#45;&gt;u18 -->
<g id="edge40" class="edge">
<title>u13&#45;&gt;u18</title>
<path fill="none" stroke="#000000" d="M1958.5621,-976.9478C1966.0067,-921.8985 1989.6376,-751.3555 2015.1459,-611 2030.3802,-527.176 2052.1466,-428.7901 2062.7916,-381.7649"/>
<polygon fill="#000000" stroke="#000000" points="2066.2065,-382.5321 2065.0084,-372.0052 2059.3803,-380.9816 2066.2065,-382.5321"/>
</g>
<!-- u13&#45;&gt;u30 -->
<g id="edge58" class="edge">
<title>u13&#45;&gt;u30</title>
<path fill="none" stroke="#000000" d="M1961.1914,-976.7545C1977.3823,-918.2057 2028.1002,-734.8017 2047.4973,-664.6586"/>
<polygon fill="#000000" stroke="#000000" points="2050.936,-665.355 2050.228,-654.7839 2044.1892,-663.4892 2050.936,-665.355"/>
</g>
<!-- u2 -->
<g id="node8" class="node">
<title>u2</title>
<ellipse fill="#bbbbff" stroke="#000000" stroke-width="0" cx="703.1459" cy="-995" rx="34.394" ry="18"/>
<text text-anchor="middle" x="703.1459" y="-991.3" font-family="Times,serif" font-size="14.00" fill="#000000">EULA</text>
</g>
<!-- u2&#45;&gt;u12 -->
<g id="edge14" class="edge">
<title>u2&#45;&gt;u12</title>
<path fill="none" stroke="#000000" d="M714.8181,-977.7329C754.0334,-919.7201 881.2019,-731.5949 927.8148,-662.6386"/>
<polygon fill="#000000" stroke="#000000" points="930.8902,-664.3387 933.5909,-654.0938 925.0909,-660.4185 930.8902,-664.3387"/>
</g>
<!-- u3 -->
<g id="node9" class="node">
<title>u3</title>
<ellipse fill="#bbbbff" stroke="#000000" stroke-width="0" cx="1772.1459" cy="-995" rx="35.194" ry="18"/>
<text text-anchor="middle" x="1772.1459" y="-991.3" font-family="Times,serif" font-size="14.00" fill="#000000">Import</text>
</g>
<!-- u3&#45;&gt;u12 -->
<g id="edge15" class="edge">
<title>u3&#45;&gt;u12</title>
<path fill="none" stroke="#000000" d="M1754.0772,-979.2888C1746.4079,-973.0947 1737.1672,-966.2267 1728.1459,-961 1457.8473,-804.3963 1097.2467,-684.6728 982.1133,-648.3918"/>
<polygon fill="#000000" stroke="#000000" points="982.9579,-644.9886 972.3688,-645.3361 980.8634,-651.6679 982.9579,-644.9886"/>
</g>
<!-- u3&#45;&gt;u18 -->
<g id="edge36" class="edge">
<title>u3&#45;&gt;u18</title>
<path fill="none" stroke="#000000" d="M1774.7019,-976.9451C1783.1942,-920.468 1813.6618,-743.0625 1878.1459,-611 1924.1857,-516.7112 2006.1673,-421.7502 2046.0615,-378.3664"/>
<polygon fill="#000000" stroke="#000000" points="2048.7717,-380.5911 2053.0026,-370.8777 2043.6378,-375.8326 2048.7717,-380.5911"/>
</g>
<!-- u3&#45;&gt;u30 -->
<g id="edge54" class="edge">
<title>u3&#45;&gt;u30</title>
<path fill="none" stroke="#000000" d="M1785.416,-978.2131C1831.0021,-920.5459 1981.3613,-730.3388 2035.5016,-661.8504"/>
<polygon fill="#000000" stroke="#000000" points="2038.4488,-663.766 2041.9045,-653.7506 2032.9573,-659.425 2038.4488,-663.766"/>
</g>
<!-- u4 -->
<g id="node10" class="node">
<title>u4</title>
<ellipse fill="#bbbbff" stroke="#000000" stroke-width="0" cx="1301.1459" cy="-995" rx="81.7856" ry="18"/>
<text text-anchor="middle" x="1301.1459" y="-991.3" font-family="Times,serif" font-size="14.00" fill="#000000">ExploreTimeSpaces</text>
</g>
<!-- u4&#45;&gt;u12 -->
<g id="edge16" class="edge">
<title>u4&#45;&gt;u12</title>
<path fill="none" stroke="#000000" d="M1283.4918,-977.2467C1224.4561,-917.8793 1033.9293,-726.2822 967.9155,-659.8975"/>
<polygon fill="#000000" stroke="#000000" points="970.3856,-657.4178 960.8525,-652.7948 965.4219,-662.3536 970.3856,-657.4178"/>
</g>
<!-- u5&#45;&gt;u12 -->
<g id="edge17" class="edge">
<title>u5&#45;&gt;u12</title>
<path fill="none" stroke="#000000" d="M816.0771,-976.7545C838.3648,-918.0855 908.2785,-734.048 934.8023,-664.2279"/>
<polygon fill="#000000" stroke="#000000" points="938.1106,-665.375 938.39,-654.7839 931.5668,-662.8891 938.1106,-665.375"/>
</g>
<!-- u6&#45;&gt;u12 -->
<g id="edge18" class="edge">
<title>u6&#45;&gt;u12</title>
<path fill="none" stroke="#000000" d="M945.1459,-976.7545C945.1459,-918.4612 945.1459,-736.3999 945.1459,-665.5832"/>
<polygon fill="#000000" stroke="#000000" points="948.646,-665.2087 945.1459,-655.2087 941.646,-665.2088 948.646,-665.2087"/>
</g>
<!-- u7&#45;&gt;u12 -->
<g id="edge19" class="edge">
<title>u7&#45;&gt;u12</title>
<path fill="none" stroke="#000000" d="M1105.5328,-976.7545C1077.773,-917.9496 990.5565,-733.1953 957.7713,-663.7449"/>
<polygon fill="#000000" stroke="#000000" points="960.7767,-661.9124 953.3426,-654.3635 954.4465,-664.9006 960.7767,-661.9124"/>
</g>
<!-- u8 -->
<g id="node14" class="node">
<title>u8</title>
<ellipse fill="#bbbbff" stroke="#000000" stroke-width="0" cx="1860.1459" cy="-995" rx="34.394" ry="18"/>
<text text-anchor="middle" x="1860.1459" y="-991.3" font-family="Times,serif" font-size="14.00" fill="#000000">Export</text>
</g>
<!-- u8&#45;&gt;u12 -->
<g id="edge20" class="edge">
<title>u8&#45;&gt;u12</title>
<path fill="none" stroke="#000000" d="M1842.5942,-979.469C1834.8584,-973.1588 1825.4292,-966.1563 1816.1459,-961 1514.3372,-793.3645 1108.5196,-679.5988 983.4408,-646.771"/>
<polygon fill="#000000" stroke="#000000" points="984.1258,-643.3326 973.5661,-644.1949 982.3587,-650.1059 984.1258,-643.3326"/>
</g>
<!-- u8&#45;&gt;u18 -->
<g id="edge37" class="edge">
<title>u8&#45;&gt;u18</title>
<path fill="none" stroke="#000000" d="M1859.2871,-976.7398C1857.2383,-920.3912 1855.3826,-744.9562 1903.1459,-611 1936.6637,-516.9964 2010.4017,-422.5397 2047.2654,-378.9328"/>
<polygon fill="#000000" stroke="#000000" points="2050.0802,-381.0262 2053.9128,-371.1489 2044.7571,-376.4804 2050.0802,-381.0262"/>
</g>
<!-- u8&#45;&gt;u30 -->
<g id="edge55" class="edge">
<title>u8&#45;&gt;u30</title>
<path fill="none" stroke="#000000" d="M1869.816,-977.2467C1901.597,-918.9 2002.9473,-732.8312 2040.749,-663.4312"/>
<polygon fill="#000000" stroke="#000000" points="2043.9376,-664.8942 2045.6474,-654.4383 2037.7904,-661.5459 2043.9376,-664.8942"/>
</g>
<!-- u9 -->
<g id="node15" class="node">
<title>u9</title>
<ellipse fill="#bbbbff" stroke="#000000" stroke-width="0" cx="1468.1459" cy="-995" rx="66.8882" ry="18"/>
<text text-anchor="middle" x="1468.1459" y="-991.3" font-family="Times,serif" font-size="14.00" fill="#000000">DangerConfirm</text>
</g>
<!-- u9&#45;&gt;u12 -->
<g id="edge21" class="edge">
<title>u9&#45;&gt;u12</title>
<path fill="none" stroke="#000000" d="M1443.622,-978.2131C1357.0512,-918.9543 1066.0178,-719.7383 973.5794,-656.4631"/>
<polygon fill="#000000" stroke="#000000" points="975.4961,-653.5337 965.2672,-650.7733 971.5421,-659.31 975.4961,-653.5337"/>
</g>
<!-- u9&#45;&gt;u18 -->
<g id="edge38" class="edge">
<title>u9&#45;&gt;u18</title>
<path fill="none" stroke="#000000" d="M1482.0776,-977.1562C1525.9427,-921.2963 1665.912,-745.4997 1794.1459,-611 1880.6424,-520.2772 1991.9146,-421.2184 2042.2698,-377.2526"/>
<polygon fill="#000000" stroke="#000000" points="2044.857,-379.6406 2050.0984,-370.433 2040.2592,-374.3623 2044.857,-379.6406"/>
</g>
<!-- u9&#45;&gt;u30 -->
<g id="edge56" class="edge">
<title>u9&#45;&gt;u30</title>
<path fill="none" stroke="#000000" d="M1495.2809,-978.4509C1592.4604,-919.183 1922.7503,-717.7455 2024.8335,-655.4869"/>
<polygon fill="#000000" stroke="#000000" points="2026.7251,-658.4329 2033.4402,-650.2379 2023.0802,-652.4567 2026.7251,-658.4329"/>
</g>
<!-- u10 -->
<g id="node16" class="node">
<title>u10</title>
<ellipse fill="#bbbbff" stroke="#000000" stroke-width="0" cx="1636.1459" cy="-995" rx="83.3857" ry="18"/>
<text text-anchor="middle" x="1636.1459" y="-991.3" font-family="Times,serif" font-size="14.00" fill="#000000">NewOrEditTimeline</text>
</g>
<!-- u10&#45;&gt;u12 -->
<g id="edge22" class="edge">
<title>u10&#45;&gt;u12</title>
<path fill="none" stroke="#000000" d="M1603.7444,-978.2131C1487.6061,-918.043 1092.9551,-713.5784 977.2668,-653.6415"/>
<polygon fill="#000000" stroke="#000000" points="978.6729,-650.4282 968.1837,-648.9357 975.4528,-656.6436 978.6729,-650.4282"/>
</g>
<!-- u10&#45;&gt;u18 -->
<g id="edge39" class="edge">
<title>u10&#45;&gt;u18</title>
<path fill="none" stroke="#000000" d="M1644.1527,-976.9625C1669.5615,-920.5362 1752.1442,-743.2632 1844.1459,-611 1908.3554,-518.6914 2000.885,-422.1322 2044.556,-378.2609"/>
<polygon fill="#000000" stroke="#000000" points="2047.2802,-380.4864 2051.8771,-370.9407 2042.3308,-375.5363 2047.2802,-380.4864"/>
</g>
<!-- u10&#45;&gt;u30 -->
<g id="edge57" class="edge">
<title>u10&#45;&gt;u30</title>
<path fill="none" stroke="#000000" d="M1656.6388,-977.4906C1726.2315,-918.0295 1953.4131,-723.9221 2029.8154,-658.6428"/>
<polygon fill="#000000" stroke="#000000" points="2032.2224,-661.1898 2037.5516,-652.0329 2027.6752,-655.8679 2032.2224,-661.1898"/>
</g>
<!-- u14&#45;&gt;u12 -->
<g id="edge25" class="edge">
<title>u14&#45;&gt;u12</title>
<path fill="none" stroke="#000000" d="M208.6107,-979.2241C216.9234,-973.1595 226.7652,-966.4018 236.1459,-961 483.2562,-818.7022 803.889,-691.1573 909.6185,-650.4765"/>
<polygon fill="#000000" stroke="#000000" points="911.0864,-653.6622 919.1699,-646.8133 908.5796,-647.1264 911.0864,-653.6622"/>
</g>
<!-- u15&#45;&gt;u12 -->
<g id="edge26" class="edge">
<title>u15&#45;&gt;u12</title>
<path fill="none" stroke="#000000" d="M309.1855,-979.6251C318.0586,-973.6157 328.4661,-966.7912 338.1459,-961 551.9982,-833.0573 820.4058,-698.4766 912.4383,-653.0408"/>
<polygon fill="#000000" stroke="#000000" points="914.1142,-656.1168 921.5362,-648.5561 911.0193,-649.8382 914.1142,-656.1168"/>
</g>
<!-- u16&#45;&gt;u12 -->
<g id="edge27" class="edge">
<title>u16&#45;&gt;u12</title>
<path fill="none" stroke="#000000" d="M415.9681,-979.312C424.4694,-973.5129 434.22,-966.914 443.1459,-961 620.9648,-843.1823 837.0285,-705.5809 915.1539,-656.0033"/>
<polygon fill="#000000" stroke="#000000" points="917.4163,-658.713 923.9858,-650.4008 913.6666,-652.802 917.4163,-658.713"/>
</g>
<!-- u0 -->
<g id="node20" class="node">
<title>u0</title>
<ellipse fill="#bbffff" stroke="#000000" stroke-width="0" cx="846.1459" cy="-1443" rx="50.0912" ry="18"/>
<text text-anchor="middle" x="846.1459" y="-1439.3" font-family="Times,serif" font-size="14.00" fill="#000000">Markdown</text>
</g>
<!-- u0&#45;&gt;u6 -->
<g id="edge4" class="edge">
<title>u0&#45;&gt;u6</title>
<path fill="none" stroke="#000000" d="M850.1494,-1424.883C865.4481,-1355.6529 920.2872,-1107.4919 938.908,-1023.228"/>
<polygon fill="#000000" stroke="#000000" points="942.3523,-1023.8621 941.0926,-1013.3424 935.5172,-1022.3516 942.3523,-1023.8621"/>
</g>
<!-- u0&#45;&gt;u7 -->
<g id="edge7" class="edge">
<title>u0&#45;&gt;u7</title>
<path fill="none" stroke="#000000" d="M856.8172,-1425.1614C898.2504,-1355.8999 1048.6074,-1104.5568 1098.1744,-1021.6987"/>
<polygon fill="#000000" stroke="#000000" points="1101.314,-1023.2681 1103.4441,-1012.8896 1095.3068,-1019.6744 1101.314,-1023.2681"/>
</g>
<!-- u18&#45;&gt;u19 -->
<g id="edge49" class="edge">
<title>u18&#45;&gt;u19</title>
<path fill="none" stroke="#000000" d="M2051.278,-337.1446C1999.8351,-288.6168 1851.3457,-148.5418 1793.0464,-93.5462"/>
<polygon fill="#000000" stroke="#000000" points="1795.1141,-90.6851 1785.4382,-86.3691 1790.3107,-95.777 1795.1141,-90.6851"/>
</g>
<!-- u18&#45;&gt;u12 -->
<g id="edge29" class="edge">
<title>u18&#45;&gt;u12</title>
<path fill="none" stroke="#000000" d="M2030.7078,-363.6779C1858.0995,-407.1371 1155.5429,-584.0264 983.3711,-627.3757"/>
<polygon fill="#000000" stroke="#000000" points="982.3353,-624.0272 973.4925,-629.8629 984.0444,-630.8153 982.3353,-624.0272"/>
</g>
<!-- u30&#45;&gt;u18 -->
<g id="edge47" class="edge">
<title>u30&#45;&gt;u18</title>
<path fill="none" stroke="#000000" d="M2056.043,-618.8666C2058.4129,-570.9605 2064.8553,-440.7319 2067.7291,-382.6403"/>
<polygon fill="#000000" stroke="#000000" points="2071.2397,-382.5094 2068.2382,-372.3487 2064.2483,-382.1635 2071.2397,-382.5094"/>
</g>
<!-- u32 -->
<g id="node23" class="node">
<title>u32</title>
<ellipse fill="#77ff77" stroke="#000000" stroke-width="0" cx="2145.1459" cy="-1891" rx="46.5926" ry="18"/>
<text text-anchor="middle" x="2145.1459" y="-1887.3" font-family="Times,serif" font-size="14.00" fill="#000000">TrimDocs</text>
</g>
<!-- u20 -->
<g id="node24" class="node">
<title>u20</title>
<ellipse fill="#7777ff" stroke="#000000" stroke-width="0" cx="3098.1459" cy="-1443" rx="50.8918" ry="18"/>
<text text-anchor="middle" x="3098.1459" y="-1439.3" font-family="Times,serif" font-size="14.00" fill="#000000">TimeSpace</text>
</g>
<!-- u21 -->
<g id="node25" class="node">
<title>u21</title>
<ellipse fill="#7777ff" stroke="#000000" stroke-width="0" cx="2843.1459" cy="-1443" rx="81.7856" ry="18"/>
<text text-anchor="middle" x="2843.1459" y="-1439.3" font-family="Times,serif" font-size="14.00" fill="#000000">ExploreTimeSpaces</text>
</g>
<!-- u21&#45;&gt;u4 -->
<g id="edge2" class="edge">
<title>u21&#45;&gt;u4</title>
<path fill="none" stroke="#000000" d="M2794.188,-1428.5191C2780.8979,-1424.6804 2766.4923,-1420.6035 2753.1459,-1417 2151.0131,-1254.4251 1944.2977,-1365.0395 1392.1459,-1075 1365.8225,-1061.1726 1340.8246,-1038.2249 1323.7139,-1020.4442"/>
<polygon fill="#000000" stroke="#000000" points="1325.828,-1017.5827 1316.4308,-1012.6896 1320.7256,-1022.375 1325.828,-1017.5827"/>
</g>
<!-- u21&#45;&gt;u18 -->
<g id="edge42" class="edge">
<title>u21&#45;&gt;u18</title>
<path fill="none" stroke="#000000" d="M2805.2165,-1427.0069C2708.6505,-1384.3963 2451.3917,-1258.7151 2313.1459,-1075 2224.7363,-957.5123 2105.656,-499.4699 2076.0327,-381.72"/>
<polygon fill="#000000" stroke="#000000" points="2079.4245,-380.8562 2073.5982,-372.0072 2072.6345,-382.5581 2079.4245,-380.8562"/>
</g>
<!-- u22&#45;&gt;u1 -->
<g id="edge1" class="edge">
<title>u22&#45;&gt;u1</title>
<path fill="none" stroke="#000000" d="M2066.2629,-1435.9657C1848.1429,-1401.1449 899.4641,-1242.1984 657.1459,-1075 637.9546,-1061.7581 623.221,-1039.6547 613.6945,-1022.033"/>
<polygon fill="#000000" stroke="#000000" points="616.6272,-1020.0825 608.9424,-1012.789 610.4017,-1023.2829 616.6272,-1020.0825"/>
</g>
<!-- u22&#45;&gt;u6 -->
<g id="edge6" class="edge">
<title>u22&#45;&gt;u6</title>
<path fill="none" stroke="#000000" d="M2065.9626,-1436.1591C1909.4688,-1410.8175 1380.3887,-1311.2661 1018.1459,-1075 996.2211,-1060.6999 976.5534,-1038.2938 963.1721,-1020.8273"/>
<polygon fill="#000000" stroke="#000000" points="965.9051,-1018.6373 957.1257,-1012.7068 960.2906,-1022.8178 965.9051,-1018.6373"/>
</g>
<!-- u22&#45;&gt;u18 -->
<g id="edge43" class="edge">
<title>u22&#45;&gt;u18</title>
<path fill="none" stroke="#000000" d="M2111.3452,-1424.8279C2112.2064,-1335.8125 2114.733,-936.9168 2095.1459,-611 2090.1292,-527.5246 2078.6256,-429.2971 2072.7473,-382.1002"/>
<polygon fill="#000000" stroke="#000000" points="2076.2016,-381.5164 2071.4817,-372.031 2069.2562,-382.3894 2076.2016,-381.5164"/>
</g>
<!-- u22&#45;&gt;u30 -->
<g id="edge60" class="edge">
<title>u22&#45;&gt;u30</title>
<path fill="none" stroke="#000000" d="M2109.871,-1424.6512C2102.5704,-1319.5737 2066.0787,-794.3543 2057.1297,-665.5518"/>
<polygon fill="#000000" stroke="#000000" points="2060.6036,-665.0535 2056.4188,-655.3202 2053.6204,-665.5387 2060.6036,-665.0535"/>
</g>
<!-- u23 -->
<g id="node27" class="node">
<title>u23</title>
<ellipse fill="#7777ff" stroke="#000000" stroke-width="0" cx="2713.1459" cy="-1443" rx="30.5947" ry="18"/>
<text text-anchor="middle" x="2713.1459" y="-1439.3" font-family="Times,serif" font-size="14.00" fill="#000000">Index</text>
</g>
<!-- u24 -->
<g id="node28" class="node">
<title>u24</title>
<ellipse fill="#7777ff" stroke="#000000" stroke-width="0" cx="2599.1459" cy="-1443" rx="65.7887" ry="18"/>
<text text-anchor="middle" x="2599.1459" y="-1439.3" font-family="Times,serif" font-size="14.00" fill="#000000">StoredTimeline</text>
</g>
<!-- u25&#45;&gt;u11 -->
<g id="edge12" class="edge">
<title>u25&#45;&gt;u11</title>
<path fill="none" stroke="#000000" d="M2400.9759,-1428.3644C2388.5601,-1424.355 2374.8878,-1420.2287 2362.1459,-1417 1564.3153,-1214.8329 1215.487,-1548.3043 542.1459,-1075 524.0214,-1062.2599 511.806,-1040.1192 504.3816,-1022.3555"/>
<polygon fill="#000000" stroke="#000000" points="507.6369,-1021.0695 500.7427,-1013.0245 501.1153,-1023.6128 507.6369,-1021.0695"/>
</g>
<!-- u25&#45;&gt;u7 -->
<g id="edge9" class="edge">
<title>u25&#45;&gt;u7</title>
<path fill="none" stroke="#000000" d="M2399.0608,-1428.655C2387.0998,-1424.816 2374.1405,-1420.705 2362.1459,-1417 1851.8497,-1259.3744 1680.969,-1327.138 1210.1459,-1075 1183.0358,-1060.4818 1156.5148,-1037.5137 1138.2424,-1019.9045"/>
<polygon fill="#000000" stroke="#000000" points="1140.5241,-1017.2396 1130.9387,-1012.7261 1135.6173,-1022.232 1140.5241,-1017.2396"/>
</g>
<!-- u25&#45;&gt;u18 -->
<g id="edge44" class="edge">
<title>u25&#45;&gt;u18</title>
<path fill="none" stroke="#000000" d="M2431.0866,-1425.0727C2396.6745,-1373.155 2296.9699,-1217.3166 2242.1459,-1075 2142.126,-815.3601 2087.6757,-480.1712 2073.1465,-382.1025"/>
<polygon fill="#000000" stroke="#000000" points="2076.5923,-381.4771 2071.6805,-372.0896 2069.6662,-382.4912 2076.5923,-381.4771"/>
</g>
<!-- u25&#45;&gt;u30 -->
<g id="edge61" class="edge">
<title>u25&#45;&gt;u30</title>
<path fill="none" stroke="#000000" d="M2421.8767,-1425.7579C2363.8305,-1377.3821 2202.1069,-1233.5191 2128.1459,-1075 2093.6407,-1001.0456 2066.2787,-749.8335 2057.8455,-665.1419"/>
<polygon fill="#000000" stroke="#000000" points="2061.3094,-664.6028 2056.8466,-654.9938 2054.3431,-665.2886 2061.3094,-664.6028"/>
</g>
<!-- u26 -->
<g id="node30" class="node">
<title>u26</title>
<ellipse fill="#7777ff" stroke="#000000" stroke-width="0" cx="2322.1459" cy="-1443" rx="31.3957" ry="18"/>
<text text-anchor="middle" x="2322.1459" y="-1439.3" font-family="Times,serif" font-size="14.00" fill="#000000">Event</text>
</g>
<!-- u27 -->
<g id="node31" class="node">
<title>u27</title>
<ellipse fill="#7777ff" stroke="#000000" stroke-width="0" cx="2225.1459" cy="-1443" rx="47.3916" ry="18"/>
<text text-anchor="middle" x="2225.1459" y="-1439.3" font-family="Times,serif" font-size="14.00" fill="#000000">TimeSpan</text>
</g>
<!-- u28&#45;&gt;u16 -->
<g id="edge34" class="edge">
<title>u28&#45;&gt;u16</title>
<path fill="none" stroke="#000000" d="M2369.7293,-1013.1787C2372.7451,-1060.8047 2373.3679,-1189.4283 2299.1459,-1246 2135.9286,-1370.4037 613.0081,-1373.4343 452.1459,-1246 384.3591,-1192.2996 385.2826,-1076.7056 389.8163,-1023.2161"/>
<polygon fill="#000000" stroke="#000000" points="393.3172,-1023.3732 390.7835,-1013.0858 386.3489,-1022.7078 393.3172,-1023.3732"/>
</g>
<!-- u28&#45;&gt;u18 -->
<g id="edge45" class="edge">
<title>u28&#45;&gt;u18</title>
<path fill="none" stroke="#000000" d="M2368.9628,-976.6783C2370.7733,-919.4212 2370.7796,-739.9824 2308.1459,-611 2257.8483,-507.4215 2151.5693,-416.7167 2099.3692,-376.323"/>
<polygon fill="#000000" stroke="#000000" points="2101.2416,-373.3487 2091.173,-370.0511 2096.9876,-378.9078 2101.2416,-373.3487"/>
</g>
<!-- u28&#45;&gt;u30 -->
<g id="edge62" class="edge">
<title>u28&#45;&gt;u30</title>
<path fill="none" stroke="#000000" d="M2353.0493,-977.7329C2301.8869,-919.2149 2134.977,-728.3084 2076.0105,-660.8643"/>
<polygon fill="#000000" stroke="#000000" points="2078.5867,-658.4933 2069.3696,-653.2686 2073.3168,-663.1008 2078.5867,-658.4933"/>
</g>
<!-- u29 -->
<g id="node33" class="node">
<title>u29</title>
<ellipse fill="#7777ff" stroke="#000000" stroke-width="0" cx="2986.1459" cy="-1443" rx="42.7926" ry="18"/>
<text text-anchor="middle" x="2986.1459" y="-1439.3" font-family="Times,serif" font-size="14.00" fill="#000000">Timeline</text>
</g>
<!-- u29&#45;&gt;u10 -->
<g id="edge10" class="edge">
<title>u29&#45;&gt;u10</title>
<path fill="none" stroke="#000000" d="M2959.8587,-1428.6595C2951.7553,-1424.5667 2942.7093,-1420.3213 2934.1459,-1417 2414.7107,-1215.5377 2218.1334,-1340.1645 1728.1459,-1075 1701.7587,-1060.7202 1676.3865,-1037.7265 1658.9954,-1020.047"/>
<polygon fill="#000000" stroke="#000000" points="1661.5089,-1017.6113 1652.051,-1012.8363 1656.4669,-1022.467 1661.5089,-1017.6113"/>
</g>
<!-- u29&#45;&gt;u16 -->
<g id="edge35" class="edge">
<title>u29&#45;&gt;u16</title>
<path fill="none" stroke="#000000" d="M2960.9191,-1428.311C2952.6284,-1424.0546 2943.2098,-1419.8042 2934.1459,-1417 1866.5751,-1086.7097 1381.3542,-1682.095 443.1459,-1075 424.1183,-1062.6877 411.0521,-1040.3121 403.062,-1022.3494"/>
<polygon fill="#000000" stroke="#000000" points="406.2108,-1020.8059 399.1396,-1012.9161 399.7473,-1023.4935 406.2108,-1020.8059"/>
</g>
<!-- u29&#45;&gt;u18 -->
<g id="edge46" class="edge">
<title>u29&#45;&gt;u18</title>
<path fill="none" stroke="#000000" d="M2959.1761,-1428.956C2836.6274,-1365.0528 2337.1735,-1103.6215 2313.1459,-1075 2218.6067,-962.3859 2104.0534,-500.7441 2075.7184,-381.9699"/>
<polygon fill="#000000" stroke="#000000" points="2079.1074,-381.0923 2073.3914,-372.1717 2072.2968,-382.7098 2079.1074,-381.0923"/>
</g>
<!-- u29&#45;&gt;u30 -->
<g id="edge63" class="edge">
<title>u29&#45;&gt;u30</title>
<path fill="none" stroke="#000000" d="M2958.3615,-1429.0781C2950.5335,-1425.1638 2942.0092,-1420.9089 2934.1459,-1417 2626.9434,-1264.2877 2477.9062,-1324.2218 2242.1459,-1075 2124.6254,-950.7692 2074.9377,-741.3766 2060.1857,-665.5207"/>
<polygon fill="#000000" stroke="#000000" points="2063.5548,-664.5 2058.2587,-655.3238 2056.6765,-665.7998 2063.5548,-664.5"/>
</g>
<!-- u29&#45;&gt;u28 -->
<g id="edge53" class="edge">
<title>u29&#45;&gt;u28</title>
<path fill="none" stroke="#000000" d="M2964.5133,-1427.3181C2871.64,-1359.9925 2506.5403,-1095.3247 2398.4513,-1016.969"/>
<polygon fill="#000000" stroke="#000000" points="2400.3964,-1014.0561 2390.2458,-1011.0206 2396.2879,-1019.7236 2400.3964,-1014.0561"/>
</g>
</g>
</svg>
