<?xml version="1.0" encoding="UTF-8" standalone="no"?>
<!DOCTYPE svg PUBLIC "-//W3C//DTD SVG 1.1//EN"
 "http://www.w3.org/Graphics/SVG/1.1/DTD/svg11.dtd">
<!-- Generated by graphviz version 2.40.1 (20161225.0304)
 -->
<!-- Title: Modules Pages: 1 -->
<svg width="864pt" height="568pt"
 viewBox="0.00 0.00 864.00 568.41" xmlns="http://www.w3.org/2000/svg" xmlns:xlink="http://www.w3.org/1999/xlink">
<g id="graph0" class="graph" transform="scale(.3953 .3953) rotate(0) translate(4 1434)">
<title>Modules</title>
<polygon fill="#ffffff" stroke="transparent" points="-4,4 -4,-1434 2181.8092,-1434 2181.8092,4 -4,4"/>
<g id="clust1" class="cluster">
<title>cluster_0</title>
<polygon fill="#000000" fill-opacity="0.058824" stroke="#000000" stroke-opacity="0.058824" points="575,-337.0537 575,-805.4593 2013,-805.4593 2013,-337.0537 575,-337.0537"/>
<text text-anchor="middle" x="1294" y="-790.2593" font-family="Times,serif" font-size="14.00" fill="#000000">Components</text>
</g>
<g id="clust2" class="cluster">
<title>cluster_1</title>
<polygon fill="#000000" fill-opacity="0.058824" stroke="#000000" stroke-opacity="0.058824" points="893,-542.7556 893,-728.6308 1689,-728.6308 1689,-542.7556 893,-542.7556"/>
<text text-anchor="middle" x="1291" y="-713.4308" font-family="Times,serif" font-size="14.00" fill="#000000">Dialogs</text>
</g>
<g id="clust3" class="cluster">
<title>cluster_2</title>
<polygon fill="#000000" fill-opacity="0.058824" stroke="#000000" stroke-opacity="0.058824" points="1697,-542.7556 1697,-728.6308 2005,-728.6308 2005,-542.7556 1697,-542.7556"/>
<text text-anchor="middle" x="1851" y="-713.4308" font-family="Times,serif" font-size="14.00" fill="#000000">Drawers</text>
</g>
<g id="clust4" class="cluster">
<title>cluster_3</title>
<polygon fill="#000000" fill-opacity="0.058824" stroke="#000000" stroke-opacity="0.058824" points="461,-158.6135 461,-522.9289 567,-522.9289 567,-158.6135 461,-158.6135"/>
<text text-anchor="middle" x="514" y="-507.7289" font-family="Times,serif" font-size="14.00" fill="#000000">Plumbing</text>
</g>
<g id="clust5" class="cluster">
<title>cluster_4</title>
<polygon fill="#000000" fill-opacity="0.058824" stroke="#000000" stroke-opacity="0.058824" points="1666,-1147.4697 1666,-1333.3449 1776,-1333.3449 1776,-1147.4697 1666,-1147.4697"/>
<text text-anchor="middle" x="1721" y="-1318.1449" font-family="Times,serif" font-size="14.00" fill="#000000">Scripts</text>
</g>
<g id="clust6" class="cluster">
<title>cluster_5</title>
<polygon fill="#000000" fill-opacity="0.058824" stroke="#000000" stroke-opacity="0.058824" points="507,-1127.643 507,-1410.1733 645,-1410.1733 645,-1127.643 507,-1127.643"/>
<text text-anchor="middle" x="576" y="-1394.9733" font-family="Times,serif" font-size="14.00" fill="#000000">Test</text>
</g>
<g id="clust7" class="cluster">
<title>cluster_6</title>
<polygon fill="#000000" fill-opacity="0.058824" stroke="#000000" stroke-opacity="0.058824" points="515,-1147.4697 515,-1333.3449 637,-1333.3449 637,-1147.4697 515,-1147.4697"/>
<text text-anchor="middle" x="576" y="-1318.1449" font-family="Times,serif" font-size="14.00" fill="#000000">QuickCheck</text>
</g>
<g id="clust8" class="cluster">
<title>cluster_7</title>
<polygon fill="#000000" fill-opacity="0.058824" stroke="#000000" stroke-opacity="0.058824" points="8,-825.286 8,-1107.8163 944,-1107.8163 944,-825.286 8,-825.286"/>
<text text-anchor="middle" x="476" y="-1092.6163" font-family="Times,serif" font-size="14.00" fill="#000000">Timeline</text>
</g>
<g id="clust9" class="cluster">
<title>cluster_8</title>
<polygon fill="#000000" fill-opacity="0.058824" stroke="#000000" stroke-opacity="0.058824" points="16,-845.1127 16,-1030.9879 936,-1030.9879 936,-845.1127 16,-845.1127"/>
<text text-anchor="middle" x="476" y="-1015.7879" font-family="Times,serif" font-size="14.00" fill="#000000">Data</text>
</g>
<!-- u14 -->
<g id="node1" class="node">
<title>u14</title>
<ellipse fill="#bbffbb" stroke="#000000" stroke-width="0" cx="1405" cy="-1212" rx="38.9931" ry="18"/>
<text text-anchor="middle" x="1405" y="-1208.3" font-family="Times,serif" font-size="14.00" fill="#000000">Settings</text>
</g>
<!-- u8 -->
<g id="node5" class="node">
<title>u8</title>
<ellipse fill="#ffffbb" stroke="#000000" stroke-width="0" cx="845" cy="-607" rx="37.8943" ry="18"/>
<text text-anchor="middle" x="845" y="-603.3" font-family="Times,serif" font-size="14.00" fill="#000000">TopBar</text>
</g>
<!-- u14&#45;&gt;u8 -->
<g id="edge7" class="edge">
<title>u14&#45;&gt;u8</title>
<path fill="none" stroke="#000000" d="M1385.7594,-1195.9249C1313.7431,-1135.0854 1055.7169,-911.0126 889,-687 876.6959,-670.4673 865.5405,-650.0928 857.5406,-634.0432"/>
<polygon fill="#000000" stroke="#000000" points="860.5081,-632.1424 852.9853,-624.6819 854.2138,-635.2053 860.5081,-632.1424"/>
</g>
<!-- u9 -->
<g id="node6" class="node">
<title>u9</title>
<ellipse fill="#ffffbb" stroke="#000000" stroke-width="0" cx="1332" cy="-401" rx="30.5947" ry="18"/>
<text text-anchor="middle" x="1332" y="-397.3" font-family="Times,serif" font-size="14.00" fill="#000000">Index</text>
</g>
<!-- u14&#45;&gt;u9 -->
<g id="edge22" class="edge">
<title>u14&#45;&gt;u9</title>
<path fill="none" stroke="#000000" d="M1427.4826,-1197.2198C1478.8672,-1163.0716 1608.0966,-1075.0918 1707,-990 1851.1312,-865.9963 1936.3843,-862.7204 2009,-687 2026.9927,-643.4601 2037.7155,-618.348 2009,-581 1929.3368,-477.3883 1506.2388,-420.8773 1372.5324,-405.4118"/>
<polygon fill="#000000" stroke="#000000" points="1372.6515,-401.9027 1362.3189,-404.2455 1371.8572,-408.8575 1372.6515,-401.9027"/>
</g>
<!-- u3 -->
<g id="node10" class="node">
<title>u3</title>
<ellipse fill="#bbbbff" stroke="#000000" stroke-width="0" cx="1468" cy="-607" rx="53.8905" ry="18"/>
<text text-anchor="middle" x="1468" y="-603.3" font-family="Times,serif" font-size="14.00" fill="#000000">SettingsEdit</text>
</g>
<!-- u14&#45;&gt;u3 -->
<g id="edge2" class="edge">
<title>u14&#45;&gt;u3</title>
<path fill="none" stroke="#000000" d="M1406.8855,-1193.8936C1415.843,-1107.8732 1454.1182,-740.309 1465.0649,-635.1863"/>
<polygon fill="#000000" stroke="#000000" points="1468.5673,-635.3446 1466.1219,-625.0358 1461.6049,-634.6195 1468.5673,-635.3446"/>
</g>
<!-- u4 -->
<g id="node11" class="node">
<title>u4</title>
<ellipse fill="#bbbbff" stroke="#000000" stroke-width="0" cx="1332" cy="-607" rx="63.8893" ry="18"/>
<text text-anchor="middle" x="1332" y="-603.3" font-family="Times,serif" font-size="14.00" fill="#000000">TimeScaleEdit</text>
</g>
<!-- u14&#45;&gt;u4 -->
<g id="edge3" class="edge">
<title>u14&#45;&gt;u4</title>
<path fill="none" stroke="#000000" d="M1402.8153,-1193.8936C1392.4359,-1107.8732 1348.0852,-740.309 1335.401,-635.1863"/>
<polygon fill="#000000" stroke="#000000" points="1338.849,-634.5445 1334.1762,-625.0358 1331.8994,-635.3831 1338.849,-634.5445"/>
</g>
<!-- u5 -->
<g id="node12" class="node">
<title>u5</title>
<ellipse fill="#bbbbff" stroke="#000000" stroke-width="0" cx="1163" cy="-607" rx="87.1846" ry="18"/>
<text text-anchor="middle" x="1163" y="-603.3" font-family="Times,serif" font-size="14.00" fill="#000000">TimeSpaceNameEdit</text>
</g>
<!-- u14&#45;&gt;u5 -->
<g id="edge5" class="edge">
<title>u14&#45;&gt;u5</title>
<path fill="none" stroke="#000000" d="M1397.8885,-1194.2211C1363.6615,-1108.6539 1215.8356,-739.0889 1174.0436,-634.609"/>
<polygon fill="#000000" stroke="#000000" points="1177.1931,-633.0586 1170.2295,-625.0737 1170.6938,-635.6584 1177.1931,-633.0586"/>
</g>
<!-- u11 -->
<g id="node15" class="node">
<title>u11</title>
<ellipse fill="#ffbbbb" stroke="#000000" stroke-width="0" cx="1957" cy="-607" rx="39.7935" ry="18"/>
<text text-anchor="middle" x="1957" y="-603.3" font-family="Times,serif" font-size="14.00" fill="#000000">Siblings</text>
</g>
<!-- u14&#45;&gt;u11 -->
<g id="edge25" class="edge">
<title>u14&#45;&gt;u11</title>
<path fill="none" stroke="#000000" d="M1423.5552,-1195.701C1493.0444,-1134.0662 1742.3656,-907.5338 1908,-687 1920.7552,-670.0171 1933.2303,-649.5774 1942.4009,-633.6094"/>
<polygon fill="#000000" stroke="#000000" points="1945.516,-635.2112 1947.3956,-624.7845 1939.424,-631.7633 1945.516,-635.2112"/>
</g>
<!-- u12 -->
<g id="node16" class="node">
<title>u12</title>
<ellipse fill="#ffbbbb" stroke="#000000" stroke-width="0" cx="1747" cy="-607" rx="41.6928" ry="18"/>
<text text-anchor="middle" x="1747" y="-603.3" font-family="Times,serif" font-size="14.00" fill="#000000">Children</text>
</g>
<!-- u14&#45;&gt;u12 -->
<g id="edge26" class="edge">
<title>u14&#45;&gt;u12</title>
<path fill="none" stroke="#000000" d="M1414.8666,-1194.546C1463.0836,-1109.2498 1673.9537,-736.2193 1732.1035,-633.352"/>
<polygon fill="#000000" stroke="#000000" points="1735.2192,-634.9526 1737.0934,-624.5248 1729.1254,-631.5078 1735.2192,-634.9526"/>
</g>
<!-- u13 -->
<g id="node17" class="node">
<title>u13</title>
<ellipse fill="#ffbbbb" stroke="#000000" stroke-width="0" cx="1853" cy="-607" rx="46.2923" ry="18"/>
<text text-anchor="middle" x="1853" y="-603.3" font-family="Times,serif" font-size="14.00" fill="#000000">Timelines</text>
</g>
<!-- u14&#45;&gt;u13 -->
<g id="edge27" class="edge">
<title>u14&#45;&gt;u13</title>
<path fill="none" stroke="#000000" d="M1418.1834,-1194.9919C1468.5465,-1129.8927 1653.2371,-890.0135 1798,-687 1810.6791,-669.219 1824.613,-648.9434 1835.2835,-633.2534"/>
<polygon fill="#000000" stroke="#000000" points="1838.4371,-634.8391 1841.1548,-624.5988 1832.6443,-630.9093 1838.4371,-634.8391"/>
</g>
<!-- u15 -->
<g id="node18" class="node">
<title>u15</title>
<ellipse fill="#bbffbb" stroke="#000000" stroke-width="2" cx="514" cy="-223" rx="45.4919" ry="18"/>
<text text-anchor="middle" x="514" y="-219.3" font-family="Times,serif" font-size="14.00" fill="#000000">Plumbing</text>
</g>
<!-- u14&#45;&gt;u15 -->
<g id="edge31" class="edge">
<title>u14&#45;&gt;u15</title>
<path fill="none" stroke="#000000" d="M1437.8326,-1202.1824C1562.6195,-1162.8007 2007.7488,-1002.9559 2154,-687 2217.6172,-549.5636 2146.7131,-453.1691 2017,-375 1890.7102,-298.8939 826.4759,-239.2043 569.6233,-225.818"/>
<polygon fill="#000000" stroke="#000000" points="569.5803,-222.3111 559.4123,-225.2881 569.2174,-229.3017 569.5803,-222.3111"/>
</g>
<!-- u26 -->
<g id="node19" class="node">
<title>u26</title>
<ellipse fill="#bbffff" stroke="#000000" stroke-width="0" cx="528" cy="-401" rx="31.3957" ry="18"/>
<text text-anchor="middle" x="528" y="-397.3" font-family="Times,serif" font-size="14.00" fill="#000000">Logic</text>
</g>
<!-- u14&#45;&gt;u26 -->
<g id="edge44" class="edge">
<title>u14&#45;&gt;u26</title>
<path fill="none" stroke="#000000" d="M1379.029,-1198.1977C1319.0108,-1165.7552 1167.1746,-1080.5281 1054,-990 998.0452,-945.2419 997.9243,-918.1782 940,-876 791.0447,-767.5365 678.5616,-836.6078 571,-687 541.5608,-646.0529 531.8462,-493.2687 529.0276,-429.373"/>
<polygon fill="#000000" stroke="#000000" points="532.5177,-429.0609 528.6052,-419.215 525.5238,-429.3518 532.5177,-429.0609"/>
</g>
<!-- u19 -->
<g id="node23" class="node">
<title>u19</title>
<ellipse fill="#ff7777" stroke="#000000" stroke-width="0" cx="760" cy="-910" rx="48.9926" ry="18"/>
<text text-anchor="middle" x="760" y="-906.3" font-family="Times,serif" font-size="14.00" fill="#000000">TimeScale</text>
</g>
<!-- u14&#45;&gt;u19 -->
<g id="edge37" class="edge">
<title>u14&#45;&gt;u19</title>
<path fill="none" stroke="#000000" d="M1368.2871,-1205.8632C1269.9484,-1187.9145 995.9387,-1127.8367 817,-990 798.6473,-975.8629 783.7219,-954.2029 773.7543,-936.9846"/>
<polygon fill="#000000" stroke="#000000" points="776.6523,-934.994 768.7365,-927.9519 770.5331,-938.3933 776.6523,-934.994"/>
</g>
<!-- u22 -->
<g id="node26" class="node">
<title>u22</title>
<ellipse fill="#ff7777" stroke="#000000" stroke-width="0" cx="393" cy="-910" rx="72.2875" ry="18"/>
<text text-anchor="middle" x="393" y="-906.3" font-family="Times,serif" font-size="14.00" fill="#000000">TimeSpaceName</text>
</g>
<!-- u14&#45;&gt;u22 -->
<g id="edge39" class="edge">
<title>u14&#45;&gt;u22</title>
<path fill="none" stroke="#000000" d="M1365.9779,-1210.1356C1232.7942,-1202.2913 787.1011,-1163.755 474,-990 449.5714,-976.4434 427.4247,-953.4675 412.4876,-935.6072"/>
<polygon fill="#000000" stroke="#000000" points="415.1743,-933.3636 406.1496,-927.8133 409.7434,-937.78 415.1743,-933.3636"/>
</g>
<!-- u17 -->
<g id="node2" class="node">
<title>u17</title>
<ellipse fill="#bbffbb" stroke="#000000" stroke-width="0" cx="550" cy="-45" rx="29.795" ry="18"/>
<text text-anchor="middle" x="550" y="-41.3" font-family="Times,serif" font-size="14.00" fill="#000000">Main</text>
</g>
<!-- u27 -->
<g id="node3" class="node">
<title>u27</title>
<ellipse fill="#bbffbb" stroke="#000000" stroke-width="0" cx="2099" cy="-607" rx="46.2923" ry="18"/>
<text text-anchor="middle" x="2099" y="-603.3" font-family="Times,serif" font-size="14.00" fill="#000000">WithRoot</text>
</g>
<!-- u27&#45;&gt;u9 -->
<g id="edge24" class="edge">
<title>u27&#45;&gt;u9</title>
<path fill="none" stroke="#000000" d="M2069.4602,-593.0856C2059.8708,-588.8706 2049.0988,-584.449 2039,-581 1789.8933,-495.924 1479.2879,-430.3499 1371.2169,-408.6844"/>
<polygon fill="#000000" stroke="#000000" points="1371.5957,-405.1911 1361.1042,-406.667 1370.2262,-412.0558 1371.5957,-405.1911"/>
</g>
<!-- u0 -->
<g id="node4" class="node">
<title>u0</title>
<ellipse fill="#ffffbb" stroke="#000000" stroke-width="0" cx="739" cy="-607" rx="50.0912" ry="18"/>
<text text-anchor="middle" x="739" y="-603.3" font-family="Times,serif" font-size="14.00" fill="#000000">BottomBar</text>
</g>
<!-- u0&#45;&gt;u9 -->
<g id="edge9" class="edge">
<title>u0&#45;&gt;u9</title>
<path fill="none" stroke="#000000" d="M770.0131,-592.7079C778.9751,-588.7486 788.8166,-584.5629 798,-581 982.0256,-509.6029 1207.6729,-438.9393 1295.0277,-412.2013"/>
<polygon fill="#000000" stroke="#000000" points="1296.2006,-415.5028 1304.7423,-409.2346 1294.156,-408.808 1296.2006,-415.5028"/>
</g>
<!-- u8&#45;&gt;u9 -->
<g id="edge17" class="edge">
<title>u8&#45;&gt;u9</title>
<path fill="none" stroke="#000000" d="M867.9366,-592.5816C874.6171,-588.6203 882.0029,-584.4652 889,-581 1035.665,-508.3668 1219.1638,-440.8521 1295.7814,-413.6489"/>
<polygon fill="#000000" stroke="#000000" points="1297.1815,-416.8662 1305.442,-410.2318 1294.8472,-410.2669 1297.1815,-416.8662"/>
</g>
<!-- u9&#45;&gt;u17 -->
<g id="edge35" class="edge">
<title>u9&#45;&gt;u17</title>
<path fill="none" stroke="#000000" d="M1307.7388,-389.9553C1194.0584,-338.203 714.1283,-119.7183 583.1451,-60.0891"/>
<polygon fill="#000000" stroke="#000000" points="584.5297,-56.8738 573.9783,-55.9159 581.6294,-63.2447 584.5297,-56.8738"/>
</g>
<!-- u10 -->
<g id="node7" class="node">
<title>u10</title>
<ellipse fill="#ffffbb" stroke="#000000" stroke-width="0" cx="627" cy="-607" rx="43.5923" ry="18"/>
<text text-anchor="middle" x="627" y="-603.3" font-family="Times,serif" font-size="14.00" fill="#000000">Snackbar</text>
</g>
<!-- u10&#45;&gt;u9 -->
<g id="edge18" class="edge">
<title>u10&#45;&gt;u9</title>
<path fill="none" stroke="#000000" d="M653.8032,-592.6444C662.0628,-588.5511 671.2803,-584.3092 680,-581 906.3503,-495.098 1190.9976,-430.8125 1293.235,-409.0408"/>
<polygon fill="#000000" stroke="#000000" points="1294.0554,-412.4447 1303.1133,-406.9489 1292.6051,-405.5966 1294.0554,-412.4447"/>
</g>
<!-- u10&#45;&gt;u15 -->
<g id="edge30" class="edge">
<title>u10&#45;&gt;u15</title>
<path fill="none" stroke="#000000" d="M622.9733,-588.7937C614.1418,-549.4578 591.9398,-453.7291 568,-375 554.6047,-330.9479 536.1418,-280.7838 524.6458,-250.5289"/>
<polygon fill="#000000" stroke="#000000" points="527.8702,-249.1616 521.0316,-241.0694 521.3312,-251.66 527.8702,-249.1616"/>
</g>
<!-- u10&#45;&gt;u26 -->
<g id="edge43" class="edge">
<title>u10&#45;&gt;u26</title>
<path fill="none" stroke="#000000" d="M618.3876,-589.0792C600.9302,-552.7537 561.296,-470.2825 540.8029,-427.6405"/>
<polygon fill="#000000" stroke="#000000" points="543.8682,-425.9384 536.382,-418.4413 537.559,-428.9706 543.8682,-425.9384"/>
</g>
<!-- u1 -->
<g id="node8" class="node">
<title>u1</title>
<ellipse fill="#bbbbff" stroke="#000000" stroke-width="0" cx="1574" cy="-607" rx="34.394" ry="18"/>
<text text-anchor="middle" x="1574" y="-603.3" font-family="Times,serif" font-size="14.00" fill="#000000">EULA</text>
</g>
<!-- u1&#45;&gt;u9 -->
<g id="edge10" class="edge">
<title>u1&#45;&gt;u9</title>
<path fill="none" stroke="#000000" d="M1555.8107,-591.5165C1513.1035,-555.1625 1406.3348,-464.2767 1357.3208,-422.5541"/>
<polygon fill="#000000" stroke="#000000" points="1359.3012,-419.6435 1349.4177,-415.8267 1354.7638,-424.9738 1359.3012,-419.6435"/>
</g>
<!-- u2 -->
<g id="node9" class="node">
<title>u2</title>
<ellipse fill="#bbbbff" stroke="#000000" stroke-width="0" cx="1023" cy="-607" rx="35.194" ry="18"/>
<text text-anchor="middle" x="1023" y="-603.3" font-family="Times,serif" font-size="14.00" fill="#000000">Import</text>
</g>
<!-- u2&#45;&gt;u9 -->
<g id="edge11" class="edge">
<title>u2&#45;&gt;u9</title>
<path fill="none" stroke="#000000" d="M1044.7283,-592.5145C1099.1967,-556.2022 1241.5847,-461.2769 1303.0543,-420.2972"/>
<polygon fill="#000000" stroke="#000000" points="1305.1373,-423.115 1311.5163,-414.6558 1301.2543,-417.2906 1305.1373,-423.115"/>
</g>
<!-- u2&#45;&gt;u15 -->
<g id="edge28" class="edge">
<title>u2&#45;&gt;u15</title>
<path fill="none" stroke="#000000" d="M1012.4726,-589.6882C986.3574,-547.9391 914.6297,-440.3467 831,-375 744.7703,-307.6217 623.8305,-260.0638 559.0985,-237.6136"/>
<polygon fill="#000000" stroke="#000000" points="560.1808,-234.2847 549.5862,-234.3553 557.9124,-240.907 560.1808,-234.2847"/>
</g>
<!-- u2&#45;&gt;u26 -->
<g id="edge41" class="edge">
<title>u2&#45;&gt;u26</title>
<path fill="none" stroke="#000000" d="M1000.4509,-593.126C993.3783,-589.0052 985.4666,-584.6272 978,-581 828.7876,-508.5145 642.5134,-440.92 564.7544,-413.6723"/>
<polygon fill="#000000" stroke="#000000" points="565.545,-410.2412 554.9502,-410.2494 563.2377,-416.85 565.545,-410.2412"/>
</g>
<!-- u3&#45;&gt;u9 -->
<g id="edge12" class="edge">
<title>u3&#45;&gt;u9</title>
<path fill="none" stroke="#000000" d="M1456.1688,-589.0792C1431.9655,-552.4183 1376.7321,-468.7559 1348.815,-426.4697"/>
<polygon fill="#000000" stroke="#000000" points="1351.5644,-424.2817 1343.134,-417.8647 1345.7227,-428.1384 1351.5644,-424.2817"/>
</g>
<!-- u4&#45;&gt;u9 -->
<g id="edge13" class="edge">
<title>u4&#45;&gt;u9</title>
<path fill="none" stroke="#000000" d="M1332,-588.7189C1332,-552.6809 1332,-472.2473 1332,-429.3011"/>
<polygon fill="#000000" stroke="#000000" points="1335.5001,-429.2401 1332,-419.2402 1328.5001,-429.2402 1335.5001,-429.2401"/>
</g>
<!-- u5&#45;&gt;u9 -->
<g id="edge14" class="edge">
<title>u5&#45;&gt;u9</title>
<path fill="none" stroke="#000000" d="M1177.702,-589.0792C1208.1179,-552.0042 1277.9693,-466.8599 1312.2674,-425.0527"/>
<polygon fill="#000000" stroke="#000000" points="1314.9941,-427.2474 1318.6308,-417.2962 1309.5822,-422.8075 1314.9941,-427.2474"/>
</g>
<!-- u6 -->
<g id="node13" class="node">
<title>u6</title>
<ellipse fill="#bbbbff" stroke="#000000" stroke-width="0" cx="935" cy="-607" rx="34.394" ry="18"/>
<text text-anchor="middle" x="935" y="-603.3" font-family="Times,serif" font-size="14.00" fill="#000000">Export</text>
</g>
<!-- u6&#45;&gt;u9 -->
<g id="edge15" class="edge">
<title>u6&#45;&gt;u9</title>
<path fill="none" stroke="#000000" d="M957.6818,-593.2335C964.4863,-589.2024 972.0021,-584.8469 979,-581 1095.1145,-517.1696 1236.3328,-447.4933 1299.1474,-416.9019"/>
<polygon fill="#000000" stroke="#000000" points="1300.725,-420.0267 1308.1873,-412.5058 1297.6636,-413.7316 1300.725,-420.0267"/>
</g>
<!-- u6&#45;&gt;u15 -->
<g id="edge29" class="edge">
<title>u6&#45;&gt;u15</title>
<path fill="none" stroke="#000000" d="M927.3101,-589.2295C908.4862,-547.3955 856.4377,-441.2464 786,-375 716.7138,-309.8366 614.2916,-262.4819 556.9355,-239.2126"/>
<polygon fill="#000000" stroke="#000000" points="558.0334,-235.8821 547.4487,-235.4171 555.4331,-242.3813 558.0334,-235.8821"/>
</g>
<!-- u6&#45;&gt;u26 -->
<g id="edge42" class="edge">
<title>u6&#45;&gt;u26</title>
<path fill="none" stroke="#000000" d="M914.4488,-592.1339C908.8902,-588.3369 902.8038,-584.3768 897,-581 778.3336,-511.9571 629.346,-444.912 562.8403,-415.9432"/>
<polygon fill="#000000" stroke="#000000" points="563.8322,-412.5583 553.2655,-411.7878 561.0454,-418.9797 563.8322,-412.5583"/>
</g>
<!-- u7 -->
<g id="node14" class="node">
<title>u7</title>
<ellipse fill="#bbbbff" stroke="#000000" stroke-width="0" cx="1654" cy="-607" rx="27.0966" ry="18"/>
<text text-anchor="middle" x="1654" y="-603.3" font-family="Times,serif" font-size="14.00" fill="#000000">New</text>
</g>
<!-- u7&#45;&gt;u9 -->
<g id="edge16" class="edge">
<title>u7&#45;&gt;u9</title>
<path fill="none" stroke="#000000" d="M1635.3008,-593.5925C1629.479,-589.4907 1623.0101,-585.0061 1617,-581 1525.3556,-519.9137 1414.4273,-451.3614 1362.0983,-419.3349"/>
<polygon fill="#000000" stroke="#000000" points="1363.6808,-416.2002 1353.3232,-413.9707 1360.0298,-422.1727 1363.6808,-416.2002"/>
</g>
<!-- u11&#45;&gt;u9 -->
<g id="edge19" class="edge">
<title>u11&#45;&gt;u9</title>
<path fill="none" stroke="#000000" d="M1932.252,-592.7267C1924.6169,-588.6362 1916.0876,-584.3752 1908,-581 1711.5949,-499.0332 1464.2128,-433.8126 1370.4175,-410.3713"/>
<polygon fill="#000000" stroke="#000000" points="1371.0764,-406.9287 1360.5274,-407.9125 1369.3875,-413.7219 1371.0764,-406.9287"/>
</g>
<!-- u12&#45;&gt;u9 -->
<g id="edge20" class="edge">
<title>u12&#45;&gt;u9</title>
<path fill="none" stroke="#000000" d="M1719.4493,-593.3242C1645.69,-556.7112 1443.9664,-456.5785 1364.6492,-417.2066"/>
<polygon fill="#000000" stroke="#000000" points="1366.1134,-414.026 1355.6,-412.7147 1363.001,-420.296 1366.1134,-414.026"/>
</g>
<!-- u13&#45;&gt;u9 -->
<g id="edge21" class="edge">
<title>u13&#45;&gt;u9</title>
<path fill="none" stroke="#000000" d="M1824.0653,-592.8372C1815.7105,-588.88 1806.5421,-584.663 1798,-581 1639.5791,-513.066 1446.2649,-442.1214 1367.7244,-413.7877"/>
<polygon fill="#000000" stroke="#000000" points="1368.8829,-410.4849 1358.2885,-410.3896 1366.5111,-417.0708 1368.8829,-410.4849"/>
</g>
<!-- u15&#45;&gt;u17 -->
<g id="edge36" class="edge">
<title>u15&#45;&gt;u17</title>
<path fill="none" stroke="#000000" d="M517.65,-204.9528C523.93,-173.9016 536.8231,-110.1524 544.297,-73.198"/>
<polygon fill="#000000" stroke="#000000" points="547.7885,-73.5903 546.3404,-63.0949 540.9274,-72.2026 547.7885,-73.5903"/>
</g>
<!-- u15&#45;&gt;u9 -->
<g id="edge23" class="edge">
<title>u15&#45;&gt;u9</title>
<path fill="none" stroke="#000000" d="M554.2531,-231.7592C693.6794,-262.0989 1154.9721,-362.478 1292.786,-392.4669"/>
<polygon fill="#000000" stroke="#000000" points="1292.3714,-395.9585 1302.8869,-394.6649 1293.8598,-389.1186 1292.3714,-395.9585"/>
</g>
<!-- u26&#45;&gt;u15 -->
<g id="edge34" class="edge">
<title>u26&#45;&gt;u15</title>
<path fill="none" stroke="#000000" d="M526.5806,-382.9528C524.1383,-351.9016 519.1243,-288.1524 516.2178,-251.198"/>
<polygon fill="#000000" stroke="#000000" points="519.6966,-250.7897 515.4232,-241.0949 512.7182,-251.3386 519.6966,-250.7897"/>
</g>
<!-- u28 -->
<g id="node20" class="node">
<title>u28</title>
<ellipse fill="#ffbbff" stroke="#000000" stroke-width="0" cx="1721" cy="-1212" rx="46.5926" ry="18"/>
<text text-anchor="middle" x="1721" y="-1208.3" font-family="Times,serif" font-size="14.00" fill="#000000">TrimDocs</text>
</g>
<!-- u16 -->
<g id="node21" class="node">
<title>u16</title>
<ellipse fill="#ffff77" stroke="#000000" stroke-width="0" cx="576" cy="-1212" rx="53.0913" ry="18"/>
<text text-anchor="middle" x="576" y="-1208.3" font-family="Times,serif" font-size="14.00" fill="#000000">UTF8String</text>
</g>
<!-- u16&#45;&gt;u19 -->
<g id="edge38" class="edge">
<title>u16&#45;&gt;u19</title>
<path fill="none" stroke="#000000" d="M586.959,-1194.0129C618.0872,-1142.9221 707.1506,-996.742 743.8719,-936.4711"/>
<polygon fill="#000000" stroke="#000000" points="746.8842,-938.2537 749.0984,-927.8928 740.9064,-934.6115 746.8842,-938.2537"/>
</g>
<!-- u16&#45;&gt;u22 -->
<g id="edge40" class="edge">
<title>u16&#45;&gt;u22</title>
<path fill="none" stroke="#000000" d="M565.1006,-1194.0129C534.1415,-1142.9221 445.5622,-996.742 409.0404,-936.4711"/>
<polygon fill="#000000" stroke="#000000" points="412.0181,-934.6313 403.8423,-927.8928 406.0314,-938.259 412.0181,-934.6313"/>
</g>
<!-- u18 -->
<g id="node22" class="node">
<title>u18</title>
<ellipse fill="#ff7777" stroke="#000000" stroke-width="0" cx="877" cy="-910" rx="50.8918" ry="18"/>
<text text-anchor="middle" x="877" y="-906.3" font-family="Times,serif" font-size="14.00" fill="#000000">TimeSpace</text>
</g>
<!-- u19&#45;&gt;u0 -->
<g id="edge1" class="edge">
<title>u19&#45;&gt;u0</title>
<path fill="none" stroke="#000000" d="M758.7492,-891.9534C755.2341,-841.2346 745.2456,-697.1156 740.9754,-635.5028"/>
<polygon fill="#000000" stroke="#000000" points="744.4539,-635.0692 740.2708,-625.3352 737.4706,-635.5533 744.4539,-635.0692"/>
</g>
<!-- u19&#45;&gt;u4 -->
<g id="edge4" class="edge">
<title>u19&#45;&gt;u4</title>
<path fill="none" stroke="#000000" d="M784.5648,-894.3683C794.4724,-888.3237 806.1157,-881.5419 817,-876 1007.3914,-779.0591 1084.8166,-810.7198 1259,-687 1280.0773,-672.0292 1299.5724,-650.0614 1313.1045,-632.9317"/>
<polygon fill="#000000" stroke="#000000" points="1315.9144,-635.0195 1319.2494,-624.9632 1310.3711,-630.7448 1315.9144,-635.0195"/>
</g>
<!-- u19&#45;&gt;u15 -->
<g id="edge32" class="edge">
<title>u19&#45;&gt;u15</title>
<path fill="none" stroke="#000000" d="M737.9991,-893.5837C682.4304,-851.628 538.9269,-740.0521 512,-687 436.4371,-538.124 484.5331,-326.1882 505.5902,-250.8721"/>
<polygon fill="#000000" stroke="#000000" points="508.9796,-251.7492 508.3663,-241.1721 502.2498,-249.8231 508.9796,-251.7492"/>
</g>
<!-- u19&#45;&gt;u26 -->
<g id="edge45" class="edge">
<title>u19&#45;&gt;u26</title>
<path fill="none" stroke="#000000" d="M735.4542,-894.3261C687.6708,-862.214 583.1555,-783.7568 541,-687 502.8319,-599.3951 514.66,-482.0696 522.9171,-429.0722"/>
<polygon fill="#000000" stroke="#000000" points="526.3936,-429.4996 524.5553,-419.0654 519.4856,-428.3686 526.3936,-429.4996"/>
</g>
<!-- u20 -->
<g id="node24" class="node">
<title>u20</title>
<ellipse fill="#ff7777" stroke="#000000" stroke-width="0" cx="663" cy="-910" rx="30.5947" ry="18"/>
<text text-anchor="middle" x="663" y="-906.3" font-family="Times,serif" font-size="14.00" fill="#000000">Index</text>
</g>
<!-- u21 -->
<g id="node25" class="node">
<title>u21</title>
<ellipse fill="#ff7777" stroke="#000000" stroke-width="0" cx="549" cy="-910" rx="65.7887" ry="18"/>
<text text-anchor="middle" x="549" y="-906.3" font-family="Times,serif" font-size="14.00" fill="#000000">StoredTimeline</text>
</g>
<!-- u22&#45;&gt;u8 -->
<g id="edge8" class="edge">
<title>u22&#45;&gt;u8</title>
<path fill="none" stroke="#000000" d="M427.1601,-894.103C513.6986,-853.3828 738.8755,-744.4998 798,-687 813.4454,-671.979 825.5809,-650.8166 833.6491,-634.0302"/>
<polygon fill="#000000" stroke="#000000" points="836.9268,-635.2797 837.9238,-624.7318 830.5667,-632.3557 836.9268,-635.2797"/>
</g>
<!-- u22&#45;&gt;u5 -->
<g id="edge6" class="edge">
<title>u22&#45;&gt;u5</title>
<path fill="none" stroke="#000000" d="M428.6148,-894.2453C442.6471,-888.2503 458.9736,-881.5358 474,-876 733.5637,-780.3746 824.4625,-820.0155 1067,-687 1093.7975,-672.3034 1120.173,-649.5558 1138.4761,-632.0686"/>
<polygon fill="#000000" stroke="#000000" points="1141.0799,-634.4184 1145.8037,-624.9349 1136.1969,-629.4027 1141.0799,-634.4184"/>
</g>
<!-- u22&#45;&gt;u15 -->
<g id="edge33" class="edge">
<title>u22&#45;&gt;u15</title>
<path fill="none" stroke="#000000" d="M393.4392,-891.6896C395.4424,-822.8408 405.8777,-573.312 455,-375 466.1901,-329.8244 487.3427,-279.9799 501.0455,-250.0975"/>
<polygon fill="#000000" stroke="#000000" points="504.3424,-251.308 505.3818,-240.7643 497.9941,-248.3585 504.3424,-251.308"/>
</g>
<!-- u22&#45;&gt;u26 -->
<g id="edge46" class="edge">
<title>u22&#45;&gt;u26</title>
<path fill="none" stroke="#000000" d="M397.8047,-891.8844C418.0213,-815.6604 496.2555,-520.6884 520.6756,-428.6156"/>
<polygon fill="#000000" stroke="#000000" points="524.0722,-429.4616 523.2529,-418.8985 517.3061,-427.667 524.0722,-429.4616"/>
</g>
<!-- u23 -->
<g id="node27" class="node">
<title>u23</title>
<ellipse fill="#ff7777" stroke="#000000" stroke-width="0" cx="272" cy="-910" rx="31.3957" ry="18"/>
<text text-anchor="middle" x="272" y="-906.3" font-family="Times,serif" font-size="14.00" fill="#000000">Event</text>
</g>
<!-- u24 -->
<g id="node28" class="node">
<title>u24</title>
<ellipse fill="#ff7777" stroke="#000000" stroke-width="0" cx="175" cy="-910" rx="47.3916" ry="18"/>
<text text-anchor="middle" x="175" y="-906.3" font-family="Times,serif" font-size="14.00" fill="#000000">TimeSpan</text>
</g>
<!-- u25 -->
<g id="node29" class="node">
<title>u25</title>
<ellipse fill="#ff7777" stroke="#000000" stroke-width="0" cx="67" cy="-910" rx="42.7926" ry="18"/>
<text text-anchor="middle" x="67" y="-906.3" font-family="Times,serif" font-size="14.00" fill="#000000">Timeline</text>
</g>
</g>
</svg>
