<?xml version="1.0" encoding="UTF-8" standalone="no"?>
<!DOCTYPE svg PUBLIC "-//W3C//DTD SVG 1.1//EN"
 "http://www.w3.org/Graphics/SVG/1.1/DTD/svg11.dtd">
<!-- Generated by graphviz version 2.40.1 (20161225.0304)
 -->
<!-- Title: Modules Pages: 1 -->
<svg width="864pt" height="536pt"
 viewBox="0.00 0.00 864.00 536.20" xmlns="http://www.w3.org/2000/svg" xmlns:xlink="http://www.w3.org/1999/xlink">
<g id="graph0" class="graph" transform="scale(.4493 .4493) rotate(0) translate(4 1189.3333)">
<title>Modules</title>
<polygon fill="#ffffff" stroke="transparent" points="-4,4 -4,-1189.3333 1918.8608,-1189.3333 1918.8608,4 -4,4"/>
<g id="clust1" class="cluster">
<title>cluster_0</title>
<polygon fill="#000000" fill-opacity="0.058824" stroke="#000000" stroke-opacity="0.058824" points="340.7816,-279.3853 340.7816,-667.6488 1761.7816,-667.6488 1761.7816,-279.3853 340.7816,-279.3853"/>
<text text-anchor="middle" x="1051.2816" y="-652.4488" font-family="Times,serif" font-size="14.00" fill="#000000">Components</text>
</g>
<g id="clust2" class="cluster">
<title>cluster_1</title>
<polygon fill="#000000" fill-opacity="0.058824" stroke="#000000" stroke-opacity="0.058824" points="658.7816,-449.8925 658.7816,-603.9653 1438.7816,-603.9653 1438.7816,-449.8925 658.7816,-449.8925"/>
<text text-anchor="middle" x="1048.7816" y="-588.7653" font-family="Times,serif" font-size="14.00" fill="#000000">Dialogs</text>
</g>
<g id="clust3" class="cluster">
<title>cluster_2</title>
<polygon fill="#000000" fill-opacity="0.058824" stroke="#000000" stroke-opacity="0.058824" points="1446.7816,-449.8925 1446.7816,-603.9653 1753.7816,-603.9653 1753.7816,-449.8925 1446.7816,-449.8925"/>
<text text-anchor="middle" x="1600.2816" y="-588.7653" font-family="Times,serif" font-size="14.00" fill="#000000">Drawers</text>
</g>
<g id="clust4" class="cluster">
<title>cluster_3</title>
<polygon fill="#000000" fill-opacity="0.058824" stroke="#000000" stroke-opacity="0.058824" points="226.7816,-131.4754 226.7816,-433.4581 332.7816,-433.4581 332.7816,-131.4754 226.7816,-131.4754"/>
<text text-anchor="middle" x="279.7816" y="-418.2581" font-family="Times,serif" font-size="14.00" fill="#000000">Plumbing</text>
</g>
<g id="clust5" class="cluster">
<title>cluster_4</title>
<polygon fill="#000000" fill-opacity="0.058824" stroke="#000000" stroke-opacity="0.058824" points="1391.7816,-951.1427 1391.7816,-1105.2155 1501.7816,-1105.2155 1501.7816,-951.1427 1391.7816,-951.1427"/>
<text text-anchor="middle" x="1446.7816" y="-1090.0155" font-family="Times,serif" font-size="14.00" fill="#000000">Scripts</text>
</g>
<g id="clust6" class="cluster">
<title>cluster_5</title>
<polygon fill="#000000" fill-opacity="0.058824" stroke="#000000" stroke-opacity="0.058824" points="628.7816,-934.7083 628.7816,-1168.8989 766.7816,-1168.8989 766.7816,-934.7083 628.7816,-934.7083"/>
<text text-anchor="middle" x="697.7816" y="-1153.6989" font-family="Times,serif" font-size="14.00" fill="#000000">Test</text>
</g>
<g id="clust7" class="cluster">
<title>cluster_6</title>
<polygon fill="#000000" fill-opacity="0.058824" stroke="#000000" stroke-opacity="0.058824" points="636.7816,-951.1427 636.7816,-1105.2155 758.7816,-1105.2155 758.7816,-951.1427 636.7816,-951.1427"/>
<text text-anchor="middle" x="697.7816" y="-1090.0155" font-family="Times,serif" font-size="14.00" fill="#000000">QuickCheck</text>
</g>
<g id="clust8" class="cluster">
<title>cluster_7</title>
<polygon fill="#000000" fill-opacity="0.058824" stroke="#000000" stroke-opacity="0.058824" points="91.7816,-684.0832 91.7816,-918.2738 1012.7816,-918.2738 1012.7816,-684.0832 91.7816,-684.0832"/>
<text text-anchor="middle" x="552.2816" y="-903.0738" font-family="Times,serif" font-size="14.00" fill="#000000">Timeline</text>
</g>
<g id="clust9" class="cluster">
<title>cluster_8</title>
<polygon fill="#000000" fill-opacity="0.058824" stroke="#000000" stroke-opacity="0.058824" points="99.7816,-700.5176 99.7816,-854.5904 1004.7816,-854.5904 1004.7816,-700.5176 99.7816,-700.5176"/>
<text text-anchor="middle" x="552.2816" y="-839.3904" font-family="Times,serif" font-size="14.00" fill="#000000">Data</text>
</g>
<!-- u14 -->
<g id="node1" class="node">
<title>u14</title>
<ellipse fill="#bbffbb" stroke="#000000" stroke-width="0" cx="1087.7816" cy="-1005" rx="38.9931" ry="18"/>
<text text-anchor="middle" x="1087.7816" y="-1001.3" font-family="Times,serif" font-size="14.00" fill="#000000">Settings</text>
</g>
<!-- u8 -->
<g id="node5" class="node">
<title>u8</title>
<ellipse fill="#ffffbb" stroke="#000000" stroke-width="0" cx="610.7816" cy="-503" rx="37.8943" ry="18"/>
<text text-anchor="middle" x="610.7816" y="-499.3" font-family="Times,serif" font-size="14.00" fill="#000000">TopBar</text>
</g>
<!-- u14&#45;&gt;u8 -->
<g id="edge7" class="edge">
<title>u14&#45;&gt;u8</title>
<path fill="none" stroke="#000000" d="M1083.2798,-987.0529C1067.9311,-926.1065 1018.088,-730.275 1008.7816,-720 895.5288,-594.9599 781.7699,-694.064 654.7816,-583 638.7235,-568.9556 627.3887,-547.5672 620.2491,-530.4383"/>
<polygon fill="#000000" stroke="#000000" points="623.4321,-528.9679 616.5262,-520.933 616.9142,-531.5208 623.4321,-528.9679"/>
</g>
<!-- u9 -->
<g id="node6" class="node">
<title>u9</title>
<ellipse fill="#ffffbb" stroke="#000000" stroke-width="0" cx="1081.7816" cy="-333" rx="30.5947" ry="18"/>
<text text-anchor="middle" x="1081.7816" y="-329.3" font-family="Times,serif" font-size="14.00" fill="#000000">Index</text>
</g>
<!-- u14&#45;&gt;u9 -->
<g id="edge22" class="edge">
<title>u14&#45;&gt;u9</title>
<path fill="none" stroke="#000000" d="M1123.3177,-997.5412C1304.7265,-957.9754 2109.8167,-763.6098 1870.7816,-477 1773.6614,-360.5502 1270.6984,-338.0157 1122.7562,-333.8834"/>
<polygon fill="#000000" stroke="#000000" points="1122.4177,-330.3733 1112.3283,-333.6066 1122.2319,-337.3708 1122.4177,-330.3733"/>
</g>
<!-- u3 -->
<g id="node10" class="node">
<title>u3</title>
<ellipse fill="#bbbbff" stroke="#000000" stroke-width="0" cx="1217.7816" cy="-503" rx="53.8905" ry="18"/>
<text text-anchor="middle" x="1217.7816" y="-499.3" font-family="Times,serif" font-size="14.00" fill="#000000">SettingsEdit</text>
</g>
<!-- u14&#45;&gt;u3 -->
<g id="edge2" class="edge">
<title>u14&#45;&gt;u3</title>
<path fill="none" stroke="#000000" d="M1092.4852,-986.837C1112.0139,-911.4259 1186.787,-622.6867 1210.5128,-531.0686"/>
<polygon fill="#000000" stroke="#000000" points="1213.9656,-531.6967 1213.0843,-521.1386 1207.1891,-529.9418 1213.9656,-531.6967"/>
</g>
<!-- u4 -->
<g id="node11" class="node">
<title>u4</title>
<ellipse fill="#bbbbff" stroke="#000000" stroke-width="0" cx="920.7816" cy="-503" rx="79.0865" ry="18"/>
<text text-anchor="middle" x="920.7816" y="-499.3" font-family="Times,serif" font-size="14.00" fill="#000000">TimelineNameEdit</text>
</g>
<!-- u14&#45;&gt;u4 -->
<g id="edge3" class="edge">
<title>u14&#45;&gt;u4</title>
<path fill="none" stroke="#000000" d="M1087.3392,-986.7742C1085.7356,-940.7566 1078.3711,-816.6602 1044.7816,-720 1019.0271,-645.8866 967.7893,-568.2062 939.9177,-528.9747"/>
<polygon fill="#000000" stroke="#000000" points="942.6901,-526.8349 934.0159,-520.7514 937.0031,-530.9164 942.6901,-526.8349"/>
</g>
<!-- u5 -->
<g id="node12" class="node">
<title>u5</title>
<ellipse fill="#bbbbff" stroke="#000000" stroke-width="0" cx="1081.7816" cy="-503" rx="63.8893" ry="18"/>
<text text-anchor="middle" x="1081.7816" y="-499.3" font-family="Times,serif" font-size="14.00" fill="#000000">TimeScaleEdit</text>
</g>
<!-- u14&#45;&gt;u5 -->
<g id="edge5" class="edge">
<title>u14&#45;&gt;u5</title>
<path fill="none" stroke="#000000" d="M1087.5645,-986.837C1086.6641,-911.5024 1083.2191,-623.2728 1082.1204,-531.3483"/>
<polygon fill="#000000" stroke="#000000" points="1085.6177,-531.096 1081.9984,-521.1386 1078.6182,-531.1798 1085.6177,-531.096"/>
</g>
<!-- u11 -->
<g id="node15" class="node">
<title>u11</title>
<ellipse fill="#ffbbbb" stroke="#000000" stroke-width="0" cx="1494.7816" cy="-503" rx="39.7935" ry="18"/>
<text text-anchor="middle" x="1494.7816" y="-499.3" font-family="Times,serif" font-size="14.00" fill="#000000">Siblings</text>
</g>
<!-- u14&#45;&gt;u11 -->
<g id="edge25" class="edge">
<title>u14&#45;&gt;u11</title>
<path fill="none" stroke="#000000" d="M1103.1033,-988.3325C1153.9009,-932.7591 1320.4902,-747.9796 1442.7816,-583 1455.6454,-565.6459 1468.8969,-545.2131 1478.8032,-529.3414"/>
<polygon fill="#000000" stroke="#000000" points="1481.9378,-530.927 1484.221,-520.5811 1475.9843,-527.245 1481.9378,-530.927"/>
</g>
<!-- u12 -->
<g id="node16" class="node">
<title>u12</title>
<ellipse fill="#ffbbbb" stroke="#000000" stroke-width="0" cx="1593.7816" cy="-503" rx="41.6928" ry="18"/>
<text text-anchor="middle" x="1593.7816" y="-499.3" font-family="Times,serif" font-size="14.00" fill="#000000">Children</text>
</g>
<!-- u14&#45;&gt;u12 -->
<g id="edge26" class="edge">
<title>u14&#45;&gt;u12</title>
<path fill="none" stroke="#000000" d="M1108.8699,-989.5853C1148.1095,-960.5945 1234.4611,-895.3354 1301.7816,-834 1416.3289,-729.6365 1448.4213,-705.1444 1543.7816,-583 1557.0095,-566.0567 1569.8157,-545.4599 1579.156,-529.4087"/>
<polygon fill="#000000" stroke="#000000" points="1582.2995,-530.9624 1584.2318,-520.5452 1576.225,-527.4837 1582.2995,-530.9624"/>
</g>
<!-- u13 -->
<g id="node17" class="node">
<title>u13</title>
<ellipse fill="#ffbbbb" stroke="#000000" stroke-width="0" cx="1699.7816" cy="-503" rx="46.2923" ry="18"/>
<text text-anchor="middle" x="1699.7816" y="-499.3" font-family="Times,serif" font-size="14.00" fill="#000000">Timelines</text>
</g>
<!-- u14&#45;&gt;u13 -->
<g id="edge27" class="edge">
<title>u14&#45;&gt;u13</title>
<path fill="none" stroke="#000000" d="M1114.2855,-991.6424C1166.35,-964.8874 1284.7412,-901.4799 1374.7816,-834 1505.8915,-735.741 1537.7261,-707.0313 1644.7816,-583 1659.235,-566.2546 1673.3243,-545.6528 1683.6241,-529.5497"/>
<polygon fill="#000000" stroke="#000000" points="1686.86,-530.9791 1689.2247,-520.6515 1680.9357,-527.2503 1686.86,-530.9791"/>
</g>
<!-- u15 -->
<g id="node18" class="node">
<title>u15</title>
<ellipse fill="#bbffbb" stroke="#000000" stroke-width="2" cx="279.7816" cy="-185" rx="45.4919" ry="18"/>
<text text-anchor="middle" x="279.7816" y="-181.3" font-family="Times,serif" font-size="14.00" fill="#000000">Plumbing</text>
</g>
<!-- u14&#45;&gt;u15 -->
<g id="edge31" class="edge">
<title>u14&#45;&gt;u15</title>
<path fill="none" stroke="#000000" d="M1050.1459,-1000.161C868.0822,-976.5798 86.0836,-873.2555 52.7816,-834 -116.2305,-634.773 169.6848,-301.8144 256.1759,-209.4234"/>
<polygon fill="#000000" stroke="#000000" points="258.8949,-211.6418 263.214,-201.9673 253.8045,-206.8368 258.8949,-211.6418"/>
</g>
<!-- u26 -->
<g id="node19" class="node">
<title>u26</title>
<ellipse fill="#bbffff" stroke="#000000" stroke-width="0" cx="293.7816" cy="-333" rx="31.3957" ry="18"/>
<text text-anchor="middle" x="293.7816" y="-329.3" font-family="Times,serif" font-size="14.00" fill="#000000">Logic</text>
</g>
<!-- u14&#45;&gt;u26 -->
<g id="edge43" class="edge">
<title>u14&#45;&gt;u26</title>
<path fill="none" stroke="#000000" d="M1049.5817,-1001.3063C875.0238,-984.0516 159.0086,-909.0586 95.7816,-834 -33.5413,-680.4773 193.1581,-432.2244 269.8074,-355.9956"/>
<polygon fill="#000000" stroke="#000000" points="272.4842,-358.2718 277.1532,-348.7612 267.5724,-353.2844 272.4842,-358.2718"/>
</g>
<!-- u19 -->
<g id="node23" class="node">
<title>u19</title>
<ellipse fill="#ff7777" stroke="#000000" stroke-width="0" cx="828.7816" cy="-754" rx="48.9926" ry="18"/>
<text text-anchor="middle" x="828.7816" y="-750.3" font-family="Times,serif" font-size="14.00" fill="#000000">TimeScale</text>
</g>
<!-- u14&#45;&gt;u19 -->
<g id="edge37" class="edge">
<title>u14&#45;&gt;u19</title>
<path fill="none" stroke="#000000" d="M1066.5153,-989.797C1027.9622,-961.6556 945.0408,-898.4204 885.7816,-834 870.4874,-817.3737 855.759,-796.5333 845.106,-780.2919"/>
<polygon fill="#000000" stroke="#000000" points="847.9899,-778.3058 839.6293,-771.798 842.1068,-782.0991 847.9899,-778.3058"/>
</g>
<!-- u20 -->
<g id="node24" class="node">
<title>u20</title>
<ellipse fill="#ff7777" stroke="#000000" stroke-width="0" cx="697.7816" cy="-754" rx="64.189" ry="18"/>
<text text-anchor="middle" x="697.7816" y="-750.3" font-family="Times,serif" font-size="14.00" fill="#000000">TimelineName</text>
</g>
<!-- u14&#45;&gt;u20 -->
<g id="edge38" class="edge">
<title>u14&#45;&gt;u20</title>
<path fill="none" stroke="#000000" d="M1058.2848,-993.0942C999.8278,-968.6709 866.6461,-908.8483 770.7816,-834 750.5314,-818.1893 731.1013,-796.4652 717.385,-779.6447"/>
<polygon fill="#000000" stroke="#000000" points="720.112,-777.4508 711.1319,-771.8287 714.646,-781.8238 720.112,-777.4508"/>
</g>
<!-- u17 -->
<g id="node2" class="node">
<title>u17</title>
<ellipse fill="#bbffbb" stroke="#000000" stroke-width="0" cx="497.7816" cy="-37" rx="29.795" ry="18"/>
<text text-anchor="middle" x="497.7816" y="-33.3" font-family="Times,serif" font-size="14.00" fill="#000000">Main</text>
</g>
<!-- u27 -->
<g id="node3" class="node">
<title>u27</title>
<ellipse fill="#bbffbb" stroke="#000000" stroke-width="0" cx="1815.7816" cy="-503" rx="46.2923" ry="18"/>
<text text-anchor="middle" x="1815.7816" y="-499.3" font-family="Times,serif" font-size="14.00" fill="#000000">WithRoot</text>
</g>
<!-- u27&#45;&gt;u9 -->
<g id="edge24" class="edge">
<title>u27&#45;&gt;u9</title>
<path fill="none" stroke="#000000" d="M1787.3444,-488.8106C1778.081,-484.5809 1767.6419,-480.2201 1757.7816,-477 1522.3749,-400.1236 1227.1891,-353.6116 1121.598,-338.4686"/>
<polygon fill="#000000" stroke="#000000" points="1122.0825,-335.0023 1111.6895,-337.0602 1121.0974,-341.9327 1122.0825,-335.0023"/>
</g>
<!-- u0 -->
<g id="node4" class="node">
<title>u0</title>
<ellipse fill="#ffffbb" stroke="#000000" stroke-width="0" cx="504.7816" cy="-503" rx="50.0912" ry="18"/>
<text text-anchor="middle" x="504.7816" y="-499.3" font-family="Times,serif" font-size="14.00" fill="#000000">BottomBar</text>
</g>
<!-- u0&#45;&gt;u9 -->
<g id="edge9" class="edge">
<title>u0&#45;&gt;u9</title>
<path fill="none" stroke="#000000" d="M535.0654,-488.6561C544.186,-484.6088 554.2946,-480.3891 563.7816,-477 739.261,-414.3117 956.063,-361.8251 1043.0256,-341.7514"/>
<polygon fill="#000000" stroke="#000000" points="1044.0132,-345.1158 1052.9757,-339.4656 1042.4459,-338.2935 1044.0132,-345.1158"/>
</g>
<!-- u8&#45;&gt;u9 -->
<g id="edge17" class="edge">
<title>u8&#45;&gt;u9</title>
<path fill="none" stroke="#000000" d="M633.5865,-488.3053C640.2649,-484.3396 647.6826,-480.2513 654.7816,-477 793.1962,-413.6066 967.9098,-363.3834 1043.7586,-342.9379"/>
<polygon fill="#000000" stroke="#000000" points="1045.0362,-346.2192 1053.791,-340.2523 1043.226,-339.4573 1045.0362,-346.2192"/>
</g>
<!-- u9&#45;&gt;u17 -->
<g id="edge35" class="edge">
<title>u9&#45;&gt;u17</title>
<path fill="none" stroke="#000000" d="M1058.5277,-321.2138C967.4965,-275.0747 635.182,-106.6413 529.9606,-53.3099"/>
<polygon fill="#000000" stroke="#000000" points="531.2863,-50.058 520.7843,-48.6589 528.1216,-56.3018 531.2863,-50.058"/>
</g>
<!-- u10 -->
<g id="node7" class="node">
<title>u10</title>
<ellipse fill="#ffffbb" stroke="#000000" stroke-width="0" cx="392.7816" cy="-503" rx="43.5923" ry="18"/>
<text text-anchor="middle" x="392.7816" y="-499.3" font-family="Times,serif" font-size="14.00" fill="#000000">Snackbar</text>
</g>
<!-- u10&#45;&gt;u9 -->
<g id="edge18" class="edge">
<title>u10&#45;&gt;u9</title>
<path fill="none" stroke="#000000" d="M419.2196,-488.5248C427.5447,-484.3795 436.8903,-480.1388 445.7816,-477 664.3657,-399.8345 940.1508,-353.9875 1041.805,-338.7244"/>
<polygon fill="#000000" stroke="#000000" points="1042.5562,-342.1512 1051.9329,-337.2188 1041.5269,-335.2273 1042.5562,-342.1512"/>
</g>
<!-- u10&#45;&gt;u15 -->
<g id="edge30" class="edge">
<title>u10&#45;&gt;u15</title>
<path fill="none" stroke="#000000" d="M388.1468,-484.9177C379.0348,-450.0584 357.5918,-371.3188 333.7816,-307 321.4294,-273.633 304.4584,-236.3835 292.8588,-211.9243"/>
<polygon fill="#000000" stroke="#000000" points="296.0159,-210.4133 288.5468,-202.8991 289.6997,-213.431 296.0159,-210.4133"/>
</g>
<!-- u10&#45;&gt;u26 -->
<g id="edge42" class="edge">
<title>u10&#45;&gt;u26</title>
<path fill="none" stroke="#000000" d="M382.5597,-485.4473C365.0545,-455.3878 329.2584,-393.9197 308.8724,-358.9134"/>
<polygon fill="#000000" stroke="#000000" points="311.8574,-357.0842 303.8004,-350.204 305.8083,-360.6069 311.8574,-357.0842"/>
</g>
<!-- u1 -->
<g id="node8" class="node">
<title>u1</title>
<ellipse fill="#bbbbff" stroke="#000000" stroke-width="0" cx="1323.7816" cy="-503" rx="34.394" ry="18"/>
<text text-anchor="middle" x="1323.7816" y="-499.3" font-family="Times,serif" font-size="14.00" fill="#000000">EULA</text>
</g>
<!-- u1&#45;&gt;u9 -->
<g id="edge10" class="edge">
<title>u1&#45;&gt;u9</title>
<path fill="none" stroke="#000000" d="M1303.1488,-488.5059C1259.8022,-458.0558 1159.2229,-387.4009 1109.9741,-352.8047"/>
<polygon fill="#000000" stroke="#000000" points="1111.8766,-349.8638 1101.6819,-346.9795 1107.8528,-355.5918 1111.8766,-349.8638"/>
</g>
<!-- u2 -->
<g id="node9" class="node">
<title>u2</title>
<ellipse fill="#bbbbff" stroke="#000000" stroke-width="0" cx="788.7816" cy="-503" rx="35.194" ry="18"/>
<text text-anchor="middle" x="788.7816" y="-499.3" font-family="Times,serif" font-size="14.00" fill="#000000">Import</text>
</g>
<!-- u2&#45;&gt;u9 -->
<g id="edge11" class="edge">
<title>u2&#45;&gt;u9</title>
<path fill="none" stroke="#000000" d="M812.0493,-489.1959C818.7351,-485.2443 826.0408,-480.9406 832.7816,-477 911.1904,-431.1627 1003.868,-377.7733 1050.964,-350.6983"/>
<polygon fill="#000000" stroke="#000000" points="1052.8318,-353.6618 1059.7577,-345.6443 1049.3436,-347.5928 1052.8318,-353.6618"/>
</g>
<!-- u2&#45;&gt;u15 -->
<g id="edge28" class="edge">
<title>u2&#45;&gt;u15</title>
<path fill="none" stroke="#000000" d="M776.5172,-485.8894C748.937,-448.5292 678.265,-358.8594 599.7816,-307 512.9077,-249.5964 395.1357,-213.637 329.3976,-196.6465"/>
<polygon fill="#000000" stroke="#000000" points="329.8605,-193.153 319.3065,-194.0822 328.1364,-199.9374 329.8605,-193.153"/>
</g>
<!-- u2&#45;&gt;u26 -->
<g id="edge40" class="edge">
<title>u2&#45;&gt;u26</title>
<path fill="none" stroke="#000000" d="M766.3848,-488.7978C759.3184,-484.6637 751.3718,-480.3606 743.7816,-477 597.1672,-412.086 412.0863,-362.3472 332.7643,-342.4563"/>
<polygon fill="#000000" stroke="#000000" points="333.2821,-338.9785 322.7327,-339.959 331.591,-345.7711 333.2821,-338.9785"/>
</g>
<!-- u3&#45;&gt;u9 -->
<g id="edge12" class="edge">
<title>u3&#45;&gt;u9</title>
<path fill="none" stroke="#000000" d="M1203.7394,-485.4473C1179.4644,-455.1035 1129.5849,-392.7541 1101.7234,-357.9273"/>
<polygon fill="#000000" stroke="#000000" points="1104.1234,-355.3245 1095.1433,-349.7022 1098.6573,-359.6973 1104.1234,-355.3245"/>
</g>
<!-- u4&#45;&gt;u9 -->
<g id="edge13" class="edge">
<title>u4&#45;&gt;u9</title>
<path fill="none" stroke="#000000" d="M937.7071,-485.1283C966.9797,-454.2194 1027.045,-390.7964 1059.6107,-356.4103"/>
<polygon fill="#000000" stroke="#000000" points="1062.1674,-358.8006 1066.5025,-349.1333 1057.0849,-353.9872 1062.1674,-358.8006"/>
</g>
<!-- u5&#45;&gt;u9 -->
<g id="edge14" class="edge">
<title>u5&#45;&gt;u9</title>
<path fill="none" stroke="#000000" d="M1081.7816,-484.807C1081.7816,-455.1543 1081.7816,-396.1984 1081.7816,-361.1223"/>
<polygon fill="#000000" stroke="#000000" points="1085.2817,-361.0621 1081.7816,-351.0622 1078.2817,-361.0622 1085.2817,-361.0621"/>
</g>
<!-- u6 -->
<g id="node13" class="node">
<title>u6</title>
<ellipse fill="#bbbbff" stroke="#000000" stroke-width="0" cx="700.7816" cy="-503" rx="34.394" ry="18"/>
<text text-anchor="middle" x="700.7816" y="-499.3" font-family="Times,serif" font-size="14.00" fill="#000000">Export</text>
</g>
<!-- u6&#45;&gt;u9 -->
<g id="edge15" class="edge">
<title>u6&#45;&gt;u9</title>
<path fill="none" stroke="#000000" d="M723.3041,-488.9319C730.1042,-484.8923 737.6574,-480.6077 744.7816,-477 852.0002,-422.7034 984.4722,-370.1334 1046.5549,-346.3039"/>
<polygon fill="#000000" stroke="#000000" points="1047.8096,-349.5713 1055.8998,-342.7303 1045.3092,-343.0331 1047.8096,-349.5713"/>
</g>
<!-- u6&#45;&gt;u15 -->
<g id="edge29" class="edge">
<title>u6&#45;&gt;u15</title>
<path fill="none" stroke="#000000" d="M691.508,-485.482C670.9443,-448.0992 618.055,-359.6364 551.7816,-307 482.5817,-252.0393 384.6881,-216.1205 327.1622,-198.2926"/>
<polygon fill="#000000" stroke="#000000" points="327.8377,-194.8398 317.2519,-195.2768 325.7998,-201.5366 327.8377,-194.8398"/>
</g>
<!-- u6&#45;&gt;u26 -->
<g id="edge41" class="edge">
<title>u6&#45;&gt;u26</title>
<path fill="none" stroke="#000000" d="M680.8069,-488.0797C675.1428,-484.1994 668.8599,-480.2114 662.7816,-477 547.1132,-415.8881 399.5893,-366.084 331.4261,-344.5281"/>
<polygon fill="#000000" stroke="#000000" points="332.1603,-341.0902 321.5711,-341.434 330.0635,-347.7688 332.1603,-341.0902"/>
</g>
<!-- u7 -->
<g id="node14" class="node">
<title>u7</title>
<ellipse fill="#bbbbff" stroke="#000000" stroke-width="0" cx="1403.7816" cy="-503" rx="27.0966" ry="18"/>
<text text-anchor="middle" x="1403.7816" y="-499.3" font-family="Times,serif" font-size="14.00" fill="#000000">New</text>
</g>
<!-- u7&#45;&gt;u9 -->
<g id="edge16" class="edge">
<title>u7&#45;&gt;u9</title>
<path fill="none" stroke="#000000" d="M1385.6873,-489.5019C1379.7804,-485.3092 1373.1107,-480.7955 1366.7816,-477 1279.1001,-424.4181 1169.8379,-372.8619 1115.596,-348.1436"/>
<polygon fill="#000000" stroke="#000000" points="1116.9898,-344.9326 1106.4373,-343.987 1114.0969,-351.3069 1116.9898,-344.9326"/>
</g>
<!-- u11&#45;&gt;u9 -->
<g id="edge19" class="edge">
<title>u11&#45;&gt;u9</title>
<path fill="none" stroke="#000000" d="M1468.5338,-489.3388C1460.3532,-485.2266 1451.2544,-480.8 1442.7816,-477 1325.3666,-424.3403 1182.5478,-370.2242 1117.3363,-346.0461"/>
<polygon fill="#000000" stroke="#000000" points="1118.5141,-342.75 1107.9209,-342.5634 1116.0857,-349.3153 1118.5141,-342.75"/>
</g>
<!-- u12&#45;&gt;u9 -->
<g id="edge20" class="edge">
<title>u12&#45;&gt;u9</title>
<path fill="none" stroke="#000000" d="M1568.2458,-488.6125C1560.5201,-484.564 1551.9232,-480.3546 1543.7816,-477 1391.0107,-414.0541 1200.2994,-362.8354 1120.1073,-342.4756"/>
<polygon fill="#000000" stroke="#000000" points="1120.5402,-338.9752 1109.9877,-339.9216 1118.8272,-345.7624 1120.5402,-338.9752"/>
</g>
<!-- u13&#45;&gt;u9 -->
<g id="edge21" class="edge">
<title>u13&#45;&gt;u9</title>
<path fill="none" stroke="#000000" d="M1671.9581,-488.5825C1663.3865,-484.487 1653.8232,-480.2595 1644.7816,-477 1453.3227,-407.979 1214.0163,-358.32 1121.1516,-340.366"/>
<polygon fill="#000000" stroke="#000000" points="1121.5589,-336.8804 1111.0783,-338.4322 1120.2391,-343.7548 1121.5589,-336.8804"/>
</g>
<!-- u15&#45;&gt;u17 -->
<g id="edge36" class="edge">
<title>u15&#45;&gt;u17</title>
<path fill="none" stroke="#000000" d="M302.6994,-169.4411C342.7899,-142.2237 425.5363,-86.0473 469.263,-56.3613"/>
<polygon fill="#000000" stroke="#000000" points="471.4105,-59.1337 477.7181,-50.6211 467.4787,-53.3423 471.4105,-59.1337"/>
</g>
<!-- u15&#45;&gt;u9 -->
<g id="edge23" class="edge">
<title>u15&#45;&gt;u9</title>
<path fill="none" stroke="#000000" d="M321.0321,-192.6123C459.492,-218.1635 906.5586,-300.6646 1042.321,-325.718"/>
<polygon fill="#000000" stroke="#000000" points="1041.8177,-329.1841 1052.2868,-327.5571 1043.0881,-322.3004 1041.8177,-329.1841"/>
</g>
<!-- u26&#45;&gt;u15 -->
<g id="edge34" class="edge">
<title>u26&#45;&gt;u15</title>
<path fill="none" stroke="#000000" d="M292.0649,-314.8523C289.6718,-289.5539 285.3091,-243.4342 282.4791,-213.5167"/>
<polygon fill="#000000" stroke="#000000" points="285.9386,-212.9221 281.5123,-203.2961 278.9697,-213.5813 285.9386,-212.9221"/>
</g>
<!-- u28 -->
<g id="node20" class="node">
<title>u28</title>
<ellipse fill="#ffbbff" stroke="#000000" stroke-width="0" cx="1446.7816" cy="-1005" rx="46.5926" ry="18"/>
<text text-anchor="middle" x="1446.7816" y="-1001.3" font-family="Times,serif" font-size="14.00" fill="#000000">TrimDocs</text>
</g>
<!-- u16 -->
<g id="node21" class="node">
<title>u16</title>
<ellipse fill="#ffff77" stroke="#000000" stroke-width="0" cx="697.7816" cy="-1005" rx="53.0913" ry="18"/>
<text text-anchor="middle" x="697.7816" y="-1001.3" font-family="Times,serif" font-size="14.00" fill="#000000">UTF8String</text>
</g>
<!-- u16&#45;&gt;u20 -->
<g id="edge39" class="edge">
<title>u16&#45;&gt;u20</title>
<path fill="none" stroke="#000000" d="M697.7816,-986.9487C697.7816,-943.8176 697.7816,-834.5 697.7816,-782.4242"/>
<polygon fill="#000000" stroke="#000000" points="701.2817,-782.225 697.7816,-772.225 694.2817,-782.225 701.2817,-782.225"/>
</g>
<!-- u18 -->
<g id="node22" class="node">
<title>u18</title>
<ellipse fill="#ff7777" stroke="#000000" stroke-width="0" cx="945.7816" cy="-754" rx="50.8918" ry="18"/>
<text text-anchor="middle" x="945.7816" y="-750.3" font-family="Times,serif" font-size="14.00" fill="#000000">TimeSpace</text>
</g>
<!-- u19&#45;&gt;u0 -->
<g id="edge1" class="edge">
<title>u19&#45;&gt;u0</title>
<path fill="none" stroke="#000000" d="M802.4573,-738.6728C743.6806,-704.1888 603.7871,-620.5839 563.7816,-583 546.9079,-567.1477 531.5165,-545.9401 520.6878,-529.3434"/>
<polygon fill="#000000" stroke="#000000" points="523.4833,-527.2172 515.1608,-520.6607 517.5782,-530.9761 523.4833,-527.2172"/>
</g>
<!-- u19&#45;&gt;u5 -->
<g id="edge6" class="edge">
<title>u19&#45;&gt;u5</title>
<path fill="none" stroke="#000000" d="M847.3355,-737.1873C880.4473,-707.0054 951.6072,-641.3343 1008.7816,-583 1026.2651,-565.1618 1045.2609,-544.2945 1059.4914,-528.3453"/>
<polygon fill="#000000" stroke="#000000" points="1062.4404,-530.2957 1066.4655,-520.4953 1057.2073,-525.6466 1062.4404,-530.2957"/>
</g>
<!-- u19&#45;&gt;u15 -->
<g id="edge32" class="edge">
<title>u19&#45;&gt;u15</title>
<path fill="none" stroke="#000000" d="M804.9472,-738.1817C794.7352,-731.898 782.4834,-724.993 770.7816,-720 565.5485,-632.4294 436.7481,-749.1271 287.7816,-583 246.5255,-536.9913 247.3056,-368.4567 253.7816,-307 257.2368,-274.21 265.7784,-237.2708 272.1343,-212.7155"/>
<polygon fill="#000000" stroke="#000000" points="275.531,-213.5606 274.7032,-202.9982 268.7635,-211.7715 275.531,-213.5606"/>
</g>
<!-- u19&#45;&gt;u26 -->
<g id="edge44" class="edge">
<title>u19&#45;&gt;u26</title>
<path fill="none" stroke="#000000" d="M804.5915,-738.1788C794.4249,-731.9678 782.3021,-725.117 770.7816,-720 585.9249,-637.8929 469.803,-735.3775 336.7816,-583 281.6021,-519.7912 284.7379,-412.1989 289.952,-361.2944"/>
<polygon fill="#000000" stroke="#000000" points="293.4652,-361.3746 291.1111,-351.0446 286.5095,-360.5879 293.4652,-361.3746"/>
</g>
<!-- u20&#45;&gt;u8 -->
<g id="edge8" class="edge">
<title>u20&#45;&gt;u8</title>
<path fill="none" stroke="#000000" d="M691.5248,-735.9487C676.4759,-692.5318 638.1807,-582.0481 620.2775,-530.3964"/>
<polygon fill="#000000" stroke="#000000" points="623.5638,-529.19 616.9817,-520.8877 616.9498,-531.4825 623.5638,-529.19"/>
</g>
<!-- u20&#45;&gt;u4 -->
<g id="edge4" class="edge">
<title>u20&#45;&gt;u4</title>
<path fill="none" stroke="#000000" d="M713.4625,-736.3502C752.2339,-692.7106 852.7319,-579.594 898.0397,-528.5974"/>
<polygon fill="#000000" stroke="#000000" points="900.7942,-530.7667 904.8195,-520.9663 895.5612,-526.1174 900.7942,-530.7667"/>
</g>
<!-- u20&#45;&gt;u15 -->
<g id="edge33" class="edge">
<title>u20&#45;&gt;u15</title>
<path fill="none" stroke="#000000" d="M665.2933,-738.2795C652.725,-732.3534 638.1673,-725.6776 624.7816,-720 468.3247,-653.6389 379.4643,-711.0997 267.7816,-583 186.0101,-489.2083 192.9928,-428.2899 220.7816,-307 228.8062,-271.975 248.2552,-235.3191 262.6411,-211.4442"/>
<polygon fill="#000000" stroke="#000000" points="265.7965,-212.9953 268.0638,-202.6459 259.8374,-209.3225 265.7965,-212.9953"/>
</g>
<!-- u20&#45;&gt;u26 -->
<g id="edge45" class="edge">
<title>u20&#45;&gt;u26</title>
<path fill="none" stroke="#000000" d="M664.8234,-738.3541C652.3261,-732.4993 637.939,-725.8523 624.7816,-720 482.3049,-656.6277 389.9342,-711.6265 301.7816,-583 255.142,-514.9467 273.322,-410.212 285.7993,-360.7222"/>
<polygon fill="#000000" stroke="#000000" points="289.1887,-361.5947 288.3498,-351.0332 282.4193,-359.8127 289.1887,-361.5947"/>
</g>
<!-- u21 -->
<g id="node25" class="node">
<title>u21</title>
<ellipse fill="#ff7777" stroke="#000000" stroke-width="0" cx="584.7816" cy="-754" rx="30.5947" ry="18"/>
<text text-anchor="middle" x="584.7816" y="-750.3" font-family="Times,serif" font-size="14.00" fill="#000000">Index</text>
</g>
<!-- u22 -->
<g id="node26" class="node">
<title>u22</title>
<ellipse fill="#ff7777" stroke="#000000" stroke-width="0" cx="470.7816" cy="-754" rx="65.7887" ry="18"/>
<text text-anchor="middle" x="470.7816" y="-750.3" font-family="Times,serif" font-size="14.00" fill="#000000">StoredTimeline</text>
</g>
<!-- u23 -->
<g id="node27" class="node">
<title>u23</title>
<ellipse fill="#ff7777" stroke="#000000" stroke-width="0" cx="355.7816" cy="-754" rx="31.3957" ry="18"/>
<text text-anchor="middle" x="355.7816" y="-750.3" font-family="Times,serif" font-size="14.00" fill="#000000">Event</text>
</g>
<!-- u24 -->
<g id="node28" class="node">
<title>u24</title>
<ellipse fill="#ff7777" stroke="#000000" stroke-width="0" cx="258.7816" cy="-754" rx="47.3916" ry="18"/>
<text text-anchor="middle" x="258.7816" y="-750.3" font-family="Times,serif" font-size="14.00" fill="#000000">TimeSpan</text>
</g>
<!-- u25 -->
<g id="node29" class="node">
<title>u25</title>
<ellipse fill="#ff7777" stroke="#000000" stroke-width="0" cx="150.7816" cy="-754" rx="42.7926" ry="18"/>
<text text-anchor="middle" x="150.7816" y="-750.3" font-family="Times,serif" font-size="14.00" fill="#000000">Timeline</text>
</g>
</g>
</svg>
