<?xml version="1.0" encoding="UTF-8" standalone="no"?>
<!DOCTYPE svg PUBLIC "-//W3C//DTD SVG 1.1//EN"
 "http://www.w3.org/Graphics/SVG/1.1/DTD/svg11.dtd">
<!-- Generated by graphviz version 2.40.1 (20161225.0304)
 -->
<!-- Title: Modules Pages: 1 -->
<svg width="864pt" height="526pt"
 viewBox="0.00 0.00 864.00 525.63" xmlns="http://www.w3.org/2000/svg" xmlns:xlink="http://www.w3.org/1999/xlink">
<g id="graph0" class="graph" transform="scale(.3894 .3894) rotate(0) translate(4 1346)">
<title>Modules</title>
<polygon fill="#ffffff" stroke="transparent" points="-4,4 -4,-1346 2215.0686,-1346 2215.0686,4 -4,4"/>
<g id="clust1" class="cluster">
<title>cluster_0</title>
<polygon fill="#000000" fill-opacity="0.058824" stroke="#000000" stroke-opacity="0.058824" points="264.4622,-339.2416 264.4622,-810.6877 2053.4622,-810.6877 2053.4622,-339.2416 264.4622,-339.2416"/>
<text text-anchor="middle" x="1158.9622" y="-795.4877" font-family="Times,serif" font-size="14.00" fill="#000000">Components</text>
</g>
<g id="clust2" class="cluster">
<title>cluster_1</title>
<polygon fill="#000000" fill-opacity="0.058824" stroke="#000000" stroke-opacity="0.058824" points="370.4622,-546.2788 370.4622,-733.3606 1532.4622,-733.3606 1532.4622,-546.2788 370.4622,-546.2788"/>
<text text-anchor="middle" x="951.4622" y="-718.1606" font-family="Times,serif" font-size="14.00" fill="#000000">Dialogs</text>
</g>
<g id="clust3" class="cluster">
<title>cluster_2</title>
<polygon fill="#000000" fill-opacity="0.058824" stroke="#000000" stroke-opacity="0.058824" points="1652.4622,-546.2788 1652.4622,-733.3606 1959.4622,-733.3606 1959.4622,-546.2788 1652.4622,-546.2788"/>
<text text-anchor="middle" x="1805.9622" y="-718.1606" font-family="Times,serif" font-size="14.00" fill="#000000">Drawers</text>
</g>
<g id="clust4" class="cluster">
<title>cluster_3</title>
<polygon fill="#000000" fill-opacity="0.058824" stroke="#000000" stroke-opacity="0.058824" points="150.4622,-159.6431 150.4622,-526.3234 256.4622,-526.3234 256.4622,-159.6431 150.4622,-159.6431"/>
<text text-anchor="middle" x="203.4622" y="-511.1234" font-family="Times,serif" font-size="14.00" fill="#000000">Plumbing</text>
</g>
<g id="clust5" class="cluster">
<title>cluster_4</title>
<polygon fill="#000000" fill-opacity="0.058824" stroke="#000000" stroke-opacity="0.058824" points="1692.4622,-1134.9628 1692.4622,-1322.0446 1802.4622,-1322.0446 1802.4622,-1134.9628 1692.4622,-1134.9628"/>
<text text-anchor="middle" x="1747.4622" y="-1306.8446" font-family="Times,serif" font-size="14.00" fill="#000000">Scripts</text>
</g>
<g id="clust6" class="cluster">
<title>cluster_5</title>
<polygon fill="#000000" fill-opacity="0.058824" stroke="#000000" stroke-opacity="0.058824" points="214.4622,-830.6431 214.4622,-1115.0074 1333.4622,-1115.0074 1333.4622,-830.6431 214.4622,-830.6431"/>
<text text-anchor="middle" x="773.9622" y="-1099.8074" font-family="Times,serif" font-size="14.00" fill="#000000">Timeline</text>
</g>
<g id="clust7" class="cluster">
<title>cluster_6</title>
<polygon fill="#000000" fill-opacity="0.058824" stroke="#000000" stroke-opacity="0.058824" points="222.4622,-850.5985 222.4622,-1037.6803 1325.4622,-1037.6803 1325.4622,-850.5985 222.4622,-850.5985"/>
<text text-anchor="middle" x="773.9622" y="-1022.4803" font-family="Times,serif" font-size="14.00" fill="#000000">UI</text>
</g>
<!-- u16 -->
<g id="node1" class="node">
<title>u16</title>
<ellipse fill="#bbffbb" stroke="#000000" stroke-width="0" cx="1422.4622" cy="-1200" rx="38.9931" ry="18"/>
<text text-anchor="middle" x="1422.4622" y="-1196.3" font-family="Times,serif" font-size="14.00" fill="#000000">Settings</text>
</g>
<!-- u10 -->
<g id="node5" class="node">
<title>u10</title>
<ellipse fill="#ffffbb" stroke="#000000" stroke-width="0" cx="2007.4622" cy="-611" rx="37.8943" ry="18"/>
<text text-anchor="middle" x="2007.4622" y="-607.3" font-family="Times,serif" font-size="14.00" fill="#000000">TopBar</text>
</g>
<!-- u16&#45;&gt;u10 -->
<g id="edge8" class="edge">
<title>u16&#45;&gt;u10</title>
<path fill="none" stroke="#000000" d="M1443.6369,-1184.627C1521.5362,-1127.2181 1796.3373,-917.0627 1963.4622,-691 1975.7135,-674.4282 1986.8698,-654.0543 1994.8832,-638.0147"/>
<polygon fill="#000000" stroke="#000000" points="1998.2078,-639.1827 1999.4483,-628.6607 1991.9169,-636.1125 1998.2078,-639.1827"/>
</g>
<!-- u11 -->
<g id="node6" class="node">
<title>u11</title>
<ellipse fill="#ffffbb" stroke="#000000" stroke-width="0" cx="1245.4622" cy="-404" rx="30.5947" ry="18"/>
<text text-anchor="middle" x="1245.4622" y="-400.3" font-family="Times,serif" font-size="14.00" fill="#000000">Index</text>
</g>
<!-- u16&#45;&gt;u11 -->
<g id="edge24" class="edge">
<title>u16&#45;&gt;u11</title>
<path fill="none" stroke="#000000" d="M1455.5611,-1190.1995C1628.045,-1137.5651 2406.8808,-879.8207 2164.4622,-585 2050.3901,-446.2696 1448.9128,-412.1885 1286.1204,-405.4508"/>
<polygon fill="#000000" stroke="#000000" points="1286.1743,-401.9503 1276.0418,-405.0457 1285.8932,-408.9446 1286.1743,-401.9503"/>
</g>
<!-- u4 -->
<g id="node11" class="node">
<title>u4</title>
<ellipse fill="#bbbbff" stroke="#000000" stroke-width="0" cx="1470.4622" cy="-611" rx="53.8905" ry="18"/>
<text text-anchor="middle" x="1470.4622" y="-607.3" font-family="Times,serif" font-size="14.00" fill="#000000">SettingsEdit</text>
</g>
<!-- u16&#45;&gt;u4 -->
<g id="edge3" class="edge">
<title>u16&#45;&gt;u4</title>
<path fill="none" stroke="#000000" d="M1423.9514,-1181.7265C1430.8524,-1097.0456 1459.7418,-742.5481 1468.1544,-639.3186"/>
<polygon fill="#000000" stroke="#000000" points="1471.6665,-639.3116 1468.9904,-629.0604 1464.6896,-638.743 1471.6665,-639.3116"/>
</g>
<!-- u5 -->
<g id="node12" class="node">
<title>u5</title>
<ellipse fill="#bbbbff" stroke="#000000" stroke-width="0" cx="983.4622" cy="-611" rx="63.8893" ry="18"/>
<text text-anchor="middle" x="983.4622" y="-607.3" font-family="Times,serif" font-size="14.00" fill="#000000">TimeScaleEdit</text>
</g>
<!-- u16&#45;&gt;u5 -->
<g id="edge4" class="edge">
<title>u16&#45;&gt;u5</title>
<path fill="none" stroke="#000000" d="M1417.9164,-1181.8144C1401.8501,-1117.9509 1347.7281,-906.4119 1329.4622,-881 1243.1821,-760.9651 1167.6411,-788.4264 1056.4622,-691 1037.436,-674.3273 1018.2445,-653.0818 1004.3171,-636.6757"/>
<polygon fill="#000000" stroke="#000000" points="1006.6467,-634.0062 997.5425,-628.5874 1001.2803,-638.501 1006.6467,-634.0062"/>
</g>
<!-- u6 -->
<g id="node13" class="node">
<title>u6</title>
<ellipse fill="#bbbbff" stroke="#000000" stroke-width="0" cx="1311.4622" cy="-611" rx="87.1846" ry="18"/>
<text text-anchor="middle" x="1311.4622" y="-607.3" font-family="Times,serif" font-size="14.00" fill="#000000">TimeSpaceNameEdit</text>
</g>
<!-- u16&#45;&gt;u6 -->
<g id="edge6" class="edge">
<title>u16&#45;&gt;u6</title>
<path fill="none" stroke="#000000" d="M1419.6713,-1181.9674C1412.0819,-1133.2968 1390.1782,-995.2256 1368.4622,-881 1351.6233,-792.4274 1328.7386,-688.1688 1317.7968,-639.1516"/>
<polygon fill="#000000" stroke="#000000" points="1321.1875,-638.2762 1315.5882,-629.2819 1314.3565,-639.8049 1321.1875,-638.2762"/>
</g>
<!-- u13 -->
<g id="node17" class="node">
<title>u13</title>
<ellipse fill="#ffbbbb" stroke="#000000" stroke-width="0" cx="1700.4622" cy="-611" rx="39.7935" ry="18"/>
<text text-anchor="middle" x="1700.4622" y="-607.3" font-family="Times,serif" font-size="14.00" fill="#000000">Siblings</text>
</g>
<!-- u16&#45;&gt;u13 -->
<g id="edge27" class="edge">
<title>u16&#45;&gt;u13</title>
<path fill="none" stroke="#000000" d="M1430.7822,-1182.3724C1470.3451,-1098.5502 1639.5158,-740.1274 1687.643,-638.1602"/>
<polygon fill="#000000" stroke="#000000" points="1690.9357,-639.3838 1692.0389,-628.8465 1684.6054,-636.3959 1690.9357,-639.3838"/>
</g>
<!-- u14 -->
<g id="node18" class="node">
<title>u14</title>
<ellipse fill="#ffbbbb" stroke="#000000" stroke-width="0" cx="1799.4622" cy="-611" rx="41.6928" ry="18"/>
<text text-anchor="middle" x="1799.4622" y="-607.3" font-family="Times,serif" font-size="14.00" fill="#000000">Children</text>
</g>
<!-- u16&#45;&gt;u14 -->
<g id="edge28" class="edge">
<title>u16&#45;&gt;u14</title>
<path fill="none" stroke="#000000" d="M1434.2524,-1182.5461C1458.0228,-1147.2875 1513.2842,-1064.9663 1558.4622,-995 1645.019,-860.9513 1664.733,-826.2113 1749.4622,-691 1760.7309,-673.0174 1773.4012,-652.7443 1783.1677,-637.1059"/>
<polygon fill="#000000" stroke="#000000" points="1786.2222,-638.8222 1788.5499,-628.4862 1780.2847,-635.1147 1786.2222,-638.8222"/>
</g>
<!-- u15 -->
<g id="node19" class="node">
<title>u15</title>
<ellipse fill="#ffbbbb" stroke="#000000" stroke-width="0" cx="1905.4622" cy="-611" rx="46.2923" ry="18"/>
<text text-anchor="middle" x="1905.4622" y="-607.3" font-family="Times,serif" font-size="14.00" fill="#000000">Timelines</text>
</g>
<!-- u16&#45;&gt;u15 -->
<g id="edge29" class="edge">
<title>u16&#45;&gt;u15</title>
<path fill="none" stroke="#000000" d="M1438.16,-1183.2963C1470.5012,-1148.7337 1546.6252,-1066.6084 1607.4622,-995 1719.4546,-863.1792 1747.3988,-829.9134 1850.4622,-691 1863.4745,-673.4614 1877.4043,-653.1829 1887.9895,-637.4308"/>
<polygon fill="#000000" stroke="#000000" points="1891.1553,-638.9928 1893.8032,-628.7342 1885.3359,-635.1025 1891.1553,-638.9928"/>
</g>
<!-- u17 -->
<g id="node20" class="node">
<title>u17</title>
<ellipse fill="#bbffbb" stroke="#000000" stroke-width="2" cx="203.4622" cy="-224" rx="45.4919" ry="18"/>
<text text-anchor="middle" x="203.4622" y="-220.3" font-family="Times,serif" font-size="14.00" fill="#000000">Plumbing</text>
</g>
<!-- u16&#45;&gt;u17 -->
<g id="edge33" class="edge">
<title>u16&#45;&gt;u17</title>
<path fill="none" stroke="#000000" d="M1383.2094,-1199.1828C1189.742,-1194.3649 339.4041,-1163.7378 150.4622,-995 -55.3812,-811.168 -20.1451,-634.9901 80.4622,-378 101.3021,-324.767 147.328,-275.4254 176.7903,-247.5685"/>
<polygon fill="#000000" stroke="#000000" points="179.3175,-249.998 184.2621,-240.6278 174.5534,-244.8694 179.3175,-249.998"/>
</g>
<!-- u28 -->
<g id="node21" class="node">
<title>u28</title>
<ellipse fill="#bbffff" stroke="#000000" stroke-width="0" cx="217.4622" cy="-404" rx="31.3957" ry="18"/>
<text text-anchor="middle" x="217.4622" y="-400.3" font-family="Times,serif" font-size="14.00" fill="#000000">Logic</text>
</g>
<!-- u16&#45;&gt;u28 -->
<g id="edge45" class="edge">
<title>u16&#45;&gt;u28</title>
<path fill="none" stroke="#000000" d="M1383.4764,-1199.4241C1195.1649,-1195.7852 382.1136,-1170.005 218.4622,-995 67.1541,-833.1946 170.3563,-523.9412 206.394,-431.0419"/>
<polygon fill="#000000" stroke="#000000" points="209.7341,-432.1124 210.1467,-421.5256 203.2222,-429.5444 209.7341,-432.1124"/>
</g>
<!-- u21 -->
<g id="node25" class="node">
<title>u21</title>
<ellipse fill="#ffff77" stroke="#000000" stroke-width="0" cx="986.4622" cy="-915" rx="48.9926" ry="18"/>
<text text-anchor="middle" x="986.4622" y="-911.3" font-family="Times,serif" font-size="14.00" fill="#000000">TimeScale</text>
</g>
<!-- u16&#45;&gt;u21 -->
<g id="edge40" class="edge">
<title>u16&#45;&gt;u21</title>
<path fill="none" stroke="#000000" d="M1391.7118,-1188.8054C1323.4385,-1162.8564 1156.4124,-1093.2297 1044.4622,-995 1027.0542,-979.7254 1011.8769,-958.3135 1001.4186,-941.4848"/>
<polygon fill="#000000" stroke="#000000" points="1004.269,-939.4337 996.1098,-932.6752 998.2735,-943.0468 1004.269,-939.4337"/>
</g>
<!-- u24 -->
<g id="node28" class="node">
<title>u24</title>
<ellipse fill="#ffff77" stroke="#000000" stroke-width="0" cx="1125.4622" cy="-915" rx="72.2875" ry="18"/>
<text text-anchor="middle" x="1125.4622" y="-911.3" font-family="Times,serif" font-size="14.00" fill="#000000">TimeSpaceName</text>
</g>
<!-- u16&#45;&gt;u24 -->
<g id="edge41" class="edge">
<title>u16&#45;&gt;u24</title>
<path fill="none" stroke="#000000" d="M1404.9915,-1183.6417C1368.1011,-1149.0516 1279.6356,-1065.8448 1206.4622,-995 1187.5473,-976.687 1166.3864,-955.7724 1150.4378,-939.9215"/>
<polygon fill="#000000" stroke="#000000" points="1152.6174,-937.1528 1143.0599,-932.5806 1147.6801,-942.115 1152.6174,-937.1528"/>
</g>
<!-- u18 -->
<g id="node2" class="node">
<title>u18</title>
<ellipse fill="#bbffbb" stroke="#000000" stroke-width="0" cx="465.4622" cy="-45" rx="29.795" ry="18"/>
<text text-anchor="middle" x="465.4622" y="-41.3" font-family="Times,serif" font-size="14.00" fill="#000000">Main</text>
</g>
<!-- u29 -->
<g id="node3" class="node">
<title>u29</title>
<ellipse fill="#bbffbb" stroke="#000000" stroke-width="0" cx="2109.4622" cy="-611" rx="46.2923" ry="18"/>
<text text-anchor="middle" x="2109.4622" y="-607.3" font-family="Times,serif" font-size="14.00" fill="#000000">WithRoot</text>
</g>
<!-- u29&#45;&gt;u11 -->
<g id="edge26" class="edge">
<title>u29&#45;&gt;u11</title>
<path fill="none" stroke="#000000" d="M2083.0213,-596.2184C2074.9898,-592.1587 2066.0217,-588.0421 2057.4622,-585 1770.4636,-482.9985 1405.2855,-426.2224 1285.4885,-409.3791"/>
<polygon fill="#000000" stroke="#000000" points="1285.7084,-405.876 1275.3211,-407.963 1284.7427,-412.8091 1285.7084,-405.876"/>
</g>
<!-- u0 -->
<g id="node4" class="node">
<title>u0</title>
<ellipse fill="#ffffbb" stroke="#000000" stroke-width="0" cx="1592.4622" cy="-611" rx="50.0912" ry="18"/>
<text text-anchor="middle" x="1592.4622" y="-607.3" font-family="Times,serif" font-size="14.00" fill="#000000">BottomBar</text>
</g>
<!-- u0&#45;&gt;u11 -->
<g id="edge10" class="edge">
<title>u0&#45;&gt;u11</title>
<path fill="none" stroke="#000000" d="M1566.3808,-595.4414C1503.4574,-557.9049 1343.5481,-462.5124 1276.1552,-422.3097"/>
<polygon fill="#000000" stroke="#000000" points="1277.6606,-419.1323 1267.2795,-417.0149 1274.0744,-425.1439 1277.6606,-419.1323"/>
</g>
<!-- u10&#45;&gt;u11 -->
<g id="edge19" class="edge">
<title>u10&#45;&gt;u11</title>
<path fill="none" stroke="#000000" d="M1985.2686,-596.2137C1978.4778,-592.154 1970.8472,-588.0384 1963.4622,-585 1715.8502,-483.1235 1395.8769,-427.2085 1285.1934,-409.903"/>
<polygon fill="#000000" stroke="#000000" points="1285.5624,-406.4186 1275.1449,-408.3486 1284.4922,-413.3363 1285.5624,-406.4186"/>
</g>
<!-- u11&#45;&gt;u18 -->
<g id="edge38" class="edge">
<title>u11&#45;&gt;u18</title>
<path fill="none" stroke="#000000" d="M1221.2631,-392.8622C1107.8734,-340.6739 629.1708,-120.3479 498.5225,-60.2162"/>
<polygon fill="#000000" stroke="#000000" points="499.9266,-57.0096 489.3792,-56.0079 496.9998,-63.3684 499.9266,-57.0096"/>
</g>
<!-- u12 -->
<g id="node7" class="node">
<title>u12</title>
<ellipse fill="#ffffbb" stroke="#000000" stroke-width="0" cx="316.4622" cy="-611" rx="43.5923" ry="18"/>
<text text-anchor="middle" x="316.4622" y="-607.3" font-family="Times,serif" font-size="14.00" fill="#000000">Snackbar</text>
</g>
<!-- u12&#45;&gt;u11 -->
<g id="edge20" class="edge">
<title>u12&#45;&gt;u11</title>
<path fill="none" stroke="#000000" d="M341.5441,-596.2342C349.3292,-592.1268 358.0723,-587.9801 366.4622,-585 678.4902,-474.1682 1078.2429,-422.6123 1205.0183,-408.298"/>
<polygon fill="#000000" stroke="#000000" points="1205.5046,-411.7655 1215.055,-407.1785 1204.7286,-404.8086 1205.5046,-411.7655"/>
</g>
<!-- u12&#45;&gt;u17 -->
<g id="edge32" class="edge">
<title>u12&#45;&gt;u17</title>
<path fill="none" stroke="#000000" d="M312.4861,-593.0196C303.6685,-553.7139 281.3564,-457.3091 257.4622,-378 243.9512,-333.1545 225.372,-282.0098 213.9042,-251.4018"/>
<polygon fill="#000000" stroke="#000000" points="217.1057,-249.972 210.3053,-241.8477 210.5551,-252.4396 217.1057,-249.972"/>
</g>
<!-- u12&#45;&gt;u28 -->
<g id="edge44" class="edge">
<title>u12&#45;&gt;u28</title>
<path fill="none" stroke="#000000" d="M307.8498,-592.9922C290.3924,-556.4904 250.7582,-473.6189 230.2652,-430.7698"/>
<polygon fill="#000000" stroke="#000000" points="233.3163,-429.0372 225.8442,-421.526 227.0013,-432.0574 233.3163,-429.0372"/>
</g>
<!-- u1 -->
<g id="node8" class="node">
<title>u1</title>
<ellipse fill="#bbbbff" stroke="#000000" stroke-width="0" cx="1099.4622" cy="-611" rx="34.394" ry="18"/>
<text text-anchor="middle" x="1099.4622" y="-607.3" font-family="Times,serif" font-size="14.00" fill="#000000">EULA</text>
</g>
<!-- u1&#45;&gt;u11 -->
<g id="edge11" class="edge">
<title>u1&#45;&gt;u11</title>
<path fill="none" stroke="#000000" d="M1111.41,-594.0603C1137.0868,-557.6555 1197.6381,-471.8055 1227.7789,-429.0715"/>
<polygon fill="#000000" stroke="#000000" points="1230.6505,-431.0726 1233.5541,-420.8834 1224.9302,-427.038 1230.6505,-431.0726"/>
</g>
<!-- u2 -->
<g id="node9" class="node">
<title>u2</title>
<ellipse fill="#bbbbff" stroke="#000000" stroke-width="0" cx="684.4622" cy="-611" rx="35.194" ry="18"/>
<text text-anchor="middle" x="684.4622" y="-607.3" font-family="Times,serif" font-size="14.00" fill="#000000">Import</text>
</g>
<!-- u2&#45;&gt;u11 -->
<g id="edge12" class="edge">
<title>u2&#45;&gt;u11</title>
<path fill="none" stroke="#000000" d="M706.3854,-596.8977C713.2958,-592.7676 721.0602,-588.4417 728.4622,-585 901.6171,-504.4878 1121.2157,-438.9201 1207.8675,-414.3873"/>
<polygon fill="#000000" stroke="#000000" points="1208.847,-417.7476 1217.5238,-411.6678 1206.9494,-411.0097 1208.847,-417.7476"/>
</g>
<!-- u2&#45;&gt;u17 -->
<g id="edge30" class="edge">
<title>u2&#45;&gt;u17</title>
<path fill="none" stroke="#000000" d="M665.6278,-595.6896C619.6982,-558.3696 498.2386,-459.7735 396.4622,-378 338.0563,-331.073 269.4388,-276.4394 231.7783,-246.4965"/>
<polygon fill="#000000" stroke="#000000" points="233.7885,-243.6234 223.7825,-240.1405 229.4326,-249.103 233.7885,-243.6234"/>
</g>
<!-- u2&#45;&gt;u28 -->
<g id="edge42" class="edge">
<title>u2&#45;&gt;u28</title>
<path fill="none" stroke="#000000" d="M661.9385,-596.9341C655.1384,-592.8946 647.5855,-588.6095 640.4622,-585 500.9564,-514.3087 327.4148,-445.8753 253.5005,-417.5957"/>
<polygon fill="#000000" stroke="#000000" points="254.3368,-414.1688 243.746,-413.8758 251.8425,-420.7093 254.3368,-414.1688"/>
</g>
<!-- u3 -->
<g id="node10" class="node">
<title>u3</title>
<ellipse fill="#bbbbff" stroke="#000000" stroke-width="0" cx="819.4622" cy="-611" rx="81.7856" ry="18"/>
<text text-anchor="middle" x="819.4622" y="-607.3" font-family="Times,serif" font-size="14.00" fill="#000000">ExploreTimeSpaces</text>
</g>
<!-- u3&#45;&gt;u11 -->
<g id="edge13" class="edge">
<title>u3&#45;&gt;u11</title>
<path fill="none" stroke="#000000" d="M853.2458,-594.584C933.3321,-555.6688 1133.8967,-458.2114 1212.8222,-419.8603"/>
<polygon fill="#000000" stroke="#000000" points="1214.3633,-423.0028 1221.828,-415.4842 1211.3039,-416.7068 1214.3633,-423.0028"/>
</g>
<!-- u4&#45;&gt;u11 -->
<g id="edge14" class="edge">
<title>u4&#45;&gt;u11</title>
<path fill="none" stroke="#000000" d="M1452.0495,-594.0603C1411.5546,-556.805 1314.7742,-467.767 1269.5362,-426.1481"/>
<polygon fill="#000000" stroke="#000000" points="1271.6976,-423.3806 1261.9685,-419.1858 1266.9582,-428.5322 1271.6976,-423.3806"/>
</g>
<!-- u5&#45;&gt;u11 -->
<g id="edge15" class="edge">
<title>u5&#45;&gt;u11</title>
<path fill="none" stroke="#000000" d="M1005.3496,-593.7073C1053.2314,-555.877 1167.1303,-465.8882 1218.9614,-424.9377"/>
<polygon fill="#000000" stroke="#000000" points="1221.3418,-427.5176 1227.0185,-418.5719 1217.0022,-422.025 1221.3418,-427.5176"/>
</g>
<!-- u6&#45;&gt;u11 -->
<g id="edge16" class="edge">
<title>u6&#45;&gt;u11</title>
<path fill="none" stroke="#000000" d="M1305.7206,-592.9922C1294.1359,-556.6583 1267.9023,-474.3803 1254.1869,-431.3636"/>
<polygon fill="#000000" stroke="#000000" points="1257.516,-430.283 1251.1436,-421.8187 1250.8468,-432.4094 1257.516,-430.283"/>
</g>
<!-- u7 -->
<g id="node14" class="node">
<title>u7</title>
<ellipse fill="#bbbbff" stroke="#000000" stroke-width="0" cx="412.4622" cy="-611" rx="34.394" ry="18"/>
<text text-anchor="middle" x="412.4622" y="-607.3" font-family="Times,serif" font-size="14.00" fill="#000000">Export</text>
</g>
<!-- u7&#45;&gt;u11 -->
<g id="edge17" class="edge">
<title>u7&#45;&gt;u11</title>
<path fill="none" stroke="#000000" d="M433.7151,-596.655C440.7254,-592.417 448.7155,-588.0906 456.4622,-585 731.1027,-475.4308 1087.2551,-423.7044 1205.4208,-408.7533"/>
<polygon fill="#000000" stroke="#000000" points="1205.9716,-412.2118 1215.4607,-407.4995 1205.1041,-405.2657 1205.9716,-412.2118"/>
</g>
<!-- u7&#45;&gt;u17 -->
<g id="edge31" class="edge">
<title>u7&#45;&gt;u17</title>
<path fill="none" stroke="#000000" d="M412.8795,-592.7787C413.048,-551.7519 409.098,-450.0915 369.4622,-378 337.4629,-319.7981 275.3961,-271.342 236.8878,-245.1189"/>
<polygon fill="#000000" stroke="#000000" points="238.3663,-241.8971 228.1082,-239.2471 234.4748,-247.7157 238.3663,-241.8971"/>
</g>
<!-- u7&#45;&gt;u28 -->
<g id="edge43" class="edge">
<title>u7&#45;&gt;u28</title>
<path fill="none" stroke="#000000" d="M397.1609,-594.7571C362.7599,-558.2391 279.2118,-469.5495 239.3397,-427.2238"/>
<polygon fill="#000000" stroke="#000000" points="241.8292,-424.7622 232.4246,-419.8832 236.734,-429.5621 241.8292,-424.7622"/>
</g>
<!-- u8 -->
<g id="node15" class="node">
<title>u8</title>
<ellipse fill="#bbbbff" stroke="#000000" stroke-width="0" cx="548.4622" cy="-611" rx="83.3857" ry="18"/>
<text text-anchor="middle" x="548.4622" y="-607.3" font-family="Times,serif" font-size="14.00" fill="#000000">NewOrEditTimeline</text>
</g>
<!-- u9 -->
<g id="node16" class="node">
<title>u9</title>
<ellipse fill="#bbbbff" stroke="#000000" stroke-width="0" cx="1179.4622" cy="-611" rx="27.0966" ry="18"/>
<text text-anchor="middle" x="1179.4622" y="-607.3" font-family="Times,serif" font-size="14.00" fill="#000000">New</text>
</g>
<!-- u9&#45;&gt;u11 -->
<g id="edge18" class="edge">
<title>u9&#45;&gt;u11</title>
<path fill="none" stroke="#000000" d="M1185.0893,-593.3513C1196.6043,-557.2362 1222.9283,-474.6744 1236.6996,-431.4826"/>
<polygon fill="#000000" stroke="#000000" points="1240.0524,-432.4887 1239.7556,-421.8981 1233.3832,-430.3623 1240.0524,-432.4887"/>
</g>
<!-- u13&#45;&gt;u11 -->
<g id="edge21" class="edge">
<title>u13&#45;&gt;u11</title>
<path fill="none" stroke="#000000" d="M1677.0034,-596.4414C1670.4437,-592.5625 1663.2507,-588.4848 1656.4622,-585 1520.6586,-515.2852 1352.1754,-446.3346 1280.4358,-417.7577"/>
<polygon fill="#000000" stroke="#000000" points="1281.5543,-414.4361 1270.9685,-413.9975 1278.9703,-420.9417 1281.5543,-414.4361"/>
</g>
<!-- u14&#45;&gt;u11 -->
<g id="edge22" class="edge">
<title>u14&#45;&gt;u11</title>
<path fill="none" stroke="#000000" d="M1773.576,-596.6957C1765.9151,-592.6935 1757.4408,-588.4882 1749.4622,-585 1578.7871,-510.3824 1366.5542,-441.6953 1282.3554,-415.3609"/>
<polygon fill="#000000" stroke="#000000" points="1283.3219,-411.9961 1272.7334,-412.3618 1281.2388,-418.679 1283.3219,-411.9961"/>
</g>
<!-- u15&#45;&gt;u11 -->
<g id="edge23" class="edge">
<title>u15&#45;&gt;u11</title>
<path fill="none" stroke="#000000" d="M1877.2716,-596.6738C1868.7704,-592.627 1859.3377,-588.4032 1850.4622,-585 1641.3199,-504.8075 1380.6645,-437.3318 1283.9238,-413.3509"/>
<polygon fill="#000000" stroke="#000000" points="1284.5596,-409.9029 1274.0121,-410.9043 1282.8819,-416.6989 1284.5596,-409.9029"/>
</g>
<!-- u17&#45;&gt;u18 -->
<g id="edge39" class="edge">
<title>u17&#45;&gt;u18</title>
<path fill="none" stroke="#000000" d="M226.713,-208.1149C274.7785,-175.2763 384.9383,-100.0145 437.0919,-64.3827"/>
<polygon fill="#000000" stroke="#000000" points="439.2552,-67.1437 445.5378,-58.6125 435.3064,-61.3638 439.2552,-67.1437"/>
</g>
<!-- u17&#45;&gt;u11 -->
<g id="edge25" class="edge">
<title>u17&#45;&gt;u11</title>
<path fill="none" stroke="#000000" d="M245.3859,-231.2421C413.9901,-260.3676 1041.382,-368.7462 1205.8047,-397.1494"/>
<polygon fill="#000000" stroke="#000000" points="1205.5058,-400.6495 1215.9557,-398.9029 1206.6974,-393.7517 1205.5058,-400.6495"/>
</g>
<!-- u28&#45;&gt;u17 -->
<g id="edge37" class="edge">
<title>u28&#45;&gt;u17</title>
<path fill="none" stroke="#000000" d="M216.0428,-385.7501C213.5942,-354.2686 208.5606,-289.5502 205.6575,-252.2249"/>
<polygon fill="#000000" stroke="#000000" points="209.1296,-251.7291 204.8646,-242.0306 202.1507,-252.2719 209.1296,-251.7291"/>
</g>
<!-- u30 -->
<g id="node22" class="node">
<title>u30</title>
<ellipse fill="#ffbbff" stroke="#000000" stroke-width="0" cx="1747.4622" cy="-1200" rx="46.5926" ry="18"/>
<text text-anchor="middle" x="1747.4622" y="-1196.3" font-family="Times,serif" font-size="14.00" fill="#000000">TrimDocs</text>
</g>
<!-- u19 -->
<g id="node23" class="node">
<title>u19</title>
<ellipse fill="#ffff77" stroke="#000000" stroke-width="0" cx="1266.4622" cy="-915" rx="50.8918" ry="18"/>
<text text-anchor="middle" x="1266.4622" y="-911.3" font-family="Times,serif" font-size="14.00" fill="#000000">TimeSpace</text>
</g>
<!-- u20 -->
<g id="node24" class="node">
<title>u20</title>
<ellipse fill="#ffff77" stroke="#000000" stroke-width="0" cx="609.4622" cy="-915" rx="81.7856" ry="18"/>
<text text-anchor="middle" x="609.4622" y="-911.3" font-family="Times,serif" font-size="14.00" fill="#000000">ExploreTimeSpaces</text>
</g>
<!-- u20&#45;&gt;u3 -->
<g id="edge2" class="edge">
<title>u20&#45;&gt;u3</title>
<path fill="none" stroke="#000000" d="M621.9698,-896.8938C657.5695,-845.359 759.5626,-697.7118 801.3126,-637.2738"/>
<polygon fill="#000000" stroke="#000000" points="804.2162,-639.2284 807.0202,-629.0113 798.4568,-635.2498 804.2162,-639.2284"/>
</g>
<!-- u20&#45;&gt;u17 -->
<g id="edge34" class="edge">
<title>u20&#45;&gt;u17</title>
<path fill="none" stroke="#000000" d="M568.4883,-899.2401C455.1382,-855.2558 143.9198,-731.7299 116.4622,-691 38.662,-575.593 67.8585,-511.7214 106.4622,-378 120.9796,-327.7125 157.3228,-278.0249 181.168,-249.2158"/>
<polygon fill="#000000" stroke="#000000" points="184.0603,-251.2153 187.8311,-241.3142 178.7089,-246.7027 184.0603,-251.2153"/>
</g>
<!-- u21&#45;&gt;u0 -->
<g id="edge1" class="edge">
<title>u21&#45;&gt;u0</title>
<path fill="none" stroke="#000000" d="M1011.1026,-899.3676C1021.235,-893.2551 1033.2131,-886.4253 1044.4622,-881 1255.5957,-779.1735 1351.9037,-835.5135 1536.4622,-691 1554.5951,-676.8016 1569.2523,-655.1454 1579.0167,-637.9441"/>
<polygon fill="#000000" stroke="#000000" points="1582.221,-639.3782 1583.929,-628.9219 1576.0732,-636.0309 1582.221,-639.3782"/>
</g>
<!-- u21&#45;&gt;u5 -->
<g id="edge5" class="edge">
<title>u21&#45;&gt;u5</title>
<path fill="none" stroke="#000000" d="M986.2835,-896.8938C985.7802,-845.887 984.3477,-700.7272 983.7401,-639.1588"/>
<polygon fill="#000000" stroke="#000000" points="987.2386,-638.9762 983.64,-629.0113 980.2389,-639.0454 987.2386,-638.9762"/>
</g>
<!-- u21&#45;&gt;u17 -->
<g id="edge35" class="edge">
<title>u21&#45;&gt;u17</title>
<path fill="none" stroke="#000000" d="M963.1338,-899.0149C953.1131,-892.7044 941.0583,-885.8244 929.4622,-881 615.1606,-750.238 419.3624,-940.2119 187.4622,-691 91.8065,-588.2035 118.9181,-516.0747 144.4622,-378 153.0629,-331.5107 175.1162,-280.921 189.6888,-250.8636"/>
<polygon fill="#000000" stroke="#000000" points="192.8464,-252.3741 194.1308,-241.8574 186.5684,-249.2777 192.8464,-252.3741"/>
</g>
<!-- u21&#45;&gt;u28 -->
<g id="edge46" class="edge">
<title>u21&#45;&gt;u28</title>
<path fill="none" stroke="#000000" d="M963.0983,-899.0992C953.072,-892.8023 941.0225,-885.9097 929.4622,-881 633.1404,-755.1509 431.7235,-942.2738 230.4622,-691 169.5324,-614.9294 194.0445,-487.7726 209.0618,-431.8399"/>
<polygon fill="#000000" stroke="#000000" points="212.506,-432.5184 211.8216,-421.9457 205.7634,-430.6376 212.506,-432.5184"/>
</g>
<!-- u22 -->
<g id="node26" class="node">
<title>u22</title>
<ellipse fill="#ffff77" stroke="#000000" stroke-width="0" cx="889.4622" cy="-915" rx="30.5947" ry="18"/>
<text text-anchor="middle" x="889.4622" y="-911.3" font-family="Times,serif" font-size="14.00" fill="#000000">Index</text>
</g>
<!-- u23 -->
<g id="node27" class="node">
<title>u23</title>
<ellipse fill="#ffff77" stroke="#000000" stroke-width="0" cx="775.4622" cy="-915" rx="65.7887" ry="18"/>
<text text-anchor="middle" x="775.4622" y="-911.3" font-family="Times,serif" font-size="14.00" fill="#000000">StoredTimeline</text>
</g>
<!-- u24&#45;&gt;u10 -->
<g id="edge9" class="edge">
<title>u24&#45;&gt;u10</title>
<path fill="none" stroke="#000000" d="M1160.1058,-899.097C1174.29,-892.9452 1190.9805,-886.1591 1206.4622,-881 1535.5509,-771.3352 1688.7785,-902.8362 1963.4622,-691 1980.4603,-677.8911 1991.7873,-656.2646 1998.6865,-638.8003"/>
<polygon fill="#000000" stroke="#000000" points="2002.0888,-639.6881 2002.2464,-629.0944 1995.5169,-637.2776 2002.0888,-639.6881"/>
</g>
<!-- u24&#45;&gt;u6 -->
<g id="edge7" class="edge">
<title>u24&#45;&gt;u6</title>
<path fill="none" stroke="#000000" d="M1136.5403,-896.8938C1168.0069,-845.4646 1258.0383,-698.3165 1295.1588,-637.6464"/>
<polygon fill="#000000" stroke="#000000" points="1298.2086,-639.368 1300.4421,-629.0113 1292.2375,-635.7147 1298.2086,-639.368"/>
</g>
<!-- u24&#45;&gt;u17 -->
<g id="edge36" class="edge">
<title>u24&#45;&gt;u17</title>
<path fill="none" stroke="#000000" d="M1091.2626,-899.1264C1077.0006,-892.9074 1060.1354,-886.0647 1044.4622,-881 688.4871,-765.9682 484.6279,-959.8204 224.4622,-691 175.5479,-640.4585 171.5871,-448.0896 177.4622,-378 181.1698,-333.7689 190.767,-283.1349 197.2057,-252.3726"/>
<polygon fill="#000000" stroke="#000000" points="200.6775,-252.8731 199.3365,-242.3635 193.8309,-251.4155 200.6775,-252.8731"/>
</g>
<!-- u24&#45;&gt;u28 -->
<g id="edge47" class="edge">
<title>u24&#45;&gt;u28</title>
<path fill="none" stroke="#000000" d="M1090.8399,-899.0329C1076.6588,-892.8718 1059.9648,-886.096 1044.4622,-881 703.8612,-769.0385 502.4472,-955.5518 260.4622,-691 226.2275,-653.5726 219.245,-497.4743 217.8239,-432.5351"/>
<polygon fill="#000000" stroke="#000000" points="221.3174,-432.1525 217.6289,-422.2205 214.3187,-432.2849 221.3174,-432.1525"/>
</g>
<!-- u25 -->
<g id="node29" class="node">
<title>u25</title>
<ellipse fill="#ffff77" stroke="#000000" stroke-width="0" cx="478.4622" cy="-915" rx="31.3957" ry="18"/>
<text text-anchor="middle" x="478.4622" y="-911.3" font-family="Times,serif" font-size="14.00" fill="#000000">Event</text>
</g>
<!-- u26 -->
<g id="node30" class="node">
<title>u26</title>
<ellipse fill="#ffff77" stroke="#000000" stroke-width="0" cx="381.4622" cy="-915" rx="47.3916" ry="18"/>
<text text-anchor="middle" x="381.4622" y="-911.3" font-family="Times,serif" font-size="14.00" fill="#000000">TimeSpan</text>
</g>
<!-- u27 -->
<g id="node31" class="node">
<title>u27</title>
<ellipse fill="#ffff77" stroke="#000000" stroke-width="0" cx="273.4622" cy="-915" rx="42.7926" ry="18"/>
<text text-anchor="middle" x="273.4622" y="-911.3" font-family="Times,serif" font-size="14.00" fill="#000000">Timeline</text>
</g>
</g>
</svg>
