<?xml version="1.0" encoding="UTF-8" standalone="no"?>
<!DOCTYPE svg PUBLIC "-//W3C//DTD SVG 1.1//EN"
 "http://www.w3.org/Graphics/SVG/1.1/DTD/svg11.dtd">
<!-- Generated by graphviz version 2.40.1 (20161225.0304)
 -->
<!-- Title: Modules Pages: 1 -->
<svg width="864pt" height="515pt"
 viewBox="0.00 0.00 864.00 515.34" xmlns="http://www.w3.org/2000/svg" xmlns:xlink="http://www.w3.org/1999/xlink">
<g id="graph0" class="graph" transform="scale(.3791 .3791) rotate(0) translate(4 1355.3333)">
<title>Modules</title>
<polygon fill="#ffffff" stroke="transparent" points="-4,4 -4,-1355.3333 2274.9995,-1355.3333 2274.9995,4 -4,4"/>
<g id="clust1" class="cluster">
<title>cluster_0</title>
<polygon fill="#000000" fill-opacity="0.058824" stroke="#000000" stroke-opacity="0.058824" points="311.2609,-341.601 311.2609,-816.3259 2114.2609,-816.3259 2114.2609,-341.601 311.2609,-341.601"/>
<text text-anchor="middle" x="1212.7609" y="-801.1259" font-family="Times,serif" font-size="14.00" fill="#000000">Components</text>
</g>
<g id="clust2" class="cluster">
<title>cluster_1</title>
<polygon fill="#000000" fill-opacity="0.058824" stroke="#000000" stroke-opacity="0.058824" points="629.2609,-550.0781 629.2609,-738.461 1791.2609,-738.461 1791.2609,-550.0781 629.2609,-550.0781"/>
<text text-anchor="middle" x="1210.2609" y="-723.261" font-family="Times,serif" font-size="14.00" fill="#000000">Dialogs</text>
</g>
<g id="clust3" class="cluster">
<title>cluster_2</title>
<polygon fill="#000000" fill-opacity="0.058824" stroke="#000000" stroke-opacity="0.058824" points="1799.2609,-550.0781 1799.2609,-738.461 2106.2609,-738.461 2106.2609,-550.0781 1799.2609,-550.0781"/>
<text text-anchor="middle" x="1952.7609" y="-723.261" font-family="Times,serif" font-size="14.00" fill="#000000">Drawers</text>
</g>
<g id="clust4" class="cluster">
<title>cluster_3</title>
<polygon fill="#000000" fill-opacity="0.058824" stroke="#000000" stroke-opacity="0.058824" points="1638.2609,-856.5143 1638.2609,-1044.8971 1754.2609,-1044.8971 1754.2609,-856.5143 1638.2609,-856.5143"/>
<text text-anchor="middle" x="1696.2609" y="-1029.6971" font-family="Times,serif" font-size="14.00" fill="#000000">MaterialUI</text>
</g>
<g id="clust5" class="cluster">
<title>cluster_4</title>
<polygon fill="#000000" fill-opacity="0.058824" stroke="#000000" stroke-opacity="0.058824" points="197.2609,-160.7534 197.2609,-529.9839 303.2609,-529.9839 303.2609,-160.7534 197.2609,-160.7534"/>
<text text-anchor="middle" x="250.2609" y="-514.7839" font-family="Times,serif" font-size="14.00" fill="#000000">Plumbing</text>
</g>
<g id="clust6" class="cluster">
<title>cluster_5</title>
<polygon fill="#000000" fill-opacity="0.058824" stroke="#000000" stroke-opacity="0.058824" points="1704.2609,-1142.8563 1704.2609,-1331.2392 1814.2609,-1331.2392 1814.2609,-1142.8563 1704.2609,-1142.8563"/>
<text text-anchor="middle" x="1759.2609" y="-1316.0392" font-family="Times,serif" font-size="14.00" fill="#000000">Scripts</text>
</g>
<g id="clust7" class="cluster">
<title>cluster_6</title>
<polygon fill="#000000" fill-opacity="0.058824" stroke="#000000" stroke-opacity="0.058824" points="195.2609,-836.4201 195.2609,-1122.7621 1313.2609,-1122.7621 1313.2609,-836.4201 195.2609,-836.4201"/>
<text text-anchor="middle" x="754.2609" y="-1107.5621" font-family="Times,serif" font-size="14.00" fill="#000000">Timeline</text>
</g>
<g id="clust8" class="cluster">
<title>cluster_7</title>
<polygon fill="#000000" fill-opacity="0.058824" stroke="#000000" stroke-opacity="0.058824" points="203.2609,-856.5143 203.2609,-1044.8971 1305.2609,-1044.8971 1305.2609,-856.5143 203.2609,-856.5143"/>
<text text-anchor="middle" x="754.2609" y="-1029.6971" font-family="Times,serif" font-size="14.00" fill="#000000">UI</text>
</g>
<!-- u17 -->
<g id="node1" class="node">
<title>u17</title>
<ellipse fill="#bbffbb" stroke="#000000" stroke-width="0" cx="1437.2609" cy="-1208" rx="38.9931" ry="18"/>
<text text-anchor="middle" x="1437.2609" y="-1204.3" font-family="Times,serif" font-size="14.00" fill="#000000">Settings</text>
</g>
<!-- u11 -->
<g id="node5" class="node">
<title>u11</title>
<ellipse fill="#ffffbb" stroke="#000000" stroke-width="0" cx="581.2609" cy="-615" rx="37.8943" ry="18"/>
<text text-anchor="middle" x="581.2609" y="-611.3" font-family="Times,serif" font-size="14.00" fill="#000000">TopBar</text>
</g>
<!-- u17&#45;&gt;u11 -->
<g id="edge9" class="edge">
<title>u17&#45;&gt;u11</title>
<path fill="none" stroke="#000000" d="M1430.6078,-1190.1159C1406.0667,-1124.3188 1321.4099,-898.9306 1309.2609,-888 1074.4421,-676.7324 872.5553,-891.5179 625.2609,-695 608.4554,-681.6452 597.1172,-660.0329 590.1647,-642.6366"/>
<polygon fill="#000000" stroke="#000000" points="593.3375,-641.127 586.5698,-632.9754 586.777,-643.5682 593.3375,-641.127"/>
</g>
<!-- u12 -->
<g id="node6" class="node">
<title>u12</title>
<ellipse fill="#ffffbb" stroke="#000000" stroke-width="0" cx="1300.2609" cy="-407" rx="30.5947" ry="18"/>
<text text-anchor="middle" x="1300.2609" y="-403.3" font-family="Times,serif" font-size="14.00" fill="#000000">Index</text>
</g>
<!-- u17&#45;&gt;u12 -->
<g id="edge25" class="edge">
<title>u17&#45;&gt;u12</title>
<path fill="none" stroke="#000000" d="M1470.9527,-1198.8026C1650.3053,-1148.3001 2475.439,-895.7591 2223.2609,-589 2108.7027,-449.647 1504.5998,-415.2732 1341.0966,-408.467"/>
<polygon fill="#000000" stroke="#000000" points="1341.1073,-404.9646 1330.974,-408.0577 1340.8244,-411.9589 1341.1073,-404.9646"/>
</g>
<!-- u5 -->
<g id="node11" class="node">
<title>u5</title>
<ellipse fill="#bbbbff" stroke="#000000" stroke-width="0" cx="1537.2609" cy="-615" rx="53.8905" ry="18"/>
<text text-anchor="middle" x="1537.2609" y="-611.3" font-family="Times,serif" font-size="14.00" fill="#000000">SettingsEdit</text>
</g>
<!-- u17&#45;&gt;u5 -->
<g id="edge3" class="edge">
<title>u17&#45;&gt;u5</title>
<path fill="none" stroke="#000000" d="M1440.3083,-1189.9289C1454.5978,-1105.1921 1515.0035,-746.9863 1532.4961,-643.2547"/>
<polygon fill="#000000" stroke="#000000" points="1535.9765,-643.6641 1534.1881,-633.2213 1529.0739,-642.5 1535.9765,-643.6641"/>
</g>
<!-- u6 -->
<g id="node12" class="node">
<title>u6</title>
<ellipse fill="#bbbbff" stroke="#000000" stroke-width="0" cx="1242.2609" cy="-615" rx="63.8893" ry="18"/>
<text text-anchor="middle" x="1242.2609" y="-611.3" font-family="Times,serif" font-size="14.00" fill="#000000">TimeScaleEdit</text>
</g>
<!-- u17&#45;&gt;u6 -->
<g id="edge4" class="edge">
<title>u17&#45;&gt;u6</title>
<path fill="none" stroke="#000000" d="M1434.2419,-1189.9884C1425.74,-1140.7904 1399.7509,-1000.3096 1362.2609,-888 1331.2814,-795.1942 1280.6467,-690.6374 1256.2581,-642.2531"/>
<polygon fill="#000000" stroke="#000000" points="1259.2491,-640.4124 1251.6062,-633.075 1253.0054,-643.5771 1259.2491,-640.4124"/>
</g>
<!-- u7 -->
<g id="node13" class="node">
<title>u7</title>
<ellipse fill="#bbbbff" stroke="#000000" stroke-width="0" cx="1696.2609" cy="-615" rx="87.1846" ry="18"/>
<text text-anchor="middle" x="1696.2609" y="-611.3" font-family="Times,serif" font-size="14.00" fill="#000000">TimeSpaceNameEdit</text>
</g>
<!-- u17&#45;&gt;u7 -->
<g id="edge7" class="edge">
<title>u17&#45;&gt;u7</title>
<path fill="none" stroke="#000000" d="M1445.0122,-1190.2527C1481.8712,-1105.8613 1639.4799,-745.0044 1684.3177,-642.3447"/>
<polygon fill="#000000" stroke="#000000" points="1687.6181,-643.5327 1688.4132,-632.9677 1681.2032,-640.7309 1687.6181,-643.5327"/>
</g>
<!-- u14 -->
<g id="node17" class="node">
<title>u14</title>
<ellipse fill="#ffbbbb" stroke="#000000" stroke-width="0" cx="1957.2609" cy="-615" rx="39.7935" ry="18"/>
<text text-anchor="middle" x="1957.2609" y="-611.3" font-family="Times,serif" font-size="14.00" fill="#000000">Siblings</text>
</g>
<!-- u17&#45;&gt;u14 -->
<g id="edge28" class="edge">
<title>u17&#45;&gt;u14</title>
<path fill="none" stroke="#000000" d="M1466.1089,-1195.8075C1527.0089,-1168.8441 1670.3095,-1098.7884 1758.2609,-1002 1861.6814,-888.1881 1926.4494,-710.6968 1948.6476,-642.7454"/>
<polygon fill="#000000" stroke="#000000" points="1951.9973,-643.7615 1951.7291,-633.1701 1945.3339,-641.617 1951.9973,-643.7615"/>
</g>
<!-- u15 -->
<g id="node18" class="node">
<title>u15</title>
<ellipse fill="#ffbbbb" stroke="#000000" stroke-width="0" cx="2056.2609" cy="-615" rx="41.6928" ry="18"/>
<text text-anchor="middle" x="2056.2609" y="-611.3" font-family="Times,serif" font-size="14.00" fill="#000000">Children</text>
</g>
<!-- u17&#45;&gt;u15 -->
<g id="edge29" class="edge">
<title>u17&#45;&gt;u15</title>
<path fill="none" stroke="#000000" d="M1468.2774,-1196.9878C1536.6482,-1171.508 1702.7729,-1102.859 1810.2609,-1002 1928.9543,-890.6266 2014.9623,-710.3192 2044.79,-642.2135"/>
<polygon fill="#000000" stroke="#000000" points="2048.0175,-643.5681 2048.7804,-633.0008 2041.5941,-640.7859 2048.0175,-643.5681"/>
</g>
<!-- u16 -->
<g id="node19" class="node">
<title>u16</title>
<ellipse fill="#ffbbbb" stroke="#000000" stroke-width="0" cx="1853.2609" cy="-615" rx="46.2923" ry="18"/>
<text text-anchor="middle" x="1853.2609" y="-611.3" font-family="Times,serif" font-size="14.00" fill="#000000">Timelines</text>
</g>
<!-- u17&#45;&gt;u16 -->
<g id="edge30" class="edge">
<title>u17&#45;&gt;u16</title>
<path fill="none" stroke="#000000" d="M1448.118,-1190.6796C1470.2713,-1155.305 1522.226,-1072.1713 1565.2609,-1002 1596.2233,-951.5135 1599.8606,-936.2098 1634.2609,-888 1699.144,-797.0703 1726.6599,-783.1585 1795.2609,-695 1809.128,-677.1794 1824.0682,-656.5353 1835.3121,-640.6821"/>
<polygon fill="#000000" stroke="#000000" points="1838.2397,-642.6039 1841.1481,-632.4161 1832.5213,-638.5666 1838.2397,-642.6039"/>
</g>
<!-- u18 -->
<g id="node21" class="node">
<title>u18</title>
<ellipse fill="#bbffbb" stroke="#000000" stroke-width="2" cx="250.2609" cy="-226" rx="45.4919" ry="18"/>
<text text-anchor="middle" x="250.2609" y="-222.3" font-family="Times,serif" font-size="14.00" fill="#000000">Plumbing</text>
</g>
<!-- u17&#45;&gt;u18 -->
<g id="edge34" class="edge">
<title>u17&#45;&gt;u18</title>
<path fill="none" stroke="#000000" d="M1398.0065,-1207.543C1201.6466,-1204.4335 328.0491,-1180.6075 141.2609,-1002 -58.7431,-810.7556 -20.1633,-632.0407 96.2609,-381 123.2253,-322.8577 181.6762,-273.9469 218.3076,-247.4077"/>
<polygon fill="#000000" stroke="#000000" points="220.5473,-250.1099 226.6695,-241.463 216.4913,-244.4047 220.5473,-250.1099"/>
</g>
<!-- u29 -->
<g id="node22" class="node">
<title>u29</title>
<ellipse fill="#ffbbff" stroke="#000000" stroke-width="0" cx="264.2609" cy="-407" rx="31.3957" ry="18"/>
<text text-anchor="middle" x="264.2609" y="-403.3" font-family="Times,serif" font-size="14.00" fill="#000000">Logic</text>
</g>
<!-- u17&#45;&gt;u29 -->
<g id="edge46" class="edge">
<title>u17&#45;&gt;u29</title>
<path fill="none" stroke="#000000" d="M1398.9518,-1204.5466C1198.8216,-1186.129 279.5497,-1096.7527 199.2609,-1002 53.9271,-830.4848 200.6562,-523.9239 249.6024,-433.0627"/>
<polygon fill="#000000" stroke="#000000" points="252.6978,-434.697 254.4143,-424.2421 246.5527,-431.3446 252.6978,-434.697"/>
</g>
<!-- u22 -->
<g id="node26" class="node">
<title>u22</title>
<ellipse fill="#7777ff" stroke="#000000" stroke-width="0" cx="557.2609" cy="-922" rx="48.9926" ry="18"/>
<text text-anchor="middle" x="557.2609" y="-918.3" font-family="Times,serif" font-size="14.00" fill="#000000">TimeScale</text>
</g>
<!-- u17&#45;&gt;u22 -->
<g id="edge41" class="edge">
<title>u17&#45;&gt;u22</title>
<path fill="none" stroke="#000000" d="M1399.9853,-1202.1853C1257.3911,-1179.4159 747.8139,-1093.0742 614.2609,-1002 594.8834,-988.7859 579.8751,-966.6804 570.1341,-949.0509"/>
<polygon fill="#000000" stroke="#000000" points="573.0225,-947.0236 565.2701,-939.8021 566.8271,-950.2819 573.0225,-947.0236"/>
</g>
<!-- u25 -->
<g id="node29" class="node">
<title>u25</title>
<ellipse fill="#7777ff" stroke="#000000" stroke-width="0" cx="1105.2609" cy="-922" rx="72.2875" ry="18"/>
<text text-anchor="middle" x="1105.2609" y="-918.3" font-family="Times,serif" font-size="14.00" fill="#000000">TimeSpaceName</text>
</g>
<!-- u17&#45;&gt;u25 -->
<g id="edge42" class="edge">
<title>u17&#45;&gt;u25</title>
<path fill="none" stroke="#000000" d="M1416.8898,-1192.318C1373.4617,-1158.664 1268.9874,-1076.514 1186.2609,-1002 1166.5726,-984.2662 1145.2914,-963.1668 1129.4851,-947.0901"/>
<polygon fill="#000000" stroke="#000000" points="1131.6909,-944.3397 1122.1964,-939.6381 1126.6866,-949.2344 1131.6909,-944.3397"/>
</g>
<!-- u19 -->
<g id="node2" class="node">
<title>u19</title>
<ellipse fill="#bbffbb" stroke="#000000" stroke-width="0" cx="286.2609" cy="-45" rx="29.795" ry="18"/>
<text text-anchor="middle" x="286.2609" y="-41.3" font-family="Times,serif" font-size="14.00" fill="#000000">Main</text>
</g>
<!-- u30 -->
<g id="node3" class="node">
<title>u30</title>
<ellipse fill="#bbffbb" stroke="#000000" stroke-width="0" cx="2168.2609" cy="-615" rx="46.2923" ry="18"/>
<text text-anchor="middle" x="2168.2609" y="-611.3" font-family="Times,serif" font-size="14.00" fill="#000000">WithRoot</text>
</g>
<!-- u30&#45;&gt;u12 -->
<g id="edge27" class="edge">
<title>u30&#45;&gt;u12</title>
<path fill="none" stroke="#000000" d="M2139.5059,-600.7416C2130.3154,-596.5574 2119.9984,-592.2401 2110.2609,-589 1821.8564,-493.0352 1458.9458,-431.6715 1339.9917,-413.0237"/>
<polygon fill="#000000" stroke="#000000" points="1340.316,-409.5321 1329.8966,-411.4522 1339.2392,-416.4488 1340.316,-409.5321"/>
</g>
<!-- u1 -->
<g id="node4" class="node">
<title>u1</title>
<ellipse fill="#ffffbb" stroke="#000000" stroke-width="0" cx="475.2609" cy="-615" rx="50.0912" ry="18"/>
<text text-anchor="middle" x="475.2609" y="-611.3" font-family="Times,serif" font-size="14.00" fill="#000000">BottomBar</text>
</g>
<!-- u1&#45;&gt;u12 -->
<g id="edge11" class="edge">
<title>u1&#45;&gt;u12</title>
<path fill="none" stroke="#000000" d="M505.1622,-600.5638C514.3591,-596.4677 524.6053,-592.2445 534.2609,-589 805.971,-497.6978 1146.5322,-433.8524 1260.8243,-413.746"/>
<polygon fill="#000000" stroke="#000000" points="1261.6103,-417.1617 1270.8578,-411.9913 1260.4044,-410.2664 1261.6103,-417.1617"/>
</g>
<!-- u11&#45;&gt;u12 -->
<g id="edge20" class="edge">
<title>u11&#45;&gt;u12</title>
<path fill="none" stroke="#000000" d="M603.4862,-600.2901C610.2779,-596.2325 617.9011,-592.099 625.2609,-589 856.6573,-491.5658 1154.8336,-432.7588 1260.7762,-413.7729"/>
<polygon fill="#000000" stroke="#000000" points="1261.4767,-417.2034 1270.7107,-412.0088 1260.2527,-410.3112 1261.4767,-417.2034"/>
</g>
<!-- u12&#45;&gt;u19 -->
<g id="edge39" class="edge">
<title>u12&#45;&gt;u19</title>
<path fill="none" stroke="#000000" d="M1273.9189,-397.5959C1134.4361,-347.8003 482.419,-115.0289 321.9912,-57.7558"/>
<polygon fill="#000000" stroke="#000000" points="322.7403,-54.3069 312.1456,-54.2409 320.3867,-60.8994 322.7403,-54.3069"/>
</g>
<!-- u13 -->
<g id="node7" class="node">
<title>u13</title>
<ellipse fill="#ffffbb" stroke="#000000" stroke-width="0" cx="363.2609" cy="-615" rx="43.5923" ry="18"/>
<text text-anchor="middle" x="363.2609" y="-611.3" font-family="Times,serif" font-size="14.00" fill="#000000">Snackbar</text>
</g>
<!-- u13&#45;&gt;u12 -->
<g id="edge21" class="edge">
<title>u13&#45;&gt;u12</title>
<path fill="none" stroke="#000000" d="M389.3904,-600.5525C397.7817,-596.3594 407.2423,-592.0846 416.2609,-589 731.709,-481.1067 1133.4449,-426.8389 1260.1335,-411.5871"/>
<polygon fill="#000000" stroke="#000000" points="1260.6421,-415.0514 1270.1579,-410.393 1259.8141,-408.1005 1260.6421,-415.0514"/>
</g>
<!-- u13&#45;&gt;u18 -->
<g id="edge33" class="edge">
<title>u13&#45;&gt;u18</title>
<path fill="none" stroke="#000000" d="M359.2811,-596.9448C350.4562,-557.4751 328.1306,-460.6653 304.2609,-381 290.7401,-335.8745 272.1637,-284.3945 260.6991,-253.5839"/>
<polygon fill="#000000" stroke="#000000" points="263.8833,-252.1063 257.1014,-243.9666 257.3271,-254.559 263.8833,-252.1063"/>
</g>
<!-- u13&#45;&gt;u29 -->
<g id="edge45" class="edge">
<title>u13&#45;&gt;u29</title>
<path fill="none" stroke="#000000" d="M354.8202,-597.266C337.4246,-560.7177 297.4972,-476.83 276.9656,-433.6928"/>
<polygon fill="#000000" stroke="#000000" points="279.9985,-431.9209 272.5405,-424.3957 273.6779,-434.9293 279.9985,-431.9209"/>
</g>
<!-- u2 -->
<g id="node8" class="node">
<title>u2</title>
<ellipse fill="#bbbbff" stroke="#000000" stroke-width="0" cx="1358.2609" cy="-615" rx="34.394" ry="18"/>
<text text-anchor="middle" x="1358.2609" y="-611.3" font-family="Times,serif" font-size="14.00" fill="#000000">EULA</text>
</g>
<!-- u2&#45;&gt;u12 -->
<g id="edge12" class="edge">
<title>u2&#45;&gt;u12</title>
<path fill="none" stroke="#000000" d="M1353.2152,-596.9052C1343.0561,-560.4728 1320.0782,-478.0689 1308.0044,-434.7699"/>
<polygon fill="#000000" stroke="#000000" points="1311.311,-433.5972 1305.2535,-424.9048 1304.5682,-435.4775 1311.311,-433.5972"/>
</g>
<!-- u3 -->
<g id="node9" class="node">
<title>u3</title>
<ellipse fill="#bbbbff" stroke="#000000" stroke-width="0" cx="672.2609" cy="-615" rx="35.194" ry="18"/>
<text text-anchor="middle" x="672.2609" y="-611.3" font-family="Times,serif" font-size="14.00" fill="#000000">Import</text>
</g>
<!-- u3&#45;&gt;u12 -->
<g id="edge13" class="edge">
<title>u3&#45;&gt;u12</title>
<path fill="none" stroke="#000000" d="M694.112,-600.7391C701.0194,-596.6026 708.8003,-592.313 716.2609,-589 913.8555,-501.2554 1166.5065,-437.9685 1261.6867,-415.7304"/>
<polygon fill="#000000" stroke="#000000" points="1262.5037,-419.1339 1271.4535,-413.4638 1260.9212,-412.3151 1262.5037,-419.1339"/>
</g>
<!-- u3&#45;&gt;u18 -->
<g id="edge31" class="edge">
<title>u3&#45;&gt;u18</title>
<path fill="none" stroke="#000000" d="M664.7198,-597.4162C646.0354,-555.5004 593.9465,-448.1948 523.2609,-381 453.6185,-314.797 350.4215,-266.2664 292.9158,-242.4654"/>
<polygon fill="#000000" stroke="#000000" points="293.9906,-239.1238 283.4095,-238.5843 291.3447,-245.6045 293.9906,-239.1238"/>
</g>
<!-- u3&#45;&gt;u29 -->
<g id="edge43" class="edge">
<title>u3&#45;&gt;u29</title>
<path fill="none" stroke="#000000" d="M651.5278,-600.4564C645.7138,-596.5775 639.3233,-592.4962 633.2609,-589 513.8303,-520.1249 364.7387,-451.6522 298.598,-422.1251"/>
<polygon fill="#000000" stroke="#000000" points="300.014,-418.9244 289.4548,-418.0559 297.1677,-425.3196 300.014,-418.9244"/>
</g>
<!-- u4 -->
<g id="node10" class="node">
<title>u4</title>
<ellipse fill="#bbbbff" stroke="#000000" stroke-width="0" cx="1078.2609" cy="-615" rx="81.7856" ry="18"/>
<text text-anchor="middle" x="1078.2609" y="-611.3" font-family="Times,serif" font-size="14.00" fill="#000000">ExploreTimeSpaces</text>
</g>
<!-- u4&#45;&gt;u12 -->
<g id="edge14" class="edge">
<title>u4&#45;&gt;u12</title>
<path fill="none" stroke="#000000" d="M1097.1884,-597.266C1137.5462,-559.4534 1231.9856,-470.9696 1276.3894,-429.366"/>
<polygon fill="#000000" stroke="#000000" points="1278.9195,-431.7917 1283.8239,-422.4004 1274.1334,-426.6835 1278.9195,-431.7917"/>
</g>
<!-- u5&#45;&gt;u12 -->
<g id="edge15" class="edge">
<title>u5&#45;&gt;u12</title>
<path fill="none" stroke="#000000" d="M1517.8661,-597.9785C1475.0187,-560.374 1372.3466,-470.2651 1324.9759,-428.6909"/>
<polygon fill="#000000" stroke="#000000" points="1327.1568,-425.9481 1317.3321,-421.9824 1322.5394,-431.2092 1327.1568,-425.9481"/>
</g>
<!-- u6&#45;&gt;u12 -->
<g id="edge16" class="edge">
<title>u6&#45;&gt;u12</title>
<path fill="none" stroke="#000000" d="M1247.3065,-596.9052C1257.4656,-560.4728 1280.4435,-478.0689 1292.5173,-434.7699"/>
<polygon fill="#000000" stroke="#000000" points="1295.9535,-435.4775 1295.2682,-424.9048 1289.2107,-433.5972 1295.9535,-435.4775"/>
</g>
<!-- u7&#45;&gt;u12 -->
<g id="edge17" class="edge">
<title>u7&#45;&gt;u12</title>
<path fill="none" stroke="#000000" d="M1664.1899,-598.1547C1589.8512,-559.108 1406.4612,-462.782 1332.226,-423.7898"/>
<polygon fill="#000000" stroke="#000000" points="1333.7976,-420.6619 1323.317,-419.1103 1330.5425,-426.859 1333.7976,-420.6619"/>
</g>
<!-- u8 -->
<g id="node14" class="node">
<title>u8</title>
<ellipse fill="#bbbbff" stroke="#000000" stroke-width="0" cx="944.2609" cy="-615" rx="34.394" ry="18"/>
<text text-anchor="middle" x="944.2609" y="-611.3" font-family="Times,serif" font-size="14.00" fill="#000000">Export</text>
</g>
<!-- u8&#45;&gt;u12 -->
<g id="edge18" class="edge">
<title>u8&#45;&gt;u12</title>
<path fill="none" stroke="#000000" d="M966.9795,-601.1637C973.513,-597.2117 980.6576,-592.9157 987.2609,-589 1090.2053,-527.9538 1213.1606,-457.0377 1269.4152,-424.702"/>
<polygon fill="#000000" stroke="#000000" points="1271.2483,-427.6854 1278.1752,-419.6686 1267.7608,-421.6159 1271.2483,-427.6854"/>
</g>
<!-- u8&#45;&gt;u18 -->
<g id="edge32" class="edge">
<title>u8&#45;&gt;u18</title>
<path fill="none" stroke="#000000" d="M922.9722,-600.7885C866.1506,-563.0852 705.7338,-458.1325 566.2609,-381 468.8063,-327.1048 349.9546,-271.3897 289.5637,-243.7613"/>
<polygon fill="#000000" stroke="#000000" points="290.9361,-240.5404 280.3856,-239.5728 288.0299,-246.9086 290.9361,-240.5404"/>
</g>
<!-- u8&#45;&gt;u29 -->
<g id="edge44" class="edge">
<title>u8&#45;&gt;u29</title>
<path fill="none" stroke="#000000" d="M922.4568,-600.6314C915.5513,-596.4906 907.7596,-592.2255 900.2609,-589 683.7663,-495.8782 405.702,-435.1058 303.875,-414.6545"/>
<polygon fill="#000000" stroke="#000000" points="304.5082,-411.2119 294.017,-412.6904 303.1403,-418.077 304.5082,-411.2119"/>
</g>
<!-- u9 -->
<g id="node15" class="node">
<title>u9</title>
<ellipse fill="#bbbbff" stroke="#000000" stroke-width="0" cx="808.2609" cy="-615" rx="83.3857" ry="18"/>
<text text-anchor="middle" x="808.2609" y="-611.3" font-family="Times,serif" font-size="14.00" fill="#000000">NewOrEditTimeline</text>
</g>
<!-- u10 -->
<g id="node16" class="node">
<title>u10</title>
<ellipse fill="#bbbbff" stroke="#000000" stroke-width="0" cx="1438.2609" cy="-615" rx="27.0966" ry="18"/>
<text text-anchor="middle" x="1438.2609" y="-611.3" font-family="Times,serif" font-size="14.00" fill="#000000">New</text>
</g>
<!-- u10&#45;&gt;u12 -->
<g id="edge19" class="edge">
<title>u10&#45;&gt;u12</title>
<path fill="none" stroke="#000000" d="M1427.201,-598.3301C1403.1373,-562.0601 1345.8931,-475.779 1317.2273,-432.5726"/>
<polygon fill="#000000" stroke="#000000" points="1320.0114,-430.438 1311.5663,-424.0401 1314.1784,-434.308 1320.0114,-430.438"/>
</g>
<!-- u14&#45;&gt;u12 -->
<g id="edge22" class="edge">
<title>u14&#45;&gt;u12</title>
<path fill="none" stroke="#000000" d="M1932.7894,-600.8008C1925.0914,-596.6668 1916.4577,-592.3631 1908.2609,-589 1699.752,-503.4511 1436.2863,-438.419 1338.802,-415.7334"/>
<polygon fill="#000000" stroke="#000000" points="1339.3492,-412.2677 1328.8176,-413.4234 1337.7712,-419.0875 1339.3492,-412.2677"/>
</g>
<!-- u15&#45;&gt;u12 -->
<g id="edge23" class="edge">
<title>u15&#45;&gt;u12</title>
<path fill="none" stroke="#000000" d="M2031.0844,-600.4904C2023.2961,-596.3918 2014.5749,-592.1856 2006.2609,-589 1760.3645,-494.7816 1447.8794,-433.5033 1339.4235,-413.8496"/>
<polygon fill="#000000" stroke="#000000" points="1340.0355,-410.4036 1329.5738,-412.0779 1338.7962,-417.293 1340.0355,-410.4036"/>
</g>
<!-- u16&#45;&gt;u12 -->
<g id="edge24" class="edge">
<title>u16&#45;&gt;u12</title>
<path fill="none" stroke="#000000" d="M1823.3279,-601.1077C1814.3573,-597.073 1804.4582,-592.7471 1795.2609,-589 1625.5421,-519.855 1418.6272,-447.5784 1336.4248,-419.3339"/>
<polygon fill="#000000" stroke="#000000" points="1337.3963,-415.967 1326.8017,-416.0329 1335.125,-422.5883 1337.3963,-415.967"/>
</g>
<!-- u0 -->
<g id="node20" class="node">
<title>u0</title>
<ellipse fill="#bbffff" stroke="#000000" stroke-width="0" cx="1696.2609" cy="-922" rx="50.0912" ry="18"/>
<text text-anchor="middle" x="1696.2609" y="-918.3" font-family="Times,serif" font-size="14.00" fill="#000000">Markdown</text>
</g>
<!-- u0&#45;&gt;u7 -->
<g id="edge6" class="edge">
<title>u0&#45;&gt;u7</title>
<path fill="none" stroke="#000000" d="M1696.2609,-903.7151C1696.2609,-852.205 1696.2609,-705.6127 1696.2609,-643.4367"/>
<polygon fill="#000000" stroke="#000000" points="1699.7609,-643.189 1696.2609,-633.189 1692.7609,-643.1891 1699.7609,-643.189"/>
</g>
<!-- u18&#45;&gt;u19 -->
<g id="edge40" class="edge">
<title>u18&#45;&gt;u19</title>
<path fill="none" stroke="#000000" d="M253.8443,-207.9833C260.1248,-176.4063 273.163,-110.8532 280.6491,-73.2145"/>
<polygon fill="#000000" stroke="#000000" points="284.1739,-73.4345 282.6919,-62.9438 277.3083,-72.0689 284.1739,-73.4345"/>
</g>
<!-- u18&#45;&gt;u12 -->
<g id="edge26" class="edge">
<title>u18&#45;&gt;u12</title>
<path fill="none" stroke="#000000" d="M292.2566,-233.2393C461.889,-262.4807 1095.3125,-371.6708 1260.6048,-400.1641"/>
<polygon fill="#000000" stroke="#000000" points="1260.3562,-403.6727 1270.8055,-401.9225 1261.5454,-396.7745 1260.3562,-403.6727"/>
</g>
<!-- u29&#45;&gt;u18 -->
<g id="edge38" class="edge">
<title>u29&#45;&gt;u18</title>
<path fill="none" stroke="#000000" d="M262.8673,-388.9833C260.4312,-357.4877 255.3806,-292.1909 252.4657,-254.5061"/>
<polygon fill="#000000" stroke="#000000" points="255.9304,-253.9127 251.6695,-244.2125 248.9512,-254.4526 255.9304,-253.9127"/>
</g>
<!-- u31 -->
<g id="node23" class="node">
<title>u31</title>
<ellipse fill="#77ff77" stroke="#000000" stroke-width="0" cx="1759.2609" cy="-1208" rx="46.5926" ry="18"/>
<text text-anchor="middle" x="1759.2609" y="-1204.3" font-family="Times,serif" font-size="14.00" fill="#000000">TrimDocs</text>
</g>
<!-- u20 -->
<g id="node24" class="node">
<title>u20</title>
<ellipse fill="#7777ff" stroke="#000000" stroke-width="0" cx="1246.2609" cy="-922" rx="50.8918" ry="18"/>
<text text-anchor="middle" x="1246.2609" y="-918.3" font-family="Times,serif" font-size="14.00" fill="#000000">TimeSpace</text>
</g>
<!-- u21 -->
<g id="node25" class="node">
<title>u21</title>
<ellipse fill="#7777ff" stroke="#000000" stroke-width="0" cx="933.2609" cy="-922" rx="81.7856" ry="18"/>
<text text-anchor="middle" x="933.2609" y="-918.3" font-family="Times,serif" font-size="14.00" fill="#000000">ExploreTimeSpaces</text>
</g>
<!-- u21&#45;&gt;u4 -->
<g id="edge2" class="edge">
<title>u21&#45;&gt;u4</title>
<path fill="none" stroke="#000000" d="M941.897,-903.7151C966.377,-851.8851 1036.3251,-703.788 1065.3724,-642.2879"/>
<polygon fill="#000000" stroke="#000000" points="1068.5639,-643.726 1069.6699,-633.189 1062.2344,-640.7365 1068.5639,-643.726"/>
</g>
<!-- u21&#45;&gt;u18 -->
<g id="edge35" class="edge">
<title>u21&#45;&gt;u18</title>
<path fill="none" stroke="#000000" d="M892.6539,-906.1481C877.2493,-900.2695 859.507,-893.6601 843.2609,-888 577.1335,-795.2829 427.1653,-905.0289 239.2609,-695 145.1294,-589.7853 165.7284,-519.8487 191.2609,-381 199.8598,-334.238 221.9136,-283.3114 236.4868,-253.0491"/>
<polygon fill="#000000" stroke="#000000" points="239.6728,-254.5013 240.929,-243.9812 233.3865,-251.4218 239.6728,-254.5013"/>
</g>
<!-- u22&#45;&gt;u1 -->
<g id="edge1" class="edge">
<title>u22&#45;&gt;u1</title>
<path fill="none" stroke="#000000" d="M552.3769,-903.7151C538.5901,-852.0984 499.3013,-705.0053 482.7534,-643.0516"/>
<polygon fill="#000000" stroke="#000000" points="486.0812,-641.9471 480.1192,-633.189 479.3183,-643.7536 486.0812,-641.9471"/>
</g>
<!-- u22&#45;&gt;u6 -->
<g id="edge5" class="edge">
<title>u22&#45;&gt;u6</title>
<path fill="none" stroke="#000000" d="M581.3552,-906.1484C591.2953,-900.0041 603.0864,-893.2096 614.2609,-888 850.9572,-777.65 951.2288,-838.7508 1169.2609,-695 1190.9797,-680.6805 1210.5456,-658.4711 1223.9414,-641.0831"/>
<polygon fill="#000000" stroke="#000000" points="1226.8098,-643.0918 1230.0044,-632.9901 1221.2075,-638.8948 1226.8098,-643.0918"/>
</g>
<!-- u22&#45;&gt;u18 -->
<g id="edge36" class="edge">
<title>u22&#45;&gt;u18</title>
<path fill="none" stroke="#000000" d="M531.7341,-906.6371C521.683,-900.6931 509.9967,-893.9112 499.2609,-888 335.4067,-797.7811 222.5823,-854.7379 125.2609,-695 52.6505,-575.8216 78.8089,-512.5977 125.2609,-381 144.4854,-326.5372 191.8562,-277.1451 222.4478,-249.4015"/>
<polygon fill="#000000" stroke="#000000" points="225.0681,-251.7551 230.2149,-242.4943 220.4164,-246.5242 225.0681,-251.7551"/>
</g>
<!-- u22&#45;&gt;u29 -->
<g id="edge47" class="edge">
<title>u22&#45;&gt;u29</title>
<path fill="none" stroke="#000000" d="M533.1684,-906.2911C470.705,-865.0097 306.3695,-752.6849 277.2609,-695 233.7145,-608.7038 248.472,-488.7064 258.3478,-434.9679"/>
<polygon fill="#000000" stroke="#000000" points="261.7875,-435.6143 260.2392,-425.1332 254.9135,-434.2923 261.7875,-435.6143"/>
</g>
<!-- u23 -->
<g id="node27" class="node">
<title>u23</title>
<ellipse fill="#7777ff" stroke="#000000" stroke-width="0" cx="803.2609" cy="-922" rx="30.5947" ry="18"/>
<text text-anchor="middle" x="803.2609" y="-918.3" font-family="Times,serif" font-size="14.00" fill="#000000">Index</text>
</g>
<!-- u24 -->
<g id="node28" class="node">
<title>u24</title>
<ellipse fill="#7777ff" stroke="#000000" stroke-width="0" cx="689.2609" cy="-922" rx="65.7887" ry="18"/>
<text text-anchor="middle" x="689.2609" y="-918.3" font-family="Times,serif" font-size="14.00" fill="#000000">StoredTimeline</text>
</g>
<!-- u25&#45;&gt;u11 -->
<g id="edge10" class="edge">
<title>u25&#45;&gt;u11</title>
<path fill="none" stroke="#000000" d="M1068.8879,-906.3497C963.0761,-860.6085 660.6369,-728.2782 625.2609,-695 609.8188,-680.4737 598.502,-659.289 591.2151,-642.3686"/>
<polygon fill="#000000" stroke="#000000" points="594.4047,-640.9211 587.3895,-632.9815 587.9223,-643.5629 594.4047,-640.9211"/>
</g>
<!-- u25&#45;&gt;u7 -->
<g id="edge8" class="edge">
<title>u25&#45;&gt;u7</title>
<path fill="none" stroke="#000000" d="M1142.5306,-906.4284C1242.9502,-864.2334 1517.1779,-747.3617 1600.2609,-695 1625.796,-678.9068 1651.9298,-656.6779 1670.4699,-639.7353"/>
<polygon fill="#000000" stroke="#000000" points="1672.9669,-642.1933 1677.9269,-632.8312 1668.2112,-637.0568 1672.9669,-642.1933"/>
</g>
<!-- u25&#45;&gt;u18 -->
<g id="edge37" class="edge">
<title>u25&#45;&gt;u18</title>
<path fill="none" stroke="#000000" d="M1070.6033,-906.1388C1056.417,-899.9931 1039.7288,-893.2002 1024.2609,-888 697.1955,-778.0428 509.697,-945.3726 272.2609,-695 223.6881,-643.7808 218.4019,-451.3448 224.2609,-381 227.9885,-336.2444 237.6706,-284.9661 244.1095,-254.0534"/>
<polygon fill="#000000" stroke="#000000" points="247.5881,-254.5209 246.2367,-244.0126 240.7401,-253.0701 247.5881,-254.5209"/>
</g>
<!-- u25&#45;&gt;u29 -->
<g id="edge48" class="edge">
<title>u25&#45;&gt;u29</title>
<path fill="none" stroke="#000000" d="M1070.1735,-906.0587C1056.0695,-899.9714 1039.5538,-893.2413 1024.2609,-888 712.0773,-781.0061 526.8496,-941.3474 307.2609,-695 273.3947,-657.007 266.201,-500.6141 264.6729,-435.575"/>
<polygon fill="#000000" stroke="#000000" points="268.1655,-435.1709 264.4606,-425.245 261.1669,-435.3149 268.1655,-435.1709"/>
</g>
<!-- u26 -->
<g id="node30" class="node">
<title>u26</title>
<ellipse fill="#7777ff" stroke="#000000" stroke-width="0" cx="459.2609" cy="-922" rx="31.3957" ry="18"/>
<text text-anchor="middle" x="459.2609" y="-918.3" font-family="Times,serif" font-size="14.00" fill="#000000">Event</text>
</g>
<!-- u27 -->
<g id="node31" class="node">
<title>u27</title>
<ellipse fill="#7777ff" stroke="#000000" stroke-width="0" cx="362.2609" cy="-922" rx="47.3916" ry="18"/>
<text text-anchor="middle" x="362.2609" y="-918.3" font-family="Times,serif" font-size="14.00" fill="#000000">TimeSpan</text>
</g>
<!-- u28 -->
<g id="node32" class="node">
<title>u28</title>
<ellipse fill="#7777ff" stroke="#000000" stroke-width="0" cx="254.2609" cy="-922" rx="42.7926" ry="18"/>
<text text-anchor="middle" x="254.2609" y="-918.3" font-family="Times,serif" font-size="14.00" fill="#000000">Timeline</text>
</g>
</g>
</svg>
