<?xml version="1.0" encoding="UTF-8" standalone="no"?>
<!DOCTYPE svg PUBLIC "-//W3C//DTD SVG 1.1//EN"
 "http://www.w3.org/Graphics/SVG/1.1/DTD/svg11.dtd">
<!-- Generated by graphviz version 2.40.1 (20161225.0304)
 -->
<!-- Title: Modules Pages: 1 -->
<svg width="864pt" height="569pt"
 viewBox="0.00 0.00 864.00 568.53" xmlns="http://www.w3.org/2000/svg" xmlns:xlink="http://www.w3.org/1999/xlink">
<g id="graph0" class="graph" transform="scale(.4051 .4051) rotate(0) translate(4 1399.3333)">
<title>Modules</title>
<polygon fill="#ffffff" stroke="transparent" points="-4,4 -4,-1399.3333 2128.6733,-1399.3333 2128.6733,4 -4,4"/>
<g id="clust1" class="cluster">
<title>cluster_0</title>
<polygon fill="#000000" fill-opacity="0.058824" stroke="#000000" stroke-opacity="0.058824" points="524,-328.8827 524,-785.933 1961,-785.933 1961,-328.8827 524,-328.8827"/>
<text text-anchor="middle" x="1242.5" y="-770.733" font-family="Times,serif" font-size="14.00" fill="#000000">Components</text>
</g>
<g id="clust2" class="cluster">
<title>cluster_1</title>
<polygon fill="#000000" fill-opacity="0.058824" stroke="#000000" stroke-opacity="0.058824" points="842,-529.5979 842,-710.9671 1638,-710.9671 1638,-529.5979 842,-529.5979"/>
<text text-anchor="middle" x="1240" y="-695.7671" font-family="Times,serif" font-size="14.00" fill="#000000">Dialogs</text>
</g>
<g id="clust3" class="cluster">
<title>cluster_2</title>
<polygon fill="#000000" fill-opacity="0.058824" stroke="#000000" stroke-opacity="0.058824" points="1646,-529.5979 1646,-710.9671 1953,-710.9671 1953,-529.5979 1646,-529.5979"/>
<text text-anchor="middle" x="1799.5" y="-695.7671" font-family="Times,serif" font-size="14.00" fill="#000000">Drawers</text>
</g>
<g id="clust4" class="cluster">
<title>cluster_3</title>
<polygon fill="#000000" fill-opacity="0.058824" stroke="#000000" stroke-opacity="0.058824" points="410,-154.7683 410,-510.2519 516,-510.2519 516,-154.7683 410,-154.7683"/>
<text text-anchor="middle" x="463" y="-495.0519" font-family="Times,serif" font-size="14.00" fill="#000000">Plumbing</text>
</g>
<g id="clust5" class="cluster">
<title>cluster_4</title>
<polygon fill="#000000" fill-opacity="0.058824" stroke="#000000" stroke-opacity="0.058824" points="1701,-1119.6522 1701,-1301.0214 1811,-1301.0214 1811,-1119.6522 1701,-1119.6522"/>
<text text-anchor="middle" x="1756" y="-1285.8214" font-family="Times,serif" font-size="14.00" fill="#000000">Scripts</text>
</g>
<g id="clust6" class="cluster">
<title>cluster_5</title>
<polygon fill="#000000" fill-opacity="0.058824" stroke="#000000" stroke-opacity="0.058824" points="425,-1100.3062 425,-1375.9873 563,-1375.9873 563,-1100.3062 425,-1100.3062"/>
<text text-anchor="middle" x="494" y="-1360.7873" font-family="Times,serif" font-size="14.00" fill="#000000">Test</text>
</g>
<g id="clust7" class="cluster">
<title>cluster_6</title>
<polygon fill="#000000" fill-opacity="0.058824" stroke="#000000" stroke-opacity="0.058824" points="433,-1119.6522 433,-1301.0214 555,-1301.0214 555,-1119.6522 433,-1119.6522"/>
<text text-anchor="middle" x="494" y="-1285.8214" font-family="Times,serif" font-size="14.00" fill="#000000">QuickCheck</text>
</g>
<g id="clust8" class="cluster">
<title>cluster_7</title>
<polygon fill="#000000" fill-opacity="0.058824" stroke="#000000" stroke-opacity="0.058824" points="8,-805.279 8,-1080.9601 945,-1080.9601 945,-805.279 8,-805.279"/>
<text text-anchor="middle" x="476.5" y="-1065.7601" font-family="Times,serif" font-size="14.00" fill="#000000">Timeline</text>
</g>
<g id="clust9" class="cluster">
<title>cluster_8</title>
<polygon fill="#000000" fill-opacity="0.058824" stroke="#000000" stroke-opacity="0.058824" points="16,-824.6251 16,-1005.9942 937,-1005.9942 937,-824.6251 16,-824.6251"/>
<text text-anchor="middle" x="476.5" y="-990.7942" font-family="Times,serif" font-size="14.00" fill="#000000">Data</text>
</g>
<!-- u15 -->
<g id="node1" class="node">
<title>u15</title>
<ellipse fill="#bbffbb" stroke="#000000" stroke-width="0" cx="1424" cy="-1183" rx="38.9931" ry="18"/>
<text text-anchor="middle" x="1424" y="-1179.3" font-family="Times,serif" font-size="14.00" fill="#000000">Settings</text>
</g>
<!-- u7 -->
<g id="node4" class="node">
<title>u7</title>
<ellipse fill="#ffffbb" stroke="#000000" stroke-width="0" cx="1205" cy="-392" rx="30.5947" ry="18"/>
<text text-anchor="middle" x="1205" y="-388.3" font-family="Times,serif" font-size="14.00" fill="#000000">Index</text>
</g>
<!-- u15&#45;&gt;u7 -->
<g id="edge20" class="edge">
<title>u15&#45;&gt;u7</title>
<path fill="none" stroke="#000000" d="M1444.0314,-1167.5124C1488.2241,-1133.0583 1596.8338,-1046.8034 1681,-967 1811.291,-843.4626 1891.0584,-838.9998 1957,-672 1974.3023,-628.1812 1986.3183,-602.8767 1957,-566 1866.4888,-452.1548 1388.8044,-406.2723 1245.6066,-394.9498"/>
<polygon fill="#000000" stroke="#000000" points="1245.7369,-391.4494 1235.4957,-394.1641 1245.1945,-398.4284 1245.7369,-391.4494"/>
</g>
<!-- u9 -->
<g id="node6" class="node">
<title>u9</title>
<ellipse fill="#ffffbb" stroke="#000000" stroke-width="0" cx="794" cy="-592" rx="37.8943" ry="18"/>
<text text-anchor="middle" x="794" y="-588.3" font-family="Times,serif" font-size="14.00" fill="#000000">TopBar</text>
</g>
<!-- u15&#45;&gt;u9 -->
<g id="edge22" class="edge">
<title>u15&#45;&gt;u9</title>
<path fill="none" stroke="#000000" d="M1401.8738,-1168.1017C1319.1098,-1111.5413 1023.0548,-901.6609 838,-672 825.0694,-655.9526 813.9238,-635.5704 806.0855,-619.3957"/>
<polygon fill="#000000" stroke="#000000" points="809.0656,-617.5078 801.6459,-609.9448 802.7298,-620.4841 809.0656,-617.5078"/>
</g>
<!-- u0 -->
<g id="node8" class="node">
<title>u0</title>
<ellipse fill="#bbbbff" stroke="#000000" stroke-width="0" cx="1504" cy="-592" rx="53.8905" ry="18"/>
<text text-anchor="middle" x="1504" y="-588.3" font-family="Times,serif" font-size="14.00" fill="#000000">SettingsEdit</text>
</g>
<!-- u15&#45;&gt;u0 -->
<g id="edge1" class="edge">
<title>u15&#45;&gt;u0</title>
<path fill="none" stroke="#000000" d="M1426.4379,-1164.9898C1437.8695,-1080.5388 1486.1941,-723.5411 1500.1882,-620.1594"/>
<polygon fill="#000000" stroke="#000000" points="1503.6687,-620.5389 1501.5418,-610.1598 1496.732,-619.5999 1503.6687,-620.5389"/>
</g>
<!-- u2 -->
<g id="node10" class="node">
<title>u2</title>
<ellipse fill="#bbbbff" stroke="#000000" stroke-width="0" cx="1089" cy="-592" rx="63.8893" ry="18"/>
<text text-anchor="middle" x="1089" y="-588.3" font-family="Times,serif" font-size="14.00" fill="#000000">TimeScaleEdit</text>
</g>
<!-- u15&#45;&gt;u2 -->
<g id="edge2" class="edge">
<title>u15&#45;&gt;u2</title>
<path fill="none" stroke="#000000" d="M1413.9741,-1165.3125C1366.2031,-1081.036 1161.6191,-720.1132 1104.0983,-618.6361"/>
<polygon fill="#000000" stroke="#000000" points="1107.1266,-616.8808 1099.1504,-609.9071 1101.0368,-620.3327 1107.1266,-616.8808"/>
</g>
<!-- u3 -->
<g id="node11" class="node">
<title>u3</title>
<ellipse fill="#bbbbff" stroke="#000000" stroke-width="0" cx="1345" cy="-592" rx="87.1846" ry="18"/>
<text text-anchor="middle" x="1345" y="-588.3" font-family="Times,serif" font-size="14.00" fill="#000000">TimeSpaceNameEdit</text>
</g>
<!-- u15&#45;&gt;u3 -->
<g id="edge4" class="edge">
<title>u15&#45;&gt;u3</title>
<path fill="none" stroke="#000000" d="M1421.5926,-1164.9898C1410.3038,-1080.5388 1362.5833,-723.5411 1348.7641,-620.1594"/>
<polygon fill="#000000" stroke="#000000" points="1352.2216,-619.6079 1347.4275,-610.1598 1345.2833,-620.5354 1352.2216,-619.6079"/>
</g>
<!-- u11 -->
<g id="node15" class="node">
<title>u11</title>
<ellipse fill="#ffbbbb" stroke="#000000" stroke-width="0" cx="1903" cy="-592" rx="41.6928" ry="18"/>
<text text-anchor="middle" x="1903" y="-588.3" font-family="Times,serif" font-size="14.00" fill="#000000">Children</text>
</g>
<!-- u15&#45;&gt;u11 -->
<g id="edge25" class="edge">
<title>u15&#45;&gt;u11</title>
<path fill="none" stroke="#000000" d="M1439.8839,-1166.1722C1498.4891,-1103.6696 1706.7506,-877.8559 1853,-672 1865.3701,-654.5883 1878.1119,-634.1566 1887.6369,-618.2998"/>
<polygon fill="#000000" stroke="#000000" points="1890.7381,-619.9326 1892.8462,-609.5496 1884.7233,-616.3518 1890.7381,-619.9326"/>
</g>
<!-- u12 -->
<g id="node16" class="node">
<title>u12</title>
<ellipse fill="#ffbbbb" stroke="#000000" stroke-width="0" cx="1700" cy="-592" rx="46.2923" ry="18"/>
<text text-anchor="middle" x="1700" y="-588.3" font-family="Times,serif" font-size="14.00" fill="#000000">Timelines</text>
</g>
<!-- u15&#45;&gt;u12 -->
<g id="edge26" class="edge">
<title>u15&#45;&gt;u12</title>
<path fill="none" stroke="#000000" d="M1432.2601,-1165.3125C1471.5384,-1081.2057 1639.4921,-721.5659 1687.273,-619.2525"/>
<polygon fill="#000000" stroke="#000000" points="1690.5771,-620.4488 1691.6373,-609.9071 1684.2346,-617.4868 1690.5771,-620.4488"/>
</g>
<!-- u13 -->
<g id="node17" class="node">
<title>u13</title>
<ellipse fill="#ffbbbb" stroke="#000000" stroke-width="0" cx="1804" cy="-592" rx="39.7935" ry="18"/>
<text text-anchor="middle" x="1804" y="-588.3" font-family="Times,serif" font-size="14.00" fill="#000000">Siblings</text>
</g>
<!-- u15&#45;&gt;u13 -->
<g id="edge27" class="edge">
<title>u15&#45;&gt;u13</title>
<path fill="none" stroke="#000000" d="M1435.5955,-1165.4523C1478.5089,-1100.4361 1632.1755,-866.9643 1755,-672 1766.2486,-654.1446 1778.663,-633.8699 1788.1816,-618.199"/>
<polygon fill="#000000" stroke="#000000" points="1791.2293,-619.923 1793.4206,-609.5572 1785.2434,-616.294 1791.2293,-619.923"/>
</g>
<!-- u14 -->
<g id="node18" class="node">
<title>u14</title>
<ellipse fill="#bbffbb" stroke="#000000" stroke-width="2" cx="463" cy="-218" rx="45.4919" ry="18"/>
<text text-anchor="middle" x="463" y="-214.3" font-family="Times,serif" font-size="14.00" fill="#000000">Plumbing</text>
</g>
<!-- u15&#45;&gt;u14 -->
<g id="edge31" class="edge">
<title>u15&#45;&gt;u14</title>
<path fill="none" stroke="#000000" d="M1455.1973,-1172.0469C1569.9562,-1129.7773 1968.8873,-964.8599 2102,-672 2163.658,-536.3469 2093.2468,-441.8697 1965,-366 1838.212,-290.9934 775.1265,-233.5582 518.5605,-220.7038"/>
<polygon fill="#000000" stroke="#000000" points="518.5229,-217.1977 508.3609,-220.195 518.1741,-224.189 518.5229,-217.1977"/>
</g>
<!-- u18 -->
<g id="node19" class="node">
<title>u18</title>
<ellipse fill="#bbffff" stroke="#000000" stroke-width="0" cx="477" cy="-392" rx="31.3957" ry="18"/>
<text text-anchor="middle" x="477" y="-388.3" font-family="Times,serif" font-size="14.00" fill="#000000">Logic</text>
</g>
<!-- u15&#45;&gt;u18 -->
<g id="edge40" class="edge">
<title>u15&#45;&gt;u18</title>
<path fill="none" stroke="#000000" d="M1391.4869,-1172.9812C1316.323,-1148.4761 1127.8846,-1079.1889 1009,-967 966.0929,-926.5095 985.3728,-891.8787 941,-853 787.8118,-718.7791 644.6439,-833.077 520,-672 489.8408,-633.0253 480.5492,-483.4788 477.9359,-420.365"/>
<polygon fill="#000000" stroke="#000000" points="481.4313,-420.1742 477.5467,-410.3173 474.4365,-420.4453 481.4313,-420.1742"/>
</g>
<!-- u23 -->
<g id="node24" class="node">
<title>u23</title>
<ellipse fill="#ff7777" stroke="#000000" stroke-width="0" cx="603" cy="-887" rx="72.2875" ry="18"/>
<text text-anchor="middle" x="603" y="-883.3" font-family="Times,serif" font-size="14.00" fill="#000000">TimeSpaceName</text>
</g>
<!-- u15&#45;&gt;u23 -->
<g id="edge43" class="edge">
<title>u15&#45;&gt;u23</title>
<path fill="none" stroke="#000000" d="M1386.0069,-1178.5929C1272.2859,-1164.0611 927.4187,-1110.145 684,-967 660.0651,-952.9248 638.0068,-930.206 622.9733,-912.5689"/>
<polygon fill="#000000" stroke="#000000" points="625.6614,-910.3274 616.5789,-904.8723 620.2772,-914.8007 625.6614,-910.3274"/>
</g>
<!-- u25 -->
<g id="node26" class="node">
<title>u25</title>
<ellipse fill="#ff7777" stroke="#000000" stroke-width="0" cx="385" cy="-887" rx="48.9926" ry="18"/>
<text text-anchor="middle" x="385" y="-883.3" font-family="Times,serif" font-size="14.00" fill="#000000">TimeScale</text>
</g>
<!-- u15&#45;&gt;u25 -->
<g id="edge45" class="edge">
<title>u15&#45;&gt;u25</title>
<path fill="none" stroke="#000000" d="M1386.2756,-1178.3733C1226.2068,-1158.1962 604.0009,-1074.0946 442,-967 422.4346,-954.0658 407.4403,-931.9395 397.7525,-914.2307"/>
<polygon fill="#000000" stroke="#000000" points="400.638,-912.1929 392.921,-904.9334 394.4266,-915.4208 400.638,-912.1929"/>
</g>
<!-- u16 -->
<g id="node2" class="node">
<title>u16</title>
<ellipse fill="#bbffbb" stroke="#000000" stroke-width="0" cx="499" cy="-44" rx="29.795" ry="18"/>
<text text-anchor="middle" x="499" y="-40.3" font-family="Times,serif" font-size="14.00" fill="#000000">Main</text>
</g>
<!-- u17 -->
<g id="node3" class="node">
<title>u17</title>
<ellipse fill="#bbffbb" stroke="#000000" stroke-width="0" cx="2047" cy="-592" rx="46.2923" ry="18"/>
<text text-anchor="middle" x="2047" y="-588.3" font-family="Times,serif" font-size="14.00" fill="#000000">WithRoot</text>
</g>
<!-- u17&#45;&gt;u7 -->
<g id="edge21" class="edge">
<title>u17&#45;&gt;u7</title>
<path fill="none" stroke="#000000" d="M2017.8272,-578.0357C2008.1652,-573.7694 1997.2579,-569.3303 1987,-566 1709.2692,-475.8321 1361.1268,-416.5314 1244.8542,-398.1132"/>
<polygon fill="#000000" stroke="#000000" points="1245.0742,-394.6049 1234.6517,-396.5081 1243.9862,-401.5198 1245.0742,-394.6049"/>
</g>
<!-- u7&#45;&gt;u16 -->
<g id="edge35" class="edge">
<title>u7&#45;&gt;u16</title>
<path fill="none" stroke="#000000" d="M1181.5101,-380.4214C1076.7979,-328.8069 652.4212,-119.624 531.3744,-59.9579"/>
<polygon fill="#000000" stroke="#000000" points="532.7369,-56.7274 522.2199,-55.4455 529.6419,-63.0061 532.7369,-56.7274"/>
</g>
<!-- u8 -->
<g id="node5" class="node">
<title>u8</title>
<ellipse fill="#ffffbb" stroke="#000000" stroke-width="0" cx="576" cy="-592" rx="43.5923" ry="18"/>
<text text-anchor="middle" x="576" y="-588.3" font-family="Times,serif" font-size="14.00" fill="#000000">Snackbar</text>
</g>
<!-- u8&#45;&gt;u7 -->
<g id="edge13" class="edge">
<title>u8&#45;&gt;u7</title>
<path fill="none" stroke="#000000" d="M602.8534,-577.7745C611.1148,-573.6857 620.3206,-569.4136 629,-566 826.4766,-488.3319 1073.2298,-424.3658 1166.7196,-401.2594"/>
<polygon fill="#000000" stroke="#000000" points="1167.7024,-404.622 1176.5768,-398.8345 1166.0302,-397.8247 1167.7024,-404.622"/>
</g>
<!-- u8&#45;&gt;u14 -->
<g id="edge30" class="edge">
<title>u8&#45;&gt;u14</title>
<path fill="none" stroke="#000000" d="M571.9043,-573.9654C563.0242,-535.4523 540.8673,-442.4494 517,-366 503.7298,-323.4941 485.4983,-275.1948 473.9829,-245.662"/>
<polygon fill="#000000" stroke="#000000" points="477.1184,-244.0706 470.209,-236.0387 470.6016,-246.6263 477.1184,-244.0706"/>
</g>
<!-- u8&#45;&gt;u18 -->
<g id="edge39" class="edge">
<title>u8&#45;&gt;u18</title>
<path fill="none" stroke="#000000" d="M567.2144,-574.2513C549.778,-539.0263 510.7161,-460.1133 490.1845,-418.6354"/>
<polygon fill="#000000" stroke="#000000" points="493.1976,-416.8328 485.6245,-409.4233 486.9241,-419.9382 493.1976,-416.8328"/>
</g>
<!-- u9&#45;&gt;u7 -->
<g id="edge14" class="edge">
<title>u9&#45;&gt;u7</title>
<path fill="none" stroke="#000000" d="M817.524,-577.5662C824.0839,-573.6878 831.2608,-569.5792 838,-566 957.9505,-502.2943 1105.1577,-435.9516 1170.703,-407.0034"/>
<polygon fill="#000000" stroke="#000000" points="1172.3974,-410.0816 1180.137,-402.8464 1169.5746,-403.676 1172.3974,-410.0816"/>
</g>
<!-- u10 -->
<g id="node7" class="node">
<title>u10</title>
<ellipse fill="#ffffbb" stroke="#000000" stroke-width="0" cx="688" cy="-592" rx="50.0912" ry="18"/>
<text text-anchor="middle" x="688" y="-588.3" font-family="Times,serif" font-size="14.00" fill="#000000">BottomBar</text>
</g>
<!-- u10&#45;&gt;u7 -->
<g id="edge15" class="edge">
<title>u10&#45;&gt;u7</title>
<path fill="none" stroke="#000000" d="M719.4085,-577.7972C728.2891,-573.8802 737.9895,-569.6941 747,-566 902.7239,-502.1577 1091.3332,-433.0576 1168.9636,-404.9665"/>
<polygon fill="#000000" stroke="#000000" points="1170.5206,-408.1255 1178.7358,-401.4351 1168.1415,-401.5422 1170.5206,-408.1255"/>
</g>
<!-- u0&#45;&gt;u7 -->
<g id="edge6" class="edge">
<title>u0&#45;&gt;u7</title>
<path fill="none" stroke="#000000" d="M1479.7848,-575.8026C1425.1705,-539.2712 1292.6024,-450.5969 1233.8514,-411.2986"/>
<polygon fill="#000000" stroke="#000000" points="1235.6656,-408.3013 1225.4076,-405.6506 1231.7736,-414.1196 1235.6656,-408.3013"/>
</g>
<!-- u1 -->
<g id="node9" class="node">
<title>u1</title>
<ellipse fill="#bbbbff" stroke="#000000" stroke-width="0" cx="1603" cy="-592" rx="27.0966" ry="18"/>
<text text-anchor="middle" x="1603" y="-588.3" font-family="Times,serif" font-size="14.00" fill="#000000">New</text>
</g>
<!-- u1&#45;&gt;u7 -->
<g id="edge7" class="edge">
<title>u1&#45;&gt;u7</title>
<path fill="none" stroke="#000000" d="M1585.111,-578.1258C1579.459,-574.005 1573.0953,-569.627 1567,-566 1451.8645,-497.4886 1305.6402,-433.8031 1239.8494,-406.292"/>
<polygon fill="#000000" stroke="#000000" points="1240.9455,-402.9572 1230.3683,-402.3454 1238.2554,-409.4196 1240.9455,-402.9572"/>
</g>
<!-- u2&#45;&gt;u7 -->
<g id="edge8" class="edge">
<title>u2&#45;&gt;u7</title>
<path fill="none" stroke="#000000" d="M1099.4988,-573.8986C1120.1431,-538.305 1166.0821,-459.0998 1189.9499,-417.9485"/>
<polygon fill="#000000" stroke="#000000" points="1193.1136,-419.4697 1195.1033,-409.0634 1187.0584,-415.9577 1193.1136,-419.4697"/>
</g>
<!-- u3&#45;&gt;u7 -->
<g id="edge9" class="edge">
<title>u3&#45;&gt;u7</title>
<path fill="none" stroke="#000000" d="M1332.329,-573.8986C1307.2458,-538.0655 1251.2225,-458.0321 1222.5862,-417.1232"/>
<polygon fill="#000000" stroke="#000000" points="1225.35,-414.9681 1216.748,-408.7829 1219.6154,-418.9824 1225.35,-414.9681"/>
</g>
<!-- u4 -->
<g id="node12" class="node">
<title>u4</title>
<ellipse fill="#bbbbff" stroke="#000000" stroke-width="0" cx="1205" cy="-592" rx="34.394" ry="18"/>
<text text-anchor="middle" x="1205" y="-588.3" font-family="Times,serif" font-size="14.00" fill="#000000">EULA</text>
</g>
<!-- u4&#45;&gt;u7 -->
<g id="edge10" class="edge">
<title>u4&#45;&gt;u7</title>
<path fill="none" stroke="#000000" d="M1205,-573.8986C1205,-538.9585 1205,-461.9938 1205,-420.2533"/>
<polygon fill="#000000" stroke="#000000" points="1208.5001,-420.2046 1205,-410.2046 1201.5001,-420.2046 1208.5001,-420.2046"/>
</g>
<!-- u5 -->
<g id="node13" class="node">
<title>u5</title>
<ellipse fill="#bbbbff" stroke="#000000" stroke-width="0" cx="973" cy="-592" rx="34.394" ry="18"/>
<text text-anchor="middle" x="973" y="-588.3" font-family="Times,serif" font-size="14.00" fill="#000000">Export</text>
</g>
<!-- u5&#45;&gt;u7 -->
<g id="edge11" class="edge">
<title>u5&#45;&gt;u7</title>
<path fill="none" stroke="#000000" d="M991.2047,-576.3063C1032.4038,-540.7898 1132.8518,-454.1967 1179.9062,-413.6326"/>
<polygon fill="#000000" stroke="#000000" points="1182.2259,-416.2538 1187.5148,-407.0735 1177.6553,-410.952 1182.2259,-416.2538"/>
</g>
<!-- u5&#45;&gt;u14 -->
<g id="edge28" class="edge">
<title>u5&#45;&gt;u14</title>
<path fill="none" stroke="#000000" d="M962.2138,-574.7927C935.7966,-533.818 863.9275,-429.1829 781,-366 694.3838,-300.0067 573.6129,-253.9953 508.6649,-232.2502"/>
<polygon fill="#000000" stroke="#000000" points="509.7094,-228.9092 499.1161,-229.0938 507.5124,-235.5555 509.7094,-228.9092"/>
</g>
<!-- u5&#45;&gt;u18 -->
<g id="edge37" class="edge">
<title>u5&#45;&gt;u18</title>
<path fill="none" stroke="#000000" d="M951.0107,-578.0371C944.0976,-573.9127 936.3483,-569.555 929,-566 779.9529,-493.8937 592.775,-429.7683 514.306,-404.0068"/>
<polygon fill="#000000" stroke="#000000" points="515,-400.5514 504.4074,-400.7716 512.8253,-407.2051 515,-400.5514"/>
</g>
<!-- u6 -->
<g id="node14" class="node">
<title>u6</title>
<ellipse fill="#bbbbff" stroke="#000000" stroke-width="0" cx="885" cy="-592" rx="35.194" ry="18"/>
<text text-anchor="middle" x="885" y="-588.3" font-family="Times,serif" font-size="14.00" fill="#000000">Import</text>
</g>
<!-- u6&#45;&gt;u7 -->
<g id="edge12" class="edge">
<title>u6&#45;&gt;u7</title>
<path fill="none" stroke="#000000" d="M907.5018,-577.9364C963.9092,-542.6818 1111.366,-450.5213 1175.0238,-410.7351"/>
<polygon fill="#000000" stroke="#000000" points="1177.1621,-413.5261 1183.7871,-405.258 1173.4521,-407.5901 1177.1621,-413.5261"/>
</g>
<!-- u6&#45;&gt;u14 -->
<g id="edge29" class="edge">
<title>u6&#45;&gt;u14</title>
<path fill="none" stroke="#000000" d="M877.1041,-574.3368C858.023,-533.2735 805.7808,-430.017 736,-366 666.3359,-302.09 564.0174,-256.2927 506.4662,-233.781"/>
<polygon fill="#000000" stroke="#000000" points="507.5321,-230.4409 496.9425,-230.1088 505.0137,-236.9722 507.5321,-230.4409"/>
</g>
<!-- u6&#45;&gt;u18 -->
<g id="edge38" class="edge">
<title>u6&#45;&gt;u18</title>
<path fill="none" stroke="#000000" d="M864.3073,-577.3857C858.4935,-573.5066 852.0929,-569.4427 846,-566 727.5196,-499.0543 579.0281,-434.5842 512.3144,-406.5843"/>
<polygon fill="#000000" stroke="#000000" points="513.2781,-403.1936 502.7019,-402.5651 510.5777,-409.6518 513.2781,-403.1936"/>
</g>
<!-- u11&#45;&gt;u7 -->
<g id="edge16" class="edge">
<title>u11&#45;&gt;u7</title>
<path fill="none" stroke="#000000" d="M1877.8035,-577.5423C1870.0145,-573.4455 1861.298,-569.2273 1853,-566 1629.4381,-479.0506 1346.245,-419.3965 1244.0157,-399.3869"/>
<polygon fill="#000000" stroke="#000000" points="1244.6172,-395.9384 1234.1331,-397.4661 1243.2816,-402.8098 1244.6172,-395.9384"/>
</g>
<!-- u12&#45;&gt;u7 -->
<g id="edge17" class="edge">
<title>u12&#45;&gt;u7</title>
<path fill="none" stroke="#000000" d="M1670.0032,-578.2615C1661.0308,-574.2312 1651.1468,-569.8691 1642,-566 1493.7263,-503.2806 1314.655,-433.9686 1240.1581,-405.4152"/>
<polygon fill="#000000" stroke="#000000" points="1241.3588,-402.1272 1230.7684,-401.82 1238.8557,-408.6644 1241.3588,-402.1272"/>
</g>
<!-- u13&#45;&gt;u7 -->
<g id="edge18" class="edge">
<title>u13&#45;&gt;u7</title>
<path fill="none" stroke="#000000" d="M1779.2446,-577.7444C1771.6092,-573.6545 1763.0816,-569.3894 1755,-566 1568.4704,-487.7693 1333.9322,-424.6762 1243.2345,-401.5273"/>
<polygon fill="#000000" stroke="#000000" points="1243.9539,-398.099 1233.4001,-399.0303 1242.2312,-404.8837 1243.9539,-398.099"/>
</g>
<!-- u14&#45;&gt;u16 -->
<g id="edge36" class="edge">
<title>u14&#45;&gt;u16</title>
<path fill="none" stroke="#000000" d="M466.717,-200.0343C473.0121,-169.6084 485.8117,-107.7433 493.264,-71.724"/>
<polygon fill="#000000" stroke="#000000" points="496.7045,-72.3697 495.3032,-61.868 489.8496,-70.9514 496.7045,-72.3697"/>
</g>
<!-- u14&#45;&gt;u7 -->
<g id="edge19" class="edge">
<title>u14&#45;&gt;u7</title>
<path fill="none" stroke="#000000" d="M502.2948,-227.2147C630.9234,-257.3783 1038.4446,-352.9425 1166.2631,-382.9161"/>
<polygon fill="#000000" stroke="#000000" points="1165.8324,-386.41 1176.3674,-385.2856 1167.4306,-379.5949 1165.8324,-386.41"/>
</g>
<!-- u18&#45;&gt;u14 -->
<g id="edge32" class="edge">
<title>u18&#45;&gt;u14</title>
<path fill="none" stroke="#000000" d="M475.5282,-373.7078C473.0851,-343.3436 468.1754,-282.3226 465.2807,-246.3464"/>
<polygon fill="#000000" stroke="#000000" points="468.7429,-245.7341 464.4521,-236.0471 461.7654,-246.2956 468.7429,-245.7341"/>
</g>
<!-- u19 -->
<g id="node20" class="node">
<title>u19</title>
<ellipse fill="#ffbbff" stroke="#000000" stroke-width="0" cx="1756" cy="-1183" rx="46.5926" ry="18"/>
<text text-anchor="middle" x="1756" y="-1179.3" font-family="Times,serif" font-size="14.00" fill="#000000">TrimDocs</text>
</g>
<!-- u20 -->
<g id="node21" class="node">
<title>u20</title>
<ellipse fill="#ffff77" stroke="#000000" stroke-width="0" cx="494" cy="-1183" rx="53.0913" ry="18"/>
<text text-anchor="middle" x="494" y="-1179.3" font-family="Times,serif" font-size="14.00" fill="#000000">UTF8String</text>
</g>
<!-- u20&#45;&gt;u23 -->
<g id="edge44" class="edge">
<title>u20&#45;&gt;u23</title>
<path fill="none" stroke="#000000" d="M500.6544,-1164.9295C519.0495,-1114.9756 570.6841,-974.757 592.77,-914.7806"/>
<polygon fill="#000000" stroke="#000000" points="596.123,-915.8036 596.2942,-905.2102 589.5542,-913.3847 596.123,-915.8036"/>
</g>
<!-- u20&#45;&gt;u25 -->
<g id="edge46" class="edge">
<title>u20&#45;&gt;u25</title>
<path fill="none" stroke="#000000" d="M487.3456,-1164.9295C468.9505,-1114.9756 417.3159,-974.757 395.23,-914.7806"/>
<polygon fill="#000000" stroke="#000000" points="398.4458,-913.3847 391.7058,-905.2102 391.877,-915.8036 398.4458,-913.3847"/>
</g>
<!-- u21 -->
<g id="node22" class="node">
<title>u21</title>
<ellipse fill="#ff7777" stroke="#000000" stroke-width="0" cx="863" cy="-887" rx="65.7887" ry="18"/>
<text text-anchor="middle" x="863" y="-883.3" font-family="Times,serif" font-size="14.00" fill="#000000">StoredTimeline</text>
</g>
<!-- u22 -->
<g id="node23" class="node">
<title>u22</title>
<ellipse fill="#ff7777" stroke="#000000" stroke-width="0" cx="736" cy="-887" rx="42.7926" ry="18"/>
<text text-anchor="middle" x="736" y="-883.3" font-family="Times,serif" font-size="14.00" fill="#000000">Timeline</text>
</g>
<!-- u23&#45;&gt;u9 -->
<g id="edge23" class="edge">
<title>u23&#45;&gt;u9</title>
<path fill="none" stroke="#000000" d="M615.5011,-869.1147C640.9457,-832.5441 700.2975,-746.3822 747,-672 757.9948,-654.4888 769.78,-634.4255 778.7988,-618.7718"/>
<polygon fill="#000000" stroke="#000000" points="782.087,-620.0733 784.025,-609.6572 776.0145,-616.5913 782.087,-620.0733"/>
</g>
<!-- u23&#45;&gt;u3 -->
<g id="edge5" class="edge">
<title>u23&#45;&gt;u3</title>
<path fill="none" stroke="#000000" d="M638.6206,-871.261C652.6536,-865.268 668.9792,-858.5509 684,-853 930.9368,-761.746 1016.9806,-798.2343 1248,-672 1274.9854,-657.2545 1301.6449,-634.5119 1320.1653,-617.039"/>
<polygon fill="#000000" stroke="#000000" points="1322.7965,-619.3646 1327.5815,-609.9119 1317.946,-614.3174 1322.7965,-619.3646"/>
</g>
<!-- u23&#45;&gt;u14 -->
<g id="edge33" class="edge">
<title>u23&#45;&gt;u14</title>
<path fill="none" stroke="#000000" d="M588.1213,-869.1209C559.709,-833.9065 497.9827,-752.0193 469,-672 422.4331,-543.4317 425.1252,-502.225 437,-366 440.6722,-323.8729 450.1179,-275.7583 456.5535,-246.1279"/>
<polygon fill="#000000" stroke="#000000" points="460.0308,-246.6129 458.7721,-236.0931 453.1958,-245.1017 460.0308,-246.6129"/>
</g>
<!-- u23&#45;&gt;u18 -->
<g id="edge41" class="edge">
<title>u23&#45;&gt;u18</title>
<path fill="none" stroke="#000000" d="M590.0987,-869.1678C565.2774,-833.71 511.4374,-750.9468 490,-672 465.7126,-582.5578 470.3677,-471.2256 474.3437,-420.0777"/>
<polygon fill="#000000" stroke="#000000" points="477.832,-420.3616 475.1711,-410.1063 470.856,-419.7826 477.832,-420.3616"/>
</g>
<!-- u24 -->
<g id="node25" class="node">
<title>u24</title>
<ellipse fill="#ff7777" stroke="#000000" stroke-width="0" cx="482" cy="-887" rx="30.5947" ry="18"/>
<text text-anchor="middle" x="482" y="-883.3" font-family="Times,serif" font-size="14.00" fill="#000000">Index</text>
</g>
<!-- u25&#45;&gt;u10 -->
<g id="edge24" class="edge">
<title>u25&#45;&gt;u10</title>
<path fill="none" stroke="#000000" d="M406.604,-870.5479C450.9191,-836.2662 554.2211,-753.5725 629,-672 644.4481,-655.1485 659.7066,-634.3159 670.8354,-618.1346"/>
<polygon fill="#000000" stroke="#000000" points="673.8538,-619.9195 676.5682,-609.6782 668.0597,-615.9915 673.8538,-619.9195"/>
</g>
<!-- u25&#45;&gt;u2 -->
<g id="edge3" class="edge">
<title>u25&#45;&gt;u2</title>
<path fill="none" stroke="#000000" d="M408.7404,-871.1548C418.7266,-864.9401 430.6455,-858.0931 442,-853 686.0656,-743.524 790.5501,-815.963 1016,-672 1038.0618,-657.9122 1057.7175,-635.4875 1071.0594,-617.9598"/>
<polygon fill="#000000" stroke="#000000" points="1073.9561,-619.9291 1077.0847,-609.8067 1068.3266,-615.7687 1073.9561,-619.9291"/>
</g>
<!-- u25&#45;&gt;u14 -->
<g id="edge34" class="edge">
<title>u25&#45;&gt;u14</title>
<path fill="none" stroke="#000000" d="M383.4396,-868.7312C378.1314,-801.1243 363.2737,-559.0664 404,-366 413.2842,-321.9872 434.5804,-274.171 448.8816,-245.143"/>
<polygon fill="#000000" stroke="#000000" points="452.0863,-246.5602 453.436,-236.0516 445.8277,-243.4248 452.0863,-246.5602"/>
</g>
<!-- u25&#45;&gt;u18 -->
<g id="edge42" class="edge">
<title>u25&#45;&gt;u18</title>
<path fill="none" stroke="#000000" d="M388.3834,-868.7956C402.2615,-794.1256 454.8846,-510.9902 471.7589,-420.1996"/>
<polygon fill="#000000" stroke="#000000" points="475.2482,-420.5792 473.6345,-410.108 468.366,-419.3001 475.2482,-420.5792"/>
</g>
<!-- u26 -->
<g id="node27" class="node">
<title>u26</title>
<ellipse fill="#ff7777" stroke="#000000" stroke-width="0" cx="287" cy="-887" rx="31.3957" ry="18"/>
<text text-anchor="middle" x="287" y="-883.3" font-family="Times,serif" font-size="14.00" fill="#000000">Event</text>
</g>
<!-- u27 -->
<g id="node28" class="node">
<title>u27</title>
<ellipse fill="#ff7777" stroke="#000000" stroke-width="0" cx="187" cy="-887" rx="50.8918" ry="18"/>
<text text-anchor="middle" x="187" y="-883.3" font-family="Times,serif" font-size="14.00" fill="#000000">TimeSpace</text>
</g>
<!-- u28 -->
<g id="node29" class="node">
<title>u28</title>
<ellipse fill="#ff7777" stroke="#000000" stroke-width="0" cx="71" cy="-887" rx="47.3916" ry="18"/>
<text text-anchor="middle" x="71" y="-883.3" font-family="Times,serif" font-size="14.00" fill="#000000">TimeSpan</text>
</g>
</g>
</svg>
