<?xml version="1.0" encoding="UTF-8" standalone="no"?>
<!DOCTYPE svg PUBLIC "-//W3C//DTD SVG 1.1//EN"
 "http://www.w3.org/Graphics/SVG/1.1/DTD/svg11.dtd">
<!-- Generated by graphviz version 2.40.1 (20161225.0304)
 -->
<!-- Title: Modules Pages: 1 -->
<svg width="864pt" height="547pt"
 viewBox="0.00 0.00 864.00 546.52" xmlns="http://www.w3.org/2000/svg" xmlns:xlink="http://www.w3.org/1999/xlink">
<g id="graph0" class="graph" transform="scale(.2659 .2659) rotate(0) translate(4 2051.3333)">
<title>Modules</title>
<polygon fill="#ffffff" stroke="transparent" points="-4,4 -4,-2051.3333 3245.2909,-2051.3333 3245.2909,4 -4,4"/>
<g id="clust1" class="cluster">
<title>cluster_0</title>
<polygon fill="#000000" fill-opacity="0.058824" stroke="#000000" stroke-opacity="0.058824" points="132.1459,-517.5415 132.1459,-1267.2156 1936.1459,-1267.2156 1936.1459,-517.5415 132.1459,-517.5415"/>
<text text-anchor="middle" x="1034.1459" y="-1252.0156" font-family="Times,serif" font-size="14.00" fill="#000000">Components</text>
</g>
<g id="clust2" class="cluster">
<title>cluster_1</title>
<polygon fill="#000000" fill-opacity="0.058824" stroke="#000000" stroke-opacity="0.058824" points="456.1459,-863.8377 456.1459,-1149.2466 1618.1459,-1149.2466 1618.1459,-863.8377 456.1459,-863.8377"/>
<text text-anchor="middle" x="1037.1459" y="-1134.0466" font-family="Times,serif" font-size="14.00" fill="#000000">Dialogs</text>
</g>
<g id="clust3" class="cluster">
<title>cluster_2</title>
<polygon fill="#000000" fill-opacity="0.058824" stroke="#000000" stroke-opacity="0.058824" points="140.1459,-863.8377 140.1459,-1149.2466 448.1459,-1149.2466 448.1459,-863.8377 140.1459,-863.8377"/>
<text text-anchor="middle" x="294.1459" y="-1134.0466" font-family="Times,serif" font-size="14.00" fill="#000000">Drawers</text>
</g>
<g id="clust4" class="cluster">
<title>cluster_3</title>
<polygon fill="#000000" fill-opacity="0.058824" stroke="#000000" stroke-opacity="0.058824" points="511.1459,-1297.6592 511.1459,-1583.0682 591.1459,-1583.0682 591.1459,-1297.6592 511.1459,-1297.6592"/>
<text text-anchor="middle" x="551.1459" y="-1567.8682" font-family="Times,serif" font-size="14.00" fill="#000000">Markdown</text>
</g>
<g id="clust5" class="cluster">
<title>cluster_4</title>
<polygon fill="#000000" fill-opacity="0.058824" stroke="#000000" stroke-opacity="0.058824" points="649.1459,-1297.6592 649.1459,-1583.0682 765.1459,-1583.0682 765.1459,-1297.6592 649.1459,-1297.6592"/>
<text text-anchor="middle" x="707.1459" y="-1567.8682" font-family="Times,serif" font-size="14.00" fill="#000000">MaterialUI</text>
</g>
<g id="clust6" class="cluster">
<title>cluster_5</title>
<polygon fill="#000000" fill-opacity="0.058824" stroke="#000000" stroke-opacity="0.058824" points="1944.1459,-243.5489 1944.1459,-802.9504 2050.1459,-802.9504 2050.1459,-243.5489 1944.1459,-243.5489"/>
<text text-anchor="middle" x="1997.1459" y="-787.7504" font-family="Times,serif" font-size="14.00" fill="#000000">Plumbing</text>
</g>
<g id="clust7" class="cluster">
<title>cluster_6</title>
<polygon fill="#000000" fill-opacity="0.058824" stroke="#000000" stroke-opacity="0.058824" points="2016.1459,-1731.4808 2016.1459,-2016.8897 2126.1459,-2016.8897 2126.1459,-1731.4808 2016.1459,-1731.4808"/>
<text text-anchor="middle" x="2071.1459" y="-2001.6897" font-family="Times,serif" font-size="14.00" fill="#000000">Scripts</text>
</g>
<g id="clust8" class="cluster">
<title>cluster_7</title>
<polygon fill="#000000" fill-opacity="0.058824" stroke="#000000" stroke-opacity="0.058824" points="1944.1459,-833.3941 1944.1459,-1701.0372 3063.1459,-1701.0372 3063.1459,-833.3941 1944.1459,-833.3941"/>
<text text-anchor="middle" x="2503.6459" y="-1685.8372" font-family="Times,serif" font-size="14.00" fill="#000000">Timeline</text>
</g>
<g id="clust9" class="cluster">
<title>cluster_8</title>
<polygon fill="#000000" fill-opacity="0.058824" stroke="#000000" stroke-opacity="0.058824" points="1952.1459,-863.8377 1952.1459,-1583.0682 3055.1459,-1583.0682 3055.1459,-863.8377 1952.1459,-863.8377"/>
<text text-anchor="middle" x="2503.6459" y="-1567.8682" font-family="Times,serif" font-size="14.00" fill="#000000">UI</text>
</g>
<!-- u17 -->
<g id="node1" class="node">
<title>u17</title>
<ellipse fill="#bbffbb" stroke="#000000" stroke-width="0" cx="1030.1459" cy="-1830" rx="38.9931" ry="18"/>
<text text-anchor="middle" x="1030.1459" y="-1826.3" font-family="Times,serif" font-size="14.00" fill="#000000">Settings</text>
</g>
<!-- u11 -->
<g id="node5" class="node">
<title>u11</title>
<ellipse fill="#ffffbb" stroke="#000000" stroke-width="0" cx="1666.1459" cy="-963" rx="37.8943" ry="18"/>
<text text-anchor="middle" x="1666.1459" y="-959.3" font-family="Times,serif" font-size="14.00" fill="#000000">TopBar</text>
</g>
<!-- u17&#45;&gt;u11 -->
<g id="edge11" class="edge">
<title>u17&#45;&gt;u11</title>
<path fill="none" stroke="#000000" d="M1044.2129,-1813.2084C1112.2655,-1731.6012 1412.6038,-1367.1375 1622.1459,-1043 1633.2631,-1025.803 1644.365,-1005.5897 1652.6359,-989.7838"/>
<polygon fill="#000000" stroke="#000000" points="1655.9116,-991.0689 1657.3948,-980.5784 1649.6934,-987.8543 1655.9116,-991.0689"/>
</g>
<!-- u12 -->
<g id="node6" class="node">
<title>u12</title>
<ellipse fill="#ffffbb" stroke="#000000" stroke-width="0" cx="1179.1459" cy="-616" rx="30.5947" ry="18"/>
<text text-anchor="middle" x="1179.1459" y="-612.3" font-family="Times,serif" font-size="14.00" fill="#000000">Index</text>
</g>
<!-- u17&#45;&gt;u12 -->
<g id="edge27" class="edge">
<title>u17&#45;&gt;u12</title>
<path fill="none" stroke="#000000" d="M1004.742,-1816.1589C925.9547,-1772.57 680.6222,-1631.8127 507.1459,-1477 317.8146,-1308.038 224.0289,-1281.0568 136.1459,-1043 118.5989,-995.4688 105.9032,-969.6508 136.1459,-929 262.2836,-759.4515 963.5148,-647.3315 1139.218,-621.6373"/>
<polygon fill="#000000" stroke="#000000" points="1139.9253,-625.0714 1149.3187,-620.1711 1138.9196,-618.144 1139.9253,-625.0714"/>
</g>
<!-- u5 -->
<g id="node11" class="node">
<title>u5</title>
<ellipse fill="#bbbbff" stroke="#000000" stroke-width="0" cx="894.1459" cy="-963" rx="53.8905" ry="18"/>
<text text-anchor="middle" x="894.1459" y="-959.3" font-family="Times,serif" font-size="14.00" fill="#000000">SettingsEdit</text>
</g>
<!-- u17&#45;&gt;u5 -->
<g id="edge3" class="edge">
<title>u17&#45;&gt;u5</title>
<path fill="none" stroke="#000000" d="M1027.3054,-1811.8915C1010.0729,-1702.0347 919.5795,-1125.1389 898.5257,-990.9212"/>
<polygon fill="#000000" stroke="#000000" points="901.9783,-990.3457 896.9708,-981.0089 895.0629,-991.4305 901.9783,-990.3457"/>
</g>
<!-- u6 -->
<g id="node12" class="node">
<title>u6</title>
<ellipse fill="#bbbbff" stroke="#000000" stroke-width="0" cx="1030.1459" cy="-963" rx="63.8893" ry="18"/>
<text text-anchor="middle" x="1030.1459" y="-959.3" font-family="Times,serif" font-size="14.00" fill="#000000">TimeScaleEdit</text>
</g>
<!-- u17&#45;&gt;u6 -->
<g id="edge5" class="edge">
<title>u17&#45;&gt;u6</title>
<path fill="none" stroke="#000000" d="M1030.1459,-1811.8915C1030.1459,-1702.1449 1030.1459,-1126.2957 1030.1459,-991.3264"/>
<polygon fill="#000000" stroke="#000000" points="1033.646,-991.0089 1030.1459,-981.0089 1026.646,-991.0089 1033.646,-991.0089"/>
</g>
<!-- u7 -->
<g id="node13" class="node">
<title>u7</title>
<ellipse fill="#bbbbff" stroke="#000000" stroke-width="0" cx="551.1459" cy="-963" rx="87.1846" ry="18"/>
<text text-anchor="middle" x="551.1459" y="-959.3" font-family="Times,serif" font-size="14.00" fill="#000000">TimeSpaceNameEdit</text>
</g>
<!-- u17&#45;&gt;u7 -->
<g id="edge8" class="edge">
<title>u17&#45;&gt;u7</title>
<path fill="none" stroke="#000000" d="M1026.7754,-1811.977C1014.4005,-1748.4859 967.6278,-1530.4419 881.1459,-1371 793.2544,-1208.9593 638.1357,-1048.1777 576.9747,-987.9001"/>
<polygon fill="#000000" stroke="#000000" points="579.2467,-985.2261 569.6554,-980.7252 574.3465,-990.2249 579.2467,-985.2261"/>
</g>
<!-- u14 -->
<g id="node17" class="node">
<title>u14</title>
<ellipse fill="#ffbbbb" stroke="#000000" stroke-width="0" cx="400.1459" cy="-963" rx="39.7935" ry="18"/>
<text text-anchor="middle" x="400.1459" y="-959.3" font-family="Times,serif" font-size="14.00" fill="#000000">Siblings</text>
</g>
<!-- u17&#45;&gt;u14 -->
<g id="edge30" class="edge">
<title>u17&#45;&gt;u14</title>
<path fill="none" stroke="#000000" d="M1022.2487,-1812.1214C999.5225,-1760.499 932.317,-1606.6258 881.1459,-1477 862.7137,-1430.3079 870.9871,-1412.0863 842.1459,-1371 712.0206,-1185.6274 602.1592,-1212.6809 452.1459,-1043 437.6544,-1026.6085 424.2745,-1005.8361 414.7167,-989.5663"/>
<polygon fill="#000000" stroke="#000000" points="417.5673,-987.5021 409.5513,-980.5744 411.4975,-990.9889 417.5673,-987.5021"/>
</g>
<!-- u15 -->
<g id="node18" class="node">
<title>u15</title>
<ellipse fill="#ffbbbb" stroke="#000000" stroke-width="0" cx="190.1459" cy="-963" rx="41.6928" ry="18"/>
<text text-anchor="middle" x="190.1459" y="-959.3" font-family="Times,serif" font-size="14.00" fill="#000000">Children</text>
</g>
<!-- u17&#45;&gt;u15 -->
<g id="edge31" class="edge">
<title>u17&#45;&gt;u15</title>
<path fill="none" stroke="#000000" d="M1016.7228,-1812.9937C978.3724,-1763.7005 866.9225,-1615.4387 802.1459,-1477 781.2346,-1432.309 799.3343,-1410.0286 769.1459,-1371 600.1227,-1152.4806 437.6274,-1237.2025 241.1459,-1043 225.5756,-1027.6103 212.4256,-1006.636 203.3799,-990.0246"/>
<polygon fill="#000000" stroke="#000000" points="206.2933,-988.045 198.5409,-980.8234 200.0978,-991.3033 206.2933,-988.045"/>
</g>
<!-- u16 -->
<g id="node19" class="node">
<title>u16</title>
<ellipse fill="#ffbbbb" stroke="#000000" stroke-width="0" cx="296.1459" cy="-963" rx="46.2923" ry="18"/>
<text text-anchor="middle" x="296.1459" y="-959.3" font-family="Times,serif" font-size="14.00" fill="#000000">Timelines</text>
</g>
<!-- u17&#45;&gt;u16 -->
<g id="edge32" class="edge">
<title>u17&#45;&gt;u16</title>
<path fill="none" stroke="#000000" d="M1019.729,-1812.4077C989.8457,-1761.5496 902.1377,-1609.5178 842.1459,-1477 821.3793,-1431.1279 832.6762,-1411.0426 802.1459,-1371 651.8713,-1173.9044 524.0634,-1220.5632 351.1459,-1043 335.4697,-1026.9026 321.2053,-1005.8761 311.1334,-989.4195"/>
<polygon fill="#000000" stroke="#000000" points="314.1211,-987.5961 305.9869,-980.8075 308.1123,-991.1869 314.1211,-987.5961"/>
</g>
<!-- u18 -->
<g id="node22" class="node">
<title>u18</title>
<ellipse fill="#bbffbb" stroke="#000000" stroke-width="2" cx="1997.1459" cy="-342" rx="45.4919" ry="18"/>
<text text-anchor="middle" x="1997.1459" y="-338.3" font-family="Times,serif" font-size="14.00" fill="#000000">Plumbing</text>
</g>
<!-- u17&#45;&gt;u18 -->
<g id="edge36" class="edge">
<title>u17&#45;&gt;u18</title>
<path fill="none" stroke="#000000" d="M1068.7998,-1826.423C1341.8753,-1800.7756 2973.451,-1641.1898 3112.1459,-1477 3180.4519,-1396.1379 3370.2186,-1364.4456 3101.1459,-929 2853.6448,-528.4642 2233.0288,-385.266 2049.221,-350.8667"/>
<polygon fill="#000000" stroke="#000000" points="2049.7389,-347.4032 2039.2699,-349.0313 2048.4692,-354.2871 2049.7389,-347.4032"/>
</g>
<!-- u30 -->
<g id="node23" class="node">
<title>u30</title>
<ellipse fill="#77ff77" stroke="#000000" stroke-width="0" cx="1983.1459" cy="-616" rx="31.3957" ry="18"/>
<text text-anchor="middle" x="1983.1459" y="-612.3" font-family="Times,serif" font-size="14.00" fill="#000000">Logic</text>
</g>
<!-- u17&#45;&gt;u30 -->
<g id="edge50" class="edge">
<title>u17&#45;&gt;u30</title>
<path fill="none" stroke="#000000" d="M1068.6027,-1826.3301C1338.5218,-1800.197 2941.9459,-1638.6843 3078.1459,-1477 3117.5188,-1430.2601 3209.7967,-1120.9867 3059.1459,-929 2924.8327,-757.8336 2203.8379,-646.8325 2023.8694,-621.5256"/>
<polygon fill="#000000" stroke="#000000" points="2024.1552,-618.0316 2013.7673,-620.1154 2023.1874,-624.9644 2024.1552,-618.0316"/>
</g>
<!-- u22 -->
<g id="node27" class="node">
<title>u22</title>
<ellipse fill="#ff7777" stroke="#000000" stroke-width="0" cx="2384.1459" cy="-1397" rx="48.9926" ry="18"/>
<text text-anchor="middle" x="2384.1459" y="-1393.3" font-family="Times,serif" font-size="14.00" fill="#000000">TimeScale</text>
</g>
<!-- u17&#45;&gt;u22 -->
<g id="edge43" class="edge">
<title>u17&#45;&gt;u22</title>
<path fill="none" stroke="#000000" d="M1069.2689,-1828.5886C1236.171,-1820.8061 1899.5331,-1771.8189 2326.1459,-1477 2345.4365,-1463.6689 2360.6623,-1441.7667 2370.6644,-1424.2468"/>
<polygon fill="#000000" stroke="#000000" points="2373.966,-1425.5025 2375.6764,-1415.0466 2367.819,-1422.1537 2373.966,-1425.5025"/>
</g>
<!-- u25 -->
<g id="node30" class="node">
<title>u25</title>
<ellipse fill="#ff7777" stroke="#000000" stroke-width="0" cx="2751.1459" cy="-1397" rx="72.2875" ry="18"/>
<text text-anchor="middle" x="2751.1459" y="-1393.3" font-family="Times,serif" font-size="14.00" fill="#000000">TimeSpaceName</text>
</g>
<!-- u17&#45;&gt;u25 -->
<g id="edge44" class="edge">
<title>u17&#45;&gt;u25</title>
<path fill="none" stroke="#000000" d="M1067.6336,-1824.8438C1284.1389,-1794.635 2375.1933,-1636.4516 2670.1459,-1477 2694.7226,-1463.7138 2716.8539,-1440.7097 2731.7474,-1422.7699"/>
<polygon fill="#000000" stroke="#000000" points="2734.5113,-1424.9182 2738.0639,-1414.9367 2729.0621,-1420.5242 2734.5113,-1424.9182"/>
</g>
<!-- u28 -->
<g id="node33" class="node">
<title>u28</title>
<ellipse fill="#ff7777" stroke="#000000" stroke-width="0" cx="2942.1459" cy="-963" rx="46.2923" ry="18"/>
<text text-anchor="middle" x="2942.1459" y="-959.3" font-family="Times,serif" font-size="14.00" fill="#000000">Timelines</text>
</g>
<!-- u17&#45;&gt;u28 -->
<g id="edge45" class="edge">
<title>u17&#45;&gt;u28</title>
<path fill="none" stroke="#000000" d="M1069.3688,-1829.6781C1328.1734,-1826.6588 2788.3142,-1795.5324 3056.1459,-1477 3119.9198,-1401.1537 2993.8828,-1085.0578 2953.8169,-990.0952"/>
<polygon fill="#000000" stroke="#000000" points="2957.0278,-988.7019 2949.8984,-980.8646 2950.5843,-991.4372 2957.0278,-988.7019"/>
</g>
<!-- u19 -->
<g id="node2" class="node">
<title>u19</title>
<ellipse fill="#bbffbb" stroke="#000000" stroke-width="0" cx="1804.1459" cy="-68" rx="29.795" ry="18"/>
<text text-anchor="middle" x="1804.1459" y="-64.3" font-family="Times,serif" font-size="14.00" fill="#000000">Main</text>
</g>
<!-- u31 -->
<g id="node3" class="node">
<title>u31</title>
<ellipse fill="#bbffbb" stroke="#000000" stroke-width="0" cx="46.1459" cy="-963" rx="46.2923" ry="18"/>
<text text-anchor="middle" x="46.1459" y="-959.3" font-family="Times,serif" font-size="14.00" fill="#000000">WithRoot</text>
</g>
<!-- u31&#45;&gt;u12 -->
<g id="edge29" class="edge">
<title>u31&#45;&gt;u12</title>
<path fill="none" stroke="#000000" d="M70.3046,-947.6105C80.9973,-941.2505 93.9035,-934.1715 106.1459,-929 495.0355,-764.7225 997.8741,-653.6095 1140.1296,-623.9419"/>
<polygon fill="#000000" stroke="#000000" points="1141.0442,-627.3267 1150.1246,-621.868 1139.622,-620.4727 1141.0442,-627.3267"/>
</g>
<!-- u1 -->
<g id="node4" class="node">
<title>u1</title>
<ellipse fill="#ffffbb" stroke="#000000" stroke-width="0" cx="1772.1459" cy="-963" rx="50.0912" ry="18"/>
<text text-anchor="middle" x="1772.1459" y="-959.3" font-family="Times,serif" font-size="14.00" fill="#000000">BottomBar</text>
</g>
<!-- u1&#45;&gt;u12 -->
<g id="edge13" class="edge">
<title>u1&#45;&gt;u12</title>
<path fill="none" stroke="#000000" d="M1745.9003,-947.6421C1649.1858,-891.0487 1312.9746,-694.3112 1209.6145,-633.829"/>
<polygon fill="#000000" stroke="#000000" points="1211.3039,-630.7624 1200.9053,-628.7327 1207.7685,-636.8041 1211.3039,-630.7624"/>
</g>
<!-- u11&#45;&gt;u12 -->
<g id="edge22" class="edge">
<title>u11&#45;&gt;u12</title>
<path fill="none" stroke="#000000" d="M1646.57,-947.5862C1638.9954,-941.6978 1630.2198,-934.9676 1622.1459,-929 1467.8205,-814.936 1278.4766,-684.1315 1207.6568,-635.517"/>
<polygon fill="#000000" stroke="#000000" points="1209.4585,-632.5086 1199.2323,-629.738 1205.4988,-638.281 1209.4585,-632.5086"/>
</g>
<!-- u12&#45;&gt;u19 -->
<g id="edge41" class="edge">
<title>u12&#45;&gt;u19</title>
<path fill="none" stroke="#000000" d="M1196.1873,-601.0581C1283.0483,-524.8984 1676.4129,-179.9963 1779.4032,-89.6944"/>
<polygon fill="#000000" stroke="#000000" points="1781.9082,-92.1529 1787.1198,-82.9285 1777.2932,-86.8896 1781.9082,-92.1529"/>
</g>
<!-- u13 -->
<g id="node7" class="node">
<title>u13</title>
<ellipse fill="#ffffbb" stroke="#000000" stroke-width="0" cx="1884.1459" cy="-963" rx="43.5923" ry="18"/>
<text text-anchor="middle" x="1884.1459" y="-959.3" font-family="Times,serif" font-size="14.00" fill="#000000">Snackbar</text>
</g>
<!-- u13&#45;&gt;u12 -->
<g id="edge23" class="edge">
<title>u13&#45;&gt;u12</title>
<path fill="none" stroke="#000000" d="M1861.3035,-947.4762C1852.0909,-941.4463 1841.265,-934.6466 1831.1459,-929 1601.6435,-800.934 1311.5671,-673.0446 1213.3942,-630.6561"/>
<polygon fill="#000000" stroke="#000000" points="1214.5374,-627.3376 1203.9687,-626.5948 1211.7674,-633.7663 1214.5374,-627.3376"/>
</g>
<!-- u13&#45;&gt;u18 -->
<g id="edge35" class="edge">
<title>u13&#45;&gt;u18</title>
<path fill="none" stroke="#000000" d="M1886.6607,-944.6939C1894.2001,-890.4078 1917.6735,-725.637 1943.1459,-590 1958.2365,-509.6446 1979.8195,-415.4908 1990.5562,-369.7532"/>
<polygon fill="#000000" stroke="#000000" points="1993.9732,-370.5119 1992.8595,-359.9757 1987.1597,-368.9067 1993.9732,-370.5119"/>
</g>
<!-- u13&#45;&gt;u30 -->
<g id="edge49" class="edge">
<title>u13&#45;&gt;u30</title>
<path fill="none" stroke="#000000" d="M1889.3292,-944.8323C1905.6015,-887.7972 1955.7441,-712.0449 1975.2594,-643.6428"/>
<polygon fill="#000000" stroke="#000000" points="1978.636,-644.5644 1978.0139,-633.9878 1971.9046,-642.6438 1978.636,-644.5644"/>
</g>
<!-- u2 -->
<g id="node8" class="node">
<title>u2</title>
<ellipse fill="#bbbbff" stroke="#000000" stroke-width="0" cx="1219.1459" cy="-963" rx="34.394" ry="18"/>
<text text-anchor="middle" x="1219.1459" y="-959.3" font-family="Times,serif" font-size="14.00" fill="#000000">EULA</text>
</g>
<!-- u2&#45;&gt;u12 -->
<g id="edge14" class="edge">
<title>u2&#45;&gt;u12</title>
<path fill="none" stroke="#000000" d="M1217.0517,-944.8323C1210.4905,-887.9143 1190.3005,-712.7662 1182.3811,-644.0655"/>
<polygon fill="#000000" stroke="#000000" points="1185.8416,-643.5212 1181.2194,-633.9878 1178.8877,-644.3229 1185.8416,-643.5212"/>
</g>
<!-- u3 -->
<g id="node9" class="node">
<title>u3</title>
<ellipse fill="#bbbbff" stroke="#000000" stroke-width="0" cx="1488.1459" cy="-963" rx="35.194" ry="18"/>
<text text-anchor="middle" x="1488.1459" y="-959.3" font-family="Times,serif" font-size="14.00" fill="#000000">Import</text>
</g>
<!-- u3&#45;&gt;u12 -->
<g id="edge15" class="edge">
<title>u3&#45;&gt;u12</title>
<path fill="none" stroke="#000000" d="M1473.2422,-946.2635C1422.9519,-889.7886 1259.3788,-706.0997 1200.5045,-639.9852"/>
<polygon fill="#000000" stroke="#000000" points="1202.8062,-637.307 1193.542,-632.1665 1197.5785,-641.9623 1202.8062,-637.307"/>
</g>
<!-- u3&#45;&gt;u18 -->
<g id="edge33" class="edge">
<title>u3&#45;&gt;u18</title>
<path fill="none" stroke="#000000" d="M1494.2705,-945.0903C1514.2693,-888.4086 1582.1177,-709.6343 1681.1459,-590 1765.9145,-487.5925 1899.654,-400.1871 1962.4323,-362.2239"/>
<polygon fill="#000000" stroke="#000000" points="1964.3902,-365.1309 1971.1655,-356.9856 1960.7895,-359.1279 1964.3902,-365.1309"/>
</g>
<!-- u3&#45;&gt;u30 -->
<g id="edge47" class="edge">
<title>u3&#45;&gt;u30</title>
<path fill="none" stroke="#000000" d="M1507.7351,-947.9359C1515.5839,-941.9694 1524.7433,-935.093 1533.1459,-929 1690.1451,-815.1555 1882.3416,-684.221 1954.2139,-635.5443"/>
<polygon fill="#000000" stroke="#000000" points="1956.4437,-638.2615 1962.7633,-629.7578 1952.52,-632.4645 1956.4437,-638.2615"/>
</g>
<!-- u4 -->
<g id="node10" class="node">
<title>u4</title>
<ellipse fill="#bbbbff" stroke="#000000" stroke-width="0" cx="1353.1459" cy="-963" rx="81.7856" ry="18"/>
<text text-anchor="middle" x="1353.1459" y="-959.3" font-family="Times,serif" font-size="14.00" fill="#000000">ExploreTimeSpaces</text>
</g>
<!-- u4&#45;&gt;u12 -->
<g id="edge16" class="edge">
<title>u4&#45;&gt;u12</title>
<path fill="none" stroke="#000000" d="M1344.0359,-944.8323C1315.3108,-887.5472 1226.5329,-710.5017 1192.5591,-642.7494"/>
<polygon fill="#000000" stroke="#000000" points="1195.5691,-640.9437 1187.9579,-633.5734 1189.3117,-644.0814 1195.5691,-640.9437"/>
</g>
<!-- u5&#45;&gt;u12 -->
<g id="edge17" class="edge">
<title>u5&#45;&gt;u12</title>
<path fill="none" stroke="#000000" d="M908.6709,-945.3152C955.8814,-887.8343 1105.0649,-706.1968 1159.2398,-640.2366"/>
<polygon fill="#000000" stroke="#000000" points="1162.0119,-642.3759 1165.6541,-632.4268 1156.6025,-637.9331 1162.0119,-642.3759"/>
</g>
<!-- u6&#45;&gt;u12 -->
<g id="edge18" class="edge">
<title>u6&#45;&gt;u12</title>
<path fill="none" stroke="#000000" d="M1037.947,-944.8323C1062.4946,-887.6645 1138.256,-711.2268 1167.4804,-643.1673"/>
<polygon fill="#000000" stroke="#000000" points="1170.8704,-644.1431 1171.6,-633.5734 1164.4383,-641.3812 1170.8704,-644.1431"/>
</g>
<!-- u7&#45;&gt;u12 -->
<g id="edge19" class="edge">
<title>u7&#45;&gt;u12</title>
<path fill="none" stroke="#000000" d="M581.8608,-946.0286C688.2344,-887.252 1040.2606,-692.7408 1147.7204,-633.3641"/>
<polygon fill="#000000" stroke="#000000" points="1149.7083,-636.2645 1156.7683,-628.3647 1146.3229,-630.1376 1149.7083,-636.2645"/>
</g>
<!-- u8 -->
<g id="node14" class="node">
<title>u8</title>
<ellipse fill="#bbbbff" stroke="#000000" stroke-width="0" cx="1576.1459" cy="-963" rx="34.394" ry="18"/>
<text text-anchor="middle" x="1576.1459" y="-959.3" font-family="Times,serif" font-size="14.00" fill="#000000">Export</text>
</g>
<!-- u8&#45;&gt;u12 -->
<g id="edge20" class="edge">
<title>u8&#45;&gt;u12</title>
<path fill="none" stroke="#000000" d="M1558.3164,-947.416C1494.6843,-891.7981 1278.6081,-702.9355 1204.4068,-638.0794"/>
<polygon fill="#000000" stroke="#000000" points="1206.3095,-635.0939 1196.4768,-631.1482 1201.7027,-640.3645 1206.3095,-635.0939"/>
</g>
<!-- u8&#45;&gt;u18 -->
<g id="edge34" class="edge">
<title>u8&#45;&gt;u18</title>
<path fill="none" stroke="#000000" d="M1580.2817,-944.9022C1593.8061,-888.4057 1640.7706,-711.8137 1725.1459,-590 1794.0521,-490.5192 1909.8511,-402.5117 1965.4627,-363.4383"/>
<polygon fill="#000000" stroke="#000000" points="1967.6494,-366.1806 1973.8548,-357.5931 1963.6486,-360.4365 1967.6494,-366.1806"/>
</g>
<!-- u8&#45;&gt;u30 -->
<g id="edge48" class="edge">
<title>u8&#45;&gt;u30</title>
<path fill="none" stroke="#000000" d="M1593.4642,-947.3309C1599.9223,-941.5338 1607.3378,-934.9314 1614.1459,-929 1741.7873,-817.7963 1897.1312,-687.7125 1957.4672,-637.3831"/>
<polygon fill="#000000" stroke="#000000" points="1959.8984,-639.9131 1965.3376,-630.821 1955.4157,-634.5367 1959.8984,-639.9131"/>
</g>
<!-- u9 -->
<g id="node15" class="node">
<title>u9</title>
<ellipse fill="#bbbbff" stroke="#000000" stroke-width="0" cx="739.1459" cy="-963" rx="83.3857" ry="18"/>
<text text-anchor="middle" x="739.1459" y="-959.3" font-family="Times,serif" font-size="14.00" fill="#000000">NewOrEditTimeline</text>
</g>
<!-- u10 -->
<g id="node16" class="node">
<title>u10</title>
<ellipse fill="#bbbbff" stroke="#000000" stroke-width="0" cx="1139.1459" cy="-963" rx="27.0966" ry="18"/>
<text text-anchor="middle" x="1139.1459" y="-959.3" font-family="Times,serif" font-size="14.00" fill="#000000">New</text>
</g>
<!-- u10&#45;&gt;u12 -->
<g id="edge21" class="edge">
<title>u10&#45;&gt;u12</title>
<path fill="none" stroke="#000000" d="M1141.2402,-944.8323C1147.8013,-887.9143 1167.9913,-712.7662 1175.9107,-644.0655"/>
<polygon fill="#000000" stroke="#000000" points="1179.4041,-644.3229 1177.0724,-633.9878 1172.4502,-643.5212 1179.4041,-644.3229"/>
</g>
<!-- u14&#45;&gt;u12 -->
<g id="edge24" class="edge">
<title>u14&#45;&gt;u12</title>
<path fill="none" stroke="#000000" d="M421.6465,-947.7448C430.8233,-941.5518 441.7879,-934.5623 452.1459,-929 707.5254,-791.8596 1035.6586,-668.2059 1143.2479,-628.9288"/>
<polygon fill="#000000" stroke="#000000" points="1144.7615,-632.1026 1152.9614,-625.3936 1142.3674,-625.5247 1144.7615,-632.1026"/>
</g>
<!-- u15&#45;&gt;u12 -->
<g id="edge25" class="edge">
<title>u15&#45;&gt;u12</title>
<path fill="none" stroke="#000000" d="M211.2229,-947.1126C220.1327,-940.8915 230.8226,-934.051 241.1459,-929 572.9546,-766.652 1009.6511,-656.0914 1140.5015,-624.9559"/>
<polygon fill="#000000" stroke="#000000" points="1141.5258,-628.3103 1150.4512,-622.6017 1139.914,-621.4984 1141.5258,-628.3103"/>
</g>
<!-- u16&#45;&gt;u12 -->
<g id="edge26" class="edge">
<title>u16&#45;&gt;u12</title>
<path fill="none" stroke="#000000" d="M319.4012,-947.2465C328.9935,-941.1164 340.3698,-934.3061 351.1459,-929 645.201,-784.2076 1024.0107,-663.4197 1142.2404,-627.1417"/>
<polygon fill="#000000" stroke="#000000" points="1143.3658,-630.4576 1151.9054,-624.1865 1141.319,-623.7635 1143.3658,-630.4576"/>
</g>
<!-- u33 -->
<g id="node20" class="node">
<title>u33</title>
<ellipse fill="#bbffff" stroke="#000000" stroke-width="0" cx="551.1459" cy="-1397" rx="32.4942" ry="18"/>
<text text-anchor="middle" x="551.1459" y="-1393.3" font-family="Times,serif" font-size="14.00" fill="#000000">Editor</text>
</g>
<!-- u33&#45;&gt;u7 -->
<g id="edge10" class="edge">
<title>u33&#45;&gt;u7</title>
<path fill="none" stroke="#000000" d="M551.1459,-1378.9041C551.1459,-1311.35 551.1459,-1073.5888 551.1459,-991.2888"/>
<polygon fill="#000000" stroke="#000000" points="554.646,-991.1731 551.1459,-981.1731 547.646,-991.1732 554.646,-991.1731"/>
</g>
<!-- u0 -->
<g id="node21" class="node">
<title>u0</title>
<ellipse fill="#ffbbff" stroke="#000000" stroke-width="0" cx="707.1459" cy="-1397" rx="50.0912" ry="18"/>
<text text-anchor="middle" x="707.1459" y="-1393.3" font-family="Times,serif" font-size="14.00" fill="#000000">Markdown</text>
</g>
<!-- u0&#45;&gt;u6 -->
<g id="edge4" class="edge">
<title>u0&#45;&gt;u6</title>
<path fill="none" stroke="#000000" d="M720.2079,-1379.4492C770.4266,-1311.9727 951.2324,-1069.0324 1010.8943,-988.8675"/>
<polygon fill="#000000" stroke="#000000" points="1013.7587,-990.881 1016.9213,-980.7692 1008.1432,-986.7017 1013.7587,-990.881"/>
</g>
<!-- u0&#45;&gt;u7 -->
<g id="edge7" class="edge">
<title>u0&#45;&gt;u7</title>
<path fill="none" stroke="#000000" d="M700.6414,-1378.9041C676.3097,-1311.2121 590.5476,-1072.6176 561.1338,-990.7869"/>
<polygon fill="#000000" stroke="#000000" points="564.3545,-989.3998 557.6782,-981.1731 557.7672,-991.7676 564.3545,-989.3998"/>
</g>
<!-- u18&#45;&gt;u19 -->
<g id="edge42" class="edge">
<title>u18&#45;&gt;u19</title>
<path fill="none" stroke="#000000" d="M1984.7793,-324.4433C1951.6002,-277.3393 1860.5191,-148.0323 1821.8656,-93.1564"/>
<polygon fill="#000000" stroke="#000000" points="1824.5366,-90.8706 1815.9165,-84.7106 1818.8138,-94.9017 1824.5366,-90.8706"/>
</g>
<!-- u18&#45;&gt;u12 -->
<g id="edge28" class="edge">
<title>u18&#45;&gt;u12</title>
<path fill="none" stroke="#000000" d="M1962.2597,-353.6856C1828.799,-398.39 1351.3011,-558.3343 1215.444,-603.8415"/>
<polygon fill="#000000" stroke="#000000" points="1214.2677,-600.5443 1205.8972,-607.0393 1216.491,-607.1818 1214.2677,-600.5443"/>
</g>
<!-- u30&#45;&gt;u18 -->
<g id="edge40" class="edge">
<title>u30&#45;&gt;u18</title>
<path fill="none" stroke="#000000" d="M1984.0862,-597.5966C1986.4772,-550.801 1992.8031,-426.9945 1995.682,-370.6499"/>
<polygon fill="#000000" stroke="#000000" points="1999.1947,-370.4889 1996.2097,-360.3233 1992.2039,-370.1316 1999.1947,-370.4889"/>
</g>
<!-- u32 -->
<g id="node24" class="node">
<title>u32</title>
<ellipse fill="#ffff77" stroke="#000000" stroke-width="0" cx="2071.1459" cy="-1830" rx="46.5926" ry="18"/>
<text text-anchor="middle" x="2071.1459" y="-1826.3" font-family="Times,serif" font-size="14.00" fill="#000000">TrimDocs</text>
</g>
<!-- u20 -->
<g id="node25" class="node">
<title>u20</title>
<ellipse fill="#ff7777" stroke="#000000" stroke-width="0" cx="2996.1459" cy="-1397" rx="50.8918" ry="18"/>
<text text-anchor="middle" x="2996.1459" y="-1393.3" font-family="Times,serif" font-size="14.00" fill="#000000">TimeSpace</text>
</g>
<!-- u21 -->
<g id="node26" class="node">
<title>u21</title>
<ellipse fill="#ff7777" stroke="#000000" stroke-width="0" cx="2042.1459" cy="-1397" rx="81.7856" ry="18"/>
<text text-anchor="middle" x="2042.1459" y="-1393.3" font-family="Times,serif" font-size="14.00" fill="#000000">ExploreTimeSpaces</text>
</g>
<!-- u21&#45;&gt;u4 -->
<g id="edge2" class="edge">
<title>u21&#45;&gt;u4</title>
<path fill="none" stroke="#000000" d="M2009.3816,-1380.3919C1917.0109,-1332.992 1647.9693,-1190.9336 1444.1459,-1043 1420.82,-1026.0702 1396.3953,-1004.3461 1378.7299,-987.8093"/>
<polygon fill="#000000" stroke="#000000" points="1380.7884,-984.9388 1371.1172,-980.6121 1375.9794,-990.0255 1380.7884,-984.9388"/>
</g>
<!-- u21&#45;&gt;u18 -->
<g id="edge37" class="edge">
<title>u21&#45;&gt;u18</title>
<path fill="none" stroke="#000000" d="M2042.2617,-1378.7944C2042.7042,-1291.31 2043.357,-905.3755 2023.1459,-590 2018.0195,-510.0071 2006.7076,-415.9942 2000.8395,-370.0871"/>
<polygon fill="#000000" stroke="#000000" points="2004.2897,-369.4758 1999.5391,-360.0057 1997.3472,-370.3713 2004.2897,-369.4758"/>
</g>
<!-- u22&#45;&gt;u1 -->
<g id="edge1" class="edge">
<title>u22&#45;&gt;u1</title>
<path fill="none" stroke="#000000" d="M2353.9259,-1382.664C2266.0735,-1340.0016 2005.9131,-1206.591 1831.1459,-1043 1814.2434,-1027.1784 1798.8534,-1005.9693 1788.0325,-989.3643"/>
<polygon fill="#000000" stroke="#000000" points="1790.8285,-987.2384 1782.5104,-980.6764 1784.9209,-990.9934 1790.8285,-987.2384"/>
</g>
<!-- u22&#45;&gt;u6 -->
<g id="edge6" class="edge">
<title>u22&#45;&gt;u6</title>
<path fill="none" stroke="#000000" d="M2354.4145,-1382.5791C2345.4495,-1378.5297 2335.5031,-1374.3281 2326.1459,-1371 1795.9213,-1182.4115 1583.9218,-1335.5036 1103.1459,-1043 1080.7833,-1029.3946 1061.154,-1006.9276 1047.8988,-989.261"/>
<polygon fill="#000000" stroke="#000000" points="1050.6299,-987.0655 1041.9196,-981.0337 1044.9673,-991.1808 1050.6299,-987.0655"/>
</g>
<!-- u22&#45;&gt;u18 -->
<g id="edge38" class="edge">
<title>u22&#45;&gt;u18</title>
<path fill="none" stroke="#000000" d="M2377.5912,-1379.1312C2332.0537,-1254.9916 2063.0219,-521.5844 2007.2603,-369.573"/>
<polygon fill="#000000" stroke="#000000" points="2010.4895,-368.2128 2003.7597,-360.0299 2003.9177,-370.6236 2010.4895,-368.2128"/>
</g>
<!-- u22&#45;&gt;u30 -->
<g id="edge51" class="edge">
<title>u22&#45;&gt;u30</title>
<path fill="none" stroke="#000000" d="M2375.017,-1379.2203C2322.5772,-1277.0869 2059.8128,-765.3187 1996.7615,-642.5182"/>
<polygon fill="#000000" stroke="#000000" points="1999.7678,-640.7104 1992.0866,-633.4131 1993.5406,-643.9077 1999.7678,-640.7104"/>
</g>
<!-- u23 -->
<g id="node28" class="node">
<title>u23</title>
<ellipse fill="#ff7777" stroke="#000000" stroke-width="0" cx="2630.1459" cy="-1397" rx="30.5947" ry="18"/>
<text text-anchor="middle" x="2630.1459" y="-1393.3" font-family="Times,serif" font-size="14.00" fill="#000000">Index</text>
</g>
<!-- u24 -->
<g id="node29" class="node">
<title>u24</title>
<ellipse fill="#ff7777" stroke="#000000" stroke-width="0" cx="2516.1459" cy="-1397" rx="65.7887" ry="18"/>
<text text-anchor="middle" x="2516.1459" y="-1393.3" font-family="Times,serif" font-size="14.00" fill="#000000">StoredTimeline</text>
</g>
<!-- u25&#45;&gt;u11 -->
<g id="edge12" class="edge">
<title>u25&#45;&gt;u11</title>
<path fill="none" stroke="#000000" d="M2707.5127,-1382.5788C2513.029,-1318.243 1733.8032,-1059.8469 1713.1459,-1043 1696.2406,-1029.2131 1684.0688,-1007.6259 1676.353,-990.3491"/>
<polygon fill="#000000" stroke="#000000" points="1679.426,-988.6275 1672.323,-980.7663 1672.9734,-991.3412 1679.426,-988.6275"/>
</g>
<!-- u25&#45;&gt;u7 -->
<g id="edge9" class="edge">
<title>u25&#45;&gt;u7</title>
<path fill="none" stroke="#000000" d="M2709.4442,-1382.296C2696.9191,-1378.2385 2683.0708,-1374.1036 2670.1459,-1371 1784.4708,-1158.3231 1475.9364,-1420.8336 647.1459,-1043 618.8182,-1030.0858 592.0841,-1006.5126 574.0579,-988.288"/>
<polygon fill="#000000" stroke="#000000" points="576.3474,-985.62 566.8863,-980.8515 571.3087,-990.4792 576.3474,-985.62"/>
</g>
<!-- u25&#45;&gt;u18 -->
<g id="edge39" class="edge">
<title>u25&#45;&gt;u18</title>
<path fill="none" stroke="#000000" d="M2738.3752,-1379.1312C2649.3816,-1254.6109 2122.2749,-517.081 2015.8645,-368.1911"/>
<polygon fill="#000000" stroke="#000000" points="2018.4039,-365.7249 2009.7418,-359.6242 2012.7089,-369.7951 2018.4039,-365.7249"/>
</g>
<!-- u25&#45;&gt;u30 -->
<g id="edge52" class="edge">
<title>u25&#45;&gt;u30</title>
<path fill="none" stroke="#000000" d="M2733.6622,-1379.2203C2632.2802,-1276.1222 2120.4369,-755.6149 2005.9041,-639.1434"/>
<polygon fill="#000000" stroke="#000000" points="2008.1554,-636.441 1998.6483,-631.7648 2003.1643,-641.349 2008.1554,-636.441"/>
</g>
<!-- u26 -->
<g id="node31" class="node">
<title>u26</title>
<ellipse fill="#ff7777" stroke="#000000" stroke-width="0" cx="2286.1459" cy="-1397" rx="31.3957" ry="18"/>
<text text-anchor="middle" x="2286.1459" y="-1393.3" font-family="Times,serif" font-size="14.00" fill="#000000">Event</text>
</g>
<!-- u27 -->
<g id="node32" class="node">
<title>u27</title>
<ellipse fill="#ff7777" stroke="#000000" stroke-width="0" cx="2189.1459" cy="-1397" rx="47.3916" ry="18"/>
<text text-anchor="middle" x="2189.1459" y="-1393.3" font-family="Times,serif" font-size="14.00" fill="#000000">TimeSpan</text>
</g>
<!-- u29 -->
<g id="node34" class="node">
<title>u29</title>
<ellipse fill="#ff7777" stroke="#000000" stroke-width="0" cx="2884.1459" cy="-1397" rx="42.7926" ry="18"/>
<text text-anchor="middle" x="2884.1459" y="-1393.3" font-family="Times,serif" font-size="14.00" fill="#000000">Timeline</text>
</g>
<!-- u29&#45;&gt;u28 -->
<g id="edge46" class="edge">
<title>u29&#45;&gt;u28</title>
<path fill="none" stroke="#000000" d="M2886.5643,-1378.9041C2895.5922,-1311.35 2927.3668,-1073.5888 2938.3654,-991.2888"/>
<polygon fill="#000000" stroke="#000000" points="2941.8617,-991.5487 2939.7172,-981.1731 2934.9234,-990.6214 2941.8617,-991.5487"/>
</g>
</g>
</svg>
