<?xml version="1.0" encoding="UTF-8" standalone="no"?>
<!DOCTYPE svg PUBLIC "-//W3C//DTD SVG 1.1//EN"
 "http://www.w3.org/Graphics/SVG/1.1/DTD/svg11.dtd">
<!-- Generated by graphviz version 2.40.1 (20161225.0304)
 -->
<!-- Title: Modules Pages: 1 -->
<svg width="864pt" height="539pt"
 viewBox="0.00 0.00 864.00 538.87" xmlns="http://www.w3.org/2000/svg" xmlns:xlink="http://www.w3.org/1999/xlink">
<g id="graph0" class="graph" transform="scale(.419 .419) rotate(0) translate(4 1282)">
<title>Modules</title>
<polygon fill="#ffffff" stroke="transparent" points="-4,4 -4,-1282 2057.9152,-1282 2057.9152,4 -4,4"/>
<g id="clust1" class="cluster">
<title>cluster_0</title>
<polygon fill="#000000" fill-opacity="0.058824" stroke="#000000" stroke-opacity="0.058824" points="308.7693,-323.0632 308.7693,-772.026 1913.7693,-772.026 1913.7693,-323.0632 308.7693,-323.0632"/>
<text text-anchor="middle" x="1111.2693" y="-756.826" font-family="Times,serif" font-size="14.00" fill="#000000">Components</text>
</g>
<g id="clust2" class="cluster">
<title>cluster_1</title>
<polygon fill="#000000" fill-opacity="0.058824" stroke="#000000" stroke-opacity="0.058824" points="414.7693,-520.2268 414.7693,-698.3866 1392.7693,-698.3866 1392.7693,-520.2268 414.7693,-520.2268"/>
<text text-anchor="middle" x="903.7693" y="-683.1866" font-family="Times,serif" font-size="14.00" fill="#000000">Dialogs</text>
</g>
<g id="clust3" class="cluster">
<title>cluster_2</title>
<polygon fill="#000000" fill-opacity="0.058824" stroke="#000000" stroke-opacity="0.058824" points="1512.7693,-520.2268 1512.7693,-698.3866 1819.7693,-698.3866 1819.7693,-520.2268 1512.7693,-520.2268"/>
<text text-anchor="middle" x="1666.2693" y="-683.1866" font-family="Times,serif" font-size="14.00" fill="#000000">Drawers</text>
</g>
<g id="clust4" class="cluster">
<title>cluster_3</title>
<polygon fill="#000000" fill-opacity="0.058824" stroke="#000000" stroke-opacity="0.058824" points="194.7693,-152.0297 194.7693,-501.223 300.7693,-501.223 300.7693,-152.0297 194.7693,-152.0297"/>
<text text-anchor="middle" x="247.7693" y="-486.023" font-family="Times,serif" font-size="14.00" fill="#000000">Plumbing</text>
</g>
<g id="clust5" class="cluster">
<title>cluster_4</title>
<polygon fill="#000000" fill-opacity="0.058824" stroke="#000000" stroke-opacity="0.058824" points="1594.7693,-1080.8364 1594.7693,-1258.9963 1704.7693,-1258.9963 1704.7693,-1080.8364 1594.7693,-1080.8364"/>
<text text-anchor="middle" x="1649.7693" y="-1243.7963" font-family="Times,serif" font-size="14.00" fill="#000000">Scripts</text>
</g>
<g id="clust6" class="cluster">
<title>cluster_5</title>
<polygon fill="#000000" fill-opacity="0.058824" stroke="#000000" stroke-opacity="0.058824" points="144.7693,-791.0297 144.7693,-1061.8327 1262.7693,-1061.8327 1262.7693,-791.0297 144.7693,-791.0297"/>
<text text-anchor="middle" x="703.7693" y="-1046.6327" font-family="Times,serif" font-size="14.00" fill="#000000">Timeline</text>
</g>
<g id="clust7" class="cluster">
<title>cluster_6</title>
<polygon fill="#000000" fill-opacity="0.058824" stroke="#000000" stroke-opacity="0.058824" points="152.7693,-810.0335 152.7693,-988.1933 1254.7693,-988.1933 1254.7693,-810.0335 152.7693,-810.0335"/>
<text text-anchor="middle" x="703.7693" y="-972.9933" font-family="Times,serif" font-size="14.00" fill="#000000">UI</text>
</g>
<!-- u16 -->
<g id="node1" class="node">
<title>u16</title>
<ellipse fill="#bbffbb" stroke="#000000" stroke-width="0" cx="1337.7693" cy="-1143" rx="38.9931" ry="18"/>
<text text-anchor="middle" x="1337.7693" y="-1139.3" font-family="Times,serif" font-size="14.00" fill="#000000">Settings</text>
</g>
<!-- u8 -->
<g id="node4" class="node">
<title>u8</title>
<ellipse fill="#ffffbb" stroke="#000000" stroke-width="0" cx="1136.7693" cy="-385" rx="30.5947" ry="18"/>
<text text-anchor="middle" x="1136.7693" y="-381.3" font-family="Times,serif" font-size="14.00" fill="#000000">Index</text>
</g>
<!-- u16&#45;&gt;u8 -->
<g id="edge22" class="edge">
<title>u16&#45;&gt;u8</title>
<path fill="none" stroke="#000000" d="M1362.6356,-1129.0111C1414.3163,-1099.4358 1536.1429,-1027.0857 1627.7693,-952 1768.0267,-837.0624 1845.8108,-829.7125 1914.7693,-662 1932.6848,-618.4283 1944.2906,-592.7145 1914.7693,-556 1820.5037,-438.7652 1324.581,-397.2918 1177.7583,-387.4793"/>
<polygon fill="#000000" stroke="#000000" points="1177.6105,-383.9622 1167.4032,-386.8014 1177.1532,-390.9473 1177.6105,-383.9622"/>
</g>
<!-- u10 -->
<g id="node6" class="node">
<title>u10</title>
<ellipse fill="#ffffbb" stroke="#000000" stroke-width="0" cx="1867.7693" cy="-582" rx="37.8943" ry="18"/>
<text text-anchor="middle" x="1867.7693" y="-578.3" font-family="Times,serif" font-size="14.00" fill="#000000">TopBar</text>
</g>
<!-- u16&#45;&gt;u10 -->
<g id="edge24" class="edge">
<title>u16&#45;&gt;u10</title>
<path fill="none" stroke="#000000" d="M1357.6313,-1127.424C1428.4465,-1071.1172 1672.3959,-870.4382 1823.7693,-662 1835.8794,-645.3247 1847.0379,-624.9524 1855.0877,-608.9395"/>
<polygon fill="#000000" stroke="#000000" points="1858.4061,-610.1227 1859.6789,-599.6046 1852.1247,-607.0334 1858.4061,-610.1227"/>
</g>
<!-- u0 -->
<g id="node8" class="node">
<title>u0</title>
<ellipse fill="#bbbbff" stroke="#000000" stroke-width="0" cx="1330.7693" cy="-582" rx="53.8905" ry="18"/>
<text text-anchor="middle" x="1330.7693" y="-578.3" font-family="Times,serif" font-size="14.00" fill="#000000">SettingsEdit</text>
</g>
<!-- u16&#45;&gt;u0 -->
<g id="edge1" class="edge">
<title>u16&#45;&gt;u0</title>
<path fill="none" stroke="#000000" d="M1337.5444,-1124.9699C1336.5293,-1043.6236 1332.3719,-710.4337 1331.1247,-610.4773"/>
<polygon fill="#000000" stroke="#000000" points="1334.6216,-610.2004 1330.997,-600.2449 1327.6221,-610.2878 1334.6216,-610.2004"/>
</g>
<!-- u3 -->
<g id="node11" class="node">
<title>u3</title>
<ellipse fill="#bbbbff" stroke="#000000" stroke-width="0" cx="1194.7693" cy="-582" rx="63.8893" ry="18"/>
<text text-anchor="middle" x="1194.7693" y="-578.3" font-family="Times,serif" font-size="14.00" fill="#000000">TimeScaleEdit</text>
</g>
<!-- u16&#45;&gt;u3 -->
<g id="edge3" class="edge">
<title>u16&#45;&gt;u3</title>
<path fill="none" stroke="#000000" d="M1336.6841,-1124.8354C1333.5183,-1077.1201 1322.6874,-944.5622 1294.7693,-838 1272.2373,-751.9962 1229.5292,-655.5693 1207.9516,-609.4532"/>
<polygon fill="#000000" stroke="#000000" points="1210.9901,-607.6906 1203.5594,-600.1385 1204.6587,-610.6761 1210.9901,-607.6906"/>
</g>
<!-- u4 -->
<g id="node12" class="node">
<title>u4</title>
<ellipse fill="#bbbbff" stroke="#000000" stroke-width="0" cx="685.7693" cy="-582" rx="87.1846" ry="18"/>
<text text-anchor="middle" x="685.7693" y="-578.3" font-family="Times,serif" font-size="14.00" fill="#000000">TimeSpaceNameEdit</text>
</g>
<!-- u16&#45;&gt;u4 -->
<g id="edge5" class="edge">
<title>u16&#45;&gt;u4</title>
<path fill="none" stroke="#000000" d="M1333.5206,-1124.687C1318.5653,-1060.5013 1268.7231,-849.0028 1258.7693,-838 1107.1721,-670.4262 977.4082,-775.0848 781.7693,-662 755.3087,-646.705 728.8994,-624.0177 710.4977,-606.7056"/>
<polygon fill="#000000" stroke="#000000" points="712.7702,-604.036 703.1247,-599.6524 707.9314,-609.0942 712.7702,-604.036"/>
</g>
<!-- u12 -->
<g id="node16" class="node">
<title>u12</title>
<ellipse fill="#ffbbbb" stroke="#000000" stroke-width="0" cx="1562.7693" cy="-582" rx="41.6928" ry="18"/>
<text text-anchor="middle" x="1562.7693" y="-578.3" font-family="Times,serif" font-size="14.00" fill="#000000">Children</text>
</g>
<!-- u16&#45;&gt;u12 -->
<g id="edge27" class="edge">
<title>u16&#45;&gt;u12</title>
<path fill="none" stroke="#000000" d="M1344.8747,-1125.2838C1377.409,-1044.165 1512.2679,-707.9168 1551.8199,-609.3005"/>
<polygon fill="#000000" stroke="#000000" points="1555.0757,-610.5851 1555.5497,-600.0009 1548.5787,-607.9793 1555.0757,-610.5851"/>
</g>
<!-- u13 -->
<g id="node17" class="node">
<title>u13</title>
<ellipse fill="#ffbbbb" stroke="#000000" stroke-width="0" cx="1765.7693" cy="-582" rx="46.2923" ry="18"/>
<text text-anchor="middle" x="1765.7693" y="-578.3" font-family="Times,serif" font-size="14.00" fill="#000000">Timelines</text>
</g>
<!-- u16&#45;&gt;u13 -->
<g id="edge28" class="edge">
<title>u16&#45;&gt;u13</title>
<path fill="none" stroke="#000000" d="M1352.3616,-1126.1532C1380.7751,-1093.2021 1445.2544,-1017.6985 1496.7693,-952 1595.6087,-825.9474 1617.8267,-792.4613 1710.7693,-662 1723.4407,-644.2135 1737.3747,-623.938 1748.0471,-608.2494"/>
<polygon fill="#000000" stroke="#000000" points="1751.2005,-609.8356 1753.9198,-599.5957 1745.4083,-605.9049 1751.2005,-609.8356"/>
</g>
<!-- u14 -->
<g id="node18" class="node">
<title>u14</title>
<ellipse fill="#ffbbbb" stroke="#000000" stroke-width="0" cx="1661.7693" cy="-582" rx="39.7935" ry="18"/>
<text text-anchor="middle" x="1661.7693" y="-578.3" font-family="Times,serif" font-size="14.00" fill="#000000">Siblings</text>
</g>
<!-- u16&#45;&gt;u14 -->
<g id="edge29" class="edge">
<title>u16&#45;&gt;u14</title>
<path fill="none" stroke="#000000" d="M1348.3015,-1125.4124C1368.3939,-1091.8132 1413.5153,-1016.1319 1450.7693,-952 1525.1623,-823.9343 1612.3022,-669.7821 1646.7081,-608.7498"/>
<polygon fill="#000000" stroke="#000000" points="1649.9069,-610.2025 1651.7673,-599.7722 1643.8086,-606.7658 1649.9069,-610.2025"/>
</g>
<!-- u15 -->
<g id="node19" class="node">
<title>u15</title>
<ellipse fill="#bbffbb" stroke="#000000" stroke-width="2" cx="247.7693" cy="-214" rx="45.4919" ry="18"/>
<text text-anchor="middle" x="247.7693" y="-210.3" font-family="Times,serif" font-size="14.00" fill="#000000">Plumbing</text>
</g>
<!-- u16&#45;&gt;u15 -->
<g id="edge33" class="edge">
<title>u16&#45;&gt;u15</title>
<path fill="none" stroke="#000000" d="M1299.2902,-1140.0371C1098.2691,-1124.1787 174.8798,-1046.5144 93.7693,-952 -78.0752,-751.7573 20.3123,-602.167 122.7693,-359 144.0025,-308.6062 189.5755,-263.0944 219.4312,-237.0051"/>
<polygon fill="#000000" stroke="#000000" points="222.0867,-239.3388 227.402,-230.1737 217.5314,-234.0238 222.0867,-239.3388"/>
</g>
<!-- u19 -->
<g id="node20" class="node">
<title>u19</title>
<ellipse fill="#bbffff" stroke="#000000" stroke-width="0" cx="261.7693" cy="-385" rx="31.3957" ry="18"/>
<text text-anchor="middle" x="261.7693" y="-381.3" font-family="Times,serif" font-size="14.00" fill="#000000">Logic</text>
</g>
<!-- u16&#45;&gt;u19 -->
<g id="edge43" class="edge">
<title>u16&#45;&gt;u19</title>
<path fill="none" stroke="#000000" d="M1299.3873,-1139.7627C1103.9742,-1122.9027 225.8524,-1042.4539 148.7693,-952 8.2367,-787.0907 185.0428,-497.1512 243.9418,-410.2841"/>
<polygon fill="#000000" stroke="#000000" points="246.9638,-412.0658 249.7327,-401.8391 241.1908,-408.107 246.9638,-412.0658"/>
</g>
<!-- u24 -->
<g id="node25" class="node">
<title>u24</title>
<ellipse fill="#ffff77" stroke="#000000" stroke-width="0" cx="920.7693" cy="-872" rx="72.2875" ry="18"/>
<text text-anchor="middle" x="920.7693" y="-868.3" font-family="Times,serif" font-size="14.00" fill="#000000">TimeSpaceName</text>
</g>
<!-- u16&#45;&gt;u24 -->
<g id="edge46" class="edge">
<title>u16&#45;&gt;u24</title>
<path fill="none" stroke="#000000" d="M1309.7028,-1130.1683C1250.0402,-1102.2405 1107.4243,-1031.9937 1001.7693,-952 980.373,-935.8003 958.8868,-914.2796 943.4253,-897.6396"/>
<polygon fill="#000000" stroke="#000000" points="945.6803,-894.9195 936.3459,-889.9076 940.5175,-899.6466 945.6803,-894.9195"/>
</g>
<!-- u26 -->
<g id="node27" class="node">
<title>u26</title>
<ellipse fill="#ffff77" stroke="#000000" stroke-width="0" cx="781.7693" cy="-872" rx="48.9926" ry="18"/>
<text text-anchor="middle" x="781.7693" y="-868.3" font-family="Times,serif" font-size="14.00" fill="#000000">TimeScale</text>
</g>
<!-- u16&#45;&gt;u26 -->
<g id="edge47" class="edge">
<title>u16&#45;&gt;u26</title>
<path fill="none" stroke="#000000" d="M1301.0967,-1136.4246C1213.5324,-1119.2438 988.4924,-1066.2047 839.7693,-952 821.2861,-937.8067 806.0872,-916.1502 795.8915,-898.9475"/>
<polygon fill="#000000" stroke="#000000" points="798.743,-896.882 790.7529,-889.9244 792.6603,-900.3462 798.743,-896.882"/>
</g>
<!-- u17 -->
<g id="node2" class="node">
<title>u17</title>
<ellipse fill="#bbffbb" stroke="#000000" stroke-width="0" cx="473.7693" cy="-43" rx="29.795" ry="18"/>
<text text-anchor="middle" x="473.7693" y="-39.3" font-family="Times,serif" font-size="14.00" fill="#000000">Main</text>
</g>
<!-- u18 -->
<g id="node3" class="node">
<title>u18</title>
<ellipse fill="#bbffbb" stroke="#000000" stroke-width="0" cx="2007.7693" cy="-582" rx="46.2923" ry="18"/>
<text text-anchor="middle" x="2007.7693" y="-578.3" font-family="Times,serif" font-size="14.00" fill="#000000">WithRoot</text>
</g>
<!-- u18&#45;&gt;u8 -->
<g id="edge23" class="edge">
<title>u18&#45;&gt;u8</title>
<path fill="none" stroke="#000000" d="M1978.6184,-567.9679C1968.9576,-563.6975 1958.0456,-559.2732 1947.7693,-556 1658.9628,-464.0101 1296.3523,-407.6296 1176.9257,-390.5386"/>
<polygon fill="#000000" stroke="#000000" points="1177.1785,-387.0395 1166.7857,-389.0986 1176.1942,-393.97 1177.1785,-387.0395"/>
</g>
<!-- u8&#45;&gt;u17 -->
<g id="edge38" class="edge">
<title>u8&#45;&gt;u17</title>
<path fill="none" stroke="#000000" d="M1113.5616,-373.0286C1013.8026,-321.5692 621.2735,-119.0881 505.8533,-59.5501"/>
<polygon fill="#000000" stroke="#000000" points="507.2806,-56.3481 496.7887,-54.8743 504.0714,-62.5692 507.2806,-56.3481"/>
</g>
<!-- u9 -->
<g id="node5" class="node">
<title>u9</title>
<ellipse fill="#ffffbb" stroke="#000000" stroke-width="0" cx="360.7693" cy="-582" rx="43.5923" ry="18"/>
<text text-anchor="middle" x="360.7693" y="-578.3" font-family="Times,serif" font-size="14.00" fill="#000000">Snackbar</text>
</g>
<!-- u9&#45;&gt;u8 -->
<g id="edge15" class="edge">
<title>u9&#45;&gt;u8</title>
<path fill="none" stroke="#000000" d="M386.1618,-567.2463C393.8835,-563.1874 402.5141,-559.0642 410.7693,-556 663.6178,-462.1469 985.6024,-407.8191 1096.8537,-390.8265"/>
<polygon fill="#000000" stroke="#000000" points="1097.5889,-394.2552 1106.9528,-389.2986 1096.5417,-387.334 1097.5889,-394.2552"/>
</g>
<!-- u9&#45;&gt;u15 -->
<g id="edge32" class="edge">
<title>u9&#45;&gt;u15</title>
<path fill="none" stroke="#000000" d="M356.6183,-563.9067C347.7173,-525.7141 325.6541,-434.1909 301.7693,-359 288.6018,-317.5478 270.4898,-270.5283 258.9548,-241.565"/>
<polygon fill="#000000" stroke="#000000" points="262.1357,-240.0933 255.1679,-232.112 255.6377,-242.6964 262.1357,-240.0933"/>
</g>
<!-- u9&#45;&gt;u19 -->
<g id="edge42" class="edge">
<title>u9&#45;&gt;u19</title>
<path fill="none" stroke="#000000" d="M351.8091,-564.1701C334.3155,-529.3596 295.5399,-452.2001 275.051,-411.4292"/>
<polygon fill="#000000" stroke="#000000" points="278.1139,-409.7293 270.4962,-402.3657 271.8593,-412.8725 278.1139,-409.7293"/>
</g>
<!-- u10&#45;&gt;u8 -->
<g id="edge16" class="edge">
<title>u10&#45;&gt;u8</title>
<path fill="none" stroke="#000000" d="M1845.5815,-567.1998C1838.7908,-563.1396 1831.1588,-559.0274 1823.7693,-556 1588.2197,-459.4983 1284.1621,-407.2203 1176.6043,-390.7704"/>
<polygon fill="#000000" stroke="#000000" points="1176.9337,-387.2805 1166.5228,-389.2459 1175.8871,-394.2018 1176.9337,-387.2805"/>
</g>
<!-- u11 -->
<g id="node7" class="node">
<title>u11</title>
<ellipse fill="#ffffbb" stroke="#000000" stroke-width="0" cx="1452.7693" cy="-582" rx="50.0912" ry="18"/>
<text text-anchor="middle" x="1452.7693" y="-578.3" font-family="Times,serif" font-size="14.00" fill="#000000">BottomBar</text>
</g>
<!-- u11&#45;&gt;u8 -->
<g id="edge17" class="edge">
<title>u11&#45;&gt;u8</title>
<path fill="none" stroke="#000000" d="M1427.7092,-566.3771C1370.1072,-530.467 1228.4839,-442.1765 1166.5618,-403.5731"/>
<polygon fill="#000000" stroke="#000000" points="1168.3612,-400.5705 1158.0235,-398.2502 1164.6579,-406.5107 1168.3612,-400.5705"/>
</g>
<!-- u0&#45;&gt;u8 -->
<g id="edge7" class="edge">
<title>u0&#45;&gt;u8</title>
<path fill="none" stroke="#000000" d="M1313.8925,-564.8622C1278.9772,-529.407 1198.7927,-447.9825 1159.421,-408.0019"/>
<polygon fill="#000000" stroke="#000000" points="1161.6267,-405.2536 1152.1163,-400.5843 1156.6391,-410.1652 1161.6267,-405.2536"/>
</g>
<!-- u1 -->
<g id="node9" class="node">
<title>u1</title>
<ellipse fill="#bbbbff" stroke="#000000" stroke-width="0" cx="817.7693" cy="-582" rx="27.0966" ry="18"/>
<text text-anchor="middle" x="817.7693" y="-578.3" font-family="Times,serif" font-size="14.00" fill="#000000">New</text>
</g>
<!-- u1&#45;&gt;u8 -->
<g id="edge8" class="edge">
<title>u1&#45;&gt;u8</title>
<path fill="none" stroke="#000000" d="M835.8799,-568.4788C841.5409,-564.3724 847.854,-559.9137 853.7693,-556 943.4177,-496.6859 1053.335,-432.6512 1105.9025,-402.538"/>
<polygon fill="#000000" stroke="#000000" points="1107.7897,-405.4907 1114.7341,-397.4891 1104.3156,-399.4137 1107.7897,-405.4907"/>
</g>
<!-- u2 -->
<g id="node10" class="node">
<title>u2</title>
<ellipse fill="#bbbbff" stroke="#000000" stroke-width="0" cx="944.7693" cy="-582" rx="81.7856" ry="18"/>
<text text-anchor="middle" x="944.7693" y="-578.3" font-family="Times,serif" font-size="14.00" fill="#000000">ExploreTimeSpaces</text>
</g>
<!-- u2&#45;&gt;u8 -->
<g id="edge9" class="edge">
<title>u2&#45;&gt;u8</title>
<path fill="none" stroke="#000000" d="M962.1467,-564.1701C997.0224,-528.3862 1075.5128,-447.8518 1114.2595,-408.096"/>
<polygon fill="#000000" stroke="#000000" points="1116.9811,-410.3182 1121.4542,-400.7139 1111.9681,-405.4325 1116.9811,-410.3182"/>
</g>
<!-- u3&#45;&gt;u8 -->
<g id="edge10" class="edge">
<title>u3&#45;&gt;u8</title>
<path fill="none" stroke="#000000" d="M1189.4168,-563.8198C1179.2049,-529.1347 1156.8884,-453.3354 1144.8505,-412.4483"/>
<polygon fill="#000000" stroke="#000000" points="1148.207,-411.4561 1142.0252,-402.8517 1141.492,-413.4331 1148.207,-411.4561"/>
</g>
<!-- u4&#45;&gt;u8 -->
<g id="edge11" class="edge">
<title>u4&#45;&gt;u8</title>
<path fill="none" stroke="#000000" d="M723.0603,-565.7111C809.0329,-528.1576 1020.0974,-435.9631 1102.771,-399.8507"/>
<polygon fill="#000000" stroke="#000000" points="1104.2087,-403.0421 1111.9716,-395.8318 1101.4066,-396.6274 1104.2087,-403.0421"/>
</g>
<!-- u5 -->
<g id="node13" class="node">
<title>u5</title>
<ellipse fill="#bbbbff" stroke="#000000" stroke-width="0" cx="1078.7693" cy="-582" rx="34.394" ry="18"/>
<text text-anchor="middle" x="1078.7693" y="-578.3" font-family="Times,serif" font-size="14.00" fill="#000000">EULA</text>
</g>
<!-- u5&#45;&gt;u8 -->
<g id="edge12" class="edge">
<title>u5&#45;&gt;u8</title>
<path fill="none" stroke="#000000" d="M1084.0187,-564.1701C1094.1729,-529.6811 1116.566,-453.6218 1128.6528,-412.5681"/>
<polygon fill="#000000" stroke="#000000" points="1132.0231,-413.5129 1131.49,-402.9315 1125.3081,-411.5359 1132.0231,-413.5129"/>
</g>
<!-- u6 -->
<g id="node14" class="node">
<title>u6</title>
<ellipse fill="#bbbbff" stroke="#000000" stroke-width="0" cx="545.7693" cy="-582" rx="34.394" ry="18"/>
<text text-anchor="middle" x="545.7693" y="-578.3" font-family="Times,serif" font-size="14.00" fill="#000000">Export</text>
</g>
<!-- u6&#45;&gt;u8 -->
<g id="edge13" class="edge">
<title>u6&#45;&gt;u8</title>
<path fill="none" stroke="#000000" d="M567.6222,-567.7432C574.5298,-563.6069 582.3103,-559.3163 589.7693,-556 773.1721,-474.4604 1007.1838,-415.2468 1098.1656,-393.8041"/>
<polygon fill="#000000" stroke="#000000" points="1099.097,-397.1808 1108.0364,-391.4942 1097.5019,-390.365 1099.097,-397.1808"/>
</g>
<!-- u6&#45;&gt;u15 -->
<g id="edge30" class="edge">
<title>u6&#45;&gt;u15</title>
<path fill="none" stroke="#000000" d="M540.8579,-564.1605C529.1583,-524.0752 496.5356,-425.2098 442.7693,-359 397.6758,-303.4702 326.7717,-257.8891 284.0298,-233.4383"/>
<polygon fill="#000000" stroke="#000000" points="285.5272,-230.2646 275.0974,-228.4018 282.0891,-236.3622 285.5272,-230.2646"/>
</g>
<!-- u6&#45;&gt;u19 -->
<g id="edge40" class="edge">
<title>u6&#45;&gt;u19</title>
<path fill="none" stroke="#000000" d="M524.8861,-567.5141C474.7897,-532.7641 347.7134,-444.6161 290.4831,-404.9176"/>
<polygon fill="#000000" stroke="#000000" points="292.1317,-401.8016 281.9201,-398.9778 288.142,-407.5534 292.1317,-401.8016"/>
</g>
<!-- u7 -->
<g id="node15" class="node">
<title>u7</title>
<ellipse fill="#bbbbff" stroke="#000000" stroke-width="0" cx="457.7693" cy="-582" rx="35.194" ry="18"/>
<text text-anchor="middle" x="457.7693" y="-578.3" font-family="Times,serif" font-size="14.00" fill="#000000">Import</text>
</g>
<!-- u7&#45;&gt;u8 -->
<g id="edge14" class="edge">
<title>u7&#45;&gt;u8</title>
<path fill="none" stroke="#000000" d="M479.6136,-567.8506C486.789,-563.6231 494.9367,-559.2534 502.7693,-556 718.8464,-466.2487 995.9555,-410.4984 1097.3572,-391.9176"/>
<polygon fill="#000000" stroke="#000000" points="1098.2383,-395.315 1107.4522,-390.0847 1096.9878,-388.4276 1098.2383,-395.315"/>
</g>
<!-- u7&#45;&gt;u15 -->
<g id="edge31" class="edge">
<title>u7&#45;&gt;u15</title>
<path fill="none" stroke="#000000" d="M458.1535,-563.8657C458.209,-524.018 453.9695,-426.9686 414.7693,-359 382.8024,-303.5731 321.6909,-258.8656 282.9226,-234.4077"/>
<polygon fill="#000000" stroke="#000000" points="284.4012,-231.2068 274.056,-228.9208 280.7177,-237.1592 284.4012,-231.2068"/>
</g>
<!-- u7&#45;&gt;u19 -->
<g id="edge41" class="edge">
<title>u7&#45;&gt;u19</title>
<path fill="none" stroke="#000000" d="M441.7298,-565.8787C407.1019,-531.0741 325.227,-448.7814 284.9559,-408.3048"/>
<polygon fill="#000000" stroke="#000000" points="287.0169,-405.414 277.4827,-400.7935 282.0546,-410.3512 287.0169,-405.414"/>
</g>
<!-- u12&#45;&gt;u8 -->
<g id="edge18" class="edge">
<title>u12&#45;&gt;u8</title>
<path fill="none" stroke="#000000" d="M1537.6874,-567.2744C1530.9601,-563.4763 1523.6442,-559.4806 1516.7693,-556 1391.887,-492.7756 1238.7086,-427.4405 1171.343,-399.3009"/>
<polygon fill="#000000" stroke="#000000" points="1172.6169,-396.0401 1162.04,-395.4238 1169.924,-402.5014 1172.6169,-396.0401"/>
</g>
<!-- u13&#45;&gt;u8 -->
<g id="edge19" class="edge">
<title>u13&#45;&gt;u8</title>
<path fill="none" stroke="#000000" d="M1737.5812,-567.6673C1729.0801,-563.6203 1719.6468,-559.398 1710.7693,-556 1513.7389,-480.5827 1268.4691,-417.2976 1175.188,-394.2867"/>
<polygon fill="#000000" stroke="#000000" points="1175.8949,-390.8564 1165.3487,-391.8701 1174.2253,-397.6544 1175.8949,-390.8564"/>
</g>
<!-- u14&#45;&gt;u8 -->
<g id="edge20" class="edge">
<title>u14&#45;&gt;u8</title>
<path fill="none" stroke="#000000" d="M1637.2186,-567.7714C1629.8009,-563.7273 1621.5565,-559.4805 1613.7693,-556 1454.3348,-484.7396 1255.3453,-421.1734 1174.0113,-396.2169"/>
<polygon fill="#000000" stroke="#000000" points="1174.8196,-392.8042 1164.2333,-393.2291 1172.774,-399.4987 1174.8196,-392.8042"/>
</g>
<!-- u15&#45;&gt;u17 -->
<g id="edge39" class="edge">
<title>u15&#45;&gt;u17</title>
<path fill="none" stroke="#000000" d="M269.0309,-197.9127C310.3225,-166.67 401.2907,-97.84 446.7725,-63.4268"/>
<polygon fill="#000000" stroke="#000000" points="449.1113,-66.0462 454.974,-57.2212 444.8876,-60.464 449.1113,-66.0462"/>
</g>
<!-- u15&#45;&gt;u8 -->
<g id="edge21" class="edge">
<title>u15&#45;&gt;u8</title>
<path fill="none" stroke="#000000" d="M288.7756,-221.8876C438.1305,-250.6162 951.9055,-349.4413 1097.835,-377.5109"/>
<polygon fill="#000000" stroke="#000000" points="1097.215,-380.9558 1107.6961,-379.4077 1098.5373,-374.0818 1097.215,-380.9558"/>
</g>
<!-- u19&#45;&gt;u15 -->
<g id="edge34" class="edge">
<title>u19&#45;&gt;u15</title>
<path fill="none" stroke="#000000" d="M260.2711,-366.7C257.8291,-336.8729 252.9739,-277.5701 250.0853,-242.2877"/>
<polygon fill="#000000" stroke="#000000" points="253.5612,-241.8494 249.2568,-232.1684 246.5845,-242.4207 253.5612,-241.8494"/>
</g>
<!-- u20 -->
<g id="node21" class="node">
<title>u20</title>
<ellipse fill="#ffbbff" stroke="#000000" stroke-width="0" cx="1649.7693" cy="-1143" rx="46.5926" ry="18"/>
<text text-anchor="middle" x="1649.7693" y="-1139.3" font-family="Times,serif" font-size="14.00" fill="#000000">TrimDocs</text>
</g>
<!-- u21 -->
<g id="node22" class="node">
<title>u21</title>
<ellipse fill="#ffff77" stroke="#000000" stroke-width="0" cx="1180.7693" cy="-872" rx="65.7887" ry="18"/>
<text text-anchor="middle" x="1180.7693" y="-868.3" font-family="Times,serif" font-size="14.00" fill="#000000">StoredTimeline</text>
</g>
<!-- u22 -->
<g id="node23" class="node">
<title>u22</title>
<ellipse fill="#ffff77" stroke="#000000" stroke-width="0" cx="1053.7693" cy="-872" rx="42.7926" ry="18"/>
<text text-anchor="middle" x="1053.7693" y="-868.3" font-family="Times,serif" font-size="14.00" fill="#000000">Timeline</text>
</g>
<!-- u23 -->
<g id="node24" class="node">
<title>u23</title>
<ellipse fill="#ffff77" stroke="#000000" stroke-width="0" cx="554.7693" cy="-872" rx="81.7856" ry="18"/>
<text text-anchor="middle" x="554.7693" y="-868.3" font-family="Times,serif" font-size="14.00" fill="#000000">ExploreTimeSpaces</text>
</g>
<!-- u23&#45;&gt;u2 -->
<g id="edge2" class="edge">
<title>u23&#45;&gt;u2</title>
<path fill="none" stroke="#000000" d="M581.0512,-854.9419C633.9601,-820.3002 756.5631,-738.4955 853.7693,-662 876.1325,-644.4015 900.2722,-623.0625 918.066,-606.8507"/>
<polygon fill="#000000" stroke="#000000" points="920.7578,-609.1312 925.7657,-599.7946 916.0285,-603.9704 920.7578,-609.1312"/>
</g>
<!-- u23&#45;&gt;u15 -->
<g id="edge35" class="edge">
<title>u23&#45;&gt;u15</title>
<path fill="none" stroke="#000000" d="M512.5485,-856.4886C417.541,-820.6367 192.0031,-729.905 150.7693,-662 80.8732,-546.8929 111.6426,-487.8573 150.7693,-359 165.1239,-311.7255 200.57,-265.8236 224.3998,-238.7399"/>
<polygon fill="#000000" stroke="#000000" points="227.31,-240.7375 231.3862,-230.9581 222.1012,-236.0611 227.31,-240.7375"/>
</g>
<!-- u24&#45;&gt;u10 -->
<g id="edge25" class="edge">
<title>u24&#45;&gt;u10</title>
<path fill="none" stroke="#000000" d="M954.927,-855.9945C969.1825,-849.7553 986.0542,-842.9332 1001.7693,-838 1358.2323,-726.1013 1523.9705,-884.9526 1823.7693,-662 1841.1004,-649.1113 1852.4474,-627.279 1859.2706,-609.675"/>
<polygon fill="#000000" stroke="#000000" points="1862.6955,-610.4928 1862.7763,-599.8983 1856.1063,-608.13 1862.6955,-610.4928"/>
</g>
<!-- u24&#45;&gt;u4 -->
<g id="edge6" class="edge">
<title>u24&#45;&gt;u4</title>
<path fill="none" stroke="#000000" d="M906.4228,-854.2957C866.4357,-804.95 753.5964,-665.7015 706.6574,-607.7768"/>
<polygon fill="#000000" stroke="#000000" points="709.2419,-605.4068 700.2267,-599.841 703.8033,-609.8139 709.2419,-605.4068"/>
</g>
<!-- u24&#45;&gt;u15 -->
<g id="edge36" class="edge">
<title>u24&#45;&gt;u15</title>
<path fill="none" stroke="#000000" d="M885.1805,-856.1742C871.1516,-850.17 854.8206,-843.4678 839.7693,-838 590.5684,-747.4716 448.4298,-857.9003 269.7693,-662 160.0413,-541.6837 214.8949,-319.0072 238.6699,-241.4731"/>
<polygon fill="#000000" stroke="#000000" points="242.0099,-242.5192 241.6666,-231.9299 235.3314,-240.422 242.0099,-242.5192"/>
</g>
<!-- u24&#45;&gt;u19 -->
<g id="edge44" class="edge">
<title>u24&#45;&gt;u19</title>
<path fill="none" stroke="#000000" d="M885.1276,-856.318C871.0918,-850.3325 854.7699,-843.6055 839.7693,-838 605.2922,-750.3789 466.6932,-852.8865 304.7693,-662 273.224,-624.8123 264.7165,-476.0935 262.5092,-413.2548"/>
<polygon fill="#000000" stroke="#000000" points="266.0071,-413.1312 262.1861,-403.2494 259.0107,-413.3572 266.0071,-413.1312"/>
</g>
<!-- u25 -->
<g id="node26" class="node">
<title>u25</title>
<ellipse fill="#ffff77" stroke="#000000" stroke-width="0" cx="684.7693" cy="-872" rx="30.5947" ry="18"/>
<text text-anchor="middle" x="684.7693" y="-868.3" font-family="Times,serif" font-size="14.00" fill="#000000">Index</text>
</g>
<!-- u26&#45;&gt;u11 -->
<g id="edge26" class="edge">
<title>u26&#45;&gt;u11</title>
<path fill="none" stroke="#000000" d="M805.9602,-856.1804C816.1268,-849.9697 828.2495,-843.1187 839.7693,-838 1077.0226,-732.58 1187.4584,-815.595 1396.7693,-662 1415.4522,-648.2903 1430.149,-626.4138 1439.7902,-609.0001"/>
<polygon fill="#000000" stroke="#000000" points="1443.04,-610.3416 1444.6195,-599.8651 1436.8515,-607.07 1443.04,-610.3416"/>
</g>
<!-- u26&#45;&gt;u3 -->
<g id="edge4" class="edge">
<title>u26&#45;&gt;u3</title>
<path fill="none" stroke="#000000" d="M807.509,-856.6651C881.8969,-812.2687 1093.6618,-685.3026 1121.7693,-662 1141.2445,-645.854 1160.4131,-624.5817 1174.2177,-608.0314"/>
<polygon fill="#000000" stroke="#000000" points="1177.285,-609.8108 1180.9209,-599.8593 1171.8728,-605.3714 1177.285,-609.8108"/>
</g>
<!-- u26&#45;&gt;u15 -->
<g id="edge37" class="edge">
<title>u26&#45;&gt;u15</title>
<path fill="none" stroke="#000000" d="M757.9986,-856.2219C748.0077,-850.0175 736.0935,-843.16 724.7693,-838 496.6036,-734.034 335.833,-865.0784 188.7693,-662 92.7964,-529.4721 192.3801,-315.5025 232.5666,-240.7794"/>
<polygon fill="#000000" stroke="#000000" points="235.6546,-242.4271 237.377,-231.9731 229.5114,-239.0713 235.6546,-242.4271"/>
</g>
<!-- u26&#45;&gt;u19 -->
<g id="edge45" class="edge">
<title>u26&#45;&gt;u19</title>
<path fill="none" stroke="#000000" d="M757.5719,-856.3641C747.6168,-850.2511 735.8424,-843.4218 724.7693,-838 531.8963,-743.5611 399.9737,-836.478 274.7693,-662 220.4309,-586.2769 240.8423,-466.6713 254.023,-412.8577"/>
<polygon fill="#000000" stroke="#000000" points="257.4559,-413.5597 256.5384,-403.0047 250.6735,-411.8281 257.4559,-413.5597"/>
</g>
<!-- u27 -->
<g id="node28" class="node">
<title>u27</title>
<ellipse fill="#ffff77" stroke="#000000" stroke-width="0" cx="423.7693" cy="-872" rx="31.3957" ry="18"/>
<text text-anchor="middle" x="423.7693" y="-868.3" font-family="Times,serif" font-size="14.00" fill="#000000">Event</text>
</g>
<!-- u28 -->
<g id="node29" class="node">
<title>u28</title>
<ellipse fill="#ffff77" stroke="#000000" stroke-width="0" cx="323.7693" cy="-872" rx="50.8918" ry="18"/>
<text text-anchor="middle" x="323.7693" y="-868.3" font-family="Times,serif" font-size="14.00" fill="#000000">TimeSpace</text>
</g>
<!-- u29 -->
<g id="node30" class="node">
<title>u29</title>
<ellipse fill="#ffff77" stroke="#000000" stroke-width="0" cx="207.7693" cy="-872" rx="47.3916" ry="18"/>
<text text-anchor="middle" x="207.7693" y="-868.3" font-family="Times,serif" font-size="14.00" fill="#000000">TimeSpan</text>
</g>
</g>
</svg>
