<?xml version="1.0" encoding="UTF-8" standalone="no"?>
<!DOCTYPE svg PUBLIC "-//W3C//DTD SVG 1.1//EN"
 "http://www.w3.org/Graphics/SVG/1.1/DTD/svg11.dtd">
<!-- Generated by graphviz version 2.40.1 (20161225.0304)
 -->
<!-- Title: Modules Pages: 1 -->
<svg width="864pt" height="555pt"
 viewBox="0.00 0.00 864.00 555.19" xmlns="http://www.w3.org/2000/svg" xmlns:xlink="http://www.w3.org/1999/xlink">
<g id="graph0" class="graph" transform="scale(.6151 .6151) rotate(0) translate(4 898.6667)">
<title>Modules</title>
<polygon fill="#ffffff" stroke="transparent" points="-4,4 -4,-898.6667 1400.7492,-898.6667 1400.7492,4 -4,4"/>
<g id="clust1" class="cluster">
<title>cluster_0</title>
<polygon fill="#000000" fill-opacity="0.058824" stroke="#000000" stroke-opacity="0.058824" points="245.6033,-210.8746 245.6033,-503.9284 1264.6033,-503.9284 1264.6033,-210.8746 245.6033,-210.8746"/>
<text text-anchor="middle" x="755.1033" y="-488.7284" font-family="Times,serif" font-size="14.00" fill="#000000">Components</text>
</g>
<g id="clust2" class="cluster">
<title>cluster_1</title>
<polygon fill="#000000" fill-opacity="0.058824" stroke="#000000" stroke-opacity="0.058824" points="563.6033,-339.5702 563.6033,-455.8614 1256.6033,-455.8614 1256.6033,-339.5702 563.6033,-339.5702"/>
<text text-anchor="middle" x="910.1033" y="-440.6614" font-family="Times,serif" font-size="14.00" fill="#000000">Dialogs</text>
</g>
<g id="clust3" class="cluster">
<title>cluster_2</title>
<polygon fill="#000000" fill-opacity="0.058824" stroke="#000000" stroke-opacity="0.058824" points="131.6033,-99.2351 131.6033,-327.1658 237.6033,-327.1658 237.6033,-99.2351 131.6033,-99.2351"/>
<text text-anchor="middle" x="184.6033" y="-311.9658" font-family="Times,serif" font-size="14.00" fill="#000000">Plumbing</text>
</g>
<g id="clust4" class="cluster">
<title>cluster_3</title>
<polygon fill="#000000" fill-opacity="0.058824" stroke="#000000" stroke-opacity="0.058824" points="1101.6033,-717.9041 1101.6033,-834.1953 1211.6033,-834.1953 1211.6033,-717.9041 1101.6033,-717.9041"/>
<text text-anchor="middle" x="1156.6033" y="-818.9953" font-family="Times,serif" font-size="14.00" fill="#000000">Scripts</text>
</g>
<g id="clust5" class="cluster">
<title>cluster_4</title>
<polygon fill="#000000" fill-opacity="0.058824" stroke="#000000" stroke-opacity="0.058824" points="386.6033,-705.4997 386.6033,-882.2623 524.6033,-882.2623 524.6033,-705.4997 386.6033,-705.4997"/>
<text text-anchor="middle" x="455.6033" y="-867.0623" font-family="Times,serif" font-size="14.00" fill="#000000">Test</text>
</g>
<g id="clust6" class="cluster">
<title>cluster_5</title>
<polygon fill="#000000" fill-opacity="0.058824" stroke="#000000" stroke-opacity="0.058824" points="394.6033,-717.9041 394.6033,-834.1953 516.6033,-834.1953 516.6033,-717.9041 394.6033,-717.9041"/>
<text text-anchor="middle" x="455.6033" y="-818.9953" font-family="Times,serif" font-size="14.00" fill="#000000">QuickCheck</text>
</g>
<g id="clust7" class="cluster">
<title>cluster_6</title>
<polygon fill="#000000" fill-opacity="0.058824" stroke="#000000" stroke-opacity="0.058824" points="62.6033,-516.3328 62.6033,-693.0953 984.6033,-693.0953 984.6033,-516.3328 62.6033,-516.3328"/>
<text text-anchor="middle" x="523.6033" y="-677.8953" font-family="Times,serif" font-size="14.00" fill="#000000">Timeline</text>
</g>
<g id="clust8" class="cluster">
<title>cluster_7</title>
<polygon fill="#000000" fill-opacity="0.058824" stroke="#000000" stroke-opacity="0.058824" points="70.6033,-528.7371 70.6033,-645.0283 976.6033,-645.0283 976.6033,-528.7371 70.6033,-528.7371"/>
<text text-anchor="middle" x="523.6033" y="-629.8283" font-family="Times,serif" font-size="14.00" fill="#000000">Data</text>
</g>
<!-- u11 -->
<g id="node1" class="node">
<title>u11</title>
<ellipse fill="#bbffbb" stroke="#000000" stroke-width="0" cx="1002.6033" cy="-758" rx="38.9931" ry="18"/>
<text text-anchor="middle" x="1002.6033" y="-754.3" font-family="Times,serif" font-size="14.00" fill="#000000">Settings</text>
</g>
<!-- u6 -->
<g id="node4" class="node">
<title>u6</title>
<ellipse fill="#ffffbb" stroke="#000000" stroke-width="0" cx="693.6033" cy="-251" rx="30.5947" ry="18"/>
<text text-anchor="middle" x="693.6033" y="-247.3" font-family="Times,serif" font-size="14.00" fill="#000000">Index</text>
</g>
<!-- u11&#45;&gt;u6 -->
<g id="edge16" class="edge">
<title>u11&#45;&gt;u6</title>
<path fill="none" stroke="#000000" d="M1025.3718,-743.3324C1107.4089,-688.7597 1376.9932,-493.4378 1260.6033,-354 1193.0799,-273.1054 852.7961,-255.5998 734.3346,-251.936"/>
<polygon fill="#000000" stroke="#000000" points="734.3264,-248.4344 724.2284,-251.6408 734.1219,-255.4314 734.3264,-248.4344"/>
</g>
<!-- u8 -->
<g id="node6" class="node">
<title>u8</title>
<ellipse fill="#ffffbb" stroke="#000000" stroke-width="0" cx="515.6033" cy="-380" rx="37.8943" ry="18"/>
<text text-anchor="middle" x="515.6033" y="-376.3" font-family="Times,serif" font-size="14.00" fill="#000000">TopBar</text>
</g>
<!-- u11&#45;&gt;u8 -->
<g id="edge18" class="edge">
<title>u11&#45;&gt;u8</title>
<path fill="none" stroke="#000000" d="M1003.4988,-739.8667C1005.4537,-692.1185 1007.9437,-564.5595 980.6033,-535 851.5521,-395.4742 714.0516,-570.7583 559.6033,-460 542.0517,-447.4133 530.7189,-425.5616 523.9573,-407.8733"/>
<polygon fill="#000000" stroke="#000000" points="527.1171,-406.3091 520.4919,-398.0413 520.5152,-408.6361 527.1171,-406.3091"/>
</g>
<!-- u0 -->
<g id="node8" class="node">
<title>u0</title>
<ellipse fill="#bbbbff" stroke="#000000" stroke-width="0" cx="1122.6033" cy="-380" rx="53.8905" ry="18"/>
<text text-anchor="middle" x="1122.6033" y="-376.3" font-family="Times,serif" font-size="14.00" fill="#000000">SettingsEdit</text>
</g>
<!-- u11&#45;&gt;u0 -->
<g id="edge1" class="edge">
<title>u11&#45;&gt;u0</title>
<path fill="none" stroke="#000000" d="M1016.5101,-741.0326C1032.5789,-720.519 1058.5999,-684.3341 1072.6033,-649 1105.702,-565.4838 1117.185,-458.5529 1120.9258,-408.3836"/>
<polygon fill="#000000" stroke="#000000" points="1124.4256,-408.5078 1121.6297,-398.2885 1117.4425,-408.0208 1124.4256,-408.5078"/>
</g>
<!-- u2 -->
<g id="node10" class="node">
<title>u2</title>
<ellipse fill="#bbbbff" stroke="#000000" stroke-width="0" cx="986.6033" cy="-380" rx="63.8893" ry="18"/>
<text text-anchor="middle" x="986.6033" y="-376.3" font-family="Times,serif" font-size="14.00" fill="#000000">TimeScaleEdit</text>
</g>
<!-- u11&#45;&gt;u2 -->
<g id="edge2" class="edge">
<title>u11&#45;&gt;u2</title>
<path fill="none" stroke="#000000" d="M1014.0563,-740.394C1026.8634,-719.5616 1046.8282,-683.3553 1054.6033,-649 1065.7871,-599.5831 1065.0023,-584.588 1054.6033,-535 1044.6441,-487.5092 1019.2402,-436.794 1002.4601,-406.7736"/>
<polygon fill="#000000" stroke="#000000" points="1005.3328,-404.7451 997.3455,-397.7842 999.2486,-408.2067 1005.3328,-404.7451"/>
</g>
<!-- u4 -->
<g id="node12" class="node">
<title>u4</title>
<ellipse fill="#bbbbff" stroke="#000000" stroke-width="0" cx="825.6033" cy="-380" rx="79.0865" ry="18"/>
<text text-anchor="middle" x="825.6033" y="-376.3" font-family="Times,serif" font-size="14.00" fill="#000000">TimelineNameEdit</text>
</g>
<!-- u11&#45;&gt;u4 -->
<g id="edge4" class="edge">
<title>u11&#45;&gt;u4</title>
<path fill="none" stroke="#000000" d="M1009.5833,-739.9893C1023.7338,-700.3881 1051.6129,-603.7998 1016.6033,-535 990.9214,-484.5306 957.5073,-495.7652 913.6033,-460 891.9474,-442.3586 868.6052,-421.0221 851.4063,-404.822"/>
<polygon fill="#000000" stroke="#000000" points="853.6313,-402.1086 843.9646,-397.772 848.817,-407.1903 853.6313,-402.1086"/>
</g>
<!-- u10 -->
<g id="node14" class="node">
<title>u10</title>
<ellipse fill="#bbffbb" stroke="#000000" stroke-width="2" cx="184.6033" cy="-140" rx="45.4919" ry="18"/>
<text text-anchor="middle" x="184.6033" y="-136.3" font-family="Times,serif" font-size="14.00" fill="#000000">Plumbing</text>
</g>
<!-- u11&#45;&gt;u10 -->
<g id="edge24" class="edge">
<title>u11&#45;&gt;u10</title>
<path fill="none" stroke="#000000" d="M964.0696,-755.1152C787.3248,-741.7036 61.4353,-684.5971 29.6033,-649 -37.9653,-573.4394 22.7853,-371.3307 102.6033,-225 115.8011,-200.8045 137.7457,-178.5839 155.6137,-162.9346"/>
<polygon fill="#000000" stroke="#000000" points="158.1485,-165.373 163.4903,-156.2233 153.6086,-160.0448 158.1485,-165.373"/>
</g>
<!-- u14 -->
<g id="node15" class="node">
<title>u14</title>
<ellipse fill="#ffbbbb" stroke="#000000" stroke-width="0" cx="198.6033" cy="-251" rx="31.3957" ry="18"/>
<text text-anchor="middle" x="198.6033" y="-247.3" font-family="Times,serif" font-size="14.00" fill="#000000">Logic</text>
</g>
<!-- u11&#45;&gt;u14 -->
<g id="edge33" class="edge">
<title>u11&#45;&gt;u14</title>
<path fill="none" stroke="#000000" d="M964.1014,-754.9434C791.6178,-741.0709 97.0802,-683.232 66.6033,-649 -34.803,-535.0993 118.1407,-341.1025 177.069,-274.3639"/>
<polygon fill="#000000" stroke="#000000" points="179.7123,-276.6585 183.7659,-266.8698 174.4927,-271.9942 179.7123,-276.6585"/>
</g>
<!-- u19 -->
<g id="node20" class="node">
<title>u19</title>
<ellipse fill="#7777ff" stroke="#000000" stroke-width="0" cx="455.6033" cy="-569" rx="64.189" ry="18"/>
<text text-anchor="middle" x="455.6033" y="-565.3" font-family="Times,serif" font-size="14.00" fill="#000000">TimelineName</text>
</g>
<!-- u11&#45;&gt;u19 -->
<g id="edge36" class="edge">
<title>u11&#45;&gt;u19</title>
<path fill="none" stroke="#000000" d="M965.4488,-752.3927C867.4058,-737.1386 604.0712,-693.0734 528.6033,-649 505.8599,-635.7178 486.1494,-613.0187 472.9621,-595.1848"/>
<polygon fill="#000000" stroke="#000000" points="475.6906,-592.9831 467.0277,-586.8835 469.996,-597.054 475.6906,-592.9831"/>
</g>
<!-- u21 -->
<g id="node22" class="node">
<title>u21</title>
<ellipse fill="#7777ff" stroke="#000000" stroke-width="0" cx="665.6033" cy="-569" rx="48.9926" ry="18"/>
<text text-anchor="middle" x="665.6033" y="-565.3" font-family="Times,serif" font-size="14.00" fill="#000000">TimeScale</text>
</g>
<!-- u11&#45;&gt;u21 -->
<g id="edge38" class="edge">
<title>u11&#45;&gt;u21</title>
<path fill="none" stroke="#000000" d="M966.7756,-750.869C910.3218,-738.2228 799.313,-707.5125 723.6033,-649 705.1643,-634.7494 689.9627,-613.0963 679.7547,-595.9096"/>
<polygon fill="#000000" stroke="#000000" points="682.6063,-593.8451 674.6085,-586.8963 676.5274,-597.316 682.6063,-593.8451"/>
</g>
<!-- u12 -->
<g id="node2" class="node">
<title>u12</title>
<ellipse fill="#bbffbb" stroke="#000000" stroke-width="0" cx="329.6033" cy="-28" rx="29.795" ry="18"/>
<text text-anchor="middle" x="329.6033" y="-24.3" font-family="Times,serif" font-size="14.00" fill="#000000">Main</text>
</g>
<!-- u13 -->
<g id="node3" class="node">
<title>u13</title>
<ellipse fill="#bbffbb" stroke="#000000" stroke-width="0" cx="1350.6033" cy="-380" rx="46.2923" ry="18"/>
<text text-anchor="middle" x="1350.6033" y="-376.3" font-family="Times,serif" font-size="14.00" fill="#000000">WithRoot</text>
</g>
<!-- u13&#45;&gt;u6 -->
<g id="edge17" class="edge">
<title>u13&#45;&gt;u6</title>
<path fill="none" stroke="#000000" d="M1321.8265,-365.8772C1312.0956,-361.5502 1301.0471,-357.1152 1290.6033,-354 1086.3875,-293.0866 831.4557,-264.0736 734.0155,-254.6223"/>
<polygon fill="#000000" stroke="#000000" points="734.2889,-251.1326 724.0015,-253.6665 733.6237,-258.1009 734.2889,-251.1326"/>
</g>
<!-- u6&#45;&gt;u12 -->
<g id="edge28" class="edge">
<title>u6&#45;&gt;u12</title>
<path fill="none" stroke="#000000" d="M672.1924,-237.8829C610.2277,-199.921 430.6157,-89.8839 359.2981,-46.1921"/>
<polygon fill="#000000" stroke="#000000" points="361.1148,-43.2005 350.7593,-40.961 357.458,-49.1695 361.1148,-43.2005"/>
</g>
<!-- u7 -->
<g id="node5" class="node">
<title>u7</title>
<ellipse fill="#ffffbb" stroke="#000000" stroke-width="0" cx="297.6033" cy="-380" rx="43.5923" ry="18"/>
<text text-anchor="middle" x="297.6033" y="-376.3" font-family="Times,serif" font-size="14.00" fill="#000000">Snackbar</text>
</g>
<!-- u7&#45;&gt;u6 -->
<g id="edge12" class="edge">
<title>u7&#45;&gt;u6</title>
<path fill="none" stroke="#000000" d="M324.4533,-365.7657C332.7145,-361.6765 341.9211,-357.4065 350.6033,-354 458.3396,-311.7292 590.7412,-276.4751 654.9823,-260.3815"/>
<polygon fill="#000000" stroke="#000000" points="656.2023,-263.6848 665.0615,-257.874 654.5123,-256.8918 656.2023,-263.6848"/>
</g>
<!-- u7&#45;&gt;u10 -->
<g id="edge23" class="edge">
<title>u7&#45;&gt;u10</title>
<path fill="none" stroke="#000000" d="M292.0161,-361.8334C282.6602,-332.3577 262.482,-272.6156 238.6033,-225 228.2875,-204.4296 214.3041,-182.5415 203.1518,-166.1287"/>
<polygon fill="#000000" stroke="#000000" points="205.8437,-163.8668 197.2885,-157.617 200.079,-167.8378 205.8437,-163.8668"/>
</g>
<!-- u7&#45;&gt;u14 -->
<g id="edge32" class="edge">
<title>u7&#45;&gt;u14</title>
<path fill="none" stroke="#000000" d="M284.2517,-362.6025C267.0862,-340.2353 237.1687,-301.2519 217.6263,-275.7876"/>
<polygon fill="#000000" stroke="#000000" points="220.2949,-273.5159 211.4301,-267.7137 214.7417,-277.7777 220.2949,-273.5159"/>
</g>
<!-- u8&#45;&gt;u6 -->
<g id="edge13" class="edge">
<title>u8&#45;&gt;u6</title>
<path fill="none" stroke="#000000" d="M536.3705,-364.9496C568.4124,-341.7282 629.9426,-297.1361 665.7942,-271.1538"/>
<polygon fill="#000000" stroke="#000000" points="668.2788,-273.6757 674.3221,-264.9734 664.1711,-268.0076 668.2788,-273.6757"/>
</g>
<!-- u9 -->
<g id="node7" class="node">
<title>u9</title>
<ellipse fill="#ffffbb" stroke="#000000" stroke-width="0" cx="409.6033" cy="-380" rx="50.0912" ry="18"/>
<text text-anchor="middle" x="409.6033" y="-376.3" font-family="Times,serif" font-size="14.00" fill="#000000">BottomBar</text>
</g>
<!-- u9&#45;&gt;u6 -->
<g id="edge14" class="edge">
<title>u9&#45;&gt;u6</title>
<path fill="none" stroke="#000000" d="M440.8087,-365.8257C494.6374,-341.3753 604.4936,-291.4759 659.9625,-266.2805"/>
<polygon fill="#000000" stroke="#000000" points="661.6844,-269.3426 669.3417,-262.0202 658.7894,-262.9692 661.6844,-269.3426"/>
</g>
<!-- u0&#45;&gt;u6 -->
<g id="edge6" class="edge">
<title>u0&#45;&gt;u6</title>
<path fill="none" stroke="#000000" d="M1089.8586,-365.6354C1080.203,-361.6319 1069.556,-357.441 1059.6033,-354 942.0545,-313.3599 799.2721,-276.7463 732.0792,-260.2475"/>
<polygon fill="#000000" stroke="#000000" points="732.5046,-256.7485 721.9596,-257.7747 730.8429,-263.5485 732.5046,-256.7485"/>
</g>
<!-- u1 -->
<g id="node9" class="node">
<title>u1</title>
<ellipse fill="#bbbbff" stroke="#000000" stroke-width="0" cx="1221.6033" cy="-380" rx="27.0966" ry="18"/>
<text text-anchor="middle" x="1221.6033" y="-376.3" font-family="Times,serif" font-size="14.00" fill="#000000">New</text>
</g>
<!-- u1&#45;&gt;u6 -->
<g id="edge7" class="edge">
<title>u1&#45;&gt;u6</title>
<path fill="none" stroke="#000000" d="M1204.9277,-365.7309C1199.1285,-361.3942 1192.3735,-356.9904 1185.6033,-354 1027.9333,-284.3578 820.6899,-260.866 734.2226,-253.7669"/>
<polygon fill="#000000" stroke="#000000" points="734.2907,-250.2615 724.0459,-252.9621 733.7388,-257.2397 734.2907,-250.2615"/>
</g>
<!-- u2&#45;&gt;u6 -->
<g id="edge8" class="edge">
<title>u2&#45;&gt;u6</title>
<path fill="none" stroke="#000000" d="M952.1309,-364.8227C895.5025,-339.8908 783.4807,-290.5706 727.3377,-265.8524"/>
<polygon fill="#000000" stroke="#000000" points="728.7391,-262.6452 718.1765,-261.8189 725.9184,-269.0517 728.7391,-262.6452"/>
</g>
<!-- u3 -->
<g id="node11" class="node">
<title>u3</title>
<ellipse fill="#bbbbff" stroke="#000000" stroke-width="0" cx="605.6033" cy="-380" rx="34.394" ry="18"/>
<text text-anchor="middle" x="605.6033" y="-376.3" font-family="Times,serif" font-size="14.00" fill="#000000">Export</text>
</g>
<!-- u3&#45;&gt;u6 -->
<g id="edge9" class="edge">
<title>u3&#45;&gt;u6</title>
<path fill="none" stroke="#000000" d="M617.289,-362.8698C632.4287,-340.6764 658.9442,-301.8072 676.3899,-276.2333"/>
<polygon fill="#000000" stroke="#000000" points="679.4048,-278.0244 682.1489,-267.7911 673.6222,-274.0796 679.4048,-278.0244"/>
</g>
<!-- u3&#45;&gt;u10 -->
<g id="edge21" class="edge">
<title>u3&#45;&gt;u10</title>
<path fill="none" stroke="#000000" d="M587.0108,-364.6012C550.5022,-334.8714 466.1448,-268.6557 387.6033,-225 335.1986,-195.872 270.7655,-170.516 228.7401,-155.252"/>
<polygon fill="#000000" stroke="#000000" points="229.677,-151.8696 219.0825,-151.7788 227.308,-158.4565 229.677,-151.8696"/>
</g>
<!-- u3&#45;&gt;u14 -->
<g id="edge30" class="edge">
<title>u3&#45;&gt;u14</title>
<path fill="none" stroke="#000000" d="M586.2247,-364.9439C580.462,-360.9724 573.9793,-356.9716 567.6033,-354 537.195,-339.828 325.5138,-284.0163 237.1813,-261.0029"/>
<polygon fill="#000000" stroke="#000000" points="237.8472,-257.5597 227.288,-258.4282 236.0841,-264.3341 237.8472,-257.5597"/>
</g>
<!-- u4&#45;&gt;u6 -->
<g id="edge10" class="edge">
<title>u4&#45;&gt;u6</title>
<path fill="none" stroke="#000000" d="M807.526,-362.3336C783.8767,-339.2217 742.4163,-298.7036 716.5686,-273.4433"/>
<polygon fill="#000000" stroke="#000000" points="719.0008,-270.9265 709.4027,-266.4403 714.1083,-275.9328 719.0008,-270.9265"/>
</g>
<!-- u5 -->
<g id="node13" class="node">
<title>u5</title>
<ellipse fill="#bbbbff" stroke="#000000" stroke-width="0" cx="693.6033" cy="-380" rx="35.194" ry="18"/>
<text text-anchor="middle" x="693.6033" y="-376.3" font-family="Times,serif" font-size="14.00" fill="#000000">Import</text>
</g>
<!-- u5&#45;&gt;u6 -->
<g id="edge11" class="edge">
<title>u5&#45;&gt;u6</title>
<path fill="none" stroke="#000000" d="M693.6033,-361.7911C693.6033,-340.2786 693.6033,-304.2457 693.6033,-279.1351"/>
<polygon fill="#000000" stroke="#000000" points="697.1034,-279.1163 693.6033,-269.1163 690.1034,-279.1164 697.1034,-279.1163"/>
</g>
<!-- u5&#45;&gt;u10 -->
<g id="edge22" class="edge">
<title>u5&#45;&gt;u10</title>
<path fill="none" stroke="#000000" d="M672.7752,-365.305C623.7106,-330.866 501.6187,-246.2494 456.6033,-225 382.4746,-190.0077 290.3626,-164.705 234.5972,-151.2073"/>
<polygon fill="#000000" stroke="#000000" points="235.1596,-147.7432 224.6201,-148.8246 233.5336,-154.5518 235.1596,-147.7432"/>
</g>
<!-- u5&#45;&gt;u14 -->
<g id="edge31" class="edge">
<title>u5&#45;&gt;u14</title>
<path fill="none" stroke="#000000" d="M671.8324,-365.6691C664.6609,-361.4318 656.497,-357.1023 648.6033,-354 503.8673,-297.1173 320.0125,-267.2903 239.4916,-256.1841"/>
<polygon fill="#000000" stroke="#000000" points="239.6632,-252.6754 229.2837,-254.8006 238.723,-259.612 239.6632,-252.6754"/>
</g>
<!-- u10&#45;&gt;u12 -->
<g id="edge29" class="edge">
<title>u10&#45;&gt;u12</title>
<path fill="none" stroke="#000000" d="M205.3783,-123.9531C231.0683,-104.1098 274.8381,-70.3014 302.9714,-48.5709"/>
<polygon fill="#000000" stroke="#000000" points="305.3885,-51.1264 311.1631,-42.2435 301.1095,-45.5865 305.3885,-51.1264"/>
</g>
<!-- u10&#45;&gt;u6 -->
<g id="edge15" class="edge">
<title>u10&#45;&gt;u6</title>
<path fill="none" stroke="#000000" d="M225.1639,-148.3303C297.3509,-163.2253 452.8264,-195.6185 583.6033,-225 607.4612,-230.3601 634.1556,-236.6623 655.2724,-241.7195"/>
<polygon fill="#000000" stroke="#000000" points="654.6131,-245.1606 665.1539,-244.0925 656.2477,-238.3541 654.6131,-245.1606"/>
</g>
<!-- u14&#45;&gt;u10 -->
<g id="edge25" class="edge">
<title>u14&#45;&gt;u10</title>
<path fill="none" stroke="#000000" d="M196.2915,-232.6706C194.0795,-215.1329 190.7117,-188.4306 188.1584,-168.1867"/>
<polygon fill="#000000" stroke="#000000" points="191.596,-167.4717 186.8721,-157.9883 184.651,-168.3477 191.596,-167.4717"/>
</g>
<!-- u15 -->
<g id="node16" class="node">
<title>u15</title>
<ellipse fill="#bbffff" stroke="#000000" stroke-width="0" cx="1156.6033" cy="-758" rx="46.5926" ry="18"/>
<text text-anchor="middle" x="1156.6033" y="-754.3" font-family="Times,serif" font-size="14.00" fill="#000000">TrimDocs</text>
</g>
<!-- u16 -->
<g id="node17" class="node">
<title>u16</title>
<ellipse fill="#77ff77" stroke="#000000" stroke-width="0" cx="455.6033" cy="-758" rx="53.0913" ry="18"/>
<text text-anchor="middle" x="455.6033" y="-754.3" font-family="Times,serif" font-size="14.00" fill="#000000">UTF8String</text>
</g>
<!-- u16&#45;&gt;u19 -->
<g id="edge37" class="edge">
<title>u16&#45;&gt;u19</title>
<path fill="none" stroke="#000000" d="M455.6033,-739.8779C455.6033,-706.8568 455.6033,-636.6732 455.6033,-597.2992"/>
<polygon fill="#000000" stroke="#000000" points="459.1034,-597.0672 455.6033,-587.0672 452.1034,-597.0673 459.1034,-597.0672"/>
</g>
<!-- u17 -->
<g id="node18" class="node">
<title>u17</title>
<ellipse fill="#7777ff" stroke="#000000" stroke-width="0" cx="902.6033" cy="-569" rx="65.7887" ry="18"/>
<text text-anchor="middle" x="902.6033" y="-565.3" font-family="Times,serif" font-size="14.00" fill="#000000">StoredTimeline</text>
</g>
<!-- u18 -->
<g id="node19" class="node">
<title>u18</title>
<ellipse fill="#7777ff" stroke="#000000" stroke-width="0" cx="775.6033" cy="-569" rx="42.7926" ry="18"/>
<text text-anchor="middle" x="775.6033" y="-565.3" font-family="Times,serif" font-size="14.00" fill="#000000">Timeline</text>
</g>
<!-- u19&#45;&gt;u8 -->
<g id="edge19" class="edge">
<title>u19&#45;&gt;u8</title>
<path fill="none" stroke="#000000" d="M461.3564,-550.8779C471.884,-517.7157 494.3104,-447.0727 506.7791,-407.7961"/>
<polygon fill="#000000" stroke="#000000" points="510.1777,-408.6575 509.8677,-398.0672 503.5059,-406.5394 510.1777,-408.6575"/>
</g>
<!-- u19&#45;&gt;u4 -->
<g id="edge5" class="edge">
<title>u19&#45;&gt;u4</title>
<path fill="none" stroke="#000000" d="M487.665,-553.2955C500.3068,-547.3071 515.0269,-540.5839 528.6033,-535 619.8736,-497.4607 653.0169,-510.839 737.6033,-460 762.3112,-445.1498 786.2433,-422.7025 802.8968,-405.3617"/>
<polygon fill="#000000" stroke="#000000" points="805.7089,-407.4806 810.0129,-397.7993 800.611,-402.6835 805.7089,-407.4806"/>
</g>
<!-- u19&#45;&gt;u10 -->
<g id="edge26" class="edge">
<title>u19&#45;&gt;u10</title>
<path fill="none" stroke="#000000" d="M423.495,-553.3804C410.6026,-547.3374 395.523,-540.5536 381.6033,-535 285.6546,-496.7188 230.6301,-536.8564 161.6033,-460 91,-381.3882 94.0364,-325.8374 125.6033,-225 132.6868,-202.3724 148.1503,-180.4819 161.4694,-164.5837"/>
<polygon fill="#000000" stroke="#000000" points="164.2743,-166.6915 168.1832,-156.8441 158.9866,-162.1046 164.2743,-166.6915"/>
</g>
<!-- u19&#45;&gt;u14 -->
<g id="edge34" class="edge">
<title>u19&#45;&gt;u14</title>
<path fill="none" stroke="#000000" d="M422.649,-553.3154C409.906,-547.3938 395.1526,-540.7115 381.6033,-535 296.0388,-498.9315 239.1724,-536.5422 186.6033,-460 148.6962,-404.8061 171.5635,-320.8124 187.3646,-278.0553"/>
<polygon fill="#000000" stroke="#000000" points="190.6768,-279.1932 190.9937,-268.6031 184.1419,-276.6841 190.6768,-279.1932"/>
</g>
<!-- u20 -->
<g id="node21" class="node">
<title>u20</title>
<ellipse fill="#7777ff" stroke="#000000" stroke-width="0" cx="568.6033" cy="-569" rx="30.5947" ry="18"/>
<text text-anchor="middle" x="568.6033" y="-565.3" font-family="Times,serif" font-size="14.00" fill="#000000">Index</text>
</g>
<!-- u21&#45;&gt;u9 -->
<g id="edge20" class="edge">
<title>u21&#45;&gt;u9</title>
<path fill="none" stroke="#000000" d="M640.2128,-553.5152C630.3964,-547.6181 619.0335,-540.9004 608.6033,-535 547.1646,-500.2437 521.9699,-506.203 468.6033,-460 450.9897,-444.7507 435.5455,-423.3374 424.8809,-406.5018"/>
<polygon fill="#000000" stroke="#000000" points="427.6822,-404.3752 419.4645,-397.6879 421.7183,-408.0402 427.6822,-404.3752"/>
</g>
<!-- u21&#45;&gt;u2 -->
<g id="edge3" class="edge">
<title>u21&#45;&gt;u2</title>
<path fill="none" stroke="#000000" d="M690.2642,-553.41C700.3997,-547.3037 712.3744,-540.467 723.6033,-535 805.2283,-495.2592 838.8568,-511.5261 913.6033,-460 935.0219,-445.2352 954.612,-423.0618 968.0937,-405.8009"/>
<polygon fill="#000000" stroke="#000000" points="970.9303,-407.8529 974.2025,-397.776 965.3605,-403.613 970.9303,-407.8529"/>
</g>
<!-- u21&#45;&gt;u10 -->
<g id="edge27" class="edge">
<title>u21&#45;&gt;u10</title>
<path fill="none" stroke="#000000" d="M642.9879,-552.9478C632.8892,-546.4704 620.582,-539.4829 608.6033,-535 432.6515,-469.1519 327.4911,-590.7681 192.6033,-460 112.4748,-382.3188 153.1377,-229.5944 174.3898,-167.3652"/>
<polygon fill="#000000" stroke="#000000" points="177.7229,-168.4371 177.7345,-157.8423 171.1184,-166.1174 177.7229,-168.4371"/>
</g>
<!-- u21&#45;&gt;u14 -->
<g id="edge35" class="edge">
<title>u21&#45;&gt;u14</title>
<path fill="none" stroke="#000000" d="M642.6633,-552.9067C632.6077,-546.5015 620.4218,-539.58 608.6033,-535 453.3699,-474.8425 359.4021,-577.6427 241.6033,-460 193.1727,-411.6335 192.2516,-324.213 195.489,-279.3068"/>
<polygon fill="#000000" stroke="#000000" points="198.9959,-279.371 196.3503,-269.1118 192.0208,-278.7816 198.9959,-279.371"/>
</g>
<!-- u22 -->
<g id="node23" class="node">
<title>u22</title>
<ellipse fill="#7777ff" stroke="#000000" stroke-width="0" cx="341.6033" cy="-569" rx="31.3957" ry="18"/>
<text text-anchor="middle" x="341.6033" y="-565.3" font-family="Times,serif" font-size="14.00" fill="#000000">Event</text>
</g>
<!-- u23 -->
<g id="node24" class="node">
<title>u23</title>
<ellipse fill="#7777ff" stroke="#000000" stroke-width="0" cx="241.6033" cy="-569" rx="50.8918" ry="18"/>
<text text-anchor="middle" x="241.6033" y="-565.3" font-family="Times,serif" font-size="14.00" fill="#000000">TimeSpace</text>
</g>
<!-- u24 -->
<g id="node25" class="node">
<title>u24</title>
<ellipse fill="#7777ff" stroke="#000000" stroke-width="0" cx="125.6033" cy="-569" rx="47.3916" ry="18"/>
<text text-anchor="middle" x="125.6033" y="-565.3" font-family="Times,serif" font-size="14.00" fill="#000000">TimeSpan</text>
</g>
</g>
</svg>
