<?xml version="1.0" encoding="UTF-8" standalone="no"?>
<!DOCTYPE svg PUBLIC "-//W3C//DTD SVG 1.1//EN"
 "http://www.w3.org/Graphics/SVG/1.1/DTD/svg11.dtd">
<!-- Generated by graphviz version 2.43.0 (0)
 -->
<!-- Title: Modules Pages: 1 -->
<svg width="432pt" height="280pt"
 viewBox="0.00 0.00 432.00 280.10" xmlns="http://www.w3.org/2000/svg" xmlns:xlink="http://www.w3.org/1999/xlink">
<g id="graph0" class="graph" transform="scale(8.8 8.8) rotate(0) translate(4 2461.33)">
<title>Modules</title>
<polygon fill="white" stroke="transparent" points="-4,4 -4,-2461.33 3798.25,-2461.33 3798.25,4 -4,4"/>
<g id="clust1" class="cluster">
<title>cluster_0</title>
<polygon fill="#000000" fill-opacity="0.058824" stroke="#000000" stroke-opacity="0.058824" points="223.25,-703.67 223.25,-1786.65 2653.25,-1786.65 2653.25,-703.67 223.25,-703.67"/>
<text text-anchor="middle" x="1438.25" y="-1771.45" font-family="Times,serif" font-size="14.00">Components</text>
</g>
<g id="clust2" class="cluster">
<title>cluster_1</title>
<polygon fill="#000000" fill-opacity="0.058824" stroke="#000000" stroke-opacity="0.058824" points="1035.25,-1203.93 1035.25,-1616.23 2527.25,-1616.23 2527.25,-1203.93 1035.25,-1203.93"/>
<text text-anchor="middle" x="1781.25" y="-1601.03" font-family="Times,serif" font-size="14.00">Dialogs</text>
</g>
<g id="clust3" class="cluster">
<title>cluster_2</title>
<polygon fill="#000000" fill-opacity="0.058824" stroke="#000000" stroke-opacity="0.058824" points="565.25,-1203.93 565.25,-1616.23 927.25,-1616.23 927.25,-1203.93 565.25,-1203.93"/>
<text text-anchor="middle" x="746.25" y="-1601.03" font-family="Times,serif" font-size="14.00">Drawers</text>
</g>
<g id="clust4" class="cluster">
<title>cluster_3</title>
<polygon fill="#000000" fill-opacity="0.058824" stroke="#000000" stroke-opacity="0.058824" points="231.25,-747.65 231.25,-1616.23 424.25,-1616.23 424.25,-747.65 231.25,-747.65"/>
<text text-anchor="middle" x="327.75" y="-1601.03" font-family="Times,serif" font-size="14.00">Time</text>
</g>
<g id="clust5" class="cluster">
<title>cluster_4</title>
<polygon fill="#000000" fill-opacity="0.058824" stroke="#000000" stroke-opacity="0.058824" points="1152.25,-1830.63 1152.25,-2242.94 1288.25,-2242.94 1288.25,-1830.63 1152.25,-1830.63"/>
<text text-anchor="middle" x="1220.25" y="-2227.74" font-family="Times,serif" font-size="14.00">MaterialUI</text>
</g>
<g id="clust6" class="cluster">
<title>cluster_5</title>
<polygon fill="#000000" fill-opacity="0.058824" stroke="#000000" stroke-opacity="0.058824" points="2661.25,-351.83 2661.25,-1159.95 2787.25,-1159.95 2787.25,-351.83 2661.25,-351.83"/>
<text text-anchor="middle" x="2724.25" y="-1144.75" font-family="Times,serif" font-size="14.00">Plumbing</text>
</g>
<g id="clust7" class="cluster">
<title>cluster_6</title>
<polygon fill="#000000" fill-opacity="0.058824" stroke="#000000" stroke-opacity="0.058824" points="3660.25,-1830.63 3660.25,-2242.94 3786.25,-2242.94 3786.25,-1830.63 3660.25,-1830.63"/>
<text text-anchor="middle" x="3723.25" y="-2227.74" font-family="Times,serif" font-size="14.00">Scripts</text>
</g>
<g id="clust8" class="cluster">
<title>cluster_7</title>
<polygon fill="#000000" fill-opacity="0.058824" stroke="#000000" stroke-opacity="0.058824" points="2795.25,-703.67 2795.25,-2413.35 3652.25,-2413.35 3652.25,-703.67 2795.25,-703.67"/>
<text text-anchor="middle" x="3223.75" y="-2398.15" font-family="Times,serif" font-size="14.00">Timeline</text>
</g>
<g id="clust9" class="cluster">
<title>cluster_8</title>
<polygon fill="#000000" fill-opacity="0.058824" stroke="#000000" stroke-opacity="0.058824" points="2803.25,-747.65 2803.25,-2242.94 3644.25,-2242.94 3644.25,-747.65 2803.25,-747.65"/>
<text text-anchor="middle" x="3223.75" y="-2227.74" font-family="Times,serif" font-size="14.00">UI</text>
</g>
<!-- u12 -->
<g id="node1" class="node">
<title>u12</title>
<ellipse fill="#bbffbb" stroke="black" stroke-width="0" cx="161.25" cy="-1347" rx="53.89" ry="18"/>
<text text-anchor="middle" x="161.25" y="-1343.3" font-family="Times,serif" font-size="14.00">WithRoot</text>
</g>
<!-- u24 -->
<g id="node6" class="node">
<title>u24</title>
<ellipse fill="#ffffbb" stroke="black" stroke-width="0" cx="1514.25" cy="-891" rx="36.29" ry="18"/>
<text text-anchor="middle" x="1514.25" y="-887.3" font-family="Times,serif" font-size="14.00">Index</text>
</g>
<!-- u12&#45;&gt;u24 -->
<g id="edge33" class="edge">
<title>u12&#45;&gt;u24</title>
<path fill="none" stroke="black" d="M195.07,-1332.89C205.37,-1328.98 216.75,-1324.74 227.25,-1321 715.78,-1147.13 1315.93,-955.02 1474.38,-904.64"/>
<polygon fill="black" stroke="black" points="1475.7,-907.9 1484.17,-901.53 1473.58,-901.23 1475.7,-907.9"/>
</g>
<!-- u13 -->
<g id="node2" class="node">
<title>u13</title>
<ellipse fill="#bbffbb" stroke="black" stroke-width="0" cx="1348.25" cy="-1974" rx="50.09" ry="18"/>
<text text-anchor="middle" x="1348.25" y="-1970.3" font-family="Times,serif" font-size="14.00">Settings</text>
</g>
<!-- u22 -->
<g id="node4" class="node">
<title>u22</title>
<ellipse fill="#ffffbb" stroke="black" stroke-width="0" cx="981.25" cy="-1347" rx="44.39" ry="18"/>
<text text-anchor="middle" x="981.25" y="-1343.3" font-family="Times,serif" font-size="14.00">TopBar</text>
</g>
<!-- u13&#45;&gt;u22 -->
<g id="edge32" class="edge">
<title>u13&#45;&gt;u22</title>
<path fill="none" stroke="black" d="M1338.44,-1956.28C1287.97,-1870.35 1057.76,-1478.29 996.35,-1373.71"/>
<polygon fill="black" stroke="black" points="999.18,-1371.62 991.1,-1364.77 993.14,-1375.16 999.18,-1371.62"/>
</g>
<!-- u13&#45;&gt;u24 -->
<g id="edge34" class="edge">
<title>u13&#45;&gt;u24</title>
<path fill="none" stroke="black" d="M1318.05,-1959.46C1309.7,-1955.73 1300.63,-1951.7 1292.25,-1948 762.57,-1714.21 415.39,-1911.4 98.25,-1427 72.45,-1387.58 70.18,-1358.84 98.25,-1321 271.79,-1087.09 1249.03,-930.95 1469.89,-898.35"/>
<polygon fill="black" stroke="black" points="1470.44,-901.81 1479.83,-896.89 1469.43,-894.88 1470.44,-901.81"/>
</g>
<!-- u26 -->
<g id="node9" class="node">
<title>u26</title>
<ellipse fill="#bbbbff" stroke="black" stroke-width="0" cx="2314.25" cy="-1347" rx="102.88" ry="18"/>
<text text-anchor="middle" x="2314.25" y="-1343.3" font-family="Times,serif" font-size="14.00">NewOrEditTimeline</text>
</g>
<!-- u13&#45;&gt;u26 -->
<g id="edge53" class="edge">
<title>u13&#45;&gt;u26</title>
<path fill="none" stroke="black" d="M1372.28,-1958.19C1473.9,-1895.47 1877.97,-1644.86 2202.25,-1427 2229.8,-1408.49 2260.58,-1386.7 2282.89,-1370.7"/>
<polygon fill="black" stroke="black" points="2285.22,-1373.33 2291.3,-1364.65 2281.14,-1367.65 2285.22,-1373.33"/>
</g>
<!-- u28 -->
<g id="node11" class="node">
<title>u28</title>
<ellipse fill="#bbbbff" stroke="black" stroke-width="0" cx="1348.25" cy="-1347" rx="69.59" ry="18"/>
<text text-anchor="middle" x="1348.25" y="-1343.3" font-family="Times,serif" font-size="14.00">SettingsEdit</text>
</g>
<!-- u13&#45;&gt;u28 -->
<g id="edge55" class="edge">
<title>u13&#45;&gt;u28</title>
<path fill="none" stroke="black" d="M1348.25,-1955.96C1348.25,-1869.79 1348.25,-1482.03 1348.25,-1375.28"/>
<polygon fill="black" stroke="black" points="1351.75,-1375.03 1348.25,-1365.03 1344.75,-1375.03 1351.75,-1375.03"/>
</g>
<!-- u29 -->
<g id="node12" class="node">
<title>u29</title>
<ellipse fill="#bbbbff" stroke="black" stroke-width="0" cx="1152.25" cy="-1347" rx="108.58" ry="18"/>
<text text-anchor="middle" x="1152.25" y="-1343.3" font-family="Times,serif" font-size="14.00">TimeSpaceNameEdit</text>
</g>
<!-- u13&#45;&gt;u29 -->
<g id="edge57" class="edge">
<title>u13&#45;&gt;u29</title>
<path fill="none" stroke="black" d="M1342.91,-1955.96C1315.83,-1869.62 1193.79,-1480.46 1160.6,-1374.63"/>
<polygon fill="black" stroke="black" points="1163.92,-1373.52 1157.59,-1365.03 1157.24,-1375.62 1163.92,-1373.52"/>
</g>
<!-- u33 -->
<g id="node16" class="node">
<title>u33</title>
<ellipse fill="#bbbbff" stroke="black" stroke-width="0" cx="1514.25" cy="-1347" rx="77.99" ry="18"/>
<text text-anchor="middle" x="1514.25" y="-1343.3" font-family="Times,serif" font-size="14.00">TimeScaleEdit</text>
</g>
<!-- u13&#45;&gt;u33 -->
<g id="edge61" class="edge">
<title>u13&#45;&gt;u33</title>
<path fill="none" stroke="black" d="M1352.78,-1955.96C1375.69,-1869.71 1478.86,-1481.24 1507.09,-1374.95"/>
<polygon fill="black" stroke="black" points="1510.55,-1375.59 1509.73,-1365.03 1503.78,-1373.79 1510.55,-1375.59"/>
</g>
<!-- u19 -->
<g id="node17" class="node">
<title>u19</title>
<ellipse fill="#ffbbbb" stroke="black" stroke-width="0" cx="624.25" cy="-1347" rx="50.89" ry="18"/>
<text text-anchor="middle" x="624.25" y="-1343.3" font-family="Times,serif" font-size="14.00">Children</text>
</g>
<!-- u13&#45;&gt;u19 -->
<g id="edge26" class="edge">
<title>u13&#45;&gt;u19</title>
<path fill="none" stroke="black" d="M1326.06,-1957.68C1238.66,-1896.78 911.9,-1663.61 684.25,-1427 668.13,-1410.24 652.33,-1389.19 640.99,-1373.03"/>
<polygon fill="black" stroke="black" points="643.74,-1370.86 635.18,-1364.62 637.98,-1374.84 643.74,-1370.86"/>
</g>
<!-- u20 -->
<g id="node18" class="node">
<title>u20</title>
<ellipse fill="#ffbbbb" stroke="black" stroke-width="0" cx="741.25" cy="-1347" rx="48.19" ry="18"/>
<text text-anchor="middle" x="741.25" y="-1343.3" font-family="Times,serif" font-size="14.00">Siblings</text>
</g>
<!-- u13&#45;&gt;u20 -->
<g id="edge27" class="edge">
<title>u13&#45;&gt;u20</title>
<path fill="none" stroke="black" d="M1330.09,-1957C1258.52,-1893.53 990.53,-1652.05 798.25,-1427 783.51,-1409.75 768.57,-1388.88 757.68,-1372.93"/>
<polygon fill="black" stroke="black" points="760.57,-1370.96 752.08,-1364.63 754.77,-1374.87 760.57,-1370.96"/>
</g>
<!-- u21 -->
<g id="node19" class="node">
<title>u21</title>
<ellipse fill="#ffbbbb" stroke="black" stroke-width="0" cx="863.25" cy="-1347" rx="55.79" ry="18"/>
<text text-anchor="middle" x="863.25" y="-1343.3" font-family="Times,serif" font-size="14.00">Timelines</text>
</g>
<!-- u13&#45;&gt;u21 -->
<g id="edge30" class="edge">
<title>u13&#45;&gt;u21</title>
<path fill="none" stroke="black" d="M1335.32,-1956.53C1283.33,-1890.31 1084.7,-1636.98 923.25,-1427 909.35,-1408.91 893.77,-1388.39 881.97,-1372.8"/>
<polygon fill="black" stroke="black" points="884.66,-1370.56 875.84,-1364.69 879.08,-1374.78 884.66,-1370.56"/>
</g>
<!-- u37 -->
<g id="node25" class="node">
<title>u37</title>
<ellipse fill="#bbffbb" stroke="black" stroke-width="2" cx="2724.25" cy="-495" rx="55.49" ry="18"/>
<text text-anchor="middle" x="2724.25" y="-491.3" font-family="Times,serif" font-size="14.00">Plumbing</text>
</g>
<!-- u13&#45;&gt;u37 -->
<g id="edge72" class="edge">
<title>u13&#45;&gt;u37</title>
<path fill="none" stroke="black" d="M1318.36,-1959.55C1309.93,-1955.78 1300.74,-1951.71 1292.25,-1948 752.34,-1712.12 397.84,-1918.72 73.25,-1427 -35.06,-1262.92 -52.12,-1090.86 227.25,-857 611.6,-535.26 2304.48,-500.27 2659.01,-496.46"/>
<polygon fill="black" stroke="black" points="2659.14,-499.96 2669.1,-496.36 2659.07,-492.96 2659.14,-499.96"/>
</g>
<!-- u0 -->
<g id="node26" class="node">
<title>u0</title>
<ellipse fill="#77ff77" stroke="black" stroke-width="0" cx="2705.25" cy="-891" rx="36" ry="18"/>
<text text-anchor="middle" x="2705.25" y="-887.3" font-family="Times,serif" font-size="14.00">Logic</text>
</g>
<!-- u13&#45;&gt;u0 -->
<g id="edge5" class="edge">
<title>u13&#45;&gt;u0</title>
<path fill="none" stroke="black" d="M1396.92,-1969.78C1593.74,-1953.92 2335.53,-1865.89 2657.25,-1427 2774.63,-1266.88 2729.98,-1003.08 2711.61,-918.78"/>
<polygon fill="black" stroke="black" points="2715.02,-917.96 2709.41,-908.97 2708.18,-919.49 2715.02,-917.96"/>
</g>
<!-- u9 -->
<g id="node36" class="node">
<title>u9</title>
<ellipse fill="#ff7777" stroke="black" stroke-width="0" cx="2911.25" cy="-1347" rx="58.49" ry="18"/>
<text text-anchor="middle" x="2911.25" y="-1343.3" font-family="Times,serif" font-size="14.00">TimeScale</text>
</g>
<!-- u13&#45;&gt;u9 -->
<g id="edge16" class="edge">
<title>u13&#45;&gt;u9</title>
<path fill="none" stroke="black" d="M1380.54,-1960.09C1579.6,-1880.49 2639.16,-1456.8 2867.76,-1365.39"/>
<polygon fill="black" stroke="black" points="2869.11,-1368.62 2877.09,-1361.66 2866.51,-1362.12 2869.11,-1368.62"/>
</g>
<!-- u10 -->
<g id="node37" class="node">
<title>u10</title>
<ellipse fill="#ff7777" stroke="black" stroke-width="0" cx="3043.25" cy="-1347" rx="55.79" ry="18"/>
<text text-anchor="middle" x="3043.25" y="-1343.3" font-family="Times,serif" font-size="14.00">Timelines</text>
</g>
<!-- u13&#45;&gt;u10 -->
<g id="edge18" class="edge">
<title>u13&#45;&gt;u10</title>
<path fill="none" stroke="black" d="M1394.51,-1967.02C1598.2,-1938.88 2429.4,-1804.72 2978.25,-1427 2998.69,-1412.94 3016.17,-1390.71 3027.84,-1373.41"/>
<polygon fill="black" stroke="black" points="3030.87,-1375.17 3033.4,-1364.88 3025.01,-1371.34 3030.87,-1375.17"/>
</g>
<!-- u11 -->
<g id="node38" class="node">
<title>u11</title>
<ellipse fill="#ff7777" stroke="black" stroke-width="0" cx="2900.25" cy="-1974" rx="89.08" ry="18"/>
<text text-anchor="middle" x="2900.25" y="-1970.3" font-family="Times,serif" font-size="14.00">TimeSpaceName</text>
</g>
<!-- u13&#45;&gt;u11 -->
<g id="edge19" class="edge">
<title>u13&#45;&gt;u11</title>
<path fill="none" stroke="black" d="M1398.65,-1974C1866.15,-1974 2333.66,-1974 2801.17,-1974"/>
<polygon fill="black" stroke="black" points="2801.17,-1977.5 2811.17,-1974 2801.17,-1970.5 2801.17,-1977.5"/>
</g>
<!-- u36 -->
<g id="node3" class="node">
<title>u36</title>
<ellipse fill="#bbffbb" stroke="black" stroke-width="0" cx="2400.25" cy="-99" rx="34.39" ry="18"/>
<text text-anchor="middle" x="2400.25" y="-95.3" font-family="Times,serif" font-size="14.00">Main</text>
</g>
<!-- u22&#45;&gt;u24 -->
<g id="edge38" class="edge">
<title>u22&#45;&gt;u24</title>
<path fill="none" stroke="black" d="M999.6,-1330.37C1079.47,-1262.34 1396.98,-991.89 1489.09,-913.44"/>
<polygon fill="black" stroke="black" points="1491.45,-916.02 1496.8,-906.87 1486.91,-910.69 1491.45,-916.02"/>
</g>
<!-- u23 -->
<g id="node5" class="node">
<title>u23</title>
<ellipse fill="#ffffbb" stroke="black" stroke-width="0" cx="2591.25" cy="-1347" rx="53.89" ry="18"/>
<text text-anchor="middle" x="2591.25" y="-1343.3" font-family="Times,serif" font-size="14.00">Snackbar</text>
</g>
<!-- u23&#45;&gt;u24 -->
<g id="edge39" class="edge">
<title>u23&#45;&gt;u24</title>
<path fill="none" stroke="black" d="M2559.02,-1332.41C2401.85,-1266.16 1716.7,-977.34 1550.62,-907.33"/>
<polygon fill="black" stroke="black" points="1551.89,-904.07 1541.32,-903.41 1549.17,-910.52 1551.89,-904.07"/>
</g>
<!-- u23&#45;&gt;u37 -->
<g id="edge73" class="edge">
<title>u23&#45;&gt;u37</title>
<path fill="none" stroke="black" d="M2593.48,-1328.64C2601.63,-1265.37 2630.94,-1041.16 2660.25,-857 2680.12,-732.14 2707.69,-583.7 2719.05,-523.45"/>
<polygon fill="black" stroke="black" points="2722.55,-523.72 2720.97,-513.25 2715.68,-522.42 2722.55,-523.72"/>
</g>
<!-- u23&#45;&gt;u0 -->
<g id="edge6" class="edge">
<title>u23&#45;&gt;u0</title>
<path fill="none" stroke="black" d="M2595.51,-1329.03C2612.72,-1260.49 2677.2,-1003.7 2698.43,-919.17"/>
<polygon fill="black" stroke="black" points="2701.87,-919.85 2700.91,-909.3 2695.08,-918.14 2701.87,-919.85"/>
</g>
<!-- u24&#45;&gt;u36 -->
<g id="edge64" class="edge">
<title>u24&#45;&gt;u36</title>
<path fill="none" stroke="black" d="M1531.16,-874.92C1640.48,-777.45 2246.87,-236.76 2376.05,-121.58"/>
<polygon fill="black" stroke="black" points="2378.39,-124.18 2383.53,-114.91 2373.73,-118.96 2378.39,-124.18"/>
</g>
<!-- u34 -->
<g id="node7" class="node">
<title>u34</title>
<ellipse fill="#ffffbb" stroke="black" stroke-width="0" cx="494.25" cy="-1347" rx="61.99" ry="18"/>
<text text-anchor="middle" x="494.25" y="-1343.3" font-family="Times,serif" font-size="14.00">BottomBar</text>
</g>
<!-- u34&#45;&gt;u24 -->
<g id="edge49" class="edge">
<title>u34&#45;&gt;u24</title>
<path fill="none" stroke="black" d="M526.75,-1331.54C678.86,-1263.83 1319.8,-978.55 1478.56,-907.89"/>
<polygon fill="black" stroke="black" points="1480.18,-911 1487.89,-903.73 1477.33,-904.6 1480.18,-911"/>
</g>
<!-- u25 -->
<g id="node8" class="node">
<title>u25</title>
<ellipse fill="#bbbbff" stroke="black" stroke-width="0" cx="1713.25" cy="-1347" rx="102.88" ry="18"/>
<text text-anchor="middle" x="1713.25" y="-1343.3" font-family="Times,serif" font-size="14.00">ExploreTimeSpaces</text>
</g>
<!-- u25&#45;&gt;u24 -->
<g id="edge40" class="edge">
<title>u25&#45;&gt;u24</title>
<path fill="none" stroke="black" d="M1705.81,-1329.03C1675.64,-1260.2 1562.25,-1001.49 1525.69,-918.09"/>
<polygon fill="black" stroke="black" points="1528.84,-916.57 1521.62,-908.81 1522.43,-919.38 1528.84,-916.57"/>
</g>
<!-- u26&#45;&gt;u24 -->
<g id="edge41" class="edge">
<title>u26&#45;&gt;u24</title>
<path fill="none" stroke="black" d="M2285.31,-1329.57C2161.37,-1259.24 1675.88,-983.72 1546.23,-910.15"/>
<polygon fill="black" stroke="black" points="1547.6,-906.9 1537.17,-905.01 1544.14,-912.99 1547.6,-906.9"/>
</g>
<!-- u26&#45;&gt;u37 -->
<g id="edge74" class="edge">
<title>u26&#45;&gt;u37</title>
<path fill="none" stroke="black" d="M2319.75,-1328.64C2340.36,-1264.45 2416.29,-1035.01 2504.25,-857 2569.37,-725.21 2667.26,-578.67 2706.78,-521.13"/>
<polygon fill="black" stroke="black" points="2709.82,-522.89 2712.61,-512.67 2704.05,-518.92 2709.82,-522.89"/>
</g>
<!-- u26&#45;&gt;u0 -->
<g id="edge7" class="edge">
<title>u26&#45;&gt;u0</title>
<path fill="none" stroke="black" d="M2328.87,-1329.03C2388.78,-1259.46 2615.7,-995.98 2685.02,-915.49"/>
<polygon fill="black" stroke="black" points="2687.72,-917.72 2691.59,-907.86 2682.41,-913.16 2687.72,-917.72"/>
</g>
<!-- u27 -->
<g id="node10" class="node">
<title>u27</title>
<ellipse fill="#bbbbff" stroke="black" stroke-width="0" cx="1871.25" cy="-1347" rx="37.89" ry="18"/>
<text text-anchor="middle" x="1871.25" y="-1343.3" font-family="Times,serif" font-size="14.00">EULA</text>
</g>
<!-- u27&#45;&gt;u24 -->
<g id="edge42" class="edge">
<title>u27&#45;&gt;u24</title>
<path fill="none" stroke="black" d="M1858.55,-1329.84C1804.98,-1261.72 1597.36,-997.69 1533.23,-916.13"/>
<polygon fill="black" stroke="black" points="1535.74,-913.66 1526.81,-907.96 1530.24,-917.99 1535.74,-913.66"/>
</g>
<!-- u28&#45;&gt;u24 -->
<g id="edge43" class="edge">
<title>u28&#45;&gt;u24</title>
<path fill="none" stroke="black" d="M1354.46,-1329.03C1379.6,-1260.27 1474.02,-1002.02 1504.62,-918.35"/>
<polygon fill="black" stroke="black" points="1507.96,-919.41 1508.11,-908.81 1501.38,-917 1507.96,-919.41"/>
</g>
<!-- u29&#45;&gt;u24 -->
<g id="edge44" class="edge">
<title>u29&#45;&gt;u24</title>
<path fill="none" stroke="black" d="M1165.78,-1329.03C1221.02,-1259.76 1429.56,-998.22 1494.69,-916.53"/>
<polygon fill="black" stroke="black" points="1497.73,-918.34 1501.23,-908.33 1492.26,-913.97 1497.73,-918.34"/>
</g>
<!-- u30 -->
<g id="node13" class="node">
<title>u30</title>
<ellipse fill="#bbbbff" stroke="black" stroke-width="0" cx="2477.25" cy="-1347" rx="42.49" ry="18"/>
<text text-anchor="middle" x="2477.25" y="-1343.3" font-family="Times,serif" font-size="14.00">Export</text>
</g>
<!-- u30&#45;&gt;u24 -->
<g id="edge45" class="edge">
<title>u30&#45;&gt;u24</title>
<path fill="none" stroke="black" d="M2450.82,-1332.94C2442.93,-1329.07 2434.25,-1324.84 2426.25,-1321 2085.71,-1157.45 1670.89,-964.63 1549.3,-908.24"/>
<polygon fill="black" stroke="black" points="1550.62,-904.99 1540.08,-903.96 1547.68,-911.34 1550.62,-904.99"/>
</g>
<!-- u30&#45;&gt;u37 -->
<g id="edge75" class="edge">
<title>u30&#45;&gt;u37</title>
<path fill="none" stroke="black" d="M2476.71,-1328.63C2475.18,-1264.38 2474.14,-1034.77 2529.25,-857 2571.4,-721.05 2666.55,-577.4 2706.28,-520.89"/>
<polygon fill="black" stroke="black" points="2709.24,-522.77 2712.17,-512.58 2703.53,-518.72 2709.24,-522.77"/>
</g>
<!-- u30&#45;&gt;u0 -->
<g id="edge8" class="edge">
<title>u30&#45;&gt;u0</title>
<path fill="none" stroke="black" d="M2485.64,-1329.3C2520.03,-1260.83 2650.42,-1001.19 2692.25,-917.89"/>
<polygon fill="black" stroke="black" points="2695.43,-919.36 2696.79,-908.85 2689.18,-916.21 2695.43,-919.36"/>
</g>
<!-- u31 -->
<g id="node14" class="node">
<title>u31</title>
<ellipse fill="#bbbbff" stroke="black" stroke-width="0" cx="1969.25" cy="-1347" rx="42.49" ry="18"/>
<text text-anchor="middle" x="1969.25" y="-1343.3" font-family="Times,serif" font-size="14.00">Import</text>
</g>
<!-- u31&#45;&gt;u24 -->
<g id="edge46" class="edge">
<title>u31&#45;&gt;u24</title>
<path fill="none" stroke="black" d="M1953.33,-1330.11C1885.06,-1261.99 1617.04,-994.56 1536.97,-914.66"/>
<polygon fill="black" stroke="black" points="1539.37,-912.11 1529.82,-907.53 1534.42,-917.07 1539.37,-912.11"/>
</g>
<!-- u31&#45;&gt;u37 -->
<g id="edge76" class="edge">
<title>u31&#45;&gt;u37</title>
<path fill="none" stroke="black" d="M1983.39,-1329.93C2037.46,-1268.46 2236.42,-1042.4 2401.25,-857 2514.39,-729.74 2650.62,-577.96 2702.64,-520.05"/>
<polygon fill="black" stroke="black" points="2705.33,-522.3 2709.41,-512.52 2700.12,-517.62 2705.33,-522.3"/>
</g>
<!-- u31&#45;&gt;u0 -->
<g id="edge9" class="edge">
<title>u31&#45;&gt;u0</title>
<path fill="none" stroke="black" d="M1992.49,-1331.66C2100.48,-1265.05 2553.09,-985.86 2674.93,-910.7"/>
<polygon fill="black" stroke="black" points="2676.78,-913.68 2683.45,-905.45 2673.1,-907.72 2676.78,-913.68"/>
</g>
<!-- u32 -->
<g id="node15" class="node">
<title>u32</title>
<ellipse fill="#bbbbff" stroke="black" stroke-width="0" cx="2111.25" cy="-1347" rx="81.79" ry="18"/>
<text text-anchor="middle" x="2111.25" y="-1343.3" font-family="Times,serif" font-size="14.00">DangerConfirm</text>
</g>
<!-- u32&#45;&gt;u24 -->
<g id="edge47" class="edge">
<title>u32&#45;&gt;u24</title>
<path fill="none" stroke="black" d="M2089.65,-1329.57C1998.25,-1260.06 1643.3,-990.14 1541.62,-912.81"/>
<polygon fill="black" stroke="black" points="1543.46,-909.82 1533.38,-906.55 1539.22,-915.39 1543.46,-909.82"/>
</g>
<!-- u32&#45;&gt;u37 -->
<g id="edge77" class="edge">
<title>u32&#45;&gt;u37</title>
<path fill="none" stroke="black" d="M2123.4,-1329.1C2168.39,-1266.51 2329.84,-1041.93 2463.25,-857 2554.28,-730.82 2663.42,-580.03 2705.99,-521.22"/>
<polygon fill="black" stroke="black" points="2708.98,-523.06 2712.01,-512.91 2703.31,-518.95 2708.98,-523.06"/>
</g>
<!-- u32&#45;&gt;u0 -->
<g id="edge10" class="edge">
<title>u32&#45;&gt;u0</title>
<path fill="none" stroke="black" d="M2132.74,-1329.57C2223.69,-1260.06 2576.85,-990.14 2678.03,-912.81"/>
<polygon fill="black" stroke="black" points="2680.4,-915.4 2686.22,-906.55 2676.15,-909.84 2680.4,-915.4"/>
</g>
<!-- u33&#45;&gt;u24 -->
<g id="edge48" class="edge">
<title>u33&#45;&gt;u24</title>
<path fill="none" stroke="black" d="M1514.25,-1328.76C1514.25,-1259.86 1514.25,-1004 1514.25,-919.37"/>
<polygon fill="black" stroke="black" points="1517.75,-919.26 1514.25,-909.26 1510.75,-919.26 1517.75,-919.26"/>
</g>
<!-- u19&#45;&gt;u24 -->
<g id="edge35" class="edge">
<title>u19&#45;&gt;u24</title>
<path fill="none" stroke="black" d="M652.36,-1331.66C783.78,-1264.62 1337.3,-982.26 1480.38,-909.28"/>
<polygon fill="black" stroke="black" points="1482.27,-912.25 1489.58,-904.58 1479.08,-906.01 1482.27,-912.25"/>
</g>
<!-- u20&#45;&gt;u24 -->
<g id="edge36" class="edge">
<title>u20&#45;&gt;u24</title>
<path fill="none" stroke="black" d="M766.1,-1331.41C880.43,-1264.26 1355.82,-985.05 1482.9,-910.42"/>
<polygon fill="black" stroke="black" points="1484.92,-913.29 1491.77,-905.2 1481.38,-907.25 1484.92,-913.29"/>
</g>
<!-- u21&#45;&gt;u24 -->
<g id="edge37" class="edge">
<title>u21&#45;&gt;u24</title>
<path fill="none" stroke="black" d="M885.66,-1330.37C983.84,-1261.91 1375.97,-988.44 1485.63,-911.96"/>
<polygon fill="black" stroke="black" points="1487.7,-914.78 1493.9,-906.19 1483.7,-909.04 1487.7,-914.78"/>
</g>
<!-- u15 -->
<g id="node20" class="node">
<title>u15</title>
<ellipse fill="#bbffff" stroke="black" stroke-width="0" cx="383.25" cy="-1347" rx="31.4" ry="18"/>
<text text-anchor="middle" x="383.25" y="-1343.3" font-family="Times,serif" font-size="14.00">Unit</text>
</g>
<!-- u16 -->
<g id="node21" class="node">
<title>u16</title>
<ellipse fill="#bbffff" stroke="black" stroke-width="0" cx="273.25" cy="-891" rx="34.39" ry="18"/>
<text text-anchor="middle" x="273.25" y="-887.3" font-family="Times,serif" font-size="14.00">Span</text>
</g>
<!-- u17 -->
<g id="node22" class="node">
<title>u17</title>
<ellipse fill="#bbffff" stroke="black" stroke-width="0" cx="297.25" cy="-1347" rx="36.29" ry="18"/>
<text text-anchor="middle" x="297.25" y="-1343.3" font-family="Times,serif" font-size="14.00">Value</text>
</g>
<!-- u17&#45;&gt;u16 -->
<g id="edge22" class="edge">
<title>u17&#45;&gt;u16</title>
<path fill="none" stroke="black" d="M296.34,-1328.76C292.7,-1259.86 279.17,-1004 274.7,-919.37"/>
<polygon fill="black" stroke="black" points="278.19,-919.06 274.16,-909.26 271.2,-919.43 278.19,-919.06"/>
</g>
<!-- u18 -->
<g id="node23" class="node">
<title>u18</title>
<ellipse fill="#bbffff" stroke="black" stroke-width="0" cx="371.25" cy="-891" rx="45.49" ry="18"/>
<text text-anchor="middle" x="371.25" y="-887.3" font-family="Times,serif" font-size="14.00">Bounds</text>
</g>
<!-- u17&#45;&gt;u18 -->
<g id="edge25" class="edge">
<title>u17&#45;&gt;u18</title>
<path fill="none" stroke="black" d="M300.02,-1329.03C311.19,-1260.49 353.05,-1003.7 366.82,-919.17"/>
<polygon fill="black" stroke="black" points="370.28,-919.73 368.43,-909.3 363.37,-918.6 370.28,-919.73"/>
</g>
<!-- u14 -->
<g id="node24" class="node">
<title>u14</title>
<ellipse fill="#ffbbff" stroke="black" stroke-width="0" cx="1220.25" cy="-1974" rx="59.59" ry="18"/>
<text text-anchor="middle" x="1220.25" y="-1970.3" font-family="Times,serif" font-size="14.00">Markdown</text>
</g>
<!-- u14&#45;&gt;u26 -->
<g id="edge54" class="edge">
<title>u14&#45;&gt;u26</title>
<path fill="none" stroke="black" d="M1249.42,-1958.24C1369.54,-1897.16 1836.79,-1656.57 2202.25,-1427 2230.66,-1409.15 2261.75,-1387 2283.95,-1370.7"/>
<polygon fill="black" stroke="black" points="2286.03,-1373.52 2292,-1364.76 2281.87,-1367.88 2286.03,-1373.52"/>
</g>
<!-- u14&#45;&gt;u29 -->
<g id="edge58" class="edge">
<title>u14&#45;&gt;u29</title>
<path fill="none" stroke="black" d="M1218.4,-1955.96C1209.02,-1869.79 1166.83,-1482.03 1155.22,-1375.28"/>
<polygon fill="black" stroke="black" points="1158.67,-1374.59 1154.1,-1365.03 1151.71,-1375.35 1158.67,-1374.59"/>
</g>
<!-- u14&#45;&gt;u33 -->
<g id="edge62" class="edge">
<title>u14&#45;&gt;u33</title>
<path fill="none" stroke="black" d="M1228.27,-1955.96C1268.92,-1869.53 1452.31,-1479.67 1501.87,-1374.31"/>
<polygon fill="black" stroke="black" points="1505.15,-1375.56 1506.24,-1365.03 1498.82,-1372.59 1505.15,-1375.56"/>
</g>
<!-- u37&#45;&gt;u36 -->
<g id="edge65" class="edge">
<title>u37&#45;&gt;u36</title>
<path fill="none" stroke="black" d="M2710.33,-477.07C2658.9,-414.52 2479.49,-196.36 2419.76,-123.73"/>
<polygon fill="black" stroke="black" points="2422.46,-121.5 2413.41,-115.99 2417.05,-125.94 2422.46,-121.5"/>
</g>
<!-- u37&#45;&gt;u24 -->
<g id="edge50" class="edge">
<title>u37&#45;&gt;u24</title>
<path fill="none" stroke="black" d="M2686.47,-508.3C2506.48,-566.91 1737.07,-817.45 1553.63,-877.18"/>
<polygon fill="black" stroke="black" points="1552.29,-873.93 1543.86,-880.36 1554.45,-880.59 1552.29,-873.93"/>
</g>
<!-- u0&#45;&gt;u37 -->
<g id="edge66" class="edge">
<title>u0&#45;&gt;u37</title>
<path fill="none" stroke="black" d="M2706.08,-872.82C2709.06,-810.98 2719.26,-599.47 2722.93,-523.47"/>
<polygon fill="black" stroke="black" points="2726.43,-523.43 2723.42,-513.27 2719.44,-523.09 2726.43,-523.43"/>
</g>
<!-- u35 -->
<g id="node27" class="node">
<title>u35</title>
<ellipse fill="#ffff77" stroke="black" stroke-width="0" cx="3723.25" cy="-1974" rx="55.49" ry="18"/>
<text text-anchor="middle" x="3723.25" y="-1970.3" font-family="Times,serif" font-size="14.00">TrimDocs</text>
</g>
<!-- u1 -->
<g id="node28" class="node">
<title>u1</title>
<ellipse fill="#7777ff" stroke="black" stroke-width="2" cx="3609.25" cy="-1974" rx="27" ry="18"/>
<text text-anchor="middle" x="3609.25" y="-1970.3" font-family="Times,serif" font-size="14.00">UI</text>
</g>
<!-- u2 -->
<g id="node29" class="node">
<title>u2</title>
<ellipse fill="#ff7777" stroke="black" stroke-width="0" cx="3461.25" cy="-1974" rx="102.88" ry="18"/>
<text text-anchor="middle" x="3461.25" y="-1970.3" font-family="Times,serif" font-size="14.00">ExploreTimeSpaces</text>
</g>
<!-- u2&#45;&gt;u25 -->
<g id="edge51" class="edge">
<title>u2&#45;&gt;u25</title>
<path fill="none" stroke="black" d="M3410.31,-1958.23C3167.33,-1887.46 2125.55,-1580.14 1824.25,-1427 1793.78,-1411.51 1762.33,-1388.33 1740.72,-1371.08"/>
<polygon fill="black" stroke="black" points="1742.92,-1368.36 1732.95,-1364.79 1738.52,-1373.8 1742.92,-1368.36"/>
</g>
<!-- u2&#45;&gt;u37 -->
<g id="edge67" class="edge">
<title>u2&#45;&gt;u37</title>
<path fill="none" stroke="black" d="M3465.53,-1955.77C3491.77,-1846.01 3621.88,-1236.81 3378.25,-857 3236.48,-635.97 2909.86,-538.75 2779.47,-507.76"/>
<polygon fill="black" stroke="black" points="2780.22,-504.34 2769.69,-505.47 2778.63,-511.15 2780.22,-504.34"/>
</g>
<!-- u3 -->
<g id="node30" class="node">
<title>u3</title>
<ellipse fill="#ff7777" stroke="black" stroke-width="0" cx="3290.25" cy="-1974" rx="50.89" ry="18"/>
<text text-anchor="middle" x="3290.25" y="-1970.3" font-family="Times,serif" font-size="14.00">Timeline</text>
</g>
<!-- u3&#45;&gt;u26 -->
<g id="edge52" class="edge">
<title>u3&#45;&gt;u26</title>
<path fill="none" stroke="black" d="M3265.56,-1958.03C3162.08,-1895.16 2753.44,-1645.57 2426.25,-1427 2398.65,-1408.56 2367.88,-1386.76 2345.58,-1370.74"/>
<polygon fill="black" stroke="black" points="2347.34,-1367.69 2337.18,-1364.69 2343.25,-1373.37 2347.34,-1367.69"/>
</g>
<!-- u3&#45;&gt;u21 -->
<g id="edge28" class="edge">
<title>u3&#45;&gt;u21</title>
<path fill="none" stroke="black" d="M3260.42,-1959.38C3250.9,-1955.36 3240.25,-1951.19 3230.25,-1948 2228.71,-1628.89 1807.27,-1995.72 923.25,-1427 903.09,-1414.03 887.11,-1391.8 876.73,-1374.22"/>
<polygon fill="black" stroke="black" points="879.51,-1372.02 871.55,-1365.02 873.41,-1375.45 879.51,-1372.02"/>
</g>
<!-- u3&#45;&gt;u37 -->
<g id="edge68" class="edge">
<title>u3&#45;&gt;u37</title>
<path fill="none" stroke="black" d="M3293.78,-1955.64C3319.03,-1829.44 3468.1,-1052.16 3350.25,-857 3219.24,-640.03 2905.14,-540.68 2778.52,-508.44"/>
<polygon fill="black" stroke="black" points="2779.21,-505 2768.66,-505.97 2777.5,-511.79 2779.21,-505"/>
</g>
<!-- u3&#45;&gt;u0 -->
<g id="edge1" class="edge">
<title>u3&#45;&gt;u0</title>
<path fill="none" stroke="black" d="M3272.6,-1957.06C3205.71,-1895.67 2965.54,-1666.04 2844.25,-1427 2797.16,-1334.19 2730.09,-1014.62 2710.7,-919.15"/>
<polygon fill="black" stroke="black" points="2714.08,-918.24 2708.67,-909.13 2707.22,-919.63 2714.08,-918.24"/>
</g>
<!-- u3&#45;&gt;u10 -->
<g id="edge17" class="edge">
<title>u3&#45;&gt;u10</title>
<path fill="none" stroke="black" d="M3283.52,-1955.96C3249.4,-1869.62 3095.6,-1480.46 3053.78,-1374.63"/>
<polygon fill="black" stroke="black" points="3056.91,-1373.04 3049.98,-1365.03 3050.4,-1375.61 3056.91,-1373.04"/>
</g>
<!-- u4 -->
<g id="node31" class="node">
<title>u4</title>
<ellipse fill="#ff7777" stroke="black" stroke-width="0" cx="3185.25" cy="-1974" rx="36.29" ry="18"/>
<text text-anchor="middle" x="3185.25" y="-1970.3" font-family="Times,serif" font-size="14.00">Index</text>
</g>
<!-- u4&#45;&gt;u33 -->
<g id="edge59" class="edge">
<title>u4&#45;&gt;u33</title>
<path fill="none" stroke="black" d="M3162.77,-1959.46C3155.7,-1955.49 3147.77,-1951.33 3140.25,-1948 2479.93,-1655.68 2223.64,-1793.2 1601.25,-1427 1576.24,-1412.29 1552.17,-1389.54 1535.71,-1372.23"/>
<polygon fill="black" stroke="black" points="1538.09,-1369.64 1528.71,-1364.7 1532.96,-1374.41 1538.09,-1369.64"/>
</g>
<!-- u4&#45;&gt;u15 -->
<g id="edge20" class="edge">
<title>u4&#45;&gt;u15</title>
<path fill="none" stroke="black" d="M3163.94,-1959.34C3156.66,-1955.17 3148.32,-1950.93 3140.25,-1948 1982.39,-1527.83 1382.62,-2193.27 418.25,-1427 402.2,-1414.25 393.32,-1392.6 388.52,-1375.19"/>
<polygon fill="black" stroke="black" points="391.8,-1373.9 386.03,-1365.01 385,-1375.56 391.8,-1373.9"/>
</g>
<!-- u4&#45;&gt;u16 -->
<g id="edge21" class="edge">
<title>u4&#45;&gt;u16</title>
<path fill="none" stroke="black" d="M3173.21,-1956.77C3101.37,-1860.12 2730.01,-1363.21 2657.25,-1321 1745.86,-792.19 1244.41,-1440.66 317.25,-940 306.85,-934.38 297.6,-925.34 290.31,-916.62"/>
<polygon fill="black" stroke="black" points="292.85,-914.19 283.93,-908.47 287.33,-918.5 292.85,-914.19"/>
</g>
<!-- u4&#45;&gt;u17 -->
<g id="edge23" class="edge">
<title>u4&#45;&gt;u17</title>
<path fill="none" stroke="black" d="M3163.95,-1959.32C3156.67,-1955.15 3148.32,-1950.91 3140.25,-1948 1950.54,-1519.6 1376.91,-2155.36 343.25,-1427 325.36,-1414.39 313.39,-1392.44 306.16,-1374.87"/>
<polygon fill="black" stroke="black" points="309.28,-1373.22 302.44,-1365.13 302.74,-1375.72 309.28,-1373.22"/>
</g>
<!-- u4&#45;&gt;u18 -->
<g id="edge24" class="edge">
<title>u4&#45;&gt;u18</title>
<path fill="none" stroke="black" d="M3171.86,-1956.96C3119.24,-1893.37 2923.74,-1651.47 2804.25,-1427 2780.52,-1382.41 2802.48,-1352.82 2763.25,-1321 1943.88,-656.42 1361.75,-1416.05 420.25,-940 408.91,-934.26 398.51,-924.97 390.23,-916.08"/>
<polygon fill="black" stroke="black" points="392.77,-913.66 383.54,-908.47 387.52,-918.29 392.77,-913.66"/>
</g>
<!-- u6 -->
<g id="node33" class="node">
<title>u6</title>
<ellipse fill="#ff7777" stroke="black" stroke-width="0" cx="3174.25" cy="-1347" rx="57.39" ry="18"/>
<text text-anchor="middle" x="3174.25" y="-1343.3" font-family="Times,serif" font-size="14.00">TimeSpan</text>
</g>
<!-- u4&#45;&gt;u6 -->
<g id="edge11" class="edge">
<title>u4&#45;&gt;u6</title>
<path fill="none" stroke="black" d="M3184.95,-1955.96C3183.44,-1869.79 3176.61,-1482.03 3174.73,-1375.28"/>
<polygon fill="black" stroke="black" points="3178.23,-1374.96 3174.55,-1365.03 3171.23,-1375.09 3178.23,-1374.96"/>
</g>
<!-- u7 -->
<g id="node34" class="node">
<title>u7</title>
<ellipse fill="#ff7777" stroke="black" stroke-width="0" cx="3288.25" cy="-1347" rx="38.19" ry="18"/>
<text text-anchor="middle" x="3288.25" y="-1343.3" font-family="Times,serif" font-size="14.00">Event</text>
</g>
<!-- u4&#45;&gt;u7 -->
<g id="edge12" class="edge">
<title>u4&#45;&gt;u7</title>
<path fill="none" stroke="black" d="M3188.06,-1955.96C3202.27,-1869.71 3266.29,-1481.24 3283.81,-1374.95"/>
<polygon fill="black" stroke="black" points="3287.27,-1375.46 3285.45,-1365.03 3280.37,-1374.32 3287.27,-1375.46"/>
</g>
<!-- u4&#45;&gt;u9 -->
<g id="edge15" class="edge">
<title>u4&#45;&gt;u9</title>
<path fill="none" stroke="black" d="M3177.92,-1956.28C3140.33,-1870.53 2969.09,-1479.94 2922.81,-1374.37"/>
<polygon fill="black" stroke="black" points="2925.95,-1372.81 2918.73,-1365.06 2919.54,-1375.63 2925.95,-1372.81"/>
</g>
<!-- u5 -->
<g id="node32" class="node">
<title>u5</title>
<ellipse fill="#ff7777" stroke="black" stroke-width="0" cx="3069.25" cy="-1974" rx="61.99" ry="18"/>
<text text-anchor="middle" x="3069.25" y="-1970.3" font-family="Times,serif" font-size="14.00">TimeSpace</text>
</g>
<!-- u8 -->
<g id="node35" class="node">
<title>u8</title>
<ellipse fill="#ff7777" stroke="black" stroke-width="0" cx="3194.25" cy="-891" rx="112.38" ry="18"/>
<text text-anchor="middle" x="3194.25" y="-887.3" font-family="Times,serif" font-size="14.00">EventsAndTimeSpans</text>
</g>
<!-- u6&#45;&gt;u8 -->
<g id="edge13" class="edge">
<title>u6&#45;&gt;u8</title>
<path fill="none" stroke="black" d="M3175.01,-1328.76C3178.05,-1259.86 3189.32,-1004 3193.05,-919.37"/>
<polygon fill="black" stroke="black" points="3196.55,-919.4 3193.49,-909.26 3189.56,-919.1 3196.55,-919.4"/>
</g>
<!-- u7&#45;&gt;u8 -->
<g id="edge14" class="edge">
<title>u7&#45;&gt;u8</title>
<path fill="none" stroke="black" d="M3284.74,-1329.03C3270.55,-1260.49 3217.38,-1003.7 3199.88,-919.17"/>
<polygon fill="black" stroke="black" points="3203.29,-918.38 3197.83,-909.3 3196.43,-919.8 3203.29,-918.38"/>
</g>
<!-- u9&#45;&gt;u34 -->
<g id="edge63" class="edge">
<title>u9&#45;&gt;u34</title>
<path fill="none" stroke="black" d="M2913.71,-1365.39C2920.39,-1423.97 2932.05,-1607.08 2830.25,-1687.5 2436.17,-1998.83 962.15,-2001.57 570.25,-1687.5 474.66,-1610.9 482.67,-1442.82 490.25,-1375.61"/>
<polygon fill="black" stroke="black" points="493.77,-1375.7 491.5,-1365.35 486.82,-1374.86 493.77,-1375.7"/>
</g>
<!-- u9&#45;&gt;u33 -->
<g id="edge60" class="edge">
<title>u9&#45;&gt;u33</title>
<path fill="none" stroke="black" d="M2913.71,-1365.39C2920.39,-1423.97 2932.05,-1607.08 2830.25,-1687.5 2404.78,-2023.63 2042.56,-2014.78 1610.25,-1687.5 1510.98,-1612.35 1508.73,-1442.71 1512.1,-1375.35"/>
<polygon fill="black" stroke="black" points="1515.61,-1375.27 1512.69,-1365.08 1508.62,-1374.86 1515.61,-1375.27"/>
</g>
<!-- u9&#45;&gt;u37 -->
<g id="edge69" class="edge">
<title>u9&#45;&gt;u37</title>
<path fill="none" stroke="black" d="M2907.52,-1329.02C2884.24,-1223.19 2759.08,-654.29 2730.2,-523.03"/>
<polygon fill="black" stroke="black" points="2733.56,-522.03 2728,-513.02 2726.73,-523.54 2733.56,-522.03"/>
</g>
<!-- u9&#45;&gt;u0 -->
<g id="edge2" class="edge">
<title>u9&#45;&gt;u0</title>
<path fill="none" stroke="black" d="M2903.55,-1329.03C2872.32,-1260.2 2754.93,-1001.49 2717.09,-918.09"/>
<polygon fill="black" stroke="black" points="2720.2,-916.47 2712.88,-908.81 2713.83,-919.37 2720.2,-916.47"/>
</g>
<!-- u10&#45;&gt;u21 -->
<g id="edge29" class="edge">
<title>u10&#45;&gt;u21</title>
<path fill="none" stroke="black" d="M3046.13,-1365.34C3054.11,-1423.76 3069.81,-1606.45 2969.25,-1687.5 2616.82,-1971.57 1282.68,-1974.04 932.25,-1687.5 837.82,-1610.28 849.53,-1442.56 858.61,-1375.52"/>
<polygon fill="black" stroke="black" points="862.12,-1375.69 860.08,-1365.3 855.19,-1374.7 862.12,-1375.69"/>
</g>
<!-- u10&#45;&gt;u37 -->
<g id="edge70" class="edge">
<title>u10&#45;&gt;u37</title>
<path fill="none" stroke="black" d="M3036.88,-1329.02C2997.12,-1223.09 2783.23,-653.15 2734.25,-522.64"/>
<polygon fill="black" stroke="black" points="2737.43,-521.15 2730.64,-513.02 2730.88,-523.61 2737.43,-521.15"/>
</g>
<!-- u10&#45;&gt;u0 -->
<g id="edge3" class="edge">
<title>u10&#45;&gt;u0</title>
<path fill="none" stroke="black" d="M3030.82,-1329.3C2979.57,-1260.46 2784.49,-998.43 2723.55,-916.58"/>
<polygon fill="black" stroke="black" points="2726.22,-914.3 2717.44,-908.37 2720.6,-918.48 2726.22,-914.3"/>
</g>
<!-- u11&#45;&gt;u22 -->
<g id="edge31" class="edge">
<title>u11&#45;&gt;u22</title>
<path fill="none" stroke="black" d="M2814.5,-1968.99C2531.21,-1951.73 1610.51,-1863.15 1031.25,-1427 1013.48,-1413.62 1000.4,-1391.91 992.09,-1374.63"/>
<polygon fill="black" stroke="black" points="995.07,-1372.73 987.74,-1365.07 988.69,-1375.62 995.07,-1372.73"/>
</g>
<!-- u11&#45;&gt;u29 -->
<g id="edge56" class="edge">
<title>u11&#45;&gt;u29</title>
<path fill="none" stroke="black" d="M2843.91,-1960.05C2630.6,-1909.79 1855,-1716.09 1269.25,-1427 1237.49,-1411.32 1204.29,-1388.17 1181.41,-1370.97"/>
<polygon fill="black" stroke="black" points="1183.25,-1367.97 1173.17,-1364.7 1179.01,-1373.54 1183.25,-1367.97"/>
</g>
<!-- u11&#45;&gt;u37 -->
<g id="edge71" class="edge">
<title>u11&#45;&gt;u37</title>
<path fill="none" stroke="black" d="M2921.16,-1956.34C2995.67,-1895.46 3248.35,-1675.55 3335.25,-1427 3380.67,-1297.11 3485.54,-1145.8 3315.25,-857 3192,-647.97 2895.75,-544.15 2775.89,-509.57"/>
<polygon fill="black" stroke="black" points="2776.78,-506.19 2766.21,-506.82 2774.87,-512.92 2776.78,-506.19"/>
</g>
<!-- u11&#45;&gt;u0 -->
<g id="edge4" class="edge">
<title>u11&#45;&gt;u0</title>
<path fill="none" stroke="black" d="M2897.11,-1955.58C2874.6,-1830.8 2737.98,-1073.43 2710.19,-919.35"/>
<polygon fill="black" stroke="black" points="2713.59,-918.53 2708.38,-909.31 2706.71,-919.77 2713.59,-918.53"/>
</g>
</g>
</svg>
