<?xml version="1.0" encoding="UTF-8" standalone="no"?>
<!DOCTYPE svg PUBLIC "-//W3C//DTD SVG 1.1//EN"
 "http://www.w3.org/Graphics/SVG/1.1/DTD/svg11.dtd">
<!-- Generated by graphviz version 2.40.1 (20161225.0304)
 -->
<!-- Title: Modules Pages: 1 -->
<svg width="864pt" height="529pt"
 viewBox="0.00 0.00 864.00 528.74" xmlns="http://www.w3.org/2000/svg" xmlns:xlink="http://www.w3.org/1999/xlink">
<g id="graph0" class="graph" transform="scale(.4893 .4893) rotate(0) translate(4 1076.6667)">
<title>Modules</title>
<polygon fill="#ffffff" stroke="transparent" points="-4,4 -4,-1076.6667 1761.9004,-1076.6667 1761.9004,4 -4,4"/>
<g id="clust1" class="cluster">
<title>cluster_0</title>
<polygon fill="#000000" fill-opacity="0.058824" stroke="#000000" stroke-opacity="0.058824" points="273.0844,-252.8296 273.0844,-604.1883 1610.0844,-604.1883 1610.0844,-252.8296 273.0844,-252.8296"/>
<text text-anchor="middle" x="941.5844" y="-588.9883" font-family="Times,serif" font-size="14.00" fill="#000000">Components</text>
</g>
<g id="clust2" class="cluster">
<title>cluster_1</title>
<polygon fill="#000000" fill-opacity="0.058824" stroke="#000000" stroke-opacity="0.058824" points="591.0844,-407.13 591.0844,-546.5581 1286.0844,-546.5581 1286.0844,-407.13 591.0844,-407.13"/>
<text text-anchor="middle" x="938.5844" y="-531.3581" font-family="Times,serif" font-size="14.00" fill="#000000">Dialogs</text>
</g>
<g id="clust3" class="cluster">
<title>cluster_2</title>
<polygon fill="#000000" fill-opacity="0.058824" stroke="#000000" stroke-opacity="0.058824" points="1294.0844,-407.13 1294.0844,-546.5581 1602.0844,-546.5581 1602.0844,-407.13 1294.0844,-407.13"/>
<text text-anchor="middle" x="1448.0844" y="-531.3581" font-family="Times,serif" font-size="14.00" fill="#000000">Drawers</text>
</g>
<g id="clust4" class="cluster">
<title>cluster_3</title>
<polygon fill="#000000" fill-opacity="0.058824" stroke="#000000" stroke-opacity="0.058824" points="159.0844,-118.9786 159.0844,-392.2577 265.0844,-392.2577 265.0844,-118.9786 159.0844,-118.9786"/>
<text text-anchor="middle" x="212.0844" y="-377.0577" font-family="Times,serif" font-size="14.00" fill="#000000">Plumbing</text>
</g>
<g id="clust5" class="cluster">
<title>cluster_4</title>
<polygon fill="#000000" fill-opacity="0.058824" stroke="#000000" stroke-opacity="0.058824" points="1337.0844,-860.736 1337.0844,-1000.1641 1447.0844,-1000.1641 1447.0844,-860.736 1337.0844,-860.736"/>
<text text-anchor="middle" x="1392.0844" y="-984.9641" font-family="Times,serif" font-size="14.00" fill="#000000">Scripts</text>
</g>
<g id="clust6" class="cluster">
<title>cluster_5</title>
<polygon fill="#000000" fill-opacity="0.058824" stroke="#000000" stroke-opacity="0.058824" points="433.0844,-845.8637 433.0844,-1057.7943 571.0844,-1057.7943 571.0844,-845.8637 433.0844,-845.8637"/>
<text text-anchor="middle" x="502.0844" y="-1042.5943" font-family="Times,serif" font-size="14.00" fill="#000000">Test</text>
</g>
<g id="clust7" class="cluster">
<title>cluster_6</title>
<polygon fill="#000000" fill-opacity="0.058824" stroke="#000000" stroke-opacity="0.058824" points="441.0844,-860.736 441.0844,-1000.1641 563.0844,-1000.1641 563.0844,-860.736 441.0844,-860.736"/>
<text text-anchor="middle" x="502.0844" y="-984.9641" font-family="Times,serif" font-size="14.00" fill="#000000">QuickCheck</text>
</g>
<g id="clust8" class="cluster">
<title>cluster_7</title>
<polygon fill="#000000" fill-opacity="0.058824" stroke="#000000" stroke-opacity="0.058824" points="109.0844,-619.0607 109.0844,-830.9913 1031.0844,-830.9913 1031.0844,-619.0607 109.0844,-619.0607"/>
<text text-anchor="middle" x="570.0844" y="-815.7913" font-family="Times,serif" font-size="14.00" fill="#000000">Timeline</text>
</g>
<g id="clust9" class="cluster">
<title>cluster_8</title>
<polygon fill="#000000" fill-opacity="0.058824" stroke="#000000" stroke-opacity="0.058824" points="117.0844,-633.933 117.0844,-773.3611 1023.0844,-773.3611 1023.0844,-633.933 117.0844,-633.933"/>
<text text-anchor="middle" x="570.0844" y="-758.1611" font-family="Times,serif" font-size="14.00" fill="#000000">Data</text>
</g>
<!-- u14 -->
<g id="node1" class="node">
<title>u14</title>
<ellipse fill="#bbffbb" stroke="#000000" stroke-width="0" cx="1106.0844" cy="-909" rx="38.9931" ry="18"/>
<text text-anchor="middle" x="1106.0844" y="-905.3" font-family="Times,serif" font-size="14.00" fill="#000000">Settings</text>
</g>
<!-- u6 -->
<g id="node4" class="node">
<title>u6</title>
<ellipse fill="#ffffbb" stroke="#000000" stroke-width="0" cx="864.0844" cy="-301" rx="30.5947" ry="18"/>
<text text-anchor="middle" x="864.0844" y="-297.3" font-family="Times,serif" font-size="14.00" fill="#000000">Index</text>
</g>
<!-- u14&#45;&gt;u6 -->
<g id="edge19" class="edge">
<title>u14&#45;&gt;u6</title>
<path fill="none" stroke="#000000" d="M1139.6059,-899.7254C1293.6292,-855.5939 1917.5782,-659.4219 1719.0844,-429 1664.9863,-366.2001 1067.6341,-316.4729 904.8455,-304.0173"/>
<polygon fill="#000000" stroke="#000000" points="904.9982,-300.5189 894.7617,-303.251 904.4677,-307.4987 904.9982,-300.5189"/>
</g>
<!-- u8 -->
<g id="node6" class="node">
<title>u8</title>
<ellipse fill="#ffffbb" stroke="#000000" stroke-width="0" cx="543.0844" cy="-455" rx="37.8943" ry="18"/>
<text text-anchor="middle" x="543.0844" y="-451.3" font-family="Times,serif" font-size="14.00" fill="#000000">TopBar</text>
</g>
<!-- u14&#45;&gt;u8 -->
<g id="edge21" class="edge">
<title>u14&#45;&gt;u8</title>
<path fill="none" stroke="#000000" d="M1100.7099,-890.8201C1083.2901,-831.9497 1029.3756,-650.1957 1027.0844,-648 881.315,-508.302 746.626,-658.7365 587.0844,-535 570.1223,-521.8446 558.7932,-500.2208 551.884,-482.7694"/>
<polygon fill="#000000" stroke="#000000" points="555.0542,-481.2492 548.3176,-473.0719 548.4845,-483.6654 555.0542,-481.2492"/>
</g>
<!-- u0 -->
<g id="node8" class="node">
<title>u0</title>
<ellipse fill="#bbbbff" stroke="#000000" stroke-width="0" cx="1224.0844" cy="-455" rx="53.8905" ry="18"/>
<text text-anchor="middle" x="1224.0844" y="-451.3" font-family="Times,serif" font-size="14.00" fill="#000000">SettingsEdit</text>
</g>
<!-- u14&#45;&gt;u0 -->
<g id="edge1" class="edge">
<title>u14&#45;&gt;u0</title>
<path fill="none" stroke="#000000" d="M1110.783,-890.9225C1128.9705,-820.9469 1194.8255,-567.5724 1216.8517,-482.8274"/>
<polygon fill="#000000" stroke="#000000" points="1220.2443,-483.6881 1219.3724,-473.1292 1213.4694,-481.9271 1220.2443,-483.6881"/>
</g>
<!-- u2 -->
<g id="node10" class="node">
<title>u2</title>
<ellipse fill="#bbbbff" stroke="#000000" stroke-width="0" cx="1088.0844" cy="-455" rx="63.8893" ry="18"/>
<text text-anchor="middle" x="1088.0844" y="-451.3" font-family="Times,serif" font-size="14.00" fill="#000000">TimeScaleEdit</text>
</g>
<!-- u14&#45;&gt;u2 -->
<g id="edge2" class="edge">
<title>u14&#45;&gt;u2</title>
<path fill="none" stroke="#000000" d="M1106.0374,-890.9543C1105.8615,-848.5469 1105.0288,-739.2362 1101.0844,-648 1098.5497,-589.3687 1093.4179,-520.8514 1090.4157,-483.265"/>
<polygon fill="#000000" stroke="#000000" points="1093.8867,-482.7637 1089.5935,-473.0777 1086.9094,-483.3269 1093.8867,-482.7637"/>
</g>
<!-- u4 -->
<g id="node12" class="node">
<title>u4</title>
<ellipse fill="#bbbbff" stroke="#000000" stroke-width="0" cx="927.0844" cy="-455" rx="79.0865" ry="18"/>
<text text-anchor="middle" x="927.0844" y="-451.3" font-family="Times,serif" font-size="14.00" fill="#000000">TimelineNameEdit</text>
</g>
<!-- u14&#45;&gt;u4 -->
<g id="edge4" class="edge">
<title>u14&#45;&gt;u4</title>
<path fill="none" stroke="#000000" d="M1105.8516,-890.8435C1104.7157,-847.2805 1098.3166,-734.0623 1063.0844,-648 1035.8399,-581.4493 982.0668,-515.4739 950.9198,-480.5394"/>
<polygon fill="#000000" stroke="#000000" points="953.189,-477.8297 943.8904,-472.7517 947.9927,-482.5201 953.189,-477.8297"/>
</g>
<!-- u10 -->
<g id="node14" class="node">
<title>u10</title>
<ellipse fill="#ffbbbb" stroke="#000000" stroke-width="0" cx="1344.0844" cy="-455" rx="41.6928" ry="18"/>
<text text-anchor="middle" x="1344.0844" y="-451.3" font-family="Times,serif" font-size="14.00" fill="#000000">Children</text>
</g>
<!-- u14&#45;&gt;u10 -->
<g id="edge24" class="edge">
<title>u14&#45;&gt;u10</title>
<path fill="none" stroke="#000000" d="M1115.2685,-891.4808C1151.7085,-821.9692 1286.2512,-565.3205 1330.1398,-481.6003"/>
<polygon fill="#000000" stroke="#000000" points="1333.2562,-483.1937 1334.7994,-472.7118 1327.0564,-479.9436 1333.2562,-483.1937"/>
</g>
<!-- u11 -->
<g id="node15" class="node">
<title>u11</title>
<ellipse fill="#ffbbbb" stroke="#000000" stroke-width="0" cx="1450.0844" cy="-455" rx="46.2923" ry="18"/>
<text text-anchor="middle" x="1450.0844" y="-451.3" font-family="Times,serif" font-size="14.00" fill="#000000">Timelines</text>
</g>
<!-- u14&#45;&gt;u11 -->
<g id="edge25" class="edge">
<title>u14&#45;&gt;u11</title>
<path fill="none" stroke="#000000" d="M1120.6885,-892.0658C1143.9184,-864.9838 1190.5011,-810.0771 1228.0844,-762 1305.2231,-663.3231 1322.4852,-637.063 1395.0844,-535 1407.7428,-517.2043 1421.677,-496.9289 1432.3527,-481.2426"/>
<polygon fill="#000000" stroke="#000000" points="1435.5056,-482.8298 1438.2277,-472.5906 1429.7145,-478.8975 1435.5056,-482.8298"/>
</g>
<!-- u12 -->
<g id="node16" class="node">
<title>u12</title>
<ellipse fill="#ffbbbb" stroke="#000000" stroke-width="0" cx="1554.0844" cy="-455" rx="39.7935" ry="18"/>
<text text-anchor="middle" x="1554.0844" y="-451.3" font-family="Times,serif" font-size="14.00" fill="#000000">Siblings</text>
</g>
<!-- u14&#45;&gt;u12 -->
<g id="edge26" class="edge">
<title>u14&#45;&gt;u12</title>
<path fill="none" stroke="#000000" d="M1126.89,-893.3976C1189.897,-845.3947 1381.8419,-693.5397 1505.0844,-535 1518.2033,-518.1238 1530.7495,-497.5252 1539.8621,-481.4565"/>
<polygon fill="#000000" stroke="#000000" points="1542.9976,-483.02 1544.8092,-472.5812 1536.8832,-479.6119 1542.9976,-483.02"/>
</g>
<!-- u13 -->
<g id="node17" class="node">
<title>u13</title>
<ellipse fill="#bbffbb" stroke="#000000" stroke-width="2" cx="212.0844" cy="-167" rx="45.4919" ry="18"/>
<text text-anchor="middle" x="212.0844" y="-163.3" font-family="Times,serif" font-size="14.00" fill="#000000">Plumbing</text>
</g>
<!-- u14&#45;&gt;u13 -->
<g id="edge30" class="edge">
<title>u14&#45;&gt;u13</title>
<path fill="none" stroke="#000000" d="M1067.3619,-906.4762C887.0063,-894.3366 135.2473,-839.3446 68.0844,-762 -75.1269,-597.0783 38.1175,-471.2116 134.0844,-275 149.1558,-244.1854 172.9441,-212.8262 190.2906,-191.896"/>
<polygon fill="#000000" stroke="#000000" points="193.0592,-194.0419 196.8225,-184.1379 187.7044,-189.5334 193.0592,-194.0419"/>
</g>
<!-- u17 -->
<g id="node18" class="node">
<title>u17</title>
<ellipse fill="#bbffff" stroke="#000000" stroke-width="0" cx="226.0844" cy="-301" rx="31.3957" ry="18"/>
<text text-anchor="middle" x="226.0844" y="-297.3" font-family="Times,serif" font-size="14.00" fill="#000000">Logic</text>
</g>
<!-- u14&#45;&gt;u17 -->
<g id="edge39" class="edge">
<title>u14&#45;&gt;u17</title>
<path fill="none" stroke="#000000" d="M1067.2901,-906.2127C891.6764,-893.2105 176.9476,-836.0132 113.0844,-762 -.7224,-630.1054 150.4963,-401.6682 206.6325,-326.0854"/>
<polygon fill="#000000" stroke="#000000" points="209.769,-327.7381 212.9829,-317.6425 204.1747,-323.5304 209.769,-327.7381"/>
</g>
<!-- u22 -->
<g id="node23" class="node">
<title>u22</title>
<ellipse fill="#ff7777" stroke="#000000" stroke-width="0" cx="502.0844" cy="-682" rx="64.189" ry="18"/>
<text text-anchor="middle" x="502.0844" y="-678.3" font-family="Times,serif" font-size="14.00" fill="#000000">TimelineName</text>
</g>
<!-- u14&#45;&gt;u22 -->
<g id="edge42" class="edge">
<title>u14&#45;&gt;u22</title>
<path fill="none" stroke="#000000" d="M1067.4932,-905.6665C975.7471,-896.2555 739.9552,-863.2182 575.0844,-762 552.7768,-748.3048 533.1427,-725.8456 519.8716,-708.2049"/>
<polygon fill="#000000" stroke="#000000" points="522.6031,-706.0104 513.884,-699.9914 516.9466,-710.134 522.6031,-706.0104"/>
</g>
<!-- u24 -->
<g id="node25" class="node">
<title>u24</title>
<ellipse fill="#ff7777" stroke="#000000" stroke-width="0" cx="712.0844" cy="-682" rx="48.9926" ry="18"/>
<text text-anchor="middle" x="712.0844" y="-678.3" font-family="Times,serif" font-size="14.00" fill="#000000">TimeScale</text>
</g>
<!-- u14&#45;&gt;u24 -->
<g id="edge44" class="edge">
<title>u14&#45;&gt;u24</title>
<path fill="none" stroke="#000000" d="M1071.6898,-900.4755C1007.0605,-883.1403 865.4239,-838.7745 770.0844,-762 751.9338,-747.3838 736.7145,-725.7532 726.4264,-708.668"/>
<polygon fill="#000000" stroke="#000000" points="729.2781,-706.6088 721.2308,-699.7173 723.2241,-710.123 729.2781,-706.6088"/>
</g>
<!-- u15 -->
<g id="node2" class="node">
<title>u15</title>
<ellipse fill="#bbffbb" stroke="#000000" stroke-width="0" cx="377.0844" cy="-33" rx="29.795" ry="18"/>
<text text-anchor="middle" x="377.0844" y="-29.3" font-family="Times,serif" font-size="14.00" fill="#000000">Main</text>
</g>
<!-- u16 -->
<g id="node3" class="node">
<title>u16</title>
<ellipse fill="#bbffbb" stroke="#000000" stroke-width="0" cx="1664.0844" cy="-455" rx="46.2923" ry="18"/>
<text text-anchor="middle" x="1664.0844" y="-451.3" font-family="Times,serif" font-size="14.00" fill="#000000">WithRoot</text>
</g>
<!-- u16&#45;&gt;u6 -->
<g id="edge20" class="edge">
<title>u16&#45;&gt;u6</title>
<path fill="none" stroke="#000000" d="M1635.7205,-440.5785C1626.461,-436.3364 1616.0057,-432.0269 1606.0844,-429 1345.6652,-349.548 1017.8379,-314.6514 904.6714,-304.4025"/>
<polygon fill="#000000" stroke="#000000" points="904.6706,-300.8886 894.3994,-303.4869 904.0491,-307.861 904.6706,-300.8886"/>
</g>
<!-- u6&#45;&gt;u15 -->
<g id="edge34" class="edge">
<title>u6&#45;&gt;u15</title>
<path fill="none" stroke="#000000" d="M841.5721,-288.6113C762.7988,-245.2617 499.4052,-100.3141 408.3606,-50.2115"/>
<polygon fill="#000000" stroke="#000000" points="409.8064,-47.0123 399.3579,-45.2573 406.4315,-53.145 409.8064,-47.0123"/>
</g>
<!-- u7 -->
<g id="node5" class="node">
<title>u7</title>
<ellipse fill="#ffffbb" stroke="#000000" stroke-width="0" cx="325.0844" cy="-455" rx="43.5923" ry="18"/>
<text text-anchor="middle" x="325.0844" y="-451.3" font-family="Times,serif" font-size="14.00" fill="#000000">Snackbar</text>
</g>
<!-- u7&#45;&gt;u6 -->
<g id="edge12" class="edge">
<title>u7&#45;&gt;u6</title>
<path fill="none" stroke="#000000" d="M351.5914,-440.715C359.9194,-436.5775 369.2492,-432.2933 378.0844,-429 539.7608,-368.7347 741.6572,-325.1969 825.1628,-308.5045"/>
<polygon fill="#000000" stroke="#000000" points="825.8544,-311.9355 834.9822,-306.5566 824.4923,-305.0693 825.8544,-311.9355"/>
</g>
<!-- u7&#45;&gt;u13 -->
<g id="edge29" class="edge">
<title>u7&#45;&gt;u13</title>
<path fill="none" stroke="#000000" d="M320.1536,-437.058C310.9492,-404.3225 289.9136,-332.9387 266.0844,-275 254.3459,-246.4588 238.2507,-215.0286 226.6913,-193.4704"/>
<polygon fill="#000000" stroke="#000000" points="229.7234,-191.7193 221.8864,-184.5896 223.5668,-195.0504 229.7234,-191.7193"/>
</g>
<!-- u7&#45;&gt;u17 -->
<g id="edge38" class="edge">
<title>u7&#45;&gt;u17</title>
<path fill="none" stroke="#000000" d="M313.7279,-437.3342C296.2544,-410.1533 262.6909,-357.9434 242.5504,-326.6138"/>
<polygon fill="#000000" stroke="#000000" points="245.3586,-324.5096 237.0069,-317.9905 239.4704,-328.2949 245.3586,-324.5096"/>
</g>
<!-- u8&#45;&gt;u6 -->
<g id="edge13" class="edge">
<title>u8&#45;&gt;u6</title>
<path fill="none" stroke="#000000" d="M566.5852,-440.5222C573.145,-436.6436 580.3277,-432.5459 587.0844,-429 672.7559,-384.04 777.1697,-338.0838 829.9811,-315.4353"/>
<polygon fill="#000000" stroke="#000000" points="831.4065,-318.6324 839.2255,-311.4831 828.6547,-312.196 831.4065,-318.6324"/>
</g>
<!-- u9 -->
<g id="node7" class="node">
<title>u9</title>
<ellipse fill="#ffffbb" stroke="#000000" stroke-width="0" cx="437.0844" cy="-455" rx="50.0912" ry="18"/>
<text text-anchor="middle" x="437.0844" y="-451.3" font-family="Times,serif" font-size="14.00" fill="#000000">BottomBar</text>
</g>
<!-- u9&#45;&gt;u6 -->
<g id="edge14" class="edge">
<title>u9&#45;&gt;u6</title>
<path fill="none" stroke="#000000" d="M468.1198,-440.7649C477.0822,-436.8065 486.9183,-432.607 496.0844,-429 615.8273,-381.879 760.818,-334.1077 827.4107,-312.6728"/>
<polygon fill="#000000" stroke="#000000" points="828.5811,-315.9731 837.0325,-309.5836 826.4412,-309.3082 828.5811,-315.9731"/>
</g>
<!-- u0&#45;&gt;u6 -->
<g id="edge6" class="edge">
<title>u0&#45;&gt;u6</title>
<path fill="none" stroke="#000000" d="M1190.8618,-440.7881C1122.6747,-411.6192 967.5369,-345.2547 898.4174,-315.6869"/>
<polygon fill="#000000" stroke="#000000" points="899.4348,-312.3154 888.8641,-311.6002 896.6817,-318.7512 899.4348,-312.3154"/>
</g>
<!-- u1 -->
<g id="node9" class="node">
<title>u1</title>
<ellipse fill="#bbbbff" stroke="#000000" stroke-width="0" cx="802.0844" cy="-455" rx="27.0966" ry="18"/>
<text text-anchor="middle" x="802.0844" y="-451.3" font-family="Times,serif" font-size="14.00" fill="#000000">New</text>
</g>
<!-- u1&#45;&gt;u6 -->
<g id="edge7" class="edge">
<title>u1&#45;&gt;u6</title>
<path fill="none" stroke="#000000" d="M809.1966,-437.3342C819.9309,-410.6717 840.3609,-359.9261 853.0415,-328.4291"/>
<polygon fill="#000000" stroke="#000000" points="856.3762,-329.5177 856.8642,-318.9341 849.8827,-326.9034 856.3762,-329.5177"/>
</g>
<!-- u2&#45;&gt;u6 -->
<g id="edge8" class="edge">
<title>u2&#45;&gt;u6</title>
<path fill="none" stroke="#000000" d="M1063.6861,-438.2261C1021.9088,-409.5043 936.8979,-351.0593 892.5092,-320.542"/>
<polygon fill="#000000" stroke="#000000" points="894.4212,-317.6092 884.1979,-314.828 890.4554,-323.3775 894.4212,-317.6092"/>
</g>
<!-- u3 -->
<g id="node11" class="node">
<title>u3</title>
<ellipse fill="#bbbbff" stroke="#000000" stroke-width="0" cx="722.0844" cy="-455" rx="34.394" ry="18"/>
<text text-anchor="middle" x="722.0844" y="-451.3" font-family="Times,serif" font-size="14.00" fill="#000000">Export</text>
</g>
<!-- u3&#45;&gt;u6 -->
<g id="edge9" class="edge">
<title>u3&#45;&gt;u6</title>
<path fill="none" stroke="#000000" d="M737.2809,-438.5193C762.6086,-411.0513 813.5303,-355.8263 842.5466,-324.3579"/>
<polygon fill="#000000" stroke="#000000" points="845.217,-326.625 849.4228,-316.9007 840.0708,-321.8798 845.217,-326.625"/>
</g>
<!-- u3&#45;&gt;u13 -->
<g id="edge27" class="edge">
<title>u3&#45;&gt;u13</title>
<path fill="none" stroke="#000000" d="M708.9646,-438.0517C680.8225,-402.7874 611.0183,-320.983 535.0844,-275 447.0475,-221.6877 329.4015,-190.9434 263.1123,-176.7245"/>
<polygon fill="#000000" stroke="#000000" points="263.8268,-173.2983 253.3204,-174.6646 262.3857,-180.1484 263.8268,-173.2983"/>
</g>
<!-- u3&#45;&gt;u17 -->
<g id="edge36" class="edge">
<title>u3&#45;&gt;u17</title>
<path fill="none" stroke="#000000" d="M700.2858,-440.6187C693.3805,-436.4773 685.5876,-432.2151 678.0844,-429 531.9053,-366.3617 346.1711,-324.8827 265.9511,-308.6708"/>
<polygon fill="#000000" stroke="#000000" points="266.2894,-305.1692 255.7972,-306.6403 264.9168,-312.0333 266.2894,-305.1692"/>
</g>
<!-- u4&#45;&gt;u6 -->
<g id="edge10" class="edge">
<title>u4&#45;&gt;u6</title>
<path fill="none" stroke="#000000" d="M919.7342,-437.0328C908.7803,-410.2565 888.0891,-359.6781 875.256,-328.3082"/>
<polygon fill="#000000" stroke="#000000" points="878.4136,-326.783 871.3878,-318.8527 871.9348,-329.4334 878.4136,-326.783"/>
</g>
<!-- u5 -->
<g id="node13" class="node">
<title>u5</title>
<ellipse fill="#bbbbff" stroke="#000000" stroke-width="0" cx="634.0844" cy="-455" rx="35.194" ry="18"/>
<text text-anchor="middle" x="634.0844" y="-451.3" font-family="Times,serif" font-size="14.00" fill="#000000">Import</text>
</g>
<!-- u5&#45;&gt;u6 -->
<g id="edge11" class="edge">
<title>u5&#45;&gt;u6</title>
<path fill="none" stroke="#000000" d="M655.7223,-440.5121C697.3244,-412.6567 788.4764,-351.6245 835.2074,-320.3351"/>
<polygon fill="#000000" stroke="#000000" points="837.3019,-323.1448 843.664,-314.6728 833.4073,-317.3282 837.3019,-323.1448"/>
</g>
<!-- u5&#45;&gt;u13 -->
<g id="edge28" class="edge">
<title>u5&#45;&gt;u13</title>
<path fill="none" stroke="#000000" d="M623.9696,-437.6706C602.585,-402.4115 549.4247,-321.7175 485.0844,-275 415.6335,-224.5717 319.431,-193.7563 261.7188,-178.5707"/>
<polygon fill="#000000" stroke="#000000" points="262.3108,-175.109 251.7538,-176.0036 260.5645,-181.8877 262.3108,-175.109"/>
</g>
<!-- u5&#45;&gt;u17 -->
<g id="edge37" class="edge">
<title>u5&#45;&gt;u17</title>
<path fill="none" stroke="#000000" d="M614.0277,-440.2199C608.1107,-436.2529 601.498,-432.1852 595.0844,-429 480.1321,-371.9111 333.4384,-329.267 264.7853,-310.9173"/>
<polygon fill="#000000" stroke="#000000" points="265.4071,-307.4613 254.8443,-308.2847 263.6151,-314.2281 265.4071,-307.4613"/>
</g>
<!-- u10&#45;&gt;u6 -->
<g id="edge15" class="edge">
<title>u10&#45;&gt;u6</title>
<path fill="none" stroke="#000000" d="M1317.2576,-441.0601C1308.6984,-436.8909 1299.1052,-432.502 1290.0844,-429 1150.5092,-374.8149 978.0049,-329.2861 902.5059,-310.3811"/>
<polygon fill="#000000" stroke="#000000" points="903.0594,-306.9122 892.51,-307.8921 901.368,-313.7048 903.0594,-306.9122"/>
</g>
<!-- u11&#45;&gt;u6 -->
<g id="edge16" class="edge">
<title>u11&#45;&gt;u6</title>
<path fill="none" stroke="#000000" d="M1422.2888,-440.5043C1413.7182,-436.4061 1404.1484,-432.1968 1395.0844,-429 1216.3715,-365.9702 993.1001,-323.3463 903.7371,-307.6779"/>
<polygon fill="#000000" stroke="#000000" points="904.2149,-304.2085 893.7632,-305.9439 903.0159,-311.1051 904.2149,-304.2085"/>
</g>
<!-- u12&#45;&gt;u6 -->
<g id="edge17" class="edge">
<title>u12&#45;&gt;u6</title>
<path fill="none" stroke="#000000" d="M1530.296,-440.5942C1522.4827,-436.3529 1513.6112,-432.0399 1505.0844,-429 1286.2192,-350.9715 1007.4042,-315.8774 904.5481,-304.9538"/>
<polygon fill="#000000" stroke="#000000" points="904.609,-301.4413 894.2997,-303.8841 903.8823,-308.4035 904.609,-301.4413"/>
</g>
<!-- u13&#45;&gt;u15 -->
<g id="edge35" class="edge">
<title>u13&#45;&gt;u15</title>
<path fill="none" stroke="#000000" d="M232.3167,-150.569C262.3039,-126.2157 318.5317,-80.5519 351.3906,-53.8665"/>
<polygon fill="#000000" stroke="#000000" points="353.6547,-56.5366 359.2108,-47.5155 349.2418,-51.1028 353.6547,-56.5366"/>
</g>
<!-- u13&#45;&gt;u6 -->
<g id="edge18" class="edge">
<title>u13&#45;&gt;u6</title>
<path fill="none" stroke="#000000" d="M252.5756,-175.3218C370.1054,-199.4767 710.2454,-269.3828 825.4258,-293.0548"/>
<polygon fill="#000000" stroke="#000000" points="824.7276,-296.4844 835.2275,-295.0693 826.1369,-289.6277 824.7276,-296.4844"/>
</g>
<!-- u17&#45;&gt;u13 -->
<g id="edge31" class="edge">
<title>u17&#45;&gt;u13</title>
<path fill="none" stroke="#000000" d="M224.1963,-282.9282C221.8479,-260.4503 217.8116,-221.8174 215.0489,-195.3748"/>
<polygon fill="#000000" stroke="#000000" points="218.5076,-194.7956 213.9873,-185.2135 211.5455,-195.5231 218.5076,-194.7956"/>
</g>
<!-- u18 -->
<g id="node19" class="node">
<title>u18</title>
<ellipse fill="#ffbbff" stroke="#000000" stroke-width="0" cx="1392.0844" cy="-909" rx="46.5926" ry="18"/>
<text text-anchor="middle" x="1392.0844" y="-905.3" font-family="Times,serif" font-size="14.00" fill="#000000">TrimDocs</text>
</g>
<!-- u19 -->
<g id="node20" class="node">
<title>u19</title>
<ellipse fill="#ffff77" stroke="#000000" stroke-width="0" cx="502.0844" cy="-909" rx="53.0913" ry="18"/>
<text text-anchor="middle" x="502.0844" y="-905.3" font-family="Times,serif" font-size="14.00" fill="#000000">UTF8String</text>
</g>
<!-- u19&#45;&gt;u22 -->
<g id="edge43" class="edge">
<title>u19&#45;&gt;u22</title>
<path fill="none" stroke="#000000" d="M502.0844,-890.8074C502.0844,-851.3751 502.0844,-757.7785 502.0844,-710.4496"/>
<polygon fill="#000000" stroke="#000000" points="505.5845,-710.2792 502.0844,-700.2793 498.5845,-710.2793 505.5845,-710.2792"/>
</g>
<!-- u20 -->
<g id="node21" class="node">
<title>u20</title>
<ellipse fill="#ff7777" stroke="#000000" stroke-width="0" cx="949.0844" cy="-682" rx="65.7887" ry="18"/>
<text text-anchor="middle" x="949.0844" y="-678.3" font-family="Times,serif" font-size="14.00" fill="#000000">StoredTimeline</text>
</g>
<!-- u21 -->
<g id="node22" class="node">
<title>u21</title>
<ellipse fill="#ff7777" stroke="#000000" stroke-width="0" cx="822.0844" cy="-682" rx="42.7926" ry="18"/>
<text text-anchor="middle" x="822.0844" y="-678.3" font-family="Times,serif" font-size="14.00" fill="#000000">Timeline</text>
</g>
<!-- u22&#45;&gt;u8 -->
<g id="edge22" class="edge">
<title>u22&#45;&gt;u8</title>
<path fill="none" stroke="#000000" d="M505.3703,-663.8074C512.5101,-624.2775 529.4813,-530.3148 538.0093,-483.099"/>
<polygon fill="#000000" stroke="#000000" points="541.5066,-483.4271 539.8398,-472.9642 534.618,-482.1828 541.5066,-483.4271"/>
</g>
<!-- u22&#45;&gt;u4 -->
<g id="edge5" class="edge">
<title>u22&#45;&gt;u4</title>
<path fill="none" stroke="#000000" d="M535.0572,-666.3869C547.5563,-660.5359 561.9407,-653.8829 575.0844,-648 691.2051,-596.0262 730.9081,-603.5458 838.0844,-535 862.3693,-519.4683 886.474,-497.2723 903.46,-480.1985"/>
<polygon fill="#000000" stroke="#000000" points="906.2486,-482.353 910.7385,-472.7566 901.2441,-477.4585 906.2486,-482.353"/>
</g>
<!-- u22&#45;&gt;u13 -->
<g id="edge32" class="edge">
<title>u22&#45;&gt;u13</title>
<path fill="none" stroke="#000000" d="M468.7425,-666.5107C392.7174,-631.0713 212.3577,-546.2607 203.0844,-535 128.28,-444.1638 123.9719,-389.0148 153.0844,-275 160.8084,-244.7503 178.9376,-213.8458 193.0769,-192.8898"/>
<polygon fill="#000000" stroke="#000000" points="196.0369,-194.7632 198.8504,-184.5487 190.2812,-190.7792 196.0369,-194.7632"/>
</g>
<!-- u22&#45;&gt;u17 -->
<g id="edge40" class="edge">
<title>u22&#45;&gt;u17</title>
<path fill="none" stroke="#000000" d="M469.4272,-666.3528C401.0276,-633.2647 247.8686,-557.4002 234.0844,-535 194.2604,-470.2834 208.3318,-375.3059 218.8221,-328.7714"/>
<polygon fill="#000000" stroke="#000000" points="222.281,-329.3536 221.1812,-318.816 215.4697,-327.7395 222.281,-329.3536"/>
</g>
<!-- u23 -->
<g id="node24" class="node">
<title>u23</title>
<ellipse fill="#ff7777" stroke="#000000" stroke-width="0" cx="615.0844" cy="-682" rx="30.5947" ry="18"/>
<text text-anchor="middle" x="615.0844" y="-678.3" font-family="Times,serif" font-size="14.00" fill="#000000">Index</text>
</g>
<!-- u24&#45;&gt;u9 -->
<g id="edge23" class="edge">
<title>u24&#45;&gt;u9</title>
<path fill="none" stroke="#000000" d="M686.9469,-666.4031C637.1518,-635.2653 528.0258,-565.7533 496.0844,-535 479.5111,-519.0432 464.1992,-498.0108 453.3293,-481.5164"/>
<polygon fill="#000000" stroke="#000000" points="456.1248,-479.3929 447.7677,-472.8807 450.2397,-483.1831 456.1248,-479.3929"/>
</g>
<!-- u24&#45;&gt;u2 -->
<g id="edge3" class="edge">
<title>u24&#45;&gt;u2</title>
<path fill="none" stroke="#000000" d="M737.1912,-666.5582C747.288,-660.5397 759.117,-653.7263 770.0844,-648 876.3808,-592.5011 918.3072,-605.8041 1015.0844,-535 1035.9494,-519.7347 1055.4604,-497.7888 1069.0525,-480.7425"/>
<polygon fill="#000000" stroke="#000000" points="1071.8418,-482.8573 1075.2296,-472.8186 1066.3211,-478.5535 1071.8418,-482.8573"/>
</g>
<!-- u24&#45;&gt;u13 -->
<g id="edge33" class="edge">
<title>u24&#45;&gt;u13</title>
<path fill="none" stroke="#000000" d="M688.7476,-666.0348C678.7257,-659.7275 666.6721,-652.8446 655.0844,-648 470.7924,-570.9513 356.1247,-681.2638 220.0844,-535 180.3997,-492.3329 179.2174,-332.8637 186.0844,-275 189.3657,-247.3503 197.2154,-216.5374 203.437,-194.9234"/>
<polygon fill="#000000" stroke="#000000" points="206.8606,-195.6877 206.3333,-185.106 200.1467,-193.7069 206.8606,-195.6877"/>
</g>
<!-- u24&#45;&gt;u17 -->
<g id="edge41" class="edge">
<title>u24&#45;&gt;u17</title>
<path fill="none" stroke="#000000" d="M688.6729,-666.2098C678.6389,-659.9307 666.5965,-653.0215 655.0844,-648 491.2375,-576.5313 388.8058,-667.7418 269.0844,-535 217.0035,-477.255 218.2681,-377.8917 222.5838,-329.3511"/>
<polygon fill="#000000" stroke="#000000" points="226.0814,-329.5483 223.5936,-319.2497 219.1161,-328.852 226.0814,-329.5483"/>
</g>
<!-- u25 -->
<g id="node26" class="node">
<title>u25</title>
<ellipse fill="#ff7777" stroke="#000000" stroke-width="0" cx="388.0844" cy="-682" rx="31.3957" ry="18"/>
<text text-anchor="middle" x="388.0844" y="-678.3" font-family="Times,serif" font-size="14.00" fill="#000000">Event</text>
</g>
<!-- u26 -->
<g id="node27" class="node">
<title>u26</title>
<ellipse fill="#ff7777" stroke="#000000" stroke-width="0" cx="288.0844" cy="-682" rx="50.8918" ry="18"/>
<text text-anchor="middle" x="288.0844" y="-678.3" font-family="Times,serif" font-size="14.00" fill="#000000">TimeSpace</text>
</g>
<!-- u27 -->
<g id="node28" class="node">
<title>u27</title>
<ellipse fill="#ff7777" stroke="#000000" stroke-width="0" cx="172.0844" cy="-682" rx="47.3916" ry="18"/>
<text text-anchor="middle" x="172.0844" y="-678.3" font-family="Times,serif" font-size="14.00" fill="#000000">TimeSpan</text>
</g>
</g>
</svg>
