<?xml version="1.0" encoding="UTF-8" standalone="no"?>
<!DOCTYPE svg PUBLIC "-//W3C//DTD SVG 1.1//EN"
 "http://www.w3.org/Graphics/SVG/1.1/DTD/svg11.dtd">
<!-- Generated by graphviz version 2.40.1 (20161225.0304)
 -->
<!-- Title: Modules Pages: 1 -->
<svg width="864pt" height="537pt"
 viewBox="0.00 0.00 864.00 536.80" xmlns="http://www.w3.org/2000/svg" xmlns:xlink="http://www.w3.org/1999/xlink">
<g id="graph0" class="graph" transform="scale(.466 .466) rotate(0) translate(4 1148)">
<title>Modules</title>
<polygon fill="#ffffff" stroke="transparent" points="-4,4 -4,-1148 1850.1864,-1148 1850.1864,4 -4,4"/>
<g id="clust1" class="cluster">
<title>cluster_0</title>
<polygon fill="#000000" fill-opacity="0.058824" stroke="#000000" stroke-opacity="0.058824" points="359.814,-269.643 359.814,-644.3674 1693.814,-644.3674 1693.814,-269.643 359.814,-269.643"/>
<text text-anchor="middle" x="1026.814" y="-629.1674" font-family="Times,serif" font-size="14.00" fill="#000000">Components</text>
</g>
<g id="clust2" class="cluster">
<title>cluster_1</title>
<polygon fill="#000000" fill-opacity="0.058824" stroke="#000000" stroke-opacity="0.058824" points="676.814,-434.2045 676.814,-582.9047 1370.814,-582.9047 1370.814,-434.2045 676.814,-434.2045"/>
<text text-anchor="middle" x="1023.814" y="-567.7047" font-family="Times,serif" font-size="14.00" fill="#000000">Dialogs</text>
</g>
<g id="clust3" class="cluster">
<title>cluster_2</title>
<polygon fill="#000000" fill-opacity="0.058824" stroke="#000000" stroke-opacity="0.058824" points="1378.814,-434.2045 1378.814,-582.9047 1685.814,-582.9047 1685.814,-434.2045 1378.814,-434.2045"/>
<text text-anchor="middle" x="1532.314" y="-567.7047" font-family="Times,serif" font-size="14.00" fill="#000000">Drawers</text>
</g>
<g id="clust4" class="cluster">
<title>cluster_3</title>
<polygon fill="#000000" fill-opacity="0.058824" stroke="#000000" stroke-opacity="0.058824" points="245.814,-126.8908 245.814,-418.3432 351.814,-418.3432 351.814,-126.8908 245.814,-126.8908"/>
<text text-anchor="middle" x="298.814" y="-403.1432" font-family="Times,serif" font-size="14.00" fill="#000000">Plumbing</text>
</g>
<g id="clust5" class="cluster">
<title>cluster_4</title>
<polygon fill="#000000" fill-opacity="0.058824" stroke="#000000" stroke-opacity="0.058824" points="1328.814,-917.9757 1328.814,-1066.6759 1438.814,-1066.6759 1438.814,-917.9757 1328.814,-917.9757"/>
<text text-anchor="middle" x="1383.814" y="-1051.4759" font-family="Times,serif" font-size="14.00" fill="#000000">Scripts</text>
</g>
<g id="clust6" class="cluster">
<title>cluster_5</title>
<polygon fill="#000000" fill-opacity="0.058824" stroke="#000000" stroke-opacity="0.058824" points="622.814,-902.1144 622.814,-1128.1386 760.814,-1128.1386 760.814,-902.1144 622.814,-902.1144"/>
<text text-anchor="middle" x="691.814" y="-1112.9386" font-family="Times,serif" font-size="14.00" fill="#000000">Test</text>
</g>
<g id="clust7" class="cluster">
<title>cluster_6</title>
<polygon fill="#000000" fill-opacity="0.058824" stroke="#000000" stroke-opacity="0.058824" points="630.814,-917.9757 630.814,-1066.6759 752.814,-1066.6759 752.814,-917.9757 630.814,-917.9757"/>
<text text-anchor="middle" x="691.814" y="-1051.4759" font-family="Times,serif" font-size="14.00" fill="#000000">QuickCheck</text>
</g>
<g id="clust8" class="cluster">
<title>cluster_7</title>
<polygon fill="#000000" fill-opacity="0.058824" stroke="#000000" stroke-opacity="0.058824" points="85.814,-660.2288 85.814,-886.253 1006.814,-886.253 1006.814,-660.2288 85.814,-660.2288"/>
<text text-anchor="middle" x="546.314" y="-871.053" font-family="Times,serif" font-size="14.00" fill="#000000">Timeline</text>
</g>
<g id="clust9" class="cluster">
<title>cluster_8</title>
<polygon fill="#000000" fill-opacity="0.058824" stroke="#000000" stroke-opacity="0.058824" points="93.814,-676.0901 93.814,-824.7903 998.814,-824.7903 998.814,-676.0901 93.814,-676.0901"/>
<text text-anchor="middle" x="546.314" y="-809.5903" font-family="Times,serif" font-size="14.00" fill="#000000">Data</text>
</g>
<!-- u13 -->
<g id="node1" class="node">
<title>u13</title>
<ellipse fill="#bbffbb" stroke="#000000" stroke-width="0" cx="1024.814" cy="-970" rx="38.9931" ry="18"/>
<text text-anchor="middle" x="1024.814" y="-966.3" font-family="Times,serif" font-size="14.00" fill="#000000">Settings</text>
</g>
<!-- u7 -->
<g id="node5" class="node">
<title>u7</title>
<ellipse fill="#ffffbb" stroke="#000000" stroke-width="0" cx="510.814" cy="-486" rx="37.8943" ry="18"/>
<text text-anchor="middle" x="510.814" y="-482.3" font-family="Times,serif" font-size="14.00" fill="#000000">TopBar</text>
</g>
<!-- u13&#45;&gt;u7 -->
<g id="edge7" class="edge">
<title>u13&#45;&gt;u7</title>
<path fill="none" stroke="#000000" d="M1025.945,-951.8393C1028.9844,-896.8408 1035.0555,-733.4546 1002.814,-694 872.5912,-534.6437 720.411,-692.1531 557.814,-566 540.5788,-552.6278 528.426,-531.0166 520.8015,-513.6251"/>
<polygon fill="#000000" stroke="#000000" points="523.8706,-511.8854 516.8314,-503.967 517.3963,-514.5468 523.8706,-511.8854"/>
</g>
<!-- u8 -->
<g id="node6" class="node">
<title>u8</title>
<ellipse fill="#ffffbb" stroke="#000000" stroke-width="0" cx="1019.814" cy="-321" rx="30.5947" ry="18"/>
<text text-anchor="middle" x="1019.814" y="-317.3" font-family="Times,serif" font-size="14.00" fill="#000000">Index</text>
</g>
<!-- u13&#45;&gt;u8 -->
<g id="edge21" class="edge">
<title>u13&#45;&gt;u8</title>
<path fill="none" stroke="#000000" d="M1060.668,-962.8531C1241.8236,-925.2635 2038.6945,-741.4425 1802.814,-460 1706.3457,-344.8981 1208.3531,-325.043 1060.9583,-321.6753"/>
<polygon fill="#000000" stroke="#000000" points="1060.636,-318.1677 1050.5632,-321.4523 1060.4857,-325.1661 1060.636,-318.1677"/>
</g>
<!-- u2 -->
<g id="node9" class="node">
<title>u2</title>
<ellipse fill="#bbbbff" stroke="#000000" stroke-width="0" cx="1308.814" cy="-486" rx="53.8905" ry="18"/>
<text text-anchor="middle" x="1308.814" y="-482.3" font-family="Times,serif" font-size="14.00" fill="#000000">SettingsEdit</text>
</g>
<!-- u13&#45;&gt;u2 -->
<g id="edge2" class="edge">
<title>u13&#45;&gt;u2</title>
<path fill="none" stroke="#000000" d="M1035.0895,-952.4882C1077.8343,-879.6414 1241.7308,-600.3247 1293.232,-512.5552"/>
<polygon fill="#000000" stroke="#000000" points="1296.3605,-514.1393 1298.4027,-503.7431 1290.3231,-510.5966 1296.3605,-514.1393"/>
</g>
<!-- u3 -->
<g id="node10" class="node">
<title>u3</title>
<ellipse fill="#bbbbff" stroke="#000000" stroke-width="0" cx="939.814" cy="-486" rx="79.0865" ry="18"/>
<text text-anchor="middle" x="939.814" y="-482.3" font-family="Times,serif" font-size="14.00" fill="#000000">TimelineNameEdit</text>
</g>
<!-- u13&#45;&gt;u3 -->
<g id="edge3" class="edge">
<title>u13&#45;&gt;u3</title>
<path fill="none" stroke="#000000" d="M1029.0526,-951.9539C1038.7892,-907.4668 1060.3226,-789.2372 1038.814,-694 1023.0723,-624.2981 981.0779,-550.5688 957.1454,-512.3884"/>
<polygon fill="#000000" stroke="#000000" points="960.077,-510.4758 951.7606,-503.9116 954.1683,-514.2292 960.077,-510.4758"/>
</g>
<!-- u4 -->
<g id="node11" class="node">
<title>u4</title>
<ellipse fill="#bbbbff" stroke="#000000" stroke-width="0" cx="1100.814" cy="-486" rx="63.8893" ry="18"/>
<text text-anchor="middle" x="1100.814" y="-482.3" font-family="Times,serif" font-size="14.00" fill="#000000">TimeScaleEdit</text>
</g>
<!-- u13&#45;&gt;u4 -->
<g id="edge5" class="edge">
<title>u13&#45;&gt;u4</title>
<path fill="none" stroke="#000000" d="M1032.1823,-951.9062C1043.859,-922.3532 1066.3596,-861.6367 1076.814,-808 1097.6262,-701.2221 1100.6763,-571.2943 1100.934,-514.6744"/>
<polygon fill="#000000" stroke="#000000" points="1104.4344,-514.3628 1100.9527,-504.3565 1097.4344,-514.3501 1104.4344,-514.3628"/>
</g>
<!-- u14 -->
<g id="node17" class="node">
<title>u14</title>
<ellipse fill="#bbffbb" stroke="#000000" stroke-width="2" cx="298.814" cy="-178" rx="45.4919" ry="18"/>
<text text-anchor="middle" x="298.814" y="-174.3" font-family="Times,serif" font-size="14.00" fill="#000000">Plumbing</text>
</g>
<!-- u13&#45;&gt;u14 -->
<g id="edge27" class="edge">
<title>u13&#45;&gt;u14</title>
<path fill="none" stroke="#000000" d="M987.0511,-965.1066C811.3461,-942.1655 81.0346,-844.8361 49.814,-808 -116.4157,-611.8717 182.8169,-291.3136 273.7854,-201.8468"/>
<polygon fill="#000000" stroke="#000000" points="276.2357,-204.346 280.9487,-194.8572 271.347,-199.3359 276.2357,-204.346"/>
</g>
<!-- u25 -->
<g id="node18" class="node">
<title>u25</title>
<ellipse fill="#bbffff" stroke="#000000" stroke-width="0" cx="312.814" cy="-321" rx="31.3957" ry="18"/>
<text text-anchor="middle" x="312.814" y="-317.3" font-family="Times,serif" font-size="14.00" fill="#000000">Logic</text>
</g>
<!-- u13&#45;&gt;u25 -->
<g id="edge39" class="edge">
<title>u13&#45;&gt;u25</title>
<path fill="none" stroke="#000000" d="M987.1808,-964.8519C816.1988,-941.2902 119.5836,-843.3712 89.814,-808 -38.7045,-655.2994 205.0231,-416.3308 287.1551,-343.0813"/>
<polygon fill="#000000" stroke="#000000" points="289.8459,-345.3744 295.0238,-336.131 285.2118,-340.128 289.8459,-345.3744"/>
</g>
<!-- u18 -->
<g id="node22" class="node">
<title>u18</title>
<ellipse fill="#ff7777" stroke="#000000" stroke-width="0" cx="822.814" cy="-728" rx="48.9926" ry="18"/>
<text text-anchor="middle" x="822.814" y="-724.3" font-family="Times,serif" font-size="14.00" fill="#000000">TimeScale</text>
</g>
<!-- u13&#45;&gt;u18 -->
<g id="edge33" class="edge">
<title>u13&#45;&gt;u18</title>
<path fill="none" stroke="#000000" d="M1008.9381,-953.5123C981.5585,-924.8091 924.134,-863.4192 879.814,-808 865.7944,-790.4695 851.1229,-769.8171 840.1761,-753.8875"/>
<polygon fill="#000000" stroke="#000000" points="843.0317,-751.8627 834.5055,-745.5735 837.2487,-755.807 843.0317,-751.8627"/>
</g>
<!-- u19 -->
<g id="node23" class="node">
<title>u19</title>
<ellipse fill="#ff7777" stroke="#000000" stroke-width="0" cx="691.814" cy="-728" rx="64.189" ry="18"/>
<text text-anchor="middle" x="691.814" y="-724.3" font-family="Times,serif" font-size="14.00" fill="#000000">TimelineName</text>
</g>
<!-- u13&#45;&gt;u19 -->
<g id="edge34" class="edge">
<title>u13&#45;&gt;u19</title>
<path fill="none" stroke="#000000" d="M998.1404,-956.5406C949.1915,-931.1791 842.8881,-872.9862 764.814,-808 745.3704,-791.8159 726.2003,-770.5455 712.387,-754.0057"/>
<polygon fill="#000000" stroke="#000000" points="714.7309,-751.345 705.6788,-745.8396 709.322,-755.7884 714.7309,-751.345"/>
</g>
<!-- u16 -->
<g id="node2" class="node">
<title>u16</title>
<ellipse fill="#bbffbb" stroke="#000000" stroke-width="0" cx="476.814" cy="-36" rx="29.795" ry="18"/>
<text text-anchor="middle" x="476.814" y="-32.3" font-family="Times,serif" font-size="14.00" fill="#000000">Main</text>
</g>
<!-- u26 -->
<g id="node3" class="node">
<title>u26</title>
<ellipse fill="#bbffbb" stroke="#000000" stroke-width="0" cx="1747.814" cy="-486" rx="46.2923" ry="18"/>
<text text-anchor="middle" x="1747.814" y="-482.3" font-family="Times,serif" font-size="14.00" fill="#000000">WithRoot</text>
</g>
<!-- u26&#45;&gt;u8 -->
<g id="edge23" class="edge">
<title>u26&#45;&gt;u8</title>
<path fill="none" stroke="#000000" d="M1719.387,-471.7791C1710.1242,-467.5477 1699.6828,-463.1938 1689.814,-460 1457.0644,-384.6759 1165.2294,-340.5916 1059.9709,-326.2279"/>
<polygon fill="#000000" stroke="#000000" points="1060.1749,-322.7238 1049.7963,-324.8532 1059.2375,-329.6607 1060.1749,-322.7238"/>
</g>
<!-- u0 -->
<g id="node4" class="node">
<title>u0</title>
<ellipse fill="#ffffbb" stroke="#000000" stroke-width="0" cx="616.814" cy="-486" rx="50.0912" ry="18"/>
<text text-anchor="middle" x="616.814" y="-482.3" font-family="Times,serif" font-size="14.00" fill="#000000">BottomBar</text>
</g>
<!-- u0&#45;&gt;u8 -->
<g id="edge9" class="edge">
<title>u0&#45;&gt;u8</title>
<path fill="none" stroke="#000000" d="M647.1972,-471.5328C655.4667,-467.694 664.4501,-463.6137 672.814,-460 785.6285,-411.2571 921.4151,-358.5673 984.4567,-334.4414"/>
<polygon fill="#000000" stroke="#000000" points="985.8433,-337.6585 993.9353,-330.8196 983.3447,-331.1196 985.8433,-337.6585"/>
</g>
<!-- u7&#45;&gt;u8 -->
<g id="edge16" class="edge">
<title>u7&#45;&gt;u8</title>
<path fill="none" stroke="#000000" d="M534.2329,-471.7615C541.6144,-467.6259 549.9081,-463.3311 557.814,-460 709.435,-396.1153 900.3835,-348.4313 981.0385,-329.6989"/>
<polygon fill="#000000" stroke="#000000" points="982.2632,-333.0085 991.2217,-327.352 980.6911,-326.1873 982.2632,-333.0085"/>
</g>
<!-- u8&#45;&gt;u16 -->
<g id="edge31" class="edge">
<title>u8&#45;&gt;u16</title>
<path fill="none" stroke="#000000" d="M996.8288,-308.9359C910.7863,-263.7755 607.5915,-104.6401 508.4465,-52.6027"/>
<polygon fill="#000000" stroke="#000000" points="509.9841,-49.457 499.503,-47.9086 506.7309,-55.6551 509.9841,-49.457"/>
</g>
<!-- u9 -->
<g id="node7" class="node">
<title>u9</title>
<ellipse fill="#ffffbb" stroke="#000000" stroke-width="0" cx="411.814" cy="-486" rx="43.5923" ry="18"/>
<text text-anchor="middle" x="411.814" y="-482.3" font-family="Times,serif" font-size="14.00" fill="#000000">Snackbar</text>
</g>
<!-- u9&#45;&gt;u8 -->
<g id="edge17" class="edge">
<title>u9&#45;&gt;u8</title>
<path fill="none" stroke="#000000" d="M438.0376,-471.4917C446.1388,-467.3931 455.1995,-463.1867 463.814,-460 651.6114,-390.5292 887.7406,-344.3841 980.1605,-327.8224"/>
<polygon fill="#000000" stroke="#000000" points="980.961,-331.235 990.1946,-326.0397 979.7365,-324.343 980.961,-331.235"/>
</g>
<!-- u9&#45;&gt;u14 -->
<g id="edge26" class="edge">
<title>u9&#45;&gt;u14</title>
<path fill="none" stroke="#000000" d="M407.1379,-468.0897C398.0361,-433.9458 376.7239,-357.3834 352.814,-295 340.7104,-263.4205 324.0712,-228.3385 312.4738,-204.9026"/>
<polygon fill="#000000" stroke="#000000" points="315.5881,-203.3047 307.9924,-195.9186 309.3242,-206.4294 315.5881,-203.3047"/>
</g>
<!-- u9&#45;&gt;u25 -->
<g id="edge38" class="edge">
<title>u9&#45;&gt;u25</title>
<path fill="none" stroke="#000000" d="M401.2192,-468.3421C383.7108,-439.1615 348.6599,-380.7432 328.3473,-346.889"/>
<polygon fill="#000000" stroke="#000000" points="331.1821,-344.8106 323.0358,-338.0364 325.1796,-348.4121 331.1821,-344.8106"/>
</g>
<!-- u1 -->
<g id="node8" class="node">
<title>u1</title>
<ellipse fill="#bbbbff" stroke="#000000" stroke-width="0" cx="719.814" cy="-486" rx="35.194" ry="18"/>
<text text-anchor="middle" x="719.814" y="-482.3" font-family="Times,serif" font-size="14.00" fill="#000000">Import</text>
</g>
<!-- u1&#45;&gt;u8 -->
<g id="edge10" class="edge">
<title>u1&#45;&gt;u8</title>
<path fill="none" stroke="#000000" d="M743.1068,-472.3949C750.0687,-468.3684 757.7328,-463.9748 764.814,-460 844.574,-415.2288 939.3408,-364.1116 987.7956,-338.1235"/>
<polygon fill="#000000" stroke="#000000" points="989.6903,-341.0791 996.8509,-333.2703 986.3836,-334.9093 989.6903,-341.0791"/>
</g>
<!-- u1&#45;&gt;u14 -->
<g id="edge24" class="edge">
<title>u1&#45;&gt;u14</title>
<path fill="none" stroke="#000000" d="M710.3292,-468.5865C689.5498,-431.8736 636.5706,-345.7463 570.814,-295 501.71,-241.6705 404.6085,-207.6118 347.0543,-190.7225"/>
<polygon fill="#000000" stroke="#000000" points="347.7078,-187.2685 337.1298,-187.8655 345.7713,-193.9953 347.7078,-187.2685"/>
</g>
<!-- u1&#45;&gt;u25 -->
<g id="edge36" class="edge">
<title>u1&#45;&gt;u25</title>
<path fill="none" stroke="#000000" d="M699.2959,-471.0619C693.4827,-467.1815 687.0388,-463.1979 680.814,-460 565.5411,-400.7801 418.9636,-352.9803 350.8263,-332.2085"/>
<polygon fill="#000000" stroke="#000000" points="351.553,-328.7717 340.9679,-329.2254 349.5255,-335.4717 351.553,-328.7717"/>
</g>
<!-- u2&#45;&gt;u8 -->
<g id="edge11" class="edge">
<title>u2&#45;&gt;u8</title>
<path fill="none" stroke="#000000" d="M1281.365,-470.3284C1227.3109,-439.4671 1107.4138,-371.0137 1050.6951,-338.6311"/>
<polygon fill="#000000" stroke="#000000" points="1052.2518,-335.4896 1041.8321,-333.5709 1048.7811,-341.5686 1052.2518,-335.4896"/>
</g>
<!-- u3&#45;&gt;u8 -->
<g id="edge12" class="edge">
<title>u3&#45;&gt;u8</title>
<path fill="none" stroke="#000000" d="M948.5277,-468.028C962.6075,-438.9883 990.4371,-381.5898 1006.85,-347.7382"/>
<polygon fill="#000000" stroke="#000000" points="1010.1391,-348.9769 1011.3525,-338.4518 1003.8404,-345.9229 1010.1391,-348.9769"/>
</g>
<!-- u4&#45;&gt;u8 -->
<g id="edge13" class="edge">
<title>u4&#45;&gt;u8</title>
<path fill="none" stroke="#000000" d="M1091.9913,-468.028C1077.7355,-438.9883 1049.5581,-381.5898 1032.94,-347.7382"/>
<polygon fill="#000000" stroke="#000000" points="1035.9298,-345.8861 1028.3812,-338.4518 1029.6461,-348.9708 1035.9298,-345.8861"/>
</g>
<!-- u5 -->
<g id="node12" class="node">
<title>u5</title>
<ellipse fill="#bbbbff" stroke="#000000" stroke-width="0" cx="807.814" cy="-486" rx="34.394" ry="18"/>
<text text-anchor="middle" x="807.814" y="-482.3" font-family="Times,serif" font-size="14.00" fill="#000000">Export</text>
</g>
<!-- u5&#45;&gt;u8 -->
<g id="edge14" class="edge">
<title>u5&#45;&gt;u8</title>
<path fill="none" stroke="#000000" d="M827.3784,-470.7729C865.5294,-441.08 949.9021,-375.4125 993.1368,-341.7629"/>
<polygon fill="#000000" stroke="#000000" points="995.4675,-344.3841 1001.2094,-335.48 991.1681,-338.86 995.4675,-344.3841"/>
</g>
<!-- u5&#45;&gt;u14 -->
<g id="edge25" class="edge">
<title>u5&#45;&gt;u14</title>
<path fill="none" stroke="#000000" d="M795.2871,-468.991C767.4545,-432.3034 696.7446,-345.0164 618.814,-295 531.8673,-239.1971 414.6103,-205.0778 348.8722,-189.0291"/>
<polygon fill="#000000" stroke="#000000" points="349.317,-185.5367 338.7765,-186.608 347.6846,-192.3437 349.317,-185.5367"/>
</g>
<!-- u5&#45;&gt;u25 -->
<g id="edge37" class="edge">
<title>u5&#45;&gt;u25</title>
<path fill="none" stroke="#000000" d="M785.9692,-471.7247C779.062,-467.5876 771.2797,-463.3012 763.814,-460 617.517,-395.3095 432.0556,-348.4454 352.254,-329.8424"/>
<polygon fill="#000000" stroke="#000000" points="352.6887,-326.3507 342.1573,-327.5086 351.1121,-333.1709 352.6887,-326.3507"/>
</g>
<!-- u6 -->
<g id="node13" class="node">
<title>u6</title>
<ellipse fill="#bbbbff" stroke="#000000" stroke-width="0" cx="1209.814" cy="-486" rx="27.0966" ry="18"/>
<text text-anchor="middle" x="1209.814" y="-482.3" font-family="Times,serif" font-size="14.00" fill="#000000">New</text>
</g>
<!-- u6&#45;&gt;u8 -->
<g id="edge15" class="edge">
<title>u6&#45;&gt;u8</title>
<path fill="none" stroke="#000000" d="M1193.2851,-471.646C1159.9065,-442.6593 1084.2848,-376.9879 1044.829,-342.7235"/>
<polygon fill="#000000" stroke="#000000" points="1046.8319,-339.8274 1036.9866,-335.9131 1042.2421,-345.1126 1046.8319,-339.8274"/>
</g>
<!-- u10 -->
<g id="node14" class="node">
<title>u10</title>
<ellipse fill="#ffbbbb" stroke="#000000" stroke-width="0" cx="1637.814" cy="-486" rx="39.7935" ry="18"/>
<text text-anchor="middle" x="1637.814" y="-482.3" font-family="Times,serif" font-size="14.00" fill="#000000">Siblings</text>
</g>
<!-- u10&#45;&gt;u8 -->
<g id="edge18" class="edge">
<title>u10&#45;&gt;u8</title>
<path fill="none" stroke="#000000" d="M1613.973,-471.5202C1606.4374,-467.3748 1597.9499,-463.1351 1589.814,-460 1397.8879,-386.0427 1154.0926,-342.2746 1059.6702,-327.0853"/>
<polygon fill="#000000" stroke="#000000" points="1060.1174,-323.6125 1049.6916,-325.4975 1059.0173,-330.5255 1060.1174,-323.6125"/>
</g>
<!-- u11 -->
<g id="node15" class="node">
<title>u11</title>
<ellipse fill="#ffbbbb" stroke="#000000" stroke-width="0" cx="1538.814" cy="-486" rx="41.6928" ry="18"/>
<text text-anchor="middle" x="1538.814" y="-482.3" font-family="Times,serif" font-size="14.00" fill="#000000">Children</text>
</g>
<!-- u11&#45;&gt;u8 -->
<g id="edge19" class="edge">
<title>u11&#45;&gt;u8</title>
<path fill="none" stroke="#000000" d="M1513.032,-471.7018C1505.0844,-467.6105 1496.2125,-463.3553 1487.814,-460 1332.701,-398.0306 1139.0629,-349.0981 1058.1347,-329.8542"/>
<polygon fill="#000000" stroke="#000000" points="1058.9182,-326.443 1048.3812,-327.5492 1057.3082,-333.2553 1058.9182,-326.443"/>
</g>
<!-- u12 -->
<g id="node16" class="node">
<title>u12</title>
<ellipse fill="#ffbbbb" stroke="#000000" stroke-width="0" cx="1432.814" cy="-486" rx="46.2923" ry="18"/>
<text text-anchor="middle" x="1432.814" y="-482.3" font-family="Times,serif" font-size="14.00" fill="#000000">Timelines</text>
</g>
<!-- u12&#45;&gt;u8 -->
<g id="edge20" class="edge">
<title>u12&#45;&gt;u8</title>
<path fill="none" stroke="#000000" d="M1402.8311,-472.2284C1393.8591,-468.1972 1383.9718,-463.8428 1374.814,-460 1258.948,-411.3797 1119.7016,-358.4296 1055.4705,-334.3096"/>
<polygon fill="#000000" stroke="#000000" points="1056.4132,-330.9251 1045.821,-330.6911 1053.9554,-337.4795 1056.4132,-330.9251"/>
</g>
<!-- u14&#45;&gt;u16 -->
<g id="edge32" class="edge">
<title>u14&#45;&gt;u16</title>
<path fill="none" stroke="#000000" d="M319.2328,-161.7108C351.6964,-135.8129 415.049,-85.2732 450.7451,-56.7965"/>
<polygon fill="#000000" stroke="#000000" points="453.1322,-59.3695 458.7668,-50.3972 448.7668,-53.8974 453.1322,-59.3695"/>
</g>
<!-- u14&#45;&gt;u8 -->
<g id="edge22" class="edge">
<title>u14&#45;&gt;u8</title>
<path fill="none" stroke="#000000" d="M339.9238,-186.1535C467.5681,-211.47 855.9862,-288.5071 980.7697,-313.2561"/>
<polygon fill="#000000" stroke="#000000" points="980.167,-316.7047 990.6569,-315.2171 981.5289,-309.8385 980.167,-316.7047"/>
</g>
<!-- u25&#45;&gt;u14 -->
<g id="edge30" class="edge">
<title>u25&#45;&gt;u14</title>
<path fill="none" stroke="#000000" d="M311.0409,-302.889C308.666,-278.6315 304.4263,-235.3263 301.6168,-206.6289"/>
<polygon fill="#000000" stroke="#000000" points="305.0747,-206.027 300.6169,-196.4157 298.108,-206.7092 305.0747,-206.027"/>
</g>
<!-- u27 -->
<g id="node19" class="node">
<title>u27</title>
<ellipse fill="#ffbbff" stroke="#000000" stroke-width="0" cx="1383.814" cy="-970" rx="46.5926" ry="18"/>
<text text-anchor="middle" x="1383.814" y="-966.3" font-family="Times,serif" font-size="14.00" fill="#000000">TrimDocs</text>
</g>
<!-- u15 -->
<g id="node20" class="node">
<title>u15</title>
<ellipse fill="#ffff77" stroke="#000000" stroke-width="0" cx="691.814" cy="-970" rx="53.0913" ry="18"/>
<text text-anchor="middle" x="691.814" y="-966.3" font-family="Times,serif" font-size="14.00" fill="#000000">UTF8String</text>
</g>
<!-- u15&#45;&gt;u19 -->
<g id="edge35" class="edge">
<title>u15&#45;&gt;u19</title>
<path fill="none" stroke="#000000" d="M691.814,-951.8107C691.814,-909.926 691.814,-806.4234 691.814,-756.216"/>
<polygon fill="#000000" stroke="#000000" points="695.3141,-756.0703 691.814,-746.0703 688.3141,-756.0703 695.3141,-756.0703"/>
</g>
<!-- u17 -->
<g id="node21" class="node">
<title>u17</title>
<ellipse fill="#ff7777" stroke="#000000" stroke-width="0" cx="939.814" cy="-728" rx="50.8918" ry="18"/>
<text text-anchor="middle" x="939.814" y="-724.3" font-family="Times,serif" font-size="14.00" fill="#000000">TimeSpace</text>
</g>
<!-- u18&#45;&gt;u0 -->
<g id="edge1" class="edge">
<title>u18&#45;&gt;u0</title>
<path fill="none" stroke="#000000" d="M805.3426,-710.7329C776.4786,-681.8637 717.5786,-621.488 672.814,-566 658.8025,-548.6321 644.3951,-527.9751 633.703,-512.0027"/>
<polygon fill="#000000" stroke="#000000" points="636.6152,-510.0611 628.1713,-503.6617 630.7815,-513.93 636.6152,-510.0611"/>
</g>
<!-- u18&#45;&gt;u4 -->
<g id="edge6" class="edge">
<title>u18&#45;&gt;u4</title>
<path fill="none" stroke="#000000" d="M845.624,-711.8626C884.5375,-683.9276 965.5781,-623.9719 1027.814,-566 1046.2079,-548.8663 1065.2996,-527.8093 1079.3436,-511.5999"/>
<polygon fill="#000000" stroke="#000000" points="1082.3419,-513.4803 1086.197,-503.6118 1077.0292,-508.9223 1082.3419,-513.4803"/>
</g>
<!-- u18&#45;&gt;u14 -->
<g id="edge28" class="edge">
<title>u18&#45;&gt;u14</title>
<path fill="none" stroke="#000000" d="M798.9689,-712.2065C788.7552,-705.9269 776.505,-699.0181 764.814,-694 576.0942,-612.9961 463.0617,-714.1296 320.814,-566 224.8271,-466.0441 268.7056,-276.7116 289.8021,-205.7691"/>
<polygon fill="#000000" stroke="#000000" points="293.1552,-206.7723 292.73,-196.186 286.4607,-204.7269 293.1552,-206.7723"/>
</g>
<!-- u18&#45;&gt;u25 -->
<g id="edge40" class="edge">
<title>u18&#45;&gt;u25</title>
<path fill="none" stroke="#000000" d="M798.6302,-712.1646C788.4646,-705.9514 776.3408,-699.1028 764.814,-694 590.6455,-616.8972 481.4965,-709.1202 355.814,-566 327.8391,-534.1438 317.4815,-407.0319 314.1734,-349.5213"/>
<polygon fill="#000000" stroke="#000000" points="317.6562,-349.1086 313.6188,-339.3132 310.6665,-349.4884 317.6562,-349.1086"/>
</g>
<!-- u19&#45;&gt;u7 -->
<g id="edge8" class="edge">
<title>u19&#45;&gt;u7</title>
<path fill="none" stroke="#000000" d="M675.5503,-710.2906C649.2845,-681.2772 596.559,-621.3024 557.814,-566 545.7606,-548.7957 533.7913,-528.3601 524.948,-512.4496"/>
<polygon fill="#000000" stroke="#000000" points="528.0054,-510.7455 520.1255,-503.6632 521.8689,-514.1136 528.0054,-510.7455"/>
</g>
<!-- u19&#45;&gt;u3 -->
<g id="edge4" class="edge">
<title>u19&#45;&gt;u3</title>
<path fill="none" stroke="#000000" d="M709.6495,-710.596C753.0675,-668.2284 864.3666,-559.622 914.5749,-510.6284"/>
<polygon fill="#000000" stroke="#000000" points="917.0941,-513.0605 921.8068,-503.5715 912.2053,-508.0505 917.0941,-513.0605"/>
</g>
<!-- u19&#45;&gt;u14 -->
<g id="edge29" class="edge">
<title>u19&#45;&gt;u14</title>
<path fill="none" stroke="#000000" d="M659.8065,-712.1618C647.1718,-706.1559 632.4423,-699.4558 618.814,-694 453.7573,-627.923 343.4853,-710.4373 239.814,-566 169.5821,-468.1514 211.9415,-412.175 239.814,-295 247.7612,-261.5901 266.852,-226.8981 281.1803,-204.054"/>
<polygon fill="#000000" stroke="#000000" points="284.1415,-205.9201 286.5973,-195.6138 278.2504,-202.1391 284.1415,-205.9201"/>
</g>
<!-- u19&#45;&gt;u25 -->
<g id="edge41" class="edge">
<title>u19&#45;&gt;u25</title>
<path fill="none" stroke="#000000" d="M658.822,-712.4296C646.3207,-706.5835 631.9398,-699.9228 618.814,-694 489.2839,-635.5523 406.7516,-682.8044 325.814,-566 279.9326,-499.7868 294.7471,-397.6917 305.6184,-348.8682"/>
<polygon fill="#000000" stroke="#000000" points="309.0532,-349.5509 307.9223,-339.0166 302.237,-347.9569 309.0532,-349.5509"/>
</g>
<!-- u20 -->
<g id="node24" class="node">
<title>u20</title>
<ellipse fill="#ff7777" stroke="#000000" stroke-width="0" cx="578.814" cy="-728" rx="30.5947" ry="18"/>
<text text-anchor="middle" x="578.814" y="-724.3" font-family="Times,serif" font-size="14.00" fill="#000000">Index</text>
</g>
<!-- u21 -->
<g id="node25" class="node">
<title>u21</title>
<ellipse fill="#ff7777" stroke="#000000" stroke-width="0" cx="464.814" cy="-728" rx="65.7887" ry="18"/>
<text text-anchor="middle" x="464.814" y="-724.3" font-family="Times,serif" font-size="14.00" fill="#000000">StoredTimeline</text>
</g>
<!-- u22 -->
<g id="node26" class="node">
<title>u22</title>
<ellipse fill="#ff7777" stroke="#000000" stroke-width="0" cx="349.814" cy="-728" rx="31.3957" ry="18"/>
<text text-anchor="middle" x="349.814" y="-724.3" font-family="Times,serif" font-size="14.00" fill="#000000">Event</text>
</g>
<!-- u23 -->
<g id="node27" class="node">
<title>u23</title>
<ellipse fill="#ff7777" stroke="#000000" stroke-width="0" cx="252.814" cy="-728" rx="47.3916" ry="18"/>
<text text-anchor="middle" x="252.814" y="-724.3" font-family="Times,serif" font-size="14.00" fill="#000000">TimeSpan</text>
</g>
<!-- u24 -->
<g id="node28" class="node">
<title>u24</title>
<ellipse fill="#ff7777" stroke="#000000" stroke-width="0" cx="144.814" cy="-728" rx="42.7926" ry="18"/>
<text text-anchor="middle" x="144.814" y="-724.3" font-family="Times,serif" font-size="14.00" fill="#000000">Timeline</text>
</g>
</g>
</svg>
