<?xml version="1.0" encoding="UTF-8" standalone="no"?>
<!DOCTYPE svg PUBLIC "-//W3C//DTD SVG 1.1//EN"
 "http://www.w3.org/Graphics/SVG/1.1/DTD/svg11.dtd">
<!-- Generated by graphviz version 2.40.1 (20161225.0304)
 -->
<!-- Title: SignalsAndQueues Pages: 1 -->
<svg width="2510pt" height="1490pt"
 viewBox="0.00 0.00 2509.63 1490.45" xmlns="http://www.w3.org/2000/svg" xmlns:xlink="http://www.w3.org/1999/xlink">
<g id="graph0" class="graph" transform="scale(1 1) rotate(0) translate(4 1486.4454)">
<title>SignalsAndQueues</title>
<polygon fill="#ffffff" stroke="transparent" points="-4,4 -4,-1486.4454 2505.6255,-1486.4454 2505.6255,4 -4,4"/>
<g id="clust1" class="cluster">
<title>cluster_1</title>
<polygon fill="#000000" fill-opacity="0.058824" stroke="#000000" stroke-opacity="0.058824" points="969.8741,-701.4454 969.8741,-938.4454 1344.715,-938.4454 1344.715,-701.4454 969.8741,-701.4454"/>
<text text-anchor="middle" x="1157.2945" y="-923.2454" font-family="Times,serif" font-size="14.00" fill="#000000">Signals</text>
</g>
<g id="clust2" class="cluster">
<title>cluster_2</title>
<polygon fill="#000000" fill-opacity="0.058824" stroke="#000000" stroke-opacity="0.058824" points="764.4519,-294.4454 764.4519,-693.4454 1550.1372,-693.4454 1550.1372,-294.4454 764.4519,-294.4454"/>
<text text-anchor="middle" x="1157.2945" y="-678.2454" font-family="Times,serif" font-size="14.00" fill="#000000">Queues</text>
</g>
<g id="clust3" class="cluster">
<title>cluster_3</title>
<polygon fill="#000000" fill-opacity="0.058824" stroke="#000000" stroke-opacity="0.058824" points="20.7254,-946.4454 20.7254,-1474.4454 1725.2511,-1474.4454 1725.2511,-946.4454 20.7254,-946.4454"/>
<text text-anchor="middle" x="872.9883" y="-1459.2454" font-family="Times,serif" font-size="14.00" fill="#000000">Plumbing</text>
</g>
<g id="clust4" class="cluster">
<title>cluster_4</title>
<polygon fill="#000000" fill-opacity="0.058824" stroke="#000000" stroke-opacity="0.058824" points="41.4508,-1000.4454 41.4508,-1399.4454 537.5244,-1399.4454 537.5244,-1000.4454 41.4508,-1000.4454"/>
<text text-anchor="middle" x="289.4876" y="-1384.2454" font-family="Times,serif" font-size="14.00" fill="#000000">Logic Functions</text>
</g>
<g id="clust5" class="cluster">
<title>cluster_5</title>
<polygon fill="#000000" fill-opacity="0.058824" stroke="#000000" stroke-opacity="0.058824" points="1756.3392,-240.4454 1756.3392,-778.4454 2480.9001,-778.4454 2480.9001,-240.4454 1756.3392,-240.4454"/>
<text text-anchor="middle" x="2118.6197" y="-763.2454" font-family="Times,serif" font-size="14.00" fill="#000000">Components</text>
</g>
<g id="clust6" class="cluster">
<title>cluster_6</title>
<polygon fill="#000000" fill-opacity="0.058824" stroke="#000000" stroke-opacity="0.058824" points="1777.0646,-402.4454 1777.0646,-747.4454 2229.3598,-747.4454 2229.3598,-402.4454 1777.0646,-402.4454"/>
<text text-anchor="middle" x="2003.2122" y="-732.2454" font-family="Times,serif" font-size="14.00" fill="#000000">Dialogs</text>
</g>
<!-- settingsSignal -->
<g id="node1" class="node">
<title>settingsSignal</title>
<ellipse fill="#ffffbb" stroke="#000000" stroke-width="0" cx="1156.9001" cy="-835.4454" rx="38.9931" ry="18"/>
<text text-anchor="middle" x="1156.9001" y="-831.7454" font-family="Times,serif" font-size="14.00" fill="#000000">Settings</text>
</g>
<!-- newTimelineNameSignal -->
<g id="node13" class="node">
<title>newTimelineNameSignal</title>
<ellipse fill="#ffffbb" stroke="#000000" stroke-width="0" cx="1156.9001" cy="-1026.4454" rx="211.4628" ry="18"/>
<text text-anchor="middle" x="1156.9001" y="-1022.7454" font-family="Times,serif" font-size="14.00" fill="#000000">Timeline.Data.TimelineName.newTimelineNameSignal</text>
</g>
<!-- settingsSignal&#45;&gt;newTimelineNameSignal -->
<g id="edge2" class="edge">
<title>settingsSignal&#45;&gt;newTimelineNameSignal</title>
<path fill="none" stroke="#00ff00" d="M1118.33,-831.9282C1013.3469,-823.2917 726.2731,-806.2232 665.6556,-871.4454 629.6501,-910.1861 629.6501,-951.7048 665.6556,-990.4454 707.3452,-1035.302 856.1482,-1041.2351 979.1627,-1037.7573"/>
<polygon fill="#00ff00" stroke="#00ff00" points="979.5849,-1041.2462 989.4733,-1037.4424 979.3711,-1034.2494 979.5849,-1041.2462"/>
</g>
<!-- newTimeScaleSignal -->
<g id="node14" class="node">
<title>newTimeScaleSignal</title>
<ellipse fill="#ffffbb" stroke="#000000" stroke-width="0" cx="1156.9001" cy="-1080.4454" rx="180.0681" ry="18"/>
<text text-anchor="middle" x="1156.9001" y="-1076.7454" font-family="Times,serif" font-size="14.00" fill="#000000">Timeline.Data.TimeScale.newTimeScaleSignal</text>
</g>
<!-- settingsSignal&#45;&gt;newTimeScaleSignal -->
<g id="edge3" class="edge">
<title>settingsSignal&#45;&gt;newTimeScaleSignal</title>
<path fill="none" stroke="#00ff00" d="M1118.33,-831.9282C1013.3469,-823.2917 726.2731,-806.2232 665.6556,-871.4454 613.3115,-927.7659 613.3115,-988.125 665.6556,-1044.4454 773.7643,-1160.7666 983.5248,-1127.2723 1090.5729,-1100.1061"/>
<polygon fill="#00ff00" stroke="#00ff00" points="1091.4912,-1103.4838 1100.2921,-1097.585 1089.7336,-1096.708 1091.4912,-1103.4838"/>
</g>
<!-- onImport -->
<g id="node17" class="node">
<title>onImport</title>
<ellipse fill="#bbbbff" stroke="#000000" stroke-width="0" cx="289.9001" cy="-1296.4454" rx="44.393" ry="18"/>
<text text-anchor="middle" x="289.9001" y="-1292.7454" font-family="Times,serif" font-size="14.00" fill="#000000">onImport</text>
</g>
<!-- settingsSignal&#45;&gt;onImport -->
<g id="edge20" class="edge">
<title>settingsSignal&#45;&gt;onImport</title>
<path fill="none" stroke="#00ff00" d="M1119.6452,-841.158C1076.3282,-844.0664 1003.3993,-848.5347 945.6689,-871.4454 659.6782,-984.9428 662.4769,-1144.1511 385.6423,-1278.4454 372.7637,-1284.693 358.1884,-1289.7253 344.3651,-1293.3689"/>
<polygon fill="#00ff00" stroke="#00ff00" points="343.3582,-1290.0117 334.4675,-1295.7741 345.0112,-1296.8137 343.3582,-1290.0117"/>
</g>
<!-- onSettingsEdit -->
<g id="node23" class="node">
<title>onSettingsEdit</title>
<ellipse fill="#bbbbff" stroke="#000000" stroke-width="0" cx="289.9001" cy="-1350.4454" rx="62.2891" ry="18"/>
<text text-anchor="middle" x="289.9001" y="-1346.7454" font-family="Times,serif" font-size="14.00" fill="#000000">onSettingsEdit</text>
</g>
<!-- settingsSignal&#45;&gt;onSettingsEdit -->
<g id="edge36" class="edge">
<title>settingsSignal&#45;&gt;onSettingsEdit</title>
<path fill="none" stroke="#00ff00" d="M1119.3913,-840.5452C1075.8357,-842.8779 1002.6829,-846.806 945.6689,-871.4454 649.7381,-999.3361 671.3276,-1183.0636 385.6423,-1332.4454 377.6626,-1336.618 368.9617,-1340.2109 360.1644,-1343.2111"/>
<polygon fill="#00ff00" stroke="#00ff00" points="359.0889,-1339.8803 350.6102,-1346.2335 361.2002,-1346.5544 359.0889,-1339.8803"/>
</g>
<!-- compIndex -->
<g id="node24" class="node">
<title>compIndex</title>
<ellipse fill="#ffffbb" stroke="#000000" stroke-width="0" cx="2380.9001" cy="-509.4454" rx="30.5947" ry="18"/>
<text text-anchor="middle" x="2380.9001" y="-505.7454" font-family="Times,serif" font-size="14.00" fill="#000000">Index</text>
</g>
<!-- settingsSignal&#45;&gt;compIndex -->
<g id="edge66" class="edge">
<title>settingsSignal&#45;&gt;compIndex</title>
<path fill="none" stroke="#00ff00" d="M1194.8034,-839.8131C1325.3066,-853.2727 1765.8229,-885.5347 2090.1931,-751.4454 2210.0545,-701.8967 2318.0029,-584.7594 2361.0765,-533.8154"/>
<polygon fill="#00ff00" stroke="#00ff00" points="2363.9274,-535.8621 2367.6579,-525.9457 2358.5577,-531.3714 2363.9274,-535.8621"/>
</g>
<!-- compTopBar -->
<g id="node25" class="node">
<title>compTopBar</title>
<ellipse fill="#ffffbb" stroke="#000000" stroke-width="0" cx="2002.9001" cy="-266.4454" rx="37.8943" ry="18"/>
<text text-anchor="middle" x="2002.9001" y="-262.7454" font-family="Times,serif" font-size="14.00" fill="#000000">TopBar</text>
</g>
<!-- settingsSignal&#45;&gt;compTopBar -->
<g id="edge60" class="edge">
<title>settingsSignal&#45;&gt;compTopBar</title>
<path fill="none" stroke="#00ff00" d="M1195.7968,-837.9098C1241.3043,-839.2006 1317.8377,-836.3245 1376.1314,-808.4454 1672.8592,-666.5349 1622.6387,-457.6982 1907.6072,-293.4454 1922.6584,-284.77 1940.6717,-278.7369 1956.9647,-274.6117"/>
<polygon fill="#00ff00" stroke="#00ff00" points="1957.9147,-277.9838 1966.8452,-272.2831 1956.309,-271.1704 1957.9147,-277.9838"/>
</g>
<!-- compDialTimelineNameEdit -->
<g id="node31" class="node">
<title>compDialTimelineNameEdit</title>
<ellipse fill="#bbbbff" stroke="#000000" stroke-width="0" cx="2002.9001" cy="-644.4454" rx="79.0865" ry="18"/>
<text text-anchor="middle" x="2002.9001" y="-640.7454" font-family="Times,serif" font-size="14.00" fill="#000000">TimelineNameEdit</text>
</g>
<!-- settingsSignal&#45;&gt;compDialTimelineNameEdit -->
<g id="edge51" class="edge">
<title>settingsSignal&#45;&gt;compDialTimelineNameEdit</title>
<path fill="none" stroke="#00ff00" d="M1195.557,-832.2566C1239.5464,-828.2646 1313.4208,-820.4559 1376.1314,-808.4454 1486.8677,-787.2369 1808.5596,-698.6651 1942.8783,-661.2465"/>
<polygon fill="#00ff00" stroke="#00ff00" points="1943.9112,-664.5921 1952.604,-658.5353 1942.0314,-657.8492 1943.9112,-664.5921"/>
</g>
<!-- compDialTimeScaleEdit -->
<g id="node32" class="node">
<title>compDialTimeScaleEdit</title>
<ellipse fill="#bbbbff" stroke="#000000" stroke-width="0" cx="2002.9001" cy="-590.4454" rx="63.8893" ry="18"/>
<text text-anchor="middle" x="2002.9001" y="-586.7454" font-family="Times,serif" font-size="14.00" fill="#000000">TimeScaleEdit</text>
</g>
<!-- settingsSignal&#45;&gt;compDialTimeScaleEdit -->
<g id="edge47" class="edge">
<title>settingsSignal&#45;&gt;compDialTimeScaleEdit</title>
<path fill="none" stroke="#00ff00" d="M1195.7759,-833.2761C1239.9638,-830.2087 1314.0178,-823.2363 1376.1314,-808.4454 1620.306,-750.3012 1668.6119,-694.1477 1907.6072,-617.4454 1920.2627,-613.3838 1933.9635,-609.3134 1946.9245,-605.6098"/>
<polygon fill="#00ff00" stroke="#00ff00" points="1947.9924,-608.9451 1956.6622,-602.8553 1946.087,-602.2094 1947.9924,-608.9451"/>
</g>
<!-- compDialSettingsEdit -->
<g id="node33" class="node">
<title>compDialSettingsEdit</title>
<ellipse fill="#bbbbff" stroke="#000000" stroke-width="0" cx="2002.9001" cy="-698.4454" rx="53.8905" ry="18"/>
<text text-anchor="middle" x="2002.9001" y="-694.7454" font-family="Times,serif" font-size="14.00" fill="#000000">SettingsEdit</text>
</g>
<!-- settingsSignal&#45;&gt;compDialSettingsEdit -->
<g id="edge43" class="edge">
<title>settingsSignal&#45;&gt;compDialSettingsEdit</title>
<path fill="none" stroke="#00ff00" d="M1195.0013,-831.3518C1238.7955,-826.5077 1312.7907,-817.8978 1376.1314,-808.4454 1586.9903,-776.9789 1836.1031,-730.4466 1945.9808,-709.4423"/>
<polygon fill="#00ff00" stroke="#00ff00" points="1946.6956,-712.8691 1955.859,-707.551 1945.3792,-705.994 1946.6956,-712.8691"/>
</g>
<!-- timelineNameSignal -->
<g id="node2" class="node">
<title>timelineNameSignal</title>
<ellipse fill="#ffffbb" stroke="#000000" stroke-width="0" cx="1156.9001" cy="-781.4454" rx="64.189" ry="18"/>
<text text-anchor="middle" x="1156.9001" y="-777.7454" font-family="Times,serif" font-size="14.00" fill="#000000">TimelineName</text>
</g>
<!-- timelineNameSignal&#45;&gt;onImport -->
<g id="edge18" class="edge">
<title>timelineNameSignal&#45;&gt;onImport</title>
<path fill="none" stroke="#00ff00" d="M1092.5443,-780.499C1049.3884,-782.0328 992.1625,-788.3526 945.6689,-808.4454 649.7381,-936.3361 671.3276,-1120.0636 385.6423,-1269.4454 371.5815,-1276.7977 355.2816,-1282.3503 340.1608,-1286.448"/>
<polygon fill="#00ff00" stroke="#00ff00" points="339.2518,-1283.0677 330.4299,-1288.935 340.9852,-1289.8497 339.2518,-1283.0677"/>
</g>
<!-- onTimelineNameEdit -->
<g id="node21" class="node">
<title>onTimelineNameEdit</title>
<ellipse fill="#bbbbff" stroke="#000000" stroke-width="0" cx="289.9001" cy="-1134.4454" rx="87.9851" ry="18"/>
<text text-anchor="middle" x="289.9001" y="-1130.7454" font-family="Times,serif" font-size="14.00" fill="#000000">onTimelineNameEdit</text>
</g>
<!-- timelineNameSignal&#45;&gt;onTimelineNameEdit -->
<g id="edge30" class="edge">
<title>timelineNameSignal&#45;&gt;onTimelineNameEdit</title>
<path fill="none" stroke="#00ff00" d="M1101.0066,-790.4485C1057.7243,-794.6566 996.7409,-801.1551 945.6689,-817.4454 676.858,-903.1876 647.3923,-1011.0986 385.6423,-1116.4454 381.4743,-1118.123 377.1646,-1119.7384 372.7852,-1121.2775"/>
<polygon fill="#00ff00" stroke="#00ff00" points="371.483,-1118.0225 363.1141,-1124.5197 373.7081,-1124.6595 371.483,-1118.0225"/>
</g>
<!-- timelineNameSignal&#45;&gt;compTopBar -->
<g id="edge59" class="edge">
<title>timelineNameSignal&#45;&gt;compTopBar</title>
<path fill="none" stroke="#00ff00" d="M1220.9305,-783.2784C1266.1101,-782.2943 1327.0772,-776.2649 1376.1314,-754.4454 1661.8335,-627.3643 1632.4945,-442.0668 1907.6072,-293.4454 1922.8919,-285.1883 1940.9543,-279.2433 1957.2213,-275.0715"/>
<polygon fill="#00ff00" stroke="#00ff00" points="1958.1742,-278.4422 1967.0769,-272.6983 1956.5354,-271.6367 1958.1742,-278.4422"/>
</g>
<!-- timelineNameSignal&#45;&gt;compDialTimelineNameEdit -->
<g id="edge50" class="edge">
<title>timelineNameSignal&#45;&gt;compDialTimelineNameEdit</title>
<path fill="none" stroke="#00ff00" d="M1217.0297,-774.8798C1261.1444,-769.8587 1322.4625,-762.4545 1376.1314,-754.4454 1578.4522,-724.253 1815.9916,-680.1903 1931.9602,-658.1167"/>
<polygon fill="#00ff00" stroke="#00ff00" points="1932.9562,-661.4899 1942.1239,-656.1791 1931.6453,-654.6137 1932.9562,-661.4899"/>
</g>
<!-- timeScaleSignal -->
<g id="node3" class="node">
<title>timeScaleSignal</title>
<ellipse fill="#ffffbb" stroke="#000000" stroke-width="0" cx="1156.9001" cy="-727.4454" rx="48.9926" ry="18"/>
<text text-anchor="middle" x="1156.9001" y="-723.7454" font-family="Times,serif" font-size="14.00" fill="#000000">TimeScale</text>
</g>
<!-- onTimeScaleEdit -->
<g id="node22" class="node">
<title>onTimeScaleEdit</title>
<ellipse fill="#bbbbff" stroke="#000000" stroke-width="0" cx="289.9001" cy="-1080.4454" rx="72.2875" ry="18"/>
<text text-anchor="middle" x="289.9001" y="-1076.7454" font-family="Times,serif" font-size="14.00" fill="#000000">onTimeScaleEdit</text>
</g>
<!-- timeScaleSignal&#45;&gt;onTimeScaleEdit -->
<g id="edge33" class="edge">
<title>timeScaleSignal&#45;&gt;onTimeScaleEdit</title>
<path fill="none" stroke="#00ff00" d="M1112.6132,-735.3266C1069.1657,-739.5314 1001.4959,-745.6384 945.6689,-763.4454 676.858,-849.1876 647.3923,-957.0986 385.6423,-1062.4454 379.0336,-1065.1053 372.0687,-1067.609 365.0342,-1069.9001"/>
<polygon fill="#00ff00" stroke="#00ff00" points="363.9354,-1066.5764 355.4253,-1072.8874 366.0135,-1073.2608 363.9354,-1066.5764"/>
</g>
<!-- compBottomBar -->
<g id="node26" class="node">
<title>compBottomBar</title>
<ellipse fill="#ffffbb" stroke="#000000" stroke-width="0" cx="2002.9001" cy="-374.4454" rx="50.0912" ry="18"/>
<text text-anchor="middle" x="2002.9001" y="-370.7454" font-family="Times,serif" font-size="14.00" fill="#000000">BottomBar</text>
</g>
<!-- timeScaleSignal&#45;&gt;compBottomBar -->
<g id="edge64" class="edge">
<title>timeScaleSignal&#45;&gt;compBottomBar</title>
<path fill="none" stroke="#00ff00" d="M1205.5537,-726.0039C1250.7848,-723.4562 1319.5074,-716.4759 1376.1314,-697.4454 1633.0367,-611.1033 1655.8732,-498.8711 1907.6072,-398.4454 1920.6134,-393.2568 1935.0752,-388.9282 1948.7224,-385.4415"/>
<polygon fill="#00ff00" stroke="#00ff00" points="1949.6027,-388.8295 1958.4832,-383.0512 1947.9376,-382.0304 1949.6027,-388.8295"/>
</g>
<!-- timeScaleSignal&#45;&gt;compDialTimeScaleEdit -->
<g id="edge46" class="edge">
<title>timeScaleSignal&#45;&gt;compDialTimeScaleEdit</title>
<path fill="none" stroke="#00ff00" d="M1203.1557,-721.5676C1247.5691,-715.8171 1316.5191,-706.61 1376.1314,-697.4454 1582.6558,-665.6951 1826.4356,-622.3987 1939.467,-601.989"/>
<polygon fill="#00ff00" stroke="#00ff00" points="1940.1213,-605.4276 1949.3393,-600.2046 1938.8762,-598.5392 1940.1213,-605.4276"/>
</g>
<!-- zoomSignal -->
<g id="node4" class="node">
<title>zoomSignal</title>
<ellipse fill="#ffffbb" stroke="#000000" stroke-width="0" cx="1156.9001" cy="-889.4454" rx="32.4942" ry="18"/>
<text text-anchor="middle" x="1156.9001" y="-885.7454" font-family="Times,serif" font-size="14.00" fill="#000000">Zoom</text>
</g>
<!-- zoomSignal&#45;&gt;compBottomBar -->
<g id="edge63" class="edge">
<title>zoomSignal&#45;&gt;compBottomBar</title>
<path fill="none" stroke="#00ff00" d="M1186.7295,-897.0352C1230.326,-901.5108 1313.1069,-899.6003 1376.1314,-871.4454 1662.4282,-743.5486 1629.7983,-552.8611 1907.6072,-407.4454 1923.0033,-399.3865 1941.2339,-393.9412 1957.6058,-389.7384"/>
<polygon fill="#00ff00" stroke="#00ff00" points="1958.6598,-393.0829 1967.5176,-387.27 1956.9681,-386.2904 1958.6598,-393.0829"/>
</g>
<!-- importQueues -->
<g id="node5" class="node">
<title>importQueues</title>
<ellipse fill="#ffffbb" stroke="#000000" stroke-width="0" cx="1156.9001" cy="-536.4454" rx="99.3824" ry="18"/>
<text text-anchor="middle" x="1156.9001" y="-532.7454" font-family="Times,serif" font-size="14.00" fill="#000000">Import Dialog IOQueues</text>
</g>
<!-- importQueues&#45;&gt;onImport -->
<g id="edge17" class="edge">
<title>importQueues&#45;&gt;onImport</title>
<path fill="none" stroke="#000000" d="M1058.6792,-533.6164C1021.2867,-536.3635 979.5588,-544.3255 945.6689,-563.4454 596.8446,-760.244 718.9915,-1047.44 385.6423,-1269.4454 372.5539,-1278.1621 356.6638,-1284.0938 341.6209,-1288.119"/>
<polygon fill="#000000" stroke="#000000" points="340.7772,-1284.7221 331.8958,-1290.4988 342.4411,-1291.5214 340.7772,-1284.7221"/>
</g>
<!-- compDialImport -->
<g id="node28" class="node">
<title>compDialImport</title>
<ellipse fill="#bbbbff" stroke="#000000" stroke-width="0" cx="2002.9001" cy="-536.4454" rx="35.194" ry="18"/>
<text text-anchor="middle" x="2002.9001" y="-532.7454" font-family="Times,serif" font-size="14.00" fill="#000000">Import</text>
</g>
<!-- importQueues&#45;&gt;compDialImport -->
<g id="edge37" class="edge">
<title>importQueues&#45;&gt;compDialImport</title>
<path fill="none" stroke="#00ff00" d="M1253.5349,-540.9318C1436.1006,-544.3162 1825.2556,-543.9056 1957.6869,-539.6998"/>
<polygon fill="#00ff00" stroke="#00ff00" points="1957.9982,-543.1912 1967.8721,-539.3497 1957.7577,-536.1954 1957.9982,-543.1912"/>
</g>
<!-- exportQueue -->
<g id="node6" class="node">
<title>exportQueue</title>
<ellipse fill="#ffffbb" stroke="#000000" stroke-width="0" cx="1156.9001" cy="-320.4454" rx="86.3847" ry="18"/>
<text text-anchor="middle" x="1156.9001" y="-316.7454" font-family="Times,serif" font-size="14.00" fill="#000000">Export Dialog Queue</text>
</g>
<!-- compDialExport -->
<g id="node29" class="node">
<title>compDialExport</title>
<ellipse fill="#bbbbff" stroke="#000000" stroke-width="0" cx="2002.9001" cy="-428.4454" rx="34.394" ry="18"/>
<text text-anchor="middle" x="2002.9001" y="-424.7454" font-family="Times,serif" font-size="14.00" fill="#000000">Export</text>
</g>
<!-- exportQueue&#45;&gt;compDialExport -->
<g id="edge40" class="edge">
<title>exportQueue&#45;&gt;compDialExport</title>
<path fill="none" stroke="#00ff00" d="M1231.7462,-329.5509C1274.1212,-334.7342 1328.0973,-341.3838 1376.1314,-347.4454 1595.2963,-375.1029 1857.4045,-409.3579 1959.3491,-422.726"/>
<polygon fill="#00ff00" stroke="#00ff00" points="1958.9072,-426.198 1969.2775,-424.0283 1959.8177,-419.2574 1958.9072,-426.198"/>
</g>
<!-- newQueues -->
<g id="node7" class="node">
<title>newQueues</title>
<ellipse fill="#ffffbb" stroke="#000000" stroke-width="0" cx="1156.9001" cy="-482.4454" rx="91.784" ry="18"/>
<text text-anchor="middle" x="1156.9001" y="-478.7454" font-family="Times,serif" font-size="14.00" fill="#000000">New Dialog IOQueues</text>
</g>
<!-- onNew -->
<g id="node20" class="node">
<title>onNew</title>
<ellipse fill="#bbbbff" stroke="#000000" stroke-width="0" cx="289.9001" cy="-1242.4454" rx="36.2938" ry="18"/>
<text text-anchor="middle" x="289.9001" y="-1238.7454" font-family="Times,serif" font-size="14.00" fill="#000000">onNew</text>
</g>
<!-- newQueues&#45;&gt;onNew -->
<g id="edge25" class="edge">
<title>newQueues&#45;&gt;onNew</title>
<path fill="none" stroke="#000000" d="M1066.6024,-479.1064C1027.2734,-481.2854 981.9738,-488.9631 945.6689,-509.4454 596.8446,-706.244 718.9915,-993.44 385.6423,-1215.4454 370.7628,-1225.355 352.2622,-1231.6652 335.5019,-1235.6666"/>
<polygon fill="#000000" stroke="#000000" points="334.3697,-1232.3307 325.339,-1237.8712 335.8537,-1239.1716 334.3697,-1232.3307"/>
</g>
<!-- compDialNew -->
<g id="node30" class="node">
<title>compDialNew</title>
<ellipse fill="#bbbbff" stroke="#000000" stroke-width="0" cx="2002.9001" cy="-482.4454" rx="27.0966" ry="18"/>
<text text-anchor="middle" x="2002.9001" y="-478.7454" font-family="Times,serif" font-size="14.00" fill="#000000">New</text>
</g>
<!-- newQueues&#45;&gt;compDialNew -->
<g id="edge41" class="edge">
<title>newQueues&#45;&gt;compDialNew</title>
<path fill="none" stroke="#00ff00" d="M1246.2366,-486.7923C1429.0689,-490.3966 1839.3068,-489.9465 1965.3455,-485.442"/>
<polygon fill="#00ff00" stroke="#00ff00" points="1965.7743,-488.9279 1975.6291,-485.0378 1965.4993,-481.9333 1965.7743,-488.9279"/>
</g>
<!-- settingsEditQueues -->
<g id="node8" class="node">
<title>settingsEditQueues</title>
<ellipse fill="#ffffbb" stroke="#000000" stroke-width="0" cx="1156.9001" cy="-644.4454" rx="103.1819" ry="18"/>
<text text-anchor="middle" x="1156.9001" y="-640.7454" font-family="Times,serif" font-size="14.00" fill="#000000">Settings Dialog IOQueues</text>
</g>
<!-- settingsEditQueues&#45;&gt;onSettingsEdit -->
<g id="edge34" class="edge">
<title>settingsEditQueues&#45;&gt;onSettingsEdit</title>
<path fill="none" stroke="#000000" d="M1070.158,-654.315C1030.0995,-661.7605 983.2096,-674.7685 945.6689,-697.4454 626.1336,-890.4645 702.342,-1125.8082 385.6423,-1323.4454 375.7836,-1329.5978 364.4928,-1334.3813 353.2039,-1338.0905"/>
<polygon fill="#000000" stroke="#000000" points="351.8779,-1334.835 343.3199,-1341.0809 353.905,-1341.535 351.8779,-1334.835"/>
</g>
<!-- settingsEditQueues&#45;&gt;compDialSettingsEdit -->
<g id="edge44" class="edge">
<title>settingsEditQueues&#45;&gt;compDialSettingsEdit</title>
<path fill="none" stroke="#00ff00" d="M1243.8555,-654.2952C1414.1214,-668.5902 1787.9621,-692.2851 1938.3529,-698.1229"/>
<polygon fill="#00ff00" stroke="#00ff00" points="1938.6655,-701.6369 1948.789,-698.512 1938.9264,-694.6418 1938.6655,-701.6369"/>
</g>
<!-- timelineNameEditQueues -->
<g id="node9" class="node">
<title>timelineNameEditQueues</title>
<ellipse fill="#ffffbb" stroke="#000000" stroke-width="0" cx="1156.9001" cy="-590.4454" rx="143.7746" ry="18"/>
<text text-anchor="middle" x="1156.9001" y="-586.7454" font-family="Times,serif" font-size="14.00" fill="#000000">TimelineNameEdit Dialog IOQueues</text>
</g>
<!-- timelineNameEditQueues&#45;&gt;onTimelineNameEdit -->
<g id="edge28" class="edge">
<title>timelineNameEditQueues&#45;&gt;onTimelineNameEdit</title>
<path fill="none" stroke="#000000" d="M1020.1107,-595.9515C994.6203,-600.2852 968.7619,-607.0504 945.6689,-617.4454 644.0898,-753.198 676.3804,-949.8062 385.6423,-1107.4454 377.9208,-1111.6321 369.4884,-1115.2209 360.9324,-1118.2842"/>
<polygon fill="#000000" stroke="#000000" points="359.624,-1115.0312 351.2512,-1121.5233 361.845,-1121.6695 359.624,-1115.0312"/>
</g>
<!-- timelineNameEditQueues&#45;&gt;compDialTimelineNameEdit -->
<g id="edge52" class="edge">
<title>timelineNameEditQueues&#45;&gt;compDialTimelineNameEdit</title>
<path fill="none" stroke="#00ff00" d="M1266.1999,-602.1316C1435.3507,-615.7645 1757.2899,-636.1934 1913.4747,-643.086"/>
<polygon fill="#00ff00" stroke="#00ff00" points="1913.3774,-646.585 1923.5193,-643.5202 1913.6798,-639.5915 1913.3774,-646.585"/>
</g>
<!-- timeScaleEditQueues -->
<g id="node10" class="node">
<title>timeScaleEditQueues</title>
<ellipse fill="#ffffbb" stroke="#000000" stroke-width="0" cx="1156.9001" cy="-374.4454" rx="128.0773" ry="18"/>
<text text-anchor="middle" x="1156.9001" y="-370.7454" font-family="Times,serif" font-size="14.00" fill="#000000">TimeScaleEdit Dialog IOQueues</text>
</g>
<!-- timeScaleEditQueues&#45;&gt;onTimeScaleEdit -->
<g id="edge31" class="edge">
<title>timeScaleEditQueues&#45;&gt;onTimeScaleEdit</title>
<path fill="none" stroke="#000000" d="M1029.0926,-375.6586C1000.3936,-379.9704 970.975,-387.8128 945.6689,-401.4454 609.3654,-582.6158 707.6581,-847.9496 385.6423,-1053.4454 377.2349,-1058.8107 367.7484,-1063.1293 358.0976,-1066.6005"/>
<polygon fill="#000000" stroke="#000000" points="356.8226,-1063.3356 348.4258,-1069.7965 359.019,-1069.9821 356.8226,-1063.3356"/>
</g>
<!-- timeScaleEditQueues&#45;&gt;compDialTimeScaleEdit -->
<g id="edge48" class="edge">
<title>timeScaleEditQueues&#45;&gt;compDialTimeScaleEdit</title>
<path fill="none" stroke="#00ff00" d="M1235.062,-388.7419C1277.153,-393.9801 1329.8035,-400.6096 1376.1314,-410.4454 1617.6883,-461.7302 1670.6957,-502.7833 1907.6072,-572.4454 1916.451,-575.0459 1925.7697,-577.7413 1934.9766,-580.2951"/>
<polygon fill="#00ff00" stroke="#00ff00" points="1934.3269,-583.7457 1944.8954,-582.9995 1936.1683,-576.9922 1934.3269,-583.7457"/>
</g>
<!-- snackbarQueue -->
<g id="node11" class="node">
<title>snackbarQueue</title>
<ellipse fill="#ffffbb" stroke="#000000" stroke-width="0" cx="1156.9001" cy="-428.4454" rx="68.7879" ry="18"/>
<text text-anchor="middle" x="1156.9001" y="-424.7454" font-family="Times,serif" font-size="14.00" fill="#000000">Snackbar Queue</text>
</g>
<!-- compSnackbar -->
<g id="node27" class="node">
<title>compSnackbar</title>
<ellipse fill="#ffffbb" stroke="#000000" stroke-width="0" cx="2002.9001" cy="-320.4454" rx="43.5923" ry="18"/>
<text text-anchor="middle" x="2002.9001" y="-316.7454" font-family="Times,serif" font-size="14.00" fill="#000000">Snackbar</text>
</g>
<!-- snackbarQueue&#45;&gt;compSnackbar -->
<g id="edge65" class="edge">
<title>snackbarQueue&#45;&gt;compSnackbar</title>
<path fill="none" stroke="#00ff00" d="M1219.755,-420.8055C1263.5907,-415.4526 1323.4366,-408.0953 1376.1314,-401.4454 1589.4602,-374.5245 1843.4757,-341.3526 1950.8682,-327.2767"/>
<polygon fill="#00ff00" stroke="#00ff00" points="1951.6418,-330.7053 1961.102,-325.935 1950.7318,-323.7647 1951.6418,-330.7053"/>
</g>
<!-- newSettingsSignal -->
<g id="node12" class="node">
<title>newSettingsSignal</title>
<ellipse fill="#ffffbb" stroke="#000000" stroke-width="0" cx="1156.9001" cy="-972.4454" rx="106.6812" ry="18"/>
<text text-anchor="middle" x="1156.9001" y="-968.7454" font-family="Times,serif" font-size="14.00" fill="#000000">Settings.newSettingsSignal</text>
</g>
<!-- newSettingsSignal&#45;&gt;settingsSignal -->
<g id="edge1" class="edge">
<title>newSettingsSignal&#45;&gt;settingsSignal</title>
<path fill="none" stroke="#000000" d="M1058.8042,-979.6241C885.0768,-989.4844 551.848,-993.8984 665.6556,-871.4454 724.438,-808.1977 996.1731,-822.3337 1108.3061,-831.1232"/>
<polygon fill="#000000" stroke="#000000" points="1108.0819,-834.6163 1118.33,-831.9282 1108.6423,-827.6388 1108.0819,-834.6163"/>
</g>
<!-- newTimelineNameSignal&#45;&gt;timelineNameSignal -->
<g id="edge4" class="edge">
<title>newTimelineNameSignal&#45;&gt;timelineNameSignal</title>
<path fill="none" stroke="#000000" d="M989.4733,-1037.4424C864.5993,-1041.5379 708.5172,-1036.563 665.6556,-990.4454 613.3115,-934.125 613.3115,-873.7659 665.6556,-817.4454 720.7226,-758.1952 962.6739,-766.8559 1085.2254,-775.4134"/>
<polygon fill="#000000" stroke="#000000" points="1085.0465,-778.9094 1095.2712,-776.1333 1085.547,-771.9273 1085.0465,-778.9094"/>
</g>
<!-- newTimeScaleSignal&#45;&gt;timeScaleSignal -->
<g id="edge5" class="edge">
<title>newTimeScaleSignal&#45;&gt;timeScaleSignal</title>
<path fill="none" stroke="#000000" d="M1100.2921,-1097.585C996.7207,-1125.035 777.1393,-1164.398 665.6556,-1044.4454 580.6342,-952.9654 580.6342,-854.9255 665.6556,-763.4454 722.8725,-701.8821 981.8505,-713.6356 1099.0146,-722.4111"/>
<polygon fill="#000000" stroke="#000000" points="1098.9874,-725.9192 1109.2261,-723.1954 1099.5235,-718.9398 1098.9874,-725.9192"/>
</g>
<!-- newPrimarySignals -->
<g id="node15" class="node">
<title>newPrimarySignals</title>
<ellipse fill="#ffffbb" stroke="#000000" stroke-width="0" cx="289.9001" cy="-1425.4454" rx="79.8859" ry="18"/>
<text text-anchor="middle" x="289.9001" y="-1421.7454" font-family="Times,serif" font-size="14.00" fill="#000000">newPrimarySignals</text>
</g>
<!-- newPrimarySignals&#45;&gt;zoomSignal -->
<g id="edge9" class="edge">
<title>newPrimarySignals&#45;&gt;zoomSignal</title>
<path fill="none" stroke="#000000" d="M354.6625,-1414.8758C365.3076,-1411.9308 376.0016,-1408.1894 385.6423,-1403.4454 674.9018,-1261.1079 657.8452,-1087.6644 945.6689,-942.4454 1000.5133,-914.7741 1070.8262,-900.8785 1114.8815,-894.4186"/>
<polygon fill="#000000" stroke="#000000" points="1115.533,-897.8615 1124.9493,-893.005 1114.5597,-890.9295 1115.533,-897.8615"/>
</g>
<!-- newPrimarySignals&#45;&gt;newSettingsSignal -->
<g id="edge6" class="edge">
<title>newPrimarySignals&#45;&gt;newSettingsSignal</title>
<path fill="none" stroke="#000000" d="M353.6508,-1414.5524C364.5736,-1411.6339 375.6223,-1407.9852 385.6423,-1403.4454 665.1954,-1276.7891 660.2065,-1112.1529 945.6689,-999.4454 975.612,-987.6232 1009.6239,-980.7196 1041.4725,-976.7564"/>
<polygon fill="#000000" stroke="#000000" points="1042.1972,-980.196 1051.729,-975.5705 1041.3931,-973.2423 1042.1972,-980.196"/>
</g>
<!-- newPrimarySignals&#45;&gt;newTimelineNameSignal -->
<g id="edge7" class="edge">
<title>newPrimarySignals&#45;&gt;newTimelineNameSignal</title>
<path fill="none" stroke="#000000" d="M352.6436,-1414.1885C363.8388,-1411.2945 375.2408,-1407.7481 385.6423,-1403.4454 656.8655,-1291.2532 669.24,-1152.1175 945.6689,-1053.4454 960.0214,-1048.3223 975.2285,-1044.1489 990.6427,-1040.7523"/>
<polygon fill="#000000" stroke="#000000" points="991.7228,-1044.1023 1000.7952,-1038.6303 990.2906,-1037.2504 991.7228,-1044.1023"/>
</g>
<!-- newPrimarySignals&#45;&gt;newTimeScaleSignal -->
<g id="edge8" class="edge">
<title>newPrimarySignals&#45;&gt;newTimeScaleSignal</title>
<path fill="none" stroke="#000000" d="M349.5741,-1413.3931C361.6173,-1410.4972 374.115,-1407.1537 385.6423,-1403.4454 669.5407,-1312.1186 994.4679,-1159.3619 1111.7477,-1102.5816"/>
<polygon fill="#000000" stroke="#000000" points="1113.3449,-1105.697 1120.8141,-1098.1829 1110.2893,-1099.3991 1113.3449,-1105.697"/>
</g>
<!-- newPrimaryQueues -->
<g id="node16" class="node">
<title>newPrimaryQueues</title>
<ellipse fill="#ffffbb" stroke="#000000" stroke-width="0" cx="289.9001" cy="-972.4454" rx="80.6858" ry="18"/>
<text text-anchor="middle" x="289.9001" y="-968.7454" font-family="Times,serif" font-size="14.00" fill="#000000">newPrimaryQueues</text>
</g>
<!-- newPrimaryQueues&#45;&gt;importQueues -->
<g id="edge10" class="edge">
<title>newPrimaryQueues&#45;&gt;importQueues</title>
<path fill="none" stroke="#000000" d="M310.2143,-955.0245C387.0426,-890.2352 669.5098,-661.8784 945.6689,-563.4454 978.3947,-551.7808 1015.5578,-545.0417 1049.4907,-541.1838"/>
<polygon fill="#000000" stroke="#000000" points="1049.865,-544.6638 1059.4377,-540.1236 1049.1231,-537.7032 1049.865,-544.6638"/>
</g>
<!-- newPrimaryQueues&#45;&gt;exportQueue -->
<g id="edge11" class="edge">
<title>newPrimaryQueues&#45;&gt;exportQueue</title>
<path fill="none" stroke="#000000" d="M301.9706,-954.4355C360.5449,-868.7113 625.4407,-499.8709 945.6689,-347.4454 980.8351,-330.7067 1022.8285,-323.172 1060.0752,-320.1008"/>
<polygon fill="#000000" stroke="#000000" points="1060.7245,-323.5631 1070.4452,-319.349 1060.2183,-316.5814 1060.7245,-323.5631"/>
</g>
<!-- newPrimaryQueues&#45;&gt;newQueues -->
<g id="edge12" class="edge">
<title>newPrimaryQueues&#45;&gt;newQueues</title>
<path fill="none" stroke="#000000" d="M307.7115,-954.6309C379.732,-883.8341 659.2692,-620.8427 945.6689,-509.4454 980.0083,-496.0889 1019.6246,-489.0398 1055.2047,-485.4114"/>
<polygon fill="#000000" stroke="#000000" points="1055.9853,-488.8536 1065.6143,-484.4341 1055.3309,-481.8842 1055.9853,-488.8536"/>
</g>
<!-- newPrimaryQueues&#45;&gt;settingsEditQueues -->
<g id="edge13" class="edge">
<title>newPrimaryQueues&#45;&gt;settingsEditQueues</title>
<path fill="none" stroke="#000000" d="M324.0284,-955.9556C420.0479,-910.0418 701.4521,-778.7715 945.6689,-697.4454 989.7446,-682.7679 1040.1705,-669.9705 1080.6976,-660.6296"/>
<polygon fill="#000000" stroke="#000000" points="1081.5405,-664.0273 1090.5113,-658.3904 1079.9833,-657.2027 1081.5405,-664.0273"/>
</g>
<!-- newPrimaryQueues&#45;&gt;timelineNameEditQueues -->
<g id="edge14" class="edge">
<title>newPrimaryQueues&#45;&gt;timelineNameEditQueues</title>
<path fill="none" stroke="#000000" d="M313.7188,-955.2296C396.2987,-896.522 679.8129,-703.0918 945.6689,-617.4454 969.2788,-609.8394 995.0223,-604.3657 1020.1593,-600.4289"/>
<polygon fill="#000000" stroke="#000000" points="1020.7571,-603.8786 1030.1311,-598.9411 1019.7241,-596.9552 1020.7571,-603.8786"/>
</g>
<!-- newPrimaryQueues&#45;&gt;timeScaleEditQueues -->
<g id="edge15" class="edge">
<title>newPrimaryQueues&#45;&gt;timeScaleEditQueues</title>
<path fill="none" stroke="#000000" d="M303.4064,-954.67C365.863,-873.9692 636.8094,-540.03 945.6689,-401.4454 969.2226,-390.8769 995.6432,-384.0651 1021.6142,-379.7468"/>
<polygon fill="#000000" stroke="#000000" points="1022.1916,-383.1992 1031.5389,-378.2112 1021.1212,-376.2815 1022.1916,-383.1992"/>
</g>
<!-- newPrimaryQueues&#45;&gt;snackbarQueue -->
<g id="edge16" class="edge">
<title>newPrimaryQueues&#45;&gt;snackbarQueue</title>
<path fill="none" stroke="#000000" d="M305.3697,-954.616C372.4532,-878.6616 648.2336,-580.2802 945.6689,-455.4454 987.1518,-438.0349 1036.9252,-431.0756 1077.7345,-428.5657"/>
<polygon fill="#000000" stroke="#000000" points="1078.1081,-432.0508 1087.9061,-428.0198 1077.7329,-425.0608 1078.1081,-432.0508"/>
</g>
<!-- onImport&#45;&gt;settingsSignal -->
<g id="edge19" class="edge">
<title>onImport&#45;&gt;settingsSignal</title>
<path fill="none" stroke="#ff0000" d="M320.2214,-1283.0666C339.5648,-1277.4703 364.8209,-1270.5461 385.6423,-1260.4454 662.4769,-1126.1511 659.6782,-966.9428 945.6689,-853.4454 999.5918,-832.0458 1066.7746,-826.736 1110.701,-827.9043"/>
<polygon fill="#ff0000" stroke="#ff0000" points="1110.6674,-831.4056 1120.7984,-828.3052 1110.9452,-824.4111 1110.6674,-831.4056"/>
</g>
<!-- onImport&#45;&gt;compTopBar -->
<g id="edge54" class="edge">
<title>onImport&#45;&gt;compTopBar</title>
<path fill="none" stroke="#0000ff" d="M332.8739,-1291.8336C350.7192,-1288.1299 370.7032,-1281.4583 385.6423,-1269.4454 796.8928,-938.7496 492.9901,-493.6808 945.6689,-222.4454 1119.4779,-118.3028 1778.7528,-226.308 1957.7961,-258.1766"/>
<polygon fill="#0000ff" stroke="#0000ff" points="1957.213,-261.6277 1967.6732,-259.9443 1958.4463,-254.7372 1957.213,-261.6277"/>
</g>
<!-- onExport -->
<g id="node18" class="node">
<title>onExport</title>
<ellipse fill="#bbbbff" stroke="#000000" stroke-width="0" cx="289.9001" cy="-1026.4454" rx="43.5923" ry="18"/>
<text text-anchor="middle" x="289.9001" y="-1022.7454" font-family="Times,serif" font-size="14.00" fill="#000000">onExport</text>
</g>
<!-- onExport&#45;&gt;exportQueue -->
<g id="edge21" class="edge">
<title>onExport&#45;&gt;exportQueue</title>
<path fill="none" stroke="#ff0000" d="M332.6306,-1022.5535C350.033,-1019.5089 369.7492,-1014.089 385.6423,-1004.4454 713.6664,-805.4084 608.2229,-530.0537 945.6689,-347.4454 980.6652,-328.5072 1023.5728,-320.7209 1061.5531,-318.0569"/>
<polygon fill="#ff0000" stroke="#ff0000" points="1061.8324,-321.5466 1071.6078,-317.4611 1061.4183,-314.5588 1061.8324,-321.5466"/>
</g>
<!-- onExport&#45;&gt;compTopBar -->
<g id="edge55" class="edge">
<title>onExport&#45;&gt;compTopBar</title>
<path fill="none" stroke="#0000ff" d="M333.4742,-1023.8222C351.0125,-1020.9819 370.6021,-1015.3716 385.6423,-1004.4454 777.2319,-719.9698 524.5157,-308.9801 945.6689,-70.4454 1306.8988,134.1496 1838.3693,-164.6368 1971.6949,-246.6177"/>
<polygon fill="#0000ff" stroke="#0000ff" points="1969.9036,-249.6252 1980.2476,-251.9167 1973.5903,-243.6747 1969.9036,-249.6252"/>
</g>
<!-- onClickedExport -->
<g id="node19" class="node">
<title>onClickedExport</title>
<ellipse fill="#bbbbff" stroke="#000000" stroke-width="0" cx="289.9001" cy="-1188.4454" rx="70.6878" ry="18"/>
<text text-anchor="middle" x="289.9001" y="-1184.7454" font-family="Times,serif" font-size="14.00" fill="#000000">onClickedExport</text>
</g>
<!-- onClickedExport&#45;&gt;timelineNameSignal -->
<g id="edge23" class="edge">
<title>onClickedExport&#45;&gt;timelineNameSignal</title>
<path fill="none" stroke="#ff0000" d="M343.0338,-1176.3866C357.1697,-1172.3944 372.2304,-1167.4131 385.6423,-1161.4454 654.4541,-1041.8381 668.763,-907.888 945.6689,-808.4454 989.3853,-792.746 1041.0701,-785.9532 1082.3718,-783.106"/>
<polygon fill="#ff0000" stroke="#ff0000" points="1082.6047,-786.5984 1092.3661,-782.4794 1082.1666,-779.6121 1082.6047,-786.5984"/>
</g>
<!-- onClickedExport&#45;&gt;timeScaleSignal -->
<g id="edge24" class="edge">
<title>onClickedExport&#45;&gt;timeScaleSignal</title>
<path fill="none" stroke="#ff0000" d="M344.0564,-1176.7624C357.9712,-1172.8001 372.6678,-1167.7395 385.6423,-1161.4454 662.4769,-1027.1511 659.6782,-867.9428 945.6689,-754.4454 994.5017,-735.0658 1054.2093,-728.8818 1097.6707,-727.2152"/>
<polygon fill="#ff0000" stroke="#ff0000" points="1097.9112,-730.7095 1107.7963,-726.897 1097.6912,-723.7129 1097.9112,-730.7095"/>
</g>
<!-- onClickedExport&#45;&gt;snackbarQueue -->
<g id="edge22" class="edge">
<title>onClickedExport&#45;&gt;snackbarQueue</title>
<path fill="none" stroke="#ff0000" d="M348.3832,-1178.1917C361.3327,-1174.2661 374.5023,-1168.8645 385.6423,-1161.4454 718.9915,-939.44 596.8446,-652.244 945.6689,-455.4454 985.9757,-432.7053 1037.3697,-425.7483 1079.3707,-424.5764"/>
<polygon fill="#ff0000" stroke="#ff0000" points="1079.6194,-428.0727 1089.5569,-424.399 1079.4974,-421.0738 1079.6194,-428.0727"/>
</g>
<!-- onClickedExport&#45;&gt;compDialExport -->
<g id="edge39" class="edge">
<title>onClickedExport&#45;&gt;compDialExport</title>
<path fill="none" stroke="#0000ff" d="M349.6902,-1178.7521C362.3678,-1174.8052 375.092,-1169.2535 385.6423,-1161.4454 755.5753,-887.6642 541.7154,-510.9634 945.6689,-290.4454 1029.6312,-244.6105 1281.0341,-280.1002 1376.1314,-290.4454 1405.8189,-293.675 1825.4537,-388.3015 1961.0056,-418.9594"/>
<polygon fill="#0000ff" stroke="#0000ff" points="1960.4836,-422.4297 1971.0095,-421.2226 1962.0282,-415.6023 1960.4836,-422.4297"/>
</g>
<!-- onNew&#45;&gt;timelineNameSignal -->
<g id="edge27" class="edge">
<title>onNew&#45;&gt;timelineNameSignal</title>
<path fill="none" stroke="#ff0000" d="M324.1958,-1235.8727C342.9374,-1231.5258 366.2193,-1224.8677 385.6423,-1215.4454 662.4769,-1081.1511 659.6782,-921.9428 945.6689,-808.4454 989.0019,-791.2484 1040.8981,-784.4421 1082.4067,-781.9626"/>
<polygon fill="#ff0000" stroke="#ff0000" points="1082.6494,-785.4548 1092.4517,-781.4341 1082.2816,-778.4645 1082.6494,-785.4548"/>
</g>
<!-- onNew&#45;&gt;timeScaleSignal -->
<g id="edge26" class="edge">
<title>onNew&#45;&gt;timeScaleSignal</title>
<path fill="none" stroke="#ff0000" d="M324.4257,-1236.329C343.2369,-1232.1203 366.512,-1225.4485 385.6423,-1215.4454 671.3276,-1066.0636 649.7381,-882.3361 945.6689,-754.4454 994.0528,-733.5356 1054.0596,-727.5416 1097.7369,-726.335"/>
<polygon fill="#ff0000" stroke="#ff0000" points="1097.9841,-729.8309 1107.9123,-726.1319 1097.8444,-722.8323 1097.9841,-729.8309"/>
</g>
<!-- onNew&#45;&gt;compTopBar -->
<g id="edge56" class="edge">
<title>onNew&#45;&gt;compTopBar</title>
<path fill="none" stroke="#0000ff" d="M325.8196,-1239.2347C345.2857,-1235.9094 368.7432,-1229.1545 385.6423,-1215.4454 802.1784,-877.5404 486.7667,-424.0979 945.6689,-146.4454 1120.7757,-40.4995 1784.8379,-207.8662 1960.2132,-254.779"/>
<polygon fill="#0000ff" stroke="#0000ff" points="1959.5386,-258.2218 1970.1043,-257.436 1961.3547,-251.4615 1959.5386,-258.2218"/>
</g>
<!-- onTimelineNameEdit&#45;&gt;timelineNameSignal -->
<g id="edge29" class="edge">
<title>onTimelineNameEdit&#45;&gt;timelineNameSignal</title>
<path fill="none" stroke="#ff0000" d="M326.4313,-1118.0206C344.5485,-1112.4924 366.577,-1106.1187 385.6423,-1098.4454 647.3923,-993.0986 676.858,-885.1876 945.6689,-799.4454 990.8983,-785.0187 1043.9011,-778.2716 1085.4986,-776.2656"/>
<polygon fill="#ff0000" stroke="#ff0000" points="1085.6923,-779.7608 1095.5446,-775.8645 1085.4129,-772.7664 1085.6923,-779.7608"/>
</g>
<!-- onTimelineNameEdit&#45;&gt;compTopBar -->
<g id="edge57" class="edge">
<title>onTimelineNameEdit&#45;&gt;compTopBar</title>
<path fill="none" stroke="#0000ff" d="M357.0257,-1122.8468C367.2798,-1119.0733 377.2321,-1114.0725 385.6423,-1107.4454 785.4441,-792.4119 506.4767,-365.7347 945.6689,-108.4454 1123.5734,-4.2248 1789.1255,-199.9547 1961.7779,-253.4585"/>
<polygon fill="#0000ff" stroke="#0000ff" points="1960.913,-256.8548 1971.5013,-256.4831 1962.9922,-250.1707 1960.913,-256.8548"/>
</g>
<!-- onTimeScaleEdit&#45;&gt;timeScaleSignal -->
<g id="edge32" class="edge">
<title>onTimeScaleEdit&#45;&gt;timeScaleSignal</title>
<path fill="none" stroke="#ff0000" d="M324.6179,-1064.5753C343.0643,-1058.9194 365.9361,-1052.3766 385.6423,-1044.4454 647.3923,-939.0986 676.858,-831.1876 945.6689,-745.4454 996.5373,-729.22 1057.2382,-722.7086 1100.488,-721.7308"/>
<polygon fill="#ff0000" stroke="#ff0000" points="1100.5857,-725.2299 1110.5394,-721.6001 1100.4947,-718.2305 1100.5857,-725.2299"/>
</g>
<!-- onTimeScaleEdit&#45;&gt;compBottomBar -->
<g id="edge61" class="edge">
<title>onTimeScaleEdit&#45;&gt;compBottomBar</title>
<path fill="none" stroke="#0000ff" d="M349.6927,-1070.3315C362.3009,-1066.4083 374.9954,-1060.9726 385.6423,-1053.4454 737.9604,-804.3658 562.5485,-458.908 945.6689,-260.4454 1124.4367,-167.8408 1766.0325,-315.7875 1952.0292,-361.6082"/>
<polygon fill="#0000ff" stroke="#0000ff" points="1951.2793,-365.0281 1961.8271,-364.0315 1952.96,-358.2328 1951.2793,-365.0281"/>
</g>
<!-- onSettingsEdit&#45;&gt;settingsSignal -->
<g id="edge35" class="edge">
<title>onSettingsEdit&#45;&gt;settingsSignal</title>
<path fill="none" stroke="#ff0000" d="M326.7039,-1335.7391C345.0923,-1330.5812 367.2772,-1324.0484 385.6423,-1314.4454 671.3276,-1165.0636 649.7381,-981.3361 945.6689,-853.4454 999.2368,-830.2953 1067.0516,-825.4284 1111.1792,-827.2093"/>
<polygon fill="#ff0000" stroke="#ff0000" points="1111.1408,-830.7123 1121.3159,-827.7598 1111.5205,-823.7226 1111.1408,-830.7123"/>
</g>
<!-- onSettingsEdit&#45;&gt;compTopBar -->
<g id="edge58" class="edge">
<title>onSettingsEdit&#45;&gt;compTopBar</title>
<path fill="none" stroke="#0000ff" d="M346.1379,-1342.5269C360.1084,-1338.5255 374.3116,-1332.5045 385.6423,-1323.4454 793.5414,-997.3275 499.9978,-562.6803 945.6689,-290.4454 1117.901,-185.2388 1774.079,-243.037 1955.9291,-261.4543"/>
<polygon fill="#0000ff" stroke="#0000ff" points="1955.6724,-264.9462 1965.9764,-262.4809 1956.384,-257.9825 1955.6724,-264.9462"/>
</g>
<!-- compTopBar&#45;&gt;compIndex -->
<g id="edge67" class="edge">
<title>compTopBar&#45;&gt;compIndex</title>
<path fill="none" stroke="#000000" d="M2037.0983,-274.1412C2053.649,-278.5783 2073.4997,-284.9764 2090.1931,-293.4454 2198.8569,-348.5737 2309.5905,-444.0139 2356.9925,-487.1444"/>
<polygon fill="#000000" stroke="#000000" points="2354.8328,-489.9126 2364.5708,-494.0867 2359.5613,-484.751 2354.8328,-489.9126"/>
</g>
<!-- compBottomBar&#45;&gt;zoomSignal -->
<g id="edge62" class="edge">
<title>compBottomBar&#45;&gt;zoomSignal</title>
<path fill="none" stroke="#ff0000" d="M1952.8037,-373.8304C1937.7312,-377.0198 1921.513,-382.1666 1907.6072,-389.4454 1629.7983,-534.8611 1662.4282,-725.5486 1376.1314,-853.4454 1318.4735,-879.2029 1244.2805,-882.9951 1198.6823,-884.8182"/>
<polygon fill="#ff0000" stroke="#ff0000" points="1198.4225,-881.3257 1188.5685,-885.2179 1198.699,-888.3202 1198.4225,-881.3257"/>
</g>
<!-- compBottomBar&#45;&gt;compIndex -->
<g id="edge68" class="edge">
<title>compBottomBar&#45;&gt;compIndex</title>
<path fill="none" stroke="#000000" d="M2044.0001,-384.8701C2058.6693,-388.8209 2075.2565,-393.5532 2090.1931,-398.4454 2184.1987,-429.2358 2292.4495,-472.766 2346.4764,-495.0601"/>
<polygon fill="#000000" stroke="#000000" points="2345.3394,-498.3774 2355.9178,-498.9679 2348.0165,-491.9095 2345.3394,-498.3774"/>
</g>
<!-- compSnackbar&#45;&gt;compIndex -->
<g id="edge69" class="edge">
<title>compSnackbar&#45;&gt;compIndex</title>
<path fill="none" stroke="#000000" d="M2040.0377,-330.0781C2055.7762,-334.6329 2074.1494,-340.583 2090.1931,-347.4454 2190.1686,-390.2086 2300.2631,-457.6503 2351.5661,-490.3738"/>
<polygon fill="#000000" stroke="#000000" points="2349.8485,-493.4301 2360.1562,-495.8797 2353.6259,-487.5368 2349.8485,-493.4301"/>
</g>
<!-- compDialImport&#45;&gt;importQueues -->
<g id="edge38" class="edge">
<title>compDialImport&#45;&gt;importQueues</title>
<path fill="none" stroke="#ff0000" d="M1967.8721,-533.5412C1848.6185,-529.09 1455.2107,-528.5028 1263.6224,-531.7795"/>
<polygon fill="#ff0000" stroke="#ff0000" points="1263.471,-528.2816 1253.5349,-531.9591 1263.5957,-535.2805 1263.471,-528.2816"/>
</g>
<!-- compDialImport&#45;&gt;compIndex -->
<g id="edge70" class="edge">
<title>compDialImport&#45;&gt;compIndex</title>
<path fill="none" stroke="#000000" d="M2037.7839,-533.9537C2107.8126,-528.9517 2265.1847,-517.7108 2339.9548,-512.3701"/>
<polygon fill="#000000" stroke="#000000" points="2340.6416,-515.8301 2350.3668,-511.6264 2340.1428,-508.8478 2340.6416,-515.8301"/>
</g>
<!-- compDialExport&#45;&gt;compIndex -->
<g id="edge71" class="edge">
<title>compDialExport&#45;&gt;compIndex</title>
<path fill="none" stroke="#000000" d="M2034.8024,-435.2817C2103.905,-450.0894 2267.2115,-485.0836 2342.1229,-501.136"/>
<polygon fill="#000000" stroke="#000000" points="2341.5762,-504.5983 2352.0876,-503.2713 2343.0429,-497.7536 2341.5762,-504.5983"/>
</g>
<!-- compDialNew&#45;&gt;newQueues -->
<g id="edge42" class="edge">
<title>compDialNew&#45;&gt;newQueues</title>
<path fill="none" stroke="#ff0000" d="M1975.6291,-479.8531C1865.3859,-475.0598 1449.3824,-474.4111 1256.3794,-477.907"/>
<polygon fill="#ff0000" stroke="#ff0000" points="1256.1687,-474.4103 1246.2366,-478.0986 1256.301,-481.409 1256.1687,-474.4103"/>
</g>
<!-- compDialNew&#45;&gt;compIndex -->
<g id="edge72" class="edge">
<title>compDialNew&#45;&gt;compIndex</title>
<path fill="none" stroke="#000000" d="M2030.085,-484.3872C2095.5641,-489.0643 2262.3353,-500.9765 2339.9776,-506.5224"/>
<polygon fill="#000000" stroke="#000000" points="2340.0979,-510.0398 2350.3219,-507.2613 2340.5967,-503.0576 2340.0979,-510.0398"/>
</g>
<!-- compDialTimelineNameEdit&#45;&gt;timelineNameEditQueues -->
<g id="edge53" class="edge">
<title>compDialTimelineNameEdit&#45;&gt;timelineNameEditQueues</title>
<path fill="none" stroke="#ff0000" d="M1932.7855,-636.0373C1796.2416,-624.1003 1491.9286,-604.2173 1307.6001,-594.7556"/>
<polygon fill="#ff0000" stroke="#ff0000" points="1307.7145,-591.2569 1297.5495,-594.244 1307.3586,-598.2479 1307.7145,-591.2569"/>
</g>
<!-- compDialTimelineNameEdit&#45;&gt;compIndex -->
<g id="edge73" class="edge">
<title>compDialTimelineNameEdit&#45;&gt;compIndex</title>
<path fill="none" stroke="#000000" d="M2051.0808,-630.0693C2063.8424,-626.118 2077.5775,-621.7361 2090.1931,-617.4454 2183.2862,-585.7835 2291.5085,-544.3305 2345.8934,-523.1709"/>
<polygon fill="#000000" stroke="#000000" points="2347.3598,-526.3559 2355.4059,-519.4631 2344.8176,-519.8338 2347.3598,-526.3559"/>
</g>
<!-- compDialTimeScaleEdit&#45;&gt;timeScaleEditQueues -->
<g id="edge49" class="edge">
<title>compDialTimeScaleEdit&#45;&gt;timeScaleEditQueues</title>
<path fill="none" stroke="#ff0000" d="M1973.2391,-574.4661C1954.4116,-567.9326 1929.5479,-560.897 1907.6072,-554.4454 1670.6957,-484.7833 1617.6883,-443.7302 1376.1314,-392.4454 1349.5708,-386.8064 1320.932,-382.2212 1293.3964,-378.7288"/>
<polygon fill="#ff0000" stroke="#ff0000" points="1293.6592,-375.2349 1283.3075,-377.4916 1292.8071,-382.1828 1293.6592,-375.2349"/>
</g>
<!-- compDialTimeScaleEdit&#45;&gt;compIndex -->
<g id="edge74" class="edge">
<title>compDialTimeScaleEdit&#45;&gt;compIndex</title>
<path fill="none" stroke="#000000" d="M2053.8789,-579.5214C2130.359,-563.1328 2273.1381,-532.5373 2341.907,-517.8011"/>
<polygon fill="#000000" stroke="#000000" points="2342.849,-521.1788 2351.8936,-515.6611 2341.3822,-514.3342 2342.849,-521.1788"/>
</g>
<!-- compDialSettingsEdit&#45;&gt;settingsEditQueues -->
<g id="edge45" class="edge">
<title>compDialSettingsEdit&#45;&gt;settingsEditQueues</title>
<path fill="none" stroke="#ff0000" d="M1952.6678,-691.8308C1819.6936,-679.4007 1455.9981,-655.732 1269.8807,-646.8865"/>
<polygon fill="#ff0000" stroke="#ff0000" points="1269.9435,-643.3857 1259.7906,-646.4135 1269.6157,-650.3781 1269.9435,-643.3857"/>
</g>
<!-- compDialSettingsEdit&#45;&gt;compIndex -->
<g id="edge75" class="edge">
<title>compDialSettingsEdit&#45;&gt;compIndex</title>
<path fill="none" stroke="#000000" d="M2045.2761,-687.2729C2059.7572,-682.9489 2075.8996,-677.5593 2090.1931,-671.4454 2190.1686,-628.6823 2300.2631,-561.2406 2351.5661,-528.5171"/>
<polygon fill="#000000" stroke="#000000" points="2353.6259,-531.3541 2360.1562,-523.0111 2349.8485,-525.4608 2353.6259,-531.3541"/>
</g>
</g>
</svg>
