<?xml version="1.0" encoding="UTF-8" standalone="no"?>
<!DOCTYPE svg PUBLIC "-//W3C//DTD SVG 1.1//EN"
 "http://www.w3.org/Graphics/SVG/1.1/DTD/svg11.dtd">
<!-- Generated by graphviz version 2.43.0 (0)
 -->
<!-- Title: SignalsAndQueues Pages: 1 -->
<svg width="2510pt" height="1500pt"
 viewBox="0.00 0.00 2509.96 1500.22" xmlns="http://www.w3.org/2000/svg" xmlns:xlink="http://www.w3.org/1999/xlink">
<g id="graph0" class="graph" transform="scale(1 1) rotate(0) translate(4 1496.22)">
<title>SignalsAndQueues</title>
<polygon fill="white" stroke="transparent" points="-4,4 -4,-1496.22 2505.96,-1496.22 2505.96,4 -4,4"/>
<g id="clust1" class="cluster">
<title>cluster_1</title>
<polygon fill="#000000" fill-opacity="0.058824" stroke="#000000" stroke-opacity="0.058824" points="981.08,-711.22 981.08,-948.22 1351.42,-948.22 1351.42,-711.22 981.08,-711.22"/>
<text text-anchor="middle" x="1166.25" y="-933.02" font-family="Times,serif" font-size="14.00">Signals</text>
</g>
<g id="clust2" class="cluster">
<title>cluster_2</title>
<polygon fill="#000000" fill-opacity="0.058824" stroke="#000000" stroke-opacity="0.058824" points="764.15,-304.22 764.15,-703.22 1568.35,-703.22 1568.35,-304.22 764.15,-304.22"/>
<text text-anchor="middle" x="1166.25" y="-688.02" font-family="Times,serif" font-size="14.00">Queues</text>
</g>
<g id="clust3" class="cluster">
<title>cluster_3</title>
<polygon fill="#000000" fill-opacity="0.058824" stroke="#000000" stroke-opacity="0.058824" points="17.23,-956.22 17.23,-1484.22 1753.09,-1484.22 1753.09,-956.22 17.23,-956.22"/>
<text text-anchor="middle" x="885.16" y="-1469.02" font-family="Times,serif" font-size="14.00">Plumbing</text>
</g>
<g id="clust4" class="cluster">
<title>cluster_4</title>
<polygon fill="#000000" fill-opacity="0.058824" stroke="#000000" stroke-opacity="0.058824" points="34.45,-1010.22 34.45,-1409.22 536.35,-1409.22 536.35,-1010.22 34.45,-1010.22"/>
<text text-anchor="middle" x="285.4" y="-1394.02" font-family="Times,serif" font-size="14.00">Logic Functions</text>
</g>
<g id="clust5" class="cluster">
<title>cluster_5</title>
<polygon fill="#000000" fill-opacity="0.058824" stroke="#000000" stroke-opacity="0.058824" points="1778.93,-250.22 1778.93,-788.22 2484.73,-788.22 2484.73,-250.22 1778.93,-250.22"/>
<text text-anchor="middle" x="2131.83" y="-773.02" font-family="Times,serif" font-size="14.00">Components</text>
</g>
<g id="clust6" class="cluster">
<title>cluster_6</title>
<polygon fill="#000000" fill-opacity="0.058824" stroke="#000000" stroke-opacity="0.058824" points="1796.15,-412.22 1796.15,-757.22 2250.47,-757.22 2250.47,-412.22 1796.15,-412.22"/>
<text text-anchor="middle" x="2023.31" y="-742.02" font-family="Times,serif" font-size="14.00">Dialogs</text>
</g>
<!-- settingsSignal -->
<g id="node1" class="node">
<title>settingsSignal</title>
<ellipse fill="#ffffbb" stroke="black" stroke-width="0" cx="1166.73" cy="-845.22" rx="50.09" ry="18"/>
<text text-anchor="middle" x="1166.73" y="-841.52" font-family="Times,serif" font-size="14.00">Settings</text>
</g>
<!-- newTimelineNameSignal -->
<g id="node13" class="node">
<title>newTimelineNameSignal</title>
<ellipse fill="#ffffbb" stroke="black" stroke-width="0" cx="1166.73" cy="-1036.22" rx="264.55" ry="18"/>
<text text-anchor="middle" x="1166.73" y="-1032.52" font-family="Times,serif" font-size="14.00">Timeline.Data.TimelineName.newTimelineNameSignal</text>
</g>
<!-- settingsSignal&#45;&gt;newTimelineNameSignal -->
<g id="edge2" class="edge">
<title>settingsSignal&#45;&gt;newTimelineNameSignal</title>
<path fill="none" stroke="#00ff00" d="M1118.11,-840.7C1002.12,-831.1 714.3,-814.67 652.24,-881.22 616.17,-919.9 616.17,-961.54 652.24,-1000.22 694.49,-1045.53 841.39,-1052.37 967.46,-1049.1"/>
<polygon fill="#00ff00" stroke="#00ff00" points="967.76,-1052.59 977.65,-1048.81 967.56,-1045.6 967.76,-1052.59"/>
</g>
<!-- newTimeScaleSignal -->
<g id="node14" class="node">
<title>newTimeScaleSignal</title>
<ellipse fill="#ffffbb" stroke="black" stroke-width="0" cx="1166.73" cy="-1090.22" rx="225.56" ry="18"/>
<text text-anchor="middle" x="1166.73" y="-1086.52" font-family="Times,serif" font-size="14.00">Timeline.Data.TimeScale.newTimeScaleSignal</text>
</g>
<!-- settingsSignal&#45;&gt;newTimeScaleSignal -->
<g id="edge3" class="edge">
<title>settingsSignal&#45;&gt;newTimeScaleSignal</title>
<path fill="none" stroke="#00ff00" d="M1118.11,-840.7C1002.12,-831.1 714.3,-814.67 652.24,-881.22 599.8,-937.45 599.8,-997.99 652.24,-1054.22 766.64,-1176.91 989.14,-1139.3 1100.26,-1110.31"/>
<polygon fill="#00ff00" stroke="#00ff00" points="1101.24,-1113.67 1110.01,-1107.72 1099.44,-1106.91 1101.24,-1113.67"/>
</g>
<!-- onImport -->
<g id="node17" class="node">
<title>onImport</title>
<ellipse fill="#bbbbff" stroke="black" stroke-width="0" cx="285.73" cy="-1306.22" rx="53.89" ry="18"/>
<text text-anchor="middle" x="285.73" y="-1302.52" font-family="Times,serif" font-size="14.00">onImport</text>
</g>
<!-- settingsSignal&#45;&gt;onImport -->
<g id="edge20" class="edge">
<title>settingsSignal&#45;&gt;onImport</title>
<path fill="none" stroke="#00ff00" d="M1117.57,-848.59C1063.15,-849.31 972.95,-851.92 902.21,-881.22 637.5,-990.86 659.46,-1161.94 402.27,-1288.22 386.04,-1296.19 367.36,-1301.87 349.81,-1305.53"/>
<polygon fill="#00ff00" stroke="#00ff00" points="348.82,-1302.15 339.64,-1307.45 350.12,-1309.03 348.82,-1302.15"/>
</g>
<!-- onSettingsEdit -->
<g id="node23" class="node">
<title>onSettingsEdit</title>
<ellipse fill="#bbbbff" stroke="black" stroke-width="0" cx="285.73" cy="-1360.22" rx="80.69" ry="18"/>
<text text-anchor="middle" x="285.73" y="-1356.52" font-family="Times,serif" font-size="14.00">onSettingsEdit</text>
</g>
<!-- settingsSignal&#45;&gt;onSettingsEdit -->
<g id="edge36" class="edge">
<title>settingsSignal&#45;&gt;onSettingsEdit</title>
<path fill="none" stroke="#00ff00" d="M1116.73,-847.8C1061.95,-847.81 971.81,-849.85 902.21,-881.22 626.67,-1005.43 669.34,-1200.72 402.27,-1342.22 393.6,-1346.81 384.16,-1350.63 374.53,-1353.75"/>
<polygon fill="#00ff00" stroke="#00ff00" points="373.45,-1350.42 364.87,-1356.63 375.45,-1357.13 373.45,-1350.42"/>
</g>
<!-- compIndex -->
<g id="node24" class="node">
<title>compIndex</title>
<ellipse fill="#ffffbb" stroke="black" stroke-width="0" cx="2388.73" cy="-519.22" rx="36.29" ry="18"/>
<text text-anchor="middle" x="2388.73" y="-515.52" font-family="Times,serif" font-size="14.00">Index</text>
</g>
<!-- settingsSignal&#45;&gt;compIndex -->
<g id="edge66" class="edge">
<title>settingsSignal&#45;&gt;compIndex</title>
<path fill="none" stroke="#00ff00" d="M1213.92,-851.4C1357.28,-868.51 1804.45,-906.17 2129.22,-761.22 2239.34,-712.07 2332.48,-596.16 2370.01,-544.66"/>
<polygon fill="#00ff00" stroke="#00ff00" points="2372.96,-546.55 2375.96,-536.39 2367.28,-542.46 2372.96,-546.55"/>
</g>
<!-- compTopBar -->
<g id="node25" class="node">
<title>compTopBar</title>
<ellipse fill="#ffffbb" stroke="black" stroke-width="0" cx="2023.73" cy="-276.22" rx="44.39" ry="18"/>
<text text-anchor="middle" x="2023.73" y="-272.52" font-family="Times,serif" font-size="14.00">TopBar</text>
</g>
<!-- settingsSignal&#45;&gt;compTopBar -->
<g id="edge60" class="edge">
<title>settingsSignal&#45;&gt;compTopBar</title>
<path fill="none" stroke="#00ff00" d="M1214.95,-850.36C1271.43,-854.37 1367.37,-854.25 1439.26,-818.22 1716.56,-679.25 1643.06,-460.77 1910.24,-303.22 1928.45,-292.49 1950.69,-286.01 1970.58,-282.11"/>
<polygon fill="#00ff00" stroke="#00ff00" points="1971.2,-285.56 1980.42,-280.35 1969.96,-278.67 1971.2,-285.56"/>
</g>
<!-- compDialTimelineNameEdit -->
<g id="node31" class="node">
<title>compDialTimelineNameEdit</title>
<ellipse fill="#bbbbff" stroke="black" stroke-width="0" cx="2023.73" cy="-654.22" rx="97.48" ry="18"/>
<text text-anchor="middle" x="2023.73" y="-650.52" font-family="Times,serif" font-size="14.00">TimelineNameEdit</text>
</g>
<!-- settingsSignal&#45;&gt;compDialTimelineNameEdit -->
<g id="edge51" class="edge">
<title>settingsSignal&#45;&gt;compDialTimelineNameEdit</title>
<path fill="none" stroke="#00ff00" d="M1216.68,-843.07C1271.35,-840.03 1362.29,-833.11 1439.26,-818.22 1653.29,-776.81 1699.53,-737.12 1910.24,-681.22 1923.75,-677.63 1938.23,-674 1952.16,-670.62"/>
<polygon fill="#00ff00" stroke="#00ff00" points="1953.28,-673.95 1962.18,-668.2 1951.63,-667.14 1953.28,-673.95"/>
</g>
<!-- compDialTimeScaleEdit -->
<g id="node32" class="node">
<title>compDialTimeScaleEdit</title>
<ellipse fill="#bbbbff" stroke="black" stroke-width="0" cx="2023.73" cy="-600.22" rx="77.99" ry="18"/>
<text text-anchor="middle" x="2023.73" y="-596.52" font-family="Times,serif" font-size="14.00">TimeScaleEdit</text>
</g>
<!-- settingsSignal&#45;&gt;compDialTimeScaleEdit -->
<g id="edge47" class="edge">
<title>settingsSignal&#45;&gt;compDialTimeScaleEdit</title>
<path fill="none" stroke="#00ff00" d="M1217.01,-844.53C1271.96,-842.8 1363.15,-837.02 1439.26,-818.22 1658.55,-764.05 1695.15,-696.22 1910.24,-627.22 1924.75,-622.56 1940.55,-618.3 1955.58,-614.6"/>
<polygon fill="#00ff00" stroke="#00ff00" points="1956.43,-617.99 1965.34,-612.25 1954.79,-611.19 1956.43,-617.99"/>
</g>
<!-- compDialSettingsEdit -->
<g id="node33" class="node">
<title>compDialSettingsEdit</title>
<ellipse fill="#bbbbff" stroke="black" stroke-width="0" cx="2023.73" cy="-708.22" rx="69.59" ry="18"/>
<text text-anchor="middle" x="2023.73" y="-704.52" font-family="Times,serif" font-size="14.00">SettingsEdit</text>
</g>
<!-- settingsSignal&#45;&gt;compDialSettingsEdit -->
<g id="edge43" class="edge">
<title>settingsSignal&#45;&gt;compDialSettingsEdit</title>
<path fill="none" stroke="#00ff00" d="M1215.95,-841.7C1270.36,-837.44 1361.42,-829.41 1439.26,-818.22 1630.03,-790.81 1853.37,-744.76 1959.95,-721.92"/>
<polygon fill="#00ff00" stroke="#00ff00" points="1960.85,-725.31 1969.89,-719.78 1959.38,-718.46 1960.85,-725.31"/>
</g>
<!-- timelineNameSignal -->
<g id="node2" class="node">
<title>timelineNameSignal</title>
<ellipse fill="#ffffbb" stroke="black" stroke-width="0" cx="1166.73" cy="-791.22" rx="77.99" ry="18"/>
<text text-anchor="middle" x="1166.73" y="-787.52" font-family="Times,serif" font-size="14.00">TimelineName</text>
</g>
<!-- timelineNameSignal&#45;&gt;onImport -->
<g id="edge18" class="edge">
<title>timelineNameSignal&#45;&gt;onImport</title>
<path fill="none" stroke="#00ff00" d="M1091.21,-786.55C1036.58,-785.99 961.85,-791.33 902.21,-818.22 626.67,-942.43 669.34,-1137.72 402.27,-1279.22 385.22,-1288.25 365.18,-1294.29 346.62,-1298.32"/>
<polygon fill="#00ff00" stroke="#00ff00" points="345.9,-1294.89 336.78,-1300.3 347.28,-1301.75 345.9,-1294.89"/>
</g>
<!-- onTimelineNameEdit -->
<g id="node21" class="node">
<title>onTimelineNameEdit</title>
<ellipse fill="#bbbbff" stroke="black" stroke-width="0" cx="285.73" cy="-1144.22" rx="108.58" ry="18"/>
<text text-anchor="middle" x="285.73" y="-1140.52" font-family="Times,serif" font-size="14.00">onTimelineNameEdit</text>
</g>
<!-- timelineNameSignal&#45;&gt;onTimelineNameEdit -->
<g id="edge30" class="edge">
<title>timelineNameSignal&#45;&gt;onTimelineNameEdit</title>
<path fill="none" stroke="#00ff00" d="M1093.79,-797.66C1039.8,-800.48 964.73,-806.46 902.21,-827.22 656.5,-908.8 642.29,-1029.16 402.27,-1126.22 397.56,-1128.13 392.68,-1129.91 387.71,-1131.58"/>
<polygon fill="#00ff00" stroke="#00ff00" points="386.54,-1128.28 378.07,-1134.65 388.66,-1134.96 386.54,-1128.28"/>
</g>
<!-- timelineNameSignal&#45;&gt;compTopBar -->
<g id="edge59" class="edge">
<title>timelineNameSignal&#45;&gt;compTopBar</title>
<path fill="none" stroke="#00ff00" d="M1241.21,-796.78C1297.91,-798.1 1376.91,-793.33 1439.26,-764.22 1704.66,-640.28 1653.91,-444.96 1910.24,-303.22 1928.81,-292.95 1951.21,-286.56 1971.12,-282.59"/>
<polygon fill="#00ff00" stroke="#00ff00" points="1971.76,-286.03 1980.97,-280.78 1970.5,-279.15 1971.76,-286.03"/>
</g>
<!-- timelineNameSignal&#45;&gt;compDialTimelineNameEdit -->
<g id="edge50" class="edge">
<title>timelineNameSignal&#45;&gt;compDialTimelineNameEdit</title>
<path fill="none" stroke="#00ff00" d="M1241.12,-785.67C1295.88,-781.1 1372.44,-773.82 1439.26,-764.22 1624.29,-737.63 1839.95,-693.52 1950.01,-670.05"/>
<polygon fill="#00ff00" stroke="#00ff00" points="1950.96,-673.42 1960,-667.91 1949.49,-666.58 1950.96,-673.42"/>
</g>
<!-- timeScaleSignal -->
<g id="node3" class="node">
<title>timeScaleSignal</title>
<ellipse fill="#ffffbb" stroke="black" stroke-width="0" cx="1166.73" cy="-737.22" rx="58.49" ry="18"/>
<text text-anchor="middle" x="1166.73" y="-733.52" font-family="Times,serif" font-size="14.00">TimeScale</text>
</g>
<!-- onTimeScaleEdit -->
<g id="node22" class="node">
<title>onTimeScaleEdit</title>
<ellipse fill="#bbbbff" stroke="black" stroke-width="0" cx="285.73" cy="-1090.22" rx="89.08" ry="18"/>
<text text-anchor="middle" x="285.73" y="-1086.52" font-family="Times,serif" font-size="14.00">onTimeScaleEdit</text>
</g>
<!-- timeScaleSignal&#45;&gt;onTimeScaleEdit -->
<g id="edge33" class="edge">
<title>timeScaleSignal&#45;&gt;onTimeScaleEdit</title>
<path fill="none" stroke="#00ff00" d="M1111.05,-742.82C1056.72,-745.33 971.72,-750.14 902.21,-773.22 656.5,-854.8 642.29,-975.16 402.27,-1072.22 394.52,-1075.36 386.32,-1078.18 378,-1080.67"/>
<polygon fill="#00ff00" stroke="#00ff00" points="376.88,-1077.35 368.22,-1083.44 378.79,-1084.08 376.88,-1077.35"/>
</g>
<!-- compBottomBar -->
<g id="node26" class="node">
<title>compBottomBar</title>
<ellipse fill="#ffffbb" stroke="black" stroke-width="0" cx="2023.73" cy="-384.22" rx="61.99" ry="18"/>
<text text-anchor="middle" x="2023.73" y="-380.52" font-family="Times,serif" font-size="14.00">BottomBar</text>
</g>
<!-- timeScaleSignal&#45;&gt;compBottomBar -->
<g id="edge64" class="edge">
<title>timeScaleSignal&#45;&gt;compBottomBar</title>
<path fill="none" stroke="#00ff00" d="M1225.29,-738.32C1281.43,-737.68 1368.45,-732.1 1439.26,-707.22 1673.19,-625.04 1680.72,-502.01 1910.24,-408.22 1925.24,-402.09 1942.04,-397.43 1957.98,-393.93"/>
<polygon fill="#00ff00" stroke="#00ff00" points="1958.7,-397.36 1967.78,-391.9 1957.28,-390.51 1958.7,-397.36"/>
</g>
<!-- timeScaleSignal&#45;&gt;compDialTimeScaleEdit -->
<g id="edge46" class="edge">
<title>timeScaleSignal&#45;&gt;compDialTimeScaleEdit</title>
<path fill="none" stroke="#00ff00" d="M1223.01,-732.28C1277.98,-727.09 1364.65,-718.17 1439.26,-707.22 1627,-679.67 1846.74,-636.35 1955.16,-614.23"/>
<polygon fill="#00ff00" stroke="#00ff00" points="1955.89,-617.66 1964.99,-612.22 1954.49,-610.8 1955.89,-617.66"/>
</g>
<!-- zoomSignal -->
<g id="node4" class="node">
<title>zoomSignal</title>
<ellipse fill="#ffffbb" stroke="black" stroke-width="0" cx="1166.73" cy="-899.22" rx="36.29" ry="18"/>
<text text-anchor="middle" x="1166.73" y="-895.52" font-family="Times,serif" font-size="14.00">Zoom</text>
</g>
<!-- zoomSignal&#45;&gt;compBottomBar -->
<g id="edge63" class="edge">
<title>zoomSignal&#45;&gt;compBottomBar</title>
<path fill="none" stroke="#00ff00" d="M1198.8,-908.08C1251.14,-915.9 1359.06,-918.83 1439.26,-881.22 1705.3,-756.45 1651.54,-556.56 1910.24,-417.22 1927.6,-407.87 1948.31,-402.16 1967.2,-398.16"/>
<polygon fill="#00ff00" stroke="#00ff00" points="1968.06,-401.56 1977.17,-396.16 1966.68,-394.69 1968.06,-401.56"/>
</g>
<!-- importQueues -->
<g id="node5" class="node">
<title>importQueues</title>
<ellipse fill="#ffffbb" stroke="black" stroke-width="0" cx="1166.73" cy="-546.22" rx="123.48" ry="18"/>
<text text-anchor="middle" x="1166.73" y="-542.52" font-family="Times,serif" font-size="14.00">Import Dialog IOQueues</text>
</g>
<!-- importQueues&#45;&gt;onImport -->
<g id="edge17" class="edge">
<title>importQueues&#45;&gt;onImport</title>
<path fill="none" stroke="black" d="M1058.77,-537.46C1008.22,-538.05 948.88,-545.98 902.21,-573.22 570.16,-767.05 721.3,-1064.64 402.27,-1279.22 386.41,-1289.89 366.86,-1296.37 348.38,-1300.3"/>
<polygon fill="black" stroke="black" points="347.72,-1296.87 338.55,-1302.18 349.03,-1303.74 347.72,-1296.87"/>
</g>
<!-- compDialImport -->
<g id="node28" class="node">
<title>compDialImport</title>
<ellipse fill="#bbbbff" stroke="black" stroke-width="0" cx="2023.73" cy="-546.22" rx="42.49" ry="18"/>
<text text-anchor="middle" x="2023.73" y="-542.52" font-family="Times,serif" font-size="14.00">Import</text>
</g>
<!-- importQueues&#45;&gt;compDialImport -->
<g id="edge37" class="edge">
<title>importQueues&#45;&gt;compDialImport</title>
<path fill="none" stroke="#00ff00" d="M1285.72,-551.05C1474.61,-554.01 1837.26,-553.55 1971.3,-549.65"/>
<polygon fill="#00ff00" stroke="#00ff00" points="1971.79,-553.13 1981.67,-549.32 1971.57,-546.14 1971.79,-553.13"/>
</g>
<!-- exportQueue -->
<g id="node6" class="node">
<title>exportQueue</title>
<ellipse fill="#ffffbb" stroke="black" stroke-width="0" cx="1166.73" cy="-330.22" rx="107.78" ry="18"/>
<text text-anchor="middle" x="1166.73" y="-326.52" font-family="Times,serif" font-size="14.00">Export Dialog Queue</text>
</g>
<!-- compDialExport -->
<g id="node29" class="node">
<title>compDialExport</title>
<ellipse fill="#bbbbff" stroke="black" stroke-width="0" cx="2023.73" cy="-438.22" rx="42.49" ry="18"/>
<text text-anchor="middle" x="2023.73" y="-434.52" font-family="Times,serif" font-size="14.00">Export</text>
</g>
<!-- exportQueue&#45;&gt;compDialExport -->
<g id="edge40" class="edge">
<title>exportQueue&#45;&gt;compDialExport</title>
<path fill="none" stroke="#00ff00" d="M1262.08,-338.69C1314.34,-343.62 1380.46,-350.22 1439.26,-357.22 1637.63,-380.84 1872.98,-415.58 1973.39,-430.71"/>
<polygon fill="#00ff00" stroke="#00ff00" points="1973.12,-434.21 1983.53,-432.24 1974.17,-427.29 1973.12,-434.21"/>
</g>
<!-- newQueues -->
<g id="node7" class="node">
<title>newQueues</title>
<ellipse fill="#ffffbb" stroke="black" stroke-width="0" cx="1166.73" cy="-492.22" rx="112.38" ry="18"/>
<text text-anchor="middle" x="1166.73" y="-488.52" font-family="Times,serif" font-size="14.00">New Dialog IOQueues</text>
</g>
<!-- onNew -->
<g id="node20" class="node">
<title>onNew</title>
<ellipse fill="#bbbbff" stroke="black" stroke-width="0" cx="285.73" cy="-1252.22" rx="42.79" ry="18"/>
<text text-anchor="middle" x="285.73" y="-1248.52" font-family="Times,serif" font-size="14.00">onNew</text>
</g>
<!-- newQueues&#45;&gt;onNew -->
<g id="edge25" class="edge">
<title>newQueues&#45;&gt;onNew</title>
<path fill="none" stroke="black" d="M1068.34,-483.43C1015.85,-483.12 951.86,-490.24 902.21,-519.22 570.16,-713.05 721.3,-1010.64 402.27,-1225.22 383.54,-1237.82 359.68,-1244.58 338.51,-1248.19"/>
<polygon fill="black" stroke="black" points="337.73,-1244.77 328.37,-1249.72 338.78,-1251.69 337.73,-1244.77"/>
</g>
<!-- compDialNew -->
<g id="node30" class="node">
<title>compDialNew</title>
<ellipse fill="#bbbbff" stroke="black" stroke-width="0" cx="2023.73" cy="-492.22" rx="31.7" ry="18"/>
<text text-anchor="middle" x="2023.73" y="-488.52" font-family="Times,serif" font-size="14.00">New</text>
</g>
<!-- newQueues&#45;&gt;compDialNew -->
<g id="edge41" class="edge">
<title>newQueues&#45;&gt;compDialNew</title>
<path fill="none" stroke="#00ff00" d="M1275.59,-496.89C1466.4,-500.11 1855.33,-499.59 1981.92,-495.32"/>
<polygon fill="#00ff00" stroke="#00ff00" points="1982.1,-498.81 1991.96,-494.95 1981.84,-491.82 1982.1,-498.81"/>
</g>
<!-- settingsEditQueues -->
<g id="node8" class="node">
<title>settingsEditQueues</title>
<ellipse fill="#ffffbb" stroke="black" stroke-width="0" cx="1166.73" cy="-654.22" rx="130.78" ry="18"/>
<text text-anchor="middle" x="1166.73" y="-650.52" font-family="Times,serif" font-size="14.00">Settings Dialog IOQueues</text>
</g>
<!-- settingsEditQueues&#45;&gt;onSettingsEdit -->
<g id="edge34" class="edge">
<title>settingsEditQueues&#45;&gt;onSettingsEdit</title>
<path fill="none" stroke="black" d="M1044.83,-660.81C997.62,-667.76 944.74,-681.28 902.21,-707.22 598.23,-892.62 703.33,-1143.11 402.27,-1333.22 391.55,-1339.99 379.31,-1345.06 366.89,-1348.87"/>
<polygon fill="black" stroke="black" points="365.62,-1345.59 356.93,-1351.65 367.5,-1352.33 365.62,-1345.59"/>
</g>
<!-- settingsEditQueues&#45;&gt;compDialSettingsEdit -->
<g id="edge44" class="edge">
<title>settingsEditQueues&#45;&gt;compDialSettingsEdit</title>
<path fill="none" stroke="#00ff00" d="M1270.02,-665.25C1442.68,-679.21 1788.34,-700.89 1943.79,-707.35"/>
<polygon fill="#00ff00" stroke="#00ff00" points="1944.07,-710.86 1954.2,-707.77 1944.35,-703.87 1944.07,-710.86"/>
</g>
<!-- timelineNameEditQueues -->
<g id="node9" class="node">
<title>timelineNameEditQueues</title>
<ellipse fill="#ffffbb" stroke="black" stroke-width="0" cx="1166.73" cy="-600.22" rx="178.97" ry="18"/>
<text text-anchor="middle" x="1166.73" y="-596.52" font-family="Times,serif" font-size="14.00">TimelineNameEdit Dialog IOQueues</text>
</g>
<!-- timelineNameEditQueues&#45;&gt;onTimelineNameEdit -->
<g id="edge28" class="edge">
<title>timelineNameEditQueues&#45;&gt;onTimelineNameEdit</title>
<path fill="none" stroke="black" d="M988.7,-601.84C958.88,-606.72 928.96,-614.67 902.21,-627.22 620.55,-759.38 674.94,-967.39 402.27,-1117.22 393.74,-1121.91 384.43,-1125.78 374.9,-1128.99"/>
<polygon fill="black" stroke="black" points="373.83,-1125.66 365.33,-1131.98 375.92,-1132.34 373.83,-1125.66"/>
</g>
<!-- timelineNameEditQueues&#45;&gt;compDialTimelineNameEdit -->
<g id="edge52" class="edge">
<title>timelineNameEditQueues&#45;&gt;compDialTimelineNameEdit</title>
<path fill="none" stroke="#00ff00" d="M1292.51,-613.04C1460.89,-626.18 1757.94,-644.85 1916.31,-652.14"/>
<polygon fill="#00ff00" stroke="#00ff00" points="1916.39,-655.65 1926.53,-652.6 1916.7,-648.65 1916.39,-655.65"/>
</g>
<!-- timeScaleEditQueues -->
<g id="node10" class="node">
<title>timeScaleEditQueues</title>
<ellipse fill="#ffffbb" stroke="black" stroke-width="0" cx="1166.73" cy="-384.22" rx="159.47" ry="18"/>
<text text-anchor="middle" x="1166.73" y="-380.52" font-family="Times,serif" font-size="14.00">TimeScaleEdit Dialog IOQueues</text>
</g>
<!-- timeScaleEditQueues&#45;&gt;onTimeScaleEdit -->
<g id="edge31" class="edge">
<title>timeScaleEditQueues&#45;&gt;onTimeScaleEdit</title>
<path fill="none" stroke="black" d="M1014.72,-378.86C976.14,-382.94 936.03,-392.33 902.21,-411.22 583.41,-589.28 709.09,-865.21 402.27,-1063.22 392.84,-1069.31 382.18,-1074.03 371.24,-1077.69"/>
<polygon fill="black" stroke="black" points="370.13,-1074.37 361.59,-1080.64 372.18,-1081.06 370.13,-1074.37"/>
</g>
<!-- timeScaleEditQueues&#45;&gt;compDialTimeScaleEdit -->
<g id="edge48" class="edge">
<title>timeScaleEditQueues&#45;&gt;compDialTimeScaleEdit</title>
<path fill="none" stroke="#00ff00" d="M1275.67,-397.37C1325.84,-401.96 1386.04,-408.59 1439.26,-420.22 1655.52,-467.49 1697.71,-520.32 1910.24,-582.22 1920.5,-585.21 1931.36,-588.12 1942.12,-590.78"/>
<polygon fill="#00ff00" stroke="#00ff00" points="1941.41,-594.21 1951.95,-593.14 1943.05,-587.4 1941.41,-594.21"/>
</g>
<!-- snackbarQueue -->
<g id="node11" class="node">
<title>snackbarQueue</title>
<ellipse fill="#ffffbb" stroke="black" stroke-width="0" cx="1166.73" cy="-438.22" rx="87.18" ry="18"/>
<text text-anchor="middle" x="1166.73" y="-434.52" font-family="Times,serif" font-size="14.00">Snackbar Queue</text>
</g>
<!-- compSnackbar -->
<g id="node27" class="node">
<title>compSnackbar</title>
<ellipse fill="#ffffbb" stroke="black" stroke-width="0" cx="2023.73" cy="-330.22" rx="53.89" ry="18"/>
<text text-anchor="middle" x="2023.73" y="-326.52" font-family="Times,serif" font-size="14.00">Snackbar</text>
</g>
<!-- snackbarQueue&#45;&gt;compSnackbar -->
<g id="edge65" class="edge">
<title>snackbarQueue&#45;&gt;compSnackbar</title>
<path fill="none" stroke="#00ff00" d="M1247.13,-431.14C1301.32,-426.11 1374.7,-418.91 1439.26,-411.22 1631.89,-388.28 1859.39,-354.87 1964.33,-339.09"/>
<polygon fill="#00ff00" stroke="#00ff00" points="1965.04,-342.53 1974.4,-337.58 1963.99,-335.6 1965.04,-342.53"/>
</g>
<!-- newSettingsSignal -->
<g id="node12" class="node">
<title>newSettingsSignal</title>
<ellipse fill="#ffffbb" stroke="black" stroke-width="0" cx="1166.73" cy="-982.22" rx="139.98" ry="18"/>
<text text-anchor="middle" x="1166.73" y="-978.52" font-family="Times,serif" font-size="14.00">Settings.newSettingsSignal</text>
</g>
<!-- newSettingsSignal&#45;&gt;settingsSignal -->
<g id="edge1" class="edge">
<title>newSettingsSignal&#45;&gt;settingsSignal</title>
<path fill="none" stroke="black" d="M1046.47,-991.47C860.69,-1002.26 536.77,-1005.05 652.24,-881.22 712.54,-816.55 986,-830.24 1107.85,-839.87"/>
<polygon fill="black" stroke="black" points="1107.86,-843.38 1118.11,-840.7 1108.42,-836.4 1107.86,-843.38"/>
</g>
<!-- newTimelineNameSignal&#45;&gt;timelineNameSignal -->
<g id="edge4" class="edge">
<title>newTimelineNameSignal&#45;&gt;timelineNameSignal</title>
<path fill="none" stroke="black" d="M977.65,-1048.81C849.42,-1052.72 695.63,-1046.76 652.24,-1000.22 599.8,-943.99 599.8,-883.45 652.24,-827.22 708.8,-766.57 952.87,-774.84 1083.49,-784.05"/>
<polygon fill="black" stroke="black" points="1083.62,-787.57 1093.85,-784.8 1084.12,-780.58 1083.62,-787.57"/>
</g>
<!-- newTimeScaleSignal&#45;&gt;timeScaleSignal -->
<g id="edge5" class="edge">
<title>newTimeScaleSignal&#45;&gt;timeScaleSignal</title>
<path fill="none" stroke="black" d="M1110.01,-1107.72C1002.67,-1136.89 770.09,-1180.61 652.24,-1054.22 567.07,-962.88 567.07,-864.56 652.24,-773.22 711.34,-709.84 975.19,-721.72 1100.39,-731.29"/>
<polygon fill="black" stroke="black" points="1100.37,-734.8 1110.61,-732.09 1100.91,-727.82 1100.37,-734.8"/>
</g>
<!-- newPrimarySignals -->
<g id="node15" class="node">
<title>newPrimarySignals</title>
<ellipse fill="#ffffbb" stroke="black" stroke-width="0" cx="285.73" cy="-1435.22" rx="101.28" ry="18"/>
<text text-anchor="middle" x="285.73" y="-1431.52" font-family="Times,serif" font-size="14.00">newPrimarySignals</text>
</g>
<!-- newPrimarySignals&#45;&gt;zoomSignal -->
<g id="edge9" class="edge">
<title>newPrimarySignals&#45;&gt;zoomSignal</title>
<path fill="none" stroke="black" d="M370.02,-1425.17C381.19,-1422.17 392.24,-1418.27 402.27,-1413.22 672.21,-1277.27 632.97,-1089.55 902.21,-952.22 972.7,-916.26 1065.43,-904.69 1120.01,-900.97"/>
<polygon fill="black" stroke="black" points="1120.31,-904.46 1130.07,-900.34 1119.87,-897.47 1120.31,-904.46"/>
</g>
<!-- newPrimarySignals&#45;&gt;newSettingsSignal -->
<g id="edge6" class="edge">
<title>newPrimarySignals&#45;&gt;newSettingsSignal</title>
<path fill="none" stroke="black" d="M368.8,-1424.8C380.33,-1421.85 391.81,-1418.07 402.27,-1413.22 661.47,-1293.12 638.08,-1118.06 902.21,-1009.22 937.82,-994.54 978.35,-986.58 1016.75,-982.51"/>
<polygon fill="black" stroke="black" points="1017.38,-985.96 1026.99,-981.51 1016.7,-979 1017.38,-985.96"/>
</g>
<!-- newPrimarySignals&#45;&gt;newTimelineNameSignal -->
<g id="edge7" class="edge">
<title>newPrimarySignals&#45;&gt;newTimelineNameSignal</title>
<path fill="none" stroke="black" d="M367.28,-1424.44C379.26,-1421.54 391.27,-1417.87 402.27,-1413.22 652.15,-1307.73 648.02,-1157.86 902.21,-1063.22 916.93,-1057.74 932.42,-1053.24 948.2,-1049.56"/>
<polygon fill="black" stroke="black" points="949.06,-1052.95 958.06,-1047.37 947.54,-1046.12 949.06,-1052.95"/>
</g>
<!-- newPrimarySignals&#45;&gt;newTimeScaleSignal -->
<g id="edge8" class="edge">
<title>newPrimarySignals&#45;&gt;newTimeScaleSignal</title>
<path fill="none" stroke="black" d="M361.88,-1423.31C375.45,-1420.48 389.38,-1417.13 402.27,-1413.22 685.62,-1327.37 1006.58,-1170.92 1121.74,-1112.77"/>
<polygon fill="black" stroke="black" points="1123.61,-1115.74 1130.95,-1108.11 1120.45,-1109.5 1123.61,-1115.74"/>
</g>
<!-- newPrimaryQueues -->
<g id="node16" class="node">
<title>newPrimaryQueues</title>
<ellipse fill="#ffffbb" stroke="black" stroke-width="0" cx="285.73" cy="-982.22" rx="102.08" ry="18"/>
<text text-anchor="middle" x="285.73" y="-978.52" font-family="Times,serif" font-size="14.00">newPrimaryQueues</text>
</g>
<!-- newPrimaryQueues&#45;&gt;importQueues -->
<g id="edge10" class="edge">
<title>newPrimaryQueues&#45;&gt;importQueues</title>
<path fill="none" stroke="black" d="M305.5,-964.55C376.53,-898.89 638.34,-667.84 902.21,-573.22 943.29,-558.49 990.12,-550.97 1032.8,-547.34"/>
<polygon fill="black" stroke="black" points="1033.28,-550.81 1042.98,-546.54 1032.73,-543.83 1033.28,-550.81"/>
</g>
<!-- newPrimaryQueues&#45;&gt;exportQueue -->
<g id="edge11" class="edge">
<title>newPrimaryQueues&#45;&gt;exportQueue</title>
<path fill="none" stroke="black" d="M297.5,-964.33C350.35,-878.4 592.28,-506.01 902.21,-357.22 948.65,-334.92 1004.92,-326.97 1053.51,-325.08"/>
<polygon fill="black" stroke="black" points="1053.87,-328.57 1063.76,-324.76 1053.65,-321.57 1053.87,-328.57"/>
</g>
<!-- newPrimaryQueues&#45;&gt;newQueues -->
<g id="edge12" class="edge">
<title>newPrimaryQueues&#45;&gt;newQueues</title>
<path fill="none" stroke="black" d="M303.12,-964.19C369.46,-892.55 627.7,-626.8 902.21,-519.22 946.79,-501.75 998.69,-494.02 1044.59,-491"/>
<polygon fill="black" stroke="black" points="1044.82,-494.5 1054.59,-490.41 1044.4,-487.51 1044.82,-494.5"/>
</g>
<!-- newPrimaryQueues&#45;&gt;settingsEditQueues -->
<g id="edge13" class="edge">
<title>newPrimaryQueues&#45;&gt;settingsEditQueues</title>
<path fill="none" stroke="black" d="M318.43,-965C407.69,-917.2 669.77,-781.5 902.21,-707.22 955.23,-690.27 1016.05,-677.61 1065.9,-668.92"/>
<polygon fill="black" stroke="black" points="1066.77,-672.32 1076.04,-667.18 1065.59,-665.42 1066.77,-672.32"/>
</g>
<!-- newPrimaryQueues&#45;&gt;timelineNameEditQueues -->
<g id="edge14" class="edge">
<title>newPrimaryQueues&#45;&gt;timelineNameEditQueues</title>
<path fill="none" stroke="black" d="M309.08,-964.51C386.04,-904.65 649.27,-708.98 902.21,-627.22 929.73,-618.32 959.63,-612.17 989.09,-607.95"/>
<polygon fill="black" stroke="black" points="989.62,-611.41 999.05,-606.59 988.67,-604.47 989.62,-611.41"/>
</g>
<!-- newPrimaryQueues&#45;&gt;timeScaleEditQueues -->
<g id="edge15" class="edge">
<title>newPrimaryQueues&#45;&gt;timeScaleEditQueues</title>
<path fill="none" stroke="black" d="M299.05,-964.27C356.07,-882.8 604.43,-545.99 902.21,-411.22 931.63,-397.9 964.75,-389.86 997.32,-385.2"/>
<polygon fill="black" stroke="black" points="997.95,-388.64 1007.4,-383.86 997.03,-381.71 997.95,-388.64"/>
</g>
<!-- newPrimaryQueues&#45;&gt;snackbarQueue -->
<g id="edge16" class="edge">
<title>newPrimaryQueues&#45;&gt;snackbarQueue</title>
<path fill="none" stroke="black" d="M300.9,-964.19C362.44,-887.44 616.27,-586.24 902.21,-465.22 955.31,-442.74 1019.62,-435.81 1071.41,-434.58"/>
<polygon fill="black" stroke="black" points="1071.66,-438.08 1081.6,-434.41 1071.54,-431.08 1071.66,-438.08"/>
</g>
<!-- onImport&#45;&gt;settingsSignal -->
<g id="edge19" class="edge">
<title>onImport&#45;&gt;settingsSignal</title>
<path fill="none" stroke="#ff0000" d="M325.15,-1293.91C348.36,-1288.9 378.05,-1282.11 402.27,-1270.22 659.46,-1143.94 637.5,-972.86 902.21,-863.22 971.06,-834.7 1058.35,-831.47 1113.13,-835.22"/>
<polygon fill="#ff0000" stroke="#ff0000" points="1113.06,-838.72 1123.31,-836.03 1113.62,-831.75 1113.06,-838.72"/>
</g>
<!-- onImport&#45;&gt;compTopBar -->
<g id="edge54" class="edge">
<title>onImport&#45;&gt;compTopBar</title>
<path fill="none" stroke="#0000ff" d="M339.38,-1303.75C360.8,-1300.4 384.62,-1293.42 402.27,-1279.22 804.06,-956 466.04,-507.29 902.21,-232.22 1083.31,-118.01 1780.39,-232.54 1973.11,-267.05"/>
<polygon fill="#0000ff" stroke="#0000ff" points="1972.77,-270.55 1983.23,-268.88 1974.01,-263.66 1972.77,-270.55"/>
</g>
<!-- onExport -->
<g id="node18" class="node">
<title>onExport</title>
<ellipse fill="#bbbbff" stroke="black" stroke-width="0" cx="285.73" cy="-1036.22" rx="53.89" ry="18"/>
<text text-anchor="middle" x="285.73" y="-1032.52" font-family="Times,serif" font-size="14.00">onExport</text>
</g>
<!-- onExport&#45;&gt;exportQueue -->
<g id="edge21" class="edge">
<title>onExport&#45;&gt;exportQueue</title>
<path fill="none" stroke="#ff0000" d="M339.42,-1034.26C360.25,-1031.5 383.61,-1025.77 402.27,-1014.22 714.27,-821.11 582.19,-536.73 902.21,-357.22 949.68,-330.59 1009.59,-322.81 1060.28,-322.15"/>
<polygon fill="#ff0000" stroke="#ff0000" points="1060.31,-325.65 1070.29,-322.1 1060.28,-318.65 1060.31,-325.65"/>
</g>
<!-- onExport&#45;&gt;compTopBar -->
<g id="edge55" class="edge">
<title>onExport&#45;&gt;compTopBar</title>
<path fill="none" stroke="#0000ff" d="M339.82,-1035.79C360.95,-1033.29 384.42,-1027.34 402.27,-1014.22 781.68,-735.4 498.29,-322.16 902.21,-80.22 1279.78,145.94 1849.14,-170.2 1990.24,-255.84"/>
<polygon fill="#0000ff" stroke="#0000ff" points="1988.55,-258.91 1998.91,-261.14 1992.2,-252.94 1988.55,-258.91"/>
</g>
<!-- onClickedExport -->
<g id="node19" class="node">
<title>onClickedExport</title>
<ellipse fill="#bbbbff" stroke="black" stroke-width="0" cx="285.73" cy="-1198.22" rx="87.99" ry="18"/>
<text text-anchor="middle" x="285.73" y="-1194.52" font-family="Times,serif" font-size="14.00">onClickedExport</text>
</g>
<!-- onClickedExport&#45;&gt;timelineNameSignal -->
<g id="edge23" class="edge">
<title>onClickedExport&#45;&gt;timelineNameSignal</title>
<path fill="none" stroke="#ff0000" d="M354.46,-1186.98C370.53,-1183.08 387.33,-1177.93 402.27,-1171.22 650.39,-1059.77 647.5,-913.64 902.21,-818.22 958.63,-797.08 1026.32,-790.51 1078.97,-789.13"/>
<polygon fill="#ff0000" stroke="#ff0000" points="1079.37,-792.62 1089.3,-788.92 1079.23,-785.62 1079.37,-792.62"/>
</g>
<!-- onClickedExport&#45;&gt;timeScaleSignal -->
<g id="edge24" class="edge">
<title>onClickedExport&#45;&gt;timeScaleSignal</title>
<path fill="none" stroke="#ff0000" d="M356.02,-1187.41C371.7,-1183.51 387.94,-1178.26 402.27,-1171.22 659.46,-1044.94 637.5,-873.86 902.21,-764.22 965.38,-738.05 1044.05,-733.17 1098.92,-733.68"/>
<polygon fill="#ff0000" stroke="#ff0000" points="1099.17,-737.18 1109.22,-733.84 1099.28,-730.19 1099.17,-737.18"/>
</g>
<!-- onClickedExport&#45;&gt;snackbarQueue -->
<g id="edge22" class="edge">
<title>onClickedExport&#45;&gt;snackbarQueue</title>
<path fill="none" stroke="#ff0000" d="M361.53,-1189.09C375.85,-1185.09 390.14,-1179.38 402.27,-1171.22 721.3,-956.64 570.16,-659.05 902.21,-465.22 955.29,-434.24 1024.76,-428.24 1079.05,-429.59"/>
<polygon fill="#ff0000" stroke="#ff0000" points="1079.24,-433.1 1089.35,-429.94 1079.47,-426.1 1079.24,-433.1"/>
</g>
<!-- onClickedExport&#45;&gt;compDialExport -->
<g id="edge39" class="edge">
<title>onClickedExport&#45;&gt;compDialExport</title>
<path fill="none" stroke="#0000ff" d="M363.36,-1189.63C377.22,-1185.58 390.87,-1179.7 402.27,-1171.22 760.38,-904.79 515.94,-523.88 902.21,-300.22 1005.49,-240.42 1320.78,-285.84 1439.26,-300.22 1653.27,-326.19 1699.73,-369.74 1910.24,-416.22 1931.26,-420.86 1954.59,-425.51 1974.54,-429.32"/>
<polygon fill="#0000ff" stroke="#0000ff" points="1974.15,-432.81 1984.63,-431.24 1975.46,-425.94 1974.15,-432.81"/>
</g>
<!-- onNew&#45;&gt;timelineNameSignal -->
<g id="edge27" class="edge">
<title>onNew&#45;&gt;timelineNameSignal</title>
<path fill="none" stroke="#ff0000" d="M327.29,-1247.34C350.17,-1243.49 378.79,-1236.75 402.27,-1225.22 659.46,-1098.94 637.5,-927.86 902.21,-818.22 958.49,-794.91 1027.08,-788.49 1080.18,-787.73"/>
<polygon fill="#ff0000" stroke="#ff0000" points="1080.27,-791.23 1090.24,-787.65 1080.22,-784.23 1080.27,-791.23"/>
</g>
<!-- onNew&#45;&gt;timeScaleSignal -->
<g id="edge26" class="edge">
<title>onNew&#45;&gt;timeScaleSignal</title>
<path fill="none" stroke="#ff0000" d="M327.57,-1247.89C350.54,-1244.21 379.16,-1237.47 402.27,-1225.22 669.34,-1083.72 626.67,-888.43 902.21,-764.22 965.06,-735.88 1044.68,-731.48 1099.86,-732.69"/>
<polygon fill="#ff0000" stroke="#ff0000" points="1099.78,-736.19 1109.87,-732.98 1099.98,-729.19 1099.78,-736.19"/>
</g>
<!-- onNew&#45;&gt;compTopBar -->
<g id="edge56" class="edge">
<title>onNew&#45;&gt;compTopBar</title>
<path fill="none" stroke="#0000ff" d="M328.59,-1251.24C352.46,-1248.68 381.64,-1241.96 402.27,-1225.22 809.63,-894.82 459.69,-437.79 902.21,-156.22 1084.86,-40 1789.09,-214.39 1976.63,-263.8"/>
<polygon fill="#0000ff" stroke="#0000ff" points="1975.89,-267.22 1986.45,-266.4 1977.68,-260.46 1975.89,-267.22"/>
</g>
<!-- onTimelineNameEdit&#45;&gt;timelineNameSignal -->
<g id="edge29" class="edge">
<title>onTimelineNameEdit&#45;&gt;timelineNameSignal</title>
<path fill="none" stroke="#ff0000" d="M334.98,-1128.17C356.1,-1123.12 380.88,-1116.87 402.27,-1108.22 642.29,-1011.16 656.5,-890.8 902.21,-809.22 962.28,-789.28 1033.93,-782.97 1087.34,-782.81"/>
<polygon fill="#ff0000" stroke="#ff0000" points="1087.42,-786.31 1097.43,-782.85 1087.45,-779.31 1087.42,-786.31"/>
</g>
<!-- onTimelineNameEdit&#45;&gt;compTopBar -->
<g id="edge57" class="edge">
<title>onTimelineNameEdit&#45;&gt;compTopBar</title>
<path fill="none" stroke="#0000ff" d="M372.41,-1133.3C383.16,-1129.39 393.46,-1124.18 402.27,-1117.22 791.99,-809.61 479.82,-379.17 902.21,-118.22 1105.27,7.23 1202.65,-86.75 1439.26,-118.22 1647.24,-145.88 1886.23,-226.7 1980.95,-260.78"/>
<polygon fill="#0000ff" stroke="#0000ff" points="1979.86,-264.11 1990.46,-264.22 1982.24,-257.53 1979.86,-264.11"/>
</g>
<!-- onTimeScaleEdit&#45;&gt;timeScaleSignal -->
<g id="edge32" class="edge">
<title>onTimeScaleEdit&#45;&gt;timeScaleSignal</title>
<path fill="none" stroke="#ff0000" d="M332.17,-1074.83C353.88,-1069.67 379.93,-1063.26 402.27,-1054.22 642.29,-957.16 656.5,-836.8 902.21,-755.22 968.63,-733.17 1049.22,-727.79 1103.65,-728.95"/>
<polygon fill="#ff0000" stroke="#ff0000" points="1103.74,-732.45 1113.84,-729.25 1103.94,-725.46 1103.74,-732.45"/>
</g>
<!-- onTimeScaleEdit&#45;&gt;compBottomBar -->
<g id="edge61" class="edge">
<title>onTimeScaleEdit&#45;&gt;compBottomBar</title>
<path fill="none" stroke="#0000ff" d="M363.09,-1081.25C376.97,-1077.23 390.7,-1071.47 402.27,-1063.22 741.62,-821.5 537.41,-471.48 902.21,-270.22 1111.2,-154.92 1201.68,-247.23 1439.26,-270.22 1541.53,-280.12 1837.67,-343.58 1964.24,-371.3"/>
<polygon fill="#0000ff" stroke="#0000ff" points="1963.63,-374.75 1974.15,-373.47 1965.13,-367.91 1963.63,-374.75"/>
</g>
<!-- onSettingsEdit&#45;&gt;settingsSignal -->
<g id="edge35" class="edge">
<title>onSettingsEdit&#45;&gt;settingsSignal</title>
<path fill="none" stroke="#ff0000" d="M336.21,-1346.15C357.44,-1341.48 381.98,-1334.97 402.27,-1324.22 669.34,-1182.72 626.67,-987.43 902.21,-863.22 970.74,-832.32 1059.2,-829.88 1114.19,-834.49"/>
<polygon fill="#ff0000" stroke="#ff0000" points="1114.11,-837.99 1124.4,-835.46 1114.77,-831.02 1114.11,-837.99"/>
</g>
<!-- onSettingsEdit&#45;&gt;compTopBar -->
<g id="edge58" class="edge">
<title>onSettingsEdit&#45;&gt;compTopBar</title>
<path fill="none" stroke="#0000ff" d="M360.24,-1353.29C375.3,-1349.19 390.21,-1342.87 402.27,-1333.22 800.53,-1014.56 473,-575.78 902.21,-300.22 1081.67,-185 1775.35,-249.5 1971.06,-270.42"/>
<polygon fill="#0000ff" stroke="#0000ff" points="1970.76,-273.91 1981.08,-271.5 1971.51,-266.95 1970.76,-273.91"/>
</g>
<!-- compTopBar&#45;&gt;compIndex -->
<g id="edge67" class="edge">
<title>compTopBar&#45;&gt;compIndex</title>
<path fill="none" stroke="black" d="M2065.44,-282.39C2085.42,-286.48 2109.39,-293.03 2129.22,-303.22 2229.34,-354.64 2325.02,-450.81 2366.36,-495.4"/>
<polygon fill="black" stroke="black" points="2363.86,-497.86 2373.2,-502.85 2369.02,-493.12 2363.86,-497.86"/>
</g>
<!-- compBottomBar&#45;&gt;zoomSignal -->
<g id="edge62" class="edge">
<title>compBottomBar&#45;&gt;zoomSignal</title>
<path fill="none" stroke="#ff0000" d="M1962.43,-381.99C1944.87,-385.14 1926.15,-390.65 1910.24,-399.22 1651.54,-538.56 1705.3,-738.45 1439.26,-863.22 1365.93,-897.61 1269.43,-898.11 1213.42,-897.32"/>
<polygon fill="#ff0000" stroke="#ff0000" points="1213.17,-893.82 1203.11,-897.17 1213.06,-900.82 1213.17,-893.82"/>
</g>
<!-- compBottomBar&#45;&gt;compIndex -->
<g id="edge68" class="edge">
<title>compBottomBar&#45;&gt;compIndex</title>
<path fill="none" stroke="black" d="M2075.73,-394.01C2092.9,-397.81 2112.06,-402.61 2129.22,-408.22 2211.93,-435.23 2304.69,-478.39 2353.48,-502.15"/>
<polygon fill="black" stroke="black" points="2352.12,-505.38 2362.64,-506.64 2355.19,-499.09 2352.12,-505.38"/>
</g>
<!-- compSnackbar&#45;&gt;compIndex -->
<g id="edge69" class="edge">
<title>compSnackbar&#45;&gt;compIndex</title>
<path fill="none" stroke="black" d="M2071.01,-338.96C2089.53,-343.28 2110.81,-349.3 2129.22,-357.22 2219.49,-396.06 2314.71,-463.7 2360.28,-497.99"/>
<polygon fill="black" stroke="black" points="2358.37,-500.93 2368.46,-504.18 2362.6,-495.35 2358.37,-500.93"/>
</g>
<!-- compDialImport&#45;&gt;importQueues -->
<g id="edge38" class="edge">
<title>compDialImport&#45;&gt;importQueues</title>
<path fill="none" stroke="#ff0000" d="M1981.67,-543.12C1859.16,-538.99 1492.55,-538.37 1295.82,-541.24"/>
<polygon fill="#ff0000" stroke="#ff0000" points="1295.67,-537.74 1285.72,-541.39 1295.77,-544.74 1295.67,-537.74"/>
</g>
<!-- compDialImport&#45;&gt;compIndex -->
<g id="edge70" class="edge">
<title>compDialImport&#45;&gt;compIndex</title>
<path fill="none" stroke="black" d="M2065.67,-543.17C2134.15,-538.08 2271.42,-527.87 2342.6,-522.58"/>
<polygon fill="black" stroke="black" points="2342.9,-526.06 2352.61,-521.83 2342.38,-519.08 2342.9,-526.06"/>
</g>
<!-- compDialExport&#45;&gt;compIndex -->
<g id="edge71" class="edge">
<title>compDialExport&#45;&gt;compIndex</title>
<path fill="none" stroke="black" d="M2061.54,-446.43C2129.31,-461.56 2273.47,-493.72 2345.26,-509.74"/>
<polygon fill="black" stroke="black" points="2344.79,-513.22 2355.31,-511.99 2346.32,-506.39 2344.79,-513.22"/>
</g>
<!-- compDialNew&#45;&gt;newQueues -->
<g id="edge42" class="edge">
<title>compDialNew&#45;&gt;newQueues</title>
<path fill="none" stroke="#ff0000" d="M1991.96,-489.49C1879.31,-484.96 1485.55,-484.26 1285.83,-487.39"/>
<polygon fill="#ff0000" stroke="#ff0000" points="1285.53,-483.89 1275.59,-487.55 1285.64,-490.89 1285.53,-483.89"/>
</g>
<!-- compDialNew&#45;&gt;compIndex -->
<g id="edge72" class="edge">
<title>compDialNew&#45;&gt;compIndex</title>
<path fill="none" stroke="black" d="M2055.37,-494.5C2119.36,-499.26 2267.48,-510.28 2342.48,-515.85"/>
<polygon fill="black" stroke="black" points="2342.33,-519.35 2352.56,-516.6 2342.85,-512.37 2342.33,-519.35"/>
</g>
<!-- compDialTimelineNameEdit&#45;&gt;timelineNameEditQueues -->
<g id="edge53" class="edge">
<title>compDialTimelineNameEdit&#45;&gt;timelineNameEditQueues</title>
<path fill="none" stroke="#ff0000" d="M1940.28,-644.82C1804.48,-633.41 1530.63,-615.63 1348.18,-605.99"/>
<polygon fill="#ff0000" stroke="#ff0000" points="1348.1,-602.48 1337.93,-605.45 1347.73,-609.47 1348.1,-602.48"/>
</g>
<!-- compDialTimelineNameEdit&#45;&gt;compIndex -->
<g id="edge73" class="edge">
<title>compDialTimelineNameEdit&#45;&gt;compIndex</title>
<path fill="none" stroke="black" d="M2085.12,-640.18C2099.68,-636.37 2115.11,-631.97 2129.22,-627.22 2210.91,-599.76 2303.36,-558.57 2352.54,-535.82"/>
<polygon fill="black" stroke="black" points="2354.19,-538.91 2361.79,-531.52 2351.24,-532.56 2354.19,-538.91"/>
</g>
<!-- compDialTimeScaleEdit&#45;&gt;timeScaleEditQueues -->
<g id="edge49" class="edge">
<title>compDialTimeScaleEdit&#45;&gt;timeScaleEditQueues</title>
<path fill="none" stroke="#ff0000" d="M1985.77,-584.45C1963.71,-578.32 1935.21,-571.49 1910.24,-564.22 1697.71,-502.32 1655.52,-449.49 1439.26,-402.22 1406.19,-394.99 1370.44,-389.7 1336.06,-386.01"/>
<polygon fill="#ff0000" stroke="#ff0000" points="1336.23,-382.51 1325.93,-384.97 1335.52,-389.47 1336.23,-382.51"/>
</g>
<!-- compDialTimeScaleEdit&#45;&gt;compIndex -->
<g id="edge74" class="edge">
<title>compDialTimeScaleEdit&#45;&gt;compIndex</title>
<path fill="none" stroke="black" d="M2080.66,-587.74C2153.52,-571.48 2279.36,-543.4 2345.04,-528.75"/>
<polygon fill="black" stroke="black" points="2346.04,-532.11 2355.04,-526.51 2344.52,-525.28 2346.04,-532.11"/>
</g>
<!-- compDialSettingsEdit&#45;&gt;settingsEditQueues -->
<g id="edge45" class="edge">
<title>compDialSettingsEdit&#45;&gt;settingsEditQueues</title>
<path fill="none" stroke="#ff0000" d="M1960.6,-700.58C1823.92,-688.44 1494.38,-667.16 1305.99,-657.82"/>
<polygon fill="#ff0000" stroke="#ff0000" points="1305.89,-654.32 1295.74,-657.32 1305.55,-661.31 1305.89,-654.32"/>
</g>
<!-- compDialSettingsEdit&#45;&gt;compIndex -->
<g id="edge75" class="edge">
<title>compDialSettingsEdit&#45;&gt;compIndex</title>
<path fill="none" stroke="black" d="M2079.48,-697.43C2095.83,-693.32 2113.56,-687.96 2129.22,-681.22 2219.49,-642.38 2314.71,-574.74 2360.28,-540.45"/>
<polygon fill="black" stroke="black" points="2362.6,-543.08 2368.46,-534.26 2358.37,-537.51 2362.6,-543.08"/>
</g>
</g>
</svg>
